<svg width="599" height="510" viewBox="0 0 599 510" fill="none" xmlns="http://www.w3.org/2000/svg">
<path opacity="0.7" d="M503.739 65.6291L500.927 61.0069C477.178 21.8676 434.237 -1.7253 388.952 1.11314C383.124 1.47757 377.331 2.274 371.622 3.49587C330.451 12.2976 294.645 43.4294 279.802 83.2978C271.065 106.734 268.63 133.739 252.055 152.306C230.494 176.524 193.88 177.279 161.694 176.276C129.508 175.274 92.8813 176.133 71.4237 200.455C57.9867 215.676 53.716 237.329 54.7967 257.745C57.6612 311.727 95.2901 360.007 143.14 384.042C190.99 408.078 247.303 410.187 299.684 399.667C373.041 384.889 442.804 344.278 484.73 281.546C526.655 218.814 537.293 133.335 503.739 65.6291Z" fill="#7C3900"/>
<path d="M435.944 408.447H583.842C592.083 408.447 598.764 401.767 598.764 393.526V279.051C598.764 270.81 592.083 264.129 583.842 264.129H435.944C427.703 264.129 421.022 270.81 421.022 279.051V393.526C421.022 401.767 427.703 408.447 435.944 408.447Z" fill="white"/>
<path d="M502.752 404.035C500.929 408.449 465.683 441.586 465.683 441.586V404.035H502.752Z" fill="#455A64"/>
<path d="M489.106 373.809C489.106 369.252 489.106 365.45 489.106 364.982C489.106 364.982 473.702 363.523 472.596 348.276C472.062 340.907 472.192 325.621 472.479 311.819C472.626 304.662 475.464 297.823 480.428 292.665C485.391 287.506 492.115 284.406 499.261 283.982L500.733 283.891C516.683 283.891 525.602 297.393 525.185 313.33L524.625 373.132L498.845 393.848L496.97 393.678L489.106 373.809Z" fill="#FFBF9D"/>
<path d="M489.08 364.982C496.132 364.541 502.91 362.087 508.611 357.912C508.611 357.912 504.431 369.357 489.08 368.901V364.982Z" fill="#FF9A6C"/>
<path d="M498.429 318.404C498.729 318.716 500.499 317.323 503.051 317.284C505.603 317.245 507.504 318.521 507.778 318.195C508.051 317.87 507.596 317.492 506.775 316.893C505.668 316.126 504.346 315.73 502.999 315.76C501.663 315.785 500.37 316.242 499.315 317.062C498.533 317.687 498.286 318.26 498.429 318.404Z" fill="#263238"/>
<path d="M500.315 325.323C500.339 325.86 500.574 326.367 500.969 326.733C501.364 327.098 501.887 327.293 502.425 327.276C502.688 327.283 502.951 327.237 503.196 327.14C503.442 327.044 503.665 326.899 503.853 326.714C504.042 326.529 504.191 326.309 504.292 326.065C504.394 325.822 504.445 325.56 504.443 325.297C504.416 324.759 504.181 324.253 503.787 323.886C503.393 323.519 502.872 323.32 502.334 323.33C502.069 323.325 501.807 323.373 501.561 323.471C501.316 323.569 501.092 323.715 500.904 323.901C500.716 324.086 500.567 324.308 500.466 324.552C500.365 324.796 500.314 325.058 500.315 325.323Z" fill="#263238"/>
<path d="M491.802 336.064C490.525 335.749 489.212 335.596 487.896 335.608C487.297 335.608 486.725 335.504 486.594 335.1C486.508 334.48 486.613 333.849 486.894 333.29C487.362 331.819 487.857 330.257 488.391 328.629C490.461 321.989 491.92 316.533 491.646 316.455C491.373 316.377 489.485 321.663 487.415 328.343C486.92 329.97 486.438 331.533 485.995 333.03C485.661 333.775 485.601 334.614 485.826 335.4C485.924 335.606 486.067 335.787 486.245 335.929C486.424 336.071 486.632 336.17 486.855 336.22C487.193 336.288 487.539 336.314 487.883 336.298C489.194 336.399 490.513 336.32 491.802 336.064Z" fill="#263238"/>
<path d="M499.693 310.191C499.94 310.764 501.985 310.36 504.432 310.53C506.88 310.699 508.885 311.246 509.172 310.699C509.302 310.451 508.925 309.918 508.104 309.397C507.017 308.771 505.797 308.41 504.544 308.342C503.291 308.274 502.04 308.502 500.891 309.006C500.019 309.436 499.589 309.931 499.693 310.191Z" fill="#263238"/>
<path d="M475.747 311.648C476.007 312.117 478.012 311.648 480.421 311.583C482.83 311.518 484.835 311.869 485.096 311.388C485.213 311.166 484.822 310.75 483.989 310.372C482.86 309.904 481.643 309.686 480.421 309.734C479.186 309.753 477.969 310.037 476.854 310.567C476.02 310.997 475.63 311.427 475.747 311.648Z" fill="#263238"/>
<path d="M524.601 324.698C524.848 324.568 534.9 320.961 535.199 331.416C535.499 341.872 524.926 340.01 524.9 339.71C524.874 339.411 524.601 324.698 524.601 324.698Z" fill="#FFBF9D"/>
<path d="M527.985 335.659C527.985 335.659 528.167 335.789 528.48 335.919C528.918 336.097 529.408 336.097 529.847 335.919C530.94 335.477 531.813 333.706 531.813 331.818C531.817 330.918 531.622 330.029 531.24 329.214C531.13 328.889 530.944 328.595 530.697 328.357C530.45 328.119 530.15 327.944 529.821 327.847C529.61 327.796 529.388 327.822 529.195 327.919C529.002 328.017 528.85 328.181 528.766 328.38C528.636 328.68 528.766 328.875 528.649 328.901C528.532 328.927 528.414 328.732 528.493 328.302C528.545 328.04 528.682 327.802 528.883 327.625C529.021 327.511 529.182 327.427 529.355 327.377C529.527 327.328 529.708 327.315 529.886 327.339C530.316 327.414 530.721 327.597 531.062 327.87C531.403 328.143 531.671 328.498 531.839 328.901C532.302 329.799 532.543 330.795 532.542 331.805C532.542 333.914 531.513 335.906 530.016 336.388C529.737 336.48 529.442 336.507 529.151 336.469C528.86 336.431 528.582 336.327 528.336 336.167C528.011 335.906 527.946 335.737 527.985 335.659Z" fill="#FF9A6C"/>
<path d="M495.042 344.954C494.925 344.693 496.982 344.107 498.453 342.193C499.066 341.36 499.565 340.45 499.938 339.485C500.25 338.73 500.484 338.261 500.602 338.3C500.719 338.339 500.667 338.847 500.497 339.602C500.259 340.707 499.784 341.746 499.104 342.649C498.404 343.549 497.472 344.242 496.409 344.654C495.602 345.032 495.042 345.045 495.042 344.954Z" fill="#263238"/>
<path d="M538.713 307.95C536.578 304.226 536.109 299.825 534.989 295.698C533.87 291.571 531.617 287.274 527.607 285.79H527.516C523.909 284.279 519.443 284.201 516.435 286.688C515.771 281.245 511.071 276.871 505.785 275.412C500.498 273.954 491.983 274.683 486.866 276.714C482.96 278.238 479.054 281.441 474.393 286.141C472.418 288.123 470.606 290.26 468.976 292.534L464.185 306.7L468.091 314.213C468.325 314.734 468.559 315.242 468.846 315.749L472.205 331.53C472.492 327.246 472.374 312.312 472.648 308.028C475.876 307.972 479.06 307.265 482.009 305.95C484.958 304.634 487.61 302.737 489.809 300.372C492.178 297.768 494.066 294.578 497.217 293.068C501.293 291.115 506.084 292.638 510.329 294.162L510.147 294.005C512.357 295.059 514.342 296.532 515.993 298.341C514.925 306.808 515.693 315.405 518.245 323.549C518.636 324.773 519.69 327.298 520.849 327.767C523.193 328.705 523.857 326.322 525.276 325.072C526.536 324.231 528.059 323.879 529.56 324.082C530.783 320.541 531.787 316.927 532.568 313.262C533.982 313.722 535.486 313.843 536.955 313.614L535.653 310.372C536.207 310.789 536.841 311.086 537.515 311.244C537.854 311.314 538.206 311.279 538.525 311.145C538.843 311.01 539.113 310.781 539.299 310.489C539.69 309.695 539.156 308.718 538.713 307.95Z" fill="#263238"/>
<path d="M511.619 288.409C512.16 288.841 512.665 289.315 513.13 289.828C514.314 291.301 515.099 293.055 515.408 294.919C515.656 296.206 515.769 297.515 515.747 298.825C515.747 300.232 515.603 301.729 515.473 303.318C515.312 304.979 515.251 306.649 515.291 308.317C515.34 309.191 515.444 310.061 515.603 310.921C515.722 311.864 516.081 312.761 516.645 313.526C516.909 313.825 517.245 314.051 517.621 314.183C517.997 314.316 518.401 314.349 518.793 314.281C519.543 314.147 520.229 313.772 520.746 313.213C521.59 312.07 522.112 310.721 522.257 309.307H521.944C522.388 310.461 522.997 311.545 523.754 312.523C524.484 313.435 525.539 314.027 526.697 314.177C527.235 314.241 527.78 314.156 528.272 313.929C528.727 313.696 529.103 313.333 529.353 312.888C529.578 312.491 529.695 312.042 529.691 311.585C529.684 311.143 529.517 310.718 529.223 310.388L529.053 310.531C529.95 311.579 531.054 312.43 532.295 313.031C532.625 313.186 532.965 313.321 533.311 313.434C533.427 313.485 533.55 313.516 533.676 313.526L533.337 313.382C533.103 313.278 532.777 313.148 532.348 312.927C531.15 312.293 530.088 311.431 529.223 310.388L529.066 310.531C529.31 310.856 529.447 311.248 529.458 311.653C529.47 312.059 529.356 312.458 529.132 312.796C528.908 313.197 528.568 313.52 528.155 313.721C527.707 313.924 527.21 313.996 526.723 313.929C525.65 313.774 524.677 313.215 524.001 312.367C523.271 311.404 522.679 310.343 522.244 309.216L522.035 308.721L521.931 309.242C521.776 310.578 521.278 311.852 520.486 312.94C520.023 313.437 519.41 313.771 518.741 313.89C518.408 313.954 518.064 313.928 517.744 313.816C517.424 313.704 517.139 313.509 516.918 313.252C516.393 312.547 516.061 311.716 515.955 310.843C515.786 309.984 515.682 309.114 515.642 308.239C515.601 306.584 515.653 304.928 515.799 303.278C515.916 301.69 516.046 300.18 516.046 298.76C516.049 297.448 515.918 296.14 515.655 294.854C515.322 292.958 514.485 291.187 513.234 289.724C512.771 289.2 512.226 288.756 511.619 288.409Z" fill="#455A64"/>
<path d="M464.276 302.641C464.276 302.641 464.276 302.641 464.394 302.746L464.771 303.032C464.974 303.186 465.187 303.325 465.409 303.449C465.705 303.635 466.014 303.8 466.334 303.943C468.362 304.911 470.599 305.358 472.844 305.245C476.177 305.067 479.388 303.927 482.088 301.964C485.345 299.536 488.074 296.471 490.109 292.954C491.242 291.131 492.166 289.243 493.182 287.512C494.118 285.824 495.289 284.276 496.658 282.915C497.893 281.692 499.415 280.796 501.085 280.311C501.841 280.113 502.623 280.034 503.403 280.077C504.123 280.127 504.832 280.276 505.512 280.52C506.69 280.938 507.764 281.604 508.663 282.473C509.35 283.123 509.922 283.885 510.356 284.725C510.69 285.461 510.947 286.229 511.124 287.017C511.127 286.965 511.127 286.913 511.124 286.861C511.124 286.73 511.124 286.574 511.124 286.392C510.998 285.797 510.81 285.216 510.564 284.66C510.137 283.795 509.57 283.008 508.884 282.33C507.453 280.862 505.537 279.964 503.494 279.804C502.683 279.747 501.869 279.827 501.085 280.038C499.363 280.508 497.787 281.404 496.502 282.642C495.103 284.012 493.91 285.578 492.96 287.29C491.932 289.048 491.007 290.923 489.874 292.733C487.865 296.21 485.178 299.247 481.971 301.665C479.31 303.612 476.147 304.755 472.857 304.959C470.649 305.101 468.439 304.713 466.412 303.826C464.966 303.188 464.302 302.589 464.276 302.641Z" fill="#455A64"/>
<path d="M475.136 319.047C475.436 319.359 477.219 317.966 479.771 317.94C482.323 317.914 484.211 319.177 484.485 318.851C484.758 318.526 484.316 318.135 483.482 317.549C482.375 316.783 481.053 316.386 479.706 316.417C478.37 316.446 477.079 316.902 476.022 317.719C475.253 318.331 474.993 318.917 475.136 319.047Z" fill="#263238"/>
<path d="M479.041 325.672C479.068 326.21 479.303 326.716 479.697 327.083C480.091 327.45 480.612 327.649 481.15 327.638C481.415 327.644 481.677 327.596 481.923 327.498C482.168 327.4 482.392 327.254 482.58 327.068C482.768 326.882 482.917 326.661 483.018 326.417C483.119 326.172 483.17 325.91 483.169 325.646C483.142 325.11 482.906 324.605 482.512 324.24C482.117 323.875 481.596 323.679 481.059 323.693C480.796 323.686 480.533 323.732 480.288 323.829C480.042 323.925 479.819 324.07 479.631 324.255C479.442 324.439 479.293 324.66 479.192 324.904C479.09 325.147 479.039 325.408 479.041 325.672Z" fill="#263238"/>
<path d="M470.306 290.776C469.003 292.495 467.011 294.057 464.876 293.823C464.101 293.66 463.339 293.438 462.597 293.159C461.855 293.615 462.025 296.167 462.597 296.87C463.082 297.467 463.618 298.02 464.199 298.524C461.686 299.826 459.407 299.214 456.738 298.237C457.007 300.519 457.87 302.691 459.241 304.535C460.611 306.378 462.443 307.83 464.551 308.744C465.195 309.09 465.913 309.278 466.644 309.291C467.375 309.305 468.099 309.144 468.756 308.823C469.765 308 470.429 306.829 470.618 305.541C471.814 300.966 472.443 296.261 472.493 291.532L470.306 290.776Z" fill="#263238"/>
<path d="M454.211 391.024L454.485 390.672C466.698 377.743 489.184 373.42 489.184 373.42C489.184 373.42 490.564 381.884 503.168 382.834C515.772 383.785 524.99 370.895 524.99 370.895L541.916 373.29C541.916 373.29 550.38 374.293 555.64 377.392C567.515 384.371 573.869 408.445 573.869 408.445L444.186 408.979L454.211 391.024Z" fill="#455A64"/>
<path d="M141.434 250.49H15.9432C7.73829 250.49 1.08691 257.142 1.08691 265.346V361.645C1.08691 369.85 7.73829 376.501 15.9432 376.501H141.434C149.638 376.501 156.29 369.85 156.29 361.645V265.346C156.29 257.142 149.638 250.49 141.434 250.49Z" fill="white"/>
<path d="M84.9004 372.649C86.4889 376.556 117.282 405.435 117.282 405.435V372.649H84.9004Z" fill="#FFAA4C"/>
<path d="M106.553 278.447C105.792 275.985 104.548 273.699 102.894 271.722C101.24 269.746 99.2083 268.119 96.9183 266.937C91.7487 264.53 85.9026 263.996 80.3824 265.427C74.9131 266.874 69.7153 269.2 64.9923 272.314C62.2115 273.852 59.7429 275.897 57.7139 278.343C54.2375 282.965 50.9043 290.504 50.722 296.285C50.5658 300.959 52.6881 312.586 54.7844 316.766C55.8977 318.493 57.4968 319.852 59.3806 320.672C61.6273 324.814 64.5947 328.522 68.1433 331.622C69.1328 328.463 70.1267 325.299 71.1249 322.13L106.553 278.447Z" fill="#263238"/>
<path d="M103.702 272.796L94.457 271.416C99.8214 283.239 101.97 310.581 105.212 323.159C108.454 318.146 115.902 302.938 115.316 296.988C114.73 291.038 114.6 271.468 103.702 272.796Z" fill="#263238"/>
<path d="M60.668 293.963C60.7343 290.599 61.8781 287.346 63.9313 284.681C65.9844 282.016 68.8385 280.08 72.0738 279.159L93.1017 273.156C102.216 271.854 108.648 282.987 109.52 292.153C110.471 302.335 111.187 313.103 110.211 320.798C108.257 336.188 96.5782 338.505 96.5782 338.505C96.5782 338.505 96.7865 345.784 96.9037 350.224L93.4793 370.262L65.7589 346.591L60.5508 294.145C60.6029 293.885 60.6549 294.314 60.668 293.963Z" fill="#FFBF9D"/>
<path d="M104.888 304.906C104.913 305.417 104.735 305.916 104.394 306.297C104.053 306.677 103.575 306.907 103.065 306.937C102.816 306.966 102.563 306.945 102.322 306.874C102.081 306.803 101.857 306.685 101.662 306.526C101.468 306.367 101.308 306.17 101.191 305.948C101.074 305.725 101.003 305.482 100.982 305.232C100.963 304.722 101.143 304.224 101.482 303.843C101.822 303.463 102.296 303.228 102.805 303.188C103.055 303.161 103.308 303.184 103.549 303.256C103.79 303.329 104.014 303.448 104.208 303.608C104.402 303.769 104.562 303.966 104.679 304.189C104.796 304.412 104.867 304.656 104.888 304.906Z" fill="#263238"/>
<path d="M107.386 298.226C107.151 298.486 105.628 297.432 103.48 297.51C101.331 297.588 99.847 298.682 99.5736 298.421C99.3001 298.161 99.6907 297.848 100.355 297.328C101.251 296.669 102.328 296.301 103.441 296.273C104.538 296.24 105.618 296.554 106.526 297.171C107.269 297.653 107.503 298.109 107.386 298.226Z" fill="#263238"/>
<path d="M85.8497 304.906C85.8746 305.417 85.6972 305.916 85.3559 306.297C85.0146 306.677 84.537 306.907 84.0269 306.937C83.7774 306.966 83.5247 306.945 83.2838 306.874C83.0428 306.803 82.8185 306.685 82.6242 306.526C82.4299 306.366 82.2695 306.17 82.1526 305.948C82.0357 305.725 81.9646 305.482 81.9436 305.232C81.9255 304.72 82.1066 304.22 82.449 303.839C82.7914 303.458 83.2684 303.224 83.7795 303.188C84.029 303.161 84.2813 303.184 84.5215 303.257C84.7618 303.329 84.985 303.449 85.1781 303.609C85.3711 303.769 85.5301 303.967 85.6454 304.19C85.7608 304.412 85.8303 304.656 85.8497 304.906Z" fill="#263238"/>
<path d="M87.3227 298.797C87.0753 299.058 85.5649 298.003 83.4166 298.081C81.2682 298.159 79.7969 299.253 79.5104 298.993C79.224 298.732 79.6276 298.42 80.2917 297.899C81.1883 297.24 82.2653 296.872 83.3775 296.844C84.4751 296.811 85.5551 297.125 86.4633 297.743C87.1925 298.224 87.505 298.68 87.3227 298.797Z" fill="#263238"/>
<path d="M94.3925 315.212C95.5013 314.837 96.6509 314.597 97.8168 314.496C98.3507 314.417 98.8585 314.3 98.9366 313.923C98.9643 313.365 98.8237 312.811 98.5329 312.334C97.9861 311.032 97.4132 309.73 96.8012 308.272C94.4055 302.491 92.6608 297.725 92.8951 297.634C93.1295 297.543 95.2518 302.152 97.6476 307.933L99.3142 312.022C99.6692 312.664 99.7889 313.41 99.6527 314.131C99.5804 314.324 99.4656 314.497 99.3168 314.639C99.168 314.781 98.9891 314.888 98.7934 314.951C98.497 315.04 98.191 315.093 97.8819 315.107C96.728 315.291 95.5553 315.326 94.3925 315.212Z" fill="#263238"/>
<path d="M76.1113 333.592C76.1113 333.592 81.3976 344.008 96.6705 342.055L96.6184 338.461C89.4633 338.772 82.3628 337.086 76.1113 333.592Z" fill="#FF9A6C"/>
<path d="M86.4375 291.177C86.2422 291.75 84.1329 291.555 81.6591 291.919C79.1852 292.284 77.2061 293.039 76.8545 292.531C76.6983 292.284 77.0368 291.737 77.8311 291.151C78.8889 290.438 80.095 289.975 81.3582 289.796C82.6215 289.618 83.9087 289.73 85.1225 290.122C86.0469 290.461 86.5157 290.904 86.4375 291.177Z" fill="#263238"/>
<path d="M106.515 291.777C106.163 292.272 104.692 291.777 102.934 291.842C101.177 291.907 99.7184 292.272 99.3538 291.777C99.1976 291.53 99.4189 291.048 100.057 290.579C100.908 290.003 101.913 289.694 102.941 289.694C103.969 289.694 104.974 290.003 105.825 290.579C106.45 291.048 106.671 291.543 106.515 291.777Z" fill="#263238"/>
<path d="M104.953 278.288C104.381 277.179 103.512 276.251 102.443 275.607C101.374 274.963 100.147 274.629 98.8986 274.643C96.3942 274.708 93.962 275.495 91.8936 276.908C82.9226 282.442 78.5998 295.306 69.759 301.022C67.5846 302.415 64.655 301.269 62.8191 303.105C60.9832 304.941 59.8504 307.805 60.9572 310.149C59.6217 308.578 58.5169 306.824 57.676 304.941C57.2649 303.996 57.0603 302.974 57.076 301.943C57.0918 300.912 57.3274 299.897 57.7672 298.965C58.5093 297.584 59.8504 296.517 60.189 295.059C60.5275 293.6 59.9155 292.337 59.9416 290.97C60.0641 289.584 60.51 288.246 61.2436 287.064C64.4509 280.6 69.357 275.132 75.4358 271.244C79.4482 268.757 84.0613 267.406 88.7817 267.338C93.5161 267.314 98.1026 268.986 101.711 272.052C103.781 273.874 105.956 275.762 104.979 278.34" fill="#263238"/>
<path d="M63.0921 304.993C62.9098 304.564 54.8372 301.908 54.9804 310.397C55.1106 318.652 63.3916 316.79 63.3916 316.555C63.3916 316.321 63.0921 304.993 63.0921 304.993Z" fill="#FFBF9D"/>
<path d="M60.7865 313.489C60.7865 313.489 60.6433 313.593 60.4089 313.697C60.0617 313.834 59.6754 313.834 59.3282 313.697C58.7921 313.365 58.3524 312.898 58.0531 312.343C57.7539 311.788 57.6054 311.164 57.6225 310.533C57.5964 309.825 57.7206 309.12 57.9871 308.463C58.0633 308.205 58.1998 307.969 58.3855 307.774C58.5712 307.579 58.8006 307.432 59.0548 307.343C59.2177 307.296 59.3922 307.308 59.5473 307.377C59.7023 307.446 59.8277 307.568 59.9011 307.721C60.0183 307.955 59.9662 308.112 60.0183 308.125C60.0704 308.138 60.1876 307.994 60.1225 307.643C60.0676 307.441 59.9488 307.263 59.7839 307.135C59.5544 306.97 59.2697 306.9 58.9897 306.94C58.6524 307.014 58.3395 307.172 58.0799 307.4C57.8203 307.627 57.6227 307.917 57.5054 308.242C57.1677 308.961 57.0112 309.752 57.0496 310.546C57.0234 311.283 57.2159 312.012 57.6028 312.64C57.9898 313.268 58.5538 313.767 59.224 314.075C59.446 314.131 59.6775 314.138 59.9023 314.095C60.1272 314.052 60.3401 313.961 60.5261 313.828C60.7735 313.684 60.8256 313.502 60.7865 313.489Z" fill="#FF9A6C"/>
<path d="M59.6787 300.86C59.8489 300.787 60.0104 300.695 60.1605 300.587C60.473 300.378 60.9417 300.105 61.4625 299.675C63.051 298.439 64.5043 297.038 65.7983 295.496C67.6704 293.188 69.4092 290.775 71.0064 288.27C72.9321 285.203 75.1097 282.303 77.5166 279.598C78.8134 278.243 80.2542 277.034 81.8133 275.991C83.2766 275.043 84.8509 274.277 86.5007 273.713C89.2949 272.728 92.2514 272.286 95.2113 272.411C97.2074 272.477 99.1861 272.805 101.097 273.387C101.774 273.582 102.281 273.791 102.633 273.908L103.18 274.09L102.659 273.843C102.163 273.619 101.654 273.423 101.136 273.257C99.2246 272.604 97.2292 272.231 95.2113 272.15C92.2123 272.01 89.2145 272.452 86.3835 273.452C84.7053 274.025 83.1045 274.803 81.6181 275.77C80.0277 276.817 78.5602 278.04 77.2432 279.416C74.8253 282.135 72.6472 285.058 70.733 288.152C69.1211 290.657 67.3828 293.077 65.5249 295.405C64.3022 296.904 62.9421 298.286 61.4625 299.532C60.9156 299.975 60.4469 300.274 60.1605 300.509L59.6787 300.86Z" fill="white"/>
<path d="M61.8284 303.188C61.5648 305.403 61.8881 307.648 62.7659 309.699C63.8726 311.678 66.5288 312.967 68.4558 311.782C70.0313 310.831 70.4479 308.761 70.6693 306.938C71.3073 301.665 71.5026 296.34 72.1796 291.066L61.8284 303.188Z" fill="#263238"/>
<path d="M102.815 274.427C102.815 274.427 102.086 274.309 100.758 274.309C98.8906 274.331 97.0457 274.721 95.3286 275.455C94.1432 275.958 93.013 276.582 91.9563 277.317C90.7487 278.177 89.5963 279.112 88.5059 280.116C85.9754 282.385 83.7283 284.952 81.8134 287.759C80.8109 289.257 79.9255 290.793 78.949 292.225C78.0492 293.618 76.9871 294.899 75.785 296.04C73.6952 297.916 71.3973 299.545 68.9363 300.897C66.866 302.082 65.1213 302.915 63.9234 303.501L62.5303 304.139C62.3694 304.224 62.199 304.29 62.0225 304.334C62.1672 304.225 62.3246 304.133 62.4912 304.061L63.7932 303.332C64.9651 302.707 66.6838 301.835 68.728 300.637C71.1344 299.253 73.3829 297.612 75.4335 295.741C76.6152 294.618 77.6598 293.36 78.5453 291.991C79.4958 290.572 80.3812 289.035 81.3968 287.512C83.3446 284.656 85.636 282.049 88.2195 279.752C89.335 278.754 90.5089 277.824 91.735 276.966C92.8172 276.223 93.9789 275.602 95.1984 275.117C96.9602 274.392 98.8536 274.042 100.758 274.088C101.274 274.106 101.787 274.163 102.294 274.257C102.474 274.293 102.649 274.35 102.815 274.427Z" fill="#455A64"/>
<path d="M61.464 298.044C61.246 298.241 61.0056 298.411 60.7479 298.552L58.6907 299.854L58.0006 300.27C57.729 300.444 57.4221 300.555 57.1022 300.596C56.9091 300.63 56.7101 300.593 56.5423 300.492C56.4515 300.43 56.3753 300.349 56.3191 300.254C56.2629 300.16 56.228 300.054 56.2168 299.945C56.2276 299.564 56.3549 299.196 56.5814 298.89L58.899 294.984L59.2375 295.284C58.451 295.886 57.5714 296.357 56.6334 296.677C55.6851 296.99 54.6892 297.136 53.6908 297.106C53.4354 297.109 53.1809 297.074 52.9357 297.002C52.7925 296.967 52.6594 296.899 52.5466 296.805C52.4337 296.71 52.3441 296.59 52.2846 296.455C52.235 296.318 52.2185 296.171 52.2366 296.026C52.2547 295.881 52.3069 295.743 52.3888 295.622C52.5276 295.433 52.6799 295.255 52.8445 295.088C53.8995 294.01 54.802 292.792 55.5267 291.469C56.1833 290.21 56.7448 288.905 57.2063 287.562C57.1837 287.94 57.1093 288.312 56.985 288.669C56.6945 289.668 56.3063 290.637 55.8262 291.56C55.1136 292.953 54.206 294.238 53.131 295.375C52.8315 295.674 52.532 296.026 52.6622 296.273C52.7924 296.521 53.2481 296.651 53.6778 296.638C54.6239 296.665 55.5673 296.524 56.4642 296.221C57.3573 295.932 58.1941 295.492 58.938 294.919L59.9016 294.177L59.2766 295.218L56.9069 299.125C56.7224 299.361 56.6095 299.646 56.5814 299.945C56.5814 300.179 56.8027 300.309 57.0631 300.283C57.5902 300.154 58.089 299.929 58.5344 299.619L60.6567 298.461C60.9042 298.283 61.1761 298.143 61.464 298.044Z" fill="white"/>
<path d="M86.4762 319.334C86.6105 318.702 86.9636 318.137 87.4733 317.74C87.9829 317.342 88.6165 317.137 89.2625 317.16C89.7352 317.206 90.1891 317.368 90.5843 317.632C90.9794 317.895 91.3036 318.252 91.5281 318.67C91.7428 319.094 91.8707 319.557 91.9043 320.031C91.9378 320.505 91.8763 320.981 91.7234 321.431V321.626C91.2999 322.114 90.7358 322.458 90.1086 322.612C89.4814 322.766 88.8219 322.722 88.2209 322.485C87.6207 322.229 87.1232 321.78 86.8071 321.21C86.491 320.639 86.3746 319.979 86.4762 319.334Z" fill="#FF9A6C"/>
<path d="M93.2193 321.62C93.2193 321.307 91.084 321.464 89.4174 319.758C87.7508 318.052 87.8159 315.761 87.5164 315.761C87.217 315.761 87.1519 316.308 87.1909 317.271C87.2785 318.52 87.7988 319.698 88.6622 320.604C89.4938 321.478 90.6339 321.992 91.8392 322.037C92.7116 322.05 93.2454 321.763 93.2193 321.62Z" fill="#263238"/>
<path d="M127.321 361.291L127.087 360.979C116.41 349.69 96.7751 345.914 96.7751 345.914C96.7751 345.914 95.5772 353.297 84.575 354.13C73.5728 354.963 65.4741 343.714 65.4741 343.714L50.8001 345.771C50.8001 345.771 43.4046 346.643 38.7953 349.352C28.379 355.445 22.9365 376.473 22.9365 376.473L136.214 376.929L127.321 361.291Z" fill="#FFAA4C"/>
<path d="M379.16 509.022L216.718 508.905C197.187 508.905 181.354 493.802 181.354 475.183L181.433 87.0451C181.433 68.4129 197.291 53.3093 216.848 53.3223L379.303 53.4134C398.834 53.4134 414.667 68.5171 414.667 87.1362L414.589 475.261C414.576 493.945 398.691 509.035 379.16 509.022Z" fill="white"/>
<path d="M379.162 67.1898H347.627C346.625 67.1881 345.633 67.3838 344.706 67.7656C343.78 68.1475 342.938 68.7081 342.228 69.4154C341.518 70.1227 340.955 70.9628 340.57 71.8879C340.185 72.8129 339.986 73.8048 339.984 74.8068V80.2493C339.982 81.2523 339.783 82.2452 339.397 83.1711C339.011 84.097 338.447 84.9378 337.736 85.6453C337.024 86.3527 336.181 86.913 335.253 87.2941C334.325 87.6752 333.331 87.8696 332.328 87.8662H270.937C269.935 87.8679 268.943 87.6722 268.016 87.2904C267.09 86.9085 266.248 86.3479 265.538 85.6406C264.828 84.9333 264.265 84.0932 263.88 83.1681C263.495 82.2431 263.296 81.2512 263.294 80.2493V74.7937C263.292 73.7906 263.093 72.7977 262.707 71.8718C262.321 70.9459 261.757 70.1052 261.046 69.3977C260.334 68.6903 259.491 68.13 258.563 67.7489C257.635 67.3678 256.641 67.1734 255.638 67.1768H216.994C203.309 67.1768 192.255 77.7494 192.255 90.7958L192.177 469.689C192.177 482.709 203.257 493.308 216.915 493.308L379.045 493.399C392.743 493.399 403.784 482.839 403.849 469.793L403.927 90.8999C403.901 77.7754 392.808 67.2028 379.162 67.1898Z" fill="white"/>
<path d="M292.614 161.623C294.907 161.459 297.056 160.447 298.642 158.785C300.229 157.123 301.139 154.929 301.196 152.631C301.253 150.334 300.452 148.098 298.95 146.359C297.448 144.62 295.351 143.503 293.07 143.226C294.18 141.54 294.731 139.548 294.645 137.532C294.559 135.516 293.841 133.578 292.591 131.993C291.342 130.408 289.626 129.257 287.686 128.702C285.745 128.148 283.68 128.218 281.782 128.903C281.326 126.967 280.377 125.181 279.027 123.721C277.676 122.261 275.97 121.175 274.075 120.571C272.18 119.966 270.161 119.863 268.214 120.272C266.267 120.68 264.459 121.586 262.967 122.901C260.421 121.543 257.495 121.07 254.651 121.555C251.806 122.041 249.203 123.458 247.251 125.583C245.264 125.577 243.328 126.215 241.733 127.401C240.138 128.587 238.969 130.257 238.402 132.162C237.835 134.067 237.9 136.104 238.587 137.969C239.273 139.834 240.545 141.427 242.213 142.509" fill="#263238"/>
<path d="M294.176 162.634C291.556 153.119 285.447 144.94 277.067 139.728C268.686 134.516 258.65 132.653 248.957 134.51L246.965 134.887C225.689 140.252 218.32 161.306 224.283 182.438L239.178 259.128L283.018 292.981L294.359 264.74L289.893 239.22C289.893 239.22 309.97 232.058 306.285 211.33C304.554 201.291 299.215 180.966 294.176 162.634Z" fill="#C17560"/>
<path d="M290.114 239.135C280.497 240.973 270.554 240.01 261.469 236.361C261.469 236.361 270.44 250.488 290.726 244.694L290.114 239.135Z" fill="#7C4236"/>
<path d="M292.329 182.481C292.485 183.25 292.334 184.049 291.908 184.709C291.482 185.368 290.816 185.835 290.051 186.009C289.681 186.111 289.294 186.137 288.913 186.087C288.532 186.037 288.166 185.911 287.834 185.717C287.503 185.523 287.214 185.264 286.984 184.957C286.754 184.649 286.589 184.299 286.496 183.926C286.341 183.157 286.492 182.357 286.918 181.698C287.343 181.039 288.01 180.572 288.775 180.397C289.145 180.296 289.532 180.269 289.913 180.32C290.293 180.37 290.66 180.496 290.991 180.69C291.322 180.884 291.611 181.142 291.841 181.45C292.071 181.758 292.237 182.108 292.329 182.481Z" fill="#263238"/>
<path d="M291.651 173.62C291.364 174.063 288.812 172.839 285.635 173.451C282.458 174.063 280.427 176.055 280.011 175.782C279.802 175.639 280.011 174.87 280.922 173.933C282.118 172.719 283.659 171.905 285.336 171.602C286.987 171.275 288.7 171.49 290.219 172.214C291.338 172.774 291.807 173.412 291.651 173.62Z" fill="#263238"/>
<path d="M263.502 188.603C263.653 189.372 263.499 190.17 263.071 190.826C262.643 191.483 261.975 191.946 261.21 192.118C260.841 192.22 260.455 192.246 260.075 192.196C259.695 192.145 259.33 192.019 258.999 191.825C258.669 191.631 258.381 191.372 258.153 191.065C257.924 190.757 257.76 190.407 257.669 190.035C257.514 189.268 257.665 188.47 258.091 187.813C258.517 187.155 259.183 186.691 259.947 186.52C260.318 186.418 260.704 186.391 261.085 186.442C261.466 186.492 261.833 186.618 262.164 186.812C262.495 187.006 262.784 187.265 263.014 187.572C263.244 187.88 263.41 188.23 263.502 188.603Z" fill="#263238"/>
<path d="M260.52 180.148C260.233 180.604 257.681 179.367 254.504 179.979C251.327 180.591 249.296 182.583 248.879 182.31C248.684 182.167 248.879 181.398 249.791 180.474C250.982 179.282 252.508 178.483 254.166 178.182C255.817 177.864 257.527 178.079 259.048 178.794C260.207 179.302 260.676 179.94 260.52 180.148Z" fill="#263238"/>
<path d="M276.549 201.53C276.549 201.347 278.411 200.631 281.536 199.603C282.33 199.368 283.072 199.069 283.098 198.483C283.005 197.631 282.655 196.827 282.096 196.178L278.528 190.462C273.515 182.299 269.726 175.515 270.052 175.32C270.377 175.124 274.713 181.583 279.726 189.746L283.202 195.514C283.898 196.4 284.262 197.501 284.231 198.626C284.167 198.935 284.034 199.225 283.843 199.475C283.651 199.725 283.405 199.929 283.124 200.071C282.71 200.271 282.272 200.419 281.822 200.514C278.593 201.308 276.601 201.699 276.549 201.53Z" fill="#263238"/>
<path d="M259.372 169.151C259.112 170.036 256.221 169.685 252.862 170.206C249.503 170.727 246.769 171.833 246.352 171.052C246.144 170.674 246.599 169.841 247.654 168.969C249.062 167.889 250.727 167.193 252.485 166.951C254.214 166.682 255.984 166.875 257.615 167.511C258.904 168.057 259.542 168.734 259.372 169.151Z" fill="#263238"/>
<path d="M289.894 162.292C289.36 163.138 286.6 162.891 283.384 163.451C280.168 164.011 277.655 165.052 276.874 164.414C276.535 164.089 276.809 163.295 277.85 162.383C279.298 161.225 281.028 160.474 282.863 160.209C284.677 159.868 286.55 160.031 288.279 160.677C289.621 161.263 290.128 161.875 289.894 162.292Z" fill="#263238"/>
<path d="M231.497 201.933C231.327 201.178 231.006 200.465 230.553 199.838C230.1 199.211 229.524 198.682 228.861 198.284C228.197 197.886 227.46 197.627 226.693 197.522C225.926 197.418 225.147 197.47 224.401 197.675C220.612 198.782 216.732 201.79 218.515 209.706C221.653 223.755 235.116 217.701 235.051 217.297C234.986 216.893 232.864 207.805 231.497 201.933Z" fill="#C17560"/>
<path d="M230.806 212.689C230.741 212.689 230.598 212.923 230.233 213.197C229.709 213.581 229.054 213.745 228.411 213.653C226.796 213.431 225.025 211.361 224.387 208.848C224.079 207.651 224.048 206.4 224.296 205.189C224.328 204.721 224.473 204.267 224.721 203.867C224.968 203.468 225.31 203.135 225.715 202.898C225.979 202.766 226.28 202.727 226.569 202.789C226.857 202.85 227.117 203.008 227.304 203.236C227.577 203.588 227.551 203.887 227.642 203.9C227.734 203.913 227.89 203.601 227.642 203.041C227.484 202.711 227.217 202.445 226.887 202.286C226.66 202.191 226.417 202.143 226.171 202.143C225.925 202.143 225.682 202.191 225.455 202.286C224.903 202.528 224.423 202.908 224.061 203.389C223.698 203.87 223.466 204.436 223.385 205.033C223.059 206.381 223.059 207.787 223.385 209.135C224.114 211.947 226.158 214.343 228.319 214.408C228.722 214.433 229.125 214.368 229.499 214.217C229.873 214.066 230.209 213.833 230.481 213.535C230.858 213.041 230.858 212.715 230.806 212.689Z" fill="#7C4236"/>
<path d="M276.821 135.464C276.625 135.136 276.394 134.83 276.131 134.552C275.125 133.532 273.896 132.759 272.54 132.296C271.184 131.832 269.739 131.691 268.319 131.883C266.567 131.363 264.778 130.98 262.967 130.737C261.592 129.107 259.824 127.856 257.829 127.101C255.835 126.346 253.681 126.112 251.571 126.422C249.462 126.733 247.466 127.577 245.774 128.874C244.081 130.171 242.748 131.879 241.9 133.836C241.328 134.031 240.768 134.24 240.208 134.461C238.444 133.615 236.509 133.185 234.553 133.204C232.597 133.224 230.671 133.691 228.924 134.572C227.177 135.452 225.656 136.722 224.476 138.283C223.297 139.844 222.492 141.654 222.122 143.575C220.299 143.436 218.475 143.838 216.879 144.731C215.284 145.624 213.987 146.968 213.153 148.596C212.318 150.223 211.983 152.06 212.189 153.877C212.395 155.694 213.133 157.41 214.31 158.809C212.045 160.749 210.404 163.692 210.847 166.621C211.29 169.551 214.362 171.608 216.953 170.775C217.748 177.65 219.987 185.488 221.68 192.454C222.878 197.363 229.739 199.107 230.794 202.388C236.263 219.12 240.065 208.573 235.455 172.65C235.755 172.298 236.067 171.934 236.367 171.543C236.804 170.702 237.182 169.832 237.5 168.939C238.098 167.884 239.583 167.897 240.794 167.793C242.889 167.558 244.84 166.609 246.32 165.106C247.799 163.603 248.717 161.638 248.918 159.538C250.22 160.84 252.707 160.372 254.127 159.044C255.371 157.583 256.402 155.952 257.186 154.2C258.163 152.533 259.66 150.932 261.574 150.841C262.639 150.994 263.718 151.025 264.79 150.932C266.613 150.424 267.108 148.067 267.03 146.179C266.798 144.583 267.005 142.954 267.629 141.466C268.647 140.694 269.799 140.116 271.027 139.76C271.743 139.76 272.485 139.76 273.188 139.682C273.525 139.664 273.86 139.62 274.191 139.552C274.656 139.616 275.117 139.707 275.571 139.826C282.394 141.661 290.31 153.575 290.31 153.575C289.321 145.242 283.488 139.253 276.821 135.464Z" fill="#263238"/>
<path d="M212.684 159.846C212.684 159.846 212.684 159.767 212.775 159.611C212.866 159.455 212.944 159.247 213.113 158.973C213.626 158.196 214.269 157.513 215.014 156.955C216.2 156.074 217.58 155.489 219.038 155.249C220.967 154.913 222.954 155.253 224.662 156.213L224.298 156.408C224.424 154.801 224.892 153.24 225.668 151.828C226.445 150.416 227.514 149.185 228.803 148.218C230.225 147.09 231.846 146.238 233.581 145.705C235.416 145.175 237.325 144.95 239.232 145.041C242.806 145.258 246.308 146.141 249.557 147.645L249.167 147.854C249.805 144.668 251.63 141.843 254.271 139.95C255.982 138.748 257.969 137.999 260.047 137.771C262.126 137.543 264.228 137.845 266.158 138.648C266.561 138.813 266.953 139.005 267.33 139.221C267.578 139.377 267.708 139.469 267.695 139.482C267.682 139.495 267.148 139.208 266.093 138.818C264.579 138.269 262.976 138.008 261.367 138.049C258.912 138.099 256.531 138.899 254.544 140.341C252.036 142.185 250.312 144.903 249.714 147.958L249.648 148.309L249.323 148.166C246.138 146.688 242.709 145.806 239.206 145.562C237.365 145.481 235.523 145.696 233.751 146.2C232.08 146.699 230.52 147.512 229.154 148.596C227.913 149.514 226.88 150.686 226.124 152.032C225.367 153.379 224.905 154.87 224.767 156.408V156.799L224.428 156.603C222.821 155.667 220.94 155.313 219.103 155.601C217.696 155.801 216.358 156.332 215.197 157.15C214.189 157.874 213.335 158.79 212.684 159.846Z" fill="#455A64"/>
<path d="M267.655 140.489C267.624 140.693 267.576 140.893 267.512 141.088C267.394 141.659 267.32 142.238 267.291 142.82C267.291 143.588 267.291 144.526 267.199 145.632C267.232 146.915 266.988 148.189 266.483 149.369C266.297 149.716 266.043 150.023 265.737 150.271C265.43 150.519 265.078 150.704 264.699 150.814C263.902 151.006 263.085 151.107 262.265 151.114C261.434 151.116 260.618 151.331 259.895 151.739C259.178 152.275 258.58 152.953 258.137 153.731C257.642 154.525 257.2 155.398 256.718 156.335C256.287 157.283 255.717 158.161 255.025 158.939C254.208 159.715 253.21 160.275 252.122 160.567C251.561 160.735 250.975 160.805 250.39 160.775C249.748 160.765 249.135 160.503 248.684 160.046L249.179 159.864C249.14 161.65 248.498 163.371 247.356 164.746C246.147 166.159 244.569 167.209 242.799 167.78C242.064 168.014 241.311 168.184 240.547 168.288C239.841 168.265 239.138 168.398 238.489 168.678C237.898 169.009 237.438 169.533 237.187 170.163C236.861 170.817 236.482 171.444 236.055 172.038C234.533 174.427 232.166 176.157 229.427 176.881C226.922 177.241 224.372 176.676 222.253 175.293C220.431 174.145 218.998 172.475 218.139 170.501L218.412 170.605C217.644 170.924 216.816 171.07 215.985 171.031C215.155 170.993 214.343 170.772 213.608 170.384C212.504 169.794 211.643 168.835 211.173 167.676C210.875 166.963 210.738 166.195 210.769 165.423C210.77 165.226 210.792 165.03 210.834 164.837C210.834 164.707 210.834 164.642 210.834 164.642C210.755 165.653 210.925 166.668 211.329 167.598C211.805 168.68 212.643 169.564 213.699 170.098C214.392 170.445 215.153 170.638 215.929 170.662C216.704 170.687 217.476 170.543 218.191 170.241L218.386 170.163L218.464 170.345C219.317 172.222 220.709 173.803 222.461 174.889C224.481 176.18 226.9 176.698 229.271 176.347C231.858 175.648 234.091 174.009 235.534 171.751C235.948 171.184 236.314 170.583 236.628 169.954C236.934 169.22 237.474 168.606 238.164 168.21C238.519 168.017 238.908 167.893 239.31 167.845L240.416 167.754C241.142 167.655 241.857 167.49 242.552 167.259C244.221 166.732 245.709 165.749 246.849 164.421C247.916 163.148 248.517 161.55 248.554 159.89V159.213L249.023 159.707C249.428 160.011 249.904 160.206 250.406 160.272C250.907 160.338 251.418 160.274 251.887 160.085C252.887 159.821 253.805 159.31 254.557 158.601C255.253 157.846 255.825 156.984 256.249 156.049C256.744 155.163 257.2 154.291 257.721 153.445C258.205 152.612 258.856 151.889 259.635 151.322C260.43 150.877 261.327 150.648 262.239 150.658C263.027 150.656 263.813 150.569 264.582 150.398C264.912 150.307 265.222 150.153 265.492 149.943C265.762 149.733 265.989 149.471 266.158 149.174C266.664 148.049 266.922 146.827 266.913 145.593C266.978 144.5 267.017 143.549 267.095 142.781C267.149 142.19 267.258 141.606 267.421 141.036C267.476 140.845 267.555 140.661 267.655 140.489Z" fill="#455A64"/>
<path d="M267.695 208.967C267.109 212.873 268.789 216.61 272.461 217.951C273.175 218.172 273.927 218.25 274.672 218.181C275.417 218.112 276.141 217.896 276.802 217.547C277.464 217.197 278.05 216.721 278.527 216.144C279.004 215.568 279.363 214.903 279.583 214.188C280.003 212.591 280.034 210.917 279.674 209.305C276.302 209.11 271.094 209.162 267.695 208.967Z" fill="#7C4236"/>
<path d="M278.904 215.764C278.904 215.764 278.904 215.868 278.761 216.038C278.599 216.286 278.407 216.514 278.188 216.715C277.388 217.478 276.376 217.981 275.285 218.16C273.641 218.412 271.961 218.07 270.545 217.196C269.7 216.634 268.98 215.904 268.431 215.05C267.882 214.196 267.516 213.238 267.355 212.236C267.278 211.71 267.251 211.178 267.277 210.647C267.28 210.091 267.423 209.545 267.694 209.059C267.863 208.797 268.115 208.6 268.41 208.499C268.67 208.416 268.944 208.38 269.217 208.395H270.597C272.381 208.486 273.983 208.655 275.324 208.798C277.993 209.085 279.659 209.163 279.659 209.267C278.206 209.438 276.738 209.438 275.285 209.267C273.983 209.189 272.342 209.059 270.571 209.007H269.269C268.814 209.007 268.488 209.072 268.293 209.384C268.101 209.791 268.003 210.236 268.006 210.686C267.946 211.851 268.184 213.012 268.696 214.06C269.209 215.108 269.98 216.008 270.936 216.676C272.221 217.492 273.746 217.845 275.259 217.678C276.288 217.563 277.264 217.157 278.071 216.506C278.618 216.064 278.904 215.712 278.904 215.764Z" fill="#263238"/>
<path d="M357.547 170.832C357.547 170.832 374.044 168.775 398.834 149.049C423.625 129.323 437.062 101.29 439.823 101.707C442.583 102.123 455.278 97.6053 473.676 150.064C492.073 202.524 481.839 213.343 477.256 212.81C472.673 212.276 442.257 200.636 422.571 201.026C402.884 201.417 376.83 209.203 376.83 209.203L357.547 170.832Z" fill="#FFAA4C"/>
<path d="M327.873 209.996L336.688 208.121L331.91 196.52L324.462 200.243L327.873 209.996Z" fill="#455A64"/>
<path d="M328.903 196.212L332.158 206.003L334.189 210.925C335.513 214.195 338.044 216.831 341.259 218.285C344.473 219.739 348.123 219.901 351.454 218.737L387.221 208.673L371.857 163.388L336.311 178.374C332.977 179.774 330.329 182.432 328.942 185.771C327.555 189.111 327.541 192.862 328.903 196.212Z" fill="#263238"/>
<path d="M341.727 211.257L353.705 232.494L359.174 230.736L396.581 258.652L405.865 238.444C405.865 238.444 384.095 230.124 379.824 222.663C375.554 215.203 380.059 213.289 380.059 213.289L369.525 202.273L341.727 211.257Z" fill="#263238"/>
<path d="M471.71 150.845C481.436 179.243 484.274 203.995 478.038 206.13C471.801 208.265 458.846 186.99 449.106 158.593C439.367 130.195 436.542 105.443 442.778 103.295C449.015 101.147 461.97 122.409 471.71 150.845Z" fill="#263238"/>
<path d="M447.19 142.383C447.19 142.383 462.06 135.001 467.958 154.701C473.856 174.4 458.779 176.132 458.779 176.132C453.351 165.482 449.45 154.121 447.19 142.383Z" fill="#FAFAFA"/>
<path d="M434.393 118.358C434.346 119.59 434.416 120.824 434.601 122.043C434.823 124.4 435.135 127.824 435.643 132.043C436.051 134.135 436.485 136.409 436.945 138.865C437.192 140.089 437.44 141.365 437.687 142.667C437.817 143.318 437.948 143.983 438.078 144.66C438.234 145.324 438.442 145.962 438.625 146.665L441.033 155.141L441.658 157.354C441.867 158.11 442.192 158.826 442.453 159.568C443 161.052 443.559 162.55 444.132 164.073L445.825 168.578C446.111 169.307 446.346 170.062 446.684 170.765L447.661 172.862L451.424 180.843C451.736 181.468 452.01 182.145 452.335 182.705L453.351 184.463L455.291 187.835L458.78 193.838C461.163 197.353 463.168 200.126 464.548 202.053C465.212 203.094 465.97 204.07 466.814 204.97C466.281 203.859 465.654 202.796 464.939 201.793L459.496 193.369L456.163 187.301L454.301 183.955C453.976 183.369 453.65 182.783 453.312 182.197C452.973 181.611 452.739 180.96 452.439 180.322C451.268 177.783 450.031 175.114 448.768 172.367L447.791 170.284C447.466 169.581 447.231 168.838 446.945 168.109L445.278 163.643C444.718 162.133 444.158 160.636 443.598 159.164C443.338 158.435 443.013 157.719 442.817 156.977C442.622 156.235 442.388 155.493 442.166 154.763L439.718 146.352C439.536 145.688 439.315 145.05 439.159 144.373C439.002 143.696 438.872 143.071 438.742 142.407C438.468 141.105 438.195 139.803 437.948 138.631C437.427 136.209 436.932 133.944 436.489 131.874C435.903 127.733 435.409 124.361 435.07 121.965C434.938 120.747 434.711 119.541 434.393 118.358Z" fill="#263238"/>
<path d="M387.22 208.607C386.705 208.844 386.162 209.014 385.605 209.115L381.178 210.287C377.428 211.251 372.259 212.618 366.556 214.193C360.853 215.769 355.71 217.201 351.947 218.099C350.059 218.568 348.536 218.92 347.468 219.141C346.922 219.28 346.364 219.371 345.802 219.414C346.32 219.181 346.861 219.002 347.416 218.881L351.817 217.578L366.387 213.451C372.077 211.876 377.285 210.573 381.061 209.727C382.949 209.298 384.485 208.972 385.553 208.777C386.102 208.668 386.66 208.612 387.22 208.607Z" fill="#455A64"/>
<path d="M366.141 201.205C365.034 201.827 363.865 202.329 362.651 202.702C360.451 203.523 357.443 204.564 353.967 205.593C350.49 206.622 347.391 207.416 345.113 207.937C343.893 208.285 342.641 208.508 341.376 208.601C342.55 208.127 343.761 207.749 344.996 207.468C347.248 206.83 350.347 205.958 353.771 204.942C357.196 203.926 360.282 202.95 362.495 202.247C363.681 201.803 364.9 201.455 366.141 201.205Z" fill="#455A64"/>
<path d="M360.515 190.868C356.915 192.314 353.233 193.545 349.487 194.553C345.803 195.786 342.052 196.803 338.25 197.6C341.855 196.151 345.541 194.916 349.291 193.902C352.971 192.676 356.718 191.663 360.515 190.868Z" fill="#455A64"/>
<path d="M354.969 180.905C351.936 182.6 348.796 184.097 345.568 185.384C342.435 186.893 339.208 188.198 335.907 189.29C338.931 187.583 342.068 186.082 345.295 184.798C348.428 183.285 351.66 181.984 354.969 180.905Z" fill="#455A64"/>
<path d="M314.724 292.963L293.006 256.311L236.849 253.993V259.097C236.849 259.097 221.433 274.617 216.459 295.75C212.696 311.752 228.529 372.817 232.982 393.988C238.45 420.029 246.002 452.945 246.002 452.945C244.869 458.778 237.383 463.504 237.903 471.29L362.717 469.923L356.298 444.625L314.724 292.963Z" fill="#FFAA4C"/>
<path d="M358.03 454.324C358.03 454.519 333.187 454.662 302.55 454.662C271.913 454.662 247.083 454.519 247.083 454.324C247.083 454.129 271.913 453.985 302.55 453.985C333.187 453.985 358.03 454.142 358.03 454.324Z" fill="white"/>
<path d="M349.397 422.975C349.397 423.171 324.788 423.327 294.438 423.327C264.087 423.327 239.466 423.171 239.466 422.975C239.466 422.78 264.074 422.637 294.438 422.637C324.801 422.637 349.397 422.832 349.397 422.975Z" fill="white"/>
<path d="M340.933 388.974C340.933 389.157 316.846 389.313 287.133 389.313C257.421 389.313 233.333 389.118 233.333 388.974C233.333 388.831 257.408 388.636 287.12 388.636C316.833 388.636 340.933 388.779 340.933 388.974Z" fill="white"/>
<path d="M335.01 354.716C335.01 354.899 310.193 355.055 279.595 355.055C248.997 355.055 224.193 354.899 224.193 354.716C224.193 354.534 248.997 354.378 279.595 354.378C310.193 354.378 335.01 354.521 335.01 354.716Z" fill="white"/>
<path d="M321.871 312.22C321.871 312.402 298.434 312.558 269.438 312.558C240.442 312.558 217.005 312.402 217.005 312.22C217.005 312.037 240.442 311.868 269.438 311.868C298.434 311.868 321.871 312.024 321.871 312.22Z" fill="white"/>
<path d="M304.021 273.237C304.021 273.419 286.691 273.576 265.299 273.576C243.906 273.576 226.576 273.419 226.576 273.237C226.576 273.055 243.906 272.898 265.299 272.898C286.691 272.898 304.021 273.107 304.021 273.237Z" fill="white"/>
<path opacity="0.3" d="M232.435 315.564C237.899 324.739 244.796 332.981 252.864 339.978C265.402 350.394 303.552 369.065 303.552 369.065L306.742 362.477L335.204 369.13L329.996 351.605L232.435 315.564Z" fill="black"/>
<path d="M366.335 269.334L356.4 323.291L271.299 282.836L257.589 330.83C291.038 347.183 358.744 374.409 367.455 373.628C379.85 372.508 388.418 365.099 392.272 346.949C394.667 335.712 393.574 260.363 393.574 260.363L366.335 269.334Z" fill="#C17560"/>
<path d="M276.859 275.582C276.859 275.582 245.037 255.922 231.158 280.699C221.236 304.865 232.212 324.161 256.717 336.14C268.526 341.921 284.619 349.056 300.869 355.84L324.553 303.277L276.859 275.582Z" fill="#FFAA4C"/>
<path d="M276.86 275.58C276.86 275.58 277.173 275.723 277.746 276.049L280.272 277.468L289.881 282.963L324.697 303.04L324.905 303.17L324.801 303.392L301.182 355.968L301.052 356.267L300.753 356.137C292.42 352.674 283.826 348.976 275.077 345.07C271.214 343.334 267.399 341.598 263.632 339.862C259.882 338.104 256.184 336.346 252.629 334.406C250.893 333.408 249.179 332.362 247.486 331.268C245.872 330.096 244.205 329.029 242.734 327.727C239.727 325.312 237.021 322.545 234.674 319.485L233.06 317.167C232.537 316.399 232.063 315.599 231.641 314.771C230.752 313.17 229.978 311.508 229.323 309.798C229.023 308.951 228.802 308.066 228.542 307.194L228.164 305.892C228.06 305.449 228.008 305.019 227.917 304.59C227.773 303.73 227.617 302.858 227.474 301.985C227.331 301.113 227.37 300.267 227.318 299.381C227.224 297.693 227.254 296 227.409 294.316C227.539 292.663 227.891 291.048 228.125 289.46C228.359 287.871 228.919 286.361 229.349 284.864C229.779 283.366 230.404 281.96 230.911 280.554C232.761 277.191 235.331 274.279 238.437 272.026C241.279 270.101 244.512 268.83 247.903 268.302C253.352 267.64 258.881 268.178 264.1 269.877C267.409 270.904 270.623 272.211 273.709 273.783C274.764 274.33 275.545 274.773 276.079 275.085C276.613 275.398 276.847 275.58 276.847 275.58L276.04 275.15C275.506 274.864 274.738 274.447 273.631 273.927C270.532 272.414 267.314 271.16 264.009 270.177C258.831 268.532 253.357 268.038 247.968 268.731C244.646 269.26 241.483 270.523 238.711 272.429C235.674 274.653 233.166 277.521 231.367 280.827C230.872 282.234 230.352 283.653 229.831 285.111C229.31 286.569 229.036 288.106 228.646 289.642C228.255 291.179 228.086 292.806 227.956 294.447C227.812 296.105 227.786 297.771 227.878 299.433C227.878 300.267 227.969 301.126 228.047 302.038C228.125 302.949 228.333 303.73 228.49 304.577C228.568 305.006 228.62 305.436 228.724 305.879L229.102 307.181C229.362 308.027 229.57 308.886 229.883 309.72C230.525 311.399 231.286 313.031 232.161 314.602C232.583 315.412 233.048 316.199 233.555 316.959L235.156 319.224C237.477 322.243 240.152 324.97 243.125 327.349C244.631 328.595 246.2 329.764 247.825 330.852C249.474 331.937 251.175 332.97 252.929 333.95C256.444 335.864 260.142 337.635 263.892 339.38C267.642 341.125 271.47 342.882 275.337 344.588C284.061 348.494 292.654 352.192 300.974 355.668L300.544 355.838C309.385 336.307 317.471 318.313 324.281 303.314L324.398 303.652L289.698 283.366L280.207 277.598L277.733 276.114C277.147 275.841 276.86 275.58 276.86 275.58Z" fill="#263238"/>
<path d="M365.059 278.573L366.973 258.469C366.973 258.469 359.29 243.001 359.447 241.452C359.603 239.902 360.046 231.374 360.046 231.374L379.251 214.083C379.251 214.083 385.474 214.083 385.631 220.242C385.631 220.242 391.607 218.94 391.698 226.153C391.698 226.153 398.208 226.387 398.339 231.634C398.339 231.634 402.245 231.114 402.114 236.595C402.01 240.501 400.292 255.618 400.292 255.618L392.258 269.589L391.594 283.56L365.059 278.573Z" fill="#C17560"/>
<path d="M367.052 343C366.831 343.078 365.412 338.195 362.508 332.727C359.605 327.258 356.232 323.43 356.402 323.287C357.262 323.994 358.027 324.808 358.68 325.709C360.359 327.798 361.841 330.039 363.107 332.401C364.361 334.767 365.406 337.237 366.232 339.784C366.629 340.821 366.904 341.9 367.052 343Z" fill="#7C4236"/>
<path d="M257.589 268.902C257.363 269.538 257.079 270.153 256.743 270.738C256.157 271.897 255.285 273.551 254.139 275.582C251.938 279.657 248.801 285.23 245.298 291.349L236.275 306.974L233.541 311.713C233.224 312.308 232.863 312.878 232.46 313.419C232.687 312.783 232.97 312.169 233.306 311.583C233.892 310.437 234.765 308.771 235.91 306.74C238.111 302.664 241.236 297.091 244.751 290.972C248.267 284.852 251.405 279.423 253.761 275.347C254.881 273.433 255.806 271.832 256.509 270.608C256.819 270.009 257.181 269.439 257.589 268.902Z" fill="white"/>
<path d="M283.538 280.265C283.494 280.468 283.424 280.665 283.33 280.851L282.614 282.478C281.976 283.897 281.038 285.915 279.828 288.402C277.432 293.376 274.007 300.186 269.997 307.594C265.987 315.003 262.185 321.604 259.32 326.331C257.888 328.687 256.716 330.588 255.883 331.89L254.92 333.388C254.809 333.564 254.683 333.73 254.542 333.883C254.542 333.883 254.607 333.674 254.802 333.31L255.662 331.76L258.904 326.083C261.651 321.305 265.414 314.665 269.398 307.269C273.382 299.873 276.898 293.103 279.398 288.181L282.38 282.374L283.2 280.798C283.288 280.606 283.402 280.426 283.538 280.265Z" fill="white"/>
<path d="M312.575 296.519C312.361 297.257 312.095 297.979 311.78 298.68C311.246 299.982 310.413 302.013 309.345 304.422C307.197 309.226 304.02 315.789 300.101 322.82C296.182 329.851 292.289 335.996 289.307 340.358C287.823 342.533 286.586 344.264 285.7 345.449C285.277 346.086 284.803 346.687 284.281 347.246C284.632 346.568 285.037 345.919 285.492 345.306L288.903 340.098C291.768 335.684 295.596 329.512 299.515 322.507C303.434 315.502 306.65 308.979 308.903 304.279L311.507 298.628C311.799 297.894 312.156 297.188 312.575 296.519Z" fill="white"/>
<path d="M236.913 495.39L239.621 471.29L358.693 469.975L361.726 495.39H236.913Z" fill="#263238"/>
<path d="M384.37 494.953C384.37 495.135 347.692 495.291 302.446 495.291C257.2 495.291 220.521 495.135 220.521 494.953C220.521 494.771 257.2 494.614 302.446 494.614C347.692 494.614 384.37 494.744 384.37 494.953Z" fill="#455A64"/>
<path d="M318.004 72.7334H273.722C272.255 72.7334 271.065 73.9226 271.065 75.3896V77.3036C271.065 78.7705 272.255 79.9597 273.722 79.9597H318.004C319.471 79.9597 320.66 78.7705 320.66 77.3036V75.3896C320.66 73.9226 319.471 72.7334 318.004 72.7334Z" fill="#7C3900"/>
<path d="M332.691 76.3531C332.691 77.069 332.478 77.7688 332.081 78.3641C331.683 78.9593 331.117 79.4232 330.456 79.6972C329.795 79.9712 329.067 80.0429 328.365 79.9032C327.663 79.7635 327.018 79.4188 326.511 78.9126C326.005 78.4063 325.66 77.7614 325.521 77.0592C325.381 76.3571 325.453 75.6293 325.727 74.9679C326.001 74.3065 326.465 73.7412 327.06 73.3434C327.655 72.9457 328.355 72.7334 329.071 72.7334C329.546 72.7334 330.017 72.827 330.456 73.0089C330.895 73.1908 331.294 73.4575 331.63 73.7936C331.966 74.1297 332.233 74.5287 332.415 74.9679C332.597 75.407 332.691 75.8777 332.691 76.3531Z" fill="#7C3900"/>
<path d="M182.657 128.826H185.586V189.241H182.657C180.516 189.241 178.462 188.39 176.948 186.876C175.434 185.362 174.584 183.309 174.584 181.168V136.899C174.584 135.839 174.793 134.789 175.198 133.81C175.604 132.83 176.199 131.94 176.948 131.191C177.698 130.441 178.588 129.846 179.567 129.441C180.547 129.035 181.597 128.826 182.657 128.826Z" fill="white"/>
<path d="M181.928 216.61H184.858V277.025H181.928C179.787 277.025 177.734 276.174 176.22 274.66C174.706 273.147 173.855 271.093 173.855 268.952V224.683C173.855 222.542 174.706 220.489 176.22 218.975C177.734 217.461 179.787 216.61 181.928 216.61Z" fill="white"/>
</svg>
