<svg width="72" height="72" viewBox="0 0 72 72" fill="none" xmlns="http://www.w3.org/2000/svg">
<path d="M32.5813 46.6218L25.921 53.2821C24.5169 54.6861 22.2849 54.6861 20.8448 53.3181C20.4488 52.922 20.0528 52.562 19.6568 52.166C15.9486 48.4219 12.6005 44.4977 9.61237 40.3936C6.66026 36.2894 4.28417 32.1852 2.5561 28.1171C0.864033 24.0129 0 20.0888 0 16.3446C0 13.8965 0.432016 11.5564 1.29605 9.39636C2.16008 7.20028 3.52814 5.1842 5.43621 3.38413C7.7403 1.11604 10.2604 0 12.9245 0C13.9325 0 14.9406 0.216009 15.8406 0.648025C16.7766 1.08004 17.6047 1.72807 18.2527 2.6641L26.605 14.4366C27.2531 15.3366 27.7211 16.1646 28.0451 16.9567C28.3691 17.7127 28.5491 18.4687 28.5491 19.1527C28.5491 20.0168 28.2971 20.8808 27.7931 21.7088C27.3251 22.5369 26.641 23.4009 25.777 24.2649L23.0409 27.109C22.6449 27.5051 22.4649 27.9731 22.4649 28.5491C22.4649 28.8371 22.5009 29.0891 22.5729 29.3771C22.6809 29.6651 22.7889 29.8812 22.8609 30.0972C23.5089 31.2852 24.6249 32.8333 26.209 34.7053C27.8291 36.5774 29.5571 38.4855 31.4292 40.3936C31.7892 40.7536 32.1852 41.1136 32.5453 41.4736C33.9853 42.8777 34.0213 45.1817 32.5813 46.6218Z" fill="#1758FF"/>
<path d="M71.8911 58.7883C71.8911 59.7964 71.7111 60.8404 71.3511 61.8485C71.2431 62.1365 71.1351 62.4245 70.9911 62.7125C70.3791 64.0085 69.5871 65.2326 68.543 66.3846C66.7789 68.3287 64.8349 69.7328 62.6388 70.6328C62.6028 70.6328 62.5668 70.6688 62.5308 70.6688C60.4067 71.5328 58.1026 72.0009 55.6185 72.0009C51.9464 72.0009 48.0222 71.1368 43.8821 69.3728C39.7419 67.6087 35.6017 65.2326 31.4976 62.2445C30.0935 61.2004 28.6895 60.1564 27.3574 59.0404L39.1299 47.2679C40.1379 48.0239 41.0379 48.6 41.794 48.996C41.974 49.068 42.19 49.176 42.442 49.284C42.73 49.392 43.018 49.428 43.342 49.428C43.9541 49.428 44.4221 49.212 44.8181 48.816L47.5542 46.1159C48.4542 45.2158 49.3183 44.5318 50.1463 44.0998C50.9743 43.5958 51.8024 43.3438 52.7024 43.3438C53.3864 43.3438 54.1065 43.4878 54.8985 43.8118C55.6905 44.1358 56.5185 44.6038 57.4186 45.2158L69.335 53.6761C70.2711 54.3242 70.9191 55.0802 71.3151 55.9802C71.6751 56.8803 71.8911 57.7803 71.8911 58.7883Z" fill="#1758FF"/>
</svg>
