<svg width="72" height="72" viewBox="0 0 72 72" fill="none" xmlns="http://www.w3.org/2000/svg">
<path d="M36 72C55.8823 72 72 55.8823 72 36C72 16.1177 55.8823 0 36 0C16.1177 0 0 16.1177 0 36C0 41.7589 1.35222 47.2019 3.75646 52.0289C4.39538 53.3117 4.60803 54.7778 4.23763 56.1622L2.09344 64.1759C1.16264 67.6547 4.34525 70.8374 7.82405 69.9066L15.8378 67.7624C17.2222 67.392 18.6883 67.6046 19.9711 68.2435C24.7981 70.6478 30.2411 72 36 72Z" fill="#FF9417"/>
<path d="M46.8 36C46.8 37.9882 48.4118 39.6 50.4 39.6C52.3882 39.6 54 37.9882 54 36C54 34.0118 52.3882 32.4 50.4 32.4C48.4118 32.4 46.8 34.0118 46.8 36Z" fill="white"/>
<path d="M32.4 36C32.4 37.9882 34.0118 39.6 36 39.6C37.9882 39.6 39.6 37.9882 39.6 36C39.6 34.0118 37.9882 32.4 36 32.4C34.0118 32.4 32.4 34.0118 32.4 36Z" fill="white"/>
<path d="M18 36C18 37.9882 19.6118 39.6 21.6 39.6C23.5882 39.6 25.2 37.9882 25.2 36C25.2 34.0118 23.5882 32.4 21.6 32.4C19.6118 32.4 18 34.0118 18 36Z" fill="white"/>
</svg>
