<svg width="80" height="64" viewBox="0 0 80 64" fill="none" xmlns="http://www.w3.org/2000/svg">
<path fill-rule="evenodd" clip-rule="evenodd" d="M4.68629 4.68629C0 9.37258 0 16.9151 0 32C0 47.0849 0 54.6274 4.68629 59.3137C9.37258 64 16.9151 64 32 64H48C63.0849 64 70.6274 64 75.3137 59.3137C80 54.6274 80 47.0849 80 32C80 16.9151 80 9.37258 75.3137 4.68629C70.6274 0 63.0849 0 48 0H32C16.9151 0 9.37258 0 4.68629 4.68629ZM66.3047 14.0794C67.3654 15.3523 67.1934 17.244 65.9205 18.3047L57.1346 25.6263C53.5892 28.5809 50.7155 30.9757 48.1793 32.6069C45.5373 34.3061 42.9643 35.3795 40 35.3795C37.0357 35.3795 34.4627 34.3061 31.8207 32.6069C29.2845 30.9757 26.4108 28.5809 22.8654 25.6263L14.0794 18.3047C12.8066 17.244 12.6346 15.3523 13.6953 14.0794C14.756 12.8066 16.6477 12.6346 17.9206 13.6953L26.5561 20.8917C30.288 24.0015 32.8789 26.1537 35.0663 27.5605C37.1838 28.9224 38.6197 29.3795 40 29.3795C41.3803 29.3795 42.8162 28.9224 44.9337 27.5605C47.1211 26.1537 49.712 24.0015 53.4439 20.8917L62.0794 13.6953C63.3523 12.6346 65.244 12.8066 66.3047 14.0794Z" fill="#FF4646"/>
</svg>
