<svg width="34" height="34" viewBox="0 0 34 34" fill="none" xmlns="http://www.w3.org/2000/svg">
<path d="M20.5401 5.11799L21.9304 3.72767C24.234 1.42411 27.9688 1.42411 30.2723 3.72767C32.5759 6.03122 32.5759 9.76603 30.2723 12.0696L28.882 13.4599M20.5401 5.11799C20.5401 5.11799 20.7139 8.07241 23.3207 10.6793C25.9276 13.2861 28.882 13.4599 28.882 13.4599M20.5401 5.11799L7.75824 17.8998C6.89249 18.7656 6.45962 19.1985 6.08735 19.6758C5.6482 20.2388 5.2717 20.848 4.96451 21.4925C4.7041 22.039 4.51051 22.6197 4.12334 23.7812L2.48271 28.7031M28.882 13.4599L16.1002 26.2418C15.2344 27.1075 14.8015 27.5404 14.3242 27.9127C13.7612 28.3518 13.152 28.7283 12.5075 29.0355C11.961 29.2959 11.3803 29.4895 10.2188 29.8767L5.29688 31.5173M5.29688 31.5173L4.09376 31.9183C3.52217 32.1089 2.89199 31.9601 2.46595 31.5341C2.03991 31.108 1.89114 30.4778 2.08167 29.9062L2.48271 28.7031M5.29688 31.5173L2.48271 28.7031" stroke="white" stroke-width="4"/>
</svg>
