<svg width="64" height="70" viewBox="0 0 64 70" fill="none" xmlns="http://www.w3.org/2000/svg">
<path d="M47.0159 3H16.5841C12.8757 3 11.0215 3 9.52604 3.52034C6.6903 4.50706 4.46393 6.799 3.50545 9.71828C3 11.2578 3 13.1666 3 16.9842V61.7974C3 64.5438 6.15199 66.0009 8.14591 64.1763C9.31735 63.1044 11.0826 63.1044 12.2541 64.1763L13.8 65.591C15.8531 67.4697 18.9469 67.4697 21 65.591C23.0531 63.7122 26.1469 63.7122 28.2 65.591C30.2531 67.4697 33.3469 67.4697 35.4 65.591C37.4531 63.7122 40.5469 63.7122 42.6 65.591C44.6531 67.4697 47.7469 67.4697 49.8 65.591L51.3459 64.1763C52.5174 63.1044 54.2826 63.1044 55.4541 64.1763C57.448 66.0009 60.6 64.5438 60.6 61.7974V16.9842C60.6 13.1666 60.6 11.2578 60.0945 9.71828C59.1361 6.799 56.9097 4.50706 54.074 3.52034C52.5785 3 50.7243 3 47.0159 3Z" stroke="#4392F1" stroke-width="5"/>
<path d="M27 31.7969L47.8 31.7969" stroke="#4392F1" stroke-width="5" stroke-linecap="round"/>
<path d="M15.7998 31.7969H17.3998" stroke="#4392F1" stroke-width="5" stroke-linecap="round"/>
<path d="M15.7998 20.6016H17.3998" stroke="#4392F1" stroke-width="5" stroke-linecap="round"/>
<path d="M15.7998 43H17.3998" stroke="#4392F1" stroke-width="5" stroke-linecap="round"/>
<path d="M27 20.6016H47.8" stroke="#4392F1" stroke-width="5" stroke-linecap="round"/>
<path d="M27 43H47.8" stroke="#4392F1" stroke-width="5" stroke-linecap="round"/>
</svg>
