<svg width="70" height="70" viewBox="0 0 70 70" fill="none" xmlns="http://www.w3.org/2000/svg">
<path d="M3 47.8016C3 38.7506 3 34.2251 5.81177 31.4133C8.62355 28.6016 13.149 28.6016 22.2 28.6016H47.8C56.851 28.6016 61.3765 28.6016 64.1882 31.4133C67 34.2251 67 38.7506 67 47.8016C67 56.8525 67 61.378 64.1882 64.1898C61.3765 67.0016 56.851 67.0016 47.8 67.0016H22.2C13.149 67.0016 8.62355 67.0016 5.81177 64.1898C3 61.378 3 56.8525 3 47.8016Z" stroke="#4392F1" stroke-width="5"/>
<path d="M15.7998 28.6V22.2C15.7998 11.5961 24.3959 3 34.9998 3C45.6037 3 54.1998 11.5961 54.1998 22.2V28.6" stroke="#4392F1" stroke-width="5" stroke-linecap="round"/>
<path d="M22.2002 47.7969H22.229M34.9714 47.7969H35.0002M47.7714 47.7969H47.8002" stroke="#4392F1" stroke-width="6" stroke-linecap="round" stroke-linejoin="round"/>
</svg>
