<svg width="70" height="70" viewBox="0 0 70 70" fill="none" xmlns="http://www.w3.org/2000/svg">
<path d="M45.6669 6.04688V36.5231C45.6669 39.8754 42.924 42.6183 39.5717 42.6183H6.04785V23.1745C8.27261 25.8259 11.686 27.4716 15.4651 27.3802C18.5432 27.3193 21.3164 26.1307 23.3888 24.1497C24.3336 23.3574 25.126 22.3516 25.7355 21.2545C26.8327 19.3954 27.4421 17.2011 27.3812 14.9154C27.2898 11.3497 25.705 8.21068 23.2365 6.04688H45.6669Z" stroke="#4392F1" stroke-width="5" stroke-linecap="round" stroke-linejoin="round"/>
<path d="M67.0002 42.6161V51.7589C67.0002 56.818 62.9164 60.9018 57.8574 60.9018H54.8098C54.8098 57.5494 52.0669 54.8065 48.7145 54.8065C45.3621 54.8065 42.6193 57.5494 42.6193 60.9018H30.4288C30.4288 57.5494 27.6859 54.8065 24.3336 54.8065C20.9812 54.8065 18.2383 57.5494 18.2383 60.9018H15.1907C10.1317 60.9018 6.04785 56.818 6.04785 51.7589V42.6161H39.5717C42.924 42.6161 45.6669 39.8732 45.6669 36.5208V15.1875H51.2746C53.4689 15.1875 55.4803 16.3761 56.5774 18.2656L61.7887 27.378H57.8574C56.1812 27.378 54.8098 28.7494 54.8098 30.4256V39.5685C54.8098 41.2446 56.1812 42.6161 57.8574 42.6161H67.0002Z" stroke="#4392F1" stroke-width="5" stroke-linecap="round" stroke-linejoin="round"/>
<path d="M24.3335 67.003C27.6998 67.003 30.4288 64.274 30.4288 60.9077C30.4288 57.5414 27.6998 54.8125 24.3335 54.8125C20.9672 54.8125 18.2383 57.5414 18.2383 60.9077C18.2383 64.274 20.9672 67.003 24.3335 67.003Z" stroke="#4392F1" stroke-width="5" stroke-linecap="round" stroke-linejoin="round"/>
<path d="M48.7144 67.003C52.0807 67.003 54.8096 64.274 54.8096 60.9077C54.8096 57.5414 52.0807 54.8125 48.7144 54.8125C45.3481 54.8125 42.6191 57.5414 42.6191 60.9077C42.6191 64.274 45.3481 67.003 48.7144 67.003Z" stroke="#4392F1" stroke-width="5" stroke-linecap="round" stroke-linejoin="round"/>
<path d="M67 36.5257V42.6209H57.8572C56.181 42.6209 54.8096 41.2495 54.8096 39.5733V30.4304C54.8096 28.7542 56.181 27.3828 57.8572 27.3828H61.7886L67 36.5257Z" stroke="#4392F1" stroke-width="5" stroke-linecap="round" stroke-linejoin="round"/>
<path d="M27.381 15.1905C27.381 18.8476 25.7658 22.1086 23.2362 24.3333C21.0724 26.2229 18.2686 27.381 15.1905 27.381C8.45524 27.381 3 21.9257 3 15.1905C3 11.3505 4.76762 7.90668 7.57143 5.68192C9.67429 4.00573 12.3257 3 15.1905 3C21.9257 3 27.381 8.45524 27.381 15.1905Z" stroke="#4392F1" stroke-width="5" stroke-miterlimit="10" stroke-linecap="round" stroke-linejoin="round"/>
<path d="M15.9526 11.3828V15.9542L12.1431 18.24" stroke="#4392F1" stroke-width="5" stroke-miterlimit="10" stroke-linecap="round" stroke-linejoin="round"/>
</svg>
