<svg width="70" height="70" viewBox="0 0 70 70" fill="none" xmlns="http://www.w3.org/2000/svg">
<path d="M66.9999 25.4079V44.6079C66.9999 52.6079 65.3999 58.2079 61.8159 61.8239L41.3999 41.4079L66.1359 16.6719C66.7119 19.1999 66.9999 22.0799 66.9999 25.4079Z" stroke="#4392F1" stroke-width="5" stroke-linecap="round" stroke-linejoin="round"/>
<path d="M66.136 16.664L16.664 66.136C7.03196 63.928 3 57.272 3 44.6V25.4C3 9.4 9.4 3 25.4 3H44.6C57.272 3 63.928 7.03201 66.136 16.664Z" stroke="#4392F1" stroke-width="5" stroke-linecap="round" stroke-linejoin="round"/>
<path d="M61.8161 61.8145C58.2001 65.3985 52.6001 66.9984 44.6001 66.9984H25.4001C22.0721 66.9984 19.1921 66.7104 16.6641 66.1344L41.4001 41.3984L61.8161 61.8145Z" stroke="#4392F1" stroke-width="5" stroke-linecap="round" stroke-linejoin="round"/>
<path d="M16.5688 22.1336C18.7448 12.7576 32.8249 12.7576 35.0009 22.1336C36.2489 27.6376 32.7928 32.3096 29.7528 35.1896C27.5448 37.3016 24.0569 37.3016 21.8169 35.1896C18.7769 32.3096 15.2888 27.6376 16.5688 22.1336Z" stroke="#4392F1" stroke-width="5"/>
<path d="M25.7025 24.4516H25.7313" stroke="#4392F1" stroke-width="5" stroke-linecap="round" stroke-linejoin="round"/>
</svg>
