<svg width="64" height="70" viewBox="0 0 64 70" fill="none" xmlns="http://www.w3.org/2000/svg">
<path d="M44.6036 9.39844C51.5643 9.43718 55.3339 9.74585 57.793 12.2049C60.605 15.0169 60.605 19.5428 60.605 28.5945V47.7962C60.605 56.848 60.605 61.3738 57.793 64.1859C54.981 66.9979 50.4551 66.9979 41.4033 66.9979H22.2017C13.1499 66.9979 8.62404 66.9979 5.81202 64.1859C3 61.3738 3 56.848 3 47.7962V28.5945C3 19.5428 3 15.0169 5.81202 12.2049C8.27106 9.74585 12.0407 9.43718 19.0014 9.39844" stroke="#4392F1" stroke-width="5"/>
<path d="M27.002 41.4062L47.8038 41.4062" stroke="#4392F1" stroke-width="5" stroke-linecap="round"/>
<path d="M15.8013 41.4062H17.4014" stroke="#4392F1" stroke-width="5" stroke-linecap="round"/>
<path d="M15.8013 30.2031H17.4014" stroke="#4392F1" stroke-width="5" stroke-linecap="round"/>
<path d="M15.8013 52.6016H17.4014" stroke="#4392F1" stroke-width="5" stroke-linecap="round"/>
<path d="M27.002 30.2031H47.8038" stroke="#4392F1" stroke-width="5" stroke-linecap="round"/>
<path d="M27.002 52.6016H47.8038" stroke="#4392F1" stroke-width="5" stroke-linecap="round"/>
<path d="M19.0015 7.80042C19.0015 5.14922 21.1507 3 23.8019 3H39.8033C42.4545 3 44.6037 5.14922 44.6037 7.80042V11.0007C44.6037 13.6519 42.4545 15.8011 39.8033 15.8011H23.8019C21.1507 15.8011 19.0015 13.6519 19.0015 11.0007V7.80042Z" stroke="#4392F1" stroke-width="5"/>
</svg>
