<svg width="57" height="70" viewBox="0 0 57 70" fill="none" xmlns="http://www.w3.org/2000/svg">
<path d="M3 22.2C3 13.149 3 8.62355 5.81177 5.81177C8.62355 3 13.149 3 22.2 3H35C44.051 3 48.5765 3 51.3882 5.81177C54.2 8.62355 54.2 13.149 54.2 22.2V47.8C54.2 56.851 54.2 61.3765 51.3882 64.1882C48.5765 67 44.051 67 35 67H22.2C13.149 67 8.62355 67 5.81177 64.1882C3 61.3765 3 56.851 3 47.8V22.2Z" stroke="#4392F1" stroke-width="5"/>
<path d="M53.8729 47.7969H15.4729C12.497 47.7969 11.009 47.7969 9.78822 48.124C6.47534 49.0117 3.88768 51.5993 3 54.9122" stroke="#4392F1" stroke-width="5"/>
<path d="M15.7998 19H41.3998" stroke="#4392F1" stroke-width="5" stroke-linecap="round"/>
<path d="M15.7998 30.2031H31.7998" stroke="#4392F1" stroke-width="5" stroke-linecap="round"/>
<path d="M52.5998 57.3984H15.7998" stroke="#4392F1" stroke-width="5" stroke-linecap="round"/>
</svg>
