<svg width="70" height="70" viewBox="0 0 70 70" fill="none" xmlns="http://www.w3.org/2000/svg">
<path d="M3 35.0836C3 51.5515 15.3748 65.1216 31.3097 66.9561C33.6611 67.2268 35.9402 66.2244 37.6138 64.5465C39.7049 62.45 39.7049 59.0509 37.6138 56.9543C35.9402 55.2764 34.5758 52.7733 35.838 50.7659C40.8833 42.7415 67 61.1696 67 35.0836C67 17.3643 52.6731 3 35 3C17.3269 3 3 17.3643 3 35.0836Z" stroke="#4392F1" stroke-width="5"/>
<circle cx="52.5998" cy="33.4016" r="2.5" stroke="#4392F1" stroke-width="4.6"/>
<circle cx="17.4001" cy="33.4016" r="2.5" stroke="#4392F1" stroke-width="4.6"/>
<path d="M29.5717 19.0031C29.5717 20.2734 28.5419 21.3031 27.2717 21.3031C26.0014 21.3031 24.9717 20.2734 24.9717 19.0031C24.9717 17.7329 26.0014 16.7031 27.2717 16.7031C28.5419 16.7031 29.5717 17.7329 29.5717 19.0031Z" stroke="#4392F1" stroke-width="5"/>
<path d="M45.3002 19.0031C45.3002 20.2734 44.2705 21.3031 43.0002 21.3031C41.7299 21.3031 40.7002 20.2734 40.7002 19.0031C40.7002 17.7329 41.7299 16.7031 43.0002 16.7031C44.2705 16.7031 45.3002 17.7329 45.3002 19.0031Z" stroke="#4392F1" stroke-width="5"/>
</svg>
