<svg width="68" height="70" viewBox="0 0 68 70" fill="none" xmlns="http://www.w3.org/2000/svg">
<path d="M5.88477 20.3984L34.1371 36.7483L62.1975 20.4943" stroke="#4392F1" stroke-width="5" stroke-linecap="round" stroke-linejoin="round"/>
<path d="M34.1372 65.7391V36.7188" stroke="#4392F1" stroke-width="5" stroke-linecap="round" stroke-linejoin="round"/>
<path d="M27.515 4.5358L10.4292 14.0387C6.55767 16.1824 3.39014 21.5577 3.39014 25.9731V44.0509C3.39014 48.4663 6.55767 53.8416 10.4292 55.9853L27.515 65.4882C31.1625 67.5039 37.1457 67.5039 40.7933 65.4882L57.8792 55.9853C61.7507 53.8416 64.9182 48.4663 64.9182 44.0509V25.9731C64.9182 21.5577 61.7507 16.1824 57.8792 14.0387L40.7933 4.5358C37.1138 2.48807 31.1625 2.48807 27.515 4.5358Z" stroke="#4392F1" stroke-width="5" stroke-linecap="round" stroke-linejoin="round"/>
<path d="M50.1351 38.9709V27.2605L19.771 9.72656" stroke="#4392F1" stroke-width="5" stroke-linecap="round" stroke-linejoin="round"/>
</svg>
