<svg width="67" height="70" viewBox="0 0 67 70" fill="none" xmlns="http://www.w3.org/2000/svg">
<path d="M6.2002 22.2C6.2002 13.149 6.2002 8.62355 9.01197 5.81177C11.8237 3 16.3492 3 25.4002 3H44.6002C53.6512 3 58.1766 3 60.9884 5.81177C63.8002 8.62355 63.8002 13.149 63.8002 22.2V47.8C63.8002 56.851 63.8002 61.3765 60.9884 64.1882C58.1766 67 53.6512 67 44.6002 67H25.4002C16.3492 67 11.8237 67 9.01197 64.1882C6.2002 61.3765 6.2002 56.851 6.2002 47.8V22.2Z" stroke="#4392F1" stroke-width="5"/>
<path d="M22.2002 4.60156V67.0016" stroke="#4392F1" stroke-width="5" stroke-linecap="round"/>
<path d="M3 35H9.4" stroke="#4392F1" stroke-width="5" stroke-linecap="round"/>
<path d="M3 47.7969H9.4" stroke="#4392F1" stroke-width="5" stroke-linecap="round"/>
<path d="M3 22.2031H9.4" stroke="#4392F1" stroke-width="5" stroke-linecap="round"/>
<path d="M33.3999 17.3984H49.3999" stroke="#4392F1" stroke-width="5" stroke-linecap="round"/>
<path d="M33.3999 28.6016H49.3999" stroke="#4392F1" stroke-width="5" stroke-linecap="round"/>
</svg>
