<svg width="70" height="57" viewBox="0 0 70 57" fill="none" xmlns="http://www.w3.org/2000/svg">
<path d="M41.4118 3H28.5882C16.4979 3 10.4528 3 6.69679 6.74903C3.88516 9.55547 3.17825 13.6423 3.00052 20.5822C2.97773 21.472 3.70786 22.183 4.57043 22.4085C7.32237 23.1282 9.35266 25.6274 9.35266 28.6C9.35266 31.5726 7.32237 34.0718 4.57043 34.7915C3.70786 35.017 2.97773 35.7281 3.00052 36.6178C3.17825 43.5577 3.88516 47.6445 6.69679 50.451C10.4528 54.2 16.4979 54.2 28.5882 54.2H41.4118C53.5021 54.2 59.5472 54.2 63.3032 50.451C66.1148 47.6445 66.8217 43.5577 66.9995 36.6178C67.0223 35.7281 66.2921 35.017 65.4296 34.7915C62.6776 34.0718 60.6473 31.5726 60.6473 28.6C60.6473 25.6274 62.6776 23.1282 65.4296 22.4085C66.2921 22.183 67.0223 21.472 66.9995 20.5822C66.8217 13.6423 66.1148 9.55547 63.3032 6.74903C59.5472 3 53.5021 3 41.4118 3Z" stroke="#4392F1" stroke-width="5"/>
<path d="M32.2665 22.2877C33.4824 20.1063 34.0904 19.0156 34.9994 19.0156C35.9084 19.0156 36.5164 20.1063 37.7324 22.2877L38.047 22.852C38.3925 23.4719 38.5653 23.7818 38.8347 23.9863C39.1041 24.1908 39.4396 24.2667 40.1106 24.4186L40.7215 24.5568C43.0827 25.091 44.2634 25.3582 44.5443 26.2614C44.8252 27.1647 44.0203 28.1059 42.4105 29.9884L41.9941 30.4754C41.5366 31.0103 41.3079 31.2777 41.205 31.6086C41.1021 31.9395 41.1367 32.2964 41.2058 33.0101L41.2688 33.6598C41.5122 36.1714 41.6339 37.4272 40.8985 37.9854C40.1631 38.5437 39.0576 38.0347 36.8468 37.0167L36.2748 36.7534C35.6465 36.4641 35.3324 36.3195 34.9994 36.3195C34.6664 36.3195 34.3523 36.4641 33.724 36.7534L33.1521 37.0167C30.9412 38.0347 29.8357 38.5437 29.1004 37.9854C28.365 37.4272 28.4867 36.1714 28.73 33.6598L28.793 33.0101C28.8622 32.2964 28.8967 31.9395 28.7938 31.6086C28.6909 31.2777 28.4622 31.0103 28.0048 30.4754L27.5883 29.9884C25.9785 28.1059 25.1736 27.1647 25.4545 26.2614C25.7354 25.3582 26.9161 25.091 29.2774 24.5568L29.8883 24.4186C30.5593 24.2667 30.8948 24.1908 31.1642 23.9863C31.4335 23.7818 31.6063 23.4719 31.9519 22.852L32.2665 22.2877Z" stroke="#4392F1" stroke-width="5"/>
</svg>
