<svg width="64" height="70" viewBox="0 0 64 70" fill="none" xmlns="http://www.w3.org/2000/svg">
<path d="M19 35.6406H41.4" stroke="#4392F1" stroke-width="5" stroke-miterlimit="10" stroke-linecap="round" stroke-linejoin="round"/>
<path d="M19 48.4375H33.016" stroke="#4392F1" stroke-width="5" stroke-miterlimit="10" stroke-linecap="round" stroke-linejoin="round"/>
<path d="M25.4 15.8H38.2C44.6 15.8 44.6 12.6 44.6 9.39999C44.6 3 41.4 3 38.2 3H25.4C22.2 3 19 3 19 9.39999C19 15.8 22.2 15.8 25.4 15.8Z" stroke="#4392F1" stroke-width="5" stroke-miterlimit="10" stroke-linecap="round" stroke-linejoin="round"/>
<path d="M44.6 9.46094C55.2559 10.0369 60.5999 13.9729 60.5999 28.5969V47.7969C60.5999 60.5969 57.3999 66.9969 41.4 66.9969H22.2C6.2 66.9969 3 60.5969 3 47.7969V28.5969C3 14.0049 8.344 10.0369 19 9.46094" stroke="#4392F1" stroke-width="5" stroke-miterlimit="10" stroke-linecap="round" stroke-linejoin="round"/>
</svg>
