<svg width="56" height="56" viewBox="0 0 56 56" fill="none" xmlns="http://www.w3.org/2000/svg">
<path d="M34.1511 3.19713e-06C34.4145 -0.000467244 34.6754 0.0509839 34.919 0.151415C35.1625 0.251847 35.3838 0.399289 35.5703 0.585313L55.4147 20.4297C55.7905 20.8056 56.0016 21.3154 56.0016 21.8469C56.0016 22.3784 55.7905 22.8882 55.4147 23.2641C53.4904 25.1884 51.1171 25.6213 49.3892 25.6213C48.6796 25.6213 48.0462 25.5492 47.5451 25.465L34.981 38.0291C35.3117 39.3617 35.5263 40.7205 35.6224 42.0902C35.8068 44.9045 35.4941 48.8533 32.736 51.6115C32.3601 51.9873 31.8503 52.1984 31.3188 52.1984C30.7873 52.1984 30.2775 51.9873 29.9016 51.6115L18.5602 40.2741L5.8037 53.0306C5.02195 53.8124 0.916764 56.6467 0.135015 55.865C-0.646734 55.0832 2.18761 50.974 2.96936 50.1963L15.7259 37.4398L4.38853 26.0984C4.01275 25.7225 3.80165 25.2127 3.80165 24.6812C3.80165 24.1497 4.01275 23.6399 4.38853 23.2641C7.1467 20.5059 11.0955 20.1892 13.9098 20.3776C15.2795 20.4736 16.6383 20.6882 17.9709 21.019L30.535 8.45893C30.4302 7.84843 30.3765 7.23023 30.3747 6.61079C30.3747 4.88694 30.8076 2.51363 32.736 0.585313C33.1116 0.210598 33.6205 0.000115925 34.1511 3.19713e-06Z" fill="#D5D5D5"/>
</svg>
