<svg width="70" height="70" viewBox="0 0 70 70" fill="none" xmlns="http://www.w3.org/2000/svg">
<path d="M35 67C52.6731 67 67 52.6731 67 35C67 17.3269 52.6731 3 35 3C17.3269 3 3 17.3269 3 35C3 52.6731 17.3269 67 35 67Z" stroke="#B75400" stroke-width="5" stroke-linecap="round" stroke-linejoin="round"/>
<path d="M22.1988 6.2002H25.3988C19.1588 24.8882 19.1588 45.1122 25.3988 63.8002H22.1988" stroke="#B75400" stroke-width="5" stroke-linecap="round" stroke-linejoin="round"/>
<path d="M44.5996 6.2002C50.8396 24.8882 50.8396 45.1122 44.5996 63.8002" stroke="#B75400" stroke-width="5" stroke-linecap="round" stroke-linejoin="round"/>
<path d="M6.19922 47.7996V44.5996C24.8872 50.8396 45.1112 50.8396 63.7992 44.5996V47.7996" stroke="#B75400" stroke-width="5" stroke-linecap="round" stroke-linejoin="round"/>
<path d="M6.19922 25.3988C24.8872 19.1588 45.1112 19.1588 63.7992 25.3988" stroke="#B75400" stroke-width="5" stroke-linecap="round" stroke-linejoin="round"/>
</svg>
