<svg width="70" height="70" viewBox="0 0 70 70" fill="none" xmlns="http://www.w3.org/2000/svg">
<path d="M44.5937 19C44.555 12.0399 44.2464 8.2706 41.7875 5.81177C38.9758 3 34.4503 3 25.3993 3L22.1993 3C13.1483 3 8.62286 3 5.81109 5.81177C2.99931 8.62355 2.99931 13.149 2.99931 22.2L2.99931 47.8C2.99931 56.851 2.99931 61.3765 5.81109 64.1882C8.62286 67 13.1483 67 22.1993 67L25.3993 67C34.4503 67 38.9758 67 41.7875 64.1882C44.2464 61.7294 44.555 57.9601 44.5937 51" stroke="#B75400" stroke-width="5" stroke-linecap="round"/>
<path d="M25.4004 35.0006L67.0004 35.0006M67.0004 35.0006L55.8004 25.4006M67.0004 35.0006L55.8004 44.6006" stroke="#B75400" stroke-width="5" stroke-linecap="round" stroke-linejoin="round"/>
</svg>
