<svg width="64" height="70" viewBox="0 0 64 70" fill="none" xmlns="http://www.w3.org/2000/svg">
<path d="M3 29.9333C3 19.701 3 14.5849 4.20805 12.8637C5.4161 11.1425 10.2266 9.49586 19.8477 6.20254L21.6807 5.57509C26.6959 3.85836 29.2036 3 31.8 3C34.3964 3 36.9041 3.85837 41.9193 5.5751L43.7523 6.20254C53.3734 9.49586 58.1839 11.1425 59.392 12.8637C60.6 14.5849 60.6 19.701 60.6 29.9333C60.6 31.4789 60.6 33.1549 60.6 34.9723C60.6 53.0142 47.0353 61.7696 38.5246 65.4873C36.216 66.4958 35.0616 67 31.8 67C28.5384 67 27.384 66.4958 25.0754 65.4873C16.5647 61.7696 3 53.0142 3 34.9723C3 33.1549 3 31.4789 3 29.9333Z" stroke="#B75400" stroke-width="5"/>
<path d="M31.7992 39.8006V49.4006M36.5984 38.513C32.0076 41.1636 26.1373 39.5906 23.4868 34.9998C20.8362 30.4089 22.4092 24.5387 27 21.8881C28.8713 20.8077 30.9552 20.4291 32.947 20.6705C35.8416 21.0214 38.5416 22.6819 40.1117 25.4014C41.6818 28.1209 41.7698 31.2894 40.6264 33.9716C39.8396 35.8173 38.4697 37.4326 36.5984 38.513Z" stroke="#B75400" stroke-width="5" stroke-linecap="round"/>
</svg>
