<svg width="64" height="70" viewBox="0 0 64 70" fill="none" xmlns="http://www.w3.org/2000/svg">
<path d="M44.5996 9.40625C51.5596 9.44499 55.3288 9.75363 57.7876 12.2124C60.5994 15.0242 60.5994 19.5496 60.5994 28.6005V47.8003C60.5994 56.8511 60.5994 61.3766 57.7876 64.1883C54.9759 67.0001 50.4505 67.0001 41.3996 67.0001H22.1998C13.1489 67.0001 8.62349 67.0001 5.81174 64.1883C3 61.3766 3 56.8511 3 47.8003V28.6005C3 19.5496 3 15.0242 5.81174 12.2124C8.27055 9.75363 12.0398 9.44499 18.9998 9.40625" stroke="#B75400" stroke-width="5"/>
<path d="M19 41.3994H44.5997" stroke="#B75400" stroke-width="5" stroke-linecap="round"/>
<path d="M15.8008 30.2002H47.8004" stroke="#B75400" stroke-width="5" stroke-linecap="round"/>
<path d="M22.1992 52.5996H41.399" stroke="#B75400" stroke-width="5" stroke-linecap="round"/>
<path d="M19 7.79995C19 5.14901 21.149 3 23.7999 3H39.7998C42.4507 3 44.5997 5.14901 44.5997 7.79995V10.9999C44.5997 13.6509 42.4507 15.7999 39.7998 15.7999H23.7999C21.149 15.7999 19 13.6509 19 10.9999V7.79995Z" stroke="#B75400" stroke-width="5"/>
</svg>
