<svg width="88" height="88" viewBox="0 0 88 88" fill="none" xmlns="http://www.w3.org/2000/svg">
<path d="M44 26.2207V43.9985L55.1111 55.1096" stroke="#222222" stroke-width="7" stroke-linecap="round" stroke-linejoin="round"/>
<path d="M15.574 15.574L13.0991 13.0991H13.0991L15.574 15.574ZM9.9456 21.2023L6.44565 21.2199C6.45529 23.1392 8.00877 24.6926 9.92801 24.7023L9.9456 21.2023ZM21.2416 24.7591C23.1746 24.7688 24.7494 23.2097 24.7591 21.2768C24.7688 19.3438 23.2097 17.7689 21.2768 17.7592L21.2416 24.7591ZM13.3887 9.87116C13.379 7.93819 11.8041 6.37908 9.87116 6.3888C7.93819 6.39851 6.37908 7.97337 6.38879 9.90634L13.3887 9.87116ZM7.83893 38.6223C8.10143 36.7072 6.76174 34.9419 4.84665 34.6794C2.93156 34.4169 1.16628 35.7566 0.903777 37.6717L7.83893 38.6223ZM74.6167 13.3833C57.5741 -3.65925 30.0316 -3.83342 13.0991 13.0991L18.0488 18.0488C32.2009 3.89678 55.311 3.97715 69.6669 18.3331L74.6167 13.3833ZM13.3833 74.6167C30.4259 91.6592 57.9684 91.8334 74.9009 74.9009L69.9512 69.9512C55.7991 84.1032 32.689 84.0229 18.3331 69.6669L13.3833 74.6167ZM74.9009 74.9009C91.8334 57.9684 91.6592 30.4259 74.6167 13.3833L69.6669 18.3331C84.0229 32.689 84.1032 55.7991 69.9512 69.9512L74.9009 74.9009ZM13.0991 13.0991L7.47073 18.7274L12.4205 23.6772L18.0488 18.0488L13.0991 13.0991ZM9.92801 24.7023L21.2416 24.7591L21.2768 17.7592L9.96319 17.7024L9.92801 24.7023ZM13.4456 21.1847L13.3887 9.87116L6.38879 9.90634L6.44565 21.2199L13.4456 21.1847ZM0.903777 37.6717C-0.887196 50.7379 3.28365 64.517 13.3833 74.6167L18.3331 69.6669C9.83534 61.1692 6.33477 49.596 7.83893 38.6223L0.903777 37.6717Z" fill="#222222"/>
</svg>
