<svg width="59" height="62" viewBox="0 0 59 62" fill="none" xmlns="http://www.w3.org/2000/svg">
<path d="M55.8891 12.334H3" stroke="#FF4A4A" stroke-width="6" stroke-linecap="round"/>
<path d="M50.7021 20.1113L49.2712 41.5752C48.7205 49.835 48.4452 53.9648 45.7541 56.4825C43.0629 59.0002 38.9239 59.0002 30.6459 59.0002H28.2398C19.9618 59.0002 15.8228 59.0002 13.1316 56.4825C10.4405 53.9648 10.1652 49.835 9.61452 41.5752L8.18359 20.1113" stroke="#FF4A4A" stroke-width="6" stroke-linecap="round"/>
<path d="M21.666 27.8887L23.2216 43.4442" stroke="#FF4A4A" stroke-width="6" stroke-linecap="round"/>
<path d="M37.2216 27.8887L35.666 43.4442" stroke="#FF4A4A" stroke-width="6" stroke-linecap="round"/>
<path d="M12.334 12.3333C12.5078 12.3333 12.5948 12.3333 12.6736 12.3313C15.2354 12.2664 17.4954 10.6375 18.3671 8.22766C18.3939 8.15353 18.4214 8.07107 18.4764 7.90614L18.7784 7C19.0363 6.22647 19.1652 5.83968 19.3362 5.51129C20.0185 4.20111 21.2807 3.29131 22.7394 3.05838C23.1051 3 23.5127 3 24.3281 3H34.5621C35.3774 3 35.7851 3 36.1508 3.05838C37.6094 3.29131 38.8717 4.20111 39.554 5.51129C39.725 5.83968 39.8539 6.22646 40.1118 7L40.4138 7.90614C40.4687 8.07085 40.4963 8.15358 40.5231 8.22766C41.3948 10.6375 43.6548 12.2664 46.2166 12.3313C46.2954 12.3333 46.3824 12.3333 46.5562 12.3333" stroke="#FF4A4A" stroke-width="6"/>
</svg>
