<svg width="62" height="62" viewBox="0 0 62 62" fill="none" xmlns="http://www.w3.org/2000/svg">
<path d="M31 59C46.464 59 59 46.464 59 31C59 15.536 46.464 3 31 3C15.536 3 3 15.536 3 31C3 35.4791 4.05173 39.7126 5.92169 43.4669C6.41863 44.4646 6.58403 45.605 6.29593 46.6817L4.62823 52.9146C3.90427 55.6204 6.37964 58.0957 9.08537 57.3718L15.3183 55.7041C16.395 55.416 17.5354 55.5814 18.5331 56.0783C22.2874 57.9483 26.5209 59 31 59Z" stroke="white" stroke-width="5"/>
<path d="M19.7998 26.7998H42.1998" stroke="white" stroke-width="5" stroke-linecap="round"/>
<path d="M19.7998 36.5996H35.1998" stroke="white" stroke-width="5" stroke-linecap="round"/>
</svg>
