<svg width="70" height="61" viewBox="0 0 70 61" fill="none" xmlns="http://www.w3.org/2000/svg">
<path d="M25.2775 53.2882L26.8253 51.3249L25.2775 53.2882ZM35 10.3755L33.1988 12.1091C33.6701 12.5988 34.3204 12.8755 35 12.8755C35.6796 12.8755 36.3299 12.5988 36.8012 12.1091L35 10.3755ZM44.7225 53.2882L46.2702 55.2516L44.7225 53.2882ZM26.8253 51.3249C21.9692 47.4968 16.6769 43.7712 12.4773 39.0423C8.36341 34.4099 5.5 29.0126 5.5 22.0121H0.5C0.5 30.5731 4.06767 37.1026 8.73872 42.3624C13.3241 47.5257 19.1705 51.6573 23.7298 55.2516L26.8253 51.3249ZM5.5 22.0121C5.5 15.1668 9.36789 9.43148 14.6395 7.0218C19.7536 4.68416 26.6389 5.29362 33.1988 12.1091L36.8012 8.64179C28.9617 0.496768 19.847 -0.856132 12.5609 2.47436C5.43237 5.73282 0.5 13.2961 0.5 22.0121H5.5ZM23.7298 55.2516C25.3681 56.543 27.1331 57.9254 28.9234 58.9715C30.7129 60.0172 32.7653 60.8734 35 60.8734V55.8734C34.0347 55.8734 32.8871 55.4967 31.446 54.6545C30.0057 53.8129 28.5095 52.6526 26.8253 51.3249L23.7298 55.2516ZM46.2702 55.2516C50.8295 51.6573 56.6759 47.5257 61.2613 42.3624C65.9323 37.1027 69.5 30.5731 69.5 22.0121H64.5C64.5 29.0126 61.6366 34.4099 57.5227 39.0423C53.3231 43.7712 48.0308 47.4968 43.1747 51.3249L46.2702 55.2516ZM69.5 22.0121C69.5 13.2961 64.5676 5.73282 57.4391 2.47436C50.153 -0.856132 41.0383 0.496768 33.1988 8.64179L36.8012 12.1091C43.3611 5.29362 50.2464 4.68416 55.3605 7.0218C60.6321 9.43148 64.5 15.1668 64.5 22.0121H69.5ZM43.1747 51.3249C41.4905 52.6526 39.9943 53.8129 38.554 54.6545C37.1129 55.4967 35.9653 55.8734 35 55.8734V60.8734C37.2347 60.8734 39.2871 60.0172 41.0766 58.9715C42.8669 57.9254 44.6319 56.543 46.2702 55.2516L43.1747 51.3249Z" fill="white"/>
</svg>
