<svg width="70" height="57" viewBox="0 0 70 57" fill="none" xmlns="http://www.w3.org/2000/svg">
<path d="M15.7998 15.7998H28.5998" stroke="white" stroke-width="5" stroke-linecap="round" stroke-linejoin="round"/>
<path d="M63.2668 19H54.9386C49.2288 19 44.6001 23.2981 44.6001 28.6C44.6001 33.9019 49.2288 38.2 54.9386 38.2H63.2668C63.5334 38.2 63.6668 38.2 63.7793 38.1931C65.505 38.0881 66.8796 36.8117 66.9927 35.2093C67.0001 35.1048 67.0001 34.9809 67.0001 34.7333V22.4667C67.0001 22.2191 67.0001 22.0952 66.9927 21.9907C66.8796 20.3883 65.505 19.1119 63.7793 19.0069C63.6668 19 63.5334 19 63.2668 19Z" stroke="white" stroke-width="5"/>
<path d="M63.6881 19C63.4393 13.0086 62.6371 9.33519 60.051 6.74903C56.3019 3 50.268 3 38.2 3L28.6 3C16.532 3 10.4981 3 6.74903 6.74903C3 10.4981 3 16.532 3 28.6C3 40.668 3 46.7019 6.74903 50.451C10.4981 54.2 16.532 54.2 28.6 54.2H38.2C50.268 54.2 56.3019 54.2 60.051 50.451C62.6371 47.8648 63.4393 44.1914 63.6881 38.2" stroke="white" stroke-width="5"/>
<path d="M54.172 28.5996H54.2008" stroke="white" stroke-width="5" stroke-linecap="round" stroke-linejoin="round"/>
</svg>
