<svg width="56" height="62" viewBox="0 0 56 62" fill="none" xmlns="http://www.w3.org/2000/svg">
<path d="M5.10031 54.9529C8.45925 59.0002 14.7108 59.0002 27.214 59.0002H29.2333C41.7364 59.0002 47.988 59.0002 51.347 54.9529M5.10031 54.9529C1.74137 50.9056 2.89346 44.7611 5.19765 32.4721C6.83626 23.7328 7.65558 19.3632 10.7661 16.7817M5.10031 54.9529C5.10031 54.9529 5.10031 54.9529 5.10031 54.9529ZM51.347 54.9529C54.7059 50.9056 53.5538 44.7611 51.2496 32.4721C49.611 23.7328 48.7917 19.3632 45.6812 16.7817M51.347 54.9529C51.347 54.9529 51.347 54.9529 51.347 54.9529ZM45.6812 16.7817C42.5707 14.2002 38.1249 14.2002 29.2333 14.2002H27.214C18.3224 14.2002 13.8766 14.2002 10.7661 16.7817M45.6812 16.7817C45.6812 16.7817 45.6812 16.7817 45.6812 16.7817ZM10.7661 16.7817C10.7661 16.7817 10.7661 16.7817 10.7661 16.7817Z" stroke="white" stroke-width="5"/>
<path d="M28.2232 31.5354L26.4943 33.3411C27.4611 34.2668 28.9854 34.2668 29.9522 33.3411L28.2232 31.5354ZM27.2484 42.9973L28.6042 40.8968L27.2484 42.9973ZM29.1981 42.9973L27.8424 40.8968L29.1981 42.9973ZM28.2232 43.4363L28.2232 45.9363L28.2232 43.4363ZM28.6042 40.8968C27.5557 40.2201 25.8602 39.0353 24.4556 37.6591C23.7541 36.9719 23.1878 36.2972 22.8096 35.6739C22.4246 35.0394 22.3232 34.6052 22.3232 34.3504H17.3232C17.3232 35.838 17.8734 37.1772 18.5349 38.2675C19.2031 39.3689 20.0782 40.3704 20.9565 41.2308C22.7112 42.9499 24.7283 44.3462 25.8927 45.0978L28.6042 40.8968ZM22.3232 34.3504C22.3232 32.8765 22.9785 32.3474 23.4328 32.1881C23.9572 32.0043 25.1024 32.0084 26.4943 33.3411L29.9522 29.7296C27.5642 27.4432 24.5094 26.5123 21.7788 27.4696C18.9781 28.4514 17.3232 31.1394 17.3232 34.3504H22.3232ZM30.5538 45.0978C31.7182 44.3462 33.7353 42.9499 35.49 41.2308C36.3683 40.3704 37.2433 39.3689 37.9116 38.2675C38.5731 37.1772 39.1232 35.838 39.1232 34.3504H34.1232C34.1232 34.6052 34.0218 35.0394 33.6369 35.6739C33.2587 36.2973 32.6924 36.972 31.9909 37.6592C30.5863 39.0353 28.8908 40.2201 27.8424 40.8968L30.5538 45.0978ZM39.1232 34.3504C39.1232 31.1393 37.4684 28.4514 34.6677 27.4696C31.937 26.5124 28.8823 27.4432 26.4943 29.7296L29.9522 33.3411C31.3441 32.0084 32.4893 32.0043 33.0137 32.1881C33.468 32.3474 34.1232 32.8765 34.1232 34.3504H39.1232ZM25.8927 45.0978C26.1283 45.2498 27.0344 45.9363 28.2232 45.9363L28.2233 40.9363C28.3658 40.9363 28.5094 40.9552 28.6443 40.9905C28.7715 41.0239 28.8579 41.0633 28.8902 41.079C28.9175 41.0923 28.9139 41.0927 28.856 41.0572C28.7969 41.021 28.7246 40.9746 28.6042 40.8968L25.8927 45.0978ZM27.8424 40.8968C27.7219 40.9746 27.6496 41.021 27.5905 41.0572C27.5326 41.0927 27.529 41.0923 27.5563 41.079C27.5886 41.0633 27.675 41.0239 27.8022 40.9905C27.9371 40.9552 28.0807 40.9363 28.2233 40.9363L28.2232 45.9363C29.412 45.9363 30.3182 45.2498 30.5538 45.0978L27.8424 40.8968Z" fill="white"/>
<path d="M19.8232 14.2V11.4C19.8232 6.76081 23.5841 3 28.2232 3C32.8624 3 36.6232 6.76081 36.6232 11.4V14.2" stroke="white" stroke-width="5" stroke-linecap="round"/>
</svg>
