<svg width="62" height="62" viewBox="0 0 62 62" fill="none" xmlns="http://www.w3.org/2000/svg">
<path d="M58.0392 38.2451L55.6244 37.5981L58.0392 38.2451ZM23.7549 58.0392L23.1078 60.454L23.7549 58.0392ZM3.96079 23.7549L1.54597 23.1078L3.96079 23.7549ZM38.2451 3.96079L37.5981 6.3756L38.2451 3.96079ZM29.4272 32.9433C30.5004 33.8119 32.0746 33.6461 32.9433 32.5728C33.8119 31.4996 33.6461 29.9254 32.5728 29.0568L29.4272 32.9433ZM11.4103 15.1445L12.9831 13.2012L11.4103 15.1445ZM7.58646 15.6429L5.49578 14.2721H5.49578L7.58646 15.6429ZM16.0182 4.44115C14.8157 5.11959 14.3908 6.64442 15.0692 7.84696C15.7477 9.04949 17.2725 9.47435 18.475 8.79591L16.0182 4.44115ZM24.8993 12.6892C23.5893 13.1255 22.881 14.5411 23.3173 15.851C23.7535 17.161 25.1692 17.8693 26.4791 17.433L24.8993 12.6892ZM55.6244 37.5981C51.9804 51.1978 38.0016 59.2684 24.4019 55.6244L23.1078 60.454C39.3748 64.8128 56.0953 55.1592 60.454 38.8922L55.6244 37.5981ZM24.4019 55.6244C10.8022 51.9804 2.73158 38.0016 6.3756 24.4019L1.54597 23.1078C-2.81276 39.3748 6.84081 56.0953 23.1078 60.454L24.4019 55.6244ZM37.5981 6.3756C51.1978 10.0196 59.2684 23.9984 55.6244 37.5981L60.454 38.8922C64.8128 22.6252 55.1592 5.90471 38.8922 1.54597L37.5981 6.3756ZM32.5728 29.0568L12.9831 13.2012L9.83744 17.0877L29.4272 32.9433L32.5728 29.0568ZM6.3756 24.4019C7.09908 21.7019 8.22779 19.2241 9.67714 17.0137L5.49578 14.2721C3.75836 16.9219 2.40886 19.8875 1.54597 23.1078L6.3756 24.4019ZM18.475 8.79591C24.0865 5.63008 30.886 4.5771 37.5981 6.3756L38.8922 1.54597C30.8655 -0.604783 22.7234 0.658263 16.0182 4.44115L18.475 8.79591ZM12.9831 13.2012C10.7681 11.4084 7.24749 11.6004 5.49578 14.2721L9.67714 17.0137C9.6806 17.0084 9.67514 17.0169 9.66209 17.0248C9.65208 17.0308 9.65148 17.0281 9.66562 17.0264C9.69838 17.0224 9.76589 17.0298 9.83744 17.0877L12.9831 13.2012ZM45.2958 31C45.2958 38.8954 38.8954 45.2958 31 45.2958V50.2958C41.6568 50.2958 50.2958 41.6568 50.2958 31H45.2958ZM31 45.2958C23.1046 45.2958 16.7042 38.8954 16.7042 31H11.7042C11.7042 41.6568 20.3432 50.2958 31 50.2958V45.2958ZM31 16.7042C38.8954 16.7042 45.2958 23.1046 45.2958 31H50.2958C50.2958 20.3432 41.6568 11.7042 31 11.7042V16.7042ZM16.7042 31C16.7042 27.5448 17.9267 24.3819 19.9654 21.9104L16.1082 18.7288C13.3581 22.0629 11.7042 26.3416 11.7042 31H16.7042ZM26.4791 17.433C27.8968 16.9609 29.4159 16.7042 31 16.7042V11.7042C28.8722 11.7042 26.8199 12.0495 24.8993 12.6892L26.4791 17.433Z" fill="white"/>
</svg>
