<svg width="21" height="20" viewBox="0 0 21 20" fill="none" xmlns="http://www.w3.org/2000/svg">
<path d="M2.01305 13.7618L3.70254 8.69329C4.46856 6.39525 4.85156 5.24623 5.75782 5.03229C6.66408 4.81835 7.52051 5.67478 9.23337 7.38764L12.6124 10.7666C14.3252 12.4795 15.1816 13.3359 14.9677 14.2422C14.7538 15.1484 13.6048 15.5314 11.3067 16.2975L6.23822 17.987C3.4728 18.9088 2.0901 19.3697 1.36022 18.6398C0.630337 17.9099 1.09124 16.5272 2.01305 13.7618Z" stroke="#8D33FF" stroke-width="1.5" stroke-linecap="round"/>
<path d="M10.2366 16.3461C10.2366 16.3461 9.47842 14.0649 9.47842 12.5552C9.47842 11.0454 10.2366 8.76432 10.2366 8.76432M6.06664 17.4833C6.06664 17.4833 5.42631 14.7314 5.30846 12.9343C5.11376 9.96504 6.06664 5.35254 6.06664 5.35254" stroke="#8D33FF" stroke-width="1.5" stroke-linecap="round"/>
<path d="M12.5107 8.00608L12.6547 7.28614C12.8001 6.55924 13.3238 5.96597 14.0271 5.73155C14.7303 5.49714 15.2541 4.90387 15.3995 4.17697L15.5434 3.45703" stroke="#8D33FF" stroke-width="1.5" stroke-linecap="round"/>
<path d="M15.5693 10.2533L15.7822 10.3762C16.4393 10.7556 17.2655 10.6719 17.8332 10.1685C18.3473 9.71264 19.0794 9.59702 19.709 9.87228L20.0005 9.99973" stroke="#8D33FF" stroke-width="1.5" stroke-linecap="round"/>
<path d="M8.5367 1C8.19921 1.55206 8.2838 2.26344 8.74133 2.72097L8.83921 2.81885C9.23237 3.21201 9.37734 3.78959 9.21646 4.32182" stroke="#8D33FF" stroke-width="1.5" stroke-linecap="round"/>
<path d="M11.562 2.39648C11.7631 2.19542 11.8636 2.09489 11.9798 2.05804C12.0781 2.02688 12.1837 2.02688 12.282 2.05804C12.3982 2.09489 12.4988 2.19542 12.6998 2.39648C12.9009 2.59753 13.0014 2.69806 13.0383 2.8143C13.0694 2.91262 13.0694 3.01817 13.0383 3.11648C13.0014 3.23272 12.9009 3.33325 12.6998 3.53431C12.4988 3.73536 12.3982 3.83589 12.282 3.87274C12.1837 3.90391 12.0781 3.90391 11.9798 3.87274C11.8636 3.83589 11.7631 3.73536 11.562 3.53431C11.3609 3.33325 11.2604 3.23272 11.2236 3.11648C11.1924 3.01817 11.1924 2.91262 11.2236 2.8143C11.2604 2.69806 11.3609 2.59753 11.562 2.39648Z" fill="#8D33FF"/>
<path d="M17.4692 5.46822C17.7146 5.22283 17.8373 5.10014 17.9757 5.04681C18.1377 4.9844 18.3171 4.9844 18.479 5.04681C18.6175 5.10014 18.7402 5.22283 18.9855 5.46822C19.2309 5.71362 19.3536 5.83631 19.407 5.97472C19.4694 6.1367 19.4694 6.31609 19.407 6.47807C19.3536 6.61649 19.2309 6.73918 18.9855 6.98457C18.7402 7.22996 18.6175 7.35266 18.479 7.40599C18.3171 7.4684 18.1377 7.4684 17.9757 7.40599C17.8373 7.35266 17.7146 7.22996 17.4692 6.98457C17.2238 6.73918 17.1011 6.61649 17.0478 6.47807C16.9854 6.31609 16.9854 6.1367 17.0478 5.97472C17.1011 5.83631 17.2238 5.71362 17.4692 5.46822Z" fill="#8D33FF"/>
<path d="M4.92761 1.94079C5.13708 1.73132 5.47669 1.73132 5.68616 1.94079C5.89563 2.15026 5.89563 2.48988 5.68616 2.69935C5.47669 2.90882 5.13708 2.90882 4.92761 2.69935C4.71814 2.48988 4.71814 2.15026 4.92761 1.94079Z" fill="#8D33FF"/>
<path d="M17.0585 13.3134C17.2679 13.1039 17.6076 13.1039 17.817 13.3134C18.0265 13.5228 18.0265 13.8624 17.817 14.0719C17.6076 14.2814 17.2679 14.2814 17.0585 14.0719C16.849 13.8624 16.849 13.5228 17.0585 13.3134Z" fill="#8D33FF"/>
<path d="M15.501 7.74145C15.7104 7.53198 16.0501 7.53198 16.2595 7.74145C16.469 7.95092 16.469 8.29053 16.2595 8.5C16.0501 8.70947 15.7104 8.70947 15.501 8.5C15.2915 8.29053 15.2915 7.95092 15.501 7.74145Z" fill="#8D33FF"/>
</svg>
