<svg width="722" height="612" viewBox="0 0 722 612" fill="none" xmlns="http://www.w3.org/2000/svg">
<path d="M606.396 77.9255L603.011 72.3624C574.428 25.2563 522.746 -3.139 468.243 0.277211C461.229 0.715821 454.257 1.67437 447.385 3.14495C397.835 13.7383 354.74 51.207 336.876 99.1906C326.361 127.398 323.43 159.899 303.481 182.245C277.531 211.393 233.465 212.302 194.727 211.095C155.989 209.888 111.907 210.923 86.0819 240.196C69.9098 258.515 64.7698 284.575 66.0704 309.147C69.518 374.117 114.806 432.224 172.396 461.152C229.986 490.08 297.762 492.619 360.805 479.957C449.094 462.171 533.057 413.294 583.517 337.793C633.976 262.291 646.779 159.413 606.396 77.9255Z" fill="#F5F5F5"/>
<path d="M605.207 485.209C603.013 490.521 560.593 530.403 560.593 530.403V485.209H605.207Z" fill="#455A64"/>
<path d="M588.783 448.837C588.783 443.352 588.783 438.776 588.783 438.212C588.783 438.212 570.244 436.457 568.912 418.107C568.27 409.237 568.427 390.84 568.771 374.229C568.949 365.615 572.365 357.384 578.339 351.175C584.312 344.966 592.405 341.235 601.006 340.725L602.777 340.615C621.973 340.615 632.708 356.866 632.206 376.047L631.533 448.022L600.505 472.954L598.248 472.751L588.783 448.837Z" fill="#FFBF9D"/>
<path d="M588.752 438.212C597.24 437.681 605.397 434.728 612.258 429.703C612.258 429.703 607.228 443.478 588.752 442.929V438.212Z" fill="#FF9A6C"/>
<path d="M600.003 382.143C600.364 382.519 602.495 380.842 605.567 380.795C608.638 380.748 610.926 382.284 611.255 381.892C611.584 381.501 611.036 381.046 610.048 380.325C608.715 379.402 607.125 378.925 605.504 378.962C603.895 378.991 602.339 379.541 601.069 380.529C600.129 381.281 599.831 381.971 600.003 382.143Z" fill="#263238"/>
<path d="M602.275 390.479C602.304 391.126 602.587 391.736 603.062 392.176C603.537 392.616 604.167 392.851 604.814 392.83C605.131 392.838 605.447 392.783 605.743 392.667C606.038 392.55 606.307 392.376 606.534 392.154C606.76 391.932 606.94 391.666 607.062 391.373C607.184 391.08 607.245 390.765 607.243 390.448C607.211 389.801 606.927 389.192 606.453 388.75C605.98 388.308 605.352 388.069 604.704 388.082C604.386 388.075 604.07 388.133 603.775 388.251C603.479 388.368 603.21 388.544 602.984 388.768C602.758 388.991 602.578 389.258 602.457 389.552C602.335 389.846 602.273 390.161 602.275 390.479Z" fill="#263238"/>
<path d="M592.028 403.408C590.49 403.029 588.91 402.844 587.326 402.859C586.606 402.859 585.916 402.734 585.759 402.248C585.656 401.502 585.782 400.743 586.12 400.07C586.684 398.299 587.279 396.419 587.922 394.46C590.414 386.468 592.169 379.902 591.84 379.808C591.51 379.714 589.238 386.076 586.747 394.115C586.151 396.074 585.571 397.954 585.038 399.756C584.636 400.653 584.564 401.664 584.835 402.609C584.952 402.856 585.125 403.074 585.34 403.245C585.554 403.417 585.805 403.536 586.073 403.596C586.48 403.677 586.896 403.709 587.311 403.69C588.889 403.812 590.476 403.717 592.028 403.408Z" fill="#263238"/>
<path d="M601.525 372.27C601.823 372.959 604.283 372.474 607.229 372.677C610.175 372.881 612.589 373.539 612.934 372.881C613.09 372.583 612.636 371.941 611.649 371.314C610.339 370.561 608.872 370.126 607.364 370.044C605.856 369.963 604.35 370.237 602.967 370.844C601.917 371.361 601.4 371.957 601.525 372.27Z" fill="#263238"/>
<path d="M572.704 374.025C573.018 374.589 575.431 374.025 578.33 373.947C581.229 373.869 583.642 374.292 583.956 373.712C584.097 373.445 583.627 372.944 582.624 372.49C581.265 371.926 579.8 371.664 578.33 371.722C576.843 371.744 575.379 372.086 574.036 372.725C573.033 373.242 572.563 373.759 572.704 374.025Z" fill="#263238"/>
<path d="M631.503 389.727C631.801 389.57 643.898 385.23 644.259 397.813C644.619 410.397 631.895 408.156 631.863 407.795C631.832 407.435 631.503 389.727 631.503 389.727Z" fill="#FFBF9D"/>
<path d="M635.576 402.921C635.576 402.921 635.795 403.078 636.171 403.235C636.699 403.448 637.289 403.448 637.817 403.235C639.133 402.702 640.183 400.57 640.183 398.298C640.188 397.215 639.953 396.145 639.493 395.164C639.362 394.773 639.138 394.419 638.84 394.133C638.543 393.846 638.181 393.636 637.785 393.519C637.532 393.457 637.265 393.489 637.032 393.606C636.8 393.724 636.617 393.921 636.516 394.161C636.359 394.522 636.516 394.757 636.375 394.788C636.234 394.819 636.093 394.584 636.187 394.067C636.25 393.751 636.415 393.465 636.657 393.252C636.823 393.115 637.017 393.013 637.224 392.954C637.432 392.895 637.65 392.879 637.864 392.908C638.382 392.999 638.869 393.218 639.279 393.547C639.69 393.876 640.012 394.302 640.214 394.788C640.771 395.869 641.061 397.067 641.06 398.283C641.06 400.821 639.822 403.219 638.02 403.799C637.685 403.909 637.329 403.942 636.979 403.896C636.629 403.85 636.294 403.726 635.999 403.532C635.607 403.219 635.529 403.015 635.576 402.921Z" fill="#FF9A6C"/>
<path d="M595.929 414.112C595.788 413.799 598.264 413.093 600.034 410.79C600.772 409.787 601.373 408.691 601.821 407.53C602.197 406.621 602.479 406.057 602.62 406.104C602.761 406.151 602.698 406.762 602.495 407.671C602.207 409.001 601.635 410.252 600.818 411.338C599.975 412.421 598.854 413.255 597.574 413.752C596.602 414.206 595.929 414.222 595.929 414.112Z" fill="#263238"/>
<path d="M648.488 369.575C645.918 365.093 645.354 359.796 644.006 354.829C642.659 349.861 639.948 344.69 635.121 342.903H635.011C630.671 341.086 625.295 340.992 621.676 343.985C620.876 337.434 615.219 332.169 608.857 330.414C602.495 328.659 592.246 329.536 586.087 331.981C581.386 333.814 576.685 337.669 571.075 343.326C568.698 345.711 566.518 348.284 564.556 351.021L558.789 368.071L563.49 377.112C563.772 377.739 564.054 378.35 564.399 378.962L568.442 397.954C568.787 392.799 568.646 374.825 568.975 369.669C572.861 369.602 576.693 368.751 580.241 367.168C583.79 365.584 586.983 363.301 589.629 360.455C592.481 357.32 594.753 353.481 598.546 351.663C603.451 349.313 609.217 351.146 614.326 352.98L614.107 352.792C616.767 354.06 619.156 355.832 621.143 358.01C619.858 368.2 620.782 378.548 623.854 388.348C624.324 389.821 625.593 392.862 626.988 393.426C629.809 394.554 630.608 391.686 632.316 390.182C633.832 389.17 635.665 388.746 637.472 388.991C638.944 384.728 640.152 380.379 641.092 375.969C642.794 376.522 644.603 376.667 646.373 376.392L644.806 372.49C645.471 372.991 646.235 373.349 647.046 373.54C647.454 373.624 647.878 373.582 648.261 373.419C648.645 373.257 648.97 372.982 649.193 372.631C649.663 371.675 649.021 370.499 648.488 369.575Z" fill="#263238"/>
<path d="M615.879 346.053C616.53 346.572 617.138 347.143 617.697 347.761C619.123 349.533 620.067 351.644 620.439 353.888C620.737 355.437 620.873 357.012 620.846 358.589C620.846 360.282 620.674 362.084 620.517 363.996C620.323 365.995 620.25 368.005 620.298 370.013C620.357 371.065 620.482 372.112 620.674 373.147C620.817 374.282 621.249 375.361 621.928 376.282C622.245 376.642 622.649 376.914 623.102 377.073C623.555 377.232 624.041 377.273 624.513 377.19C625.416 377.029 626.241 376.578 626.864 375.905C627.88 374.529 628.507 372.906 628.682 371.204H628.306C628.839 372.594 629.573 373.898 630.484 375.075C631.362 376.172 632.632 376.886 634.026 377.065C634.673 377.143 635.329 377.04 635.922 376.767C636.469 376.486 636.921 376.05 637.222 375.514C637.493 375.036 637.634 374.496 637.63 373.947C637.62 373.414 637.42 372.902 637.066 372.505L636.862 372.677C637.941 373.938 639.27 374.963 640.764 375.686C641.161 375.873 641.569 376.035 641.986 376.172C642.125 376.233 642.274 376.27 642.425 376.282L642.018 376.109C641.736 375.984 641.344 375.827 640.827 375.561C639.385 374.798 638.107 373.76 637.066 372.505L636.878 372.677C637.17 373.068 637.335 373.54 637.349 374.028C637.363 374.516 637.226 374.997 636.956 375.404C636.687 375.886 636.277 376.275 635.781 376.517C635.241 376.761 634.644 376.848 634.057 376.767C632.766 376.58 631.594 375.908 630.782 374.887C629.902 373.728 629.19 372.451 628.666 371.095L628.415 370.499L628.29 371.126C628.103 372.734 627.504 374.267 626.551 375.576C625.993 376.175 625.256 376.576 624.451 376.72C624.05 376.797 623.636 376.766 623.251 376.631C622.865 376.496 622.523 376.262 622.257 375.952C621.625 375.104 621.225 374.104 621.097 373.053C620.894 372.019 620.769 370.972 620.721 369.919C620.671 367.927 620.734 365.934 620.909 363.949C621.05 362.037 621.207 360.219 621.207 358.511C621.21 356.932 621.052 355.357 620.737 353.81C620.335 351.528 619.329 349.396 617.822 347.635C617.265 347.005 616.609 346.47 615.879 346.053Z" fill="#455A64"/>
<path d="M558.9 363.179C558.9 363.179 558.9 363.179 559.041 363.305L559.496 363.649C559.74 363.834 559.996 364.002 560.264 364.151C560.62 364.375 560.992 364.574 561.376 364.746C563.818 365.911 566.51 366.449 569.212 366.313C573.224 366.099 577.088 364.727 580.338 362.364C584.258 359.442 587.542 355.752 589.991 351.52C591.354 349.326 592.467 347.054 593.689 344.97C594.817 342.938 596.225 341.076 597.873 339.438C599.36 337.965 601.192 336.888 603.201 336.304C604.111 336.065 605.052 335.97 605.991 336.022C606.857 336.083 607.712 336.262 608.529 336.555C609.947 337.058 611.24 337.86 612.322 338.905C613.148 339.688 613.837 340.605 614.359 341.616C614.761 342.501 615.071 343.426 615.284 344.374C615.287 344.312 615.287 344.249 615.284 344.186C615.284 344.03 615.284 343.842 615.284 343.622C615.132 342.906 614.906 342.208 614.61 341.538C614.096 340.497 613.413 339.549 612.588 338.733C610.866 336.966 608.56 335.886 606.101 335.693C605.125 335.625 604.145 335.721 603.201 335.975C601.129 336.541 599.232 337.619 597.685 339.109C596.002 340.758 594.566 342.643 593.423 344.704C592.185 346.819 591.072 349.076 589.709 351.254C587.291 355.439 584.056 359.095 580.197 362.004C576.995 364.347 573.188 365.723 569.227 365.969C566.57 366.14 563.91 365.672 561.47 364.605C559.731 363.837 558.932 363.117 558.9 363.179Z" fill="#455A64"/>
<path d="M571.969 382.926C572.329 383.302 574.476 381.626 577.548 381.594C580.619 381.563 582.892 383.083 583.221 382.691C583.55 382.299 583.017 381.829 582.014 381.124C580.681 380.201 579.09 379.724 577.469 379.761C575.862 379.796 574.307 380.345 573.035 381.328C572.11 382.064 571.797 382.77 571.969 382.926Z" fill="#263238"/>
<path d="M576.67 390.902C576.702 391.549 576.986 392.158 577.46 392.6C577.934 393.042 578.561 393.282 579.209 393.269C579.527 393.275 579.843 393.217 580.138 393.1C580.434 392.982 580.703 392.806 580.929 392.582C581.155 392.359 581.335 392.092 581.456 391.798C581.578 391.504 581.64 391.189 581.638 390.871C581.605 390.225 581.321 389.618 580.847 389.179C580.373 388.74 579.745 388.503 579.099 388.52C578.782 388.512 578.466 388.567 578.17 388.684C577.875 388.8 577.606 388.974 577.379 389.196C577.153 389.419 576.973 389.684 576.851 389.977C576.729 390.27 576.668 390.585 576.67 390.902Z" fill="#263238"/>
<path d="M566.155 348.905C564.588 350.974 562.19 352.854 559.62 352.572C558.687 352.376 557.771 352.109 556.878 351.773C555.985 352.321 556.188 355.393 556.878 356.239C557.461 356.958 558.106 357.624 558.805 358.229C555.781 359.796 553.039 359.06 549.826 357.885C550.149 360.631 551.188 363.245 552.838 365.464C554.488 367.683 556.691 369.43 559.229 370.531C560.004 370.947 560.868 371.173 561.748 371.189C562.628 371.205 563.5 371.012 564.29 370.625C565.504 369.635 566.304 368.226 566.531 366.676C567.97 361.169 568.728 355.506 568.788 349.814L566.155 348.905Z" fill="#263238"/>
<path d="M546.787 469.553L547.116 469.13C561.815 453.569 588.879 448.366 588.879 448.366C588.879 448.366 590.54 458.552 605.709 459.696C620.878 460.84 631.973 445.326 631.973 445.326L652.345 448.21C652.345 448.21 662.531 449.416 668.862 453.146C683.154 461.545 690.801 490.52 690.801 490.52L534.721 491.163L546.787 469.553Z" fill="#455A64"/>
<path d="M532.51 316.827L531.413 316.905L530.065 316.999C529.533 316.999 528.921 317.171 528.216 317.281C524.086 317.985 520.197 319.708 516.902 322.296C514.5 324.169 512.452 326.456 510.853 329.05C508.926 332.16 507.696 335.651 507.249 339.283C507.04 341.323 506.966 343.375 507.029 345.426C507.029 347.541 507.029 349.751 507.029 352.007C507.029 356.552 507.029 361.41 507.029 366.456C507.029 386.828 507.029 411.399 507.108 439.465C507.108 446.486 507.108 453.715 507.108 461.154C507.108 463.003 507.108 464.883 507.218 466.732C507.357 468.601 507.693 470.45 508.22 472.249C509.353 475.909 511.304 479.263 513.925 482.058C516.574 484.955 519.878 487.174 523.562 488.53L524.957 489.032L526.398 489.408C527.368 489.649 528.352 489.827 529.345 489.941C531.36 490.133 533.385 490.206 535.409 490.16H560.89V490.521C560.89 503.135 560.89 516.597 560.89 530.403L560.247 530.12C566.85 523.852 573.552 517.427 580.353 510.845C587.122 504.201 594.049 497.463 600.646 490.254L600.772 490.129H692.179C693.856 490.129 695.517 490.129 697.146 490.035C702.028 489.623 706.684 487.799 710.547 484.785C714.409 481.772 717.311 477.699 718.897 473.063C719.903 470.034 720.375 466.852 720.292 463.661V453.945C720.292 428.324 720.292 403.595 720.292 380.042C720.292 368.279 720.292 356.787 720.292 345.567C720.402 342.82 720.234 340.068 719.791 337.355C719.229 334.722 718.267 332.191 716.938 329.849C715.626 327.541 713.948 325.462 711.971 323.69C710.052 321.925 707.861 320.481 705.483 319.412C703.15 318.342 700.666 317.639 698.118 317.328C695.591 317.114 693.053 317.04 690.518 317.109H675.646H647.69L563.334 316.983L540.392 316.905H563.334L647.69 316.78H675.646H690.518C693.084 316.713 695.653 316.786 698.212 316.999C700.825 317.315 703.373 318.034 705.765 319.13C708.212 320.224 710.467 321.705 712.441 323.518C714.469 325.32 716.193 327.437 717.55 329.786C718.911 332.193 719.899 334.793 720.48 337.496C720.947 340.254 721.125 343.054 721.013 345.849C721.013 357.006 721.013 368.498 721.013 380.324C721.013 403.83 721.013 428.606 721.013 454.227V463.88C721.102 467.177 720.62 470.464 719.587 473.596C717.907 478.292 714.914 482.407 710.964 485.452C707.013 488.496 702.272 490.343 697.303 490.771C695.595 490.897 693.918 490.897 692.257 490.881H601.038L601.336 490.756C594.691 497.98 587.765 504.718 580.964 511.363C574.163 518.007 567.424 524.416 560.827 530.638L560.169 531.249V530.356C560.169 516.55 560.169 503.088 560.169 490.474L560.545 490.85H535.472C533.416 490.909 531.359 490.836 529.313 490.63C528.297 490.521 527.291 490.332 526.304 490.066L524.816 489.69L523.374 489.173C519.592 487.769 516.197 485.486 513.47 482.513C510.797 479.627 508.804 476.179 507.641 472.421C507.099 470.577 506.758 468.681 506.622 466.764C506.481 464.852 506.528 462.987 506.528 461.138C506.528 453.7 506.528 446.47 506.528 439.45C506.528 411.384 506.528 386.781 506.606 366.44C506.606 361.347 506.606 356.536 506.606 351.992C506.606 349.735 506.606 347.525 506.606 345.41C506.549 343.344 506.627 341.276 506.841 339.22C507.276 335.857 508.371 332.613 510.062 329.673C511.754 326.734 514.009 324.158 516.698 322.092C520.034 319.505 523.969 317.801 528.138 317.14C528.843 317.046 529.454 316.921 530.003 316.889H531.35L532.51 316.827Z" fill="#263238"/>
<path d="M540.392 316.905L563.334 316.983L647.69 317.109H675.646H690.518C693.053 317.04 695.591 317.114 698.118 317.328C700.666 317.639 703.15 318.342 705.483 319.412C707.861 320.481 710.052 321.925 711.971 323.69C713.948 325.462 715.626 327.541 716.938 329.849C718.267 332.191 719.229 334.722 719.791 337.355C720.234 340.068 720.402 342.82 720.292 345.567C720.292 356.787 720.292 368.279 720.292 380.042C720.292 403.595 720.292 428.324 720.292 453.945V463.661C720.375 466.852 719.903 470.034 718.897 473.063C717.311 477.699 714.409 481.772 710.547 484.785C706.684 487.799 702.028 489.623 697.146 490.035C695.517 490.129 693.856 490.129 692.179 490.129H600.772L600.646 490.254C594.049 497.463 587.122 504.201 580.353 510.845C573.552 517.427 566.85 523.852 560.247 530.12L560.89 530.403C560.89 516.597 560.89 503.135 560.89 490.521V490.16H535.409C533.385 490.206 531.36 490.133 529.345 489.941C528.352 489.827 527.368 489.649 526.398 489.408L524.957 489.032L523.562 488.53C519.878 487.174 516.574 484.955 513.925 482.058C511.304 479.263 509.353 475.909 508.22 472.249C507.693 470.45 507.357 468.601 507.218 466.732C507.108 464.883 507.108 463.003 507.108 461.154C507.108 453.715 507.108 446.486 507.108 439.465C507.029 411.399 507.029 386.828 507.029 366.456C507.029 361.41 507.029 356.552 507.029 352.007C507.029 349.751 507.029 347.541 507.029 345.426C506.966 343.375 507.04 341.323 507.249 339.283C507.696 335.651 508.926 332.16 510.853 329.05C512.452 326.456 514.5 324.169 516.902 322.296C520.197 319.708 524.086 317.985 528.216 317.281C528.921 317.171 529.533 316.999 530.065 316.999L531.413 316.905L532.51 316.827L531.35 316.889H530.003C529.454 316.921 528.843 317.046 528.138 317.14C523.969 317.801 520.034 319.505 516.698 322.092C514.009 324.158 511.754 326.734 510.062 329.673C508.371 332.613 507.276 335.857 506.841 339.22C506.627 341.276 506.549 343.344 506.606 345.41C506.606 347.525 506.606 349.735 506.606 351.992C506.606 356.536 506.606 361.347 506.606 366.44C506.528 386.781 506.528 411.384 506.528 439.45C506.528 446.47 506.528 453.7 506.528 461.138C506.528 462.987 506.481 464.852 506.622 466.764C506.758 468.681 507.099 470.577 507.641 472.421C508.804 476.179 510.797 479.627 513.47 482.513C516.197 485.486 519.592 487.769 523.374 489.173L524.816 489.69L526.304 490.066C527.291 490.332 528.297 490.521 529.313 490.63C531.359 490.836 533.416 490.909 535.472 490.85H560.545L560.169 490.474C560.169 503.088 560.169 516.55 560.169 530.356V531.249L560.827 530.638C567.424 524.416 574.163 518.007 580.964 511.363C587.765 504.718 594.691 497.98 601.336 490.756L601.038 490.881H692.257C693.918 490.897 695.595 490.897 697.303 490.771C702.272 490.343 707.013 488.496 710.964 485.452C714.914 482.407 717.907 478.292 719.587 473.596C720.62 470.464 721.102 467.177 721.013 463.88V454.227C721.013 428.606 721.013 403.83 721.013 380.324C721.013 368.498 721.013 357.006 721.013 345.849C721.125 343.054 720.947 340.254 720.48 337.496C719.899 334.793 718.911 332.193 717.55 329.786C716.193 327.437 714.469 325.32 712.441 323.518C710.467 321.705 708.212 320.224 705.765 319.13C703.373 318.034 700.825 317.315 698.212 316.999C695.653 316.786 693.084 316.713 690.518 316.78H675.646H647.69L563.334 316.905H540.392ZM540.392 316.905H534.422H531.679" stroke="#263238" stroke-width="1.25366"/>
<path d="M170.344 300.419H19.31C9.43496 300.419 1.42969 308.424 1.42969 318.299V434.2C1.42969 444.075 9.43496 452.08 19.31 452.08H170.344C180.219 452.08 188.224 444.075 188.224 434.2V318.299C188.224 308.424 180.219 300.419 170.344 300.419Z" fill="white"/>
<path d="M102.302 447.441C104.214 452.143 141.275 486.9 141.275 486.9V447.441H102.302Z" fill="#B75400"/>
<path d="M128.363 334.064C127.447 331.1 125.95 328.349 123.959 325.97C121.968 323.592 119.523 321.634 116.767 320.211C110.545 317.314 103.509 316.671 96.8649 318.393C90.2822 320.135 84.0264 322.934 78.3421 326.683C74.9952 328.534 72.0242 330.995 69.5822 333.939C65.3981 339.502 61.3864 348.575 61.167 355.533C60.979 361.159 63.5333 375.152 66.0563 380.183C67.3962 382.261 69.3208 383.897 71.588 384.884C74.2921 389.869 77.8635 394.332 82.1344 398.063C83.3254 394.26 84.5216 390.452 85.723 386.639L128.363 334.064Z" fill="#263238"/>
<path d="M124.931 327.263L113.805 325.602C120.261 339.831 122.847 372.739 126.749 387.877C130.651 381.844 139.614 363.54 138.909 356.379C138.204 349.217 138.047 325.664 124.931 327.263Z" fill="#263238"/>
<path d="M73.1391 352.744C73.2189 348.696 74.5956 344.78 77.0666 341.573C79.5377 338.365 82.9728 336.036 86.8666 334.926L112.175 327.702C123.144 326.135 130.886 339.533 131.936 350.565C133.079 362.82 133.941 375.78 132.766 385.041C130.415 403.564 116.359 406.353 116.359 406.353C116.359 406.353 116.61 415.113 116.751 420.457L112.629 444.574L79.2663 416.085L72.998 352.963C73.0607 352.65 73.1234 353.167 73.1391 352.744Z" fill="#FFBF9D"/>
<path d="M126.358 365.906C126.388 366.52 126.174 367.121 125.764 367.579C125.353 368.037 124.778 368.314 124.164 368.35C123.864 368.385 123.56 368.359 123.27 368.274C122.98 368.189 122.71 368.046 122.476 367.855C122.242 367.663 122.049 367.427 121.908 367.159C121.768 366.892 121.682 366.599 121.657 366.298C121.635 365.684 121.851 365.085 122.259 364.627C122.668 364.168 123.238 363.885 123.851 363.837C124.152 363.805 124.456 363.833 124.746 363.92C125.036 364.007 125.306 364.151 125.54 364.344C125.773 364.536 125.966 364.774 126.107 365.042C126.247 365.31 126.333 365.604 126.358 365.906Z" fill="#263238"/>
<path d="M129.365 357.868C129.083 358.182 127.249 356.912 124.664 357.006C122.078 357.1 120.292 358.417 119.963 358.103C119.634 357.79 120.104 357.414 120.903 356.787C121.982 355.994 123.278 355.551 124.617 355.518C125.938 355.477 127.238 355.856 128.331 356.599C129.224 357.179 129.506 357.727 129.365 357.868Z" fill="#263238"/>
<path d="M103.447 365.906C103.477 366.52 103.263 367.121 102.852 367.579C102.442 368.037 101.867 368.314 101.253 368.35C100.953 368.385 100.649 368.359 100.359 368.274C100.069 368.189 99.7986 368.046 99.5648 367.855C99.3309 367.663 99.1379 367.427 98.9972 367.159C98.8565 366.892 98.7709 366.599 98.7456 366.298C98.7238 365.681 98.9418 365.08 99.3539 364.621C99.766 364.163 100.34 363.881 100.955 363.837C101.255 363.805 101.559 363.833 101.848 363.92C102.137 364.007 102.406 364.152 102.638 364.345C102.871 364.537 103.062 364.775 103.201 365.043C103.34 365.311 103.423 365.605 103.447 365.906Z" fill="#263238"/>
<path d="M105.217 358.557C104.919 358.87 103.101 357.601 100.516 357.695C97.9302 357.789 96.1594 359.105 95.8146 358.792C95.4699 358.478 95.9557 358.102 96.7549 357.475C97.834 356.683 99.1302 356.24 100.469 356.206C101.79 356.166 103.09 356.544 104.183 357.287C105.06 357.867 105.436 358.416 105.217 358.557Z" fill="#263238"/>
<path d="M113.727 378.302C115.061 377.851 116.445 377.562 117.848 377.44C118.491 377.346 119.102 377.205 119.196 376.75C119.229 376.079 119.06 375.412 118.71 374.838C118.052 373.271 117.363 371.704 116.626 369.949C113.743 362.991 111.643 357.256 111.925 357.146C112.207 357.036 114.761 362.584 117.645 369.542L119.65 374.462C120.078 375.235 120.222 376.133 120.058 377.001C119.971 377.233 119.833 377.442 119.654 377.613C119.475 377.784 119.259 377.912 119.024 377.988C118.667 378.095 118.299 378.158 117.927 378.176C116.538 378.397 115.126 378.44 113.727 378.302Z" fill="#263238"/>
<path d="M91.7256 400.429C91.7256 400.429 98.0879 412.965 116.47 410.615L116.407 406.29C107.795 406.664 99.2495 404.635 91.7256 400.429Z" fill="#FF9A6C"/>
<path d="M104.153 349.39C103.918 350.079 101.379 349.844 98.4014 350.283C95.424 350.722 93.0421 351.631 92.6189 351.02C92.4309 350.722 92.8383 350.064 93.7942 349.359C95.0673 348.5 96.519 347.943 98.0394 347.728C99.5597 347.514 101.109 347.648 102.57 348.121C103.682 348.528 104.247 349.061 104.153 349.39Z" fill="#263238"/>
<path d="M128.316 350.111C127.893 350.706 126.123 350.111 124.007 350.189C121.891 350.268 120.136 350.706 119.698 350.111C119.51 349.813 119.776 349.233 120.544 348.669C121.568 347.975 122.777 347.604 124.015 347.604C125.252 347.604 126.461 347.975 127.486 348.669C128.238 349.233 128.505 349.829 128.316 350.111Z" fill="#263238"/>
<path d="M126.437 333.877C125.748 332.542 124.702 331.424 123.416 330.65C122.129 329.875 120.652 329.473 119.15 329.489C116.136 329.568 113.209 330.514 110.719 332.216C99.9221 338.876 94.7194 354.358 84.079 361.238C81.462 362.914 77.9361 361.535 75.7266 363.745C73.517 365.955 72.1536 369.402 73.4856 372.223C71.8784 370.331 70.5487 368.221 69.5366 365.955C69.0418 364.817 68.7956 363.587 68.8145 362.346C68.8334 361.106 69.117 359.884 69.6463 358.762C70.5395 357.101 72.1536 355.816 72.5611 354.06C72.9685 352.305 72.232 350.785 72.2633 349.14C72.4107 347.472 72.9475 345.862 73.8304 344.439C77.6905 336.659 83.5953 330.078 90.9115 325.399C95.7405 322.405 101.293 320.78 106.974 320.698C112.672 320.669 118.192 322.681 122.535 326.37C125.027 328.564 127.644 330.837 126.468 333.939" fill="#263238"/>
<path d="M76.0542 366.016C75.8348 365.499 66.119 362.302 66.2913 372.519C66.448 382.455 76.4146 380.214 76.4146 379.931C76.4146 379.649 76.0542 366.016 76.0542 366.016Z" fill="#FFBF9D"/>
<path d="M73.2797 376.233C73.2797 376.233 73.1074 376.358 72.8253 376.483C72.4074 376.648 71.9425 376.648 71.5246 376.483C70.8794 376.083 70.3502 375.521 69.99 374.853C69.6298 374.185 69.4511 373.434 69.4718 372.675C69.4403 371.823 69.5898 370.974 69.9105 370.184C70.0022 369.873 70.1666 369.589 70.39 369.354C70.6135 369.12 70.8897 368.942 71.1955 368.836C71.3916 368.779 71.6017 368.793 71.7883 368.876C71.9748 368.959 72.1257 369.106 72.2141 369.29C72.3552 369.573 72.2925 369.761 72.3552 369.776C72.4179 369.792 72.5589 369.62 72.4805 369.196C72.4145 368.954 72.2715 368.739 72.0731 368.585C71.7968 368.386 71.4542 368.302 71.1172 368.35C70.7113 368.439 70.3346 368.63 70.0222 368.904C69.7098 369.178 69.4719 369.526 69.3307 369.917C68.9243 370.783 68.736 371.735 68.7823 372.691C68.7507 373.578 68.9823 374.455 69.448 375.21C69.9137 375.966 70.5926 376.567 71.3993 376.938C71.6664 377.005 71.945 377.013 72.2156 376.962C72.4863 376.91 72.7424 376.8 72.9663 376.64C73.2641 376.468 73.3268 376.248 73.2797 376.233Z" fill="#FF9A6C"/>
<path d="M71.9482 361.033C72.1531 360.945 72.3475 360.834 72.5281 360.703C72.9042 360.453 73.4683 360.124 74.0951 359.606C76.007 358.118 77.7561 356.432 79.3135 354.576C81.5666 351.799 83.6594 348.895 85.5817 345.879C87.8994 342.189 90.5202 338.698 93.4171 335.442C94.9778 333.812 96.7119 332.356 98.5884 331.101C100.35 329.96 102.244 329.039 104.23 328.359C107.593 327.174 111.151 326.642 114.714 326.792C117.116 326.872 119.497 327.267 121.797 327.967C122.612 328.202 123.223 328.453 123.646 328.594L124.304 328.814L123.677 328.516C123.08 328.246 122.468 328.011 121.844 327.811C119.544 327.025 117.142 326.576 114.714 326.479C111.104 326.31 107.496 326.842 104.089 328.046C102.069 328.735 100.142 329.672 98.3534 330.835C96.4393 332.096 94.6731 333.568 93.088 335.223C90.178 338.495 87.5564 342.014 85.2527 345.738C83.3126 348.752 81.2205 351.665 78.9844 354.466C77.5128 356.271 75.8759 357.934 74.0951 359.434C73.437 359.967 72.8728 360.327 72.5281 360.609L71.9482 361.033Z" fill="white"/>
<path d="M74.5341 363.837C74.2168 366.503 74.6059 369.205 75.6624 371.673C76.9944 374.055 80.1912 375.606 82.5105 374.18C84.4066 373.036 84.9081 370.545 85.1745 368.351C85.9424 362.004 86.1774 355.595 86.9923 349.248L74.5341 363.837Z" fill="#263238"/>
<path d="M123.865 329.222C123.865 329.222 122.987 329.081 121.389 329.081C119.141 329.107 116.921 329.576 114.854 330.46C113.427 331.065 112.067 331.816 110.795 332.701C109.342 333.736 107.955 334.861 106.643 336.07C103.597 338.801 100.893 341.889 98.588 345.269C97.3814 347.071 96.3158 348.92 95.1405 350.644C94.0575 352.32 92.7792 353.861 91.3325 355.235C88.8172 357.492 86.0516 359.453 83.0897 361.08C80.598 362.506 78.4982 363.509 77.0565 364.215L75.3797 364.982C75.1862 365.085 74.981 365.164 74.7686 365.218C74.9427 365.086 75.1321 364.975 75.3327 364.888L76.8998 364.011C78.3101 363.259 80.3787 362.209 82.839 360.767C85.7352 359.102 88.4414 357.126 90.9094 354.875C92.3317 353.524 93.5888 352.009 94.6547 350.362C95.7986 348.654 96.8642 346.804 98.0865 344.971C100.431 341.533 103.189 338.396 106.298 335.631C107.641 334.431 109.054 333.311 110.529 332.278C111.832 331.383 113.23 330.637 114.697 330.052C116.818 329.18 119.097 328.759 121.389 328.814C122.009 328.836 122.628 328.905 123.238 329.018C123.454 329.062 123.665 329.13 123.865 329.222Z" fill="#455A64"/>
<path d="M74.0957 357.648C73.8333 357.885 73.544 358.09 73.2338 358.259L70.7578 359.826L69.9272 360.328C69.6003 360.537 69.231 360.671 68.846 360.72C68.6136 360.761 68.3741 360.716 68.1721 360.594C68.0629 360.52 67.9712 360.422 67.9035 360.308C67.8359 360.195 67.7938 360.068 67.7804 359.936C67.7934 359.478 67.9465 359.035 68.2191 358.667L71.0085 353.966L71.416 354.326C70.4694 355.052 69.4107 355.618 68.2818 356.003C67.1404 356.38 65.9419 356.555 64.7402 356.52C64.4328 356.523 64.1265 356.481 63.8313 356.394C63.6591 356.352 63.4989 356.271 63.3631 356.156C63.2272 356.042 63.1194 355.899 63.0478 355.736C62.988 355.571 62.9682 355.394 62.99 355.22C63.0118 355.045 63.0746 354.879 63.1732 354.733C63.3403 354.506 63.5236 354.292 63.7217 354.091C64.9914 352.793 66.0775 351.327 66.9498 349.734C67.7401 348.22 68.4158 346.649 68.9713 345.033C68.9441 345.487 68.8545 345.936 68.7049 346.365C68.3553 347.568 67.8881 348.733 67.3102 349.844C66.4526 351.521 65.3603 353.067 64.0664 354.436C63.706 354.796 63.3456 355.219 63.5023 355.517C63.659 355.815 64.2074 355.971 64.7246 355.956C65.8633 355.988 66.9987 355.818 68.0781 355.454C69.1531 355.106 70.1602 354.576 71.0555 353.887L72.2152 352.994L71.463 354.248L68.6109 358.949C68.3889 359.234 68.253 359.576 68.2191 359.936C68.2191 360.218 68.4855 360.375 68.799 360.343C69.4333 360.188 70.0336 359.917 70.5697 359.544L73.1241 358.15C73.4219 357.936 73.7492 357.767 74.0957 357.648Z" fill="white"/>
<path d="M104.198 383.27C104.36 382.508 104.785 381.829 105.398 381.35C106.012 380.872 106.774 380.624 107.552 380.653C108.121 380.708 108.667 380.903 109.143 381.22C109.618 381.537 110.008 381.967 110.279 382.47C110.537 382.981 110.691 383.537 110.731 384.108C110.772 384.678 110.698 385.251 110.514 385.793V386.028C110.004 386.614 109.325 387.029 108.57 387.214C107.815 387.399 107.022 387.346 106.298 387.062C105.576 386.754 104.977 386.213 104.597 385.526C104.216 384.84 104.076 384.045 104.198 383.27Z" fill="#FF9A6C"/>
<path d="M112.317 386.027C112.317 385.651 109.747 385.839 107.741 383.787C105.735 381.734 105.813 378.976 105.453 378.976C105.093 378.976 105.014 379.634 105.061 380.793C105.167 382.296 105.793 383.715 106.832 384.805C107.833 385.857 109.205 386.475 110.656 386.529C111.706 386.545 112.348 386.2 112.317 386.027Z" fill="#263238"/>
<path d="M153.358 433.777L153.075 433.4C140.226 419.814 116.594 415.269 116.594 415.269C116.594 415.269 115.152 424.155 101.911 425.158C88.6689 426.161 78.9217 412.621 78.9217 412.621L61.2609 415.097C61.2609 415.097 52.3599 416.147 46.8125 419.406C34.2759 426.74 27.7256 452.049 27.7256 452.049L164.061 452.597L153.358 433.777Z" fill="#B75400"/>
<path d="M165.832 300.419C165.832 300.419 166.145 300.419 166.772 300.419C167.717 300.426 168.661 300.509 169.593 300.67C173.233 301.259 176.669 302.745 179.591 304.995C184.325 308.651 187.423 314.03 188.209 319.96C188.389 321.756 188.457 323.562 188.413 325.367C188.413 327.216 188.413 329.143 188.413 331.118C188.413 335.082 188.413 339.298 188.413 343.733C188.413 361.488 188.413 382.988 188.507 407.481C188.507 413.603 188.507 419.918 188.507 426.427C188.507 427.994 188.507 429.671 188.507 431.347C188.384 433.026 188.079 434.686 187.598 436.299C186.592 439.589 184.851 442.606 182.505 445.122C180.123 447.728 177.152 449.727 173.839 450.952L172.586 451.406L171.285 451.735C170.419 451.956 169.54 452.124 168.652 452.237C166.866 452.4 165.071 452.463 163.277 452.425H141.338L141.699 452.049C141.699 463.018 141.699 474.818 141.699 486.869V487.762L141.041 487.151C135.274 481.739 129.413 476.155 123.458 470.399C117.535 464.601 111.486 458.709 105.688 452.393L105.985 452.534H26.3312C24.8738 452.534 23.4165 452.534 21.9277 452.44C17.5171 452.072 13.3094 450.426 9.81939 447.704C6.32934 444.982 3.70823 441.302 2.27669 437.114C1.37358 434.376 0.949479 431.503 1.02303 428.621V420.19C1.02303 397.797 1.02303 376.218 1.02303 355.642C1.02303 345.362 1.02303 335.349 1.02303 325.602C0.936488 323.158 1.09397 320.712 1.49315 318.299C2.00109 315.93 2.86774 313.653 4.06314 311.545C6.44546 307.42 10.0479 304.135 14.3745 302.143C16.4706 301.19 18.7012 300.566 20.9875 300.294C23.2175 300.099 25.4571 300.036 27.6945 300.105H65.1475L138.8 300.231L158.827 300.309L138.8 300.388L65.1475 300.513H40.7326H27.7416C25.5299 300.463 23.3172 300.531 21.1129 300.717C17.7173 301.149 14.4689 302.366 11.6242 304.269C8.77945 306.173 6.41627 308.712 4.72131 311.686C3.55181 313.781 2.71143 316.043 2.22967 318.393C1.83742 320.759 1.69039 323.159 1.7909 325.555C1.7909 335.281 1.7909 345.294 1.7909 355.595C1.7909 376.171 1.7909 397.75 1.7909 420.143V428.574C1.70302 431.366 2.11157 434.152 2.99754 436.801C4.83986 442.191 8.7062 446.653 13.779 449.243C16.334 450.562 19.1249 451.361 21.9904 451.594C23.4008 451.688 24.8582 451.704 26.3312 451.688H106.158L106.283 451.829C112.05 458.097 118.099 464.005 124.007 469.803C129.914 475.602 135.807 481.196 141.573 486.634L140.915 486.916C140.915 474.865 140.915 463.096 140.915 452.096V451.719H163.23C164.993 451.773 166.756 451.715 168.511 451.547C169.374 451.449 170.228 451.286 171.066 451.061L172.335 450.748L173.542 450.309C176.758 449.129 179.644 447.194 181.957 444.668C184.231 442.231 185.924 439.311 186.909 436.127C187.375 434.559 187.675 432.947 187.802 431.316C187.912 429.749 187.88 428.057 187.88 426.443C187.88 419.944 187.88 413.629 187.88 407.497C187.88 383.003 187.88 361.503 187.974 343.748C187.974 339.314 187.974 335.098 187.974 331.133V325.382C188.029 323.594 187.972 321.804 187.802 320.023C187.204 315.285 185.105 310.863 181.811 307.406C178.517 303.948 174.202 301.637 169.499 300.811C168.579 300.627 167.646 300.523 166.709 300.497L165.832 300.419Z" fill="#263238"/>
<path d="M158.827 300.309L138.8 300.231L65.1475 300.105H27.6945C25.4571 300.036 23.2175 300.099 20.9875 300.294C18.7012 300.566 16.4706 301.19 14.3745 302.143C10.0479 304.135 6.44546 307.42 4.06314 311.545C2.86774 313.653 2.00109 315.93 1.49315 318.299C1.09397 320.712 0.936488 323.158 1.02303 325.602C1.02303 335.349 1.02303 345.362 1.02303 355.642C1.02303 376.218 1.02303 397.797 1.02303 420.19V428.621C0.949479 431.503 1.37358 434.376 2.27669 437.114C3.70823 441.302 6.32934 444.982 9.81939 447.704C13.3094 450.426 17.5171 452.072 21.9277 452.44C23.4165 452.534 24.8738 452.534 26.3312 452.534H105.985L105.688 452.393C111.486 458.709 117.535 464.601 123.458 470.399C129.413 476.155 135.274 481.739 141.041 487.151L141.699 487.762V486.869C141.699 474.818 141.699 463.018 141.699 452.049L141.338 452.425H163.277C165.071 452.463 166.866 452.4 168.652 452.237C169.54 452.124 170.419 451.956 171.285 451.735L172.586 451.406L173.839 450.952C177.152 449.727 180.123 447.728 182.505 445.122C184.851 442.606 186.592 439.589 187.598 436.299C188.079 434.686 188.384 433.026 188.507 431.347C188.507 429.671 188.507 427.994 188.507 426.427C188.507 419.918 188.507 413.603 188.507 407.481C188.413 382.988 188.413 361.488 188.413 343.733C188.413 339.298 188.413 335.082 188.413 331.118C188.413 329.143 188.413 327.216 188.413 325.367C188.457 323.562 188.389 321.756 188.209 319.96C187.423 314.03 184.325 308.651 179.591 304.995C176.669 302.745 173.233 301.259 169.593 300.67C168.661 300.509 167.717 300.426 166.772 300.419C166.145 300.419 165.832 300.419 165.832 300.419L166.709 300.497C167.646 300.523 168.579 300.627 169.499 300.811C174.202 301.637 178.517 303.948 181.811 307.406C185.105 310.863 187.204 315.285 187.802 320.023C187.972 321.804 188.029 323.594 187.974 325.382V331.133C187.974 335.098 187.974 339.314 187.974 343.748C187.88 361.503 187.88 383.003 187.88 407.497C187.88 413.629 187.88 419.944 187.88 426.443C187.88 428.057 187.912 429.749 187.802 431.316C187.675 432.947 187.375 434.559 186.909 436.127C185.924 439.311 184.231 442.231 181.957 444.668C179.644 447.194 176.758 449.129 173.542 450.309L172.335 450.748L171.066 451.061C170.228 451.286 169.374 451.449 168.511 451.547C166.756 451.715 164.993 451.773 163.23 451.719H140.915V452.096C140.915 463.096 140.915 474.865 140.915 486.916L141.573 486.634C135.807 481.196 129.914 475.602 124.007 469.803C118.099 464.005 112.05 458.097 106.283 451.829L106.158 451.688H26.3312C24.8582 451.704 23.4008 451.688 21.9904 451.594C19.1249 451.36 16.334 450.562 13.779 449.243C8.7062 446.653 4.83986 442.191 2.99754 436.801C2.11157 434.152 1.70302 431.366 1.7909 428.574V420.143C1.7909 397.75 1.7909 376.171 1.7909 355.595C1.7909 345.294 1.7909 335.281 1.7909 325.555C1.69039 323.159 1.83742 320.759 2.22967 318.393C2.71143 316.043 3.55181 313.781 4.72131 311.686C6.41627 308.712 8.77945 306.173 11.6242 304.269C14.4689 302.366 17.7173 301.149 21.1129 300.717C23.3172 300.531 25.5299 300.463 27.7416 300.513H40.7326H65.1475L138.8 300.388L158.827 300.309ZM158.827 300.309H164.03H165.816" stroke="#263238" stroke-width="1.25366"/>
<path d="M456.46 611.575L260.952 611.434C237.446 611.434 218.391 593.256 218.391 570.847L218.485 103.703C218.485 81.2786 237.572 63.1006 261.109 63.1162L456.632 63.2259C480.138 63.2259 499.194 81.4039 499.194 103.813L499.1 570.941C499.084 593.428 479.966 611.59 456.46 611.575Z" fill="#263238"/>
<path d="M456.46 79.8048H418.506C417.3 79.8027 416.105 80.0382 414.99 80.4978C413.875 80.9574 412.862 81.6321 412.008 82.4833C411.153 83.3346 410.475 84.3458 410.012 85.4591C409.548 86.5725 409.309 87.7662 409.307 88.9722V95.5225C409.305 96.7297 409.065 97.9247 408.6 99.0391C408.136 100.153 407.456 101.165 406.601 102.017C405.745 102.868 404.729 103.543 403.613 104.001C402.496 104.46 401.3 104.694 400.092 104.69H326.205C324.999 104.692 323.805 104.456 322.69 103.997C321.575 103.537 320.561 102.863 319.707 102.011C318.853 101.16 318.175 100.149 317.711 99.0355C317.248 97.9221 317.008 96.7284 317.006 95.5225V88.9565C317.004 87.7492 316.764 86.5542 316.3 85.4398C315.836 84.3255 315.156 83.3136 314.3 82.4621C313.444 81.6107 312.429 80.9363 311.312 80.4776C310.196 80.019 308.999 79.785 307.792 79.7891H261.281C244.812 79.7891 231.507 92.5137 231.507 108.216L231.413 564.233C231.413 579.904 244.749 592.66 261.187 592.66L456.319 592.769C472.804 592.769 486.093 580.06 486.172 564.358L486.266 108.341C486.234 92.5451 472.883 79.8205 456.46 79.8048Z" fill="white"/>
<path d="M352.296 193.466C355.054 193.268 357.641 192.05 359.55 190.049C361.46 188.049 362.556 185.408 362.624 182.643C362.693 179.878 361.729 177.187 359.921 175.094C358.113 173.001 355.59 171.657 352.844 171.323C354.18 169.294 354.843 166.897 354.74 164.47C354.636 162.044 353.771 159.711 352.268 157.804C350.764 155.896 348.699 154.511 346.363 153.843C344.028 153.176 341.542 153.26 339.258 154.085C338.71 151.755 337.568 149.606 335.942 147.848C334.317 146.091 332.263 144.784 329.983 144.057C327.702 143.329 325.271 143.205 322.928 143.696C320.585 144.188 318.41 145.278 316.614 146.861C313.549 145.227 310.028 144.657 306.604 145.242C303.181 145.826 300.048 147.531 297.699 150.089C295.307 150.082 292.977 150.85 291.057 152.277C289.137 153.704 287.731 155.714 287.048 158.007C286.366 160.3 286.444 162.752 287.27 164.997C288.097 167.241 289.628 169.158 291.634 170.461" fill="#263238"/>
<path d="M354.177 194.688C351.024 183.236 343.672 173.393 333.585 167.119C323.499 160.846 311.419 158.604 299.753 160.839L297.355 161.293C271.75 167.75 262.88 193.089 270.057 218.523L287.984 310.823L340.748 351.567L354.397 317.577L349.022 286.863C349.022 286.863 373.186 278.244 368.751 253.296C366.667 241.214 360.242 216.752 354.177 194.688Z" fill="#C17560"/>
<path d="M349.288 286.753C337.714 288.965 325.748 287.806 314.812 283.415C314.812 283.415 325.61 300.418 350.025 293.444L349.288 286.753Z" fill="#7C4236"/>
<path d="M351.953 218.57C352.14 219.496 351.958 220.458 351.446 221.252C350.933 222.045 350.131 222.607 349.21 222.817C348.765 222.939 348.299 222.971 347.841 222.911C347.383 222.85 346.941 222.699 346.543 222.465C346.144 222.231 345.796 221.92 345.52 221.55C345.243 221.18 345.043 220.758 344.932 220.31C344.745 219.384 344.927 218.422 345.439 217.628C345.952 216.835 346.754 216.273 347.675 216.063C348.12 215.941 348.586 215.909 349.044 215.969C349.502 216.03 349.943 216.181 350.342 216.415C350.741 216.648 351.089 216.96 351.365 217.33C351.642 217.7 351.842 218.122 351.953 218.57Z" fill="#263238"/>
<path d="M351.137 207.898C350.792 208.43 347.721 206.957 343.897 207.694C340.073 208.43 337.629 210.828 337.127 210.499C336.877 210.326 337.127 209.402 338.224 208.274C339.663 206.813 341.519 205.833 343.537 205.469C345.524 205.075 347.585 205.333 349.413 206.205C350.761 206.879 351.325 207.647 351.137 207.898Z" fill="#263238"/>
<path d="M317.256 225.935C317.438 226.861 317.252 227.821 316.737 228.611C316.222 229.402 315.418 229.96 314.498 230.167C314.053 230.289 313.589 230.32 313.132 230.26C312.675 230.199 312.234 230.047 311.837 229.814C311.44 229.58 311.093 229.269 310.818 228.899C310.543 228.529 310.345 228.107 310.236 227.659C310.049 226.735 310.231 225.775 310.744 224.984C311.256 224.193 312.058 223.635 312.978 223.428C313.424 223.306 313.889 223.274 314.347 223.334C314.805 223.395 315.247 223.546 315.646 223.78C316.044 224.014 316.392 224.325 316.669 224.695C316.945 225.065 317.145 225.487 317.256 225.935Z" fill="#263238"/>
<path d="M313.67 215.764C313.325 216.313 310.253 214.824 306.43 215.561C302.606 216.297 300.161 218.695 299.66 218.366C299.425 218.193 299.66 217.269 300.757 216.156C302.19 214.722 304.027 213.76 306.022 213.398C308.01 213.015 310.067 213.273 311.899 214.135C313.293 214.746 313.858 215.514 313.67 215.764Z" fill="#263238"/>
<path d="M332.96 241.495C332.96 241.275 335.201 240.413 338.962 239.175C339.918 238.893 340.811 238.533 340.843 237.828C340.731 236.802 340.31 235.835 339.636 235.054L335.342 228.175C329.309 218.349 324.749 210.185 325.141 209.95C325.532 209.714 330.751 217.487 336.784 227.313L340.968 234.255C341.806 235.32 342.244 236.645 342.206 238C342.129 238.371 341.969 238.721 341.739 239.022C341.508 239.323 341.213 239.568 340.874 239.74C340.375 239.979 339.849 240.158 339.307 240.272C335.421 241.228 333.023 241.698 332.96 241.495Z" fill="#263238"/>
<path d="M312.291 202.522C311.977 203.588 308.498 203.165 304.455 203.792C300.412 204.418 297.121 205.751 296.62 204.81C296.369 204.356 296.918 203.353 298.187 202.303C299.881 201.003 301.885 200.166 304.001 199.874C306.082 199.551 308.212 199.783 310.175 200.548C311.726 201.206 312.494 202.021 312.291 202.522Z" fill="#263238"/>
<path d="M349.022 194.265C348.379 195.284 345.057 194.986 341.186 195.66C337.315 196.333 334.291 197.587 333.351 196.819C332.943 196.428 333.272 195.472 334.526 194.375C336.268 192.981 338.351 192.078 340.559 191.758C342.743 191.348 344.997 191.543 347.078 192.322C348.692 193.027 349.304 193.764 349.022 194.265Z" fill="#263238"/>
<path d="M278.739 241.981C278.535 241.073 278.148 240.215 277.603 239.46C277.058 238.705 276.365 238.069 275.566 237.59C274.768 237.111 273.88 236.799 272.957 236.673C272.035 236.547 271.096 236.609 270.198 236.857C265.638 238.189 260.968 241.809 263.115 251.337C266.892 268.245 283.095 260.958 283.017 260.473C282.939 259.987 280.384 249.049 278.739 241.981Z" fill="#C17560"/>
<path d="M277.908 254.925C277.829 254.925 277.657 255.207 277.218 255.536C276.587 255.999 275.799 256.195 275.024 256.084C273.081 255.818 270.95 253.326 270.182 250.302C269.811 248.861 269.774 247.355 270.072 245.898C270.11 245.334 270.286 244.788 270.583 244.307C270.881 243.826 271.292 243.426 271.78 243.14C272.098 242.982 272.46 242.935 272.808 243.009C273.155 243.083 273.467 243.273 273.692 243.548C274.021 243.971 273.99 244.331 274.1 244.347C274.209 244.363 274.397 243.987 274.1 243.313C273.909 242.915 273.588 242.595 273.191 242.404C272.918 242.29 272.625 242.231 272.329 242.231C272.033 242.231 271.74 242.29 271.467 242.404C270.803 242.695 270.225 243.153 269.789 243.732C269.353 244.311 269.073 244.992 268.975 245.71C268.584 247.332 268.584 249.025 268.975 250.647C269.853 254.031 272.313 256.915 274.915 256.993C275.399 257.024 275.884 256.946 276.335 256.764C276.785 256.582 277.189 256.302 277.516 255.943C277.97 255.348 277.97 254.956 277.908 254.925Z" fill="#7C4236"/>
<path d="M333.288 161.984C333.053 161.589 332.774 161.221 332.458 160.887C331.247 159.658 329.768 158.728 328.136 158.171C326.504 157.613 324.764 157.443 323.055 157.674C320.947 157.049 318.794 156.587 316.615 156.295C314.96 154.334 312.831 152.827 310.431 151.918C308.031 151.009 305.438 150.728 302.899 151.102C300.36 151.475 297.958 152.491 295.921 154.052C293.884 155.614 292.28 157.67 291.26 160.025C290.57 160.26 289.896 160.511 289.222 160.777C287.099 159.759 284.771 159.241 282.417 159.264C280.062 159.287 277.745 159.85 275.642 160.91C273.54 161.97 271.708 163.498 270.289 165.376C268.87 167.255 267.9 169.434 267.456 171.746C265.261 171.578 263.066 172.062 261.145 173.137C259.225 174.212 257.665 175.83 256.66 177.788C255.656 179.747 255.252 181.958 255.5 184.145C255.748 186.332 256.636 188.397 258.053 190.081C255.327 192.416 253.352 195.958 253.885 199.484C254.418 203.009 258.116 205.485 261.235 204.482C262.19 212.757 264.886 222.19 266.923 230.574C268.365 236.482 276.623 238.582 277.893 242.531C284.474 262.668 289.05 249.975 283.503 206.739C283.863 206.316 284.239 205.877 284.6 205.407C285.125 204.395 285.581 203.348 285.963 202.273C286.684 201.004 288.47 201.019 289.928 200.894C292.45 200.611 294.798 199.469 296.578 197.66C298.359 195.851 299.463 193.485 299.706 190.959C301.273 192.526 304.266 191.962 305.974 190.363C307.473 188.605 308.713 186.642 309.657 184.534C310.832 182.528 312.634 180.6 314.938 180.491C316.22 180.675 317.519 180.712 318.809 180.6C321.003 179.989 321.598 177.153 321.504 174.881C321.225 172.959 321.474 170.998 322.225 169.208C323.451 168.278 324.837 167.582 326.315 167.155C327.177 167.155 328.07 167.155 328.916 167.061C329.322 167.039 329.725 166.986 330.123 166.904C330.683 166.981 331.237 167.09 331.784 167.233C339.995 169.443 349.523 183.782 349.523 183.782C348.332 173.752 341.312 166.544 333.288 161.984Z" fill="#263238"/>
<path d="M256.095 191.319C256.095 191.319 256.095 191.225 256.204 191.037C256.314 190.849 256.408 190.598 256.612 190.269C257.229 189.334 258.003 188.512 258.9 187.84C260.327 186.779 261.987 186.075 263.742 185.787C266.065 185.382 268.456 185.792 270.512 186.947L270.073 187.182C270.225 185.248 270.788 183.369 271.723 181.669C272.657 179.97 273.943 178.489 275.495 177.325C277.207 175.967 279.157 174.941 281.246 174.3C283.454 173.662 285.752 173.392 288.047 173.501C292.349 173.762 296.564 174.825 300.474 176.635L300.004 176.886C300.773 173.052 302.968 169.652 306.147 167.374C308.206 165.927 310.598 165.025 313.099 164.751C315.601 164.477 318.131 164.84 320.454 165.807C320.939 166.005 321.41 166.236 321.865 166.496C322.162 166.684 322.319 166.794 322.303 166.81C322.288 166.825 321.645 166.481 320.376 166.01C318.554 165.35 316.625 165.036 314.687 165.086C311.733 165.146 308.868 166.108 306.476 167.844C303.458 170.063 301.383 173.335 300.662 177.011L300.584 177.434L300.192 177.262C296.358 175.483 292.232 174.421 288.016 174.128C285.8 174.03 283.583 174.289 281.45 174.896C279.439 175.496 277.562 176.474 275.918 177.779C274.424 178.885 273.181 180.294 272.271 181.915C271.36 183.535 270.804 185.33 270.637 187.182V187.652L270.23 187.417C268.296 186.289 266.032 185.863 263.82 186.21C262.128 186.451 260.517 187.09 259.119 188.075C257.907 188.946 256.879 190.048 256.095 191.319Z" fill="#455A64"/>
<path d="M322.256 168.032C322.218 168.277 322.161 168.518 322.083 168.753C321.942 169.44 321.853 170.137 321.817 170.837C321.817 171.762 321.817 172.89 321.707 174.222C321.746 175.766 321.452 177.3 320.845 178.72C320.621 179.138 320.315 179.507 319.947 179.805C319.578 180.104 319.154 180.326 318.698 180.459C317.738 180.69 316.755 180.811 315.768 180.82C314.769 180.822 313.786 181.081 312.916 181.572C312.054 182.217 311.333 183.033 310.8 183.969C310.205 184.925 309.672 185.975 309.092 187.103C308.574 188.244 307.887 189.301 307.055 190.238C306.072 191.172 304.871 191.845 303.561 192.196C302.885 192.399 302.18 192.484 301.476 192.447C300.703 192.435 299.966 192.12 299.424 191.57L300.019 191.35C299.972 193.501 299.199 195.572 297.825 197.227C296.369 198.927 294.471 200.191 292.34 200.878C291.456 201.159 290.549 201.364 289.629 201.489C288.779 201.461 287.934 201.622 287.153 201.959C286.442 202.358 285.888 202.988 285.586 203.746C285.194 204.534 284.738 205.288 284.223 206.002C282.391 208.879 279.543 210.96 276.247 211.832C273.232 212.265 270.162 211.585 267.612 209.92C265.42 208.539 263.694 206.529 262.66 204.153L262.989 204.279C262.065 204.662 261.068 204.837 260.068 204.791C259.069 204.745 258.092 204.479 257.207 204.012C255.879 203.302 254.842 202.148 254.276 200.753C253.918 199.895 253.753 198.97 253.79 198.042C253.792 197.804 253.818 197.568 253.869 197.336C253.869 197.18 253.869 197.101 253.869 197.101C253.773 198.318 253.978 199.539 254.464 200.659C255.038 201.962 256.046 203.025 257.316 203.667C258.151 204.085 259.067 204.317 260.001 204.347C260.934 204.377 261.863 204.204 262.723 203.84L262.958 203.746L263.052 203.965C264.079 206.224 265.753 208.127 267.863 209.434C270.294 210.988 273.204 211.611 276.059 211.189C279.172 210.348 281.859 208.375 283.596 205.658C284.095 204.975 284.535 204.252 284.912 203.495C285.281 202.611 285.931 201.873 286.762 201.395C287.189 201.163 287.657 201.014 288.141 200.956L289.473 200.847C290.346 200.728 291.206 200.529 292.043 200.251C294.051 199.617 295.842 198.433 297.214 196.835C298.498 195.303 299.222 193.38 299.267 191.382V190.567L299.831 191.162C300.318 191.528 300.891 191.762 301.495 191.842C302.099 191.921 302.713 191.844 303.279 191.617C304.482 191.298 305.586 190.684 306.491 189.83C307.33 188.922 308.017 187.885 308.528 186.759C309.124 185.693 309.672 184.643 310.299 183.625C310.882 182.623 311.666 181.753 312.603 181.07C313.559 180.534 314.64 180.259 315.737 180.271C316.686 180.269 317.631 180.163 318.557 179.958C318.955 179.849 319.327 179.663 319.652 179.41C319.978 179.157 320.25 178.843 320.454 178.485C321.063 177.13 321.373 175.66 321.362 174.175C321.441 172.859 321.488 171.715 321.582 170.79C321.647 170.08 321.778 169.377 321.974 168.69C322.041 168.46 322.135 168.239 322.256 168.032Z" fill="#455A64"/>
<path d="M322.304 250.444C321.598 255.146 323.62 259.643 328.039 261.257C328.899 261.524 329.803 261.618 330.7 261.534C331.597 261.451 332.468 261.191 333.264 260.771C334.06 260.35 334.766 259.776 335.34 259.083C335.914 258.389 336.346 257.589 336.611 256.728C337.116 254.806 337.154 252.791 336.721 250.852C332.662 250.617 326.394 250.679 322.304 250.444Z" fill="#7C4236"/>
<path d="M335.796 258.624C335.796 258.624 335.796 258.75 335.624 258.953C335.429 259.253 335.197 259.527 334.935 259.768C333.971 260.687 332.753 261.293 331.44 261.508C329.461 261.811 327.439 261.4 325.736 260.348C324.719 259.672 323.852 258.792 323.192 257.764C322.531 256.737 322.09 255.584 321.896 254.378C321.803 253.745 321.772 253.105 321.802 252.466C321.806 251.796 321.978 251.139 322.304 250.554C322.508 250.239 322.811 250.002 323.166 249.88C323.479 249.78 323.809 249.737 324.137 249.755H325.798C327.945 249.864 329.873 250.068 331.487 250.24C334.699 250.585 336.705 250.679 336.705 250.805C334.956 251.01 333.189 251.01 331.44 250.805C329.873 250.711 327.898 250.554 325.767 250.491H324.2C323.652 250.491 323.26 250.57 323.025 250.946C322.794 251.436 322.676 251.971 322.68 252.513C322.608 253.915 322.894 255.312 323.511 256.573C324.127 257.834 325.055 258.918 326.206 259.721C327.752 260.703 329.588 261.129 331.409 260.928C332.648 260.79 333.822 260.3 334.793 259.518C335.452 258.985 335.796 258.562 335.796 258.624Z" fill="#263238"/>
<path d="M430.446 204.544C430.446 204.544 450.301 202.068 480.138 178.327C509.975 154.586 526.147 120.847 529.469 121.348C532.792 121.85 548.071 116.412 570.213 179.549C592.356 242.686 580.039 255.709 574.523 255.066C569.007 254.424 532.4 240.414 508.706 240.884C485.012 241.354 453.655 250.726 453.655 250.726L430.446 204.544Z" fill="#B75400"/>
<path d="M394.733 251.683L405.342 249.426L399.591 235.464L390.627 239.946L394.733 251.683Z" fill="#455A64"/>
<path d="M395.971 235.087L399.888 246.871L402.333 252.795C403.926 256.731 406.973 259.902 410.842 261.653C414.71 263.403 419.104 263.598 423.112 262.197L466.16 250.084L447.668 195.581L404.887 213.618C400.874 215.303 397.688 218.501 396.018 222.521C394.349 226.54 394.332 231.055 395.971 235.087Z" fill="#263238"/>
<path d="M411.406 253.202L425.823 278.761L432.405 276.646L477.427 310.244L488.6 285.923C488.6 285.923 462.399 275.909 457.259 266.93C452.119 257.951 457.541 255.647 457.541 255.647L444.863 242.39L411.406 253.202Z" fill="#263238"/>
<path d="M567.848 180.49C579.554 214.668 582.97 244.458 575.464 247.028C567.958 249.598 552.366 223.992 540.644 189.814C528.922 155.637 525.522 125.847 533.028 123.261C540.534 120.675 556.126 146.266 567.848 180.49Z" fill="#263238"/>
<path d="M538.339 170.304C538.339 170.304 556.235 161.418 563.334 185.128C570.432 208.838 552.286 210.922 552.286 210.922C545.753 198.104 541.058 184.431 538.339 170.304Z" fill="#FAFAFA"/>
<path d="M522.935 141.392C522.878 142.874 522.962 144.359 523.186 145.826C523.452 148.663 523.828 152.784 524.439 157.861C524.93 160.379 525.453 163.116 526.007 166.073C526.304 167.546 526.602 169.082 526.9 170.649C527.056 171.432 527.213 172.232 527.37 173.046C527.558 173.846 527.809 174.613 528.028 175.46L530.927 185.661L531.679 188.325C531.93 189.234 532.322 190.096 532.635 190.989C533.293 192.776 533.967 194.578 534.657 196.411L536.694 201.833C537.039 202.711 537.321 203.62 537.728 204.466L538.903 206.989L543.432 216.595C543.808 217.347 544.138 218.162 544.529 218.836L545.752 220.952L548.087 225.01L552.286 232.235C555.154 236.466 557.567 239.804 559.228 242.123C560.027 243.375 560.94 244.55 561.955 245.633C561.314 244.296 560.559 243.017 559.699 241.809L553.148 231.67L549.136 224.368L546.896 220.341C546.504 219.635 546.112 218.93 545.705 218.225C545.297 217.52 545.015 216.736 544.655 215.968C543.244 212.913 541.756 209.7 540.235 206.394L539.06 203.886C538.668 203.04 538.386 202.147 538.042 201.269L536.036 195.894C535.362 194.076 534.688 192.274 534.014 190.504C533.701 189.626 533.309 188.764 533.074 187.871C532.839 186.978 532.557 186.084 532.29 185.207L529.344 175.084C529.125 174.284 528.859 173.517 528.671 172.702C528.482 171.887 528.326 171.135 528.169 170.335C527.84 168.768 527.511 167.201 527.213 165.791C526.586 162.876 525.991 160.149 525.458 157.658C524.753 152.674 524.157 148.616 523.75 145.732C523.59 144.267 523.318 142.815 522.935 141.392Z" fill="#263238"/>
<path d="M466.159 250.005C465.539 250.289 464.887 250.495 464.216 250.616L458.888 252.026C454.375 253.186 448.153 254.831 441.29 256.728C434.426 258.624 428.236 260.348 423.707 261.429C421.435 261.993 419.601 262.416 418.316 262.682C417.659 262.85 416.987 262.96 416.311 263.012C416.934 262.73 417.585 262.515 418.254 262.369L423.55 260.802L441.086 255.834C447.934 253.938 454.202 252.371 458.747 251.353C461.019 250.835 462.868 250.444 464.153 250.209C464.814 250.078 465.486 250.01 466.159 250.005Z" fill="#455A64"/>
<path d="M440.79 241.104C439.458 241.853 438.051 242.458 436.59 242.907C433.942 243.894 430.322 245.148 426.138 246.386C421.954 247.624 418.224 248.579 415.482 249.206C414.014 249.626 412.507 249.894 410.984 250.005C412.398 249.436 413.855 248.98 415.341 248.642C418.052 247.874 421.781 246.824 425.903 245.602C430.024 244.38 433.738 243.204 436.402 242.358C437.829 241.824 439.296 241.405 440.79 241.104Z" fill="#455A64"/>
<path d="M434.02 228.66C429.687 230.401 425.255 231.882 420.746 233.095C416.314 234.579 411.798 235.803 407.223 236.762C411.561 235.018 415.998 233.532 420.511 232.311C424.94 230.836 429.45 229.616 434.02 228.66Z" fill="#455A64"/>
<path d="M427.343 216.673C423.693 218.713 419.913 220.514 416.029 222.064C412.258 223.879 408.374 225.45 404.401 226.765C408.041 224.71 411.816 222.903 415.7 221.358C419.471 219.537 423.361 217.971 427.343 216.673Z" fill="#455A64"/>
<path d="M378.907 351.536L352.768 307.423L285.18 304.634V310.777C285.18 310.777 266.626 329.456 260.64 354.89C256.111 374.149 275.167 447.645 280.526 473.125C287.108 504.466 296.197 544.082 296.197 544.082C294.833 551.102 285.823 556.791 286.45 566.162L436.669 564.517L428.943 534.068L378.907 351.536Z" fill="#B75400"/>
<path d="M431.027 545.741C431.027 545.976 401.127 546.149 364.254 546.149C327.381 546.149 297.497 545.976 297.497 545.741C297.497 545.506 327.381 545.334 364.254 545.334C401.127 545.334 431.027 545.522 431.027 545.741Z" fill="white"/>
<path d="M420.636 508.006C420.636 508.241 391.018 508.429 354.49 508.429C317.961 508.429 288.328 508.241 288.328 508.006C288.328 507.771 317.946 507.599 354.49 507.599C391.034 507.599 420.636 507.834 420.636 508.006Z" fill="white"/>
<path d="M410.45 467.092C410.45 467.311 381.459 467.499 345.699 467.499C309.938 467.499 280.947 467.264 280.947 467.092C280.947 466.92 309.922 466.685 345.683 466.685C381.443 466.685 410.45 466.857 410.45 467.092Z" fill="white"/>
<path d="M403.322 425.862C403.322 426.081 373.453 426.269 336.627 426.269C299.801 426.269 269.948 426.081 269.948 425.862C269.948 425.642 299.801 425.454 336.627 425.454C373.453 425.454 403.322 425.626 403.322 425.862Z" fill="white"/>
<path d="M387.509 374.712C387.509 374.932 359.301 375.12 324.403 375.12C289.504 375.12 261.297 374.932 261.297 374.712C261.297 374.493 289.504 374.289 324.403 374.289C359.301 374.289 387.509 374.477 387.509 374.712Z" fill="white"/>
<path d="M366.025 327.793C366.025 328.013 345.167 328.201 319.42 328.201C293.673 328.201 272.815 328.013 272.815 327.793C272.815 327.574 293.673 327.386 319.42 327.386C345.167 327.386 366.025 327.636 366.025 327.793Z" fill="white"/>
<path opacity="0.3" d="M279.868 378.739C286.445 389.781 294.746 399.701 304.455 408.122C319.546 420.658 365.461 443.13 365.461 443.13L369.301 435.201L403.557 443.208L397.289 422.116L279.868 378.739Z" fill="black"/>
<path d="M441.024 323.093L429.067 388.032L326.644 339.344L310.143 397.106C350.401 416.788 431.888 449.556 442.372 448.615C457.29 447.268 467.602 438.351 472.24 416.506C475.124 402.982 473.807 312.296 473.807 312.296L441.024 323.093Z" fill="#C17560"/>
<path d="M333.335 330.616C333.335 330.616 295.036 306.953 278.331 336.774C266.39 365.859 279.6 389.083 309.092 403.5C323.306 410.458 342.675 419.045 362.232 427.21L390.737 363.947L333.335 330.616Z" fill="#B75400"/>
<path d="M333.335 330.616C333.335 330.616 333.712 330.788 334.401 331.18L337.441 332.888L349.006 339.501L390.91 363.665L391.16 363.822L391.035 364.088L362.608 427.366L362.452 427.727L362.091 427.57C352.062 423.402 341.719 418.951 331.189 414.25C326.54 412.161 321.948 410.071 317.414 407.982C312.901 405.866 308.45 403.751 304.172 401.416C302.083 400.214 300.02 398.955 297.982 397.639C296.039 396.229 294.033 394.944 292.263 393.377C288.644 390.47 285.387 387.14 282.562 383.457L280.619 380.668C279.99 379.743 279.42 378.78 278.911 377.784C277.842 375.857 276.91 373.856 276.122 371.798C275.761 370.78 275.495 369.714 275.182 368.664L274.727 367.097C274.602 366.564 274.539 366.047 274.429 365.53C274.257 364.496 274.069 363.446 273.897 362.396C273.724 361.346 273.771 360.327 273.708 359.262C273.596 357.23 273.632 355.192 273.818 353.166C273.975 351.175 274.398 349.232 274.68 347.32C274.962 345.409 275.636 343.591 276.153 341.789C276.67 339.987 277.422 338.294 278.034 336.602C280.26 332.555 283.353 329.05 287.091 326.337C290.512 324.022 294.402 322.491 298.484 321.856C305.042 321.06 311.696 321.707 317.978 323.752C321.96 324.987 325.829 326.56 329.543 328.453C330.812 329.111 331.753 329.644 332.395 330.02C333.038 330.396 333.32 330.616 333.32 330.616L332.348 330.098C331.706 329.754 330.781 329.252 329.449 328.625C325.719 326.805 321.846 325.296 317.868 324.112C311.637 322.132 305.047 321.539 298.562 322.373C294.563 323.009 290.757 324.529 287.42 326.823C283.766 329.5 280.748 332.952 278.582 336.931C277.987 338.623 277.36 340.331 276.733 342.086C276.106 343.842 275.777 345.691 275.307 347.54C274.837 349.389 274.633 351.348 274.476 353.322C274.304 355.318 274.272 357.324 274.382 359.324C274.382 360.327 274.492 361.361 274.586 362.458C274.68 363.555 274.931 364.496 275.119 365.514C275.213 366.031 275.276 366.548 275.401 367.081L275.855 368.648C276.169 369.667 276.42 370.701 276.796 371.704C277.568 373.726 278.485 375.69 279.538 377.581C280.046 378.555 280.605 379.502 281.215 380.417L283.142 383.144C285.935 386.776 289.155 390.059 292.733 392.922C294.546 394.422 296.434 395.829 298.39 397.138C300.375 398.444 302.422 399.687 304.533 400.867C308.764 403.171 313.214 405.302 317.727 407.402C322.241 409.502 326.848 411.617 331.502 413.67C342.001 418.371 352.344 422.822 362.358 427.006L361.84 427.21C372.481 403.704 382.212 382.047 390.408 363.994L390.549 364.402L348.787 339.987L337.363 333.045L334.385 331.258C333.68 330.929 333.335 330.616 333.335 330.616Z" fill="#263238"/>
<path d="M439.488 334.219L441.792 310.023C441.792 310.023 432.546 291.406 432.734 289.541C432.922 287.677 433.455 277.412 433.455 277.412L456.569 256.602C456.569 256.602 464.06 256.602 464.248 264.014C464.248 264.014 471.441 262.447 471.551 271.128C471.551 271.128 479.386 271.41 479.543 277.726C479.543 277.726 484.244 277.099 484.087 283.696C483.962 288.397 481.893 306.591 481.893 306.591L472.224 323.406L471.425 340.22L439.488 334.219Z" fill="#C17560"/>
<path d="M441.887 411.757C441.62 411.851 439.912 405.974 436.417 399.393C432.923 392.811 428.864 388.204 429.068 388.031C430.103 388.882 431.024 389.861 431.81 390.946C433.831 393.46 435.615 396.157 437.138 399.001C438.647 401.848 439.905 404.821 440.899 407.886C441.377 409.134 441.709 410.433 441.887 411.757Z" fill="#7C4236"/>
<path d="M310.143 322.577C309.87 323.343 309.529 324.082 309.124 324.787C308.419 326.181 307.369 328.172 305.99 330.616C303.342 335.521 299.565 342.228 295.35 349.593L284.49 368.398L281.199 374.102C280.818 374.818 280.383 375.505 279.898 376.155C280.171 375.39 280.512 374.65 280.917 373.946C281.622 372.567 282.672 370.561 284.051 368.116C286.7 363.211 290.46 356.504 294.692 349.139C298.923 341.774 302.699 335.239 305.536 330.334C306.883 328.031 307.996 326.103 308.842 324.63C309.216 323.91 309.651 323.223 310.143 322.577Z" fill="white"/>
<path d="M341.374 336.257C341.321 336.502 341.237 336.739 341.123 336.962L340.262 338.921C339.494 340.629 338.365 343.058 336.908 346.051C334.025 352.037 329.903 360.233 325.077 369.15C320.25 378.066 315.674 386.011 312.227 391.7C310.503 394.536 309.093 396.824 308.09 398.391L306.93 400.193C306.797 400.405 306.645 400.605 306.476 400.789C306.476 400.789 306.554 400.538 306.789 400.099L307.823 398.234L311.725 391.402C315.032 385.651 319.561 377.659 324.356 368.758C329.151 359.857 333.382 351.708 336.391 345.785L339.98 338.795L340.967 336.899C341.073 336.668 341.21 336.452 341.374 336.257Z" fill="white"/>
<path d="M376.32 355.814C376.063 356.703 375.743 357.572 375.364 358.416C374.722 359.983 373.719 362.427 372.434 365.327C369.848 371.109 366.024 379.007 361.307 387.469C356.591 395.931 351.905 403.328 348.316 408.578C346.53 411.195 345.041 413.279 343.976 414.705C343.467 415.471 342.895 416.195 342.268 416.867C342.69 416.051 343.177 415.27 343.725 414.533L347.831 408.264C351.278 402.952 355.885 395.524 360.602 387.093C365.319 378.662 369.19 370.811 371.901 365.154L375.035 358.353C375.386 357.47 375.817 356.62 376.32 355.814Z" fill="white"/>
<path d="M285.257 595.168L288.516 566.162L431.825 564.579L435.476 595.168H285.257Z" fill="#263238"/>
<path d="M462.728 592.628C462.728 592.848 418.584 593.036 364.128 593.036C309.673 593.036 265.528 592.848 265.528 592.628C265.528 592.409 309.673 592.221 364.128 592.221C418.584 592.221 462.728 592.377 462.728 592.628Z" fill="#455A64"/>
<path d="M382.855 86.4814H329.559C327.794 86.4814 326.362 87.9127 326.362 89.6783V91.9819C326.362 93.7474 327.794 95.1787 329.559 95.1787H382.855C384.621 95.1787 386.052 93.7474 386.052 91.9819V89.6783C386.052 87.9127 384.621 86.4814 382.855 86.4814Z" fill="#455A64"/>
<path d="M400.53 90.8379C400.53 91.6995 400.275 92.5418 399.796 93.2582C399.317 93.9746 398.637 94.533 397.841 94.8627C397.045 95.1925 396.169 95.2788 395.324 95.1107C394.479 94.9426 393.703 94.5276 393.093 93.9184C392.484 93.3091 392.069 92.5329 391.901 91.6878C391.733 90.8427 391.819 89.9668 392.149 89.1708C392.479 88.3747 393.037 87.6943 393.754 87.2157C394.47 86.737 395.312 86.4814 396.174 86.4814C396.746 86.4814 397.312 86.5941 397.841 86.8131C398.37 87.032 398.85 87.3529 399.254 87.7574C399.659 88.162 399.98 88.6422 400.199 89.1708C400.418 89.6993 400.53 90.2658 400.53 90.8379Z" fill="#455A64"/>
<path d="M219.957 153.99H223.483V226.702H219.957C217.38 226.702 214.909 225.679 213.087 223.857C211.265 222.034 210.241 219.563 210.241 216.986V163.706C210.241 162.43 210.493 161.167 210.981 159.988C211.469 158.809 212.185 157.738 213.087 156.836C213.989 155.934 215.06 155.218 216.239 154.73C217.418 154.242 218.681 153.99 219.957 153.99Z" fill="#263238"/>
<path d="M219.08 259.643H222.606V332.355H219.08C216.503 332.355 214.032 331.331 212.21 329.509C210.388 327.687 209.364 325.216 209.364 322.639V269.358C209.364 266.782 210.388 264.31 212.21 262.488C214.032 260.666 216.503 259.643 219.08 259.643Z" fill="#263238"/>
<path d="M219.33 367.411C219.095 367.411 218.923 314.632 218.923 249.536C218.923 184.44 219.095 131.646 219.33 131.646C219.565 131.646 219.738 184.424 219.738 249.536C219.738 314.648 219.55 367.411 219.33 367.411Z" fill="#455A64"/>
</svg>
