<svg width="71" height="90" viewBox="0 0 71 90" fill="none" xmlns="http://www.w3.org/2000/svg">
<path d="M67.5 0H13.6607C13.2188 0 12.8571 0.361607 12.8571 0.803571V6.42857C12.8571 6.87054 13.2188 7.23214 13.6607 7.23214H63.4821V76.3393C63.4821 76.7812 63.8438 77.1429 64.2857 77.1429H69.9107C70.3527 77.1429 70.7143 76.7812 70.7143 76.3393V3.21429C70.7143 1.43638 69.2779 0 67.5 0ZM54.6429 12.8571H3.21429C1.43638 12.8571 0 14.2935 0 16.0714V69.3783C0 70.2321 0.341517 71.0458 0.944196 71.6484L18.3516 89.0558C18.5725 89.2768 18.8237 89.4576 19.0949 89.6083V89.7991H19.5167C19.8683 89.9297 20.24 90 20.6217 90H54.6429C56.4208 90 57.8571 88.5636 57.8571 86.7857V16.0714C57.8571 14.2935 56.4208 12.8571 54.6429 12.8571ZM19.0848 79.5737L10.4364 70.9152H19.0848V79.5737ZM50.625 82.7679H25.5134V68.5045C25.5134 66.2846 23.7154 64.4866 21.4955 64.4866H7.23214V20.0893H50.625V82.7679Z" fill="#B75400"/>
</svg>
