<svg width="70" height="75" viewBox="0 0 70 75" fill="none" xmlns="http://www.w3.org/2000/svg">
<path fill-rule="evenodd" clip-rule="evenodd" d="M21.2476 18.0531L21.2476 14.3006C21.2476 6.54068 27.5383 0.25 35.2982 0.25C43.0582 0.25 49.3489 6.54068 49.3489 14.3006V18.0475L49.3489 18.0531C59.4067 18.0984 64.7506 18.5053 67.7481 22.1616C71.1209 26.2758 69.8768 32.4963 67.3885 44.9374L65.1404 56.1779C63.4102 64.829 62.5451 69.1545 59.4374 71.7022C56.3296 74.25 51.9184 74.25 43.096 74.25H27.5003C18.6779 74.25 14.2667 74.25 11.159 71.7022C8.05122 69.1545 7.18611 64.829 5.4559 56.1779L3.20779 44.9374C0.719581 32.4963 -0.524526 26.2758 2.84827 22.1616C5.84574 18.5053 11.1897 18.0984 21.2476 18.0531ZM26.8679 14.3006C26.8679 9.64466 30.6423 5.87025 35.2982 5.87025C39.9542 5.87025 43.7286 9.64466 43.7286 14.3006V18.0475H26.8679V14.3006ZM46.5387 33.0348C48.608 33.0348 50.2855 31.3573 50.2855 29.288C50.2855 27.2187 48.608 25.5411 46.5387 25.5411C44.4694 25.5411 42.7918 27.2187 42.7918 29.288C42.7918 31.3573 44.4694 33.0348 46.5387 33.0348ZM27.8045 29.288C27.8045 31.3573 26.127 33.0348 24.0577 33.0348C21.9883 33.0348 20.3108 31.3573 20.3108 29.288C20.3108 27.2187 21.9883 25.5411 24.0577 25.5411C26.127 25.5411 27.8045 27.2187 27.8045 29.288Z" fill="#B75400"/>
</svg>
