<svg width="64" height="64" viewBox="0 0 64 64" fill="none" xmlns="http://www.w3.org/2000/svg">
<path fill-rule="evenodd" clip-rule="evenodd" d="M64 32C64 49.6731 49.6731 64 32 64C14.3269 64 0 49.6731 0 32C0 14.3269 14.3269 0 32 0C49.6731 0 64 14.3269 64 32ZM32 18.4C30.0118 18.4 28.4 20.0118 28.4 22C28.4 23.3255 27.3255 24.4 26 24.4C24.6745 24.4 23.6 23.3255 23.6 22C23.6 17.3608 27.3608 13.6 32 13.6C36.6392 13.6 40.4 17.3608 40.4 22C40.4 24.2747 39.4927 26.3423 38.0255 27.8527C37.7302 28.1566 37.4486 28.438 37.1799 28.7064C36.4893 29.3965 35.8842 30.0011 35.3533 30.6832C34.6524 31.5838 34.4 32.2456 34.4 32.8V35.2C34.4 36.5255 33.3255 37.6 32 37.6C30.6745 37.6 29.6 36.5255 29.6 35.2V32.8C29.6 30.7034 30.576 29.0062 31.5653 27.7351C32.2973 26.7945 33.2174 25.8763 33.9641 25.1311C34.1893 24.9063 34.3988 24.6972 34.5826 24.5081C35.2147 23.8574 35.6 22.9761 35.6 22C35.6 20.0118 33.9882 18.4 32 18.4ZM32 48C33.7673 48 35.2 46.5673 35.2 44.8C35.2 43.0327 33.7673 41.6 32 41.6C30.2327 41.6 28.8 43.0327 28.8 44.8C28.8 46.5673 30.2327 48 32 48Z" fill="#B75400"/>
</svg>
