<svg width="40" height="32" viewBox="0 0 40 32" fill="none" xmlns="http://www.w3.org/2000/svg">
<path d="M15.5 16C15.5 13.5147 17.5147 11.5 20 11.5C22.4853 11.5 24.5 13.5147 24.5 16C24.5 18.4853 22.4853 20.5 20 20.5C17.5147 20.5 15.5 18.4853 15.5 16Z" fill="#222222" fill-opacity="0.4"/>
<path fill-rule="evenodd" clip-rule="evenodd" d="M0 16C0 19.2788 0.849929 20.3829 2.54979 22.5913C5.94393 27.0009 11.6362 32 20 32C28.3638 32 34.0561 27.0009 37.4502 22.5913C39.1501 20.3829 40 19.2788 40 16C40 12.7212 39.1501 11.6171 37.4502 9.40866C34.0561 4.99912 28.3638 0 20 0C11.6362 0 5.94393 4.99912 2.54979 9.40866C0.849928 11.6171 0 12.7212 0 16ZM20 8.5C15.8579 8.5 12.5 11.8579 12.5 16C12.5 20.1421 15.8579 23.5 20 23.5C24.1421 23.5 27.5 20.1421 27.5 16C27.5 11.8579 24.1421 8.5 20 8.5Z" fill="#222222" fill-opacity="0.4"/>
</svg>
