<svg width="58" height="52" viewBox="0 0 58 52" fill="none" xmlns="http://www.w3.org/2000/svg">
<g opacity="0.7">
<path d="M29.412 2.14465L51.1092 10.8234C51.9529 11.161 52.628 12.1735 52.628 13.0655V21.0693C52.628 22.3952 51.5431 23.4801 50.2172 23.4801H6.8229C5.49697 23.4801 4.41211 22.3952 4.41211 21.0693V13.0655C4.41211 12.1735 5.08714 11.161 5.93092 10.8234L27.6281 2.14465C28.1102 1.95178 28.9299 1.95178 29.412 2.14465Z" stroke="#222222" stroke-width="4" stroke-miterlimit="10" stroke-linecap="round" stroke-linejoin="round"/>
<path d="M52.628 50.0006H4.41211V42.7682C4.41211 41.4423 5.49697 40.3574 6.8229 40.3574H50.2172C51.5431 40.3574 52.628 41.4423 52.628 42.7682V50.0006Z" stroke="#222222" stroke-width="4" stroke-miterlimit="10" stroke-linecap="round" stroke-linejoin="round"/>
<path d="M9.23242 40.356V23.4805" stroke="#222222" stroke-width="4" stroke-miterlimit="10" stroke-linecap="round" stroke-linejoin="round"/>
<path d="M18.875 40.356V23.4805" stroke="#222222" stroke-width="4" stroke-miterlimit="10" stroke-linecap="round" stroke-linejoin="round"/>
<path d="M28.5195 40.356V23.4805" stroke="#222222" stroke-width="4" stroke-miterlimit="10" stroke-linecap="round" stroke-linejoin="round"/>
<path d="M38.1602 40.356V23.4805" stroke="#222222" stroke-width="4" stroke-miterlimit="10" stroke-linecap="round" stroke-linejoin="round"/>
<path d="M47.8047 40.356V23.4805" stroke="#222222" stroke-width="4" stroke-miterlimit="10" stroke-linecap="round" stroke-linejoin="round"/>
<path d="M2 50H55.0374" stroke="#222222" stroke-width="4" stroke-miterlimit="10" stroke-linecap="round" stroke-linejoin="round"/>
<path d="M28.5185 17.455C30.5157 17.455 32.1347 15.836 32.1347 13.8388C32.1347 11.8417 30.5157 10.2227 28.5185 10.2227C26.5214 10.2227 24.9023 11.8417 24.9023 13.8388C24.9023 15.836 26.5214 17.455 28.5185 17.455Z" stroke="#222222" stroke-width="4" stroke-miterlimit="10" stroke-linecap="round" stroke-linejoin="round"/>
</g>
</svg>
