<svg width="62" height="62" viewBox="0 0 62 62" fill="none" xmlns="http://www.w3.org/2000/svg">
<path d="M23.0289 12.5435C26.5755 6.18115 28.3488 3 31 3C33.6512 3 35.4245 6.18115 38.9711 12.5434L39.8887 14.1895C40.8965 15.9974 41.4005 16.9014 42.1862 17.4979C42.9719 18.0943 43.9504 18.3157 45.9075 18.7585L47.6893 19.1617C54.5764 20.72 58.02 21.4991 58.8392 24.1336C59.6585 26.7682 57.3109 29.5134 52.6157 35.0038L51.401 36.4242C50.0668 37.9844 49.3997 38.7645 49.0996 39.7296C48.7995 40.6947 48.9003 41.7355 49.102 43.8172L49.2857 45.7123C49.9955 53.0377 50.3505 56.7004 48.2056 58.3286C46.0607 59.9569 42.8365 58.4723 36.3881 55.5033L34.7198 54.7351C32.8874 53.8914 31.9712 53.4696 31 53.4696C30.0288 53.4696 29.1126 53.8914 27.2802 54.7351L25.6119 55.5033C19.1635 58.4723 15.9393 59.9569 13.7944 58.3286C11.6495 56.7004 12.0045 53.0377 12.7143 45.7123L12.898 43.8172C13.0997 41.7355 13.2005 40.6947 12.9004 39.7296C12.6003 38.7645 11.9332 37.9844 10.599 36.4242L9.38427 35.0038C4.6891 29.5134 2.34151 26.7682 3.16078 24.1336C3.98005 21.4991 7.4236 20.72 14.3107 19.1617L16.0925 18.7585C18.0496 18.3157 19.0281 18.0943 19.8138 17.4979C20.5996 16.9014 21.1035 15.9974 22.1113 14.1895L23.0289 12.5435Z" stroke="white" stroke-width="5"/>
</svg>
