<svg width="70" height="57" viewBox="0 0 70 57" fill="none" xmlns="http://www.w3.org/2000/svg">
<path d="M41.4118 3H28.5882C16.4979 3 10.4528 3 6.69679 6.74903C3.88516 9.55547 3.17825 13.6423 3.00052 20.5822C2.97773 21.472 3.70786 22.183 4.57043 22.4085C7.32237 23.1282 9.35266 25.6274 9.35266 28.6C9.35266 31.5726 7.32237 34.0718 4.57043 34.7915C3.70786 35.017 2.97773 35.7281 3.00052 36.6178C3.17825 43.5577 3.88516 47.6445 6.69679 50.451C10.4528 54.2 16.4979 54.2 28.5882 54.2H41.4118C53.5021 54.2 59.5472 54.2 63.3032 50.451C66.1148 47.6445 66.8217 43.5577 66.9995 36.6178C67.0223 35.7281 66.2921 35.017 65.4296 34.7915C62.6776 34.0718 60.6473 31.5726 60.6473 28.6C60.6473 25.6274 62.6776 23.1282 65.4296 22.4085C66.2921 22.183 67.0223 21.472 66.9995 20.5822C66.8217 13.6423 66.1148 9.55547 63.3032 6.74903C59.5472 3 53.5021 3 41.4118 3Z" stroke="white" stroke-width="5"/>
<path d="M32.2669 22.272C33.4829 20.0907 34.0909 19 34.9999 19C35.9089 19 36.5169 20.0907 37.7329 22.272L38.0475 22.8364C38.393 23.4563 38.5658 23.7662 38.8352 23.9707C39.1045 24.1752 39.44 24.2511 40.111 24.4029L40.7219 24.5411C43.0832 25.0754 44.2639 25.3425 44.5448 26.2458C44.8257 27.1491 44.0208 28.0903 42.411 29.9727L41.9945 30.4597C41.5371 30.9947 41.3084 31.2621 41.2055 31.593C41.1026 31.9239 41.1372 32.2807 41.2063 32.9945L41.2693 33.6442C41.5127 36.1558 41.6343 37.4116 40.899 37.9698C40.1636 38.5281 39.0581 38.0191 36.8473 37.0011L36.2753 36.7378C35.647 36.4485 35.3329 36.3039 34.9999 36.3039C34.6669 36.3039 34.3528 36.4485 33.7245 36.7378L33.1525 37.0011C30.9417 38.0191 29.8362 38.5281 29.1008 37.9698C28.3655 37.4116 28.4871 36.1558 28.7305 33.6442L28.7935 32.9945C28.8626 32.2807 28.8972 31.9239 28.7943 31.593C28.6914 31.2621 28.4627 30.9947 28.0053 30.4597L27.5888 29.9727C25.979 28.0903 25.1741 27.1491 25.455 26.2458C25.7359 25.3425 26.9166 25.0754 29.2779 24.5411L29.8888 24.4029C30.5598 24.2511 30.8953 24.1752 31.1646 23.9707C31.434 23.7662 31.6068 23.4563 31.9524 22.8364L32.2669 22.272Z" stroke="white" stroke-width="5"/>
</svg>
