<svg width="59" height="62" viewBox="0 0 59 62" fill="none" xmlns="http://www.w3.org/2000/svg">
<circle cx="29.399" cy="30.9996" r="8.4" stroke="white" stroke-width="5"/>
<path d="M34.342 3.42627C33.3129 3 32.0083 3 29.399 3C26.7897 3 25.4851 3 24.456 3.42627C23.0838 3.99464 21.9936 5.08482 21.4253 6.45697C21.1658 7.08335 21.0643 7.8118 21.0245 8.87438C20.9661 10.4359 20.1653 11.8813 18.8121 12.6626C17.4588 13.4439 15.8067 13.4147 14.4252 12.6845C13.4851 12.1876 12.8034 11.9113 12.1312 11.8228C10.6587 11.629 9.16953 12.028 7.99123 12.9322C7.10751 13.6103 6.45519 14.7401 5.15055 16.9998C3.84592 19.2595 3.1936 20.3894 3.0482 21.4937C2.85435 22.9662 3.25338 24.4554 4.15752 25.6337C4.5702 26.1716 5.15019 26.6237 6.05034 27.1893C7.37366 28.0208 8.22512 29.4372 8.22503 31.0001C8.22495 32.5628 7.37352 33.979 6.05034 34.8104C5.15003 35.376 4.56997 35.8282 4.15724 36.3661C3.2531 37.5444 2.85407 39.0336 3.04793 40.5061C3.19332 41.6105 3.84564 42.7403 5.15028 45C6.45492 47.2597 7.10723 48.3895 7.99096 49.0676C9.16926 49.9718 10.6585 50.3708 12.131 50.177C12.8031 50.0885 13.4847 49.8122 14.4247 49.3154C15.8063 48.5851 17.4586 48.556 18.8119 49.3373C20.1653 50.1187 20.9661 51.5641 21.0245 53.1258C21.0643 54.1883 21.1658 54.9167 21.4253 55.543C21.9936 56.9152 23.0838 58.0054 24.456 58.5737C25.4851 59 26.7897 59 29.399 59C32.0083 59 33.3129 59 34.342 58.5737C35.7142 58.0054 36.8044 56.9152 37.3727 55.543C37.6322 54.9166 37.7337 54.1882 37.7734 53.1255C37.8318 51.564 38.6326 50.1187 39.9858 49.3373C41.3391 48.5558 42.9914 48.585 44.3731 49.3152C45.313 49.812 45.9946 50.0883 46.6667 50.1768C48.1392 50.3706 49.6285 49.9716 50.8067 49.0675C51.6905 48.3894 52.3428 47.2595 53.6474 44.9998C54.9521 42.7401 55.6044 41.6103 55.7498 40.5059C55.9436 39.0334 55.5446 37.5442 54.6405 36.3659C54.2278 35.828 53.6477 35.3759 52.7475 34.8102C51.4243 33.9788 50.5729 32.5625 50.573 30.9997C50.573 29.4372 51.4244 28.021 52.7475 27.1897C53.6479 26.624 54.228 26.1718 54.6407 25.6339C55.5449 24.4556 55.9439 22.9664 55.7501 21.4939C55.6047 20.3895 54.9523 19.2597 53.6477 17C52.3431 14.7403 51.6907 13.6105 50.807 12.9324C49.6287 12.0282 48.1395 11.6292 46.667 11.823C45.9949 11.9115 45.3133 12.1878 44.3732 12.6846C42.9916 13.4149 41.3394 13.4441 39.986 12.6627C38.6327 11.8813 37.8318 10.4358 37.7734 8.87423C37.7337 7.81174 37.6322 7.08332 37.3727 6.45697C36.8044 5.08482 35.7142 3.99464 34.342 3.42627Z" stroke="white" stroke-width="5"/>
</svg>
