<svg width="71" height="78" viewBox="0 0 71 78" fill="none" xmlns="http://www.w3.org/2000/svg">
<path d="M52.5179 3H18.2821C14.1101 3 12.0241 3 10.3418 3.58538C7.15159 4.69544 4.64693 7.27388 3.56863 10.5581C3 12.29 3 14.4374 3 18.7322V69.1471C3 72.2367 6.54599 73.876 8.78915 71.8234C10.107 70.6174 12.093 70.6174 13.4109 71.8234L15.15 73.4148C17.4597 75.5284 20.9403 75.5284 23.25 73.4148C25.5597 71.3013 29.0403 71.3013 31.35 73.4148C33.6597 75.5284 37.1403 75.5284 39.45 73.4148C41.7597 71.3013 45.2403 71.3013 47.55 73.4148C49.8597 75.5284 53.3403 75.5284 55.65 73.4148L57.3891 71.8234C58.707 70.6174 60.693 70.6174 62.0109 71.8234C64.254 73.876 67.8 72.2368 67.8 69.1471V18.7322C67.8 14.4374 67.8 12.29 67.2314 10.5581C66.1531 7.27388 63.6484 4.69544 60.4582 3.58538C58.7759 3 56.6899 3 52.5179 3Z" stroke="#A0A0A0" stroke-width="5"/>
<path d="M30 35.4004L53.4 35.4004" stroke="#A0A0A0" stroke-width="5" stroke-linecap="round"/>
<path d="M17.3999 35.4004H19.1999" stroke="#A0A0A0" stroke-width="5" stroke-linecap="round"/>
<path d="M17.3999 22.7998H19.1999" stroke="#A0A0A0" stroke-width="5" stroke-linecap="round"/>
<path d="M17.3999 48H19.1999" stroke="#A0A0A0" stroke-width="5" stroke-linecap="round"/>
<path d="M30 22.7998H53.4" stroke="#A0A0A0" stroke-width="5" stroke-linecap="round"/>
<path d="M30 48H53.4" stroke="#A0A0A0" stroke-width="5" stroke-linecap="round"/>
</svg>
