<svg width="73" height="78" viewBox="0 0 73 78" fill="none" xmlns="http://www.w3.org/2000/svg">
<path d="M5.98242 35.4004V46.2005C5.98242 59.777 5.98242 66.5653 10.2001 70.783C14.4178 75.0007 21.2061 75.0007 34.7827 75.0007H38.3827C51.9592 75.0007 58.7475 75.0007 62.9652 70.783C67.1829 66.5653 67.1829 59.777 67.1829 46.2005V35.4004" stroke="#A0A0A0" stroke-width="5"/>
<path d="M27.5817 3H45.5819L47.9281 26.4627C48.5994 33.1755 43.328 39.0003 36.5818 39.0003C29.8356 39.0003 24.5642 33.1755 25.2354 26.4627L27.5817 3Z" stroke="#A0A0A0" stroke-width="5"/>
<path d="M5.37014 15.0649C6.01123 11.8594 6.33177 10.2567 6.98352 8.95746C8.35683 6.21984 10.8279 4.19404 13.7817 3.38429C15.1835 3 16.818 3 20.0869 3H27.5833L24.975 29.0832C24.412 34.713 19.6746 39.0003 14.0167 39.0003C7.067 39.0003 1.85466 32.6423 3.21761 25.8275L5.37014 15.0649Z" stroke="#A0A0A0" stroke-width="5"/>
<path d="M67.7971 15.0649C67.156 11.8594 66.8355 10.2567 66.1837 8.95746C64.8104 6.21984 62.3393 4.19404 59.3856 3.38429C57.9837 3 56.3493 3 53.0804 3H45.584L48.1923 29.0832C48.7553 34.713 53.4927 39.0003 59.1506 39.0003C66.1003 39.0003 71.3126 32.6423 69.9497 25.8275L67.7971 15.0649Z" stroke="#A0A0A0" stroke-width="5"/>
<path d="M27.584 73.2006V62.4005C27.584 59.0358 27.584 57.3535 28.3075 56.1004C28.7814 55.2795 29.4631 54.5978 30.284 54.1239C31.5371 53.4004 33.2194 53.4004 36.5841 53.4004C39.9487 53.4004 41.631 53.4004 42.8841 54.1239C43.705 54.5978 44.3867 55.2795 44.8607 56.1004C45.5841 57.3535 45.5841 59.0358 45.5841 62.4005V73.2006" stroke="#A0A0A0" stroke-width="5" stroke-linecap="round"/>
</svg>
