<svg width="74" height="78" viewBox="0 0 74 78" fill="none" xmlns="http://www.w3.org/2000/svg">
<path d="M5.95609 52.1531C7.99167 62.331 9.00947 67.42 12.3725 70.6976C12.9941 71.3034 13.6665 71.8547 14.3825 72.3454C18.256 75.0003 23.4457 75.0003 33.8252 75.0003H40.2785C50.658 75.0003 55.8477 75.0003 59.7212 72.3454C60.4372 71.8547 61.1096 71.3034 61.7312 70.6976C65.0942 67.42 66.112 62.331 68.1476 52.1531C71.0701 37.5409 72.5313 30.2347 69.1675 25.0576C68.5584 24.1202 67.8476 23.253 67.0478 22.472C62.6309 18.1582 55.1801 18.1582 40.2785 18.1582H33.8252C18.9236 18.1582 11.4728 18.1582 7.05589 22.472C6.25614 23.253 5.54525 24.1202 4.93619 25.0576C1.57242 30.2347 3.03364 37.5409 5.95609 52.1531Z" stroke="#A0A0A0" stroke-width="5"/>
<circle cx="48.4198" cy="33.3158" r="3.78947" fill="#A0A0A0"/>
<circle cx="25.683" cy="33.3158" r="3.78947" fill="#A0A0A0"/>
<path d="M25.6831 18.1579V14.3684C25.6831 8.08982 30.7729 3 37.0515 3C43.3301 3 48.4199 8.08982 48.4199 14.3684V18.1579" stroke="#A0A0A0" stroke-width="5" stroke-linecap="round"/>
</svg>
