<svg width="78" height="78" viewBox="0 0 78 78" fill="none" xmlns="http://www.w3.org/2000/svg">
<path d="M30.3327 7.32098C32.5354 5.44378 33.6368 4.50518 34.7884 3.95478C37.4518 2.68174 40.5482 2.68174 43.2116 3.95478C44.3632 4.50518 45.4646 5.44378 47.6673 7.32098C48.5441 8.06811 48.9824 8.44167 49.4506 8.75546C50.5238 9.47475 51.729 9.97397 52.9964 10.2242C53.5494 10.3334 54.1235 10.3792 55.2717 10.4708C58.1567 10.701 59.5992 10.8161 60.8027 11.2412C63.5862 12.2244 65.7756 14.4138 66.7588 17.1973C67.1839 18.4008 67.299 19.8433 67.5292 22.7283C67.6208 23.8765 67.6666 24.4506 67.7758 25.0036C68.026 26.271 68.5252 27.4762 69.2445 28.5494C69.5583 29.0176 69.9319 29.4559 70.679 30.3327C72.5562 32.5354 73.4948 33.6368 74.0452 34.7884C75.3183 37.4518 75.3183 40.5482 74.0452 43.2116C73.4948 44.3632 72.5562 45.4646 70.679 47.6673C69.9319 48.5441 69.5583 48.9824 69.2445 49.4506C68.5252 50.5238 68.026 51.729 67.7758 52.9964C67.6666 53.5494 67.6208 54.1235 67.5292 55.2717C67.299 58.1567 67.1839 59.5992 66.7588 60.8027C65.7756 63.5862 63.5862 65.7756 60.8027 66.7588C59.5992 67.1839 58.1567 67.299 55.2717 67.5292C54.1235 67.6208 53.5494 67.6666 52.9964 67.7758C51.729 68.026 50.5238 68.5252 49.4506 69.2445C48.9824 69.5583 48.5441 69.9319 47.6673 70.679C45.4646 72.5562 44.3632 73.4948 43.2116 74.0452C40.5482 75.3183 37.4518 75.3183 34.7884 74.0452C33.6368 73.4948 32.5354 72.5562 30.3327 70.679C29.4559 69.9319 29.0176 69.5583 28.5494 69.2445C27.4762 68.5252 26.271 68.026 25.0036 67.7758C24.4506 67.6666 23.8765 67.6208 22.7283 67.5292C19.8433 67.299 18.4008 67.1839 17.1973 66.7588C14.4138 65.7756 12.2244 63.5862 11.2412 60.8027C10.8161 59.5992 10.701 58.1567 10.4708 55.2717C10.3792 54.1235 10.3334 53.5494 10.2242 52.9964C9.97397 51.729 9.47475 50.5238 8.75546 49.4506C8.44167 48.9824 8.06811 48.5441 7.32098 47.6673C5.44378 45.4646 4.50518 44.3632 3.95478 43.2116C2.68174 40.5482 2.68174 37.4518 3.95478 34.7884C4.50518 33.6368 5.44378 32.5354 7.32098 30.3327C8.06811 29.4559 8.44167 29.0176 8.75546 28.5494C9.47475 27.4762 9.97397 26.271 10.2242 25.0036C10.3334 24.4506 10.3792 23.8765 10.4708 22.7283C10.701 19.8433 10.8161 18.4008 11.2412 17.1973C12.2244 14.4138 14.4138 12.2244 17.1973 11.2412C18.4008 10.8161 19.8433 10.701 22.7283 10.4708C23.8765 10.3792 24.4506 10.3334 25.0036 10.2242C26.271 9.97397 27.4762 9.47475 28.5494 8.75546C29.0176 8.44167 29.4559 8.06811 30.3327 7.32098Z" stroke="#A0A0A0" stroke-width="5"/>
<path d="M27.2803 50.7214L50.7194 27.2822" stroke="#A0A0A0" stroke-width="5" stroke-linecap="round"/>
<path d="M52.6729 48.7679C52.6729 50.9254 50.9239 52.6744 48.7664 52.6744C46.6089 52.6744 44.8599 50.9254 44.8599 48.7679C44.8599 46.6103 46.6089 44.8613 48.7664 44.8613C50.9239 44.8613 52.6729 46.6103 52.6729 48.7679Z" fill="#A0A0A0"/>
<path d="M33.1402 29.2356C33.1402 31.3931 31.3912 33.1422 29.2337 33.1422C27.0762 33.1422 25.3271 31.3931 25.3271 29.2356C25.3271 27.0781 27.0762 25.3291 29.2337 25.3291C31.3912 25.3291 33.1402 27.0781 33.1402 29.2356Z" fill="#A0A0A0"/>
</svg>
