<svg width="65" height="72" viewBox="0 0 65 72" fill="none" xmlns="http://www.w3.org/2000/svg">
<path fill-rule="evenodd" clip-rule="evenodd" d="M15.2821 0H49.5179C53.6899 0 55.7759 0 57.4582 0.585385C60.6484 1.69544 63.1531 4.27388 64.2314 7.55806C64.8 9.28997 64.8 11.4374 64.8 15.7322V66.1471C64.8 69.2367 61.254 70.876 59.0109 68.8234C57.693 67.6174 55.707 67.6174 54.3891 68.8234L52.65 70.4148C50.3403 72.5284 46.8597 72.5284 44.55 70.4148C42.2403 68.3013 38.7597 68.3013 36.45 70.4148C34.1403 72.5284 30.6597 72.5284 28.35 70.4148C26.0403 68.3013 22.5597 68.3013 20.25 70.4148C17.9403 72.5284 14.4597 72.5284 12.15 70.4148L10.4109 68.8234C9.09298 67.6174 7.10702 67.6174 5.78915 68.8234C3.54599 70.876 0 69.2367 0 66.1471V15.7322C0 11.4374 0 9.28997 0.568635 7.55806C1.64693 4.27388 4.15159 1.69544 7.3418 0.585385C9.02415 0 11.1101 0 15.2821 0ZM14.4 17.1C12.9088 17.1 11.7 18.3088 11.7 19.8C11.7 21.2912 12.9088 22.5 14.4 22.5H16.2C17.6912 22.5 18.9 21.2912 18.9 19.8C18.9 18.3088 17.6912 17.1 16.2 17.1H14.4ZM27 17.1C25.5088 17.1 24.3 18.3088 24.3 19.8C24.3 21.2912 25.5088 22.5 27 22.5H50.4C51.8912 22.5 53.1 21.2912 53.1 19.8C53.1 18.3088 51.8912 17.1 50.4 17.1H27ZM14.4 29.7C12.9088 29.7 11.7 30.9088 11.7 32.4C11.7 33.8912 12.9088 35.1 14.4 35.1H16.2C17.6912 35.1 18.9 33.8912 18.9 32.4C18.9 30.9088 17.6912 29.7 16.2 29.7H14.4ZM27 29.7C25.5088 29.7 24.3 30.9088 24.3 32.4C24.3 33.8912 25.5088 35.1 27 35.1H50.4C51.8912 35.1 53.1 33.8912 53.1 32.4C53.1 30.9088 51.8912 29.7 50.4 29.7H27ZM14.4 42.3C12.9088 42.3 11.7 43.5088 11.7 45C11.7 46.4912 12.9088 47.7 14.4 47.7H16.2C17.6912 47.7 18.9 46.4912 18.9 45C18.9 43.5088 17.6912 42.3 16.2 42.3H14.4ZM27 42.3C25.5088 42.3 24.3 43.5088 24.3 45C24.3 46.4912 25.5088 47.7 27 47.7H50.4C51.8912 47.7 53.1 46.4912 53.1 45C53.1 43.5088 51.8912 42.3 50.4 42.3H27Z" fill="#B75400"/>
</svg>
