<svg width="70" height="74" viewBox="0 0 70 74" fill="none" xmlns="http://www.w3.org/2000/svg">
<path d="M4.09598 6.12564C3.42583 7.46156 3.09624 9.10953 2.43705 12.4055L0.223749 23.472C-1.17767 30.4791 4.18182 37.0166 11.3277 37.0166C17.1453 37.0166 22.0164 32.6083 22.5953 26.8195L22.8508 24.2649C22.2471 31.108 27.6408 37.0166 34.5306 37.0166C41.4673 37.0166 46.8875 31.0273 46.1972 24.1251L46.4674 26.8195C47.0463 32.6083 51.9174 37.0166 57.7351 37.0166C64.8809 37.0166 70.2404 30.4791 68.839 23.472L66.6257 12.4055C65.9665 9.10959 65.6369 7.46154 64.9668 6.12564C63.5547 3.31074 61.0139 1.22775 57.9767 0.395142C56.5353 0 54.8547 0 51.4935 0H43.7847H17.5693C14.2081 0 12.5275 0 11.0861 0.395142C8.04889 1.22775 5.50806 3.31074 4.09598 6.12564Z" fill="#B75400"/>
<path d="M57.7343 42.568C60.7591 42.568 63.5692 41.782 65.9946 40.4172V44.4189C65.9946 58.3787 65.9946 65.3586 61.6578 69.6954C58.1669 73.1863 52.9632 73.8672 43.7846 74V61.0764C43.7846 57.6168 43.7846 55.887 43.0408 54.5985C42.5534 53.7544 41.8525 53.0535 41.0084 52.5662C39.7199 51.8223 37.9901 51.8223 34.5305 51.8223C31.0709 51.8223 29.3411 51.8223 28.0526 52.5662C27.2085 53.0535 26.5076 53.7544 26.0202 54.5985C25.2764 55.887 25.2764 57.6168 25.2764 61.0764V74C16.0978 73.8672 10.8941 73.1863 7.40317 69.6954C3.06641 65.3586 3.06641 58.3787 3.06641 44.4189V40.4171C5.49187 41.7819 8.302 42.568 11.3269 42.568C15.7581 42.568 19.8207 40.8519 22.8493 38.0222C25.9119 40.836 30.0015 42.568 34.5298 42.568C39.0584 42.568 43.1484 40.8356 46.2111 38.0215C49.2398 40.8516 53.3028 42.568 57.7343 42.568Z" fill="#B75400"/>
</svg>
