<svg width="72" height="72" viewBox="0 0 72 72" fill="none" xmlns="http://www.w3.org/2000/svg">
<path fill-rule="evenodd" clip-rule="evenodd" d="M27.3327 4.32098C26.456 5.06809 26.0176 5.44168 25.5494 5.75546C24.4762 6.47475 23.271 6.97397 22.0036 7.2242C21.4506 7.33336 20.8765 7.37918 19.7283 7.47081C16.8433 7.70103 15.4008 7.81614 14.1973 8.24122C11.4138 9.22439 9.22439 11.4138 8.24122 14.1973C7.81614 15.4008 7.70103 16.8433 7.47081 19.7283C7.37918 20.8765 7.33336 21.4506 7.2242 22.0036C6.97397 23.271 6.47475 24.4762 5.75546 25.5494C5.44167 26.0176 5.06811 26.4559 4.32098 27.3327C2.4438 29.5354 1.50518 30.6368 0.954776 31.7884C-0.318259 34.4518 -0.318259 37.5482 0.954776 40.2116C1.50518 41.3632 2.44378 42.4646 4.32098 44.6673C5.06802 45.544 5.44169 45.9824 5.75546 46.4506C6.47475 47.5238 6.97397 48.729 7.2242 49.9964C7.33336 50.5494 7.37918 51.1235 7.47081 52.2717C7.70103 55.1567 7.81614 56.5992 8.24122 57.8027C9.22439 60.5862 11.4138 62.7756 14.1973 63.7588C15.4008 64.1839 16.8433 64.299 19.7283 64.5292C20.8765 64.6208 21.4506 64.6666 22.0036 64.7758C23.271 65.026 24.4762 65.5252 25.5494 66.2445C26.0176 66.5583 26.4559 66.9319 27.3327 67.679C29.5354 69.5562 30.6368 70.4948 31.7884 71.0452C34.4518 72.3183 37.5482 72.3183 40.2116 71.0452C41.3632 70.4948 42.4646 69.5562 44.6673 67.679C45.5441 66.9319 45.9824 66.5583 46.4506 66.2445C47.5238 65.5252 48.729 65.026 49.9964 64.7758C50.5494 64.6666 51.1235 64.6208 52.2717 64.5292C55.1567 64.299 56.5992 64.1839 57.8027 63.7588C60.5862 62.7756 62.7756 60.5862 63.7588 57.8027C64.1839 56.5992 64.299 55.1567 64.5292 52.2717C64.6208 51.1235 64.6666 50.5494 64.7758 49.9964C65.026 48.729 65.5252 47.5238 66.2445 46.4506C66.5583 45.9824 66.9319 45.5441 67.679 44.6673C69.5562 42.4646 70.4948 41.3632 71.0452 40.2116C72.3183 37.5482 72.3183 34.4518 71.0452 31.7884C70.4948 30.6368 69.5562 29.5354 67.679 27.3327C66.9319 26.4559 66.5583 26.0176 66.2445 25.5494C65.5252 24.4762 65.026 23.271 64.7758 22.0036C64.6666 21.4506 64.6208 20.8765 64.5292 19.7283C64.299 16.8433 64.1839 15.4008 63.7588 14.1973C62.7756 11.4138 60.5862 9.22439 57.8027 8.24122C56.5992 7.81614 55.1567 7.70103 52.2717 7.47081C51.1235 7.37918 50.5494 7.33336 49.9964 7.2242C48.729 6.97397 47.5238 6.47475 46.4506 5.75546C45.9824 5.44167 45.5441 5.06811 44.6673 4.32098C42.4646 2.44378 41.3632 1.50518 40.2116 0.954776C37.5482 -0.318259 34.4518 -0.318259 31.7884 0.954776C30.6368 1.50518 29.5354 2.4438 27.3327 4.32098ZM49.7913 22.2105C50.9355 23.3547 50.9355 25.2098 49.7913 26.354L26.3521 49.7932C25.2079 50.9374 23.3528 50.9374 22.2086 49.7932C21.0644 48.649 21.0644 46.7939 22.2086 45.6497L45.6478 22.2105C46.792 21.0663 48.6471 21.0663 49.7913 22.2105ZM49.6728 45.7682C49.6728 47.9257 47.9238 49.6747 45.7663 49.6747C43.6088 49.6747 41.8597 47.9257 41.8597 45.7682C41.8597 43.6107 43.6088 41.8617 45.7663 41.8617C47.9238 41.8617 49.6728 43.6107 49.6728 45.7682ZM26.2336 30.1421C28.3911 30.1421 30.1402 28.3931 30.1402 26.2355C30.1402 24.078 28.3911 22.329 26.2336 22.329C24.0761 22.329 22.3271 24.078 22.3271 26.2355C22.3271 28.3931 24.0761 30.1421 26.2336 30.1421Z" fill="#B75400"/>
</svg>
