<svg width="152" height="152" viewBox="0 0 152 152" fill="none" xmlns="http://www.w3.org/2000/svg">
<circle cx="76" cy="76" r="76" fill="#E2F5E7"/>
<path d="M40 70.3999C40 59.8405 40 54.5608 43.2804 51.2804C46.5608 48 51.8405 48 62.3999 48H81.0665C91.6259 48 96.9057 48 100.186 51.2804C103.466 54.5608 103.466 59.8405 103.466 70.3999C103.466 80.9593 103.466 86.2391 100.186 89.5195C96.9057 92.7998 91.6259 92.7998 81.0665 92.7998H62.3999C51.8405 92.7998 46.5608 92.7998 43.2804 89.5195C40 86.2391 40 80.9593 40 70.3999Z" stroke="#0FA83A" stroke-width="5"/>
<path d="M103.467 59.4844C107.107 59.8424 109.557 60.6517 111.386 62.4806C114.667 65.761 114.667 71.0407 114.667 81.6001C114.667 92.1595 114.667 97.4393 111.386 100.72C108.106 104 102.826 104 92.2667 104H73.6001C63.0407 104 57.761 104 54.4806 100.72C52.6517 98.8907 51.8424 96.4403 51.4844 92.7999" stroke="#0FA83A" stroke-width="5"/>
<path d="M81.065 70.3997C81.065 75.5543 76.8864 79.733 71.7317 79.733C66.5771 79.733 62.3984 75.5543 62.3984 70.3997C62.3984 65.2451 66.5771 61.0664 71.7317 61.0664C76.8864 61.0664 81.065 65.2451 81.065 70.3997Z" stroke="#0FA83A" stroke-width="5"/>
<path d="M92.2676 77.8672L92.2676 62.9339" stroke="#0FA83A" stroke-width="5" stroke-linecap="round"/>
<path d="M51.1992 77.8672L51.1992 62.9339" stroke="#0FA83A" stroke-width="5" stroke-linecap="round"/>
</svg>
