<svg width="152" height="152" viewBox="0 0 152 152" fill="none" xmlns="http://www.w3.org/2000/svg">
<circle cx="76" cy="76" r="76" fill="#EFF5FF"/>
<path d="M41 76C41 62.8007 41 56.201 45.1005 52.1005C49.201 48 55.8007 48 69 48H83C96.1993 48 102.799 48 106.899 52.1005C111 56.201 111 62.8007 111 76C111 89.1993 111 95.799 106.899 99.8995C102.799 104 96.1993 104 83 104H69C55.8007 104 49.201 104 45.1005 99.8995C41 95.799 41 89.1993 41 76Z" stroke="#3888FF" stroke-width="5"/>
<path d="M69 91.75H55" stroke="#3888FF" stroke-width="5" stroke-linecap="round"/>
<path d="M62 81.25H55" stroke="#3888FF" stroke-width="5" stroke-linecap="round"/>
<path d="M41 69L111 69" stroke="#3888FF" stroke-width="5" stroke-linecap="round"/>
<path d="M83 86.5C83 83.2002 83 81.5503 84.0251 80.5251C85.0503 79.5 86.7002 79.5 90 79.5C93.2998 79.5 94.9497 79.5 95.9749 80.5251C97 81.5503 97 83.2002 97 86.5C97 89.7998 97 91.4497 95.9749 92.4749C94.9497 93.5 93.2998 93.5 90 93.5C86.7002 93.5 85.0503 93.5 84.0251 92.4749C83 91.4497 83 89.7998 83 86.5Z" stroke="#3888FF" stroke-width="5"/>
</svg>
