<svg width="253" height="72" viewBox="0 0 253 72" fill="none" xmlns="http://www.w3.org/2000/svg">
<path d="M172.207 41.5819V58.9971H166.668V15.9922H181.329C185.061 15.9922 188.23 17.2361 190.836 19.724C193.472 22.2119 194.805 25.2329 194.805 28.787C194.805 32.43 193.472 35.4806 190.836 37.9093C188.259 40.3676 185.12 41.5819 181.329 41.5819H172.207ZM172.207 21.2938V36.3099H181.447C183.639 36.3099 185.475 35.5695 186.926 34.0886C188.407 32.6077 189.148 30.8307 189.148 28.787C189.148 26.773 188.407 25.0552 186.926 23.5743C185.475 22.0638 183.669 21.2938 181.447 21.2938H172.207Z" fill="#5F6368"/>
<path d="M209.258 28.6094C213.346 28.6094 216.574 29.7052 218.943 31.8969C221.313 34.0887 222.497 37.08 222.497 40.8711V59.0268H217.196V54.9395H216.959C214.678 58.3159 211.628 59.9745 207.837 59.9745C204.579 59.9745 201.884 59.0268 199.692 57.1016C197.5 55.1765 196.404 52.7774 196.404 49.9045C196.404 46.8539 197.559 44.4252 199.87 42.6482C202.18 40.8415 205.26 39.953 209.081 39.953C212.368 39.953 215.063 40.5453 217.196 41.7596V40.4861C217.196 38.5609 216.426 36.932 214.915 35.5992C213.405 34.2664 211.598 33.5852 209.555 33.5852C206.474 33.5852 204.016 34.8883 202.239 37.4947L197.382 34.4441C200.047 30.5345 204.016 28.6094 209.258 28.6094ZM202.121 49.9934C202.121 51.4446 202.742 52.6293 203.957 53.6067C205.171 54.5545 206.622 55.058 208.251 55.058C210.562 55.058 212.635 54.1991 214.471 52.4813C216.307 50.7634 217.196 48.7494 217.196 46.4096C215.478 45.0472 213.079 44.366 209.999 44.366C207.748 44.366 205.882 44.8991 204.371 45.995C202.861 47.0612 202.121 48.394 202.121 49.9934Z" fill="#5F6368"/>
<path d="M252.559 29.5859L234.108 71.9985H228.391L235.233 57.16L223.09 29.5859H229.102L237.869 50.733H237.988L246.517 29.5859H252.559Z" fill="#5F6368"/>
<path d="M132.813 40.1608V33.4968H155.086C155.323 34.6815 155.441 36.0735 155.441 37.5841C155.441 42.5598 154.079 48.7499 149.696 53.1334C145.431 57.576 139.951 59.975 132.725 59.975C119.308 59.975 108.023 49.0461 108.023 35.6293C108.023 22.2125 119.278 11.2539 132.695 11.2539C140.129 11.2539 145.401 14.1564 149.37 17.9771L144.69 22.6567C141.847 19.9911 137.967 17.9179 132.695 17.9179C122.892 17.9179 115.25 25.8258 115.25 35.6293C115.25 45.4327 122.892 53.3111 132.695 53.3111C139.063 53.3111 142.676 50.7639 144.986 48.4538C146.882 46.5582 148.126 43.863 148.6 40.1608H132.813Z" fill="#5F6368"/>
<path d="M44.0823 43.0331L64.7851 7.16602L76.0694 13.6819C83.3554 17.8876 85.8433 27.1876 81.6375 34.4735L69.9682 54.6728C67.3322 59.234 61.5271 60.7741 56.966 58.1677L46.5109 52.1257C43.3418 50.2598 42.246 46.2022 44.0823 43.0331Z" fill="url(#paint0_linear_455_3637)"/>
<path d="M41.8901 18.1242L16.1523 62.7285L27.4367 69.2444C34.7227 73.4501 44.0226 70.9622 48.2283 63.6763L64.9327 34.7398C67.5687 30.1786 65.999 24.3736 61.4378 21.7376L50.9532 15.6956C47.7841 13.8593 43.7264 14.9551 41.8901 18.1242Z" fill="#FDBD00"/>
<path d="M64.7862 7.16678L56.819 2.54641C47.7264 -2.69592 36.0866 0.413938 30.8147 9.50658L16.0058 35.1555C13.3698 39.7166 14.9396 45.5217 19.5007 48.1577L27.4679 52.7781C32.029 55.414 37.8341 53.8443 40.4701 49.2832L58.1518 18.6584C61.8244 12.2906 69.9397 10.1285 76.3075 13.8011" fill="#2DA94F"/>
<path d="M33.124 17.0295L24.3275 11.9649C20.3884 9.71397 15.383 11.0468 13.132 14.9563L2.52891 33.2008C-2.68381 42.175 0.42605 53.6667 9.42983 58.8794L16.1234 62.7297L24.2683 67.4093L27.7928 69.4529C21.5435 65.2472 19.5591 56.8654 23.3798 50.2606L26.1046 45.5514L36.1154 28.2547C38.396 24.2859 37.0335 19.2805 33.124 17.0295Z" fill="url(#paint1_linear_455_3637)"/>
<defs>
<linearGradient id="paint0_linear_455_3637" x1="49.2719" y1="28.4945" x2="79.9961" y2="39.6772" gradientUnits="userSpaceOnUse">
<stop offset="0.2" stop-color="#D93025"/>
<stop offset="0.6" stop-color="#EA4335"/>
</linearGradient>
<linearGradient id="paint1_linear_455_3637" x1="2.62848" y1="32.1139" x2="36.8554" y2="44.5715" gradientUnits="userSpaceOnUse">
<stop offset="0.2" stop-color="#4285F4"/>
<stop offset="0.8" stop-color="#1B74E8"/>
</linearGradient>
</defs>
</svg>
