<svg width="204" height="64" viewBox="0 0 204 64" fill="none" xmlns="http://www.w3.org/2000/svg">
<path d="M201.363 19.1248C200.44 16.4926 198.722 14.2122 196.446 12.5991C194.17 10.9859 191.45 10.1196 188.66 10.1201H188.54C184.722 10.1201 181.289 11.7049 178.839 14.2502C177.583 12.9412 176.075 11.9003 174.406 11.1904C172.736 10.4805 170.94 10.1164 169.126 10.1201H169.006C165.644 10.1201 162.583 11.3447 160.242 13.3738V12.3412C160.205 11.8412 159.981 11.3736 159.613 11.0327C159.245 10.6918 158.762 10.5029 158.261 10.5043H149.256C148.994 10.5043 148.735 10.5558 148.493 10.656C148.251 10.7561 148.032 10.903 147.847 11.088C147.662 11.2731 147.515 11.4928 147.415 11.7346C147.314 11.9764 147.263 12.2356 147.263 12.4973V61.3987C147.263 62.5033 148.151 63.3918 149.256 63.3918H158.261C158.739 63.3902 159.201 63.2155 159.561 62.8999C159.921 62.5843 160.154 62.1492 160.218 61.6749V26.5686L160.23 26.2084C160.296 25.4161 160.648 24.6747 161.22 24.1225C161.792 23.5703 162.545 23.2449 163.339 23.2069H164.996C165.85 23.2563 166.651 23.6337 167.233 24.2602C167.815 24.8867 168.132 25.7138 168.118 26.5686L168.154 61.5068C168.154 62.6114 169.042 63.4998 170.147 63.4998H179.152C180.208 63.4998 181.073 62.6594 181.121 61.6028V26.5206C181.104 25.6649 181.42 24.8362 182.002 24.209C182.584 23.5819 183.388 23.2054 184.242 23.1589H185.899C187.856 23.3269 189.021 24.8037 189.021 26.5206L189.057 61.4107C189.057 62.5153 189.957 63.4038 191.05 63.4038H200.054C200.316 63.4038 200.575 63.3522 200.817 63.2521C201.059 63.1519 201.279 63.0051 201.464 62.82C201.649 62.635 201.796 62.4152 201.896 62.1734C201.996 61.9316 202.047 61.6725 202.047 61.4107V23.8912C202.047 21.3339 201.759 20.2413 201.363 19.1248ZM140.407 10.6363H135.245V2.268C135.246 1.99958 135.188 1.73419 135.074 1.491C134.961 1.2478 134.795 1.03286 134.588 0.861706C134.381 0.690547 134.139 0.567437 133.879 0.501266C133.619 0.435094 133.347 0.427512 133.084 0.479066C127.381 2.05188 128.521 9.964 118.1 10.6363H117.091C116.946 10.6373 116.801 10.6534 116.659 10.6844H116.635C116.192 10.7827 115.797 11.029 115.513 11.3826C115.229 11.7362 115.074 12.176 115.074 12.6294V21.6341C115.074 22.7146 115.975 23.6151 117.079 23.6151H122.518L122.506 61.7949C122.506 62.8875 123.383 63.776 124.475 63.776H133.372C134.452 63.776 135.341 62.8875 135.341 61.8069V23.6271H140.383C140.912 23.6271 141.419 23.4171 141.793 23.0434C142.166 22.6696 142.376 22.1626 142.376 21.6341V12.6294C142.376 12.1049 142.17 11.6016 141.801 11.2285C141.433 10.8554 140.932 10.6427 140.407 10.6363Z" fill="#54C1F0"/>
<path d="M108.002 10.6367H98.9973C98.4708 10.6399 97.9669 10.8513 97.5958 11.2247C97.2246 11.5981 97.0163 12.1032 97.0163 12.6298V31.2394C97.0068 31.7936 96.78 32.3219 96.3848 32.7104C95.9895 33.0989 95.4574 33.3166 94.9032 33.3165H91.1332C90.5749 33.3165 90.0392 33.0955 89.6433 32.7018C89.2473 32.3082 89.0233 31.7738 89.0201 31.2154L88.9841 12.6298C88.9841 12.368 88.9326 12.1089 88.8324 11.8671C88.7322 11.6252 88.5854 11.4055 88.4004 11.2205C88.2153 11.0354 87.9956 10.8886 87.7538 10.7884C87.512 10.6883 87.2528 10.6367 86.9911 10.6367H77.9864C77.4599 10.6399 76.956 10.8513 76.5849 11.2247C76.2137 11.5981 76.0053 12.1032 76.0054 12.6298V33.0404C76.0054 40.7844 81.5282 46.3073 89.2843 46.3073C89.2843 46.3073 95.1073 46.3073 95.2874 46.3433C95.7931 46.4069 96.2585 46.6522 96.5968 47.0335C96.9351 47.4148 97.1233 47.9061 97.1262 48.4158C97.1292 48.9256 96.9467 49.419 96.6128 49.8042C96.2789 50.1893 95.8164 50.44 95.3114 50.5094L95.1553 50.5335L81.9845 50.5815C81.458 50.5847 80.9541 50.796 80.5829 51.1695C80.2118 51.5429 80.0034 52.048 80.0034 52.5745V61.5792C80.0034 62.6718 80.8919 63.5602 81.9845 63.5602H96.7161C104.472 63.5602 109.995 58.0374 109.995 50.2813V12.6298C109.995 12.1012 109.785 11.5942 109.411 11.2205C109.038 10.8467 108.531 10.6367 108.002 10.6367ZM20.8487 27.1333V32.6922C20.8487 33.2526 20.6261 33.7901 20.2298 34.1864C19.8335 34.5827 19.296 34.8053 18.7356 34.8053H13.0206V23.6755H18.7356C19.9002 23.6755 20.8487 24.612 20.8487 25.7766V27.1333ZM21.6411 10.6367H1.95087C1.43599 10.6399 0.9431 10.8458 0.57902 11.2099C0.21494 11.574 0.00900856 12.0669 0.00585938 12.5817V61.5192C0.00585938 62.5997 0.810278 63.4882 1.8188 63.5122H10.9916C11.5202 63.5122 12.0271 63.3022 12.4009 62.9285C12.7746 62.5547 12.9846 62.0478 12.9846 61.5192L13.0206 47.8321H21.6411C28.8448 47.8321 33.8635 42.8255 33.8635 35.5857V22.8951C33.8635 15.6553 28.8448 10.6367 21.6411 10.6367ZM58.2121 48.2763V49.681C58.2044 49.894 58.1639 50.1046 58.092 50.3053C57.9386 50.7107 57.6635 51.0586 57.3046 51.3015C56.9456 51.5444 56.5203 51.6703 56.087 51.662H52.3411C51.1644 51.662 50.216 50.7736 50.216 49.681V47.9761V41.973C50.216 40.8924 51.1764 40.004 52.3411 40.004H56.087C57.2636 40.004 58.2121 40.8924 58.2121 41.985V48.2763ZM56.7714 10.6847H44.2849C43.1803 10.6847 42.2798 11.5252 42.2798 12.5457V20.9981C42.2798 22.0787 43.2403 22.9791 44.4049 22.9791H56.2911C57.2396 23.1232 57.972 23.8196 58.092 24.8761V26.0407C57.972 27.0613 57.2516 27.8056 56.3511 27.8897H50.4561C42.616 27.8897 37.0331 33.1004 37.0331 40.4122V50.8816C37.0331 58.1454 41.8356 63.3201 49.6156 63.3201H65.9441C68.8736 63.3201 71.2509 61.0989 71.2509 58.3615V24.2038C71.2509 15.9195 66.9887 10.6847 56.7714 10.6847Z" fill="#233266"/>
</svg>
