<svg width="266" height="72" viewBox="0 0 266 72" fill="none" xmlns="http://www.w3.org/2000/svg">
<g clip-path="url(#clip0_455_3654)">
<path d="M182.041 56.5684V43.4968C182.041 40.2796 180.834 38.6709 177.818 38.6709C176.612 38.6709 175.204 38.8724 174.4 39.0728V58.1771C174.4 58.7804 173.796 59.3838 173.193 59.3838H168.567C167.964 59.3838 167.361 58.7804 167.361 58.1771V35.8556C167.361 35.0507 167.964 34.4484 168.567 34.2469C171.584 33.2417 174.6 32.6383 177.817 32.6383C185.057 32.6383 189.079 36.4589 189.079 43.4979V58.3785C189.079 58.9819 188.475 59.5853 187.872 59.5853H185.057C183.248 59.5842 182.041 58.1771 182.041 56.5684ZM200.14 48.7257L199.938 50.5358C199.938 52.9493 201.547 54.3564 204.161 54.3564C206.171 54.3564 207.982 53.7531 209.993 52.7478C210.195 52.7478 210.395 52.5463 210.596 52.5463C210.998 52.5463 211.2 52.7478 211.401 52.9482C211.603 53.1497 212.005 53.7531 212.005 53.7531C212.407 54.3564 212.81 55.1602 212.81 55.7636C212.81 56.7688 212.206 57.7741 211.402 58.1771C209.19 59.3838 206.576 59.9872 203.761 59.9872C200.544 59.9872 197.929 59.1823 195.918 57.5737C193.908 55.7636 192.701 53.3512 192.701 50.3343V42.4916C192.701 36.2575 196.723 32.4368 203.561 32.4368C210.197 32.4368 214.017 36.057 214.017 42.4916V47.3175C214.017 47.9208 213.414 48.5242 212.811 48.5242H200.142L200.14 48.7257ZM199.938 44.3017H207.58V42.2912C207.58 39.8777 206.172 38.269 203.759 38.269C201.346 38.269 199.938 39.6762 199.938 42.2912V44.3017ZM251.218 48.7257L251.017 50.5358C251.017 52.9493 252.626 54.3564 255.24 54.3564C257.25 54.3564 259.06 53.7531 261.072 52.7478C261.273 52.7478 261.474 52.5463 261.675 52.5463C262.077 52.5463 262.278 52.7478 262.48 52.9482C262.681 53.1497 263.083 53.7531 263.083 53.7531C263.485 54.3564 263.888 55.1602 263.888 55.7636C263.888 56.7688 263.285 57.7741 262.481 58.1771C260.269 59.3838 257.655 59.9872 254.84 59.9872C251.622 59.9872 249.008 59.1823 246.997 57.5737C244.986 55.7636 243.78 53.3512 243.78 50.3343V42.4916C243.78 36.2575 247.802 32.4368 254.639 32.4368C261.275 32.4368 265.096 36.057 265.096 42.4916V47.3175C265.096 47.9208 264.493 48.5242 263.889 48.5242H251.221V48.7257H251.218ZM251.017 44.3017H258.658V42.2912C258.658 39.8777 257.251 38.269 254.838 38.269C252.424 38.269 251.017 39.6762 251.017 42.2912V44.3017ZM132.772 59.5842H135.588C136.191 59.5842 136.794 58.9809 136.794 58.3775V43.4968C136.794 36.6593 133.174 32.6372 127.142 32.6372C125.332 32.6372 123.321 33.0391 122.114 33.4421V26.0012C122.114 24.3926 120.707 22.9844 119.097 22.9844H116.282C115.679 22.9844 115.075 23.5877 115.075 24.1911V58.3775C115.075 58.9809 115.679 59.5842 116.282 59.5842H120.908C121.511 59.5842 122.114 58.9809 122.114 58.3775V39.4747C123.12 39.0728 124.528 38.8713 125.533 38.8713C128.55 38.8713 129.756 40.2785 129.756 43.6972V56.7689C129.957 58.1771 131.164 59.5842 132.772 59.5842ZM163.138 42.692V50.1328C163.138 56.367 158.916 60.1876 151.877 60.1876C145.039 60.1876 140.615 56.367 140.615 50.1328V42.692C140.615 36.4579 144.838 32.6372 151.877 32.6372C158.916 32.6372 163.138 36.4589 163.138 42.692ZM156.1 42.692C156.1 40.2785 154.693 38.6699 152.078 38.6699C149.463 38.6699 148.056 40.077 148.056 42.692V50.1328C148.056 52.5463 149.463 53.9535 152.078 53.9535C154.693 53.9535 156.1 52.5463 156.1 50.1328V42.692ZM111.256 39.2743C111.256 45.7099 106.43 50.1339 99.9942 50.1339C98.3856 50.1339 96.9774 49.9324 95.5702 49.3291V58.3785C95.5702 58.9819 94.9668 59.5853 94.3635 59.5853H89.738C89.1346 59.5853 88.5312 58.9819 88.5312 58.3785V26.4042C88.5312 25.5993 89.1346 24.997 89.738 24.7955C92.7548 23.7903 95.7706 23.1869 98.9879 23.1869C106.227 23.1869 111.255 27.6109 111.255 34.4484C111.256 34.4473 111.256 39.2743 111.256 39.2743ZM104.016 34.0454C104.016 30.8282 101.804 29.2196 98.7875 29.2196C96.9774 29.2196 95.7706 29.8229 95.7706 29.8229V43.0949C96.9774 43.6983 97.5807 43.8998 98.9879 43.8998C102.005 43.8998 104.217 42.0897 104.217 39.0739V34.0465H104.016V34.0454ZM241.164 39.2743C241.164 45.7099 236.338 50.1339 229.902 50.1339C228.294 50.1339 226.885 49.9324 225.478 49.3291V58.3785C225.478 58.9819 224.875 59.5853 224.271 59.5853H219.646C219.043 59.5853 218.439 58.9819 218.439 58.3785V26.4042C218.439 25.5993 219.043 24.997 219.646 24.7955C222.663 23.7903 225.679 23.1869 228.896 23.1869C236.135 23.1869 241.163 27.6109 241.163 34.4484C241.164 34.4473 241.164 39.2743 241.164 39.2743ZM233.924 34.0454C233.924 30.8282 231.712 29.2196 228.695 29.2196C226.885 29.2196 225.679 29.8229 225.679 29.8229V43.0949C226.885 43.6983 227.489 43.8998 228.896 43.8998C231.913 43.8998 234.125 42.0897 234.125 39.0739V34.0465H233.924V34.0454Z" fill="#5F259F"/>
<path d="M35.9965 71.9969C55.8768 71.9969 71.993 55.8807 71.993 36.0004C71.993 16.1201 55.8768 0.00390625 35.9965 0.00390625C16.1162 0.00390625 0 16.1201 0 36.0004C0 55.8807 16.1162 71.9969 35.9965 71.9969Z" fill="#5F259F"/>
<path d="M52.3329 26.6048C52.3329 25.1977 51.1261 23.9909 49.719 23.9909H44.8931L33.833 11.3223C32.8278 10.1155 31.2191 9.71364 29.6105 10.1155L25.7899 11.3223C25.1865 11.5238 24.985 12.3275 25.388 12.7294L37.4533 24.1924H19.1517C18.5484 24.1924 18.1465 24.5943 18.1465 25.1977V27.2082C18.1465 28.6153 19.3532 29.8221 20.7604 29.8221H23.5758V39.4749C23.5758 46.7143 27.3964 50.9379 33.832 50.9379C35.8425 50.9379 37.4522 50.7364 39.4627 49.9326V56.3682C39.4627 58.1784 40.8699 59.5855 42.68 59.5855H45.4954C46.0987 59.5855 46.7021 58.9821 46.7021 58.3788V29.6217H51.3276C51.931 29.6217 52.3329 29.2198 52.3329 28.6164V26.6048ZM39.4627 43.8989C38.256 44.5023 36.6474 44.7038 35.4406 44.7038C32.2233 44.7038 30.6147 43.0952 30.6147 39.4749V29.8221H39.4627V43.8989Z" fill="white"/>
</g>
<defs>
<clipPath id="clip0_455_3654">
<rect width="265.096" height="72" fill="white"/>
</clipPath>
</defs>
</svg>
