<svg width="694" height="694" viewBox="0 0 694 694" fill="none" xmlns="http://www.w3.org/2000/svg">
<path d="M189.297 0.0546875H168.27V21.0817H189.297V0.0546875Z" fill="black"/>
<path d="M252.379 0.0546875H231.352V21.0817H252.379V0.0546875Z" fill="black"/>
<path d="M273.406 0.0546875H252.379V21.0817H273.406V0.0546875Z" fill="black"/>
<path d="M294.435 0.0546875H273.408V21.0817H294.435V0.0546875Z" fill="black"/>
<path d="M336.488 0.0546875H315.461V21.0817H336.488V0.0546875Z" fill="black"/>
<path d="M399.566 0.0546875H378.539V21.0817H399.566V0.0546875Z" fill="black"/>
<path d="M504.703 0.0546875H483.676V21.0817H504.703V0.0546875Z" fill="black"/>
<path d="M210.326 21.0801H189.299V42.1071H210.326V21.0801Z" fill="black"/>
<path d="M231.351 21.0801H210.324V42.1071H231.351V21.0801Z" fill="black"/>
<path d="M252.379 21.0801H231.352V42.1071H252.379V21.0801Z" fill="black"/>
<path d="M273.406 21.0801H252.379V42.1071H273.406V21.0801Z" fill="black"/>
<path d="M294.435 21.0801H273.408V42.1071H294.435V21.0801Z" fill="black"/>
<path d="M315.461 21.0801H294.434V42.1071H315.461V21.0801Z" fill="black"/>
<path d="M399.566 21.0801H378.539V42.1071H399.566V21.0801Z" fill="black"/>
<path d="M420.593 21.0801H399.566V42.1071H420.593V21.0801Z" fill="black"/>
<path d="M231.351 42.1074H210.324V63.1344H231.351V42.1074Z" fill="black"/>
<path d="M273.406 42.1074H252.379V63.1344H273.406V42.1074Z" fill="black"/>
<path d="M315.461 42.1074H294.434V63.1344H315.461V42.1074Z" fill="black"/>
<path d="M336.488 42.1074H315.461V63.1344H336.488V42.1074Z" fill="black"/>
<path d="M357.513 42.1074H336.486V63.1344H357.513V42.1074Z" fill="black"/>
<path d="M378.543 42.1074H357.516V63.1344H378.543V42.1074Z" fill="black"/>
<path d="M399.566 42.1074H378.539V63.1344H399.566V42.1074Z" fill="black"/>
<path d="M420.593 42.1074H399.566V63.1344H420.593V42.1074Z" fill="black"/>
<path d="M462.65 42.1074H441.623V63.1344H462.65V42.1074Z" fill="black"/>
<path d="M504.703 42.1074H483.676V63.1344H504.703V42.1074Z" fill="black"/>
<path d="M189.297 63.1348H168.27V84.1618H189.297V63.1348Z" fill="black"/>
<path d="M210.326 63.1348H189.299V84.1618H210.326V63.1348Z" fill="black"/>
<path d="M252.377 63.1348H231.35V84.1618H252.377V63.1348Z" fill="black"/>
<path d="M273.406 63.1348H252.379V84.1618H273.406V63.1348Z" fill="black"/>
<path d="M357.513 63.1348H336.486V84.1618H357.513V63.1348Z" fill="black"/>
<path d="M378.543 63.1348H357.516V84.1618H378.543V63.1348Z" fill="black"/>
<path d="M462.65 63.1348H441.623V84.1618H462.65V63.1348Z" fill="black"/>
<path d="M483.675 63.1348H462.648V84.1618H483.675V63.1348Z" fill="black"/>
<path d="M189.297 84.1621H168.27V105.189H189.297V84.1621Z" fill="black"/>
<path d="M210.326 84.1621H189.299V105.189H210.326V84.1621Z" fill="black"/>
<path d="M357.513 84.1621H336.486V105.189H357.513V84.1621Z" fill="black"/>
<path d="M378.543 84.1621H357.516V105.189H378.543V84.1621Z" fill="black"/>
<path d="M420.593 84.1621H399.566V105.189H420.593V84.1621Z" fill="black"/>
<path d="M462.65 84.1621H441.623V105.189H462.65V84.1621Z" fill="black"/>
<path d="M483.675 84.1621H462.648V105.189H483.675V84.1621Z" fill="black"/>
<path d="M189.297 105.189H168.27V126.216H189.297V105.189Z" fill="black"/>
<path d="M210.326 105.189H189.299V126.216H210.326V105.189Z" fill="black"/>
<path d="M231.351 105.188H210.324V126.215H231.351V105.188Z" fill="black"/>
<path d="M273.406 105.189H252.379V126.216H273.406V105.189Z" fill="black"/>
<path d="M336.488 105.189H315.461V126.216H336.488V105.189Z" fill="black"/>
<path d="M378.543 105.189H357.516V126.216H378.543V105.189Z" fill="black"/>
<path d="M441.621 105.189H420.594V126.216H441.621V105.189Z" fill="black"/>
<path d="M462.65 105.189H441.623V126.216H462.65V105.189Z" fill="black"/>
<path d="M483.675 105.188H462.648V126.215H483.675V105.188Z" fill="black"/>
<path d="M504.703 105.188H483.676V126.215H504.703V105.188Z" fill="black"/>
<path d="M525.73 105.189H504.703V126.216H525.73V105.189Z" fill="black"/>
<path d="M189.297 126.217H168.27V147.244H189.297V126.217Z" fill="black"/>
<path d="M231.351 126.217H210.324V147.244H231.351V126.217Z" fill="black"/>
<path d="M273.406 126.217H252.379V147.244H273.406V126.217Z" fill="black"/>
<path d="M315.461 126.217H294.434V147.244H315.461V126.217Z" fill="black"/>
<path d="M357.513 126.217H336.486V147.244H357.513V126.217Z" fill="black"/>
<path d="M399.566 126.217H378.539V147.244H399.566V126.217Z" fill="black"/>
<path d="M441.621 126.217H420.594V147.244H441.621V126.217Z" fill="black"/>
<path d="M483.675 126.217H462.648V147.244H483.675V126.217Z" fill="black"/>
<path d="M525.73 126.217H504.703V147.244H525.73V126.217Z" fill="black"/>
<path d="M189.297 147.242H168.27V168.269H189.297V147.242Z" fill="black"/>
<path d="M252.379 147.242H231.352V168.269H252.379V147.242Z" fill="black"/>
<path d="M315.461 147.242H294.434V168.269H315.461V147.242Z" fill="black"/>
<path d="M378.543 147.242H357.516V168.269H378.543V147.242Z" fill="black"/>
<path d="M399.566 147.242H378.539V168.269H399.566V147.242Z" fill="black"/>
<path d="M420.593 147.242H399.566V168.269H420.593V147.242Z" fill="black"/>
<path d="M441.621 147.242H420.594V168.269H441.621V147.242Z" fill="black"/>
<path d="M462.65 147.242H441.623V168.269H462.65V147.242Z" fill="black"/>
<path d="M525.73 147.242H504.703V168.269H525.73V147.242Z" fill="black"/>
<path d="M21.0798 168.27H0.0527344V189.297H21.0798V168.27Z" fill="black"/>
<path d="M105.187 168.27H84.1602V189.297H105.187V168.27Z" fill="black"/>
<path d="M147.242 168.27H126.215V189.297H147.242V168.27Z" fill="black"/>
<path d="M168.269 168.27H147.242V189.297H168.269V168.27Z" fill="black"/>
<path d="M189.297 168.27H168.27V189.297H189.297V168.27Z" fill="black"/>
<path d="M231.351 168.27H210.324V189.297H231.351V168.27Z" fill="black"/>
<path d="M273.406 168.27H252.379V189.297H273.406V168.27Z" fill="black"/>
<path d="M336.488 168.27H315.461V189.297H336.488V168.27Z" fill="black"/>
<path d="M378.543 168.27H357.516V189.297H378.543V168.27Z" fill="black"/>
<path d="M441.621 168.27H420.594V189.297H441.621V168.27Z" fill="black"/>
<path d="M462.65 168.27H441.623V189.297H462.65V168.27Z" fill="black"/>
<path d="M483.675 168.27H462.648V189.297H483.675V168.27Z" fill="black"/>
<path d="M504.703 168.27H483.676V189.297H504.703V168.27Z" fill="black"/>
<path d="M546.759 168.27H525.732V189.297H546.759V168.27Z" fill="black"/>
<path d="M567.787 168.27H546.76V189.297H567.787V168.27Z" fill="black"/>
<path d="M588.812 168.27H567.785V189.297H588.812V168.27Z" fill="black"/>
<path d="M609.84 168.27H588.812V189.297H609.84V168.27Z" fill="black"/>
<path d="M630.869 168.27H609.842V189.297H630.869V168.27Z" fill="black"/>
<path d="M693.945 168.27H672.918V189.297H693.945V168.27Z" fill="black"/>
<path d="M42.111 189.297H21.084V210.324H42.111V189.297Z" fill="black"/>
<path d="M126.216 189.297H105.189V210.324H126.216V189.297Z" fill="black"/>
<path d="M168.269 189.297H147.242V210.324H168.269V189.297Z" fill="black"/>
<path d="M231.351 189.297H210.324V210.324H231.351V189.297Z" fill="black"/>
<path d="M252.377 189.297H231.35V210.324H252.377V189.297Z" fill="black"/>
<path d="M336.488 189.297H315.461V210.324H336.488V189.297Z" fill="black"/>
<path d="M357.513 189.297H336.486V210.324H357.513V189.297Z" fill="black"/>
<path d="M378.543 189.297H357.516V210.324H378.543V189.297Z" fill="black"/>
<path d="M399.566 189.297H378.539V210.324H399.566V189.297Z" fill="black"/>
<path d="M462.65 189.297H441.623V210.324H462.65V189.297Z" fill="black"/>
<path d="M483.675 189.297H462.648V210.324H483.675V189.297Z" fill="black"/>
<path d="M504.703 189.297H483.676V210.324H504.703V189.297Z" fill="black"/>
<path d="M546.759 189.297H525.732V210.324H546.759V189.297Z" fill="black"/>
<path d="M630.869 189.297H609.842V210.324H630.869V189.297Z" fill="black"/>
<path d="M651.892 189.297H630.865V210.324H651.892V189.297Z" fill="black"/>
<path d="M693.945 189.297H672.918V210.324H693.945V189.297Z" fill="black"/>
<path d="M21.0798 210.324H0.0527344V231.351H21.0798V210.324Z" fill="black"/>
<path d="M63.1364 210.324H42.1094V231.351H63.1364V210.324Z" fill="black"/>
<path d="M105.187 210.324H84.1602V231.351H105.187V210.324Z" fill="black"/>
<path d="M126.216 210.324H105.189V231.351H126.216V210.324Z" fill="black"/>
<path d="M147.242 210.324H126.215V231.351H147.242V210.324Z" fill="black"/>
<path d="M168.269 210.324H147.242V231.351H168.269V210.324Z" fill="black"/>
<path d="M189.297 210.324H168.27V231.351H189.297V210.324Z" fill="black"/>
<path d="M294.435 210.324H273.408V231.351H294.435V210.324Z" fill="black"/>
<path d="M315.461 210.324H294.434V231.351H315.461V210.324Z" fill="black"/>
<path d="M336.488 210.324H315.461V231.351H336.488V210.324Z" fill="black"/>
<path d="M399.566 210.324H378.539V231.351H399.566V210.324Z" fill="black"/>
<path d="M504.703 210.324H483.676V231.351H504.703V210.324Z" fill="black"/>
<path d="M546.759 210.324H525.732V231.351H546.759V210.324Z" fill="black"/>
<path d="M630.869 210.324H609.842V231.351H630.869V210.324Z" fill="black"/>
<path d="M672.918 210.324H651.891V231.351H672.918V210.324Z" fill="black"/>
<path d="M63.1364 231.352H42.1094V252.379H63.1364V231.352Z" fill="black"/>
<path d="M105.187 231.352H84.1602V252.379H105.187V231.352Z" fill="black"/>
<path d="M168.269 231.352H147.242V252.379H168.269V231.352Z" fill="black"/>
<path d="M231.351 231.352H210.324V252.379H231.351V231.352Z" fill="black"/>
<path d="M273.406 231.352H252.379V252.379H273.406V231.352Z" fill="black"/>
<path d="M294.435 231.352H273.408V252.379H294.435V231.352Z" fill="black"/>
<path d="M357.513 231.352H336.486V252.379H357.513V231.352Z" fill="black"/>
<path d="M420.593 231.352H399.566V252.379H420.593V231.352Z" fill="black"/>
<path d="M441.621 231.352H420.594V252.379H441.621V231.352Z" fill="black"/>
<path d="M483.675 231.352H462.648V252.379H483.675V231.352Z" fill="black"/>
<path d="M525.73 231.352H504.703V252.379H525.73V231.352Z" fill="black"/>
<path d="M546.759 231.352H525.732V252.379H546.759V231.352Z" fill="black"/>
<path d="M567.787 231.352H546.76V252.379H567.787V231.352Z" fill="black"/>
<path d="M21.0798 252.379H0.0527344V273.406H21.0798V252.379Z" fill="black"/>
<path d="M63.1364 252.379H42.1094V273.406H63.1364V252.379Z" fill="black"/>
<path d="M84.1637 252.379H63.1367V273.406H84.1637V252.379Z" fill="black"/>
<path d="M147.242 252.379H126.215V273.406H147.242V252.379Z" fill="black"/>
<path d="M189.297 252.379H168.27V273.406H189.297V252.379Z" fill="black"/>
<path d="M231.351 252.379H210.324V273.406H231.351V252.379Z" fill="black"/>
<path d="M273.406 252.379H252.379V273.406H273.406V252.379Z" fill="black"/>
<path d="M294.435 252.379H273.408V273.406H294.435V252.379Z" fill="black"/>
<path d="M357.513 252.379H336.486V273.406H357.513V252.379Z" fill="black"/>
<path d="M483.675 252.379H462.648V273.406H483.675V252.379Z" fill="black"/>
<path d="M504.703 252.379H483.676V273.406H504.703V252.379Z" fill="black"/>
<path d="M525.73 252.379H504.703V273.406H525.73V252.379Z" fill="black"/>
<path d="M567.787 252.379H546.76V273.406H567.787V252.379Z" fill="black"/>
<path d="M588.812 252.379H567.785V273.406H588.812V252.379Z" fill="black"/>
<path d="M630.869 252.379H609.842V273.406H630.869V252.379Z" fill="black"/>
<path d="M693.945 252.379H672.918V273.406H693.945V252.379Z" fill="black"/>
<path d="M21.0798 273.406H0.0527344V294.433H21.0798V273.406Z" fill="black"/>
<path d="M63.1364 273.406H42.1094V294.433H63.1364V273.406Z" fill="black"/>
<path d="M84.1637 273.406H63.1367V294.433H84.1637V273.406Z" fill="black"/>
<path d="M105.187 273.406H84.1602V294.433H105.187V273.406Z" fill="black"/>
<path d="M126.216 273.406H105.189V294.433H126.216V273.406Z" fill="black"/>
<path d="M168.269 273.406H147.242V294.433H168.269V273.406Z" fill="black"/>
<path d="M231.351 273.406H210.324V294.433H231.351V273.406Z" fill="black"/>
<path d="M252.379 273.406H231.352V294.433H252.379V273.406Z" fill="black"/>
<path d="M315.461 273.406H294.434V294.433H315.461V273.406Z" fill="black"/>
<path d="M378.543 273.406H357.516V294.433H378.543V273.406Z" fill="black"/>
<path d="M399.566 273.406H378.539V294.433H399.566V273.406Z" fill="black"/>
<path d="M420.593 273.406H399.566V294.433H420.593V273.406Z" fill="black"/>
<path d="M441.621 273.406H420.594V294.433H441.621V273.406Z" fill="black"/>
<path d="M525.73 273.406H504.703V294.433H525.73V273.406Z" fill="black"/>
<path d="M546.759 273.406H525.732V294.433H546.759V273.406Z" fill="black"/>
<path d="M588.812 273.406H567.785V294.433H588.812V273.406Z" fill="black"/>
<path d="M651.892 273.406H630.865V294.433H651.892V273.406Z" fill="black"/>
<path d="M63.1364 294.432H42.1094V315.459H63.1364V294.432Z" fill="black"/>
<path d="M105.187 294.434H84.1602V315.461H105.187V294.434Z" fill="black"/>
<path d="M126.216 294.434H105.189V315.461H126.216V294.434Z" fill="black"/>
<path d="M147.242 294.432H126.215V315.459H147.242V294.432Z" fill="black"/>
<path d="M231.351 294.432H210.324V315.459H231.351V294.432Z" fill="black"/>
<path d="M252.379 294.434H231.352V315.461H252.379V294.434Z" fill="black"/>
<path d="M273.406 294.434H252.379V315.461H273.406V294.434Z" fill="black"/>
<path d="M315.461 294.432H294.434V315.459H315.461V294.432Z" fill="black"/>
<path d="M336.488 294.434H315.461V315.461H336.488V294.434Z" fill="black"/>
<path d="M378.543 294.434H357.516V315.461H378.543V294.434Z" fill="black"/>
<path d="M399.566 294.434H378.539V315.461H399.566V294.434Z" fill="black"/>
<path d="M441.621 294.434H420.594V315.461H441.621V294.434Z" fill="black"/>
<path d="M462.65 294.434H441.623V315.461H462.65V294.434Z" fill="black"/>
<path d="M504.703 294.432H483.676V315.459H504.703V294.432Z" fill="black"/>
<path d="M525.73 294.434H504.703V315.461H525.73V294.434Z" fill="black"/>
<path d="M546.759 294.434H525.732V315.461H546.759V294.434Z" fill="black"/>
<path d="M567.787 294.434H546.76V315.461H567.787V294.434Z" fill="black"/>
<path d="M609.84 294.434H588.812V315.461H609.84V294.434Z" fill="black"/>
<path d="M672.918 294.432H651.891V315.459H672.918V294.432Z" fill="black"/>
<path d="M21.0798 315.457H0.0527344V336.484H21.0798V315.457Z" fill="black"/>
<path d="M42.111 315.457H21.084V336.484H42.111V315.457Z" fill="black"/>
<path d="M63.1364 315.457H42.1094V336.484H63.1364V315.457Z" fill="black"/>
<path d="M84.1637 315.457H63.1367V336.484H84.1637V315.457Z" fill="black"/>
<path d="M105.187 315.457H84.1602V336.484H105.187V315.457Z" fill="black"/>
<path d="M168.269 315.457H147.242V336.484H168.269V315.457Z" fill="black"/>
<path d="M231.351 315.459H210.324V336.486H231.351V315.459Z" fill="black"/>
<path d="M252.377 315.459H231.35V336.486H252.377V315.459Z" fill="black"/>
<path d="M294.435 315.457H273.408V336.484H294.435V315.457Z" fill="black"/>
<path d="M315.461 315.457H294.434V336.484H315.461V315.457Z" fill="black"/>
<path d="M336.488 315.457H315.461V336.484H336.488V315.457Z" fill="black"/>
<path d="M357.513 315.457H336.486V336.484H357.513V315.457Z" fill="black"/>
<path d="M378.543 315.457H357.516V336.484H378.543V315.457Z" fill="black"/>
<path d="M399.566 315.457H378.539V336.484H399.566V315.457Z" fill="black"/>
<path d="M462.65 315.457H441.623V336.484H462.65V315.457Z" fill="black"/>
<path d="M504.703 315.459H483.676V336.486H504.703V315.459Z" fill="black"/>
<path d="M546.759 315.457H525.732V336.484H546.759V315.457Z" fill="black"/>
<path d="M567.787 315.457H546.76V336.484H567.787V315.457Z" fill="black"/>
<path d="M588.812 315.457H567.785V336.484H588.812V315.457Z" fill="black"/>
<path d="M21.0798 336.488H0.0527344V357.515H21.0798V336.488Z" fill="black"/>
<path d="M42.111 336.488H21.084V357.515H42.111V336.488Z" fill="black"/>
<path d="M84.1637 336.488H63.1367V357.515H84.1637V336.488Z" fill="black"/>
<path d="M105.187 336.488H84.1602V357.515H105.187V336.488Z" fill="black"/>
<path d="M126.216 336.488H105.189V357.515H126.216V336.488Z" fill="black"/>
<path d="M147.242 336.486H126.215V357.513H147.242V336.486Z" fill="black"/>
<path d="M189.297 336.488H168.27V357.515H189.297V336.488Z" fill="black"/>
<path d="M210.326 336.488H189.299V357.515H210.326V336.488Z" fill="black"/>
<path d="M273.406 336.488H252.379V357.515H273.406V336.488Z" fill="black"/>
<path d="M378.543 336.488H357.516V357.515H378.543V336.488Z" fill="black"/>
<path d="M399.566 336.488H378.539V357.515H399.566V336.488Z" fill="black"/>
<path d="M420.593 336.486H399.566V357.513H420.593V336.486Z" fill="black"/>
<path d="M441.621 336.488H420.594V357.515H441.621V336.488Z" fill="black"/>
<path d="M462.65 336.488H441.623V357.515H462.65V336.488Z" fill="black"/>
<path d="M483.675 336.488H462.648V357.515H483.675V336.488Z" fill="black"/>
<path d="M525.73 336.488H504.703V357.515H525.73V336.488Z" fill="black"/>
<path d="M567.787 336.488H546.76V357.515H567.787V336.488Z" fill="black"/>
<path d="M609.84 336.488H588.812V357.515H609.84V336.488Z" fill="black"/>
<path d="M630.869 336.488H609.842V357.515H630.869V336.488Z" fill="black"/>
<path d="M672.918 336.486H651.891V357.513H672.918V336.486Z" fill="black"/>
<path d="M21.0798 357.512H0.0527344V378.539H21.0798V357.512Z" fill="black"/>
<path d="M42.111 357.512H21.084V378.539H42.111V357.512Z" fill="black"/>
<path d="M105.187 357.512H84.1602V378.539H105.187V357.512Z" fill="black"/>
<path d="M126.216 357.512H105.189V378.539H126.216V357.512Z" fill="black"/>
<path d="M168.269 357.512H147.242V378.539H168.269V357.512Z" fill="black"/>
<path d="M189.297 357.512H168.27V378.539H189.297V357.512Z" fill="black"/>
<path d="M210.326 357.512H189.299V378.539H210.326V357.512Z" fill="black"/>
<path d="M231.351 357.514H210.324V378.541H231.351V357.514Z" fill="black"/>
<path d="M336.488 357.512H315.461V378.539H336.488V357.512Z" fill="black"/>
<path d="M357.513 357.512H336.486V378.539H357.513V357.512Z" fill="black"/>
<path d="M399.566 357.512H378.539V378.539H399.566V357.512Z" fill="black"/>
<path d="M441.621 357.512H420.594V378.539H441.621V357.512Z" fill="black"/>
<path d="M483.675 357.512H462.648V378.539H483.675V357.512Z" fill="black"/>
<path d="M504.703 357.514H483.676V378.541H504.703V357.514Z" fill="black"/>
<path d="M525.73 357.512H504.703V378.539H525.73V357.512Z" fill="black"/>
<path d="M630.869 357.512H609.842V378.539H630.869V357.512Z" fill="black"/>
<path d="M651.892 357.512H630.865V378.539H651.892V357.512Z" fill="black"/>
<path d="M672.918 357.514H651.891V378.541H672.918V357.514Z" fill="black"/>
<path d="M21.0798 378.543H0.0527344V399.57H21.0798V378.543Z" fill="black"/>
<path d="M63.1364 378.543H42.1094V399.57H63.1364V378.543Z" fill="black"/>
<path d="M84.1637 378.543H63.1367V399.57H84.1637V378.543Z" fill="black"/>
<path d="M105.187 378.543H84.1602V399.57H105.187V378.543Z" fill="black"/>
<path d="M147.242 378.543H126.215V399.57H147.242V378.543Z" fill="black"/>
<path d="M168.269 378.543H147.242V399.57H168.269V378.543Z" fill="black"/>
<path d="M231.351 378.541H210.324V399.568H231.351V378.541Z" fill="black"/>
<path d="M273.406 378.543H252.379V399.57H273.406V378.543Z" fill="black"/>
<path d="M294.435 378.543H273.408V399.57H294.435V378.543Z" fill="black"/>
<path d="M336.488 378.543H315.461V399.57H336.488V378.543Z" fill="black"/>
<path d="M357.513 378.543H336.486V399.57H357.513V378.543Z" fill="black"/>
<path d="M378.543 378.543H357.516V399.57H378.543V378.543Z" fill="black"/>
<path d="M441.621 378.543H420.594V399.57H441.621V378.543Z" fill="black"/>
<path d="M462.65 378.543H441.623V399.57H462.65V378.543Z" fill="black"/>
<path d="M483.675 378.541H462.648V399.568H483.675V378.541Z" fill="black"/>
<path d="M504.703 378.541H483.676V399.568H504.703V378.541Z" fill="black"/>
<path d="M525.73 378.543H504.703V399.57H525.73V378.543Z" fill="black"/>
<path d="M546.759 378.543H525.732V399.57H546.759V378.543Z" fill="black"/>
<path d="M588.812 378.543H567.785V399.57H588.812V378.543Z" fill="black"/>
<path d="M630.869 378.543H609.842V399.57H630.869V378.543Z" fill="black"/>
<path d="M672.918 378.543H651.891V399.57H672.918V378.543Z" fill="black"/>
<path d="M42.111 399.566H21.084V420.593H42.111V399.566Z" fill="black"/>
<path d="M63.1364 399.568H42.1094V420.595H63.1364V399.568Z" fill="black"/>
<path d="M105.187 399.566H84.1602V420.593H105.187V399.566Z" fill="black"/>
<path d="M168.269 399.566H147.242V420.593H168.269V399.566Z" fill="black"/>
<path d="M231.351 399.568H210.324V420.595H231.351V399.568Z" fill="black"/>
<path d="M273.406 399.566H252.379V420.593H273.406V399.566Z" fill="black"/>
<path d="M294.435 399.566H273.408V420.593H294.435V399.566Z" fill="black"/>
<path d="M336.488 399.566H315.461V420.593H336.488V399.566Z" fill="black"/>
<path d="M378.543 399.566H357.516V420.593H378.543V399.566Z" fill="black"/>
<path d="M399.566 399.566H378.539V420.593H399.566V399.566Z" fill="black"/>
<path d="M441.621 399.566H420.594V420.593H441.621V399.566Z" fill="black"/>
<path d="M462.65 399.566H441.623V420.593H462.65V399.566Z" fill="black"/>
<path d="M525.73 399.566H504.703V420.593H525.73V399.566Z" fill="black"/>
<path d="M546.759 399.566H525.732V420.593H546.759V399.566Z" fill="black"/>
<path d="M567.787 399.566H546.76V420.593H567.787V399.566Z" fill="black"/>
<path d="M588.812 399.568H567.785V420.595H588.812V399.568Z" fill="black"/>
<path d="M672.918 399.568H651.891V420.595H672.918V399.568Z" fill="black"/>
<path d="M21.0798 420.594H0.0527344V441.621H21.0798V420.594Z" fill="black"/>
<path d="M63.1364 420.594H42.1094V441.621H63.1364V420.594Z" fill="black"/>
<path d="M126.216 420.594H105.189V441.621H126.216V420.594Z" fill="black"/>
<path d="M147.242 420.594H126.215V441.621H147.242V420.594Z" fill="black"/>
<path d="M168.269 420.594H147.242V441.621H168.269V420.594Z" fill="black"/>
<path d="M210.326 420.594H189.299V441.621H210.326V420.594Z" fill="black"/>
<path d="M252.379 420.594H231.352V441.621H252.379V420.594Z" fill="black"/>
<path d="M294.435 420.594H273.408V441.621H294.435V420.594Z" fill="black"/>
<path d="M315.461 420.594H294.434V441.621H315.461V420.594Z" fill="black"/>
<path d="M399.566 420.594H378.539V441.621H399.566V420.594Z" fill="black"/>
<path d="M420.593 420.594H399.566V441.621H420.593V420.594Z" fill="black"/>
<path d="M441.621 420.594H420.594V441.621H441.621V420.594Z" fill="black"/>
<path d="M567.787 420.594H546.76V441.621H567.787V420.594Z" fill="black"/>
<path d="M588.812 420.594H567.785V441.621H588.812V420.594Z" fill="black"/>
<path d="M609.84 420.594H588.812V441.621H609.84V420.594Z" fill="black"/>
<path d="M630.869 420.594H609.842V441.621H630.869V420.594Z" fill="black"/>
<path d="M21.0798 441.621H0.0527344V462.648H21.0798V441.621Z" fill="black"/>
<path d="M84.1637 441.621H63.1367V462.648H84.1637V441.621Z" fill="black"/>
<path d="M126.216 441.621H105.189V462.648H126.216V441.621Z" fill="black"/>
<path d="M273.406 441.621H252.379V462.648H273.406V441.621Z" fill="black"/>
<path d="M357.513 441.621H336.486V462.648H357.513V441.621Z" fill="black"/>
<path d="M378.543 441.621H357.516V462.648H378.543V441.621Z" fill="black"/>
<path d="M420.593 441.621H399.566V462.648H420.593V441.621Z" fill="black"/>
<path d="M483.675 441.621H462.648V462.648H483.675V441.621Z" fill="black"/>
<path d="M567.787 441.621H546.76V462.648H567.787V441.621Z" fill="black"/>
<path d="M630.869 441.621H609.842V462.648H630.869V441.621Z" fill="black"/>
<path d="M651.892 441.621H630.865V462.648H651.892V441.621Z" fill="black"/>
<path d="M672.918 441.621H651.891V462.648H672.918V441.621Z" fill="black"/>
<path d="M105.187 462.648H84.1602V483.675H105.187V462.648Z" fill="black"/>
<path d="M126.216 462.648H105.189V483.675H126.216V462.648Z" fill="black"/>
<path d="M147.242 462.648H126.215V483.675H147.242V462.648Z" fill="black"/>
<path d="M168.269 462.648H147.242V483.675H168.269V462.648Z" fill="black"/>
<path d="M252.377 462.648H231.35V483.675H252.377V462.648Z" fill="black"/>
<path d="M273.406 462.648H252.379V483.675H273.406V462.648Z" fill="black"/>
<path d="M315.461 462.648H294.434V483.675H315.461V462.648Z" fill="black"/>
<path d="M357.513 462.648H336.486V483.675H357.513V462.648Z" fill="black"/>
<path d="M399.566 462.648H378.539V483.675H399.566V462.648Z" fill="black"/>
<path d="M420.593 462.648H399.566V483.675H420.593V462.648Z" fill="black"/>
<path d="M462.65 462.648H441.623V483.675H462.65V462.648Z" fill="black"/>
<path d="M504.703 462.648H483.676V483.675H504.703V462.648Z" fill="black"/>
<path d="M525.73 462.648H504.703V483.675H525.73V462.648Z" fill="black"/>
<path d="M546.759 462.648H525.732V483.675H546.759V462.648Z" fill="black"/>
<path d="M651.892 462.648H630.865V483.675H651.892V462.648Z" fill="black"/>
<path d="M672.918 462.648H651.891V483.675H672.918V462.648Z" fill="black"/>
<path d="M84.1637 483.676H63.1367V504.703H84.1637V483.676Z" fill="black"/>
<path d="M105.187 483.676H84.1602V504.703H105.187V483.676Z" fill="black"/>
<path d="M126.216 483.676H105.189V504.703H126.216V483.676Z" fill="black"/>
<path d="M168.269 483.676H147.242V504.703H168.269V483.676Z" fill="black"/>
<path d="M189.297 483.676H168.27V504.703H189.297V483.676Z" fill="black"/>
<path d="M231.351 483.676H210.324V504.703H231.351V483.676Z" fill="black"/>
<path d="M294.435 483.676H273.408V504.703H294.435V483.676Z" fill="black"/>
<path d="M378.543 483.676H357.516V504.703H378.543V483.676Z" fill="black"/>
<path d="M399.566 483.676H378.539V504.703H399.566V483.676Z" fill="black"/>
<path d="M420.593 483.676H399.566V504.703H420.593V483.676Z" fill="black"/>
<path d="M441.621 483.676H420.594V504.703H441.621V483.676Z" fill="black"/>
<path d="M462.65 483.676H441.623V504.703H462.65V483.676Z" fill="black"/>
<path d="M483.675 483.676H462.648V504.703H483.675V483.676Z" fill="black"/>
<path d="M546.759 483.676H525.732V504.703H546.759V483.676Z" fill="black"/>
<path d="M567.787 483.676H546.76V504.703H567.787V483.676Z" fill="black"/>
<path d="M609.84 483.676H588.812V504.703H609.84V483.676Z" fill="black"/>
<path d="M630.869 483.676H609.842V504.703H630.869V483.676Z" fill="black"/>
<path d="M672.918 483.676H651.891V504.703H672.918V483.676Z" fill="black"/>
<path d="M693.945 483.676H672.918V504.703H693.945V483.676Z" fill="black"/>
<path d="M21.0798 504.703H0.0527344V525.73H21.0798V504.703Z" fill="black"/>
<path d="M42.111 504.703H21.084V525.73H42.111V504.703Z" fill="black"/>
<path d="M63.1364 504.703H42.1094V525.73H63.1364V504.703Z" fill="black"/>
<path d="M105.187 504.703H84.1602V525.73H105.187V504.703Z" fill="black"/>
<path d="M147.242 504.703H126.215V525.73H147.242V504.703Z" fill="black"/>
<path d="M168.269 504.703H147.242V525.73H168.269V504.703Z" fill="black"/>
<path d="M231.351 504.703H210.324V525.73H231.351V504.703Z" fill="black"/>
<path d="M252.377 504.703H231.35V525.73H252.377V504.703Z" fill="black"/>
<path d="M294.435 504.703H273.408V525.73H294.435V504.703Z" fill="black"/>
<path d="M315.461 504.703H294.434V525.73H315.461V504.703Z" fill="black"/>
<path d="M336.488 504.703H315.461V525.73H336.488V504.703Z" fill="black"/>
<path d="M357.513 504.703H336.486V525.73H357.513V504.703Z" fill="black"/>
<path d="M378.543 504.703H357.516V525.73H378.543V504.703Z" fill="black"/>
<path d="M441.621 504.703H420.594V525.73H441.621V504.703Z" fill="black"/>
<path d="M462.65 504.703H441.623V525.73H462.65V504.703Z" fill="black"/>
<path d="M483.675 504.703H462.648V525.73H483.675V504.703Z" fill="black"/>
<path d="M525.73 504.703H504.703V525.73H525.73V504.703Z" fill="black"/>
<path d="M546.759 504.703H525.732V525.73H546.759V504.703Z" fill="black"/>
<path d="M567.787 504.703H546.76V525.73H567.787V504.703Z" fill="black"/>
<path d="M588.812 504.703H567.785V525.73H588.812V504.703Z" fill="black"/>
<path d="M609.84 504.703H588.812V525.73H609.84V504.703Z" fill="black"/>
<path d="M630.869 504.703H609.842V525.73H630.869V504.703Z" fill="black"/>
<path d="M672.918 504.703H651.891V525.73H672.918V504.703Z" fill="black"/>
<path d="M189.297 525.73H168.27V546.757H189.297V525.73Z" fill="black"/>
<path d="M231.351 525.73H210.324V546.757H231.351V525.73Z" fill="black"/>
<path d="M252.379 525.73H231.352V546.757H252.379V525.73Z" fill="black"/>
<path d="M294.435 525.73H273.408V546.757H294.435V525.73Z" fill="black"/>
<path d="M315.461 525.73H294.434V546.757H315.461V525.73Z" fill="black"/>
<path d="M336.488 525.73H315.461V546.757H336.488V525.73Z" fill="black"/>
<path d="M357.513 525.73H336.486V546.757H357.513V525.73Z" fill="black"/>
<path d="M378.543 525.73H357.516V546.757H378.543V525.73Z" fill="black"/>
<path d="M462.65 525.73H441.623V546.757H462.65V525.73Z" fill="black"/>
<path d="M483.675 525.73H462.648V546.757H483.675V525.73Z" fill="black"/>
<path d="M504.703 525.73H483.676V546.757H504.703V525.73Z" fill="black"/>
<path d="M525.73 525.73H504.703V546.757H525.73V525.73Z" fill="black"/>
<path d="M609.84 525.73H588.812V546.757H609.84V525.73Z" fill="black"/>
<path d="M651.892 525.73H630.865V546.757H651.892V525.73Z" fill="black"/>
<path d="M189.297 546.758H168.27V567.785H189.297V546.758Z" fill="black"/>
<path d="M210.326 546.758H189.299V567.785H210.326V546.758Z" fill="black"/>
<path d="M231.351 546.758H210.324V567.785H231.351V546.758Z" fill="black"/>
<path d="M315.461 546.758H294.434V567.785H315.461V546.758Z" fill="black"/>
<path d="M336.488 546.758H315.461V567.785H336.488V546.758Z" fill="black"/>
<path d="M399.566 546.758H378.539V567.785H399.566V546.758Z" fill="black"/>
<path d="M525.73 546.758H504.703V567.785H525.73V546.758Z" fill="black"/>
<path d="M567.787 546.758H546.76V567.785H567.787V546.758Z" fill="black"/>
<path d="M609.84 546.758H588.812V567.785H609.84V546.758Z" fill="black"/>
<path d="M630.869 546.758H609.842V567.785H630.869V546.758Z" fill="black"/>
<path d="M252.379 567.783H231.352V588.81H252.379V567.783Z" fill="black"/>
<path d="M315.461 567.783H294.434V588.81H315.461V567.783Z" fill="black"/>
<path d="M336.488 567.783H315.461V588.81H336.488V567.783Z" fill="black"/>
<path d="M357.513 567.783H336.486V588.81H357.513V567.783Z" fill="black"/>
<path d="M420.593 567.783H399.566V588.81H420.593V567.783Z" fill="black"/>
<path d="M483.675 567.783H462.648V588.81H483.675V567.783Z" fill="black"/>
<path d="M525.73 567.783H504.703V588.81H525.73V567.783Z" fill="black"/>
<path d="M609.84 567.783H588.812V588.81H609.84V567.783Z" fill="black"/>
<path d="M693.945 567.783H672.918V588.81H693.945V567.783Z" fill="black"/>
<path d="M189.297 588.811H168.27V609.838H189.297V588.811Z" fill="black"/>
<path d="M252.377 588.812H231.35V609.84H252.377V588.812Z" fill="black"/>
<path d="M273.406 588.811H252.379V609.838H273.406V588.811Z" fill="black"/>
<path d="M294.435 588.811H273.408V609.838H294.435V588.811Z" fill="black"/>
<path d="M315.461 588.811H294.434V609.838H315.461V588.811Z" fill="black"/>
<path d="M357.513 588.811H336.486V609.838H357.513V588.811Z" fill="black"/>
<path d="M420.593 588.811H399.566V609.838H420.593V588.811Z" fill="black"/>
<path d="M483.675 588.812H462.648V609.84H483.675V588.812Z" fill="black"/>
<path d="M525.73 588.811H504.703V609.838H525.73V588.811Z" fill="black"/>
<path d="M546.759 588.811H525.732V609.838H546.759V588.811Z" fill="black"/>
<path d="M567.787 588.811H546.76V609.838H567.787V588.811Z" fill="black"/>
<path d="M588.812 588.811H567.785V609.838H588.812V588.811Z" fill="black"/>
<path d="M609.84 588.811H588.812V609.838H609.84V588.811Z" fill="black"/>
<path d="M630.869 588.811H609.842V609.838H630.869V588.811Z" fill="black"/>
<path d="M693.945 588.811H672.918V609.838H693.945V588.811Z" fill="black"/>
<path d="M210.326 609.838H189.299V630.865H210.326V609.838Z" fill="black"/>
<path d="M231.351 609.838H210.324V630.865H231.351V609.838Z" fill="black"/>
<path d="M273.406 609.838H252.379V630.865H273.406V609.838Z" fill="black"/>
<path d="M294.435 609.838H273.408V630.865H294.435V609.838Z" fill="black"/>
<path d="M399.566 609.838H378.539V630.865H399.566V609.838Z" fill="black"/>
<path d="M420.593 609.838H399.566V630.865H420.593V609.838Z" fill="black"/>
<path d="M441.621 609.838H420.594V630.865H441.621V609.838Z" fill="black"/>
<path d="M504.703 609.838H483.676V630.865H504.703V609.838Z" fill="black"/>
<path d="M567.787 609.838H546.76V630.865H567.787V609.838Z" fill="black"/>
<path d="M588.812 609.838H567.785V630.865H588.812V609.838Z" fill="black"/>
<path d="M609.84 609.838H588.812V630.865H609.84V609.838Z" fill="black"/>
<path d="M630.869 609.838H609.842V630.865H630.869V609.838Z" fill="black"/>
<path d="M651.892 609.838H630.865V630.865H651.892V609.838Z" fill="black"/>
<path d="M672.918 609.838H651.891V630.865H672.918V609.838Z" fill="black"/>
<path d="M210.326 630.865H189.299V651.892H210.326V630.865Z" fill="black"/>
<path d="M273.406 630.865H252.379V651.892H273.406V630.865Z" fill="black"/>
<path d="M315.461 630.865H294.434V651.892H315.461V630.865Z" fill="black"/>
<path d="M336.488 630.865H315.461V651.892H336.488V630.865Z" fill="black"/>
<path d="M399.566 630.865H378.539V651.892H399.566V630.865Z" fill="black"/>
<path d="M441.621 630.865H420.594V651.892H441.621V630.865Z" fill="black"/>
<path d="M462.65 630.865H441.623V651.892H462.65V630.865Z" fill="black"/>
<path d="M546.759 630.865H525.732V651.892H546.759V630.865Z" fill="black"/>
<path d="M567.787 630.865H546.76V651.892H567.787V630.865Z" fill="black"/>
<path d="M588.812 630.865H567.785V651.892H588.812V630.865Z" fill="black"/>
<path d="M609.84 630.865H588.812V651.892H609.84V630.865Z" fill="black"/>
<path d="M630.869 630.865H609.842V651.892H630.869V630.865Z" fill="black"/>
<path d="M252.379 651.893H231.352V672.92H252.379V651.893Z" fill="black"/>
<path d="M273.406 651.893H252.379V672.92H273.406V651.893Z" fill="black"/>
<path d="M294.435 651.893H273.408V672.92H294.435V651.893Z" fill="black"/>
<path d="M336.488 651.893H315.461V672.92H336.488V651.893Z" fill="black"/>
<path d="M357.513 651.893H336.486V672.92H357.513V651.893Z" fill="black"/>
<path d="M378.543 651.893H357.516V672.92H378.543V651.893Z" fill="black"/>
<path d="M399.566 651.893H378.539V672.92H399.566V651.893Z" fill="black"/>
<path d="M462.65 651.893H441.623V672.92H462.65V651.893Z" fill="black"/>
<path d="M504.703 651.893H483.676V672.92H504.703V651.893Z" fill="black"/>
<path d="M525.73 651.893H504.703V672.92H525.73V651.893Z" fill="black"/>
<path d="M567.787 651.893H546.76V672.92H567.787V651.893Z" fill="black"/>
<path d="M189.297 672.918H168.27V693.945H189.297V672.918Z" fill="black"/>
<path d="M231.351 672.92H210.324V693.947H231.351V672.92Z" fill="black"/>
<path d="M378.543 672.92H357.516V693.947H378.543V672.92Z" fill="black"/>
<path d="M420.593 672.918H399.566V693.945H420.593V672.918Z" fill="black"/>
<path d="M441.621 672.918H420.594V693.945H441.621V672.918Z" fill="black"/>
<path d="M462.65 672.918H441.623V693.945H462.65V672.918Z" fill="black"/>
<path d="M483.675 672.92H462.648V693.947H483.675V672.92Z" fill="black"/>
<path d="M504.703 672.92H483.676V693.947H504.703V672.92Z" fill="black"/>
<path d="M525.73 672.918H504.703V693.945H525.73V672.918Z" fill="black"/>
<path d="M546.759 672.918H525.732V693.945H546.759V672.918Z" fill="black"/>
<path d="M567.787 672.918H546.76V693.945H567.787V672.918Z" fill="black"/>
<path d="M630.869 672.918H609.842V693.945H630.869V672.918Z" fill="black"/>
<path d="M693.945 672.918H672.918V693.945H693.945V672.918Z" fill="black"/>
<path d="M125.164 0.0546875H22.1311H0.0527344V22.1331V125.165V147.244H22.1311H125.164H147.242V125.165V22.1331V0.0546875H125.164ZM125.164 125.165H22.1311V22.1331H125.164V125.165Z" fill="black"/>
<path d="M671.871 0.0546875H568.838H546.76V22.1331V125.165V147.244H568.838H671.871H693.949V125.165V22.1331V0.0546875H671.871ZM671.871 125.165H568.838V22.1331H671.871V125.165Z" fill="black"/>
<path d="M125.164 546.76H22.1311H0.0527344V568.838V671.871V693.949H22.1311H125.164H147.242V671.871V568.838V546.76H125.164ZM125.164 671.871H22.1311V568.838H125.164V671.871Z" fill="black"/>
<path d="M105.19 42.1074H42.1094V105.189H105.19V42.1074Z" fill="black"/>
<path d="M651.894 42.1074H588.812V105.189H651.894V42.1074Z" fill="black"/>
<path d="M105.19 588.811H42.1094V651.892H105.19V588.811Z" fill="black"/>
</svg>
