<svg width="49" height="49" viewBox="0 0 49 49" fill="none" xmlns="http://www.w3.org/2000/svg">
<path d="M24.3333 49.0004C37.7139 49.0004 48.561 38.1532 48.561 24.7726C48.561 11.392 37.7139 0.544922 24.3333 0.544922C10.9527 0.544922 0.105598 11.392 0.105598 24.7726C0.105598 28.6483 1.01563 32.3114 2.63366 35.56C3.06365 36.4232 3.20677 37.41 2.95749 38.3417L1.51447 43.7348C0.888042 46.076 3.02991 48.2179 5.37112 47.5915L10.7643 46.1485C11.696 45.8992 12.6827 46.0423 13.546 46.4723C16.7945 48.0903 20.4577 49.0004 24.3333 49.0004Z" fill="#222222" fill-opacity="0.4"/>
<path d="M31.6016 24.7726C31.6016 26.1107 32.6863 27.1954 34.0244 27.1954C35.3625 27.1954 36.4472 26.1107 36.4472 24.7726C36.4472 23.4346 35.3625 22.3499 34.0244 22.3499C32.6863 22.3499 31.6016 23.4346 31.6016 24.7726Z" fill="white"/>
<path d="M21.9105 24.7726C21.9105 26.1107 22.9953 27.1954 24.3333 27.1954C25.6714 27.1954 26.7561 26.1107 26.7561 24.7726C26.7561 23.4346 25.6714 22.3499 24.3333 22.3499C22.9953 22.3499 21.9105 23.4346 21.9105 24.7726Z" fill="white"/>
<path d="M12.2195 24.7726C12.2195 26.1107 13.3042 27.1954 14.6422 27.1954C15.9803 27.1954 17.065 26.1107 17.065 24.7726C17.065 23.4346 15.9803 22.3499 14.6422 22.3499C13.3042 22.3499 12.2195 23.4346 12.2195 24.7726Z" fill="white"/>
</svg>
