<svg width="53" height="62" viewBox="0 0 53 62" fill="none" xmlns="http://www.w3.org/2000/svg">
<path d="M18.5556 31.0004C18.5556 35.296 15.0733 38.7782 10.7778 38.7782C6.48223 38.7782 3 35.296 3 31.0004C3 26.7049 6.48223 23.2227 10.7778 23.2227C15.0733 23.2227 18.5556 26.7049 18.5556 31.0004Z" stroke="#0EAC3B" stroke-width="6"/>
<path d="M34.1122 13.8906L18.5566 24.7795" stroke="#0EAC3B" stroke-width="6" stroke-linecap="round"/>
<path d="M34.1122 48.1094L18.5566 37.2205" stroke="#0EAC3B" stroke-width="6" stroke-linecap="round"/>
<path d="M49.6649 51.2211C49.6649 55.5167 46.1827 58.9989 41.8872 58.9989C37.5916 58.9989 34.1094 55.5167 34.1094 51.2211C34.1094 46.9256 37.5916 43.4434 41.8872 43.4434C46.1827 43.4434 49.6649 46.9256 49.6649 51.2211Z" stroke="#0EAC3B" stroke-width="6"/>
<path d="M49.6649 10.7778C49.6649 15.0733 46.1827 18.5556 41.8872 18.5556C37.5916 18.5556 34.1094 15.0733 34.1094 10.7778C34.1094 6.48223 37.5916 3 41.8872 3C46.1827 3 49.6649 6.48223 49.6649 10.7778Z" stroke="#0EAC3B" stroke-width="6"/>
</svg>
