<svg width="64" height="64" viewBox="0 0 64 64" fill="none" xmlns="http://www.w3.org/2000/svg">
<path d="M32 0C14.368 0 0 14.368 0 32C0 49.632 14.368 64 32 64C49.632 64 64 49.632 64 32C64 14.368 49.632 0 32 0ZM44.8 34.4H34.4V44.8C34.4 46.112 33.312 47.2 32 47.2C30.688 47.2 29.6 46.112 29.6 44.8V34.4H19.2C17.888 34.4 16.8 33.312 16.8 32C16.8 30.688 17.888 29.6 19.2 29.6H29.6V19.2C29.6 17.888 30.688 16.8 32 16.8C33.312 16.8 34.4 17.888 34.4 19.2V29.6H44.8C46.112 29.6 47.2 30.688 47.2 32C47.2 33.312 46.112 34.4 44.8 34.4Z" fill="white"/>
</svg>
