<svg width="51" height="54" viewBox="0 0 51 54" fill="none" xmlns="http://www.w3.org/2000/svg">
<path d="M48.3357 11H3" stroke="#293847" stroke-width="5" stroke-linecap="round"/>
<path d="M43.8915 17.666L42.6649 36.0645C42.1929 43.1446 41.9569 46.6847 39.6501 48.8428C37.3433 51.0009 33.7954 51.0009 26.6996 51.0009H24.6372C17.5414 51.0009 13.9935 51.0009 11.6867 48.8428C9.37989 46.6847 9.14388 43.1446 8.67188 36.0645L7.44531 17.666" stroke="#293847" stroke-width="5" stroke-linecap="round"/>
<path d="M19.001 24.3359L20.3344 37.6699" stroke="#293847" stroke-width="5" stroke-linecap="round"/>
<path d="M32.3344 24.3359L31.001 37.6699" stroke="#293847" stroke-width="5" stroke-linecap="round"/>
<path d="M11.001 11.0004C11.15 11.0004 11.2245 11.0004 11.2921 10.9987C13.488 10.943 15.4252 9.54673 16.1725 7.48106C16.1954 7.41752 16.219 7.34684 16.2661 7.20546L16.525 6.42873C16.7461 5.76567 16.8566 5.43413 17.0032 5.15264C17.588 4.02957 18.67 3.24971 19.9204 3.05005C20.2338 3 20.5832 3 21.2822 3H30.0545C30.7534 3 31.1029 3 31.4163 3.05005C32.6667 3.24971 33.7487 4.02957 34.3335 5.15264C34.4801 5.43413 34.5906 5.76566 34.8116 6.42873L35.0705 7.20546C35.1176 7.34665 35.1412 7.41757 35.1642 7.48106C35.9114 9.54673 37.8487 10.943 40.0446 10.9987C40.1122 11.0004 40.1867 11.0004 40.3357 11.0004" stroke="#293847" stroke-width="5"/>
</svg>
