<svg width="95" height="86" viewBox="0 0 95 86" fill="none" xmlns="http://www.w3.org/2000/svg">
<circle cx="47.4442" cy="47.4427" r="13.3333" stroke="#4392F1" stroke-width="6"/>
<path d="M37.5679 83H57.321C71.1922 83 78.1278 83 83.11 79.7315C85.2669 78.3166 87.1187 76.4984 88.5599 74.3808C91.8889 69.4892 91.8889 62.6796 91.8889 49.0606C91.8889 35.4416 91.8889 28.6321 88.5599 23.7405C87.1187 21.6228 85.2669 19.8046 83.11 18.3897C79.9087 16.2895 75.9007 15.5388 69.7645 15.2705C66.8362 15.2705 64.315 13.0919 63.7407 10.2727C62.8793 6.04395 59.0975 3 54.7052 3H40.1837C35.7913 3 32.0096 6.04395 31.1481 10.2727C30.5739 13.0919 28.0527 15.2705 25.1244 15.2705C18.9882 15.5388 14.9802 16.2895 11.7789 18.3897C9.62202 19.8046 7.77015 21.6228 6.329 23.7405C3 28.6321 3 35.4416 3 49.0606C3 62.6796 3 69.4892 6.329 74.3808C7.77015 76.4984 9.62202 78.3166 11.7789 79.7315C16.7611 83 23.6967 83 37.5679 83Z" stroke="#4392F1" stroke-width="6"/>
<path d="M78.5553 34.1094H74.1108" stroke="#4392F1" stroke-width="6" stroke-linecap="round"/>
</svg>
