<svg width="66" height="48" viewBox="0 0 66 48" fill="none" xmlns="http://www.w3.org/2000/svg">
<path d="M48 13.5273V12C48 5.15455 37.6909 0 24 0C10.3091 0 0 5.15455 0 12V22.9091C0 28.6091 7.14545 33.1364 17.4545 34.5V36C17.4545 42.8455 27.7636 48 41.4545 48C55.1455 48 65.4545 42.8455 65.4545 36V25.0909C65.4545 19.4455 58.5273 14.9182 48 13.5273ZM61.0909 25.0909C61.0909 28.6909 52.6909 32.7273 41.4545 32.7273C40.4455 32.7273 39.4364 32.7 38.4273 32.6182C44.3182 30.4909 48 27 48 22.9091V17.9182C56.1545 19.1455 61.0909 22.4455 61.0909 25.0909ZM17.4545 30.0545V23.5909C19.6251 23.8699 21.8116 24.0065 24 24C26.1884 24.0065 28.3749 23.8699 30.5455 23.5909V30.0545C28.3802 30.392 26.1914 30.5561 24 30.5455C21.8086 30.5561 19.6198 30.392 17.4545 30.0545ZM43.6364 19.0636V22.9091C43.6364 25.2 40.2545 27.6545 34.9091 29.1545V22.7727C38.4273 21.9273 41.4 20.6455 43.6364 19.0636ZM24 4.36364C35.2364 4.36364 43.6364 8.4 43.6364 12C43.6364 15.6 35.2364 19.6364 24 19.6364C12.7636 19.6364 4.36364 15.6 4.36364 12C4.36364 8.4 12.7636 4.36364 24 4.36364ZM4.36364 22.9091V19.0636C6.6 20.6455 9.57273 21.9273 13.0909 22.7727V29.1545C7.74545 27.6545 4.36364 25.2 4.36364 22.9091ZM21.8182 36V34.8545L24 34.9091C25.0727 34.9091 26.1091 34.8818 27.1091 34.8273C28.2 35.2091 29.3455 35.5364 30.5455 35.8364V42.2455C25.2 40.7455 21.8182 38.2909 21.8182 36ZM34.9091 43.1455V36.6545C37.0794 36.9393 39.2657 37.085 41.4545 37.0909C43.643 37.0974 45.8294 36.9608 48 36.6818V43.1455C43.6609 43.8 39.2482 43.8 34.9091 43.1455ZM52.3636 42.2455V35.8636C55.8818 35.0182 58.8545 33.7364 61.0909 32.1545V36C61.0909 38.2909 57.7091 40.7455 52.3636 42.2455Z" fill="#B75400"/>
</svg>
