<svg width="40" height="40" viewBox="0 0 40 40" fill="none" xmlns="http://www.w3.org/2000/svg">
<path d="M35.8002 0.614378C35.4783 -0.204792 34.3233 -0.204793 34.0014 0.614378L33.1406 2.80495C33.0423 3.05505 32.8451 3.25302 32.5959 3.35165L30.4134 4.2156C29.5973 4.53868 29.5973 5.69801 30.4134 6.02108L32.5959 6.88503C32.8451 6.98367 33.0423 7.18164 33.1406 7.43174L34.0014 9.62231C34.3233 10.4415 35.4783 10.4415 35.8002 9.62231L36.661 7.43174C36.7593 7.18164 36.9565 6.98367 37.2057 6.88503L39.3882 6.02108C40.2043 5.69801 40.2043 4.53868 39.3882 4.2156L37.2057 3.35165C36.9565 3.25302 36.7593 3.05505 36.661 2.80495L35.8002 0.614378Z" fill="#293847"/>
<path d="M28.0655 12.2593C27.7436 11.4402 26.5886 11.4402 26.2667 12.2593L25.9528 13.058C25.8546 13.3081 25.6573 13.5061 25.4082 13.6047L24.6124 13.9197C23.7962 14.2428 23.7962 15.4021 24.6124 15.7252L25.4082 16.0402C25.6573 16.1389 25.8546 16.3368 25.9528 16.5869L26.2667 17.3856C26.5886 18.2048 27.7436 18.2048 28.0655 17.3856L28.3793 16.5869C28.4776 16.3368 28.6749 16.1389 28.924 16.0402L29.7198 15.7252C30.5359 15.4021 30.5359 14.2428 29.7198 13.9197L28.924 13.6047C28.6749 13.5061 28.4776 13.3081 28.3793 13.058L28.0655 12.2593Z" fill="#293847"/>
<path d="M20 40C31.0457 40 40 31.0457 40 20C40 19.0746 38.6131 18.9217 38.1345 19.7137C35.8579 23.4813 31.7231 26 27 26C19.8203 26 14 20.1797 14 13C14 8.27691 16.5187 4.14211 20.2863 1.86552C21.0783 1.38694 20.9254 0 20 0C8.9543 0 0 8.9543 0 20C0 31.0457 8.9543 40 20 40Z" fill="#293847"/>
</svg>
