<svg width="27" height="27" viewBox="0 0 27 27" fill="none" xmlns="http://www.w3.org/2000/svg">
<circle cx="13.4204" cy="13.2319" r="13" fill="#B75400"/>
<path d="M14.7971 9.03964L15.2991 8.53758C16.131 7.70574 17.4797 7.70574 18.3115 8.53758C19.1433 9.36942 19.1433 10.7181 18.3115 11.5499L17.8094 12.052L13.1938 16.6677C12.8811 16.9803 12.7248 17.1366 12.5525 17.271C12.3492 17.4296 12.1292 17.5656 11.8964 17.6765C11.6991 17.7705 11.4894 17.8405 11.0699 17.9803L9.29259 18.5727L8.85813 18.7175C8.65172 18.7863 8.42416 18.7326 8.27031 18.5788C8.11646 18.4249 8.06274 18.1974 8.13154 17.9909L8.27636 17.5565L8.86881 15.7791C9.00863 15.3597 9.07853 15.15 9.17257 14.9527C9.2835 14.7199 9.41946 14.4999 9.57804 14.2966C9.71247 14.1243 9.86878 13.9679 10.1814 13.6553L14.7971 9.03964Z" fill="white"/>
</svg>
