<svg width="86" height="86" viewBox="0 0 86 86" fill="none" xmlns="http://www.w3.org/2000/svg">
<path d="M3 43C3 24.1438 3 14.7157 8.85786 8.85786C14.7157 3 24.1438 3 43 3C61.8562 3 71.2843 3 77.1421 8.85786C83 14.7157 83 24.1438 83 43C83 61.8562 83 71.2843 77.1421 77.1421C71.2843 83 61.8562 83 43 83C24.1438 83 14.7157 83 8.85786 77.1421C3 71.2843 3 61.8562 3 43Z" stroke="#4392F1" stroke-width="6"/>
<ellipse cx="58.9998" cy="27" rx="8" ry="8" stroke="#4392F1" stroke-width="6"/>
<path d="M3 35.6089L6.92293 35.0456C34.8358 31.0376 58.6951 55.119 54.4286 82.9935" stroke="#4392F1" stroke-width="6" stroke-linecap="round"/>
<path d="M83.0022 48.534L79.1084 47.9948C67.7335 46.4199 57.4411 52.0829 52.1406 60.9961" stroke="#4392F1" stroke-width="6" stroke-linecap="round"/>
</svg>
