<svg width="80" height="80" viewBox="0 0 80 80" fill="none" xmlns="http://www.w3.org/2000/svg">
<path d="M62.3256 25.1163C62.3256 29.2263 58.9937 32.5581 54.8837 32.5581C50.7737 32.5581 47.4419 29.2263 47.4419 25.1163C47.4419 21.0063 50.7737 17.6744 54.8837 17.6744C58.9937 17.6744 62.3256 21.0063 62.3256 25.1163Z" fill="#222222"/>
<path fill-rule="evenodd" clip-rule="evenodd" d="M40.2135 7.48618e-07H39.7865C31.1972 -4.55829e-05 24.4658 -8.18386e-05 19.2138 0.706036C13.838 1.42879 9.59608 2.93703 6.26656 6.26656C2.93703 9.59608 1.42879 13.838 0.706036 19.2138C-8.18386e-05 24.4658 -4.55829e-05 31.1971 7.48611e-07 39.7864V40.2135C-4.55829e-05 48.8028 -8.18386e-05 55.5342 0.706036 60.7862C1.42879 66.162 2.93703 70.4039 6.26656 73.7335C9.59608 77.063 13.838 78.5712 19.2138 79.294C24.4658 80.0001 31.1971 80.0001 39.7865 80H40.2135C48.8029 80.0001 55.5342 80.0001 60.7862 79.294C66.162 78.5712 70.4039 77.063 73.7335 73.7335C77.063 70.4039 78.5712 66.162 79.294 60.7862C80.0001 55.5342 80.0001 48.8029 80 40.2135V39.7865C80.0001 31.1971 80.0001 24.4658 79.294 19.2138C78.5712 13.838 77.063 9.59608 73.7335 6.26656C70.4039 2.93703 66.162 1.42879 60.7862 0.706036C55.5342 -8.18386e-05 48.8028 -4.55829e-05 40.2135 7.48618e-07ZM10.2132 10.2132C12.3328 8.09355 15.2006 6.8772 19.9575 6.23766C24.7946 5.58733 31.1508 5.5814 40 5.5814C48.8492 5.5814 55.2054 5.58733 60.0425 6.23766C64.7994 6.8772 67.6672 8.09355 69.7868 10.2132C71.9065 12.3328 73.1228 15.2006 73.7623 19.9575C74.4127 24.7946 74.4186 31.1508 74.4186 40C74.4186 41.6753 74.4184 43.2612 74.4136 44.7644L73.5872 44.65C63.0059 43.1849 53.3228 48.6857 48.392 56.9771C42.0312 40.8842 25.2221 29.9091 6.43994 32.606L5.59987 32.7271C5.64216 27.4974 5.78113 23.3531 6.23766 19.9575C6.8772 15.2006 8.09355 12.3328 10.2132 10.2132Z" fill="#222222"/>
</svg>
