<svg width="46" height="45" viewBox="0 0 46 45" fill="none" xmlns="http://www.w3.org/2000/svg">
<path d="M33.2151 22.5C33.2151 28.2797 28.5297 32.9651 22.75 32.9651C16.9703 32.9651 12.2849 28.2797 12.2849 22.5C12.2849 16.7203 16.9703 12.0349 22.75 12.0349C28.5297 12.0349 33.2151 16.7203 33.2151 22.5Z" fill="#4392F1"/>
<path fill-rule="evenodd" clip-rule="evenodd" d="M22.75 0C23.617 0 24.3198 0.702809 24.3198 1.56977V5.75581C24.3198 6.62277 23.617 7.32558 22.75 7.32558C21.883 7.32558 21.1802 6.62277 21.1802 5.75581V1.56977C21.1802 0.702809 21.883 0 22.75 0ZM5.31229 5.16158C5.89729 4.52174 6.89022 4.47729 7.53006 5.06229L12.1808 9.31445C12.8206 9.89945 12.8651 10.8924 12.2801 11.5322C11.6951 12.172 10.7021 12.2165 10.0623 11.6315L5.41158 7.37934C4.77174 6.79434 4.72729 5.80141 5.31229 5.16158ZM40.1877 5.16158C40.7727 5.80141 40.7283 6.79434 40.0884 7.37934L35.4377 11.6315C34.7979 12.2165 33.8049 12.172 33.2199 11.5322C32.6349 10.8924 32.6794 9.89945 33.3192 9.31445L37.9699 5.06229C38.6098 4.47729 39.6027 4.52174 40.1877 5.16158ZM0.25 22.5C0.25 21.633 0.952809 20.9302 1.81977 20.9302H6.00581C6.87277 20.9302 7.57558 21.633 7.57558 22.5C7.57558 23.367 6.87277 24.0698 6.00581 24.0698H1.81977C0.952809 24.0698 0.25 23.367 0.25 22.5ZM37.9244 22.5C37.9244 21.633 38.6272 20.9302 39.4942 20.9302H43.6802C44.5472 20.9302 45.25 21.633 45.25 22.5C45.25 23.367 44.5472 24.0698 43.6802 24.0698H39.4942C38.6272 24.0698 37.9244 23.367 37.9244 22.5ZM33.2685 33.0178C33.8816 32.4048 34.8755 32.4049 35.4885 33.018L40.1392 37.6693C40.7522 38.2823 40.7522 39.2763 40.1391 39.8892C39.526 40.5022 38.5321 40.5022 37.9191 39.8891L33.2684 35.2378C32.6554 34.6247 32.6555 33.6308 33.2685 33.0178ZM12.2319 33.0181C12.8449 33.6312 12.8449 34.6251 12.2319 35.2381L7.5807 39.8893C6.96766 40.5023 5.97374 40.5023 5.36071 39.8893C4.74768 39.2763 4.74768 38.2823 5.36071 37.6693L10.0119 33.0181C10.6249 32.4051 11.6188 32.4051 12.2319 33.0181ZM22.75 37.6744C23.617 37.6744 24.3198 38.3772 24.3198 39.2442V43.4302C24.3198 44.2972 23.617 45 22.75 45C21.883 45 21.1802 44.2972 21.1802 43.4302V39.2442C21.1802 38.3772 21.883 37.6744 22.75 37.6744Z" fill="#4392F1"/>
</svg>
