<svg width="72" height="70" viewBox="0 0 72 70" fill="none" xmlns="http://www.w3.org/2000/svg">
<path d="M3 34.1793C3 21.8019 3 15.6132 6.84516 11.768C10.6903 7.92285 16.879 7.92285 29.2564 7.92285H42.3846C54.762 7.92285 60.9507 7.92285 64.7959 11.768C68.641 15.6132 68.641 21.8019 68.641 34.1793V40.7434C68.641 53.1208 68.641 59.3094 64.7959 63.1546C60.9507 66.9998 54.762 66.9998 42.3846 66.9998H29.2564C16.879 66.9998 10.6903 66.9998 6.84516 63.1546C3 59.3094 3 53.1208 3 40.7434V34.1793Z" stroke="#B75400" stroke-width="5"/>
<path d="M19.4102 7.92308V3" stroke="#B75400" stroke-width="5" stroke-linecap="round"/>
<path d="M52.2305 7.92308V3" stroke="#B75400" stroke-width="5" stroke-linecap="round"/>
<path d="M4.64062 24.334H66.9996" stroke="#B75400" stroke-width="5" stroke-linecap="round"/>
<path d="M55.5133 50.5899C55.5133 52.4026 54.0439 53.872 52.2313 53.872C50.4186 53.872 48.9492 52.4026 48.9492 50.5899C48.9492 48.7773 50.4186 47.3079 52.2313 47.3079C54.0439 47.3079 55.5133 48.7773 55.5133 50.5899Z" fill="#B75400"/>
<path d="M55.5133 37.4617C55.5133 39.2744 54.0439 40.7438 52.2313 40.7438C50.4186 40.7438 48.9492 39.2744 48.9492 37.4617C48.9492 35.6491 50.4186 34.1797 52.2313 34.1797C54.0439 34.1797 55.5133 35.6491 55.5133 37.4617Z" fill="#B75400"/>
<path d="M39.1012 50.5899C39.1012 52.4026 37.6318 53.872 35.8192 53.872C34.0065 53.872 32.5371 52.4026 32.5371 50.5899C32.5371 48.7773 34.0065 47.3079 35.8192 47.3079C37.6318 47.3079 39.1012 48.7773 39.1012 50.5899Z" fill="#B75400"/>
<path d="M39.1012 37.4617C39.1012 39.2744 37.6318 40.7438 35.8192 40.7438C34.0065 40.7438 32.5371 39.2744 32.5371 37.4617C32.5371 35.6491 34.0065 34.1797 35.8192 34.1797C37.6318 34.1797 39.1012 35.6491 39.1012 37.4617Z" fill="#B75400"/>
<path d="M22.693 50.5899C22.693 52.4026 21.2236 53.872 19.411 53.872C17.5983 53.872 16.1289 52.4026 16.1289 50.5899C16.1289 48.7773 17.5983 47.3079 19.411 47.3079C21.2236 47.3079 22.693 48.7773 22.693 50.5899Z" fill="#B75400"/>
<path d="M22.693 37.4617C22.693 39.2744 21.2236 40.7438 19.411 40.7438C17.5983 40.7438 16.1289 39.2744 16.1289 37.4617C16.1289 35.6491 17.5983 34.1797 19.411 34.1797C21.2236 34.1797 22.693 35.6491 22.693 37.4617Z" fill="#B75400"/>
</svg>
