<svg width="350" height="350" viewBox="0 0 350 350" fill="none" xmlns="http://www.w3.org/2000/svg">
<rect width="350" height="350" rx="35" fill="#084277" fill-opacity="0.2"/>
<path d="M215 175C214.72 175 214.456 175.072 214.184 175.08C214.72 172.472 215 169.768 215 167C215 144.912 197.088 127 175 127C152.912 127 135 144.912 135 167C135 167.136 135.04 167.264 135.04 167.4C121.472 169.336 111 180.896 111 195C111 210.464 123.536 223 139 223H159.064C163.448 223 167 219.448 167 215.064V191H150.024L175 159L199.976 191H183V215.064C183 219.448 186.552 223 190.936 223H215C228.256 223 239 212.256 239 199C239 185.744 228.256 175 215 175Z" fill="#293847" fill-opacity="0.4"/>
</svg>
