<svg width="66" height="87" viewBox="0 0 66 87" fill="none" xmlns="http://www.w3.org/2000/svg">
<path d="M61.8418 78.0672C53.6385 83.7022 43.7045 87 33.0002 87C22.2956 87 12.3614 83.7021 4.15801 78.0668C0.534876 75.5779 -1.01346 70.837 1.09311 66.979C5.46007 58.9813 14.4584 54 32.9999 54C51.5417 54 60.54 58.9815 64.9068 66.9794C67.0133 70.8374 65.4649 75.5784 61.8418 78.0672Z" fill="#084277"/>
<path d="M33.0003 36C42.9414 36 51.0003 27.9411 51.0003 18C51.0003 8.05887 42.9414 0 33.0003 0C23.0591 0 15.0003 8.05887 15.0003 18C15.0003 27.9411 23.0591 36 33.0003 36Z" fill="#084277"/>
</svg>
