<svg width="56" height="48" viewBox="0 0 56 48" fill="none" xmlns="http://www.w3.org/2000/svg">
<path d="M53.9 16.016C47.432 5.852 37.968 0 28 0C23.016 0 18.172 1.456 13.748 4.172C9.324 6.916 5.348 10.92 2.1 16.016C-0.7 20.412 -0.7 27.552 2.1 31.948C8.568 42.14 18.032 47.964 28 47.964C32.984 47.964 37.828 46.508 42.252 43.792C46.676 41.048 50.652 37.044 53.9 31.948C56.7 27.58 56.7 20.412 53.9 16.016ZM28 35.308C21.728 35.308 16.688 30.24 16.688 23.996C16.688 17.752 21.728 12.684 28 12.684C34.272 12.684 39.312 17.752 39.312 23.996C39.312 30.24 34.272 35.308 28 35.308Z" fill="#292D32" fill-opacity="0.6"/>
<path d="M27.9956 15.9844C23.5996 15.9844 20.0156 19.5684 20.0156 23.9924C20.0156 28.3884 23.5996 31.9724 27.9956 31.9724C32.3916 31.9724 36.0036 28.3884 36.0036 23.9924C36.0036 19.5964 32.3916 15.9844 27.9956 15.9844Z" fill="#292D32" fill-opacity="0.6"/>
</svg>
