<svg width="57" height="56" viewBox="0 0 57 56" fill="none" xmlns="http://www.w3.org/2000/svg">
<path d="M53.9739 20.1083C53.1617 18.82 52.2935 17.6157 51.3973 16.4954C50.361 15.1791 48.4005 15.0671 47.2242 16.2434L38.8221 24.6455C39.4383 26.4939 39.5503 28.6225 38.9902 30.835C38.0099 34.784 34.8171 37.9768 30.8681 38.9571C28.6556 39.5172 26.527 39.4052 24.6786 38.789C24.6786 38.789 20.6736 42.794 17.7889 45.6787C16.3885 47.0791 16.8366 49.5437 18.7131 50.2719C21.7098 51.4202 24.8186 52.0083 28.0114 52.0083C32.9967 52.0083 37.8419 50.5519 42.267 47.8353C46.7761 45.0346 50.8371 40.9175 54.1139 35.6802C56.7746 31.4512 56.6346 24.3374 53.9739 20.1083Z" fill="#292D32" fill-opacity="0.6"/>
<path d="M33.6655 22.3526L22.3506 33.6674C20.9223 32.2111 19.998 30.1945 19.998 28.01C19.998 23.6129 23.5829 20 28.008 20C30.1926 20 32.2091 20.9242 33.6655 22.3526Z" fill="#292D32" fill-opacity="0.6"/>
<path d="M45.5114 10.5054L36.017 19.9998C33.9725 17.9273 31.1438 16.695 28.007 16.695C21.7334 16.695 16.6922 21.7643 16.6922 28.0098C16.6922 31.1466 17.9525 33.9753 19.997 36.0198L10.5306 45.5142H10.5026C7.39385 42.9936 4.53713 39.7728 2.10052 35.9638C-0.700175 31.5667 -0.700175 24.4249 2.10052 20.0278C5.34934 14.9305 9.32633 10.9255 13.7514 8.18086C18.1765 5.49218 23.0218 4.00781 28.007 4.00781C34.2526 4.00781 40.3021 6.30439 45.5114 10.5054Z" fill="#292D32" fill-opacity="0.6"/>
<path d="M36.0115 28.0074C36.0115 32.4045 32.4266 36.0174 28.0015 36.0174C27.8335 36.0174 27.6934 36.0174 27.5254 35.9614L35.9555 27.5312C36.0115 27.6993 36.0115 27.8393 36.0115 28.0074Z" fill="#292D32" fill-opacity="0.6"/>
<path d="M55.3656 0.630158C54.5254 -0.210053 53.1531 -0.210053 52.3128 0.630158L0.639923 52.3311C-0.200287 53.1713 -0.200287 54.5436 0.639923 55.3838C1.06003 55.7759 1.59216 56 2.1523 56C2.71244 56 3.24457 55.7759 3.66468 55.3558L55.3656 3.65491C56.2338 2.8147 56.2338 1.47037 55.3656 0.630158Z" fill="#292D32" fill-opacity="0.6"/>
</svg>
