<svg width="55" height="52" viewBox="0 0 55 52" fill="none" xmlns="http://www.w3.org/2000/svg">
<path d="M12.1055 19.6846H22.2107" stroke="#B75400" stroke-width="3.5" stroke-linecap="round" stroke-linejoin="round"/>
<path d="M49.5791 22.2109H43.0042C38.4965 22.2109 34.8423 25.6041 34.8423 29.7899C34.8423 33.9756 38.4965 37.3688 43.0042 37.3688H49.5791C49.7897 37.3688 49.8949 37.3688 49.9838 37.3634C51.3462 37.2805 52.4314 36.2728 52.5207 35.0077C52.5265 34.9252 52.5265 34.8275 52.5265 34.632V24.9478C52.5265 24.7523 52.5265 24.6546 52.5207 24.572C52.4314 23.307 51.3462 22.2993 49.9838 22.2163C49.8949 22.2109 49.7897 22.2109 49.5791 22.2109Z" stroke="#B75400" stroke-width="3.5"/>
<path d="M49.9117 22.2107C49.7152 17.4807 49.0819 14.5806 47.0402 12.5389C44.0805 9.5791 39.3168 9.5791 29.7895 9.5791H22.2105C12.6832 9.5791 7.91953 9.5791 4.95976 12.5389C2 15.4986 2 20.2623 2 29.7896C2 39.317 2 44.0806 4.95976 47.0404C7.91953 50.0002 12.6832 50.0002 22.2105 50.0002H29.7895C39.3168 50.0002 44.0805 50.0002 47.0402 47.0404C49.0819 44.9987 49.7152 42.0986 49.9117 37.3686" stroke="#B75400" stroke-width="3.5"/>
<path d="M12.1055 9.57895L21.5425 3.3216C24.2 1.55947 27.8004 1.55947 30.4579 3.3216L39.8949 9.57895" stroke="#B75400" stroke-width="3.5" stroke-linecap="round"/>
<path d="M42.399 29.7891H42.4217" stroke="#B75400" stroke-width="3.5" stroke-linecap="round" stroke-linejoin="round"/>
</svg>
