<svg width="136" height="136" viewBox="0 0 136 136" fill="none" xmlns="http://www.w3.org/2000/svg">
<rect width="136" height="136" rx="68" fill="#F4EAFF"/>
<path d="M39.3581 82.6362L44.9587 65.8347C47.4979 58.2169 48.7675 54.408 51.7717 53.6988C54.7759 52.9896 57.6148 55.8286 63.2928 61.5066L74.4938 72.7076C80.1718 78.3856 83.0108 81.2245 82.3016 84.2287C81.5924 87.2329 77.7835 88.5025 70.1657 91.0417L53.3642 96.6423C44.1971 99.6979 39.6136 101.226 37.1941 98.8063C34.7746 96.3868 36.3025 91.8033 39.3581 82.6362Z" stroke="#9C38FF" stroke-width="4.5" stroke-linecap="round"/>
<path d="M66.6171 91.1983C66.6171 91.1983 64.1038 83.6366 64.1038 78.6319C64.1038 73.6273 66.6171 66.0656 66.6171 66.0656M52.7941 94.9682C52.7941 94.9682 50.6715 85.846 50.2808 79.8886C49.6354 70.0458 52.7941 54.7559 52.7941 54.7559" stroke="#9C38FF" stroke-width="4.5" stroke-linecap="round"/>
<path d="M74.1553 63.5542L74.6326 61.1677C75.1145 58.7581 76.8506 56.7915 79.1818 56.0144C81.513 55.2374 83.2491 53.2707 83.7311 50.8611L84.2084 48.4746" stroke="#9C38FF" stroke-width="4.5" stroke-linecap="round"/>
<path d="M84.2993 74.3191L85.0049 74.7264C87.1832 75.9841 89.9218 75.7067 91.8037 74.0379C93.5079 72.5267 95.9349 72.1434 98.0218 73.0559L98.9881 73.4784" stroke="#9C38FF" stroke-width="4.5" stroke-linecap="round"/>
<path d="M58.5275 39.6003C57.4088 41.4304 57.6891 43.7885 59.2058 45.3052L59.5303 45.6296C60.8336 46.9329 61.3141 48.8475 60.7808 50.6118" stroke="#9C38FF" stroke-width="4.5" stroke-linecap="round"/>
<path d="M49.0227 43.4505C49.7171 42.7561 50.8429 42.7561 51.5373 43.4505C52.2316 44.1448 52.2316 45.2706 51.5373 45.965C50.8429 46.6594 49.7171 46.6594 49.0227 45.965C48.3284 45.2706 48.3284 44.1448 49.0227 43.4505Z" fill="#9C38FF"/>
<path d="M66.3582 54.1126C67.0525 53.4182 68.1783 53.4182 68.8727 54.1126C69.5671 54.8069 69.5671 55.9327 68.8727 56.6271C68.1783 57.3215 67.0525 57.3215 66.3582 56.6271C65.6638 55.9327 65.6638 54.8069 66.3582 54.1126Z" fill="#9C38FF"/>
<path d="M82.9329 64.0559C83.6273 63.3616 84.753 63.3616 85.4474 64.0559C86.1418 64.7503 86.1418 65.8761 85.4474 66.5705C84.753 67.2648 83.6273 67.2648 82.9329 66.5705C82.2385 65.8761 82.2385 64.7503 82.9329 64.0559Z" fill="#9C38FF"/>
<path d="M89.2337 81.1497C89.928 80.4553 91.0538 80.4553 91.7482 81.1497C92.4426 81.8441 92.4426 82.9698 91.7482 83.6642C91.0538 84.3586 89.928 84.3586 89.2337 83.6642C88.5393 82.9698 88.5393 81.8441 89.2337 81.1497Z" fill="#9C38FF"/>
<path d="M90.2409 55.9562C88.0191 58.178 89.6135 64.6201 89.6135 64.6201C89.6135 64.6201 96.0556 66.2146 98.2775 63.9927C100.631 61.6395 99.2992 58.5508 95.6732 58.5605C95.6829 54.9345 92.5942 53.6029 90.2409 55.9562Z" stroke="#9C38FF" stroke-width="4.5" stroke-linejoin="round"/>
<path d="M76.4055 41.7153L76.314 42.0372C76.2135 42.3908 76.1633 42.5676 76.187 42.7411C76.2108 42.9147 76.3059 43.0654 76.496 43.3667L76.6691 43.6411C77.3383 44.7016 77.6729 45.2318 77.4449 45.6655C77.217 46.0992 76.5775 46.1492 75.2985 46.249L74.9676 46.2749C74.6041 46.3032 74.4224 46.3174 74.2635 46.4009C74.1046 46.4844 73.9866 46.6278 73.7505 46.9145L73.5356 47.1756C72.7049 48.1845 72.2896 48.689 71.8158 48.6242C71.342 48.5593 71.1235 47.968 70.6866 46.7855L70.5736 46.4795C70.4494 46.1435 70.3873 45.9754 70.2654 45.8535C70.1434 45.7315 69.9754 45.6695 69.6394 45.5453L69.3334 45.4323C68.1509 44.9954 67.5596 44.7769 67.4947 44.3031C67.4298 43.8293 67.9343 43.414 68.9433 42.5833L69.2044 42.3683C69.4911 42.1323 69.6344 42.0142 69.718 41.8554C69.8015 41.6965 69.8156 41.5148 69.844 41.1513L69.8698 40.8204C69.9697 39.5414 70.0196 38.9019 70.4533 38.674C70.887 38.446 71.4173 38.7806 72.4778 39.4497L72.7521 39.6228C73.0535 39.813 73.2042 39.9081 73.3777 39.9318C73.5513 39.9556 73.7281 39.9054 74.0817 39.8049L74.4036 39.7134C75.6478 39.3599 76.27 39.1831 76.6029 39.516C76.9358 39.8489 76.759 40.471 76.4055 41.7153Z" stroke="#9C38FF" stroke-width="4.5"/>
</svg>
