<svg width="136" height="136" viewBox="0 0 136 136" fill="none" xmlns="http://www.w3.org/2000/svg">
<rect width="136" height="136" rx="68" fill="#FFF7E7"/>
<path d="M67.6914 56.4609V63.3838" stroke="#EC9C00" stroke-width="5" stroke-linecap="round" stroke-linejoin="round"/>
<path d="M44.6152 63.3848H90.7673C91.9914 63.3848 93.1652 63.871 94.0308 64.7365C94.8963 65.6021 95.3825 66.7759 95.3825 68V74.7295C95.3825 79.7601 91.4394 84.0119 86.4117 84.1503C85.1781 84.185 83.9501 83.972 82.8003 83.5239C81.6505 83.0758 80.6021 82.4016 79.7174 81.5413C78.8326 80.681 78.1293 79.6521 77.6491 78.5152C77.1689 77.3784 76.9216 76.1569 76.9217 74.9228C76.9217 77.3709 75.9492 79.7186 74.2182 81.4497C72.4871 83.1807 70.1393 84.1532 67.6913 84.1532C65.2432 84.1532 62.8954 83.1807 61.1644 81.4497C59.4333 79.7186 58.4608 77.3709 58.4608 74.9228C58.4613 76.1571 58.2143 77.379 57.7342 78.5161C57.2542 79.6533 56.551 80.6826 55.6662 81.5432C54.7814 82.4038 53.7329 83.0782 52.5829 83.5265C51.4329 83.9748 50.2046 84.1879 48.9708 84.1532C43.9431 84.0119 40 79.7601 40 74.7295V68C40 66.7759 40.4862 65.6021 41.3518 64.7365C42.2173 63.871 43.3912 63.3848 44.6152 63.3848Z" stroke="#EC9C00" stroke-width="5" stroke-linecap="round" stroke-linejoin="round"/>
<path d="M93.0749 80.9531V93.3854C93.0749 94.6094 92.5887 95.7833 91.7232 96.6488C90.8577 97.5143 89.6838 98.0006 88.4597 98.0006H46.9228C45.6988 98.0006 44.5249 97.5143 43.6594 96.6488C42.7939 95.7833 42.3076 94.6094 42.3076 93.3854V80.9531" stroke="#EC9C00" stroke-width="5" stroke-linecap="round" stroke-linejoin="round"/>
<path d="M74.6142 49.538C74.6142 51.3741 73.8848 53.1349 72.5865 54.4332C71.2883 55.7315 69.5274 56.4608 67.6914 56.4608C65.8553 56.4608 64.0945 55.7315 62.7962 54.4332C61.4979 53.1349 60.7686 51.3741 60.7686 49.538C60.7686 42.6152 67.6914 38 67.6914 38C67.6914 38 74.6142 42.6152 74.6142 49.538Z" stroke="#EC9C00" stroke-width="5" stroke-linecap="round" stroke-linejoin="round"/>
</svg>
