<svg width="136" height="136" viewBox="0 0 136 136" fill="none" xmlns="http://www.w3.org/2000/svg">
<rect width="136" height="136" rx="68" fill="#FFEDED"/>
<path d="M40 67.5C40 56.8934 40 51.5901 43.295 48.295C46.5901 45 51.8934 45 62.5 45H73.75C84.3566 45 89.6599 45 92.9549 48.295C96.25 51.5901 96.25 56.8934 96.25 67.5C96.25 78.1066 96.25 83.4099 92.9549 86.705C89.6599 90 84.3566 90 73.75 90H62.5C51.8934 90 46.5901 90 43.295 86.705C40 83.4099 40 78.1066 40 67.5Z" stroke="#FF4D4D" stroke-width="5"/>
<path d="M51.25 56.25L57.3219 61.3099C62.4874 65.6145 65.0702 67.7668 68.125 67.7668C71.1798 67.7668 73.7626 65.6145 78.9281 61.3099L85 56.25" stroke="#FF4D4D" stroke-width="5" stroke-linecap="round"/>
</svg>
