<svg width="136" height="136" viewBox="0 0 136 136" fill="none" xmlns="http://www.w3.org/2000/svg">
<rect width="136" height="136" rx="68" fill="#E6F0FF"/>
<path d="M77.1667 76.0725L75.404 74.2997L77.1667 76.0725ZM78.4527 74.7939L80.2154 76.5667L78.4527 74.7939ZM85.2762 73.8995L84.0822 76.096H84.0822L85.2762 73.8995ZM90.6706 76.832L89.4766 79.0284L90.6706 76.832ZM92.1906 86.0225L93.9533 87.7953V87.7953L92.1906 86.0225ZM88.1796 90.0107L86.4169 88.2379L88.1796 90.0107ZM84.4389 91.9016L84.6709 94.3908H84.6709L84.4389 91.9016ZM56.5963 79.9338L58.359 78.161L56.5963 79.9338ZM43.0082 54.5758L40.5122 54.7177L40.5122 54.7177L43.0082 54.5758ZM61.2895 58.675L63.0522 60.4478L61.2895 58.675ZM61.732 51.1816L63.7333 49.6834V49.6834L61.732 51.1816ZM58.1715 46.4256L56.1702 47.9239L56.1702 47.9239L58.1715 46.4256ZM49.3853 45.623L51.148 47.3958V47.3958L49.3853 45.623ZM44.9535 50.0297L43.1907 48.2569H43.1907L44.9535 50.0297ZM65.7665 70.8157L67.5292 69.0429L65.7665 70.8157ZM78.9295 77.8453L80.2154 76.5667L76.69 73.0211L75.404 74.2997L78.9295 77.8453ZM84.0822 76.096L89.4766 79.0284L91.8646 74.6355L86.4702 71.7031L84.0822 76.096ZM90.4279 84.2497L86.4169 88.2379L89.9424 91.7835L93.9533 87.7953L90.4279 84.2497ZM84.2069 89.4124C80.2047 89.7855 69.7322 89.4696 58.359 78.161L54.8336 81.7066C67.4422 94.2437 79.4716 94.8755 84.6709 94.3908L84.2069 89.4124ZM58.359 78.161C47.496 67.3597 45.7243 58.3073 45.5041 54.434L40.5122 54.7177C40.8011 59.8018 43.0821 70.0219 54.8336 81.7066L58.359 78.161ZM62.2424 61.253L63.0522 60.4478L59.5267 56.9022L58.7169 57.7074L62.2424 61.253ZM63.7333 49.6834L60.1729 44.9274L56.1702 47.9239L59.7307 52.6798L63.7333 49.6834ZM47.6225 43.8503L43.1907 48.2569L46.7162 51.8025L51.148 47.3958L47.6225 43.8503ZM60.4796 59.4802C58.7169 57.7074 58.7145 57.7098 58.7121 57.7122C58.7113 57.713 58.7089 57.7154 58.7073 57.717C58.7041 57.7203 58.7008 57.7236 58.6974 57.727C58.6907 57.7338 58.6838 57.7409 58.6767 57.7482C58.6626 57.7629 58.6477 57.7787 58.6321 57.7956C58.601 57.8295 58.5671 57.8678 58.5312 57.9107C58.4593 57.9965 58.3788 58.1009 58.2949 58.2247C58.1266 58.4731 57.9457 58.7979 57.7929 59.2033C57.4807 60.0319 57.3201 61.1075 57.5238 62.4202C57.9209 64.98 59.6687 68.2781 64.0037 72.5885L67.5292 69.0429C63.5207 65.0572 62.6251 62.6875 62.4647 61.6536C62.3895 61.1694 62.4717 60.9666 62.4718 60.9662C62.4753 60.957 62.468 60.9795 62.4343 61.0293C62.4177 61.0538 62.3947 61.0848 62.3635 61.122C62.3479 61.1407 62.3302 61.1609 62.3101 61.1827C62.3001 61.1936 62.2894 61.2049 62.2782 61.2166C62.2725 61.2225 62.2667 61.2284 62.2608 61.2345C62.2578 61.2375 62.2548 61.2406 62.2517 61.2437C62.2502 61.2452 62.2478 61.2475 62.2471 61.2483C62.2447 61.2506 62.2424 61.253 60.4796 59.4802ZM64.0037 72.5885C68.3405 76.9007 71.6534 78.6332 74.2164 79.0263C75.5293 79.2277 76.6038 79.0688 77.4314 78.7606C77.8366 78.6096 78.1616 78.4307 78.4104 78.264C78.5345 78.1809 78.6392 78.1011 78.7253 78.0298C78.7684 77.9941 78.8068 77.9605 78.8408 77.9296C78.8578 77.9141 78.8736 77.8993 78.8884 77.8853C78.8958 77.8782 78.9029 77.8714 78.9097 77.8647C78.9132 77.8614 78.9165 77.8581 78.9198 77.8549C78.9214 77.8533 78.9239 77.8509 78.9247 77.8501C78.9271 77.8477 78.9295 77.8453 77.1667 76.0725C75.404 74.2997 75.4064 74.2974 75.4087 74.2951C75.4095 74.2943 75.4118 74.292 75.4134 74.2905C75.4165 74.2874 75.4195 74.2844 75.4226 74.2815C75.4287 74.2755 75.4347 74.2698 75.4406 74.2642C75.4523 74.253 75.4637 74.2424 75.4746 74.2324C75.4965 74.2125 75.5168 74.1949 75.5354 74.1795C75.5727 74.1486 75.6035 74.1261 75.6278 74.1099C75.6769 74.077 75.6978 74.0707 75.6861 74.0751C75.6798 74.0774 75.4686 74.1599 74.9744 74.0841C73.9232 73.9229 71.536 73.027 67.5292 69.0429L64.0037 72.5885ZM60.1729 44.9274C57.1641 40.9084 51.2345 40.2588 47.6225 43.8503L51.148 47.3958C52.4745 46.0769 54.8704 46.1876 56.1702 47.9239L60.1729 44.9274ZM45.5041 54.434C45.4565 53.5963 45.8375 52.6762 46.7162 51.8025L43.1907 48.2569C41.6207 49.818 40.3608 52.0541 40.5122 54.7177L45.5041 54.434ZM86.4169 88.2379C85.685 88.9657 84.9315 89.3448 84.2069 89.4124L84.6709 94.3908C86.8568 94.187 88.6346 93.0838 89.9424 91.7835L86.4169 88.2379ZM63.0522 60.4478C65.9737 57.5429 66.1837 52.9565 63.7333 49.6834L59.7307 52.6798C60.7614 54.0566 60.5952 55.8398 59.5267 56.9022L63.0522 60.4478ZM89.4766 79.0284C91.5771 80.1703 91.8639 82.8218 90.4279 84.2497L93.9533 87.7953C97.9322 83.839 96.6923 77.2599 91.8646 74.6355L89.4766 79.0284ZM80.2154 76.5667C81.1745 75.6131 82.7344 75.3633 84.0822 76.096L86.4702 71.7031C83.2689 69.9628 79.2863 70.4394 76.69 73.0211L80.2154 76.5667Z" fill="#1573FF"/>
</svg>
