<svg width="19" height="19" viewBox="0 0 19 19" fill="none" xmlns="http://www.w3.org/2000/svg">
<path d="M1.3479 11.1593C1.3479 8.09854 1.3479 6.56819 2.29874 5.61735C3.24958 4.6665 4.77994 4.6665 7.84065 4.6665H11.087C14.1477 4.6665 15.6781 4.6665 16.6289 5.61735C17.5798 6.56819 17.5798 8.09854 17.5798 11.1593C17.5798 14.22 17.5798 15.7503 16.6289 16.7012C15.6781 17.652 14.1477 17.652 11.087 17.652H7.84065C4.77994 17.652 3.24958 17.652 2.29874 16.7012C1.3479 15.7503 1.3479 14.22 1.3479 11.1593Z" stroke="#222222" stroke-opacity="0.6" stroke-width="1.73913"/>
<path d="M12.7103 4.66679C12.7103 3.13643 12.7103 2.37125 12.2349 1.89583C11.7594 1.42041 10.9943 1.42041 9.46391 1.42041C7.93355 1.42041 7.16837 1.42041 6.69295 1.89583C6.21753 2.37125 6.21753 3.13643 6.21753 4.66679" stroke="#222222" stroke-opacity="0.6" stroke-width="1.73913"/>
<path d="M13.5219 7.10163C13.5219 7.54986 13.1585 7.91323 12.7103 7.91323C12.262 7.91323 11.8987 7.54986 11.8987 7.10163C11.8987 6.6534 12.262 6.29004 12.7103 6.29004C13.1585 6.29004 13.5219 6.6534 13.5219 7.10163Z" fill="#222222" fill-opacity="0.3"/>
<path d="M12.6523 7.10163C12.6523 7.06962 12.6783 7.04366 12.7103 7.04366C12.7423 7.04366 12.7682 7.06962 12.7682 7.10163C12.7682 7.13365 12.7423 7.1596 12.7103 7.1596C12.6783 7.1596 12.6523 7.13365 12.6523 7.10163Z" stroke="#222222" stroke-opacity="0.6" stroke-width="1.73913"/>
<path d="M7.02895 7.10163C7.02895 7.54986 6.66559 7.91323 6.21736 7.91323C5.76912 7.91323 5.40576 7.54986 5.40576 7.10163C5.40576 6.6534 5.76912 6.29004 6.21736 6.29004C6.66559 6.29004 7.02895 6.6534 7.02895 7.10163Z" fill="#222222" fill-opacity="0.3"/>
<path d="M6.15938 7.10163C6.15938 7.06962 6.18534 7.04366 6.21736 7.04366C6.24937 7.04366 6.27533 7.06962 6.27533 7.10163C6.27533 7.13365 6.24937 7.1596 6.21736 7.1596C6.18534 7.1596 6.15938 7.13365 6.15938 7.10163Z" stroke="#222222" stroke-opacity="0.6" stroke-width="1.73913"/>
</svg>
