<svg width="163" height="156" viewBox="0 0 163 156" fill="none" xmlns="http://www.w3.org/2000/svg">
<path d="M0 64.5186C0 63.1655 0 61.77 0 60.3745C0.126859 60.0785 0.253719 59.7825 0.296005 59.4865C1.35317 55.427 3.76349 52.5938 7.61156 50.9024C9.93732 49.8875 12.3054 49.0418 14.758 48.3229C24.4416 45.4897 34.3789 43.6714 44.3162 42.0645C47.9106 41.4725 50.3632 39.6542 52.0123 36.4404C54.3804 31.8312 56.7907 27.2642 59.3702 22.7819C62.9645 16.4389 66.6012 10.0959 71.5064 4.64099C77.0882 -1.57512 85.2918 -1.53283 90.8736 4.68328C93.7068 7.85476 96.0325 11.3645 98.2737 14.9589C102.629 21.9362 106.604 29.1671 110.325 36.525C111.975 39.7388 114.469 41.5571 118.064 42.1068C124.745 43.1217 131.384 44.348 137.981 45.8703C143.647 47.1812 149.271 48.5766 154.599 50.9024C158.617 52.6784 161.111 55.6385 162.084 59.9094C162.126 60.1208 162.253 60.29 162.38 60.4591C162.38 61.8123 162.38 63.2077 162.38 64.6032C161.619 66.8867 160.562 69.0856 159.251 71.1153C157.01 74.4982 154.472 77.6697 151.808 80.7989C146.776 86.6767 141.49 92.2585 135.993 97.6712C133.667 99.997 132.568 102.703 132.991 105.959C133.625 110.78 134.429 115.558 134.978 120.379C135.866 128.16 136.754 135.898 136.078 143.763C135.401 151.798 128.762 156.915 120.855 155.35C118.318 154.842 115.823 154.081 113.412 153.236C104.025 149.853 95.0177 145.539 86.1375 141.015C82.7546 139.281 79.4985 139.323 76.1579 141.057C70.6607 143.933 64.9943 146.597 59.2856 149.092C53.3655 151.671 47.4454 154.166 41.1024 155.435C34.2943 156.788 27.9091 152.517 26.5982 145.709C25.7947 141.522 26.0062 137.294 26.2176 133.065C26.725 124.143 27.9091 115.305 29.2622 106.467C29.812 102.872 28.7125 99.9547 26.1753 97.4598C21.2278 92.5545 16.3649 87.5224 11.8402 82.1944C7.23098 76.7394 2.28347 71.4959 0 64.5186ZM81.19 88.6642C73.3247 88.6642 65.4594 88.6642 57.5942 88.6642C54.2958 88.6642 52.4352 90.6094 52.4775 93.7808C52.6466 104.691 60.1736 114.459 70.703 117.504C75.143 118.772 79.71 118.476 84.2346 118.476C98.1892 118.434 108.718 108.623 109.903 94.7534C110.241 90.6516 108.465 88.7065 104.363 88.7065C96.5823 88.6642 88.8861 88.6642 81.19 88.6642ZM101.276 54.9619C97.5126 54.9619 94.0451 55.9768 91.0427 58.4294C88.8438 60.2054 87.533 62.4889 87.2793 65.3221C87.1524 67.0135 88.0404 68.2398 89.5204 68.409C91.085 68.5781 92.3113 67.7324 92.4805 66.0409C92.6919 63.7997 94.0028 62.4889 95.8211 61.5586C98.4429 60.1631 101.276 59.8671 104.109 60.586C107.196 61.3894 109.818 62.7426 110.156 66.5484C110.283 67.9015 111.805 68.6627 113.201 68.409C114.554 68.1553 115.4 67.0135 115.315 65.4912C115.146 62.5312 113.751 60.1631 111.467 58.3448C108.507 55.9768 105.082 55.0042 101.276 54.9619ZM47.234 64.5186C47.1071 67.0981 47.9106 68.1975 49.4752 68.409C51.082 68.5781 52.1815 67.7324 52.3929 65.8718C52.6466 63.9689 53.7038 62.658 55.3107 61.77C59.1588 59.6557 63.0914 59.6557 66.9395 61.7277C68.6732 62.6157 69.7727 64.0112 69.9841 66.0409C70.1532 67.6901 71.295 68.5358 72.775 68.409C74.255 68.2821 75.143 67.225 75.143 65.5758C75.0585 62.2352 73.3247 59.7825 70.7452 57.8796C65.4594 53.9893 57.0021 53.947 51.674 57.7528C49.1791 59.6134 47.4454 61.9391 47.234 64.5186Z" fill="url(#paint0_linear_2_8413)"/>
<defs>
<linearGradient id="paint0_linear_2_8413" x1="81.19" y1="0" x2="81.19" y2="155.684" gradientUnits="userSpaceOnUse">
<stop stop-color="#A4DD00"/>
<stop offset="1" stop-color="#81AE00"/>
</linearGradient>
</defs>
</svg>
