<svg width="163" height="156" viewBox="0 0 163 156" fill="none" xmlns="http://www.w3.org/2000/svg">
<path d="M162.38 60.4168C162.38 61.77 162.38 63.1655 162.38 64.5609C161.577 66.9712 160.477 69.2124 159.039 71.3267C156.798 74.6674 154.303 77.7966 151.682 80.8412C146.734 86.6344 141.49 92.1317 136.078 97.5021C133.71 99.8278 132.526 102.576 132.949 105.917C133.583 110.738 134.386 115.516 134.936 120.337C135.824 128.117 136.712 135.856 136.036 143.721C135.359 151.756 128.72 156.872 120.812 155.308C118.275 154.8 115.78 154.039 113.37 153.193C103.982 149.81 94.9754 145.497 86.0952 140.973C82.7123 139.239 79.4563 139.281 76.1156 141.015C70.6184 143.89 64.952 146.554 59.2433 149.049C53.3232 151.629 47.4031 154.124 41.0602 155.392C34.252 156.745 27.8668 152.474 26.5559 145.666C25.7525 141.48 25.9639 137.251 26.1753 133.023C26.6828 124.1 27.8668 115.262 29.2199 106.424C29.7697 102.83 28.6702 99.9124 26.133 97.4175C21.1432 92.47 16.2803 87.3956 11.7133 82.0252C7.14641 76.6548 2.28347 71.4536 0 64.5186C0 63.1655 0 61.77 0 60.3745C0.126859 60.0785 0.253719 59.7825 0.296005 59.4865C1.35317 55.427 3.76349 52.5938 7.61156 50.9024C9.93732 49.8875 12.3054 49.0418 14.758 48.3229C24.4416 45.4897 34.3789 43.6714 44.3162 42.0645C47.9106 41.4725 50.3632 39.6542 52.0123 36.4404C54.3804 31.8312 56.7907 27.2642 59.3702 22.7819C62.9645 16.4389 66.6012 10.0959 71.5064 4.64099C77.0882 -1.57512 85.2918 -1.53283 90.8736 4.68328C93.7068 7.85476 96.0325 11.3645 98.2737 14.9589C102.629 21.9362 106.604 29.1671 110.325 36.525C111.975 39.7388 114.469 41.5571 118.064 42.1068C124.745 43.1217 131.384 44.348 137.981 45.8703C143.647 47.1812 149.271 48.5766 154.599 50.9024C158.617 52.6784 161.111 55.6385 162.084 59.9094C162.126 60.0363 162.295 60.2054 162.38 60.4168ZM77.1305 71.369C77.1305 63.0386 70.4492 56.315 62.1611 56.315C53.8729 56.315 47.1494 63.0386 47.1494 71.369C47.1494 79.6572 53.8729 86.423 62.1611 86.423C70.407 86.423 77.1305 79.6995 77.1305 71.369ZM115.273 71.1999C115.104 62.8272 108.253 56.1882 100.05 56.3996C91.6348 56.611 85.1226 63.3769 85.2918 71.8342C85.4609 80.2069 92.3113 86.6344 100.811 86.4653C108.845 86.2539 115.442 79.2766 115.273 71.1999ZM81.3591 102.28C79.414 102.28 77.4688 102.28 75.4813 102.28C70.1109 102.28 64.6983 102.28 59.3279 102.28C57.5096 102.28 56.1564 103.084 55.4798 104.775C54.8455 106.298 55.1838 107.693 56.2833 108.877C57.2136 109.892 58.3976 110.146 59.7508 110.146C68.4195 110.146 77.0882 110.146 85.7569 110.146C91.4656 110.146 97.1743 110.146 102.883 110.146C104.617 110.146 106.012 109.554 106.816 107.989C108.253 105.283 106.266 102.28 102.968 102.28C95.7365 102.28 88.5478 102.28 81.3591 102.28Z" fill="url(#paint0_linear_2_8304)"/>
<path d="M69.4345 71.4541C69.3923 74.6679 66.7282 77.2473 63.5144 77.2051C60.343 77.1628 57.6789 74.4564 57.7212 71.285C57.7635 68.1135 60.4698 65.4494 63.6413 65.4917C66.8974 65.5763 69.4768 68.2403 69.4345 71.4541Z" fill="#FFC93E"/>
<path d="M98.6956 77.204C95.4818 77.1617 92.9023 74.54 92.9023 71.3262C92.9446 68.1547 95.6087 65.4907 98.7802 65.533C101.952 65.5753 104.616 68.2816 104.573 71.4531C104.573 74.6246 101.909 77.2463 98.6956 77.204Z" fill="#FFC93E"/>
<defs>
<linearGradient id="paint0_linear_2_8304" x1="81.19" y1="0" x2="81.19" y2="155.642" gradientUnits="userSpaceOnUse">
<stop stop-color="#FFD978"/>
<stop offset="1" stop-color="#FFC736"/>
</linearGradient>
</defs>
</svg>
