<svg width="72" height="72" viewBox="0 0 72 72" fill="none" xmlns="http://www.w3.org/2000/svg">
<circle cx="36" cy="36" r="33.5" fill="white"/>
<circle cx="36" cy="36" r="33.5" stroke="#293847" stroke-opacity="0.3" stroke-width="5"/>
<circle cx="36" cy="36" r="33.5" stroke="#4392F1" stroke-width="5"/>
<path fill-rule="evenodd" clip-rule="evenodd" d="M72 36C72 55.8823 55.8823 72 36 72C16.1177 72 0 55.8823 0 36C0 16.1177 16.1177 0 36 0C55.8823 0 72 16.1177 72 36ZM50.5092 25.0908C51.5636 26.1452 51.5636 27.8548 50.5092 28.9092L32.5092 46.9092C31.4548 47.9636 29.7452 47.9636 28.6908 46.9092L21.4908 39.7092C20.4364 38.6548 20.4364 36.9452 21.4908 35.8908C22.5452 34.8364 24.2548 34.8364 25.3092 35.8908L30.6 41.1816L38.6454 33.1362L46.6908 25.0908C47.7452 24.0364 49.4548 24.0364 50.5092 25.0908Z" fill="#4392F1"/>
</svg>
