<svg width="64" height="70" viewBox="0 0 64 70" fill="none" xmlns="http://www.w3.org/2000/svg">
<path d="M53.3972 27.6706V25.4159C53.3972 13.0359 43.7278 3 31.8 3C19.8722 3 10.2028 13.0359 10.2028 25.4159V27.6706C10.2028 30.3765 9.43109 33.0218 7.98495 35.2733L4.44115 40.7905C1.20424 45.8299 3.67535 52.6797 9.30516 54.2733C24.0328 58.4422 39.5672 58.4422 54.2948 54.2733C59.9247 52.6797 62.3958 45.8299 59.1589 40.7905L55.615 35.2733C54.1689 33.0218 53.3972 30.3765 53.3972 27.6706Z" stroke="#222222" stroke-width="5"/>
<path d="M17.3999 57.4C19.496 62.9929 25.1518 67 31.7999 67C38.448 67 44.1038 62.9929 46.1999 57.4" stroke="#222222" stroke-width="5" stroke-linecap="round"/>
</svg>
