<svg width="40" height="50" viewBox="0 0 40 50" fill="none" xmlns="http://www.w3.org/2000/svg">
<path d="M1.84498 40.7076L18.8262 49.2678C19.5815 49.6492 20.4712 49.6492 21.2241 49.2678L27.5893 46.0608L32.5367 43.5675L38.2077 40.7076C39.1977 40.2089 39.1977 38.7936 38.2077 38.2925L21.2265 29.7323C20.4712 29.351 19.5815 29.351 18.8286 29.7323L1.84743 38.2925C0.855007 38.7936 0.855007 40.2089 1.84498 40.7076Z" fill="#F3DCC8"/>
<path d="M1.07536 9.77151L18.7287 0.821174C19.5129 0.423791 20.4392 0.421159 21.2261 0.815911L38.9215 9.68467C39.4373 9.94257 39.6979 10.44 39.6979 10.94L39.7479 33.0277C39.7479 33.525 39.4926 34.0251 38.9768 34.2856L21.3235 43.2333C20.9314 43.4333 20.505 43.5333 20.0761 43.5333C19.6471 43.5333 19.2208 43.4359 18.826 43.2386L1.13062 34.3698C0.614815 34.1119 0.354279 33.6145 0.354279 33.1145L0.304276 11.0268C0.304276 10.5294 0.559547 10.032 1.07536 9.77151Z" fill="#F5B977"/>
<path d="M0.330341 10.9834V33.0711C0.330341 33.5685 0.588247 34.0685 1.10406 34.3264L18.7784 43.2346C19.1705 43.432 19.5995 43.532 20.0258 43.532V10.9834H0.330341Z" fill="#DE9761"/>
<path d="M1.10487 12.2395L18.7792 21.1477C19.5635 21.5425 20.4898 21.5425 21.2767 21.1477L27.898 17.8108L33.0455 15.2159L38.9484 12.2395C39.98 11.7184 39.98 10.2473 38.9484 9.72627L21.274 0.818036C20.4898 0.423285 19.5635 0.423285 18.7766 0.818036L1.10223 9.72627C0.073246 10.2473 0.073246 11.7184 1.10487 12.2395Z" fill="#F6CF94"/>
<path d="M6.48393 7.01524L27.8979 17.8104L33.0481 15.2156L11.6315 4.42041L6.48393 7.01524Z" fill="#B75400"/>
<path d="M27.8979 17.8111V28.3379L33.0481 25.7404V15.2163L27.8979 17.8111Z" fill="#8B4000"/>
</svg>
