<svg width="19" height="19" viewBox="0 0 19 19" fill="none" xmlns="http://www.w3.org/2000/svg">
<path d="M9.10205 6.07324V9.68033L11.3565 11.9348" stroke="#B75400" stroke-width="1.73913" stroke-linecap="round" stroke-linejoin="round"/>
<path d="M3.33467 3.91279L2.71979 3.29792L2.71979 3.29792L3.33467 3.91279ZM2.19268 5.05478L1.32313 5.05915C1.32552 5.53598 1.71148 5.92194 2.18831 5.92433L2.19268 5.05478ZM4.48382 5.93587C4.96406 5.93828 5.35533 5.55092 5.35774 5.07068C5.36016 4.59044 4.9728 4.19917 4.49256 4.19676L4.48382 5.93587ZM3.0507 2.7549C3.04829 2.27466 2.65702 1.8873 2.17678 1.88972C1.69654 1.89213 1.30918 2.2834 1.31159 2.76364L3.0507 2.7549ZM1.92319 8.61091C1.9884 8.13511 1.65556 7.69653 1.17976 7.63132C0.703963 7.5661 0.265383 7.89894 0.200165 8.37474L1.92319 8.61091ZM15.4271 3.35559C11.908 -0.163511 6.2187 -0.200987 2.71979 3.29792L3.94954 4.52767C6.75765 1.71956 11.3457 1.73373 14.1973 4.58534L15.4271 3.35559ZM2.77747 16.0052C6.29657 19.5243 11.9858 19.5618 15.4847 16.0629L14.255 14.8331C11.4469 17.6412 6.85883 17.6271 4.00722 14.7754L2.77747 16.0052ZM15.4847 16.0629C18.9837 12.564 18.9462 6.8747 15.4271 3.35559L14.1973 4.58534C17.0489 7.43696 17.0631 12.025 14.255 14.8331L15.4847 16.0629ZM2.71979 3.29792L1.57781 4.4399L2.80756 5.66965L3.94954 4.52767L2.71979 3.29792ZM2.18831 5.92433L4.48382 5.93587L4.49256 4.19676L2.19705 4.18522L2.18831 5.92433ZM3.06224 5.05041L3.0507 2.7549L1.31159 2.76364L1.32313 5.05915L3.06224 5.05041ZM0.200165 8.37474C-0.169752 11.0735 0.691771 13.9195 2.77747 16.0052L4.00722 14.7754C2.31952 13.0877 1.62452 10.7898 1.92319 8.61091L0.200165 8.37474Z" fill="#B75400"/>
</svg>
