<svg width="134" height="128" viewBox="0 0 134 128" fill="none" xmlns="http://www.w3.org/2000/svg">
<path d="M133.541 49.7216C133.541 50.8344 133.541 51.982 133.541 53.1297C132.915 55.0771 132.011 56.8855 130.898 58.5896C128.603 61.9976 125.995 65.1275 123.317 68.1878C119.631 72.361 115.805 76.3951 111.841 80.29C109.928 82.2027 109.024 84.4284 109.372 87.1062C109.893 91.0707 110.554 95.0004 111.006 98.9649C111.736 105.364 112.467 111.728 111.91 118.196C111.354 124.804 105.894 129.012 99.3909 127.725C97.3043 127.308 95.2525 126.682 93.2702 125.986C85.5499 123.204 78.1425 119.657 70.8395 115.936C68.0574 114.51 65.3796 114.545 62.6323 115.971C58.1113 118.335 53.4513 120.526 48.7565 122.578C43.8878 124.699 39.0191 126.751 33.8026 127.795C28.2036 128.907 22.9524 125.395 21.8743 119.796C21.2136 116.353 21.3875 112.875 21.5614 109.398C21.9787 102.06 22.9524 94.7918 24.0653 87.5235C24.5173 84.5675 23.6132 82.1679 21.5266 80.1161C17.423 76.0821 13.4585 71.9437 9.73738 67.5619C5.94676 63.1105 1.87792 58.7982 0 53.0601C0 51.9473 0 50.7996 0 49.652C0.104329 49.4086 0.208658 49.1652 0.243435 48.9217C1.11284 45.5832 3.0951 43.2532 6.25975 41.8621C8.17245 41.0275 10.1199 40.3319 12.137 39.7407C20.1007 37.4107 28.2732 35.9154 36.4456 34.5938C39.4016 34.107 41.4187 32.6116 42.7749 29.9686C44.7224 26.178 46.7047 22.4221 48.826 18.7358C51.782 13.5194 54.7728 8.3029 58.8069 3.81675C63.3973 -1.29538 70.1439 -1.2606 74.7344 3.85153C77.0644 6.45976 78.9771 9.3462 80.8203 12.3022C84.4023 18.0403 87.6712 23.9871 90.7316 30.0381C92.0878 32.6811 94.1396 34.1765 97.0956 34.6286C102.59 35.4633 108.05 36.4718 113.475 37.7237C118.135 38.8018 122.761 39.9146 127.142 41.8621C130.446 43.3227 132.498 45.7571 133.298 49.2695C133.333 49.4086 133.472 49.5477 133.541 49.7216Z" fill="#E8E8E8"/>
</svg>
