<svg width="54" height="54" viewBox="0 0 54 54" fill="none" xmlns="http://www.w3.org/2000/svg">
<path d="M32.6642 7.98878L34.8887 5.76427C38.5744 2.07858 44.55 2.07858 48.2357 5.76427C51.9214 9.44996 51.9214 15.4256 48.2357 19.1113L46.0112 21.3358M32.6642 7.98878C32.6642 7.98878 32.9422 12.7159 37.1132 16.8868C41.2841 21.0578 46.0112 21.3358 46.0112 21.3358M32.6642 7.98878L12.2132 28.4398C10.828 29.8249 10.1354 30.5175 9.53976 31.2812C8.83712 32.182 8.23472 33.1567 7.74322 34.1881C7.32656 35.0623 7.01682 35.9915 6.39735 37.85L3.77234 45.725M46.0112 21.3358L25.5602 41.7868C24.1751 43.172 23.4825 43.8646 22.7188 44.4602C21.818 45.1629 20.8433 45.7653 19.8119 46.2568C18.9377 46.6734 18.0085 46.9832 16.15 47.6026L8.27501 50.2277M8.27501 50.2277L6.35002 50.8693C5.43547 51.1742 4.42718 50.9361 3.74551 50.2545C3.06385 49.5728 2.82583 48.5645 3.13068 47.65L3.77234 45.725M8.27501 50.2277L3.77234 45.725" stroke="#B75400" stroke-width="5"/>
</svg>
