<svg width="53" height="62" viewBox="0 0 53 62" fill="none" xmlns="http://www.w3.org/2000/svg">
<path d="M18.5555 30.9985C18.5555 35.294 15.0733 38.7762 10.7778 38.7762C6.48222 38.7762 3 35.294 3 30.9985C3 26.7029 6.48222 23.2207 10.7778 23.2207C15.0733 23.2207 18.5555 26.7029 18.5555 30.9985Z" stroke="#B75400" stroke-width="6"/>
<path d="M34.1102 13.8887L18.5547 24.7775" stroke="#B75400" stroke-width="6" stroke-linecap="round"/>
<path d="M34.1102 48.1094L18.5547 37.2205" stroke="#B75400" stroke-width="6" stroke-linecap="round"/>
<path d="M49.6649 51.2231C49.6649 55.5186 46.1827 59.0008 41.8871 59.0008C37.5916 59.0008 34.1094 55.5186 34.1094 51.2231C34.1094 46.9275 37.5916 43.4453 41.8871 43.4453C46.1827 43.4453 49.6649 46.9275 49.6649 51.2231Z" stroke="#B75400" stroke-width="6"/>
<path d="M49.6649 10.7778C49.6649 15.0733 46.1827 18.5555 41.8871 18.5555C37.5916 18.5555 34.1094 15.0733 34.1094 10.7778C34.1094 6.48222 37.5916 3 41.8871 3C46.1827 3 49.6649 6.48222 49.6649 10.7778Z" stroke="#B75400" stroke-width="6"/>
</svg>
