<svg width="727" height="642" viewBox="0 0 727 642" fill="none" xmlns="http://www.w3.org/2000/svg">
<rect x="86.5" y="2.5" width="638" height="637" rx="318.5" stroke="url(#paint0_linear_2_3411)" stroke-width="5"/>
<rect x="120.527" y="36" width="570" height="570" rx="285" fill="#F2F2F2"/>
<mask id="mask0_2_3411" style="mask-type:alpha" maskUnits="userSpaceOnUse" x="120" y="36" width="571" height="570">
<rect x="120.527" y="36" width="570" height="570" rx="285" fill="#F2F2F2"/>
</mask>
<g mask="url(#mask0_2_3411)">
<path d="M250.94 509.047L247.465 450.75C247.465 384.346 301.515 330.296 367.919 330.296H372.166C372.166 351.916 389.539 369.289 411.159 369.289C432.779 369.289 450.153 351.916 450.153 330.296H458.26C524.664 330.296 578.715 384.346 578.715 450.75L582.189 509.047V631.818H530.456V768.101H293.408V661.159H231.25V509.047H250.94Z" fill="#B75400"/>
<path d="M410.774 369.289C389.154 369.289 371.781 351.916 371.781 330.296H449.768C449.768 351.916 432.394 369.289 410.774 369.289Z" fill="white"/>
<path d="M542.807 686.249C568.394 686.249 589.136 665.507 589.136 639.921C589.136 614.334 568.394 593.592 542.807 593.592C517.221 593.592 496.479 614.334 496.479 639.921C496.479 665.507 517.221 686.249 542.807 686.249Z" fill="white"/>
<path d="M394.173 262.732H427.761C434.325 262.732 440.116 268.137 440.116 275.086V327.592C440.116 343.421 426.989 356.547 411.16 356.547C395.331 356.547 382.205 343.421 382.205 327.592V275.086C381.819 268.137 387.224 262.732 394.173 262.732Z" fill="#FF8F6A"/>
<path d="M439.729 301.338C439.729 301.338 437.413 318.326 410.774 318.326C384.135 318.326 381.818 301.338 381.818 301.338H439.729Z" fill="#F48062"/>
<path d="M482.968 193.239C491.462 193.239 498.411 200.574 498.411 209.454C498.411 218.333 491.462 225.669 482.968 225.669C474.475 225.669 467.525 218.333 467.525 209.454C467.525 200.574 474.475 193.239 482.968 193.239Z" fill="#FF8F6A"/>
<path d="M338.189 193.239C346.683 193.239 353.632 200.574 353.632 209.454C353.632 218.333 346.683 225.669 338.189 225.669C329.695 225.669 322.746 218.333 322.746 209.454C322.746 200.574 329.695 193.239 338.189 193.239Z" fill="#FF8F6A"/>
<path d="M404.982 112.157C406.913 111.771 408.843 111.771 410.773 111.771C416.951 111.771 422.742 112.543 428.533 114.087C459.804 122.195 482.969 151.922 482.969 187.055V241.877C482.969 283.573 450.539 305.965 410.773 305.965C370.622 305.965 338.578 283.573 338.578 241.877V187.055C338.192 147.676 367.533 115.246 404.982 112.157Z" fill="#FFA17D"/>
<path d="M381.431 102.508L386.836 108.3C401.507 108.3 412.703 94.787 421.196 104.053H449.379C467.911 104.053 482.582 117.179 482.582 133.008V149.609V187.058V233.001C479.107 233.001 476.404 230.298 476.404 226.437V161.963C476.404 161.963 475.246 141.502 456.715 141.502H414.633H414.247H366.374C346.684 141.502 344.368 159.261 343.982 161.577V226.051C343.982 229.526 341.279 232.615 337.805 232.615V187.058V149.609V130.306C338.191 107.141 355.564 102.508 381.431 102.508Z" fill="black"/>
<path d="M436.639 200.179C436.639 203.654 439.341 206.356 442.43 206.356C445.518 206.356 448.221 203.654 448.221 200.179C448.221 196.704 445.518 194.002 442.43 194.002C439.341 194.002 436.639 197.091 436.639 200.179Z" fill="black"/>
<path d="M432.391 188.982H450.922C452.852 188.982 454.397 187.438 454.397 185.508V182.419C454.397 180.489 452.852 178.944 450.922 178.944H432.391C430.46 178.944 428.916 180.489 428.916 182.419V185.508C428.916 187.438 430.46 188.982 432.391 188.982Z" fill="black"/>
<path d="M372.553 200.179C372.553 203.654 375.255 206.356 378.344 206.356C381.432 206.356 384.135 203.654 384.135 200.179C384.135 196.704 381.432 194.002 378.344 194.002C375.255 194.002 372.553 197.091 372.553 200.179Z" fill="black"/>
<path d="M368.305 188.982H386.836C388.767 188.982 390.311 187.438 390.311 185.508V182.419C390.311 180.489 388.767 178.944 386.836 178.944H368.305C366.374 178.944 364.83 180.489 364.83 182.419V185.508C364.83 187.438 366.374 188.982 368.305 188.982Z" fill="black"/>
<path d="M338.191 134.938L337.805 91.3115C337.805 91.3115 394.557 73.1661 430.462 102.508C457.873 125.286 338.191 134.938 338.191 134.938Z" fill="black"/>
<path d="M399.962 237.635H420.81C423.513 237.635 425.829 235.319 425.829 232.616V229.141C425.829 226.439 423.513 224.123 420.81 224.123H399.962C397.26 224.123 394.943 226.439 394.943 229.141V232.616C395.329 235.705 397.26 237.635 399.962 237.635Z" fill="#FF8F6A"/>
<path d="M442.432 227.213C460.343 227.213 474.862 212.694 474.862 194.783C474.862 176.872 460.343 162.353 442.432 162.353C424.521 162.353 410.002 176.872 410.002 194.783C410.002 212.694 424.521 227.213 442.432 227.213Z" stroke="black" stroke-width="2.83261" stroke-miterlimit="10"/>
<path d="M377.573 227.213C395.483 227.213 410.003 212.694 410.003 194.783C410.003 176.872 395.483 162.353 377.573 162.353C359.662 162.353 345.143 176.872 345.143 194.783C345.143 212.694 359.662 227.213 377.573 227.213Z" stroke="black" stroke-width="2.83261" stroke-miterlimit="10"/>
<path d="M442.818 245.742H378.344C378.344 245.742 384.135 267.748 410.774 267.748C437.413 267.748 442.818 245.742 442.818 245.742Z" fill="white"/>
<path d="M420.81 277.781H400.734" stroke="#FF8F6A" stroke-width="5.66522" stroke-miterlimit="10" stroke-linecap="round" stroke-linejoin="round"/>
<path d="M388.767 490.126C415.207 490.126 436.64 468.693 436.64 442.253C436.64 415.814 415.207 394.38 388.767 394.38C362.328 394.38 340.895 415.814 340.895 442.253C340.895 468.693 362.328 490.126 388.767 490.126Z" fill="#FFA17D"/>
<path d="M218.895 513.677C219.281 508.272 220.439 450.361 220.439 450.361L254.027 503.639L218.895 513.677Z" fill="#FFA17D"/>
<path d="M282.211 395.153L354.02 525.259C355.951 529.12 353.634 533.367 349.388 533.367H257.503C255.572 533.367 254.028 532.208 252.87 530.664L179.516 403.261C177.586 399.786 179.902 395.153 183.763 394.767L277.578 392.064C279.509 392.451 281.439 393.223 282.211 395.153Z" fill="black"/>
<path d="M263.293 558.075C287.813 558.075 307.691 538.197 307.691 513.677C307.691 489.156 287.813 469.278 263.293 469.278C238.772 469.278 218.895 489.156 218.895 513.677C218.895 538.197 238.772 558.075 263.293 558.075Z" fill="#FFA17D"/>
<path d="M223.916 489.737L265.226 449.972C268.701 446.497 274.492 446.497 277.966 450.358C281.441 453.832 281.441 459.624 277.58 463.098L236.271 502.864C234.34 504.408 232.024 505.566 230.094 505.566C227.777 505.566 225.461 504.794 223.53 502.864C220.056 499.003 220.056 493.212 223.916 489.737Z" fill="#FFA17D"/>
<path d="M322.362 421.406C322.748 421.406 322.748 421.406 323.134 421.406L388.38 416.387C394.557 416.001 398.804 410.596 398.418 404.805C398.032 398.628 392.627 394.381 386.836 394.767L321.59 399.786C315.412 400.172 311.166 405.577 311.552 411.368C311.938 417.159 316.571 421.406 322.362 421.406Z" fill="#FFA17D"/>
<path d="M243.603 534.522L229.704 654.976C227.388 673.508 240.9 690.495 259.431 692.425C277.963 694.742 294.95 681.229 296.88 662.698C297.266 659.995 297.266 657.293 296.88 654.976L282.982 534.522C281.824 523.712 271.786 515.99 260.976 517.149C251.71 518.307 244.761 525.642 243.603 534.522Z" fill="#FFA17D"/>
<path d="M526.983 586.643V434.531L499.572 583.554L526.983 586.643Z" fill="#8D4100"/>
<path d="M396.486 484.723L509.219 656.525C520.801 673.898 543.965 678.917 561.338 667.335C578.712 655.753 583.73 632.588 572.148 615.215C571.376 613.671 570.218 612.127 569.06 610.968L433.163 456.54C424.669 446.888 409.998 446.116 400.346 454.609C391.853 462.331 390.309 475.071 396.486 484.723Z" fill="#FFA17D"/>
</g>
<g filter="url(#filter0_d_2_3411)">
<path d="M144.782 347.684C199.015 347.684 242.979 303.72 242.979 249.487C242.979 195.255 199.015 151.291 144.782 151.291C90.55 151.291 46.5859 195.255 46.5859 249.487C46.5859 303.72 90.55 347.684 144.782 347.684Z" fill="#EAEAEA"/>
<path d="M143.665 354.39C197.898 354.39 241.862 310.426 241.862 256.194C241.862 201.961 197.898 157.997 143.665 157.997C89.4328 157.997 45.4688 201.961 45.4688 256.194C45.4688 310.426 89.4328 354.39 143.665 354.39Z" fill="white"/>
<path d="M143.666 354.662H225.044L213.38 300.139L143.666 354.662Z" fill="white"/>
</g>
<path opacity="0.21" d="M189.359 252.476C186.727 252.476 184.603 254.599 184.603 257.232C184.603 269.037 180.017 280.078 171.694 288.401C163.371 296.724 152.331 301.31 140.525 301.31C116.236 301.31 96.4475 281.522 96.4475 257.232C96.4475 245.427 101.034 234.386 109.357 226.063C117.68 217.74 128.72 213.154 140.525 213.154C142.988 213.154 145.451 213.324 147.829 213.749C150.377 214.173 152.84 212.39 153.265 209.842C153.689 207.294 151.906 204.831 149.358 204.406C146.47 203.897 143.498 203.642 140.525 203.642C126.173 203.642 112.754 209.247 102.647 219.354C92.5408 229.46 86.9355 242.879 86.9355 257.232C86.9355 286.787 110.97 310.822 140.525 310.822C154.878 310.822 168.297 305.217 178.404 295.11C188.51 285.004 194.115 271.5 194.115 257.232C194.115 254.599 191.992 252.476 189.359 252.476Z" fill="#00AA11"/>
<path d="M187.213 221.435L138.615 270.083L120.244 251.712" stroke="#00AA11" stroke-width="15.1629" stroke-linecap="round" stroke-linejoin="round"/>
<defs>
<filter id="filter0_d_2_3411" x="0.762867" y="140.115" width="286.922" height="292.783" filterUnits="userSpaceOnUse" color-interpolation-filters="sRGB">
<feFlood flood-opacity="0" result="BackgroundImageFix"/>
<feColorMatrix in="SourceAlpha" type="matrix" values="0 0 0 0 0 0 0 0 0 0 0 0 0 0 0 0 0 0 127 0" result="hardAlpha"/>
<feOffset dy="33.5294"/>
<feGaussianBlur stdDeviation="22.3529"/>
<feComposite in2="hardAlpha" operator="out"/>
<feColorMatrix type="matrix" values="0 0 0 0 0 0 0 0 0 0 0 0 0 0 0 0 0 0 0.12 0"/>
<feBlend mode="normal" in2="BackgroundImageFix" result="effect1_dropShadow_2_3411"/>
<feBlend mode="normal" in="SourceGraphic" in2="effect1_dropShadow_2_3411" result="shape"/>
</filter>
<linearGradient id="paint0_linear_2_3411" x1="727" y1="360" x2="67" y2="234" gradientUnits="userSpaceOnUse">
<stop stop-color="#E7E7E7"/>
<stop offset="1" stop-color="#E7E7E7" stop-opacity="0"/>
</linearGradient>
</defs>
</svg>
