<svg width="163" height="156" viewBox="0 0 163 156" fill="none" xmlns="http://www.w3.org/2000/svg">
<path d="M162.38 60.4592C162.38 61.8124 162.38 63.2078 162.38 64.6033C161.619 66.9713 160.52 69.1702 159.166 71.2422C156.376 75.3863 153.204 79.1921 149.948 82.9133C145.466 87.9877 140.814 92.8929 135.993 97.629C133.668 99.9548 132.568 102.661 132.991 105.917C133.625 110.738 134.429 115.516 134.979 120.337C135.867 128.118 136.755 135.856 136.078 143.721C135.401 151.756 128.762 156.872 120.855 155.308C118.318 154.8 115.823 154.039 113.412 153.194C104.025 149.811 95.0178 145.497 86.1376 140.973C82.7547 139.239 79.4986 139.281 76.158 141.015C70.6608 143.89 64.9944 146.555 59.2857 149.049C53.3656 151.629 47.4455 154.124 41.1025 155.392C34.2944 156.746 27.9091 152.475 26.5982 145.667C25.7948 141.48 26.0062 137.251 26.2176 133.023C26.7251 124.1 27.9091 115.263 29.2623 106.425C29.812 102.83 28.7125 99.9125 26.1753 97.4176C21.1855 92.5124 16.3649 87.4803 11.8402 82.1522C7.23099 76.7395 2.28347 71.496 0 64.5187C0 63.1655 0 61.7701 0 60.3746C0.12686 60.0786 0.253719 59.7826 0.296006 59.4866C1.35317 55.4271 3.7635 52.5939 7.61157 50.9024C9.93733 49.8876 12.3054 49.0418 14.758 48.323C24.4416 45.4898 34.3789 43.6714 44.3163 42.0646C47.9106 41.4725 50.3632 39.6542 52.0124 36.4405C54.3804 31.8312 56.7908 27.2643 59.3703 22.7819C62.9646 16.4389 66.6012 10.096 71.5065 4.641C77.0883 -1.57512 85.2919 -1.53283 90.8737 4.68328C93.7069 7.85477 96.0327 11.3646 98.2738 14.9589C102.629 21.9362 106.604 29.1672 110.325 36.525C111.975 39.7388 114.47 41.5571 118.064 42.1068C124.745 43.1217 131.384 44.348 137.981 45.8703C143.647 47.1812 149.271 48.5344 154.599 50.9024C158.617 52.6785 161.112 55.6385 162.084 59.9095C162.126 60.0786 162.296 60.2478 162.38 60.4592ZM81.4015 85.1968C80.5981 85.1968 79.7946 85.1545 79.0335 85.1968C78.3569 85.2391 77.6803 85.366 77.0037 85.4928C68.9693 87.0997 62.8377 91.2015 59.8777 99.1091C58.3131 103.253 58.3131 107.524 60.8503 111.414C62.1189 113.317 63.2183 113.402 64.7829 111.753C67.0241 109.385 69.7304 107.862 72.9442 107.27C76.9614 106.467 81.0209 106.636 85.0805 106.763C90.0703 106.89 94.5526 108.243 97.9778 112.133C99.035 113.317 100.177 113.19 101.192 111.964C101.868 111.161 102.376 110.23 102.756 109.216C103.94 105.79 103.813 102.365 102.545 98.9822C99.5847 90.7786 90.9583 85.1545 81.4015 85.1968ZM132.061 87.6917C131.976 84.3934 130.581 81.1373 127.071 79.1921C121.447 76.1052 115.315 74.6252 109.057 73.4834C107.492 73.1874 106.52 74.2869 106.773 75.8515C107.831 81.8139 109.353 87.6071 112.059 93.0198C114.3 97.5445 118.994 99.6165 123.899 98.4748C128.593 97.4176 131.934 93.2312 132.061 87.6917ZM30.3617 87.3111C30.404 92.9775 33.7023 97.2485 38.4384 98.4325C43.3014 99.6588 48.122 97.5445 50.4055 92.9775C53.0696 87.6071 54.6342 81.8562 55.6068 75.9361C55.9028 74.2869 54.8456 73.1874 53.2387 73.4834C47.1917 74.5829 41.2716 76.1052 35.7744 78.8961C32.0532 80.799 30.4886 84.0551 30.3617 87.3111ZM62.0766 68.7051C65.4172 68.7051 68.2504 68.0285 70.7876 66.3793C73.4094 64.6456 75.2277 62.3198 75.4814 59.0637C75.6083 57.4146 74.678 56.2728 73.2825 56.1037C71.9716 55.9768 70.7876 56.8648 70.5762 58.4294C70.3225 60.4592 69.0962 61.6432 67.447 62.5312C65.0789 63.7998 62.4995 64.0958 59.92 63.5038C57.0022 62.8272 54.4227 61.6009 53.9999 58.0489C53.8307 56.6957 52.6044 55.8923 51.3781 56.0614C50.0249 56.2728 49.1792 57.0763 49.1792 58.514C49.1369 61.2204 50.3209 63.4193 52.3084 65.153C55.1839 67.6902 58.6091 68.6628 62.0766 68.7051ZM99.5002 68.7051C103.095 68.7051 106.012 68.0285 108.592 66.337C111.171 64.6456 112.947 62.3621 113.201 59.1483C113.328 57.4991 112.482 56.3151 111.087 56.146C109.733 55.9345 108.507 56.8648 108.296 58.514C108.042 60.4169 106.943 61.5586 105.42 62.4044C102.122 64.1804 98.739 64.2227 95.3561 62.7427C93.4532 61.8969 92.0577 60.5861 91.804 58.3026C91.6349 56.8226 90.4931 55.9768 89.2245 56.0614C87.8291 56.146 86.8988 57.2454 86.9411 58.7677C86.9833 61.3895 88.1674 63.5461 90.1125 65.2376C92.9457 67.6902 96.3287 68.6628 99.5002 68.7051Z" fill="url(#paint0_linear_2_8060)"/>
<defs>
<linearGradient id="paint0_linear_2_8060" x1="81.1901" y1="0" x2="81.1901" y2="155.642" gradientUnits="userSpaceOnUse">
<stop stop-color="#FF8A83"/>
<stop offset="1" stop-color="#FF574D"/>
</linearGradient>
</defs>
</svg>
