<svg width="163" height="156" viewBox="0 0 163 156" fill="none" xmlns="http://www.w3.org/2000/svg">
<path d="M162.38 60.4326C162.38 61.7861 162.38 63.1819 162.38 64.5777C161.576 66.9464 160.519 69.1458 159.165 71.2184C156.416 75.3213 153.286 79.0858 150.029 82.7656C145.546 87.8836 140.808 92.8324 135.986 97.6121C133.66 99.9384 132.56 102.645 132.983 105.902C133.618 110.724 134.421 115.504 134.971 120.326C135.859 128.109 136.748 135.849 136.071 143.716C135.394 151.753 128.754 156.871 120.844 155.306C118.306 154.798 115.81 154.037 113.4 153.191C104.009 149.807 95.0001 145.493 86.1177 140.967C82.7339 139.233 79.477 139.275 76.1355 141.009C70.6368 143.885 64.9689 146.55 59.2588 149.046C53.3371 151.626 47.4155 154.121 41.0709 155.39C34.261 156.744 27.9163 152.43 26.5205 145.662C26.1398 143.759 26.0129 141.771 26.0129 139.825C25.9706 128.997 27.3665 118.338 29.1007 107.679C29.7774 103.407 28.8892 99.9807 25.7169 96.9353C20.7258 92.1557 15.9884 87.08 11.5049 81.7928C7.02138 76.4633 2.19947 71.3453 0 64.5354C0 63.1819 0 61.7861 0 60.3903C0.126892 60.0942 0.253785 59.7981 0.296082 59.502C1.35352 55.4415 3.76448 52.6075 7.61355 50.9156C9.93991 49.9005 12.3086 49.0546 14.7618 48.3355C24.4479 45.5016 34.3878 43.6828 44.3278 42.0755C47.923 41.4833 50.3763 39.6645 52.0259 36.4499C54.3946 31.8395 56.8055 27.2714 59.3857 22.7878C62.9809 16.4432 66.6185 10.0986 71.525 4.6422C77.1083 -1.57553 85.314 -1.53323 90.8973 4.6845C93.7312 7.85681 96.0576 11.3675 98.2993 14.9628C102.656 21.9419 106.632 29.1747 110.354 36.5345C112.004 39.7491 114.499 41.5679 118.095 42.1178C124.778 43.1329 131.418 44.3595 138.017 45.8822C143.685 47.1935 149.31 48.5893 154.64 50.9156C158.658 52.6921 161.153 55.653 162.126 59.925C162.126 60.0519 162.295 60.2211 162.38 60.4326ZM81.2534 92.1557C75.501 92.1557 69.7485 92.1557 63.9961 92.1557C61.1621 92.1557 59.7663 93.5515 59.9778 96.3854C60.6123 104.126 64.5036 109.625 71.6096 112.755C75.8817 114.616 80.4498 114.235 84.891 114.023C94.2811 113.643 101.979 105.775 102.36 96.3431C102.487 93.4669 101.218 92.1134 98.3416 92.1134C92.6738 92.1557 86.9636 92.1557 81.2534 92.1557ZM52.2374 80.5662C52.1951 82.4273 53.3371 83.1886 54.9021 82.4273C56.9747 81.4121 59.0473 80.3124 61.0776 79.2126C61.7966 78.832 62.3888 78.832 63.1501 79.2126C65.0958 80.2701 67.0838 81.2852 69.0295 82.3004C69.7485 82.681 70.5099 82.9348 71.2712 82.4273C72.1172 81.8774 72.0749 81.0314 71.9057 80.1432C71.525 78.0706 71.1866 75.998 70.7637 73.9255C70.5945 72.9526 70.7214 72.2336 71.525 71.5568C73.09 70.161 74.5704 68.6383 76.0932 67.1579C76.7276 66.5657 77.3198 65.9312 76.9814 64.9584C76.643 63.9856 75.7971 63.8164 74.9511 63.6895C72.794 63.3511 70.6791 63.0127 68.5219 62.7589C67.6337 62.6743 67.1261 62.2937 66.7454 61.49C65.8149 59.4597 64.7997 57.514 63.8269 55.5261C63.4462 54.7647 62.9809 54.1302 62.0927 54.1302C61.1621 54.1302 60.6969 54.7647 60.3162 55.5261C59.428 57.3872 58.4551 59.2059 57.6092 61.067C57.1016 62.2091 56.3825 62.7589 55.1559 62.8435C53.1256 63.055 51.0954 63.3934 49.0228 63.6895C48.2191 63.8164 47.4578 64.0279 47.204 64.9584C46.9502 65.8466 47.3309 66.4811 47.9653 67.0733C49.6149 68.6383 51.2222 70.2456 52.8718 71.8106C53.4217 72.3605 53.5909 72.868 53.4217 73.6294C52.9564 75.998 52.5758 78.409 52.2374 80.5662ZM92.3777 82.7656C92.6738 82.6387 93.1813 82.4696 93.6466 82.2158C95.5077 81.2429 97.4111 80.3124 99.2299 79.2549C100.034 78.7897 100.626 78.832 101.429 79.2972C103.375 80.3547 105.363 81.3698 107.309 82.385C108.07 82.7656 108.789 82.9348 109.55 82.385C110.227 81.8774 110.27 81.1583 110.143 80.397C109.72 78.1129 109.424 75.8288 108.958 73.5448C108.831 72.8257 109.001 72.3605 109.508 71.8952C111.115 70.3725 112.68 68.8075 114.288 67.2425C114.965 66.608 115.557 65.9312 115.218 64.9161C114.88 63.9433 113.992 63.8587 113.146 63.7318C110.989 63.3934 108.874 63.055 106.717 62.8012C105.871 62.7166 105.448 62.2937 105.109 61.5746C104.263 59.7135 103.29 57.8947 102.402 56.0336C101.979 55.1877 101.599 54.2148 100.457 54.2148C99.3145 54.2148 98.8915 55.1031 98.4685 55.9913C97.538 57.8947 96.5651 59.7558 95.6769 61.6592C95.3385 62.336 94.9578 62.6743 94.1542 62.8012C91.8701 63.0973 89.5438 63.478 87.2597 63.8164C86.4137 63.9433 85.737 64.2816 85.4832 65.1699C85.2717 66.0158 85.6947 66.5657 86.2446 67.1156C87.8519 68.6806 89.5015 70.2879 91.1511 71.8529C91.7009 72.3605 91.9124 72.868 91.7432 73.6294C91.278 75.9134 90.9396 78.1975 90.5589 80.4816C90.3051 81.8774 90.9819 82.8079 92.3777 82.7656Z" fill="url(#paint0_linear_2_8496)"/>
<defs>
<linearGradient id="paint0_linear_2_8496" x1="81.19" y1="0" x2="81.19" y2="155.639" gradientUnits="userSpaceOnUse">
<stop stop-color="#00CE3A"/>
<stop offset="1" stop-color="#00A02D"/>
</linearGradient>
</defs>
</svg>
