<svg width="163" height="156" viewBox="0 0 163 156" fill="none" xmlns="http://www.w3.org/2000/svg">
<path d="M162.38 60.4168C162.38 61.77 162.38 63.1655 162.38 64.5609C161.619 66.8444 160.562 69.0433 159.251 71.073C156.967 74.4982 154.388 77.712 151.724 80.8412C146.734 86.6767 141.448 92.2162 135.993 97.6289C133.667 99.9547 132.568 102.661 132.991 105.917C133.625 110.738 134.429 115.516 134.978 120.337C135.866 128.117 136.754 135.856 136.078 143.721C135.401 151.756 128.762 156.872 120.855 155.308C118.318 154.8 115.823 154.039 113.412 153.193C104.025 149.81 95.0177 145.497 86.1375 140.973C82.7546 139.239 79.4985 139.281 76.1579 141.015C70.6607 143.89 64.9943 146.554 59.2856 149.049C53.3655 151.629 47.4454 154.124 41.1024 155.392C34.2943 156.745 27.9513 152.474 26.5559 145.666C26.1753 143.763 26.0485 141.776 26.0485 139.831C26.0062 129.005 27.4016 118.349 29.1354 107.693C29.812 103.422 28.9239 99.997 25.7525 96.9523C20.7627 92.174 16.0689 87.1419 11.6288 81.8984C7.10413 76.5703 2.24118 71.4113 0 64.5186C0 63.1655 0 61.77 0 60.3745C0.126859 60.0785 0.253719 59.7825 0.296005 59.4865C1.35317 55.427 3.76349 52.5938 7.61156 50.9024C9.93732 49.8875 12.3054 49.0418 14.758 48.3229C24.4416 45.4897 34.3789 43.6714 44.3162 42.0645C47.9106 41.4725 50.3632 39.6542 52.0123 36.4404C54.3804 31.8312 56.7907 27.2642 59.3702 22.7819C62.9645 16.4389 66.6012 10.0959 71.5064 4.64099C77.0882 -1.57512 85.2918 -1.53283 90.8736 4.68328C93.7068 7.85476 96.0325 11.3645 98.2737 14.9589C102.629 21.9362 106.604 29.1671 110.325 36.525C111.975 39.7388 114.469 41.5571 118.064 42.1068C124.745 43.1217 131.384 44.348 137.981 45.8703C143.647 47.1812 149.271 48.5766 154.599 50.9024C158.617 52.6784 161.111 55.6385 162.084 59.9094C162.126 60.0363 162.295 60.2054 162.38 60.4168ZM115.273 72.2993C115.188 63.9689 108.465 57.2876 100.177 57.3299C91.8462 57.3722 85.2072 64.0958 85.2495 72.4262C85.2918 80.7566 91.973 87.3956 100.303 87.3533C108.634 87.3533 115.315 80.6298 115.273 72.2993ZM77.1305 72.3839C77.1305 64.0535 70.407 57.3299 62.1188 57.3722C53.7884 57.4145 47.1071 64.0958 47.1071 72.4262C47.1071 80.7566 53.7884 87.4379 62.1188 87.4379C70.4492 87.3956 77.1305 80.7143 77.1305 72.3839ZM81.4014 108.285C82.0357 108.327 82.966 108.412 83.8963 108.454C87.9981 108.708 91.8462 110.019 95.6943 111.245C97.0474 111.668 98.4429 111.753 99.5 110.526C100.557 109.3 100.007 108.074 99.3732 106.847C93.2416 94.7534 77.2996 91.9625 67.2355 101.139C65.248 102.957 63.6834 105.029 62.6262 107.482C62.1611 108.581 62.0342 109.638 62.88 110.611C63.6411 111.499 64.7406 111.583 65.7977 111.372C66.5589 111.203 67.32 110.949 68.0812 110.695C72.2676 109.173 76.5808 108.37 81.4014 108.285Z" fill="url(#paint0_linear_2_8169)"/>
<path d="M98.6541 78.1774C95.4403 78.1351 92.8608 75.4711 92.9454 72.2573C92.9877 69.0858 95.7363 66.464 98.9078 66.5486C102.122 66.6332 104.701 69.3395 104.659 72.511C104.532 75.7248 101.91 78.2197 98.6541 78.1774Z" fill="#FF824C"/>
<path d="M63.5992 78.2189C60.3854 78.2189 57.7637 75.5971 57.7637 72.3833C57.806 69.2119 60.47 66.5478 63.6415 66.5901C66.8553 66.5901 69.477 69.2541 69.4347 72.4679C69.4347 75.6394 66.813 78.2189 63.5992 78.2189Z" fill="#FF824C"/>
<defs>
<linearGradient id="paint0_linear_2_8169" x1="81.19" y1="0" x2="81.19" y2="155.642" gradientUnits="userSpaceOnUse">
<stop stop-color="#FFA077"/>
<stop offset="1" stop-color="#FF7C44"/>
</linearGradient>
</defs>
</svg>
