<svg width="86" height="104" viewBox="0 0 86 104" fill="none" xmlns="http://www.w3.org/2000/svg">
<path d="M59.8 53.3C59.8 52.2657 59.3891 51.2737 58.6577 50.5423C57.9263 49.8109 56.9343 49.4 55.9 49.4H29.9C28.8657 49.4 27.8737 49.8109 27.1423 50.5423C26.4109 51.2737 26 52.2657 26 53.3V55.9C26 61.1 33.1916 65 42.9 65C52.6084 65 59.8 61.1 59.8 55.9V53.3ZM52 35.074C52 30.056 47.9284 26 42.9 26C37.8716 26 33.8 30.0508 33.8 35.074C33.8 37.4875 34.7587 39.8021 36.4653 41.5087C38.1719 43.2153 40.4865 44.174 42.9 44.174C45.3135 44.174 47.6281 43.2153 49.3347 41.5087C51.0413 39.8021 52 37.4875 52 35.074ZM0 13C0 9.55219 1.36964 6.24558 3.80761 3.80761C6.24558 1.36964 9.55219 0 13 0H72.8C74.5072 0 76.1976 0.336255 77.7749 0.989566C79.3521 1.64288 80.7852 2.60045 81.9924 3.80761C83.1995 5.01477 84.1571 6.44788 84.8104 8.02512C85.4637 9.60235 85.8 11.2928 85.8 13V87.1C85.8 88.1343 85.3891 89.1263 84.6577 89.8577C83.9263 90.5891 82.9343 91 81.9 91H7.8C7.8 92.3791 8.34786 93.7018 9.32305 94.677C10.2982 95.6521 11.6209 96.2 13 96.2H81.9C82.9343 96.2 83.9263 96.6109 84.6577 97.3423C85.3891 98.0737 85.8 99.0657 85.8 100.1C85.8 101.134 85.3891 102.126 84.6577 102.858C83.9263 103.589 82.9343 104 81.9 104H13C9.55219 104 6.24558 102.63 3.80761 100.192C1.36964 97.7544 0 94.4478 0 91V13ZM7.8 13V83.2H78V13C78 11.6209 77.4521 10.2982 76.477 9.32304C75.5018 8.34785 74.1791 7.8 72.8 7.8H13C11.6209 7.8 10.2982 8.34785 9.32305 9.32304C8.34786 10.2982 7.8 11.6209 7.8 13Z" fill="#B75400"/>
</svg>
