<svg width="52" height="52" viewBox="0 0 52 52" fill="none" xmlns="http://www.w3.org/2000/svg">
<g opacity="0.7">
<path d="M25.9986 30.8H28.3986C31.0386 30.8 33.1986 28.64 33.1986 26V2H11.5986C7.99863 2 4.85466 3.99197 3.22266 6.91997" stroke="#222222" stroke-width="4" stroke-linecap="round" stroke-linejoin="round"/>
<path d="M2 37.9992C2 41.9832 5.216 45.1992 9.2 45.1992H11.6C11.6 42.5592 13.76 40.3992 16.4 40.3992C19.04 40.3992 21.2 42.5592 21.2 45.1992H30.8C30.8 42.5592 32.96 40.3992 35.6 40.3992C38.24 40.3992 40.4 42.5592 40.4 45.1992H42.8C46.784 45.1992 50 41.9832 50 37.9992V30.7992H42.8C41.48 30.7992 40.4 29.7192 40.4 28.3992V21.1992C40.4 19.8792 41.48 18.7992 42.8 18.7992H45.8959L41.792 11.6232C40.928 10.1352 39.3441 9.19922 37.6161 9.19922H33.2V25.9992C33.2 28.6392 31.04 30.7992 28.4 30.7992H26" stroke="#222222" stroke-width="4" stroke-linecap="round" stroke-linejoin="round"/>
<path d="M16.3996 50.0004C19.0506 50.0004 21.1996 47.8514 21.1996 45.2004C21.1996 42.5494 19.0506 40.4004 16.3996 40.4004C13.7486 40.4004 11.5996 42.5494 11.5996 45.2004C11.5996 47.8514 13.7486 50.0004 16.3996 50.0004Z" stroke="#222222" stroke-width="4" stroke-linecap="round" stroke-linejoin="round"/>
<path d="M35.6008 50.0004C38.2517 50.0004 40.4008 47.8514 40.4008 45.2004C40.4008 42.5494 38.2517 40.4004 35.6008 40.4004C32.9498 40.4004 30.8008 42.5494 30.8008 45.2004C30.8008 47.8514 32.9498 50.0004 35.6008 50.0004Z" stroke="#222222" stroke-width="4" stroke-linecap="round" stroke-linejoin="round"/>
<path d="M50.0004 26.0008V30.8008H42.8004C41.4804 30.8008 40.4004 29.7208 40.4004 28.4008V21.2008C40.4004 19.8808 41.4804 18.8008 42.8004 18.8008H45.8963L50.0004 26.0008Z" stroke="#222222" stroke-width="4" stroke-linecap="round" stroke-linejoin="round"/>
<path d="M2 16.4004H16.4" stroke="#222222" stroke-width="4" stroke-linecap="round" stroke-linejoin="round"/>
<path d="M2 23.5996H11.6" stroke="#222222" stroke-width="4" stroke-linecap="round" stroke-linejoin="round"/>
<path d="M2 30.8008H6.8" stroke="#222222" stroke-width="4" stroke-linecap="round" stroke-linejoin="round"/>
</g>
</svg>
