<svg width="114" height="121" viewBox="0 0 114 121" fill="none" xmlns="http://www.w3.org/2000/svg">
<path fill-rule="evenodd" clip-rule="evenodd" d="M40.7663 -28H37.603C34.2775 -26.9893 31.5031 -24.9592 28.7675 -22.9575C28.2662 -22.5906 27.7661 -22.2247 27.2642 -21.8662C23.7536 -19.3586 20.1273 -18.3556 15.8838 -18.8957C13.6118 -19.1986 11.2922 -19.2399 8.98107 -19.281C8.34907 -19.2923 7.7177 -19.3035 7.08811 -19.3201C3.1532 -19.3972 0.259884 -17.6226 -1.55326 -14.1121C-3.13494 -11.0259 -4.71662 -7.93967 -6.18257 -4.77631C-7.26274 -2.57739 -8.84442 -0.957134 -11.0433 0.161613C-13.3441 1.28522 -15.6262 2.48303 -17.9027 3.67786C-18.9089 4.20599 -19.9141 4.73355 -20.9192 5.25385C-24.7769 7.25988 -26.5515 10.539 -26.2043 14.8597C-25.9412 18.3174 -25.7514 21.8117 -25.5634 25.2712L-25.5485 25.5456C-25.4328 27.5517 -26.0114 29.3648 -27.0916 31.0237C-28.519 33.2226 -29.9463 35.4601 -31.3737 37.6976C-31.6239 38.0979 -31.8794 38.4942 -32.1345 38.89C-33.2563 40.6302 -34.3714 42.36 -35 44.3715V47.5349C-33.9099 51.0436 -31.7368 53.9508 -29.5965 56.8142C-29.313 57.1934 -29.0302 57.5718 -28.7504 57.9508C-26.3201 61.3842 -25.3556 64.8948 -25.8571 69.0611C-26.1409 71.4258 -26.1927 73.8421 -26.2443 76.2467C-26.2559 76.7842 -26.2674 77.3212 -26.2815 77.8568C-26.3972 81.9074 -24.5841 84.8393 -20.9578 86.6911C-17.8716 88.2727 -14.7854 89.8158 -11.6606 91.3204C-9.50024 92.362 -7.91856 93.9436 -6.83839 96.104C-5.21822 99.4215 -3.48235 102.7 -1.74646 105.979L-1.74615 105.98C0.298462 109.876 3.53897 111.612 7.85966 111.265C11.3174 111.002 14.8117 110.812 18.2713 110.624L18.5456 110.609C20.5517 110.493 22.3648 111.072 24.0237 112.152C25.0641 112.823 26.1044 113.484 27.1431 114.144C29.0315 115.344 30.9141 116.54 32.7808 117.785C34.2081 118.788 35.7898 119.443 37.3715 120.099H40.5349C44.018 119.027 46.9487 116.88 49.8318 114.767C50.2696 114.446 50.7063 114.126 51.1437 113.811C54.5385 111.381 58.0491 110.493 62.1383 110.995C64.1788 111.243 66.2391 111.294 68.3049 111.345C69.1292 111.366 69.9544 111.386 70.7797 111.419C74.9846 111.574 77.9937 109.722 79.8454 105.98C80.1877 105.304 80.5319 104.628 80.8763 103.951C82.0845 101.578 83.2954 99.2 84.4361 96.7984C85.4777 94.5995 87.0594 93.0564 89.2197 91.9762C91.3545 90.896 93.4892 89.7814 95.6239 88.6669C96.6911 88.1097 97.7583 87.5526 98.8255 86.9997C102.992 84.8008 104.689 81.676 104.304 76.9695C104.034 73.5361 103.841 70.0641 103.648 66.5922C103.532 64.5861 104.111 62.773 105.191 61.1142C105.862 60.0736 106.523 59.033 107.183 57.9941C108.383 56.1059 109.579 54.2235 110.823 52.357C111.788 50.9297 112.443 49.3481 113.099 47.7665L113.099 47.7663V44.603C112.018 41.2404 110.003 38.4385 107.998 35.652C107.427 34.858 106.857 34.0653 106.31 33.2612C104.342 30.3678 103.571 27.4359 103.879 24.0025C104.145 21.2135 104.239 18.4531 104.334 15.672C104.349 15.2218 104.365 14.7711 104.381 14.3196C104.535 10.1918 102.722 7.18273 99.057 5.33101C95.9322 3.74933 92.8074 2.16765 89.6441 0.624544C87.638 -0.339895 86.1335 -1.80584 85.0919 -3.81187C83.3945 -7.12954 81.6585 -10.4858 79.9225 -13.8035C77.8008 -17.8541 74.6374 -19.5515 70.1238 -19.2043C66.6133 -18.9343 63.1028 -18.7414 59.5922 -18.5485L59.5922 -18.5485C57.5861 -18.4328 55.773 -19.0114 54.1142 -20.0916C51.9157 -21.5187 49.6786 -22.9458 47.4416 -24.3729L47.4402 -24.3737C47.2332 -24.5092 47.0265 -24.6455 46.8198 -24.7817C44.9082 -26.042 42.9944 -27.3037 40.7663 -28Z" fill="#B75400"/>
</svg>
