<svg width="53" height="53" viewBox="0 0 53 53" fill="none" xmlns="http://www.w3.org/2000/svg">
<g opacity="0.7">
<path d="M21.0069 5.66581C22.4754 4.41434 23.2097 3.78861 23.9774 3.42167C25.753 2.57298 27.8173 2.57298 29.5929 3.42167C30.3606 3.78861 31.0949 4.41434 32.5634 5.66581C33.1479 6.1639 33.4401 6.41294 33.7522 6.62213C34.4677 7.10166 35.2711 7.43447 36.1161 7.60129C36.4847 7.67407 36.8675 7.70461 37.633 7.7657C39.5563 7.91918 40.5179 7.99592 41.3203 8.2793C43.1759 8.93475 44.6356 10.3944 45.291 12.2501C45.5744 13.0524 45.6511 14.014 45.8046 15.9373C45.8657 16.7028 45.8962 17.0856 45.969 17.4542C46.1358 18.2992 46.4687 19.1027 46.9482 19.8181C47.1574 20.1302 47.4064 20.4224 47.9045 21.0069C49.156 22.4754 49.7817 23.2097 50.1486 23.9774C50.9973 25.753 50.9973 27.8173 50.1486 29.5929C49.7817 30.3606 49.156 31.0949 47.9045 32.5634C47.4064 33.1479 47.1574 33.4401 46.9482 33.7522C46.4687 34.4677 46.1358 35.2711 45.969 36.1161C45.8962 36.4847 45.8657 36.8675 45.8046 37.633C45.6511 39.5563 45.5744 40.518 45.291 41.3203C44.6356 43.1759 43.1759 44.6356 41.3203 45.291C40.518 45.5744 39.5563 45.6511 37.633 45.8046C36.8675 45.8657 36.4847 45.8962 36.1161 45.969C35.2711 46.1358 34.4677 46.4687 33.7522 46.9482C33.4401 47.1574 33.1479 47.4064 32.5634 47.9045C31.0949 49.156 30.3606 49.7817 29.5929 50.1486C27.8173 50.9973 25.753 50.9973 23.9774 50.1486C23.2097 49.7817 22.4754 49.156 21.0069 47.9045C20.4224 47.4064 20.1302 47.1574 19.8181 46.9482C19.1027 46.4687 18.2992 46.1358 17.4542 45.969C17.0856 45.8962 16.7028 45.8657 15.9373 45.8046C14.014 45.6511 13.0524 45.5744 12.2501 45.291C10.3944 44.6356 8.93475 43.1759 8.2793 41.3203C7.99592 40.5179 7.91918 39.5563 7.7657 37.633C7.70461 36.8675 7.67407 36.4847 7.60129 36.1161C7.43447 35.2711 7.10166 34.4677 6.62213 33.7522C6.41294 33.4401 6.1639 33.1479 5.66581 32.5634C4.41434 31.0949 3.78861 30.3606 3.42167 29.5929C2.57298 27.8173 2.57298 25.753 3.42167 23.9774C3.78861 23.2097 4.41434 22.4754 5.66581 21.0069C6.1639 20.4225 6.41294 20.1302 6.62213 19.8181C7.10166 19.1027 7.43447 18.2992 7.60129 17.4542C7.67407 17.0856 7.70461 16.7028 7.7657 15.9373C7.91918 14.014 7.99592 13.0524 8.2793 12.2501C8.93475 10.3944 10.3944 8.93475 12.2501 8.2793C13.0524 7.99592 14.014 7.91918 15.9373 7.7657C16.7028 7.70461 17.0856 7.67407 17.4542 7.60129C18.2992 7.43447 19.1027 7.10166 19.8181 6.62213C20.1302 6.41294 20.4224 6.1639 21.0069 5.66581Z" stroke="#222222" stroke-width="4"/>
<path d="M18.9707 34.5969L34.5968 18.9708" stroke="#222222" stroke-width="4" stroke-linecap="round"/>
<path d="M35.9001 33.2938C35.9001 34.7321 34.7341 35.8982 33.2958 35.8982C31.8574 35.8982 30.6914 34.7321 30.6914 33.2938C30.6914 31.8555 31.8574 30.6895 33.2958 30.6895C34.7341 30.6895 35.9001 31.8555 35.9001 33.2938Z" fill="#222222"/>
<path d="M22.8767 20.2723C22.8767 21.7107 21.7107 22.8767 20.2723 22.8767C18.834 22.8767 17.668 21.7107 17.668 20.2723C17.668 18.834 18.834 17.668 20.2723 17.668C21.7107 17.668 22.8767 18.834 22.8767 20.2723Z" fill="#222222"/>
</g>
</svg>
