<svg width="137" height="170" viewBox="0 0 137 170" fill="none" xmlns="http://www.w3.org/2000/svg">
<path d="M5.31516 138.642L63.9002 168.175C66.506 169.491 69.5757 169.491 72.1731 168.175L94.133 157.111L111.202 148.509L130.767 138.642C134.182 136.922 134.182 132.039 130.767 130.311L72.1815 100.778C69.5757 99.4621 66.506 99.4621 63.9086 100.778L5.32359 130.311C1.89973 132.039 1.89973 136.922 5.31516 138.642Z" fill="#D8D8D8"/>
<path d="M2.65993 31.9126L63.5638 1.03393C66.2694 -0.337043 69.4653 -0.346122 72.18 1.01577L133.229 31.613C135.009 32.5028 135.908 34.2187 135.908 35.9438L136.08 112.146C136.08 113.862 135.199 115.587 133.42 116.486L72.516 147.356C71.1632 148.046 69.6923 148.391 68.2124 148.391C66.7325 148.391 65.2616 148.055 63.8997 147.374L2.8506 116.777C1.07106 115.887 0.172211 114.171 0.172211 112.446L-0.000305176 36.2434C-0.000305176 34.5274 0.880386 32.8114 2.65993 31.9126Z" fill="#B1B1B1"/>
<path d="M0.0896683 36.0938V112.296C0.0896683 114.012 0.979439 115.737 2.75898 116.627L63.7355 147.36C65.0883 148.041 66.5682 148.386 68.0391 148.386V36.0938H0.0896683Z" fill="#9C9C9C"/>
<path d="M2.76271 40.4275L63.7392 71.1609C66.4448 72.5228 69.6407 72.5228 72.3554 71.1609L95.1989 59.6483L112.958 50.6962L133.323 40.4275C136.882 38.6298 136.882 33.5545 133.323 31.7568L72.3464 1.02337C69.6407 -0.33852 66.4448 -0.33852 63.7301 1.02337L2.75363 31.7568C-0.796371 33.5545 -0.796371 38.6298 2.76271 40.4275Z" fill="#CCCCCC"/>
<path d="M21.3185 22.4034L95.1967 59.6466L112.965 50.6944L39.0776 13.4512L21.3185 22.4034Z" fill="#858585"/>
<path d="M95.1967 59.6494V95.9666L112.965 87.0053V50.6973L95.1967 59.6494Z" fill="#545454"/>
</svg>
