<svg width="72" height="70" viewBox="0 0 72 70" fill="none" xmlns="http://www.w3.org/2000/svg">
<path d="M3 34.1799C3 21.8027 3 15.6141 6.84512 11.7689C10.6902 7.92383 16.8789 7.92383 29.2561 7.92383H42.3842C54.7614 7.92383 60.95 7.92383 64.7951 11.7689C68.6403 15.6141 68.6403 21.8027 68.6403 34.1799V40.744C68.6403 53.1212 68.6403 59.3098 64.7951 63.1549C60.95 67.0001 54.7614 67.0001 42.3842 67.0001H29.2561C16.8789 67.0001 10.6902 67.0001 6.84512 63.1549C3 59.3098 3 53.1212 3 40.744V34.1799Z" stroke="#989898" stroke-width="5"/>
<path d="M19.4102 7.92302V3" stroke="#989898" stroke-width="5" stroke-linecap="round"/>
<path d="M52.2305 7.92302V3" stroke="#989898" stroke-width="5" stroke-linecap="round"/>
<path d="M4.64062 24.334H66.9989" stroke="#989898" stroke-width="5" stroke-linecap="round"/>
<path d="M55.5113 50.5878C55.5113 52.4004 54.0419 53.8698 52.2293 53.8698C50.4167 53.8698 48.9473 52.4004 48.9473 50.5878C48.9473 48.7752 50.4167 47.3058 52.2293 47.3058C54.0419 47.3058 55.5113 48.7752 55.5113 50.5878Z" fill="#989898"/>
<path d="M55.5113 37.4597C55.5113 39.2724 54.0419 40.7418 52.2293 40.7418C50.4167 40.7418 48.9473 39.2724 48.9473 37.4597C48.9473 35.6471 50.4167 34.1777 52.2293 34.1777C54.0419 34.1777 55.5113 35.6471 55.5113 37.4597Z" fill="#989898"/>
<path d="M39.1031 50.5878C39.1031 52.4004 37.6337 53.8698 35.8211 53.8698C34.0085 53.8698 32.5391 52.4004 32.5391 50.5878C32.5391 48.7752 34.0085 47.3058 35.8211 47.3058C37.6337 47.3058 39.1031 48.7752 39.1031 50.5878Z" fill="#989898"/>
<path d="M39.1031 37.4597C39.1031 39.2724 37.6337 40.7418 35.8211 40.7418C34.0085 40.7418 32.5391 39.2724 32.5391 37.4597C32.5391 35.6471 34.0085 34.1777 35.8211 34.1777C37.6337 34.1777 39.1031 35.6471 39.1031 37.4597Z" fill="#989898"/>
<path d="M22.691 50.5878C22.691 52.4004 21.2216 53.8698 19.409 53.8698C17.5964 53.8698 16.127 52.4004 16.127 50.5878C16.127 48.7752 17.5964 47.3058 19.409 47.3058C21.2216 47.3058 22.691 48.7752 22.691 50.5878Z" fill="#989898"/>
<path d="M22.691 37.4597C22.691 39.2724 21.2216 40.7418 19.409 40.7418C17.5964 40.7418 16.127 39.2724 16.127 37.4597C16.127 35.6471 17.5964 34.1777 19.409 34.1777C21.2216 34.1777 22.691 35.6471 22.691 37.4597Z" fill="#989898"/>
</svg>
