<svg width="62" height="62" viewBox="0 0 62 62" fill="none" xmlns="http://www.w3.org/2000/svg">
<path d="M31 18.5547V30.9991L38.7778 38.7769" stroke="#222222" stroke-width="6" stroke-linecap="round" stroke-linejoin="round"/>
<path d="M11.1018 11.1018L8.98045 8.98045L8.98045 8.98045L11.1018 11.1018ZM7.16192 15.0416L4.16196 15.0567C4.17023 16.7018 5.50178 18.0333 7.14685 18.0416L7.16192 15.0416ZM15.0663 18.0814C16.7232 18.0897 18.0731 16.7533 18.0814 15.0965C18.0897 13.4397 16.7533 12.0898 15.0965 12.0815L15.0663 18.0814ZM10.1221 7.10705C10.1138 5.45022 8.76388 4.11384 7.10705 4.12216C5.45022 4.13049 4.11384 5.48037 4.12216 7.1372L10.1221 7.10705ZM6.23216 27.3103C6.45716 25.6688 5.30885 24.1557 3.66735 23.9307C2.02584 23.7057 0.512738 24.854 0.287739 26.4955L6.23216 27.3103ZM52.8206 9.17943C40.6797 -2.96148 21.0517 -3.09077 8.98045 8.98045L13.2231 13.2231C22.9111 3.53512 38.7399 3.58401 48.5779 13.4221L52.8206 9.17943ZM9.17943 52.8206C21.3203 64.9615 40.9483 65.0908 53.0195 53.0196L48.7769 48.7769C39.0889 58.4649 23.2601 58.416 13.4221 48.5779L9.17943 52.8206ZM53.0195 53.0196C65.0908 40.9483 64.9615 21.3203 52.8206 9.17943L48.5779 13.4221C58.416 23.2601 58.4649 39.0889 48.7769 48.7769L53.0195 53.0196ZM8.98045 8.98045L5.0406 12.9203L9.28324 17.1629L13.2231 13.2231L8.98045 8.98045ZM7.14685 18.0416L15.0663 18.0814L15.0965 12.0815L7.177 12.0417L7.14685 18.0416ZM10.1619 15.0265L10.1221 7.10705L4.12216 7.1372L4.16196 15.0567L10.1619 15.0265ZM0.287739 26.4955C-0.988477 35.8062 1.98378 45.6249 9.17943 52.8206L13.4221 48.5779C7.59952 42.7554 5.20178 34.8275 6.23216 27.3103L0.287739 26.4955Z" fill="#222222"/>
</svg>
