<svg width="73" height="70" viewBox="0 0 73 70" fill="none" xmlns="http://www.w3.org/2000/svg">
<path d="M33.8066 19.9179C35.0866 17.6217 35.7266 16.4736 36.6834 16.4736C37.6402 16.4736 38.2802 17.6217 39.5602 19.9179L39.8913 20.5119C40.2551 21.1644 40.4369 21.4907 40.7205 21.7059C41.0041 21.9212 41.3572 22.0011 42.0635 22.1609L42.7066 22.3064C45.1922 22.8688 46.4349 23.15 46.7306 24.1008C47.0263 25.0516 46.1791 26.0424 44.4846 28.0239L44.0462 28.5365C43.5646 29.0996 43.3239 29.3811 43.2156 29.7294C43.1073 30.0777 43.1437 30.4534 43.2165 31.2046L43.2827 31.8886C43.5389 34.5323 43.667 35.8542 42.8929 36.4419C42.1188 37.0295 40.9552 36.4937 38.628 35.4222L38.0259 35.145C37.3646 34.8405 37.0339 34.6882 36.6834 34.6882C36.3329 34.6882 36.0022 34.8405 35.3409 35.145L34.7388 35.4222C32.4116 36.4937 31.2479 37.0295 30.4739 36.4419C29.6998 35.8542 29.8279 34.5323 30.084 31.8886L30.1503 31.2046C30.2231 30.4534 30.2595 30.0777 30.1512 29.7294C30.0429 29.3811 29.8021 29.0996 29.3206 28.5365L28.8822 28.0239C27.1877 26.0424 26.3405 25.0516 26.6362 24.1008C26.9318 23.15 28.1746 22.8688 30.6602 22.3064L31.3032 22.1609C32.0096 22.0011 32.3627 21.9212 32.6463 21.7059C32.9298 21.4907 33.1117 21.1644 33.4754 20.5119L33.8066 19.9179Z" stroke="#B75400" stroke-width="5"/>
<path d="M60.2634 26.5789C60.2634 39.6012 49.7067 50.1579 36.6844 50.1579C23.6621 50.1579 13.1055 39.6012 13.1055 26.5789C13.1055 13.5567 23.6621 3 36.6844 3C49.7067 3 60.2634 13.5567 60.2634 26.5789Z" stroke="#B75400" stroke-width="5"/>
<path d="M36.6842 50.3867L23.9804 63.5404C22.161 65.4241 21.2514 66.366 20.481 66.6919C18.7255 67.4347 16.7783 66.7991 15.8548 65.1819C15.4496 64.4723 15.3233 63.1923 15.0707 60.6322C14.9282 59.1868 14.8569 58.4641 14.6404 57.8588C14.1559 56.5036 13.1378 55.4495 11.829 54.9478C11.2444 54.7237 10.5464 54.6499 9.15037 54.5022C6.67787 54.2407 5.44163 54.11 4.75623 53.6904C3.19442 52.7343 2.58055 50.718 3.29786 48.9004C3.61265 48.1028 4.52232 47.1609 6.34166 45.2772L14.6404 36.6846" stroke="#B75400" stroke-width="5"/>
<path d="M36.683 50.3867L49.3868 63.5404C51.2062 65.4241 52.1158 66.366 52.8862 66.6919C54.6417 67.4347 56.5889 66.7991 57.5124 65.1819C57.9176 64.4723 58.0439 63.1923 58.2964 60.6322C58.439 59.1868 58.5103 58.4641 58.7268 57.8588C59.2113 56.5036 60.2294 55.4495 61.5382 54.9478C62.1228 54.7237 62.8208 54.6499 64.2168 54.5022C66.6893 54.2407 67.9256 54.11 68.611 53.6904C70.1728 52.7343 70.7866 50.718 70.0693 48.9004C69.7545 48.1028 68.8449 47.1609 67.0255 45.2772L58.7268 36.6846" stroke="#B75400" stroke-width="5"/>
</svg>
