<svg width="66" height="66" viewBox="0 0 66 66" fill="none" xmlns="http://www.w3.org/2000/svg">
<path d="M63 28.5V33C63 47.1421 63 54.2132 58.6066 58.6066C54.2132 63 47.1421 63 33 63C18.8579 63 11.7868 63 7.3934 58.6066C3 54.2132 3 47.1421 3 33C3 18.8579 3 11.7868 7.3934 7.3934C11.7868 3 18.8579 3 33 3H37.5" stroke="#B75400" stroke-width="5" stroke-linecap="round"/>
<path d="M63 28.5V33C63 47.1421 63 54.2132 58.6066 58.6066C54.2132 63 47.1421 63 33 63C18.8579 63 11.7868 63 7.3934 58.6066C3 54.2132 3 47.1421 3 33C3 18.8579 3 11.7868 7.3934 7.3934C11.7868 3 18.8579 3 33 3H37.5" stroke="white" stroke-width="5" stroke-linecap="round"/>
<path d="M46.9561 7.36518L48.9026 5.41873C52.1276 2.19376 57.3563 2.19376 60.5813 5.41873C63.8062 8.64371 63.8062 13.8724 60.5813 17.0974L58.6348 19.0439M46.9561 7.36518C46.9561 7.36518 47.1994 11.5014 50.849 15.151C54.4986 18.8006 58.6348 19.0439 58.6348 19.0439M46.9561 7.36518L29.0615 25.2598C27.8495 26.4718 27.2435 27.0778 26.7223 27.7461C26.1075 28.5343 25.5804 29.3871 25.1503 30.2895C24.7857 31.0545 24.5147 31.8676 23.9727 33.4937L22.2373 38.7M58.6348 19.0439L40.7402 36.9385C39.5282 38.1505 38.9222 38.7565 38.2539 39.2777C37.4657 39.8925 36.6129 40.4196 35.7105 40.8497C34.9455 41.2143 34.1324 41.4853 32.5063 42.0273L27.3 43.7627M27.3 43.7627L23.9313 44.8857C23.131 45.1524 22.2488 44.9441 21.6523 44.3477C21.0559 43.7512 20.8476 42.869 21.1143 42.0687L22.2373 38.7M27.3 43.7627L22.2373 38.7" stroke="#B75400" stroke-width="5"/>
<path d="M46.9561 7.36518L48.9026 5.41873C52.1276 2.19376 57.3563 2.19376 60.5813 5.41873C63.8062 8.64371 63.8062 13.8724 60.5813 17.0974L58.6348 19.0439M46.9561 7.36518C46.9561 7.36518 47.1994 11.5014 50.849 15.151C54.4986 18.8006 58.6348 19.0439 58.6348 19.0439M46.9561 7.36518L29.0615 25.2598C27.8495 26.4718 27.2435 27.0778 26.7223 27.7461C26.1075 28.5343 25.5804 29.3871 25.1503 30.2895C24.7857 31.0545 24.5147 31.8676 23.9727 33.4937L22.2373 38.7M58.6348 19.0439L40.7402 36.9385C39.5282 38.1505 38.9222 38.7565 38.2539 39.2777C37.4657 39.8925 36.6129 40.4196 35.7105 40.8497C34.9455 41.2143 34.1324 41.4853 32.5063 42.0273L27.3 43.7627M27.3 43.7627L23.9313 44.8857C23.131 45.1524 22.2488 44.9441 21.6523 44.3477C21.0559 43.7512 20.8476 42.869 21.1143 42.0687L22.2373 38.7M27.3 43.7627L22.2373 38.7" stroke="white" stroke-width="5"/>
</svg>
