<svg width="68" height="66" viewBox="0 0 68 66" fill="none" xmlns="http://www.w3.org/2000/svg">
<path d="M3 63H64.6311" stroke="white" stroke-width="5" stroke-miterlimit="10" stroke-linecap="round" stroke-linejoin="round"/>
<path d="M5.92773 62.9978L6.08181 25.9266C6.08181 24.0469 6.97546 22.2597 8.45461 21.0888L30.0255 4.29425C32.2442 2.56858 35.3566 2.56858 37.6061 4.29425L59.177 21.0579C60.6869 22.2289 61.5498 24.0161 61.5498 25.9266V62.9978" stroke="white" stroke-width="5" stroke-miterlimit="10" stroke-linejoin="round"/>
<path d="M36.8968 47.5918H30.7337C28.176 47.5918 26.1113 49.6564 26.1113 52.2141V62.9996H41.5191V52.2141C41.5191 49.6564 39.4545 47.5918 36.8968 47.5918Z" stroke="white" stroke-width="5" stroke-miterlimit="10" stroke-linejoin="round"/>
<path d="M26.1118 37.5765H19.9487C18.2539 37.5765 16.8672 36.1898 16.8672 34.4949V29.8726C16.8672 28.1777 18.2539 26.791 19.9487 26.791H26.1118C27.8067 26.791 29.1934 28.1777 29.1934 29.8726V34.4949C29.1934 36.1898 27.8067 37.5765 26.1118 37.5765Z" stroke="white" stroke-width="5" stroke-miterlimit="10" stroke-linejoin="round"/>
<path d="M47.6822 37.5765H41.5191C39.8242 37.5765 38.4375 36.1898 38.4375 34.4949V29.8726C38.4375 28.1777 39.8242 26.791 41.5191 26.791H47.6822C49.377 26.791 50.7637 28.1777 50.7637 29.8726V34.4949C50.7637 36.1898 49.377 37.5765 47.6822 37.5765Z" stroke="white" stroke-width="5" stroke-miterlimit="10" stroke-linejoin="round"/>
<path d="M55.3876 16.7759L55.2952 7.53125H41.7363" stroke="white" stroke-width="5" stroke-miterlimit="10" stroke-linecap="round" stroke-linejoin="round"/>
</svg>
