<svg width="1122" height="168" viewBox="0 0 1122 168" fill="none" xmlns="http://www.w3.org/2000/svg">
<rect width="1122" height="168" rx="35" fill="white"/>
<rect x="2" y="2" width="1118" height="164" rx="33" stroke="#222222" stroke-opacity="0.3" stroke-width="4"/>
<path d="M479.3 76.9494H476.4V76.8H444V91.2H464.345C461.377 99.5826 453.401 105.6 444 105.6C432.071 105.6 422.4 95.9286 422.4 84C422.4 72.0714 432.071 62.4 444 62.4C449.506 62.4 454.516 64.4772 458.33 67.8702L468.512 57.6876C462.083 51.6954 453.482 48 444 48C424.119 48 408 64.119 408 84C408 103.881 424.119 120 444 120C463.881 120 480 103.881 480 84C480 81.5862 479.752 79.23 479.3 76.9494Z" fill="#FFC107"/>
<path d="M412.15 67.2438L423.978 75.918C427.179 67.9944 434.929 62.4 444 62.4C449.506 62.4 454.515 64.4772 458.329 67.8702L468.512 57.6876C462.082 51.6954 453.482 48 444 48C430.172 48 418.18 55.8066 412.15 67.2438Z" fill="#FF3D00"/>
<path d="M443.999 119.999C453.298 119.999 461.747 116.44 468.135 110.653L456.993 101.225C453.379 103.962 448.886 105.599 443.999 105.599C434.636 105.599 426.685 99.6281 423.69 91.2959L411.95 100.341C417.908 111.999 430.008 119.999 443.999 119.999Z" fill="#4CAF50"/>
<path d="M479.3 76.9492H476.4V76.7998H444V91.1998H464.345C462.92 95.2264 460.33 98.6986 456.989 101.228L456.994 101.224L468.136 110.652C467.348 111.369 480 102 480 83.9998C480 81.586 479.752 79.2298 479.3 76.9492Z" fill="#1976D2"/>
<path d="M568.105 107H562.673L562.169 101.96C560.433 104.872 556.345 107.84 550.017 107.84C539.657 107.84 530.473 100.224 530.473 87.12C530.473 74.072 540.161 66.456 550.465 66.456C560.097 66.456 566.257 72 568.385 78.552L562.057 80.96C560.713 76.48 556.793 72.672 550.465 72.672C544.025 72.672 537.305 77.264 537.305 87.12C537.305 96.808 543.577 101.68 550.409 101.68C558.417 101.68 561.441 96.192 561.777 92.776H548.673V86.896H568.105V107ZM587.672 102.016C591.704 102.016 595.288 99.048 595.288 93.336C595.288 87.68 591.704 84.768 587.672 84.768C583.696 84.768 580.056 87.68 580.056 93.336C580.056 98.992 583.696 102.016 587.672 102.016ZM587.672 78.888C595.848 78.888 601.84 84.992 601.84 93.336C601.84 101.736 595.848 107.84 587.672 107.84C579.552 107.84 573.56 101.736 573.56 93.336C573.56 84.992 579.552 78.888 587.672 78.888ZM620.102 102.016C624.134 102.016 627.718 99.048 627.718 93.336C627.718 87.68 624.134 84.768 620.102 84.768C616.126 84.768 612.486 87.68 612.486 93.336C612.486 98.992 616.126 102.016 620.102 102.016ZM620.102 78.888C628.278 78.888 634.27 84.992 634.27 93.336C634.27 101.736 628.278 107.84 620.102 107.84C611.982 107.84 605.99 101.736 605.99 93.336C605.99 84.992 611.982 78.888 620.102 78.888ZM638.588 108.512L644.58 106.944C645.028 110.304 647.66 112.824 651.412 112.824C656.564 112.824 659.14 110.192 659.14 104.648V101.792C657.964 103.92 655.22 105.768 651.244 105.768C643.964 105.768 638.644 100.168 638.644 92.496C638.644 85.216 643.74 79.224 651.244 79.224C655.5 79.224 658.132 80.96 659.308 83.2V79.728H665.58V104.424C665.58 111.704 661.828 118.48 651.58 118.48C644.356 118.48 639.316 114 638.588 108.512ZM652.308 100.224C656.452 100.224 659.308 97.2 659.308 92.496C659.308 87.848 656.34 84.824 652.308 84.824C648.164 84.824 645.196 87.848 645.196 92.496C645.196 97.256 648.052 100.224 652.308 100.224ZM680.02 107H673.524V66.456H680.02V107ZM692.935 90.368H706.319C706.207 87.176 704.079 84.32 699.599 84.32C695.511 84.32 693.159 87.456 692.935 90.368ZM707.047 97.48L712.535 99.216C711.079 103.976 706.767 107.84 700.215 107.84C692.823 107.84 686.271 102.464 686.271 93.224C686.271 84.6 692.655 78.888 699.543 78.888C707.943 78.888 712.871 84.432 712.871 93.056C712.871 94.12 712.759 95.016 712.703 95.128H692.767C692.935 99.272 696.183 102.24 700.215 102.24C704.135 102.24 706.151 100.168 707.047 97.48Z" fill="#222222"/>
</svg>
