<svg width="589" height="589" viewBox="0 0 589 589" fill="none" xmlns="http://www.w3.org/2000/svg">
<g opacity="0.4">
<path d="M549.263 441.735L346.086 335.588L464.209 464.325L335.063 345.522L441.347 549.107L318.461 355.593L356.565 526.244L303.9 358.723L294.238 588.3L284.576 359.267L232.182 525.972L270.423 354.64L147.265 548.562L253.412 345.386L124.675 463.509L243.478 334.363L39.7569 440.646L233.271 317.761L62.7554 355.865L230.277 303.2L0.700195 293.537L229.733 283.875L63.0276 231.482L234.36 269.722L40.4373 146.565L243.614 252.712L125.355 123.974L254.637 242.777L148.217 39.0567L271.239 232.571L233.135 62.0552L285.664 229.577L295.462 0L305.124 229.033L357.518 62.3274L319.277 233.66L442.435 39.7371L336.288 242.913L465.026 124.655L346.222 253.936L549.807 147.517L356.293 270.539L526.945 232.435L359.423 284.964L589 294.762L359.967 304.424L526.672 356.817L355.34 318.577L549.263 441.735Z" fill="#EFEFEF"/>
</g>
<path d="M203.413 325.768C217.017 325.768 228.045 314.739 228.045 301.135C228.045 287.531 217.017 276.503 203.413 276.503C189.809 276.503 178.78 287.531 178.78 301.135C178.78 314.739 189.809 325.768 203.413 325.768Z" fill="#9D9D9D"/>
<g opacity="0.1">
<path d="M203.413 325.768C217.017 325.768 228.045 314.739 228.045 301.135C228.045 287.531 217.017 276.503 203.413 276.503C189.809 276.503 178.78 287.531 178.78 301.135C178.78 314.739 189.809 325.768 203.413 325.768Z" fill="black"/>
</g>
<path d="M215.186 312.898C221.682 306.402 221.682 295.869 215.186 289.373C208.69 282.877 198.157 282.877 191.661 289.373C185.165 295.869 185.165 306.402 191.661 312.898C198.157 319.395 208.69 319.395 215.186 312.898Z" fill="#5F5F5F"/>
<path d="M386.29 325.768C399.894 325.768 410.922 314.739 410.922 301.135C410.922 287.531 399.894 276.503 386.29 276.503C372.686 276.503 361.657 287.531 361.657 301.135C361.657 314.739 372.686 325.768 386.29 325.768Z" fill="#9D9D9D"/>
<g opacity="0.1">
<path d="M386.29 325.768C399.894 325.768 410.922 314.739 410.922 301.135C410.922 287.531 399.894 276.503 386.29 276.503C372.686 276.503 361.657 287.531 361.657 301.135C361.657 314.739 372.686 325.768 386.29 325.768Z" fill="black"/>
</g>
<path d="M402.463 304.882C404.559 295.937 399.008 286.986 390.063 284.89C381.119 282.793 372.168 288.345 370.071 297.29C367.975 306.234 373.526 315.185 382.471 317.281C391.416 319.378 400.366 313.826 402.463 304.882Z" fill="#5F5F5F"/>
<path d="M478.421 340.804H111.28C106.055 340.804 101.79 336.538 101.79 331.313V298.897C101.79 293.672 106.055 289.406 111.28 289.406H478.314C483.539 289.406 487.805 293.672 487.805 298.897V331.313C487.805 336.538 483.646 340.804 478.421 340.804Z" fill="#9D9D9D"/>
<path opacity="0.3" d="M122.051 294.738C111.281 296.764 104.03 308.494 108.508 311.799C116.079 317.451 309.193 306.041 309.193 298.15C309.193 291.006 136.553 292.072 122.051 294.738Z" fill="white"/>
<path opacity="0.3" d="M341.823 298.683C341.823 301.989 337.344 304.655 331.693 304.655C326.148 304.655 321.562 301.989 321.562 298.683C321.562 295.378 326.041 292.712 331.693 292.712C337.238 292.712 341.823 295.378 341.823 298.683Z" fill="white"/>
<path d="M120.237 340.803L129.941 504.486C130.474 514.296 138.472 521.974 148.069 521.974H441.205C451.229 521.974 459.333 514.296 459.76 504.486L469.463 340.803H120.237ZM158.626 372.793C158.626 372.686 158.626 372.473 158.626 372.366C158.626 368.101 162.144 364.582 166.516 364.582C170.675 364.582 174.087 367.781 174.407 371.94L177.073 418.219C177.073 418.326 177.073 418.539 177.073 418.645C177.073 422.911 173.554 426.536 169.182 426.536C165.024 426.536 161.611 423.231 161.398 419.072L158.626 372.793ZM173.554 503.633C169.396 503.633 165.983 500.434 165.77 496.275L163.104 449.996C162.891 445.517 166.41 441.678 170.888 441.678C175.047 441.678 178.459 444.984 178.673 449.036L181.339 495.315C181.339 495.422 181.339 495.635 181.339 495.742C181.339 500.114 177.926 503.633 173.554 503.633ZM190.509 372.686C190.296 368.208 193.921 364.475 198.4 364.475C202.559 364.475 206.078 367.781 206.291 371.94L208.317 418.219C208.53 422.698 204.905 426.43 200.533 426.43C196.374 426.43 192.855 423.124 192.748 418.859L190.509 372.686ZM203.625 503.633C199.36 503.633 195.947 500.327 195.734 496.168L193.708 449.889C193.495 445.411 197.12 441.678 201.599 441.678C205.758 441.678 209.277 444.984 209.49 449.249L211.516 495.529C211.729 500.007 208.104 503.633 203.625 503.633ZM222.393 372.58C222.286 368.101 225.805 364.475 230.283 364.475C234.549 364.475 237.961 367.888 238.174 372.153L239.454 418.432C239.561 422.911 236.042 426.536 231.563 426.536C227.298 426.536 223.779 423.124 223.672 418.859L222.393 372.58ZM233.802 503.633C229.537 503.633 226.018 500.22 225.911 495.955L224.632 449.676C224.525 445.197 228.044 441.572 232.523 441.572C236.788 441.572 240.307 444.984 240.414 449.249L241.693 495.529C241.8 500.007 238.174 503.633 233.802 503.633ZM255.342 372.473C255.236 368.101 258.861 364.475 263.233 364.475C267.499 364.475 271.018 367.888 271.124 372.26L271.764 418.539C271.871 422.911 268.245 426.536 263.873 426.536C259.608 426.536 256.089 423.124 255.982 418.752L255.342 372.473ZM264.94 503.633C260.568 503.633 257.155 500.22 257.049 495.848L256.409 449.569C256.302 445.197 259.821 441.572 264.3 441.572C268.565 441.572 272.084 444.984 272.191 449.356L272.83 495.635C272.83 500.114 269.312 503.633 264.94 503.633ZM302.688 495.848C302.688 500.22 299.169 503.739 294.797 503.739C290.425 503.739 286.906 500.22 286.906 495.848V449.569C286.906 445.197 290.425 441.678 294.797 441.678C299.169 441.678 302.688 445.197 302.688 449.569V495.848ZM302.688 418.645C302.688 423.017 299.169 426.536 294.797 426.536C290.425 426.536 286.906 423.017 286.906 418.645V372.366C286.906 367.994 290.425 364.475 294.797 364.475C299.169 364.475 302.688 367.994 302.688 372.366V418.645ZM333.079 495.955C332.972 500.22 329.56 503.739 325.188 503.739C320.816 503.739 317.297 500.114 317.297 495.742L317.937 449.463C318.043 445.197 321.455 441.678 325.827 441.678C330.199 441.678 333.718 445.304 333.718 449.676L333.079 495.955ZM334.145 418.752C334.038 423.017 330.626 426.536 326.254 426.536C321.882 426.536 318.363 422.911 318.363 418.539L319.003 372.26C319.003 367.994 322.522 364.475 326.894 364.475C331.266 364.475 334.785 368.101 334.785 372.473L334.145 418.752ZM364.216 496.062C364.109 500.327 360.59 503.739 356.325 503.739C351.846 503.739 348.327 500.114 348.434 495.635L349.713 449.356C349.82 445.091 353.339 441.678 357.604 441.678C362.083 441.678 365.602 445.304 365.495 449.783L364.216 496.062ZM366.455 418.859C366.348 423.124 362.829 426.536 358.564 426.536C354.192 426.536 350.567 422.911 350.673 418.432L351.953 372.153C352.059 367.888 355.578 364.475 359.844 364.475C364.322 364.475 367.841 368.101 367.735 372.58L366.455 418.859ZM394.393 496.168C394.18 500.327 390.768 503.633 386.502 503.633C382.024 503.633 378.505 499.901 378.718 495.422L380.744 449.143C380.957 444.984 384.37 441.572 388.635 441.572C393.113 441.572 396.632 445.304 396.526 449.783L394.393 496.168ZM397.699 418.965C397.485 423.124 394.073 426.536 389.914 426.536C385.436 426.536 381.917 422.804 382.13 418.326L384.156 372.046C384.369 367.888 387.782 364.582 392.047 364.582C396.526 364.582 400.045 368.314 399.938 372.793L397.699 418.965ZM427.13 449.996L424.464 496.275C424.251 500.434 420.838 503.633 416.68 503.633C412.308 503.633 408.789 500.114 408.789 495.848C408.789 495.742 408.789 495.529 408.789 495.422L411.454 449.143C411.668 444.984 415.08 441.785 419.239 441.785C423.824 441.678 427.343 445.517 427.13 449.996ZM431.502 372.793L428.836 419.072C428.623 423.231 425.21 426.536 421.052 426.536C416.68 426.536 413.161 423.017 413.161 418.645C413.161 418.539 413.161 418.326 413.161 418.219L415.827 371.94C416.04 367.781 419.452 364.582 423.717 364.582C428.089 364.582 431.608 368.101 431.608 372.366C431.502 372.473 431.502 372.686 431.502 372.793Z" fill="#9D9D9D"/>
<path opacity="0.1" d="M120.237 340.803L129.941 504.486C130.474 514.296 138.472 521.974 148.069 521.974H441.205C451.229 521.974 459.333 514.296 459.76 504.486L469.463 340.803H120.237ZM158.626 372.793C158.626 372.686 158.626 372.473 158.626 372.366C158.626 368.101 162.144 364.582 166.516 364.582C170.675 364.582 174.087 367.781 174.407 371.94L177.073 418.219C177.073 418.326 177.073 418.539 177.073 418.645C177.073 422.911 173.554 426.536 169.182 426.536C165.024 426.536 161.611 423.231 161.398 419.072L158.626 372.793ZM173.554 503.633C169.396 503.633 165.983 500.434 165.77 496.275L163.104 449.996C162.891 445.517 166.41 441.678 170.888 441.678C175.047 441.678 178.459 444.984 178.673 449.036L181.339 495.315C181.339 495.422 181.339 495.635 181.339 495.742C181.339 500.114 177.926 503.633 173.554 503.633ZM190.509 372.686C190.296 368.208 193.921 364.475 198.4 364.475C202.559 364.475 206.078 367.781 206.291 371.94L208.317 418.219C208.53 422.698 204.905 426.43 200.533 426.43C196.374 426.43 192.855 423.124 192.748 418.859L190.509 372.686ZM203.625 503.633C199.36 503.633 195.947 500.327 195.734 496.168L193.708 449.889C193.495 445.411 197.12 441.678 201.599 441.678C205.758 441.678 209.277 444.984 209.49 449.249L211.516 495.529C211.729 500.007 208.104 503.633 203.625 503.633ZM222.393 372.58C222.286 368.101 225.805 364.475 230.283 364.475C234.549 364.475 237.961 367.888 238.174 372.153L239.454 418.432C239.561 422.911 236.042 426.536 231.563 426.536C227.298 426.536 223.779 423.124 223.672 418.859L222.393 372.58ZM233.802 503.633C229.537 503.633 226.018 500.22 225.911 495.955L224.632 449.676C224.525 445.197 228.044 441.572 232.523 441.572C236.788 441.572 240.307 444.984 240.414 449.249L241.693 495.529C241.8 500.007 238.174 503.633 233.802 503.633ZM255.342 372.473C255.236 368.101 258.861 364.475 263.233 364.475C267.499 364.475 271.018 367.888 271.124 372.26L271.764 418.539C271.871 422.911 268.245 426.536 263.873 426.536C259.608 426.536 256.089 423.124 255.982 418.752L255.342 372.473ZM264.94 503.633C260.568 503.633 257.155 500.22 257.049 495.848L256.409 449.569C256.302 445.197 259.821 441.572 264.3 441.572C268.565 441.572 272.084 444.984 272.191 449.356L272.83 495.635C272.83 500.114 269.312 503.633 264.94 503.633ZM302.688 495.848C302.688 500.22 299.169 503.739 294.797 503.739C290.425 503.739 286.906 500.22 286.906 495.848V449.569C286.906 445.197 290.425 441.678 294.797 441.678C299.169 441.678 302.688 445.197 302.688 449.569V495.848ZM302.688 418.645C302.688 423.017 299.169 426.536 294.797 426.536C290.425 426.536 286.906 423.017 286.906 418.645V372.366C286.906 367.994 290.425 364.475 294.797 364.475C299.169 364.475 302.688 367.994 302.688 372.366V418.645ZM333.079 495.955C332.972 500.22 329.56 503.739 325.188 503.739C320.816 503.739 317.297 500.114 317.297 495.742L317.937 449.463C318.043 445.197 321.455 441.678 325.827 441.678C330.199 441.678 333.718 445.304 333.718 449.676L333.079 495.955ZM334.145 418.752C334.038 423.017 330.626 426.536 326.254 426.536C321.882 426.536 318.363 422.911 318.363 418.539L319.003 372.26C319.003 367.994 322.522 364.475 326.894 364.475C331.266 364.475 334.785 368.101 334.785 372.473L334.145 418.752ZM364.216 496.062C364.109 500.327 360.59 503.739 356.325 503.739C351.846 503.739 348.327 500.114 348.434 495.635L349.713 449.356C349.82 445.091 353.339 441.678 357.604 441.678C362.083 441.678 365.602 445.304 365.495 449.783L364.216 496.062ZM366.455 418.859C366.348 423.124 362.829 426.536 358.564 426.536C354.192 426.536 350.567 422.911 350.673 418.432L351.953 372.153C352.059 367.888 355.578 364.475 359.844 364.475C364.322 364.475 367.841 368.101 367.735 372.58L366.455 418.859ZM394.393 496.168C394.18 500.327 390.768 503.633 386.502 503.633C382.024 503.633 378.505 499.901 378.718 495.422L380.744 449.143C380.957 444.984 384.37 441.572 388.635 441.572C393.113 441.572 396.632 445.304 396.526 449.783L394.393 496.168ZM397.699 418.965C397.485 423.124 394.073 426.536 389.914 426.536C385.436 426.536 381.917 422.804 382.13 418.326L384.156 372.046C384.369 367.888 387.782 364.582 392.047 364.582C396.526 364.582 400.045 368.314 399.938 372.793L397.699 418.965ZM427.13 449.996L424.464 496.275C424.251 500.434 420.838 503.633 416.68 503.633C412.308 503.633 408.789 500.114 408.789 495.848C408.789 495.742 408.789 495.529 408.789 495.422L411.454 449.143C411.668 444.984 415.08 441.785 419.239 441.785C423.824 441.678 427.343 445.517 427.13 449.996ZM431.502 372.793L428.836 419.072C428.623 423.231 425.21 426.536 421.052 426.536C416.68 426.536 413.161 423.017 413.161 418.645C413.161 418.539 413.161 418.326 413.161 418.219L415.827 371.94C416.04 367.781 419.452 364.582 423.717 364.582C428.089 364.582 431.608 368.101 431.608 372.366C431.502 372.473 431.502 372.686 431.502 372.793Z" fill="black"/>
<path d="M120.237 340.803L129.941 504.486C130.474 514.296 138.472 521.974 148.282 521.974H441.419C451.229 521.974 459.226 514.296 459.76 504.486L469.463 340.803H120.237ZM150.948 372.793C150.948 372.686 150.948 372.473 150.948 372.366C150.948 368.101 154.467 364.582 158.839 364.582C162.997 364.582 166.41 367.781 166.73 371.94L169.396 418.219C169.396 418.326 169.396 418.539 169.396 418.645C169.396 422.911 165.877 426.536 161.505 426.536C157.346 426.536 153.934 423.231 153.72 419.072L150.948 372.793ZM165.77 503.633C161.611 503.633 158.199 500.434 157.986 496.275L155.32 449.996C155.107 445.517 158.626 441.678 163.104 441.678C167.263 441.678 170.675 444.984 170.888 449.036L173.554 495.315C173.554 495.422 173.554 495.635 173.554 495.742C173.661 500.114 170.142 503.633 165.77 503.633ZM184.964 372.686C184.751 368.208 188.376 364.475 192.855 364.475C197.014 364.475 200.533 367.781 200.746 371.94L202.772 418.219C202.985 422.698 199.36 426.43 194.988 426.43C190.829 426.43 187.31 423.124 187.203 418.859L184.964 372.686ZM198.08 503.633C193.815 503.633 190.402 500.327 190.189 496.168L188.163 449.889C187.95 445.411 191.575 441.678 196.054 441.678C200.213 441.678 203.732 444.984 203.945 449.249L205.971 495.529C206.078 500.007 202.559 503.633 198.08 503.633ZM218.98 372.58C218.874 368.101 222.393 364.475 226.871 364.475C231.137 364.475 234.549 367.888 234.762 372.153L236.042 418.432C236.148 422.911 232.629 426.536 228.151 426.536C223.885 426.536 220.367 423.124 220.26 418.859L218.98 372.58ZM230.283 503.633C226.018 503.633 222.499 500.22 222.393 495.955L221.113 449.676C221.006 445.197 224.525 441.572 229.004 441.572C233.269 441.572 236.788 444.984 236.895 449.249L238.174 495.529C238.281 500.007 234.762 503.633 230.283 503.633ZM252.997 372.473C252.89 368.101 256.515 364.475 260.887 364.475C265.153 364.475 268.672 367.888 268.778 372.26L269.418 418.539C269.525 422.911 265.899 426.536 261.527 426.536C257.262 426.536 253.743 423.124 253.636 418.752L252.997 372.473ZM262.594 503.633C258.222 503.633 254.809 500.22 254.703 495.848L254.063 449.569C253.956 445.197 257.475 441.572 261.954 441.572C266.219 441.572 269.738 444.984 269.845 449.356L270.484 495.635C270.484 500.114 266.966 503.633 262.594 503.633ZM302.688 495.848C302.688 500.22 299.169 503.739 294.797 503.739C290.425 503.739 286.906 500.22 286.906 495.848V449.569C286.906 445.197 290.425 441.678 294.797 441.678C299.169 441.678 302.688 445.197 302.688 449.569V495.848ZM302.688 418.645C302.688 423.017 299.169 426.536 294.797 426.536C290.425 426.536 286.906 423.017 286.906 418.645V372.366C286.906 367.994 290.425 364.475 294.797 364.475C299.169 364.475 302.688 367.994 302.688 372.366V418.645ZM334.998 495.955C334.891 500.22 331.479 503.739 327.107 503.739C322.735 503.739 319.216 500.114 319.216 495.742L319.856 449.463C319.963 445.197 323.375 441.678 327.747 441.678C332.119 441.678 335.638 445.304 335.638 449.676L334.998 495.955ZM336.064 418.752C335.958 423.017 332.545 426.536 328.173 426.536C323.801 426.536 320.283 422.911 320.283 418.539L320.922 372.26C320.922 367.994 324.441 364.475 328.813 364.475C333.185 364.475 336.704 368.101 336.704 372.473L336.064 418.752ZM367.201 496.062C367.095 500.327 363.576 503.739 359.311 503.739C354.832 503.739 351.313 500.114 351.42 495.635L352.699 449.356C352.806 445.091 356.325 441.678 360.59 441.678C365.069 441.678 368.588 445.304 368.481 449.783L367.201 496.062ZM369.441 418.859C369.334 423.124 365.815 426.536 361.55 426.536C357.178 426.536 353.552 422.911 353.659 418.432L354.939 372.153C355.045 367.888 358.564 364.475 362.829 364.475C367.308 364.475 370.827 368.101 370.72 372.58L369.441 418.859ZM399.405 496.168C399.192 500.327 395.779 503.633 391.514 503.633C387.035 503.633 383.516 499.901 383.73 495.422L385.756 449.143C385.969 444.984 389.381 441.572 393.647 441.572C398.125 441.572 401.644 445.304 401.538 449.783L399.405 496.168ZM402.711 418.965C402.497 423.124 399.085 426.536 394.926 426.536C390.448 426.536 386.929 422.804 387.142 418.326L389.168 372.046C389.381 367.888 392.794 364.582 397.059 364.582C401.538 364.582 405.056 368.314 404.95 372.793L402.711 418.965ZM434.381 449.996L431.715 496.275C431.502 500.434 428.089 503.633 423.931 503.633C419.559 503.633 416.04 500.114 416.04 495.848C416.04 495.742 416.04 495.529 416.04 495.422L418.706 449.143C418.919 444.984 422.331 441.785 426.49 441.785C430.969 441.678 434.594 445.517 434.381 449.996ZM438.753 372.793L436.087 419.072C435.874 423.231 432.461 426.536 428.303 426.536C423.931 426.536 420.412 423.017 420.412 418.645C420.412 418.539 420.412 418.326 420.412 418.219L423.078 371.94C423.291 367.781 426.703 364.582 430.968 364.582C435.34 364.582 438.859 368.101 438.859 372.366C438.753 372.473 438.753 372.686 438.753 372.793Z" fill="#9D9D9D"/>
<path opacity="0.1" d="M120.237 340.803L121.197 356.051L468.93 349.44L469.463 340.803H120.237Z" fill="black"/>
<path d="M432.462 521.867H157.133V530.291H432.462V521.867Z" fill="#9D9D9D"/>
<path opacity="0.1" d="M432.462 521.867H157.133V530.291H432.462V521.867Z" fill="black"/>
<path d="M195.415 325.768C209.019 325.768 220.047 314.739 220.047 301.135C220.047 287.531 209.019 276.503 195.415 276.503C181.811 276.503 170.782 287.531 170.782 301.135C170.782 314.739 181.811 325.768 195.415 325.768Z" fill="#9D9D9D"/>
<path d="M207.188 312.898C213.684 306.402 213.684 295.869 207.188 289.373C200.692 282.877 190.159 282.877 183.663 289.373C177.167 295.869 177.167 306.402 183.663 312.898C190.159 319.395 200.692 319.395 207.188 312.898Z" fill="#5F5F5F"/>
<path d="M394.287 325.768C407.891 325.768 418.919 314.739 418.919 301.135C418.919 287.531 407.891 276.503 394.287 276.503C380.683 276.503 369.654 287.531 369.654 301.135C369.654 314.739 380.683 325.768 394.287 325.768Z" fill="#9D9D9D"/>
<path d="M410.46 304.882C412.557 295.937 407.005 286.986 398.06 284.89C389.116 282.793 380.165 288.345 378.069 297.29C375.972 306.234 381.524 315.185 390.468 317.281C399.413 319.378 408.363 313.826 410.46 304.882Z" fill="#5F5F5F"/>
<path d="M398.02 311.265L401.858 309.133C408.47 305.507 410.922 297.19 407.297 290.472C407.297 290.472 374.453 234.595 361.551 211.029C347.368 185.117 316.658 125.935 316.658 125.935C313.032 119.324 304.715 116.872 297.997 120.497L294.158 122.63C287.547 126.255 285.094 134.573 288.72 141.291C288.72 141.291 323.482 200.153 337.665 225.851C350.674 249.631 379.359 305.827 379.359 305.827C382.984 312.438 391.302 314.891 398.02 311.265Z" fill="#5F5F5F"/>
<path opacity="0.2" d="M288.613 141.291C288.613 141.291 323.375 200.152 337.558 225.851C350.567 249.631 379.252 305.827 379.252 305.827C382.877 312.438 391.195 314.89 397.912 311.265L401.751 309.132C407.616 305.933 410.282 298.895 408.149 292.817C406.976 295.27 405.057 297.296 402.498 298.682L398.766 300.708C392.261 304.227 384.157 301.881 380.531 295.376C380.531 295.376 352.593 241.1 339.904 217.96C326.041 192.901 292.238 136.172 292.238 136.172C290.106 132.227 290.106 127.641 291.918 123.909C287.013 128.068 285.414 135.319 288.613 141.291Z" fill="black"/>
<path d="M301.729 124.549C302.795 119.964 309.833 122.736 312.712 125.402C315.804 128.388 332.546 160.911 330.52 161.871C326.894 163.577 300.875 128.601 301.729 124.549Z" fill="#828282"/>
<path d="M191.576 311.265L187.737 309.133C181.126 305.507 178.673 297.19 182.299 290.472C182.299 290.472 215.142 234.595 228.045 211.029C242.227 185.117 272.938 125.935 272.938 125.935C276.563 119.324 284.881 116.872 291.599 120.497L295.437 122.63C302.049 126.255 304.501 134.573 300.876 141.291C300.876 141.291 266.113 200.153 251.931 225.851C238.922 249.631 210.237 305.827 210.237 305.827C206.505 312.438 198.187 314.891 191.576 311.265Z" fill="#5F5F5F"/>
<path opacity="0.2" d="M300.875 141.291C300.875 141.291 266.113 200.152 251.931 225.851C238.921 249.631 210.237 305.827 210.237 305.827C206.611 312.438 198.294 314.89 191.576 311.265L187.737 309.132C181.872 305.933 179.206 298.895 181.339 292.817C182.512 295.27 184.431 297.296 186.99 298.682L190.723 300.708C197.227 304.227 205.332 301.881 208.957 295.376C208.957 295.376 236.895 241.1 249.585 217.96C263.447 192.901 297.25 136.172 297.25 136.172C299.383 132.227 299.383 127.641 297.57 123.909C302.475 128.068 304.074 135.319 300.875 141.291Z" fill="black"/>
<path d="M286.053 121.99C282.961 119.964 276.776 125.189 274.857 128.069C272.831 130.948 241.16 192.262 244.039 193.755C246.812 195.141 291.065 125.189 286.053 121.99Z" fill="#828282"/>
<g opacity="0.2">
<path d="M301.902 125.663C304.497 122.291 303.867 117.454 300.496 114.859C297.124 112.265 292.287 112.894 289.692 116.266C287.098 119.638 287.727 124.475 291.099 127.069C294.471 129.664 299.308 129.034 301.902 125.663Z" fill="black"/>
</g>
<path d="M294.143 139.09C305.046 139.09 313.885 130.251 313.885 119.348C313.885 108.444 305.046 99.6055 294.143 99.6055C283.239 99.6055 274.4 108.444 274.4 119.348C274.4 130.251 283.239 139.09 294.143 139.09Z" fill="url(#paint0_radial_48_142)"/>
<g filter="url(#filter0_d_48_142)">
<path d="M370.841 256.339L224.778 266.153C220.862 266.395 217.477 263.446 217.187 259.53L211.53 174.919C211.289 171.002 214.238 167.618 218.154 167.328L364.217 157.513C368.133 157.271 371.518 160.22 371.808 164.137L377.513 248.699C377.755 252.664 374.806 256.048 370.841 256.339Z" fill="#FFCFA6"/>
<path d="M370.763 255.275L224.712 265.089C224.712 265.089 224.711 265.089 224.71 265.089C221.378 265.294 218.5 262.785 218.251 259.455C218.251 259.453 218.251 259.452 218.251 259.451L212.595 174.853C212.595 174.852 212.595 174.851 212.595 174.85C212.39 171.518 214.899 168.64 218.229 168.391C218.231 168.391 218.232 168.391 218.233 168.391L364.283 158.577C364.284 158.577 364.285 158.577 364.285 158.577C367.618 158.373 370.496 160.882 370.744 164.213C370.744 164.214 370.744 164.215 370.744 164.215L376.449 248.764C376.449 248.765 376.449 248.766 376.449 248.767C376.653 252.149 374.144 255.026 370.766 255.275C370.765 255.275 370.764 255.275 370.763 255.275Z" stroke="url(#paint1_linear_48_142)" stroke-width="2.13268"/>
</g>
<path d="M289.197 206.181L284.426 206.514L277.681 192.694L275.648 207.128L270.877 207.462L273.948 185.456L279.453 185.071L285.577 197.92L287.467 184.511L292.299 184.173L289.197 206.181ZM294.747 196.357C294.189 188.374 299.514 183.207 305.539 182.786C311.411 182.375 315.513 186.084 315.921 191.926C316.479 199.909 311.126 205.108 305.101 205.53C299.32 205.934 295.156 202.199 294.747 196.357ZM310.979 192.456C310.757 189.275 308.831 187.228 305.619 187.452C302.469 187.672 299.328 190.658 299.683 195.735C299.91 198.977 301.897 201.021 305.016 200.802C308.167 200.582 311.334 197.533 310.979 192.456ZM244.873 233.928C244.315 225.945 249.64 220.778 255.665 220.357C261.537 219.946 265.638 223.655 266.047 229.496C266.605 237.479 261.252 242.679 255.227 243.1C249.446 243.505 245.282 239.769 244.873 233.928ZM261.105 230.026C260.882 226.846 258.957 224.798 255.745 225.023C252.595 225.243 249.454 228.229 249.809 233.306C250.035 236.548 252.022 238.591 255.142 238.373C258.292 238.153 261.46 235.104 261.105 230.026ZM280.084 240.901L276.736 233.021L274.473 233.179L273.325 241.374L268.492 241.712L271.563 219.706L279.363 219.16C283.522 218.87 285.863 221.134 286.087 224.345C286.34 227.955 284.319 230.708 281.334 231.962L285.192 240.544L280.084 240.901ZM275.038 228.96L277.791 228.767C280.024 228.611 281.277 227.202 281.151 225.398C281.059 224.082 280.235 223.279 278.461 223.404L275.8 223.59L275.038 228.96ZM293.913 235.262L297.583 235.006C301.742 234.715 303.76 230.609 303.508 227C303.307 224.125 301.694 222.148 298.268 222.387L295.668 222.569L293.913 235.262ZM297.694 239.67L288.518 240.311L291.529 218.31L298.227 217.841C304.283 217.418 308.061 220.903 308.439 226.317C309.004 234.392 303.719 239.248 297.694 239.67ZM324.667 237.784L310.934 238.744L314.005 216.738L327.738 215.778L327.078 220.403L318.178 221.026L317.58 225.217L325.654 224.652L325.064 228.966L316.99 229.53L316.394 233.752L325.325 233.127L324.667 237.784ZM340.909 236.648L337.561 228.768L335.298 228.926L334.15 237.12L329.317 237.458L332.389 215.453L340.188 214.907C344.348 214.616 346.688 216.881 346.913 220.092C347.165 223.701 345.145 226.455 342.159 227.709L346.017 236.291L340.909 236.648ZM335.864 224.707L338.616 224.514C340.849 224.358 342.103 222.949 341.977 221.144C341.885 219.829 341.06 219.026 339.286 219.15L336.625 219.336L335.864 224.707Z" fill="#B75400"/>
<defs>
<filter id="filter0_d_48_142" x="200.853" y="152.167" width="187.338" height="129.995" filterUnits="userSpaceOnUse" color-interpolation-filters="sRGB">
<feFlood flood-opacity="0" result="BackgroundImageFix"/>
<feColorMatrix in="SourceAlpha" type="matrix" values="0 0 0 0 0 0 0 0 0 0 0 0 0 0 0 0 0 0 127 0" result="hardAlpha"/>
<feOffset dy="5.3317"/>
<feGaussianBlur stdDeviation="5.3317"/>
<feComposite in2="hardAlpha" operator="out"/>
<feColorMatrix type="matrix" values="0 0 0 0 0.545833 0 0 0 0 0.337313 0 0 0 0 0.159201 0 0 0 0.33 0"/>
<feBlend mode="normal" in2="BackgroundImageFix" result="effect1_dropShadow_48_142"/>
<feBlend mode="normal" in="SourceGraphic" in2="effect1_dropShadow_48_142" result="shape"/>
</filter>
<radialGradient id="paint0_radial_48_142" cx="0" cy="0" r="1" gradientUnits="userSpaceOnUse" gradientTransform="translate(296.368 113.865) rotate(-3.84151) scale(27.7405)">
<stop offset="0.0126991" stop-color="#EDEDED"/>
<stop offset="0.0944557" stop-color="#DEDEDD"/>
<stop offset="0.3241" stop-color="#B7B7B4"/>
<stop offset="0.5054" stop-color="#9F9F9A"/>
<stop offset="0.6146" stop-color="#969691"/>
<stop offset="0.9997" stop-color="#4C4C4B"/>
</radialGradient>
<linearGradient id="paint1_linear_48_142" x1="294.522" y1="157.499" x2="294.522" y2="266.167" gradientUnits="userSpaceOnUse">
<stop stop-color="#B75400" stop-opacity="0"/>
<stop offset="1" stop-color="#B75400"/>
</linearGradient>
</defs>
</svg>
