<svg width="66" height="66" viewBox="0 0 66 66" fill="none" xmlns="http://www.w3.org/2000/svg">
<path d="M32.9993 39H35.9993C39.2993 39 41.9993 36.3 41.9993 33V3H14.9993C10.4993 3 6.5693 5.48996 4.5293 9.14996" stroke="#222222" stroke-width="5" stroke-linecap="round" stroke-linejoin="round"/>
<path d="M3 48C3 52.98 7.02 57 12 57H15C15 53.7 17.7 51 21 51C24.3 51 27 53.7 27 57H39C39 53.7 41.7 51 45 51C48.3 51 51 53.7 51 57H54C58.98 57 63 52.98 63 48V39H54C52.35 39 51 37.65 51 36V27C51 25.35 52.35 24 54 24H57.8699L52.7401 15.03C51.6601 13.17 49.6801 12 47.5201 12H42V33C42 36.3 39.3 39 36 39H33" stroke="#222222" stroke-width="5" stroke-linecap="round" stroke-linejoin="round"/>
<path d="M21 63C24.3137 63 27 60.3137 27 57C27 53.6863 24.3137 51 21 51C17.6863 51 15 53.6863 15 57C15 60.3137 17.6863 63 21 63Z" stroke="#222222" stroke-width="5" stroke-linecap="round" stroke-linejoin="round"/>
<path d="M45 63C48.3137 63 51 60.3137 51 57C51 53.6863 48.3137 51 45 51C41.6863 51 39 53.6863 39 57C39 60.3137 41.6863 63 45 63Z" stroke="#222222" stroke-width="5" stroke-linecap="round" stroke-linejoin="round"/>
<path d="M63 33V39H54C52.35 39 51 37.65 51 36V27C51 25.35 52.35 24 54 24H57.8699L63 33Z" stroke="#222222" stroke-width="5" stroke-linecap="round" stroke-linejoin="round"/>
<path d="M3 21H21" stroke="#222222" stroke-width="5" stroke-linecap="round" stroke-linejoin="round"/>
<path d="M3 30H15" stroke="#222222" stroke-width="5" stroke-linecap="round" stroke-linejoin="round"/>
<path d="M3 39H9" stroke="#222222" stroke-width="5" stroke-linecap="round" stroke-linejoin="round"/>
</svg>
