<svg width="80" height="80" viewBox="0 0 80 80" fill="none" xmlns="http://www.w3.org/2000/svg">
<path d="M40 76C59.8823 76 76 59.8823 76 40C76 20.1177 59.8823 4 40 4C20.1177 4 4 20.1177 4 40C4 45.7589 5.35222 51.2019 7.75646 56.0289C8.39538 57.3117 8.60804 58.7778 8.23763 60.1622L6.09344 68.1759C5.16264 71.6547 8.34525 74.8374 11.8241 73.9066L19.8378 71.7624C21.2222 71.392 22.6883 71.6046 23.9711 72.2435C28.7981 74.6478 34.2411 76 40 76Z" fill="#084277"/>
<path d="M50.8 40C50.8 41.9882 52.4118 43.6 54.4 43.6C56.3882 43.6 58 41.9882 58 40C58 38.0118 56.3882 36.4 54.4 36.4C52.4118 36.4 50.8 38.0118 50.8 40Z" fill="white"/>
<path d="M36.4 40C36.4 41.9882 38.0118 43.6 40 43.6C41.9882 43.6 43.6 41.9882 43.6 40C43.6 38.0118 41.9882 36.4 40 36.4C38.0118 36.4 36.4 38.0118 36.4 40Z" fill="white"/>
<path d="M22 40C22 41.9882 23.6118 43.6 25.6 43.6C27.5882 43.6 29.2 41.9882 29.2 40C29.2 38.0118 27.5882 36.4 25.6 36.4C23.6118 36.4 22 38.0118 22 40Z" fill="white"/>
</svg>
