<svg width="80" height="80" viewBox="0 0 80 80" fill="none" xmlns="http://www.w3.org/2000/svg">
<path d="M74.4 36.04V11.56C74.4 6.16 72.0961 4 66.3721 4H51.828C46.104 4 43.8 6.16 43.8 11.56V36.04C43.8 41.44 46.104 43.6 51.828 43.6H66.3721C72.0961 43.6 74.4 41.44 74.4 36.04Z" fill="#084277"/>
<path d="M36.6 43.9604V68.4404C36.6 73.8404 34.296 76.0004 28.572 76.0004H14.028C8.304 76.0004 6 73.8404 6 68.4404V43.9604C6 38.5604 8.304 36.4004 14.028 36.4004H28.572C34.296 36.4004 36.6 38.5604 36.6 43.9604Z" fill="#084277"/>
<path d="M74.4 68.4398V58.3598C74.4 52.9598 72.0961 50.7998 66.3721 50.7998H51.828C46.104 50.7998 43.8 52.9598 43.8 58.3598V68.4398C43.8 73.8398 46.104 75.9998 51.828 75.9998H66.3721C72.0961 75.9998 74.4 73.8398 74.4 68.4398Z" fill="#084277"/>
<path d="M36.6 21.64V11.56C36.6 6.16 34.296 4 28.572 4H14.028C8.304 4 6 6.16 6 11.56V21.64C6 27.04 8.304 29.2 14.028 29.2H28.572C34.296 29.2 36.6 27.04 36.6 21.64Z" fill="#084277"/>
</svg>
