<svg width="80" height="80" viewBox="0 0 80 80" fill="none" xmlns="http://www.w3.org/2000/svg">
<path d="M41.0879 76.0004C41.0879 75.6137 41.0879 75.3558 41.0879 75.0979C41.0879 63.9028 41.0879 52.7077 41.0664 41.5126C41.0664 40.9969 41.1953 40.7176 41.6895 40.4597C52.9706 34.8085 64.2517 29.1142 75.5327 23.4415C75.7261 23.3555 75.898 23.2695 76.1129 23.1621C76.2848 23.4844 76.2203 23.7853 76.2203 24.0646C76.2203 35.2167 76.2203 46.3474 76.2418 57.4995C76.2418 58.1012 76.1129 58.445 75.5327 58.7458C64.3376 64.3541 53.164 69.9839 41.9689 75.6136C41.6895 75.7211 41.4317 75.85 41.0879 76.0004Z" fill="#084277"/>
<path d="M39.0895 76.0004C37.0481 74.969 35.0927 73.9806 33.1374 72.9921C23.6613 68.2219 14.1637 63.4301 4.66612 58.6813C4.21488 58.4664 4 58.2301 4 57.6714C4.02149 46.3903 4.02149 35.1093 4.02149 23.8282C4.02149 23.6348 3.95702 23.3985 4.15041 23.1406C4.60166 23.3555 5.03141 23.5919 5.48265 23.8067C9.02813 25.5902 12.5736 27.3952 16.1191 29.1357C16.7422 29.4365 16.9356 29.8018 16.9141 30.4894C16.8711 34.3357 16.9141 38.1605 16.8926 42.0068C16.8926 42.6085 17.043 42.8019 17.6447 42.7804C18.8265 42.7374 20.0084 42.8019 21.1902 42.7589C21.8348 42.7374 22.2861 42.9523 22.7373 43.4035C24.177 44.8647 25.6596 46.3044 27.2067 47.83C27.2067 43.4465 27.2067 39.1705 27.2067 34.9159C27.5505 34.8299 27.7439 35.0233 27.9373 35.1308C31.4613 36.8928 34.9853 38.6763 38.5093 40.4382C38.8746 40.6101 39.1754 40.7606 39.1539 41.2978C39.1324 52.7292 39.1324 64.1822 39.1324 75.6136C39.1539 75.7211 39.1324 75.7856 39.0895 76.0004Z" fill="#084277"/>
<path d="M75.0815 21.4852C72.2451 22.9249 69.4732 24.3216 66.7013 25.7183C58.0847 30.0588 49.4466 34.3993 40.8301 38.7613C40.3144 39.0192 39.9276 39.0407 39.4119 38.7828C35.9738 37.0208 32.5143 35.3018 29.0763 33.5613C28.8399 33.4324 28.5606 33.3894 28.3887 33.0886C31.397 31.477 34.3837 29.8869 37.392 28.2753C45.4499 23.9563 53.5293 19.6588 61.5872 15.3182C62.0599 15.0604 62.4252 15.0604 62.9195 15.2967C66.7658 17.2521 70.6335 19.186 74.4798 21.1199C74.6517 21.2059 74.8236 21.3348 75.0815 21.4852Z" fill="#084277"/>
<path d="M51.8532 9.79631C51.2731 10.1186 50.8003 10.3765 50.3061 10.6558C39.7556 16.2856 29.2266 21.9369 18.6762 27.5882C18.182 27.846 17.7952 27.9105 17.2795 27.6311C13.2828 25.5683 9.24306 23.5485 5.22485 21.5286C5.39676 21.2493 5.6761 21.1848 5.89097 21.0774C17.0431 15.4476 28.2167 9.83929 39.3474 4.20951C39.906 3.93016 40.3358 3.93016 40.8945 4.20951C44.2895 5.95001 47.6846 7.64754 51.0797 9.34507C51.316 9.474 51.5309 9.60292 51.8532 9.79631Z" fill="#084277"/>
</svg>
