<svg width="77" height="72" viewBox="0 0 77 72" fill="none" xmlns="http://www.w3.org/2000/svg">
<path d="M69.0335 25.3971C62.1301 25.3971 59.3078 20.5151 62.7404 14.5272C64.7236 11.0564 63.5413 6.63218 60.0705 4.64889L53.4723 0.87303C50.4593 -0.919551 46.569 0.14837 44.7764 3.16143L44.3569 3.88609C40.9243 9.87408 35.2795 9.87408 31.8088 3.88609L31.3892 3.16143C29.6729 0.14837 25.7827 -0.919551 22.7696 0.87303L16.1714 4.64889C12.7006 6.63218 11.5183 11.0946 13.5016 14.5653C16.9723 20.5151 14.15 25.3971 7.24661 25.3971C3.28004 25.3971 0 28.639 0 32.6437V39.3563C0 43.3229 3.2419 46.6029 7.24661 46.6029C14.15 46.6029 16.9723 51.4849 13.5016 57.4728C11.5183 60.9436 12.7006 65.3678 16.1714 67.3511L22.7696 71.127C25.7827 72.9196 29.6729 71.8516 31.4655 68.8386L31.8851 68.1139C35.3177 62.1259 40.9624 62.1259 44.4331 68.1139L44.8527 68.8386C46.6453 71.8516 50.5355 72.9196 53.5486 71.127L60.1468 67.3511C63.6176 65.3678 64.7999 60.9054 62.8166 57.4728C59.3459 51.4849 62.1683 46.6029 69.0716 46.6029C73.0382 46.6029 76.3182 43.361 76.3182 39.3563V32.6437C76.2801 28.6771 73.0382 25.3971 69.0335 25.3971ZM38.14 48.3955C31.313 48.3955 25.7445 42.8271 25.7445 36C25.7445 29.1729 31.313 23.6045 38.14 23.6045C44.9671 23.6045 50.5355 29.1729 50.5355 36C50.5355 42.8271 44.9671 48.3955 38.14 48.3955Z" fill="#084277"/>
</svg>
