<svg width="70" height="70" viewBox="0 0 70 70" fill="none" xmlns="http://www.w3.org/2000/svg">
<path d="M47.7996 37.881V51.3209C47.7996 62.5208 43.3197 67.0008 32.1198 67.0008H18.6799C7.47996 67.0008 3 62.5208 3 51.3209V37.881C3 26.6811 7.47996 22.2012 18.6799 22.2012H32.1198C43.3197 22.2012 47.7996 26.6811 47.7996 37.881Z" stroke="#222222" stroke-width="5" stroke-linecap="round" stroke-linejoin="round"/>
<path d="M67.0008 18.6799V32.1198C67.0008 43.3197 62.5208 47.7996 51.3209 47.7996H47.801V37.8797C47.801 26.6798 43.321 22.1998 32.1211 22.1998H22.2012V18.6799C22.2012 7.47996 26.6811 3 37.881 3H51.3209C62.5208 3 67.0008 7.47996 67.0008 18.6799Z" stroke="#222222" stroke-width="5" stroke-linecap="round" stroke-linejoin="round"/>
</svg>
