<svg width="68" height="66" viewBox="0 0 68 66" fill="none" xmlns="http://www.w3.org/2000/svg">
<path d="M64.8254 50.728C64.8854 52.9778 64.2854 55.1076 63.2055 56.9375C62.6056 58.0174 61.7957 59.0073 60.8958 59.8172C58.8259 61.7371 56.0962 62.9069 53.0665 62.9969C48.6869 63.0869 44.8173 60.8372 42.6875 57.3875C41.5476 55.6177 40.8577 53.4879 40.8277 51.2381C40.7377 47.4585 42.4175 44.0387 45.1172 41.7889C47.157 40.1091 49.7368 39.0592 52.5566 38.9992C59.1859 38.8492 64.6754 44.0987 64.8254 50.728Z" stroke="#222222" stroke-width="5" stroke-miterlimit="10" stroke-linecap="round" stroke-linejoin="round"/>
<path d="M48.1484 51.0881L51.1782 53.9677L57.4476 47.9082" stroke="#222222" stroke-width="5" stroke-linecap="round" stroke-linejoin="round"/>
<path d="M5.33984 19.3164L31.8273 34.6449L58.1347 19.4063" stroke="#222222" stroke-width="5" stroke-linecap="round" stroke-linejoin="round"/>
<path d="M31.8281 61.8207V34.6133" stroke="#222222" stroke-width="5" stroke-linecap="round" stroke-linejoin="round"/>
<path d="M60.6544 24.508V41.4864C60.6544 41.6364 60.6545 41.7563 60.6245 41.9062C58.5247 40.0764 55.8249 38.9966 52.8252 38.9966C50.0055 38.9966 47.3957 39.9865 45.3259 41.6364C42.5662 43.8262 40.8263 47.2158 40.8263 50.9955C40.8263 53.2453 41.4562 55.375 42.5661 57.1749C42.8361 57.6548 43.1661 58.1048 43.5261 58.5248L38.0366 61.5545C34.617 63.4743 29.0374 63.4743 25.6178 61.5545L9.59931 52.6753C5.96966 50.6655 3 45.626 3 41.4864V24.508C3 20.3683 5.96966 15.3289 9.59931 13.3191L25.6178 4.43986C29.0374 2.52005 34.617 2.52005 38.0366 4.43986L54.0551 13.3191C57.6847 15.3289 60.6544 20.3683 60.6544 24.508Z" stroke="#222222" stroke-width="5" stroke-linecap="round" stroke-linejoin="round"/>
</svg>
