<svg width="64" height="64" viewBox="0 0 64 64" fill="none" xmlns="http://www.w3.org/2000/svg">
<path d="M28.9614 41.4419L23.0411 47.3622C21.793 48.6103 19.8089 48.6103 18.5289 47.3942C18.1769 47.0422 17.8248 46.7222 17.4728 46.3702C14.1767 43.042 11.2005 39.5539 8.5444 35.9057C5.92028 32.2575 3.80818 28.6093 2.27211 24.9932C0.768036 21.345 0 17.8568 0 14.5287C0 12.3526 0.384018 10.2725 1.15205 8.35239C1.92009 6.4003 3.13615 4.60822 4.83223 3.00814C6.88032 0.992047 9.12043 0 11.4885 0C12.3846 0 13.2806 0.192009 14.0807 0.576027C14.9127 0.960045 15.6487 1.53607 16.2248 2.36811L23.6491 12.8326C24.2251 13.6326 24.6412 14.3687 24.9292 15.0727C25.2172 15.7447 25.3772 16.4168 25.3772 17.0248C25.3772 17.7928 25.1532 18.5609 24.7052 19.2969C24.2891 20.0329 23.6811 20.801 22.9131 21.569L20.481 24.0971C20.1289 24.4491 19.9689 24.8652 19.9689 25.3772C19.9689 25.6332 20.0009 25.8572 20.0649 26.1132C20.1609 26.3692 20.257 26.5612 20.321 26.7533C20.897 27.8093 21.889 29.1854 23.2971 30.8494C24.7372 32.5135 26.2732 34.2096 27.9373 35.9057C28.2573 36.2257 28.6093 36.5457 28.9294 36.8657C30.2094 38.1138 30.2414 40.1619 28.9614 41.4419Z" fill="white"/>
<path d="M63.9042 52.256C63.9042 53.152 63.7442 54.0801 63.4242 54.9761C63.3282 55.2321 63.2322 55.4881 63.1042 55.7442C62.5602 56.8962 61.8561 57.9843 60.9281 59.0083C59.36 60.7364 57.6319 61.9844 55.6798 62.7845C55.6478 62.7845 55.6158 62.8165 55.5838 62.8165C53.6957 63.5845 51.6476 64.0005 49.4395 64.0005C46.1754 64.0005 42.6872 63.2325 39.007 61.6644C35.3269 60.0964 31.6467 57.9843 27.9985 55.3281C26.7505 54.4001 25.5024 53.472 24.3184 52.48L34.7828 42.0155C35.6789 42.6875 36.4789 43.1996 37.151 43.5516C37.311 43.6156 37.503 43.7116 37.727 43.8076C37.983 43.9036 38.239 43.9356 38.527 43.9356C39.071 43.9356 39.4871 43.7436 39.8391 43.3916L42.2712 40.9915C43.0712 40.1914 43.8393 39.5834 44.5753 39.1994C45.3113 38.7514 46.0474 38.5273 46.8474 38.5273C47.4554 38.5273 48.0955 38.6554 48.7995 38.9434C49.5035 39.2314 50.2396 39.6474 51.0396 40.1914L61.6321 47.7118C62.4641 48.2878 63.0402 48.9598 63.3922 49.7599C63.7122 50.5599 63.9042 51.3599 63.9042 52.256Z" fill="white"/>
</svg>
