<svg width="56" height="64" viewBox="0 0 56 64" fill="none" xmlns="http://www.w3.org/2000/svg">
<path d="M42.4104 7.1248V2.31325C42.4104 1.04867 41.3617 0 40.0971 0C38.8326 0 37.7839 1.04867 37.7839 2.31325V6.93974H17.7357V2.31325C17.7357 1.04867 16.6871 0 15.4225 0C14.1579 0 13.1092 1.04867 13.1092 2.31325V7.1248C4.78154 7.89589 0.74107 12.8617 0.124204 20.2332C0.0625173 21.1277 0.802757 21.8679 1.66637 21.8679H53.8532C54.7477 21.8679 55.4879 21.0968 55.3954 20.2332C54.7785 12.8617 50.7381 7.89589 42.4104 7.1248Z" fill="#8EA3B9"/>
<path d="M52.4336 26.4941H3.08433C1.38795 26.4941 0 27.8821 0 29.5785V48.5779C0 57.8309 4.6265 63.9996 15.4217 63.9996H40.0963C50.8915 63.9996 55.518 57.8309 55.518 48.5779V29.5785C55.518 27.8821 54.13 26.4941 52.4336 26.4941ZM19.1537 52.31C18.9995 52.4334 18.8453 52.5876 18.691 52.6801C18.506 52.8035 18.3209 52.896 18.1359 52.9577C17.9508 53.0502 17.7657 53.1119 17.5807 53.1428C17.3648 53.1736 17.1797 53.2044 16.9638 53.2044C16.5629 53.2044 16.1619 53.1119 15.7918 52.9577C15.3908 52.8035 15.0824 52.5876 14.7739 52.31C14.2188 51.724 13.8795 50.922 13.8795 50.1201C13.8795 49.3182 14.2188 48.5163 14.7739 47.9302C15.0824 47.6527 15.3908 47.4367 15.7918 47.2825C16.347 47.0358 16.9638 46.9741 17.5807 47.0975C17.7657 47.1283 17.9508 47.19 18.1359 47.2825C18.3209 47.3442 18.506 47.4367 18.691 47.5601C18.8453 47.6835 18.9995 47.8069 19.1537 47.9302C19.7089 48.5163 20.0481 49.3182 20.0481 50.1201C20.0481 50.922 19.7089 51.724 19.1537 52.31ZM19.1537 41.5148C18.5677 42.07 17.7657 42.4093 16.9638 42.4093C16.1619 42.4093 15.36 42.07 14.7739 41.5148C14.2188 40.9288 13.8795 40.1269 13.8795 39.325C13.8795 38.523 14.2188 37.7211 14.7739 37.1351C15.6376 36.2715 16.9947 35.9939 18.1359 36.4874C18.5368 36.6416 18.8761 36.8575 19.1537 37.1351C19.7089 37.7211 20.0481 38.523 20.0481 39.325C20.0481 40.1269 19.7089 40.9288 19.1537 41.5148ZM29.9489 52.31C29.3628 52.8652 28.5609 53.2044 27.759 53.2044C26.957 53.2044 26.1551 52.8652 25.5691 52.31C25.0139 51.724 24.6746 50.922 24.6746 50.1201C24.6746 49.3182 25.0139 48.5163 25.5691 47.9302C26.7103 46.789 28.8076 46.789 29.9489 47.9302C30.504 48.5163 30.8433 49.3182 30.8433 50.1201C30.8433 50.922 30.504 51.724 29.9489 52.31ZM29.9489 41.5148C29.7946 41.6382 29.6404 41.7616 29.4862 41.885C29.3011 42.0083 29.1161 42.1009 28.931 42.1625C28.746 42.2551 28.5609 42.3168 28.3758 42.3476C28.1599 42.3784 27.9749 42.4093 27.759 42.4093C26.957 42.4093 26.1551 42.07 25.5691 41.5148C25.0139 40.9288 24.6746 40.1269 24.6746 39.325C24.6746 38.523 25.0139 37.7211 25.5691 37.1351C25.8467 36.8575 26.186 36.6416 26.5869 36.4874C27.7281 35.9939 29.0852 36.2715 29.9489 37.1351C30.504 37.7211 30.8433 38.523 30.8433 39.325C30.8433 40.1269 30.504 40.9288 29.9489 41.5148ZM40.744 52.31C40.158 52.8652 39.3561 53.2044 38.5541 53.2044C37.7522 53.2044 36.9503 52.8652 36.3643 52.31C35.8091 51.724 35.4698 50.922 35.4698 50.1201C35.4698 49.3182 35.8091 48.5163 36.3643 47.9302C37.5055 46.789 39.6028 46.789 40.744 47.9302C41.2992 48.5163 41.6385 49.3182 41.6385 50.1201C41.6385 50.922 41.2992 51.724 40.744 52.31ZM40.744 41.5148C40.5898 41.6382 40.4356 41.7616 40.2814 41.885C40.0963 42.0083 39.9112 42.1009 39.7262 42.1625C39.5411 42.2551 39.3561 42.3168 39.171 42.3476C38.9551 42.3784 38.7392 42.4093 38.5541 42.4093C37.7522 42.4093 36.9503 42.07 36.3643 41.5148C35.8091 40.9288 35.4698 40.1269 35.4698 39.325C35.4698 38.523 35.8091 37.7211 36.3643 37.1351C36.6727 36.8575 36.9811 36.6416 37.3821 36.4874C37.9373 36.2406 38.5541 36.1789 39.171 36.3023C39.3561 36.3332 39.5411 36.3948 39.7262 36.4874C39.9112 36.5491 40.0963 36.6416 40.2814 36.765C40.4356 36.8883 40.5898 37.0117 40.744 37.1351C41.2992 37.7211 41.6385 38.523 41.6385 39.325C41.6385 40.1269 41.2992 40.9288 40.744 41.5148Z" fill="#8EA3B9"/>
</svg>
