<svg width="46" height="43" viewBox="0 0 46 43" fill="none" xmlns="http://www.w3.org/2000/svg">
<path d="M32.2333 27.5899L31.0974 28.7194C31.0974 28.7194 28.3973 31.4042 21.0271 24.0759C13.657 16.7476 16.3571 14.0628 16.3571 14.0628L17.0724 13.3516C18.8347 11.5993 19.0008 8.78615 17.4633 6.73242L14.3183 2.53132C12.4153 -0.0105954 8.7382 -0.346382 6.55707 1.82236L2.6423 5.7149C1.5608 6.79026 0.836068 8.18427 0.92395 9.73065C1.14879 13.6869 2.93877 22.1989 12.9268 32.1302C23.5188 42.662 33.4571 43.0806 37.5211 42.7017C38.8066 42.5819 39.9246 41.9272 40.8254 41.0314L44.3684 37.5085C46.76 35.1305 46.0858 31.0537 43.0257 29.3902L38.2607 26.7999C36.2515 25.7077 33.8036 26.0285 32.2333 27.5899Z" fill="white"/>
</svg>
