<svg width="59" height="62" viewBox="0 0 59 62" fill="none" xmlns="http://www.w3.org/2000/svg">
<path d="M55.8919 12.334H3" stroke="#293847" stroke-width="6" stroke-linecap="round"/>
<path d="M50.7073 20.1094L49.2763 41.5744C48.7256 49.8346 48.4502 53.9646 45.759 56.4825C43.0677 59.0003 38.9284 59.0003 30.65 59.0003H28.2438C19.9653 59.0003 15.8261 59.0003 13.1348 56.4825C10.4435 53.9646 10.1682 49.8346 9.61752 41.5744L8.18652 20.1094" stroke="#293847" stroke-width="6" stroke-linecap="round"/>
<path d="M21.6677 27.8936L23.2234 43.4499" stroke="#293847" stroke-width="6" stroke-linecap="round"/>
<path d="M37.2243 27.8936L35.6687 43.4499" stroke="#293847" stroke-width="6" stroke-linecap="round"/>
<path d="M12.334 12.3338C12.5078 12.3338 12.5948 12.3338 12.6736 12.3318C15.2355 12.2669 17.4957 10.6379 18.3674 8.22794C18.3942 8.1538 18.4217 8.07134 18.4767 7.9064L18.7788 7.00021C19.0366 6.22664 19.1656 5.83983 19.3366 5.51142C20.0189 4.20118 21.2812 3.29133 22.74 3.05839C23.1056 3 23.5133 3 24.3288 3H34.5632C35.3786 3 35.7864 3 36.152 3.05839C37.6108 3.29133 38.8731 4.20118 39.5554 5.51142C39.7264 5.83983 39.8554 6.22662 40.1132 7.00021L40.4153 7.9064C40.4702 8.07111 40.4978 8.15385 40.5246 8.22794C41.3963 10.6379 43.6564 12.2669 46.2184 12.3318C46.2972 12.3338 46.3841 12.3338 46.558 12.3338" stroke="#293847" stroke-width="6"/>
</svg>
