<svg width="62" height="62" viewBox="0 0 62 62" fill="none" xmlns="http://www.w3.org/2000/svg">
<path d="M45.3634 5.33967C46.1052 4.5979 46.9858 4.0095 47.955 3.60806C48.9241 3.20662 49.9629 3 51.0119 3C52.0609 3 53.0996 3.20662 54.0688 3.60806C55.038 4.0095 55.9186 4.5979 56.6603 5.33967C57.4021 6.08143 57.9905 6.96204 58.3919 7.9312C58.7934 8.90036 59 9.93911 59 10.9881C59 12.0371 58.7934 13.0759 58.3919 14.045C57.9905 15.0142 57.4021 15.8948 56.6603 16.6366L18.5333 54.7637L3 59L7.23634 43.4667L45.3634 5.33967Z" stroke="#293847" stroke-width="6" stroke-linecap="round" stroke-linejoin="round"/>
</svg>
