<svg width="239" height="72" viewBox="0 0 239 72" fill="none" xmlns="http://www.w3.org/2000/svg">
<g clip-path="url(#clip0_807_4562)">
<path d="M147.959 56.2491C134.113 66.4547 114.044 71.8997 96.765 71.8997C72.5372 71.8997 50.7259 62.9387 34.2249 48.0349C32.9285 46.8629 34.09 45.2657 35.6458 46.1784C53.4536 56.5395 75.4723 62.7728 98.217 62.7728C113.556 62.7728 130.431 59.5991 145.947 53.0132C148.291 52.0175 150.251 54.5482 147.959 56.2491Z" fill="#FF9900"/>
<path d="M153.714 49.6624C151.95 47.4014 142.015 48.5941 137.555 49.1231C136.196 49.289 135.989 48.1066 137.213 47.2562C145.126 41.6867 158.111 43.2943 159.625 45.1611C161.14 47.0384 159.231 60.0546 151.795 66.2671C150.654 67.2213 149.565 66.7131 150.073 65.4478C151.743 61.2784 155.487 51.9337 153.714 49.6624Z" fill="#FF9900"/>
<path d="M137.868 7.93823V2.52431C137.868 1.70496 138.49 1.15527 139.237 1.15527H163.475C164.253 1.15527 164.875 1.71533 164.875 2.52431V7.16037C164.865 7.93823 164.211 8.95464 163.05 10.5622L150.49 28.4945C155.157 28.3805 160.083 29.0753 164.315 31.4608C165.269 32.0001 165.528 32.7883 165.601 33.5662V39.3431C165.601 40.1314 164.73 41.0544 163.817 40.5773C156.36 36.6673 146.455 36.2421 138.21 40.6188C137.37 41.0752 136.488 40.1625 136.488 39.3742V33.8877C136.488 33.0061 136.499 31.5023 137.38 30.1644L151.931 9.2969H139.268C138.49 9.2969 137.868 8.74722 137.868 7.93823Z" fill="#221F1F"/>
<path d="M49.4491 41.7188H42.075C41.3697 41.6669 40.8097 41.138 40.7578 40.4638V2.61822C40.7578 1.8611 41.3905 1.25954 42.1787 1.25954H49.055C49.7706 1.29064 50.3411 1.84035 50.3929 2.52486V7.47207H50.5278C52.322 2.69081 55.6928 0.460938 60.2355 0.460938C64.8508 0.460938 67.7341 2.69081 69.8084 7.47207C71.5923 2.69081 75.6475 0.460938 79.9932 0.460938C83.0839 0.460938 86.465 1.73663 88.5289 4.59916C90.8625 7.78321 90.3854 12.4089 90.3854 16.4642L90.3751 40.3497C90.3751 41.1068 89.7424 41.7188 88.9542 41.7188H81.5904C80.854 41.6669 80.2629 41.0757 80.2629 40.3497V20.2912C80.2629 18.694 80.4081 14.7114 80.0554 13.1971C79.5057 10.6561 77.8567 9.94048 75.7201 9.94048C73.9362 9.94048 72.0694 11.1332 71.3123 13.0416C70.5551 14.9499 70.6277 18.1443 70.6277 20.2912V40.3497C70.6277 41.1068 69.9951 41.7188 69.2068 41.7188H61.8431C61.0963 41.6669 60.5155 41.0757 60.5155 40.3497L60.5051 20.2912C60.5051 16.07 61.2 9.85751 55.9624 9.85751C50.6626 9.85751 50.87 15.9145 50.87 20.2912V40.3497C50.87 41.1068 50.2374 41.7188 49.4491 41.7188Z" fill="#221F1F"/>
<path d="M185.743 0.460938C196.685 0.460938 202.607 9.85751 202.607 21.8055C202.607 33.349 196.062 42.507 185.743 42.507C174.998 42.507 169.148 33.1104 169.148 21.401C169.148 9.61897 175.071 0.460938 185.743 0.460938ZM185.805 8.18771C180.37 8.18771 180.028 15.593 180.028 20.2083C180.028 24.834 179.956 34.7076 185.743 34.7076C191.458 34.7076 191.727 26.7423 191.727 21.8885C191.727 18.694 191.592 14.8773 190.628 11.8488C189.798 9.21449 188.149 8.18771 185.805 8.18771Z" fill="#221F1F"/>
<path d="M216.794 41.7188H209.451C208.715 41.6669 208.124 41.0757 208.124 40.3497L208.113 2.49375C208.176 1.79886 208.787 1.25954 209.534 1.25954H216.369C217.012 1.29064 217.541 1.72626 217.686 2.31744V8.10473H217.821C219.885 2.92936 222.779 0.460938 227.871 0.460938C231.179 0.460938 234.405 1.65366 236.479 4.92068C238.408 7.94916 238.408 13.0416 238.408 16.7027V40.526C238.325 41.1898 237.714 41.7188 236.988 41.7188H229.593C228.918 41.6669 228.358 41.1691 228.286 40.526V19.9697C228.286 15.8315 228.763 9.77454 223.671 9.77454C221.876 9.77454 220.227 10.9776 219.408 12.803C218.371 15.1159 218.236 17.4183 218.236 19.9697V40.3497C218.226 41.1068 217.582 41.7188 216.794 41.7188Z" fill="#221F1F"/>
<path d="M118.545 23.641V22.0438C113.214 22.0438 107.582 23.1846 107.582 29.4697C107.582 32.6538 109.231 34.8111 112.063 34.8111C114.137 34.8111 115.993 33.5354 117.165 31.4611C118.617 28.9097 118.545 26.5139 118.545 23.641ZM125.981 41.6148C125.494 42.0504 124.788 42.0815 124.239 41.7911C121.791 39.7583 121.355 38.8145 120.007 36.875C115.962 41.0029 113.1 42.2371 107.852 42.2371C101.65 42.2371 96.8164 38.41 96.8164 30.7454C96.8164 24.7611 100.063 20.6851 104.678 18.6938C108.681 16.9306 114.272 16.6195 118.545 16.132V15.1778C118.545 13.425 118.68 11.3507 117.653 9.8365C116.75 8.47783 115.029 7.91777 113.515 7.91777C110.704 7.91777 108.194 9.3594 107.582 12.3464C107.458 13.0102 106.97 13.6636 106.306 13.6947L99.15 12.9272C98.5484 12.7924 97.8847 12.3049 98.0506 11.3819C99.6997 2.71128 107.53 0.0976562 114.541 0.0976562C118.13 0.0976562 122.818 1.05183 125.649 3.76917C129.238 7.11916 128.895 11.5893 128.895 16.4535V27.9451C128.895 31.3988 130.327 32.9131 131.675 34.78C132.152 35.4437 132.256 36.2423 131.654 36.7402C130.15 37.9951 127.475 40.3287 126.002 41.6355L125.981 41.6148Z" fill="#221F1F"/>
<path d="M21.8728 23.641V22.0438C16.5419 22.0438 10.9101 23.1846 10.9101 29.4697C10.9101 32.6538 12.5592 34.8111 15.3906 34.8111C17.4649 34.8111 19.3214 33.5354 20.4934 31.4611C21.9454 28.9097 21.8728 26.5139 21.8728 23.641ZM29.3092 41.6148C28.8217 42.0504 28.1165 42.0815 27.5668 41.7911C25.1191 39.7583 24.6835 38.8145 23.3352 36.875C19.2903 41.0029 16.4278 42.2371 11.1798 42.2371C4.97764 42.2371 0.144531 38.41 0.144531 30.7454C0.144531 24.7611 3.39081 20.6851 8.00612 18.6938C12.0095 16.9306 17.5998 16.6195 21.8728 16.132V15.1778C21.8728 13.425 22.0077 11.3507 20.9809 9.8365C20.0785 8.47783 18.3569 7.91777 16.8426 7.91777C14.032 7.91777 11.5221 9.3594 10.9101 12.3464C10.7857 13.0102 10.2982 13.6636 9.63445 13.6947L2.47812 12.9272C1.87657 12.7924 1.21279 12.3049 1.37874 11.3819C3.02781 2.71128 10.8583 0.0976562 17.8694 0.0976562C21.458 0.0976562 26.1459 1.05183 28.9773 3.76917C32.5658 7.11916 32.2236 11.5893 32.2236 16.4535V27.9451C32.2236 31.3988 33.6548 32.9131 35.0031 34.78C35.4802 35.4437 35.5839 36.2423 34.9824 36.7402C33.4785 37.9951 30.8027 40.3287 29.3299 41.6355L29.3092 41.6148Z" fill="#221F1F"/>
</g>
<defs>
<clipPath id="clip0_807_4562">
<rect width="238.549" height="72" fill="white"/>
</clipPath>
</defs>
</svg>
