<svg width="206" height="206" viewBox="0 0 206 206" fill="none" xmlns="http://www.w3.org/2000/svg">
<path fill-rule="evenodd" clip-rule="evenodd" d="M198.643 14.7143H176.571V0H161.857V14.7143H44.1429V0H29.4286V14.7143H7.35714L0 22.0714V198.643L7.35714 206H198.643L206 198.643V22.0714L198.643 14.7143ZM191.286 191.286H14.7143V58.8571H191.286V191.286ZM191.286 44.1429H14.7143V29.4286H191.286V44.1429ZM44.1429 103H29.4286V117.714H44.1429V103ZM29.4286 132.429H44.1429V147.143H29.4286V132.429ZM44.1429 161.857H29.4286V176.571H44.1429V161.857ZM73.5714 103H88.2857V117.714H73.5714V103ZM88.2857 132.429H73.5714V147.143H88.2857V132.429ZM73.5714 161.857H88.2857V176.571H73.5714V161.857ZM88.2857 73.5714H73.5714V88.2857H88.2857V73.5714ZM117.714 103H132.429V117.714H117.714V103ZM132.429 132.429H117.714V147.143H132.429V132.429ZM117.714 161.857H132.429V176.571H117.714V161.857ZM132.429 73.5714H117.714V88.2857H132.429V73.5714ZM161.857 103H176.571V117.714H161.857V103ZM176.571 132.429H161.857V147.143H176.571V132.429ZM161.857 73.5714H176.571V88.2857H161.857V73.5714Z" fill="#8EA3B9" fill-opacity="0.2"/>
</svg>
