<svg width="733" height="513" viewBox="0 0 733 513" fill="none" xmlns="http://www.w3.org/2000/svg">
<path d="M0 493.975L91.5387 493.693L183.066 493.588L366.132 493.4L549.198 493.588L640.725 493.693L732.263 493.975L640.725 494.268L549.198 494.373L366.132 494.561L183.066 494.373L91.5387 494.268L0 493.975Z" fill="#263238"/>
<path d="M90.7793 493.794H315.591L270.779 233.041H102.656L90.7793 493.794Z" fill="#DBDBDB"/>
<path d="M90.7793 493.794H110.5L121.552 233.041H102.656L90.7793 493.794Z" fill="#A6A6A6"/>
<path d="M286.117 284.163C311.556 340.98 373.029 435.278 400.539 411.91C441.686 376.977 469.544 299.706 480.541 268.456C486.718 250.953 397.552 221.665 392.09 237.555C384.319 260.135 372.131 307.33 365.074 314.02C361.409 317.52 332.194 276.521 310.09 257.074C278.181 229.051 277.998 266.019 286.117 284.163Z" fill="#F7A9A0"/>
<path d="M502.812 242.155C494.876 260.007 464.323 290.193 454.169 294.647C444.015 299.101 390.387 250.66 391.506 239.26C392.624 227.86 424.624 168.147 442.348 158.983C460.071 149.819 511.041 223.644 502.812 242.155Z" fill="#F7A9A0"/>
<path d="M395.703 226.722C395.703 226.722 396.986 201.32 390.571 179.839C385.182 161.786 375.157 135.595 384.743 132.333C404.464 125.643 429.463 190.983 429.463 190.983C429.463 190.983 435.878 221.59 416.945 229.948C405.068 235.19 395.703 226.722 395.703 226.722Z" fill="#F7A9A0"/>
<path d="M417.935 178.54C419.218 188.822 430.6 181.418 430.6 181.418C430.6 181.418 416.799 196.08 422.224 206.106C427.502 215.801 440.918 206.362 441.89 205.702C441.156 206.49 428.84 220.237 435.347 229.804C442.11 239.738 453.949 227.971 454.719 227.201C454.261 228.136 448.506 240.801 455.104 246.959C466.431 257.497 482.046 225.533 494.07 221.959C494.07 221.959 502.464 241.625 502.812 242.12C502.812 242.12 518.299 211.989 512.581 196.043C511.779 193.714 510.208 191.727 508.125 190.411C506.043 189.095 503.574 188.528 501.126 188.804C501.126 188.804 507.193 179.64 502.317 171.942C499.788 168.002 491.32 168.515 491.32 168.515C491.32 168.515 495.866 160.982 491.101 154.42C487.307 149.16 479.334 150.498 479.334 150.498C479.334 150.498 480.342 141.224 474.734 137.119C463.334 128.834 415.167 156.528 417.935 178.54Z" fill="#F7A9A0"/>
<path d="M477.959 150.551C478.124 150.46 477.959 150.221 477.868 150.276C459.796 155.518 441.56 166.771 429.94 181.746C429.555 182.24 430.178 183.065 430.709 182.607C445.72 169.502 459.924 159.11 477.959 150.551Z" fill="#263238"/>
<path d="M491.427 168.275C491.629 168.183 491.427 167.853 491.262 167.908C472.659 173.406 452.48 186.713 441.098 205.499C440.713 206.14 441.006 207.112 441.52 206.415C450.024 194.539 475.152 175.917 491.427 168.275Z" fill="#263238"/>
<path d="M454.372 228.759C465.974 211.164 482.048 199.049 500.358 188.987C500.577 188.859 500.358 188.547 500.156 188.602C489.856 191.076 478.859 198.701 470.831 205.372C463.234 211.408 457.356 219.333 453.786 228.356C453.621 228.759 454.134 229.162 454.372 228.759Z" fill="#263238"/>
<path d="M430.234 181.395C429.776 181.982 431.151 182 430.711 182.605C428.878 185.134 419.072 201.354 423.563 206.431C427.228 210.482 435.091 208.429 437.84 206.431L444.713 201.464L439.985 208.594C437.856 211.718 436.247 215.165 435.219 218.803C434.65 220.459 434.439 222.217 434.6 223.962C434.761 225.706 435.291 227.396 436.154 228.92C436.963 230.332 438.234 231.422 439.753 232.006C441.272 232.591 442.947 232.633 444.493 232.127C447.941 230.941 451.027 228.89 453.456 226.17L460.421 218.839L456.242 228.003C455.074 230.539 454.23 233.211 453.731 235.958C453.171 238.539 453.381 241.229 454.336 243.692C454.808 244.777 455.572 245.709 456.543 246.385C457.514 247.061 458.653 247.455 459.834 247.523C462.511 247.251 465.054 246.221 467.165 244.554C471.793 241.018 476.137 237.126 480.16 232.915C482.268 230.862 484.375 228.791 486.593 226.812C488.676 224.728 491.174 223.104 493.924 222.047C491.31 223.371 488.981 225.196 487.069 227.417C485.035 229.525 483.092 231.724 481.15 233.942C477.332 238.52 473.098 242.735 468.503 246.533C466.039 248.624 463.021 249.954 459.816 250.364C458.048 250.38 456.314 249.886 454.821 248.94C453.329 247.993 452.142 246.636 451.403 245.03C450.12 242.006 449.769 238.669 450.395 235.444C450.888 232.378 451.781 229.389 453.053 226.555L455.839 228.388C453.015 231.647 449.388 234.112 445.318 235.536C443.038 236.266 440.574 236.175 438.353 235.28C436.207 234.339 434.393 232.774 433.148 230.789C432.057 228.855 431.388 226.712 431.186 224.5C430.984 222.289 431.253 220.059 431.975 217.959C433.146 213.976 434.973 210.216 437.382 206.834L439.526 208.924C435.861 211.306 427.357 214.569 420.96 209.015C413.886 200.42 427.54 184.181 430.234 181.395Z" fill="#263238"/>
<path d="M430.598 181.418C428.617 182.209 426.529 182.697 424.403 182.866C423.549 182.954 422.688 182.812 421.908 182.454C421.128 182.097 420.458 181.536 419.968 180.832C419.104 179.136 418.754 177.225 418.96 175.333C419.07 173.244 419.29 171.063 419.619 168.809C418.224 170.65 417.236 172.768 416.724 175.022C416.371 176.238 416.262 177.512 416.404 178.77C416.546 180.028 416.934 181.246 417.548 182.353C418.35 183.504 419.481 184.385 420.792 184.882C422.055 185.295 423.407 185.345 424.696 185.029C426.995 184.477 429.06 183.214 430.598 181.418Z" fill="#263238"/>
<path d="M386.67 239.258L479.483 303.901C479.483 303.901 424.041 418.763 389.786 418.451C355.531 418.14 306.045 332.108 288.982 294.92C271.918 257.733 282.09 226.227 316.62 260.097C351.15 293.967 363.522 307.933 364.64 307.475C366.729 306.632 386.67 239.258 386.67 239.258Z" fill="#B75400"/>
<path d="M479.48 303.901C479.48 303.901 440.991 383.554 408.385 410.02C401.842 415.335 395.556 418.506 389.782 418.433C355.527 418.139 306.041 332.089 288.886 294.92C278.274 271.9 278.183 251.061 287.823 246.57C293.78 243.803 303.402 247.212 316.543 260.152C351.367 294.26 363.426 307.969 364.563 307.511C366.726 306.632 386.685 239.276 386.685 239.276L479.48 303.901Z" fill="#B75400"/>
<path d="M422.04 396.459C420.904 397.779 419.749 399.062 418.594 400.308C408.15 406.884 396.432 411.175 384.211 412.9C380.84 413.272 377.447 413.407 374.057 413.303L371.95 411.983C375.995 412.228 380.055 412.123 384.083 411.672C388.905 411.145 393.648 410.05 398.214 408.409L401.678 407.273L405.032 405.862C406.15 405.385 407.304 404.982 408.386 404.432L411.63 402.782C415.239 400.912 418.717 398.8 422.04 396.459ZM351.624 295.27C341.033 300.087 331.373 306.732 323.087 314.899C317.713 320.194 312.744 325.886 308.223 331.926C308.443 332.329 308.681 332.751 308.938 333.154C313.512 327.013 318.555 321.234 324.022 315.871C330.966 309.049 338.877 303.287 347.5 298.771L350.744 297.121C351.34 296.819 351.952 296.55 352.577 296.315L351.624 295.27ZM431.791 301.117C422.989 296.809 413.779 293.389 404.299 290.908C403.309 290.67 402.319 290.431 401.311 290.23C400.67 290.083 400.01 289.937 399.368 289.827C391.357 288.148 383.133 287.727 374.992 288.58C373.801 288.745 372.628 288.929 371.436 289.148C371.308 289.57 371.161 290.01 371.033 290.413C372.389 290.175 373.764 289.973 375.139 289.808C382.695 289.01 390.327 289.325 397.792 290.743L399.79 291.11C401.201 291.403 402.612 291.714 404.024 292.063C413.424 294.485 422.56 297.837 431.296 302.07C444.382 308.489 457.075 315.68 469.308 323.605C469.492 323.294 469.656 322.982 469.803 322.689C457.573 314.748 444.879 307.545 431.791 301.117ZM441.413 277.4C426.554 278.014 412.075 282.282 399.258 289.827L397.682 290.743C394.446 292.683 391.319 294.8 388.317 297.085C372.609 309.034 360.073 324.393 348.141 339.844C342.166 347.597 336.302 355.404 330.107 362.956C329.667 363.505 329.209 364.037 328.75 364.587L329.447 365.595C329.978 364.972 330.51 364.349 331.023 363.762C337.255 356.193 343.138 348.385 349.131 340.65C361.063 325.255 373.581 310.006 389.123 298.221C392.492 295.651 396.017 293.295 399.68 291.165C400.175 290.853 400.688 290.56 401.201 290.285C405.47 287.889 409.918 285.83 414.507 284.127L417.935 282.88C419.071 282.477 420.262 282.202 421.435 281.854L424.936 280.883L428.602 280.168C433.334 279.101 438.175 278.596 443.026 278.665H443.246L441.413 277.4ZM327.504 271.004C321.101 273.849 314.409 275.994 307.545 277.4L303.971 278.097C302.779 278.317 301.57 278.39 300.305 278.555L296.64 278.976L292.974 279.123C289.627 279.355 286.266 279.294 282.93 278.94L283.26 280.149C298.753 281.28 314.28 278.481 328.402 272.012C328.2 271.664 327.852 271.334 327.504 271.004ZM301.075 248.24C294.584 252.649 287.854 256.694 280.914 260.355C280.914 260.85 280.914 261.345 280.914 261.858C288.319 257.985 295.48 253.664 302.358 248.918C301.918 248.68 301.496 248.442 301.075 248.24Z" fill="white"/>
<path d="M457.542 314.681C455.086 312.646 452.612 310.667 450.119 308.687C445.061 304.692 440.002 300.715 434.944 296.756C424.863 288.893 414.563 281.305 404.189 273.846C398.306 269.594 392.514 265.122 386.448 261.144C386.419 261.123 386.386 261.107 386.351 261.098C386.316 261.089 386.28 261.087 386.244 261.092C386.208 261.097 386.174 261.109 386.143 261.128C386.112 261.146 386.084 261.17 386.063 261.199C386.041 261.228 386.025 261.261 386.016 261.296C386.007 261.331 386.005 261.367 386.011 261.403C386.016 261.439 386.028 261.473 386.046 261.504C386.065 261.535 386.089 261.563 386.118 261.584C390.938 265.836 396.107 269.722 401.11 273.772C406.114 277.823 411.081 281.892 416.157 285.851C426.25 293.695 436.465 301.387 446.802 308.926C449.68 311.052 452.52 313.288 455.508 315.285C457.029 316.312 458.477 317.448 460.017 318.438C461.556 319.428 463.206 320.271 464.708 321.389C464.743 321.408 464.783 321.415 464.822 321.407C464.861 321.4 464.895 321.378 464.92 321.347C464.944 321.316 464.957 321.277 464.955 321.238C464.953 321.198 464.937 321.161 464.91 321.132C462.399 319.024 460.053 316.733 457.542 314.681Z" fill="#263238"/>
<path d="M365.354 305.421C361.811 314.996 358.897 324.792 356.63 334.746C355.42 339.658 354.467 344.625 353.532 349.574C352.543 354.491 351.882 359.469 351.553 364.474C351.553 364.658 351.828 364.658 351.864 364.474C353.404 359.691 354.54 354.706 355.64 349.812C356.74 344.918 357.986 339.988 359.086 335.15C361.303 325.289 363.906 315.52 365.83 305.605C365.842 305.573 365.848 305.54 365.847 305.507C365.846 305.473 365.839 305.44 365.825 305.409C365.812 305.379 365.792 305.351 365.768 305.328C365.744 305.305 365.715 305.287 365.684 305.275C365.652 305.263 365.619 305.257 365.585 305.258C365.552 305.259 365.519 305.266 365.488 305.28C365.458 305.293 365.43 305.313 365.407 305.337C365.384 305.362 365.366 305.39 365.354 305.421Z" fill="#263238"/>
<path opacity="0.1" d="M408.385 410.022C401.842 415.337 395.556 418.508 389.782 418.434C355.527 418.141 306.041 332.091 288.886 294.922C278.274 271.902 278.183 251.063 287.823 246.572L408.385 410.022Z" fill="black"/>
<path d="M355.253 493.796H132.438C129.982 489.287 166.492 294.13 241.637 239.164C258.315 226.976 287.897 234.82 296.108 246.678C337.456 306.263 355.253 493.796 355.253 493.796Z" fill="#B75400"/>
<path d="M343.667 407.162C338.105 405.192 332.654 402.922 327.337 400.362C319.878 396.788 312.675 392.829 305.508 388.651L304.464 388.027C297.133 383.684 289.801 379.083 282.617 374.446L281.59 373.786L276.715 370.634C260.22 360.059 243.981 349.172 226.368 340.704C217.662 336.351 208.417 333.171 198.876 331.247C194.088 330.393 189.213 330.122 184.36 330.441C183.15 330.441 181.959 330.697 180.694 330.862C179.87 331.027 179.045 331.137 178.202 331.302C178.33 331.009 178.44 330.734 178.587 330.441C179.246 330.312 179.925 330.202 180.584 330.056C181.794 329.909 183.022 329.726 184.25 329.634C189.151 329.305 194.075 329.57 198.912 330.422C208.555 332.33 217.899 335.516 226.698 339.898C244.403 348.365 260.751 359.252 277.21 369.791L282.049 372.888L283.093 373.548C290.424 378.259 297.756 382.932 305.362 387.349L306.407 387.972C313.371 392.023 320.464 395.872 327.759 399.336C332.854 401.773 338.072 403.945 343.393 405.842L343.667 407.162ZM323.837 314.11L323.085 314.825C308.954 328.589 298.397 345.378 288.445 362.166C286.343 365.747 284.23 369.321 282.104 372.888C281.939 373.2 281.774 373.493 281.59 373.786C278.896 378.332 276.184 382.859 273.361 387.313C270.887 391.235 268.303 395.102 265.553 398.841C265.297 399.189 265.058 399.537 264.802 399.867C262.02 403.625 259.021 407.217 255.821 410.626C252.486 414.165 248.801 417.358 244.824 420.156L243.34 421.201C242.845 421.549 242.295 421.824 241.782 422.136L238.648 423.969C236.487 425.059 234.259 426.008 231.976 426.81C222.731 429.88 213.053 431.445 203.311 431.447C193.604 431.408 183.931 430.308 174.463 428.166C165.299 426.223 156.41 423.62 147.447 421.018C147.447 421.311 147.301 421.604 147.209 421.879C156.153 424.5 165.134 427.139 174.261 429.101C183.841 431.286 193.632 432.417 203.458 432.473C213.309 432.478 223.098 430.906 232.453 427.818C234.788 427.015 237.066 426.053 239.271 424.94L242.478 423.107C243.02 422.818 243.547 422.5 244.054 422.154L245.576 421.091C249.614 418.264 253.353 415.034 256.738 411.451C260.15 407.798 263.344 403.949 266.305 399.922C266.58 399.574 266.818 399.244 267.056 398.896C269.659 395.34 272.115 391.693 274.387 387.991C277.228 383.537 279.886 379.01 282.635 374.483L283.167 373.585L289.526 362.845C299.497 346.074 310.054 329.433 324.038 315.833L324.276 315.613C324.111 315.082 323.965 314.587 323.837 314.11ZM334.412 357.639C333.001 359.472 331.571 361.195 330.123 362.955C324.054 370.583 317.273 377.616 309.871 383.959C308.404 385.113 306.938 386.268 305.417 387.349L304.464 388.027C302.342 389.524 300.119 390.872 297.811 392.06L296.216 392.921C295.685 393.214 295.098 393.416 294.548 393.672L291.213 395.102C288.938 395.923 286.612 396.591 284.248 397.1C278.567 398.316 272.774 398.931 266.965 398.933H265.553C262.108 398.933 258.662 398.658 255.235 398.291C245.562 397.073 236.054 394.793 226.881 391.491C217.717 388.321 208.681 384.417 199.701 380.495C190.762 376.451 181.58 372.968 172.208 370.066C169.441 369.278 166.71 368.581 163.778 368.068L163.503 368.856C166.362 369.388 169.203 370.066 171.97 370.872C181.288 373.783 190.414 377.272 199.297 381.319C208.278 385.187 217.259 389.109 226.514 392.316C235.767 395.645 245.354 397.956 255.106 399.207C258.332 399.574 261.558 399.812 264.784 399.867C265.26 399.867 265.718 399.867 266.195 399.867C272.349 399.967 278.495 399.389 284.523 398.144C286.933 397.612 289.307 396.933 291.634 396.11L295.043 394.644C295.611 394.387 296.179 394.186 296.729 393.892L298.361 393.013C300.863 391.737 303.265 390.273 305.545 388.632L306.498 387.954C307.891 386.946 309.266 385.883 310.622 384.802C318.099 378.434 324.949 371.363 331.076 363.688C332.298 362.185 333.52 360.664 334.742 359.124C334.632 358.647 334.522 358.134 334.412 357.639ZM311.392 276.538C310.109 276.849 308.826 277.143 307.543 277.399L303.969 278.096C302.778 278.316 301.568 278.389 300.303 278.554L296.638 278.975L292.972 279.122C288.132 279.435 283.272 279.177 278.493 278.352C270.995 277.056 263.731 274.654 256.939 271.223L255.106 270.325C253.823 269.665 252.559 268.968 251.312 268.253C242.922 263.328 235.05 257.568 227.816 251.062L227.009 251.868C234.312 258.443 242.25 264.276 250.708 269.28C251.587 269.793 252.54 270.288 253.383 270.764L255.216 271.681C262.463 275.483 270.252 278.147 278.31 279.58C289.478 281.148 300.846 280.525 311.777 277.747C311.703 277.344 311.538 276.941 311.392 276.538ZM298.342 250.054C288.609 256.583 278.222 262.08 267.349 266.457C263.407 267.994 259.373 269.285 255.271 270.325L253.548 270.764C248.784 271.872 243.945 272.626 239.069 273.019L235.404 273.257C234.194 273.349 232.984 273.257 231.738 273.257H228.072L224.407 272.964C219.991 272.709 215.616 271.977 211.357 270.783C211.101 271.131 210.844 271.479 210.606 271.846C225.243 275.522 240.57 275.465 255.18 271.681L257.012 271.223C260.668 270.254 264.266 269.08 267.789 267.704C278.717 263.297 289.159 257.769 298.947 251.208L298.342 250.054ZM353.161 474.627C351.329 474.627 349.349 474.792 347.443 474.847H347.296L346.178 474.939C336.786 475.922 327.657 478.638 319.255 482.948C313.242 486.088 307.499 489.717 302.081 493.799H303.236C308.405 489.971 313.872 486.563 319.584 483.608C328.06 479.281 337.275 476.589 346.747 475.672H347.425H347.865C349.697 475.672 351.42 475.471 353.18 475.489C353.216 475.159 353.198 474.902 353.161 474.627ZM354.114 483.058C352.123 480.529 350.064 478.043 347.938 475.599C347.736 475.342 347.516 475.104 347.296 474.866L346.545 473.986C340.141 466.522 332.776 459.94 324.643 454.412C320.515 451.718 316.071 449.545 311.41 447.942C310.255 447.557 309.046 447.227 307.873 446.897C306.7 446.567 305.472 446.311 304.207 446.146C301.788 445.687 299.314 445.651 296.876 445.413C287.022 445.052 277.192 446.615 267.936 450.013C258.765 453.5 250.006 457.987 241.818 463.392C227.156 472.831 213.795 483.938 199.517 493.799H200.122C214.326 484.103 227.614 473.198 242.13 463.961C250.288 458.593 259.016 454.149 268.156 450.709C277.32 447.354 287.05 445.817 296.803 446.182C299.204 446.439 301.66 446.476 304.042 446.934C305.252 447.099 306.407 447.447 307.598 447.685C308.789 447.924 309.944 448.327 311.08 448.712C315.673 450.302 320.05 452.456 324.111 455.126C332.175 460.618 339.467 467.165 345.794 474.591C345.904 474.719 346.013 474.829 346.105 474.957L346.747 475.672C349.313 478.66 351.823 481.702 354.243 484.836C354.261 484.25 354.188 483.682 354.078 483.058H354.114Z" fill="white"/>
<path d="M212.056 263.084C166.694 315.558 105.551 408.242 130.532 428.733C171.606 462.42 291.563 481.885 319.091 485.147C330.968 486.577 354.758 408.939 346.822 398.895C338.886 388.851 212.056 381.758 211.194 373.969C210.699 369.552 229.962 331.136 242.352 284.015C256.593 229.691 224.83 248.294 212.056 263.084Z" fill="#F7A9A0"/>
<path d="M326.037 392.502C326.037 392.502 362.437 392.227 386.245 393.161C399.533 393.675 422.223 396.607 431.809 401.464C446.141 408.704 501.455 448.201 492.181 461.818C483.769 474.135 440.551 434.18 440.551 434.18C440.551 434.18 487.728 470.652 474.88 483.665C462.032 496.678 419.199 445.03 419.199 445.03C419.199 445.03 466.852 483.519 451.475 494.882C439.855 503.405 398.433 458.831 398.433 458.831C398.433 458.831 439.14 492.243 427.575 501.535C414.745 511.799 373.965 473.053 373.965 473.053C340.608 491.711 317.148 486.946 300.653 481.576C296.786 480.201 326.037 392.502 326.037 392.502Z" fill="#F7A9A0"/>
<path d="M425.045 420.525C430.745 424.612 436.537 428.699 441.852 433.355C447.167 438.01 452.317 442.684 457.193 447.742C469.124 460.132 474.659 469.736 474.238 469.186C464.634 456.008 445.866 439.348 440.551 434.766C435.236 430.184 430.159 425.364 424.862 420.8C424.734 420.598 424.917 420.433 425.045 420.525Z" fill="#263238"/>
<path d="M408.184 439.419C415.222 444.918 422.425 450.159 429.224 456.006C436.024 461.853 445.225 470.284 451.584 476.552C452.061 477.028 451.584 477.945 451.071 477.487C444.473 471.475 434.668 463.264 427.996 457.326C421.325 451.387 414.892 445.211 408.037 439.548C407.927 439.529 408.074 439.328 408.184 439.419Z" fill="#263238"/>
<path d="M390.735 453.019C401.933 460.918 411.665 470.871 420.976 480.859C421.452 481.354 420.976 481.428 420.389 480.951C410.511 471.512 402.813 464.034 390.46 453.459C390.313 453.239 390.551 452.854 390.735 453.019Z" fill="#263238"/>
<path d="M320.924 391.344C337.529 391.234 386.3 391.106 402.869 392.389C417.531 393.507 429.609 396.659 441.908 404.797C468.3 422.245 485.308 442.736 489.561 448.784C492.126 452.45 495.847 458.37 492.456 462.475C488.296 467.461 472.992 462.585 456.845 447.978C456.258 447.446 456.625 447.117 457.23 447.611C479.902 465.939 488.919 463.85 491.283 460.716C492.823 458.682 491.283 455.218 489.964 452.468C487.756 448.578 485.058 444.987 481.936 441.783C471.522 430.642 460.001 420.59 447.553 411.78C434.215 401.825 418.326 395.857 401.732 394.57C384.761 393.177 337.804 393.617 320.851 391.986C320.502 391.876 320.557 391.363 320.924 391.344Z" fill="#263238"/>
<path d="M477.578 476.332C476.643 471.805 473.38 467.663 470.796 463.924C467.657 459.218 464.052 454.841 460.038 450.856C459.873 450.691 459.561 450.856 459.726 451.112C463.145 455.109 466.322 459.308 469.238 463.685C470.789 466.093 472.196 468.59 473.454 471.163C474.645 473.638 476.056 476.497 475.433 479.319C474.26 484.708 467.405 484.579 463.355 483.131C460.731 482.144 458.203 480.917 455.804 479.466C452.535 477.383 449.435 475.049 446.53 472.483C446.292 472.263 445.632 472.355 445.888 472.593C451.937 478.348 463.392 490.316 472.739 485.936C474.533 485.143 475.996 483.752 476.878 482C477.761 480.249 478.008 478.245 477.578 476.332Z" fill="#263238"/>
<path d="M326.587 387.789L282.984 486.761C282.984 486.761 130.605 452.359 121.771 423.437C112.937 394.516 160.681 317.135 203.77 268.822C246.145 221.352 252.413 253.555 241.875 290.266C231.336 326.977 214.053 369.296 215.977 372.467C217.901 375.638 326.587 387.789 326.587 387.789Z" fill="#B75400"/>
<path d="M225.786 339.457C225.676 339.732 225.585 340.025 225.475 340.3C217.01 336.136 208.04 333.093 198.789 331.246C194.001 330.392 189.127 330.121 184.273 330.439C183.064 330.439 181.872 330.696 180.608 330.861C179.343 331.026 178.225 331.227 177.052 331.557C174.669 332.07 172.415 332.987 170.087 333.702C161.106 337.119 152.867 342.234 145.821 348.767L146.976 346.77C153.697 340.835 161.433 336.16 169.812 332.968C172.158 332.235 174.449 331.301 176.869 330.788C178.06 330.458 179.288 330.311 180.534 330.054C181.781 329.798 182.972 329.724 184.2 329.633C189.101 329.304 194.025 329.568 198.862 330.421C208.192 332.249 217.243 335.287 225.786 339.457ZM306.43 387.971L305.385 387.348L301.206 384.874L298.677 384.58C300.51 385.735 302.508 386.908 304.432 388.026L305.477 388.649C310.975 391.857 316.474 394.936 322.119 397.813L322.559 396.805C317.133 394.001 311.763 391.05 306.43 387.971ZM276.683 381.904C275.584 383.737 274.466 385.57 273.329 387.311C270.855 391.233 268.271 395.101 265.522 398.84C265.265 399.188 265.027 399.536 264.77 399.866C261.988 403.624 258.989 407.216 255.789 410.625C252.454 414.163 248.77 417.357 244.793 420.155L243.308 421.2C242.813 421.548 242.263 421.823 241.75 422.135L238.616 423.967C236.456 425.057 234.227 426.006 231.945 426.808C222.699 429.879 213.021 431.444 203.279 431.445C193.585 431.404 183.924 430.304 174.468 428.164C164.919 426.13 155.553 423.363 146.151 420.632C137.812 418.212 129.417 415.775 120.84 414.18C120.84 414.473 120.84 414.767 120.84 415.042C129.326 416.636 137.628 419.092 145.931 421.493C155.315 424.242 164.717 426.991 174.303 429.099C183.883 431.285 193.673 432.415 203.499 432.472C213.351 432.477 223.14 430.905 232.494 427.816C234.83 427.013 237.108 426.052 239.312 424.939L242.52 423.106C243.062 422.817 243.588 422.499 244.096 422.153L245.617 421.09C249.655 418.263 253.395 415.033 256.779 411.449C260.191 407.797 263.386 403.948 266.346 399.921C266.621 399.573 266.86 399.243 267.098 398.895C269.7 395.339 272.156 391.692 274.429 387.989C275.675 386.047 276.885 384.067 278.095 382.106L276.683 381.904ZM307.694 385.57C306.943 386.157 306.173 386.743 305.385 387.293L304.432 387.971C302.311 389.468 300.088 390.815 297.779 392.003L296.184 392.865C295.653 393.158 295.066 393.36 294.517 393.616L291.181 395.046C288.907 395.867 286.58 396.534 284.216 397.043C278.536 398.26 272.742 398.874 266.933 398.876H265.522C262.076 398.876 258.63 398.601 255.203 398.235C245.531 397.017 236.022 394.737 226.849 391.435C217.685 388.264 208.65 384.36 199.669 380.438C190.73 376.394 181.548 372.911 172.177 370.01C162.774 367.315 152.749 365.849 143.017 367.755C139.921 368.378 136.924 369.42 134.109 370.853C133.926 371.219 133.743 371.604 133.578 371.971C136.59 370.365 139.818 369.204 143.163 368.525C152.731 366.692 162.628 368.122 171.938 370.816C181.256 373.727 190.383 377.216 199.266 381.263C208.246 385.13 217.227 389.052 226.483 392.26C235.745 395.61 245.344 397.939 255.111 399.206C258.337 399.573 261.563 399.811 264.788 399.866C265.265 399.866 265.723 399.866 266.2 399.866C272.354 399.966 278.5 399.388 284.528 398.143C286.937 397.611 289.312 396.931 291.639 396.109L295.048 394.642C295.616 394.386 296.184 394.184 296.734 393.891L298.365 393.011C300.868 391.736 303.27 390.271 305.55 388.631L306.503 387.953C307.456 387.256 308.336 386.523 309.362 385.79L307.694 385.57ZM227.894 250.969C227.106 250.272 226.336 249.594 225.566 248.879L224.577 249.521L227.143 251.812C233.109 257.155 239.482 262.027 246.204 266.383C246.204 265.924 246.204 265.466 246.204 265.026C239.771 260.823 233.662 256.142 227.931 251.024L227.894 250.969ZM239.038 272.962L235.372 273.201C234.162 273.292 232.953 273.201 231.706 273.201H228.041L224.375 272.907C219.528 272.618 214.731 271.769 210.079 270.378C208.045 269.773 206.029 269.077 204.049 268.27L203.609 268.765L203.188 269.242C205.324 270.137 207.509 270.914 209.731 271.569C221.339 274.669 233.462 275.343 245.342 273.549C245.342 273.091 245.471 272.651 245.544 272.193C243.51 272.596 241.292 272.852 239.074 273.017L239.038 272.962ZM296.881 445.356C287.023 445.014 277.194 446.595 267.941 450.012C258.77 453.498 250.011 457.985 241.823 463.391C237.241 466.36 232.769 469.476 228.352 472.683L229.067 472.885C233.356 469.788 237.7 466.8 242.153 463.959C250.311 458.592 259.04 454.147 268.179 450.708C277.344 447.353 287.074 445.815 296.826 446.181C298.091 446.309 299.355 446.383 300.62 446.493L300.968 445.723C299.667 445.613 298.274 445.539 296.918 445.411L296.881 445.356Z" fill="white"/>
<path d="M265.501 470.392C266.986 467.57 268.415 464.747 269.845 461.906C272.716 456.151 275.575 450.384 278.422 444.605C284.067 433.131 289.419 421.511 294.569 409.781C297.52 403.146 300.728 396.585 303.385 389.822C303.417 389.754 303.42 389.676 303.394 389.606C303.368 389.535 303.316 389.478 303.248 389.446C303.18 389.415 303.102 389.411 303.031 389.437C302.961 389.463 302.903 389.516 302.872 389.584C299.701 395.174 296.952 401.02 294.019 406.757C291.087 412.494 288.099 418.175 285.277 423.967C279.656 435.441 274.207 447.006 268.928 458.662C267.444 461.925 265.831 465.15 264.493 468.486C263.796 470.19 262.99 471.84 262.312 473.563C261.634 475.286 261.121 477.045 260.479 478.75C260.471 478.768 260.466 478.787 260.465 478.807C260.464 478.827 260.467 478.847 260.474 478.866C260.481 478.884 260.491 478.902 260.505 478.916C260.518 478.931 260.534 478.943 260.552 478.951C260.57 478.96 260.59 478.965 260.61 478.965C260.63 478.966 260.65 478.963 260.668 478.956C260.687 478.95 260.704 478.939 260.719 478.926C260.734 478.912 260.746 478.896 260.754 478.878C262.239 476.037 263.98 473.288 265.501 470.392Z" fill="#263238"/>
<path d="M286.27 479.96L283.209 486.888L283.118 487.108H282.824C268.4 484.432 254.068 481.225 239.827 477.651C225.586 474.077 211.455 470.026 197.471 465.518C183.436 461.082 169.673 455.831 156.251 449.792C149.516 446.763 143.011 443.247 136.786 439.272C133.681 437.247 130.745 434.973 128.007 432.472C125.185 430.052 123.022 426.956 121.721 423.473C123.342 426.744 125.708 429.588 128.63 431.776C131.523 433.998 134.594 435.978 137.813 437.696C144.179 441.235 150.752 444.387 157.497 447.135C170.968 452.725 184.806 457.49 198.717 461.962C212.628 466.434 226.667 470.595 240.743 474.59C254.819 478.586 268.95 482.545 283.099 486.338L282.733 486.522L286.27 479.96Z" fill="#263238"/>
<path d="M324.846 391.639L326.367 387.698L326.532 387.973C311.247 386.965 295.979 385.737 280.712 384.142C265.445 382.548 250.269 380.807 235.094 378.534C231.3 377.947 227.506 377.324 223.712 376.591C221.879 376.206 219.918 375.84 217.957 375.29C217.462 375.143 216.986 374.997 216.454 374.795C216.149 374.696 215.854 374.567 215.574 374.41C215.36 374.295 215.158 374.16 214.969 374.007C214.772 373.841 214.604 373.643 214.475 373.42C214.4 373.277 214.333 373.131 214.273 372.981C214.262 372.908 214.262 372.834 214.273 372.761C214.2 372.063 214.237 371.358 214.383 370.671C214.475 370.176 214.566 369.645 214.695 369.187C216.637 361.58 219.093 354.396 221.586 347.193C226.571 332.695 231.996 318.381 237.715 304.159C233.298 318.821 228.771 333.484 224.262 348.146C222.099 355.477 219.716 362.808 218.049 370.14C217.939 370.598 217.884 371.019 217.792 371.459C217.7 371.899 217.792 372.412 217.7 372.229C217.68 372.132 217.643 372.039 217.59 371.954C217.59 371.771 217.26 371.588 217.334 371.624C217.242 371.624 217.407 371.661 217.334 371.624L217.792 371.808L219.002 372.192C220.834 372.669 222.667 373.017 224.5 373.384C228.166 374.062 231.996 374.648 235.753 375.217C243.305 376.353 250.868 377.422 258.444 378.424L281.189 381.485C296.346 383.501 311.503 385.664 326.661 387.881H326.936L326.826 388.12L324.846 391.639Z" fill="#263238"/>
<path d="M239.348 313.54C238.272 316.126 236.914 318.585 235.297 320.871C233.778 323.211 231.926 325.316 229.799 327.121C231.192 324.684 232.676 322.374 234.253 320.083C235.782 317.776 237.486 315.589 239.348 313.54Z" fill="#263238"/>
<path d="M283.752 279.689C270.813 283.354 247.499 264.421 237.932 248.641C237.272 247.56 239.875 202.986 239.472 194.097C239.472 192.264 295.812 205.094 295.812 205.094C295.812 205.094 291.175 223.971 291.981 239.459C292.036 240.778 296.234 276.133 283.752 279.689Z" fill="#F7A9A0"/>
<path d="M238.613 222.01C264.987 240.631 290.683 233.483 291.765 233.154C292.198 223.706 293.505 214.318 295.669 205.112C295.669 205.112 239.218 192.282 239.31 194.115C239.64 198.275 239.181 210.298 238.613 222.01Z" fill="#263238"/>
<path d="M295.538 168.385C296.986 181.545 307.525 191.186 319.053 189.903C330.582 188.62 338.774 176.945 337.381 163.803C335.988 150.662 325.413 141.003 313.866 142.286C302.32 143.569 294.09 155.244 295.538 168.385Z" fill="#455A64"/>
<path d="M288.867 169.96C290.48 184.622 302.191 195.307 315.021 193.896C327.851 192.485 337.015 179.49 335.347 164.846C333.679 150.202 322.041 139.498 309.193 140.91C296.345 142.321 287.254 155.334 288.867 169.96Z" fill="#C7C7C7"/>
<path d="M231.667 127.124C225.508 146.881 235.607 204.102 249.591 216.931C269.881 235.534 303.274 237.495 319.11 213.082C334.469 189.403 319.989 115.082 304.337 103.407C281.299 86.1789 240.757 97.9639 231.667 127.124Z" fill="#F7A9A0"/>
<path d="M279.211 163.051C279.211 162.923 278.955 163.289 278.991 163.454C279.835 167.267 280.183 171.794 276.957 173.736C276.847 173.736 276.957 173.993 276.957 173.938C281.154 172.527 280.641 166.533 279.211 163.051Z" fill="#263238"/>
<path d="M275.012 159.697C268.744 160.412 270.632 172.911 276.442 172.251C282.252 171.592 280.272 159.11 275.012 159.697Z" fill="#263238"/>
<path d="M301.46 160.045C301.46 159.899 301.79 160.192 301.808 160.357C302.267 164.242 303.458 168.604 307.142 169.374C307.252 169.374 307.289 169.594 307.142 169.594C302.762 169.631 301.277 163.802 301.46 160.045Z" fill="#263238"/>
<path d="M304.304 155.443C310.462 154.032 312.827 166.44 307.127 167.76C301.427 169.079 299.099 156.671 304.304 155.443Z" fill="#263238"/>
<path d="M269.222 154.731C270.794 154.006 272.324 153.192 273.804 152.294C275.535 151.661 277.01 150.476 278.001 148.921C278.216 148.371 278.242 147.765 278.076 147.198C277.911 146.631 277.562 146.135 277.085 145.787C276.042 145.24 274.871 144.982 273.695 145.04C272.519 145.098 271.379 145.47 270.395 146.117C268.186 147.113 266.428 148.897 265.465 151.121C265.272 151.64 265.235 152.204 265.359 152.743C265.482 153.283 265.76 153.774 266.16 154.158C266.559 154.542 267.061 154.8 267.605 154.902C268.149 155.004 268.711 154.945 269.222 154.731Z" fill="#263238"/>
<path d="M308.26 148.463C306.529 148.377 304.804 148.2 303.091 147.931C301.252 148 299.441 147.459 297.941 146.391C297.529 145.963 297.272 145.411 297.208 144.82C297.145 144.229 297.281 143.634 297.593 143.129C298.361 142.233 299.352 141.556 300.465 141.167C301.579 140.777 302.776 140.689 303.935 140.911C306.353 141.012 308.648 142.012 310.368 143.716C310.737 144.123 310.979 144.629 311.066 145.172C311.153 145.715 311.081 146.272 310.858 146.775C310.634 147.277 310.27 147.704 309.809 148.004C309.348 148.303 308.81 148.463 308.26 148.463Z" fill="#263238"/>
<path d="M281.337 199.321C282.401 200.091 283.519 201.154 285.003 201.154C286.439 200.911 287.806 200.368 289.017 199.559C289.039 199.533 289.07 199.516 289.105 199.512C289.139 199.509 289.174 199.519 289.2 199.541C289.227 199.563 289.244 199.594 289.247 199.629C289.251 199.663 289.24 199.697 289.219 199.724C288.784 200.572 288.125 201.285 287.315 201.786C286.504 202.287 285.571 202.556 284.618 202.565C283.799 202.482 283.024 202.157 282.391 201.631C281.757 201.106 281.295 200.404 281.063 199.614C280.898 199.431 281.173 199.211 281.337 199.321Z" fill="#263238"/>
<path d="M283.648 187.135C284.862 188.515 286.348 189.63 288.013 190.409C289.679 191.188 291.487 191.615 293.325 191.662C294.935 191.725 296.546 191.559 298.108 191.167C298.41 191.112 298.705 191.026 298.988 190.91C299.267 190.839 299.543 190.753 299.813 190.654C300.014 190.586 300.187 190.455 300.306 190.279C300.425 190.104 300.484 189.894 300.473 189.682C300.462 189.55 300.431 189.421 300.381 189.298V188.968C299.996 185.98 299.025 181.49 299.025 181.49C300.198 181.875 306.136 183.524 305.806 181.985C303.094 169.155 300.07 155.006 294.663 142.891C294.626 142.811 294.562 142.747 294.482 142.711C294.402 142.674 294.312 142.667 294.228 142.692C294.143 142.716 294.071 142.77 294.023 142.844C293.975 142.917 293.955 143.005 293.966 143.093C296.092 155.464 300.381 167.377 302.727 179.749C300.614 179.129 298.423 178.814 296.221 178.814C295.817 178.997 298.255 187.446 298.31 188.803C298.322 188.851 298.322 188.901 298.31 188.949C293.398 190.342 289.403 189.408 284.033 186.787C283.629 186.603 283.373 186.86 283.648 187.135Z" fill="#263238"/>
<path d="M296.107 189.918C294.804 192.29 292.91 194.285 290.608 195.71C289.324 196.442 287.846 196.761 286.375 196.626C283.167 196.278 282.709 193.456 282.856 190.945C282.978 189.61 283.254 188.293 283.68 187.022C287.409 189.286 291.762 190.3 296.107 189.918Z" fill="#263238"/>
<path d="M290.595 195.766C289.311 196.498 287.833 196.818 286.361 196.683C283.154 196.334 282.695 193.512 282.842 191.001C286.269 190.781 289.825 192.54 290.595 195.766Z" fill="#FF99BA"/>
<path opacity="0.2" d="M241.05 147.454C238.795 153.135 234.158 166.478 231.519 167.413C229.008 148.865 228.917 132.04 233.517 121.703C235.419 117.433 238.091 113.55 241.398 110.248C241.783 115.214 243.451 141.515 241.05 147.454Z" fill="#263238"/>
<path d="M290.626 120.933C289.057 123.652 286.815 125.924 284.116 127.528C281.417 129.133 278.351 130.017 275.212 130.097C272.016 130.18 268.853 129.446 266.02 127.964C263.188 126.482 260.781 124.302 259.028 121.629C259.018 121.612 259.006 121.597 258.99 121.585C258.975 121.574 258.957 121.565 258.939 121.56C258.92 121.555 258.9 121.553 258.881 121.556C258.862 121.558 258.843 121.564 258.826 121.574C258.81 121.584 258.795 121.596 258.783 121.612C258.771 121.627 258.762 121.645 258.757 121.663C258.752 121.682 258.751 121.702 258.753 121.721C258.756 121.74 258.762 121.759 258.771 121.776C260.366 124.759 262.745 127.249 265.652 128.977C268.56 130.706 271.884 131.606 275.267 131.581C278.58 131.394 281.785 130.339 284.562 128.521C287.338 126.704 289.587 124.188 291.084 121.226C291.123 121.165 291.136 121.091 291.12 121.021C291.105 120.95 291.062 120.889 291.001 120.85C290.941 120.811 290.867 120.798 290.796 120.813C290.726 120.829 290.664 120.872 290.626 120.933Z" fill="#263238"/>
<path d="M328.86 91.4441C326.22 86.5739 321.942 82.7952 316.782 80.7772C309.634 77.9546 302.468 79.8424 295.375 81.8769C295.336 81.8769 295.299 81.8923 295.271 81.9198C295.244 81.9473 295.229 81.9846 295.229 82.0235C295.229 82.0624 295.244 82.0997 295.271 82.1272C295.299 82.1547 295.336 82.1701 295.375 82.1701C301.405 80.4656 307.637 79.091 313.795 80.9605C318.892 82.4853 323.307 85.7221 326.295 90.1245C329.209 94.6832 330.384 100.138 329.607 105.493C328.83 110.847 326.151 115.743 322.061 119.284C319.65 121.263 316.86 122.727 313.863 123.587C310.865 124.448 307.724 124.686 304.631 124.288C304.392 124.288 304.283 124.618 304.539 124.655C308.749 125.369 313.075 124.895 317.031 123.286C320.987 121.678 324.416 118.998 326.933 115.548C329.449 112.099 330.955 108.015 331.279 103.757C331.603 99.4994 330.734 95.2353 328.769 91.4441H328.86Z" fill="#263238"/>
<path d="M230 138.546C230 138.546 216.749 121.519 223.164 109.221C226.829 102.238 242.61 100.313 242.61 100.313C242.61 100.313 246.275 92.2308 258.757 86.989C271.238 81.7471 288.081 84.8263 288.081 84.8263C288.081 84.8263 299.28 75.5156 312.11 80.1343C329.998 86.5858 332.27 111.714 317.315 122.527C306.794 130.133 289.419 122.692 289.419 122.692C287.953 123.15 274.207 135.1 260.205 123.425C260.205 123.425 252.232 133.469 242.72 129.07C241.82 131.759 240.119 134.108 237.845 135.802C235.571 137.495 232.834 138.453 230 138.546Z" fill="#263238"/>
<path d="M243.596 173.773C243.596 173.773 230.419 155.445 222.098 160.192C213.777 164.939 223.93 191.57 233.754 195.015C234.988 195.558 236.318 195.846 237.666 195.862C239.014 195.878 240.351 195.621 241.597 195.108C242.843 194.594 243.972 193.834 244.917 192.874C245.863 191.913 246.604 190.771 247.097 189.517L243.596 173.773Z" fill="#F7A9A0"/>
<path d="M225.178 167.78C225.013 167.78 224.994 167.981 225.178 168.036C232.124 170.749 235.844 177.09 238.484 183.689C236.394 181.159 233.59 179.803 230.199 182.296C230.016 182.424 230.199 182.699 230.383 182.662C231.59 182.277 232.887 182.273 234.096 182.65C235.306 183.027 236.371 183.767 237.146 184.77C238.45 186.476 239.562 188.32 240.463 190.268C240.793 190.873 241.893 190.525 241.654 189.828V189.663C241.654 180.756 234.635 168.531 225.178 167.78Z" fill="#263238"/>
<path d="M232.621 160.944C232.621 160.944 225.491 132.536 231.044 115.124C237.221 95.7699 260.516 76.8187 288.045 84.8647C288.045 84.8647 257.492 88.8052 242.646 114.336C235.828 126.066 242.371 159.936 242.371 159.936L232.621 160.944Z" fill="#C7C7C7"/>
<path d="M262.203 170.512C264.989 185.174 256.869 198.994 244.04 201.45C231.21 203.906 218.527 194.119 215.723 179.456C212.919 164.794 221.056 150.974 233.886 148.518C246.716 146.062 259.399 155.886 262.203 170.512Z" fill="#C7C7C7"/>
<path d="M255.27 170.985C257.781 184.126 250.468 196.644 238.94 198.789C227.411 200.933 216.011 192.099 213.5 178.976C210.99 165.853 218.284 153.317 229.813 151.172C241.341 149.028 252.741 157.825 255.27 170.985Z" fill="#455A64"/>
<path d="M481.381 63.6944C480.281 74.2374 476.273 84.2674 469.804 92.6651C463.335 101.063 454.66 107.498 444.747 111.252C434.834 115.006 424.073 115.932 413.664 113.926C403.255 111.92 393.608 107.062 385.8 99.8923L357.172 104.089L371.486 79.3465C368.228 71.2942 366.847 62.6059 367.446 53.9403C368.045 45.2746 370.609 36.8591 374.944 29.3317C379.279 21.8043 385.27 15.3626 392.465 10.495C399.659 5.62732 407.867 2.46147 416.467 1.23745C425.066 0.0134366 433.832 0.763379 442.099 3.43041C450.365 6.09744 457.916 10.6116 464.179 16.6306C470.442 22.6495 475.252 30.0154 478.246 38.1698C481.239 46.3241 482.336 55.0529 481.454 63.6944H481.381Z" fill="white"/>
<path d="M481.384 63.6928C480.267 74.2396 476.273 84.2764 469.837 92.7061C468.227 94.7923 466.495 96.7814 464.65 98.6627C462.741 100.49 460.721 102.198 458.602 103.776C454.39 106.979 449.743 109.565 444.801 111.456C439.865 113.39 434.683 114.624 429.405 115.121C426.761 115.363 424.102 115.412 421.451 115.268C418.794 115.204 416.146 114.928 413.533 114.443C402.986 112.506 393.187 107.67 385.235 100.477L385.913 100.679L357.321 105.078L355.25 105.389L356.295 103.556L370.536 78.7585V79.7482C367.18 71.5469 365.752 62.6846 366.362 53.8444C366.972 45.0041 369.604 36.422 374.055 28.7595C378.512 21.1277 384.64 14.6047 391.979 9.67998C399.307 4.8275 407.638 1.69668 416.348 0.522243C425.058 -0.652189 433.92 0.160217 442.272 2.89858C450.522 5.715 458.037 10.3431 464.265 16.443C470.51 22.5089 475.295 29.9136 478.26 38.0985C481.226 46.2835 482.294 55.0349 481.384 63.6928ZM481.384 63.6928C482.298 55.0767 481.222 46.3658 478.238 38.2313C475.255 30.0968 470.443 22.7558 464.175 16.7743C457.907 10.7927 450.348 6.33023 442.083 3.73069C433.818 1.13115 425.066 0.463978 416.502 1.78059C408.018 3.05506 399.937 6.25226 392.878 11.1279C385.886 16.0323 380.045 22.3988 375.759 29.7859C371.512 37.1965 369.005 45.4755 368.428 53.9972C367.89 62.5013 369.261 71.0182 372.442 78.9234L372.662 79.4366L372.387 79.8948L357.981 104.601L356.954 103.08L385.601 99.0659H386.005L386.279 99.3409C393.93 106.491 403.416 111.376 413.68 113.453C416.236 113.967 418.828 114.279 421.433 114.388C424.038 114.571 426.653 114.571 429.259 114.388C434.484 113.981 439.628 112.852 444.544 111.034C449.487 109.25 454.138 106.742 458.345 103.593C462.633 100.526 466.422 96.817 469.58 92.5961C476.115 84.2406 480.202 74.2344 481.384 63.6928Z" fill="#263238"/>
<path d="M449.362 66.4063C453.188 66.4063 456.29 63.3045 456.29 59.4783C456.29 55.6521 453.188 52.5503 449.362 52.5503C445.535 52.5503 442.434 55.6521 442.434 59.4783C442.434 63.3045 445.535 66.4063 449.362 66.4063Z" fill="#263238"/>
<path d="M424.549 66.4063C428.375 66.4063 431.477 63.3045 431.477 59.4783C431.477 55.6521 428.375 52.5503 424.549 52.5503C420.723 52.5503 417.621 55.6521 417.621 59.4783C417.621 63.3045 420.723 66.4063 424.549 66.4063Z" fill="#263238"/>
<path d="M406.659 59.478C406.662 60.8491 406.259 62.1903 405.5 63.332C404.741 64.4737 403.66 65.3646 402.395 65.8917C401.129 66.4189 399.735 66.5587 398.39 66.2935C397.045 66.0282 395.809 65.3699 394.838 64.4017C393.868 63.4335 393.206 62.1991 392.937 60.8547C392.668 59.5103 392.804 58.1164 393.328 56.8494C393.852 55.5824 394.74 54.4993 395.88 53.7372C397.02 52.9751 398.36 52.5684 399.731 52.5684C401.565 52.5684 403.324 53.2958 404.623 54.5911C405.922 55.8863 406.654 57.6438 406.659 59.478Z" fill="#263238"/>
<path d="M369.953 489.33H357.691V497.339H369.953V489.33Z" fill="#455A64"/>
<path d="M385.859 488.795H373.598V496.805H385.859V488.795Z" fill="#455A64"/>
<path d="M401.771 488.265H389.51V496.274H401.771V488.265Z" fill="#455A64"/>
<path d="M417.66 487.73H405.398V495.739H417.66V487.73Z" fill="#455A64"/>
<path d="M433.566 487.204H421.305V495.213H433.566V487.204Z" fill="#455A64"/>
<path d="M449.474 486.688H437.213V494.697H449.474V486.688Z" fill="#455A64"/>
<path d="M465.371 486.159H453.109V494.169H465.371V486.159Z" fill="#455A64"/>
<path d="M481.279 485.625H469.018V493.634H481.279V485.625Z" fill="#455A64"/>
<path d="M497.183 485.096H484.922V493.106H497.183V485.096Z" fill="#455A64"/>
<path d="M500.189 501.939H354.701V492.189L500.189 488.138V501.939Z" fill="#37474F"/>
<path d="M642.179 463.522H402.008L440.203 284.714H680.374L642.179 463.522Z" fill="#455A64"/>
<path d="M651.065 463.522H410.895L449.09 284.714H689.261L651.065 463.522Z" fill="#37474F"/>
<path d="M570.828 363.762C570.092 367.83 567.984 371.522 564.856 374.224C561.727 376.925 557.767 378.473 553.636 378.608C551.769 378.669 549.912 378.305 548.206 377.545C546.499 376.785 544.988 375.647 543.784 374.218C542.581 372.789 541.718 371.105 541.259 369.294C540.8 367.483 540.758 365.592 541.136 363.762C541.868 359.691 543.974 355.995 547.103 353.29C550.232 350.584 554.194 349.034 558.328 348.898C560.197 348.837 562.056 349.201 563.764 349.962C565.472 350.724 566.985 351.863 568.188 353.294C569.392 354.725 570.255 356.411 570.712 358.225C571.169 360.038 571.209 361.932 570.828 363.762Z" fill="#263238"/>
<path d="M583.144 510.219H465.02V501.037L583.144 497.225V510.219Z" fill="#455A64"/>
<path d="M615.258 510.204H551.825L513.629 410.005H577.062L615.258 510.204Z" fill="#455A64"/>
<path d="M625.701 510.204H562.268L524.072 410.005H587.506L625.701 510.204Z" fill="#263238"/>
<path d="M350.213 512.659H228.423C218.031 512.659 233.06 483.059 270.999 471.714C308.938 460.369 362.163 501.552 350.213 512.659Z" fill="#37474F"/>
<path d="M302.412 512.659C302.502 509.287 303.057 505.944 304.062 502.725C305.047 499.475 306.419 496.355 308.149 493.432C309.902 490.504 312.083 487.854 314.619 485.57C317.144 483.313 320.047 481.52 323.196 480.273C321.895 481.336 320.41 482.106 319.219 483.26L317.386 484.855L315.663 486.688C313.401 489.04 311.42 491.648 309.762 494.459C308.076 497.265 306.629 500.208 305.436 503.256C304.22 506.32 303.21 509.461 302.412 512.659Z" fill="#263238"/>
<path d="M316.836 484.489C324.08 486.781 330.934 490.162 337.162 494.514C340.316 496.697 343.174 499.278 345.666 502.194C348.26 505.078 349.855 508.723 350.211 512.586C349.195 509.001 347.255 505.746 344.585 503.147C341.988 500.502 339.146 498.109 336.099 495.999C333.093 493.818 329.904 491.857 326.678 489.932C323.452 488.008 320.19 486.267 316.836 484.489Z" fill="#263238"/>
</svg>
