<svg width="72" height="72" viewBox="0 0 72 72" fill="none" xmlns="http://www.w3.org/2000/svg">
<path d="M71.9485 33.8768C70.7246 12.9973 51.753 -3.09431 29.9015 0.505609C14.8538 2.98956 2.79409 15.1932 0.454138 30.2409C-0.913833 38.9527 0.886207 47.1965 4.81012 54.0004L1.60614 65.9161C0.886155 68.6161 3.37003 71.064 6.03397 70.308L17.7698 67.0681C23.0976 70.2001 29.3255 72 35.9853 72C56.2889 72 73.1365 54.1084 71.9485 33.8768ZM53.589 49.3925C53.265 50.0405 52.8689 50.6525 52.3649 51.2285C51.465 52.2005 50.493 52.9204 49.413 53.3524C48.333 53.8204 47.1451 54.0364 45.8851 54.0364C44.0492 54.0364 42.0692 53.6045 40.0172 52.7045C37.9293 51.8045 35.8774 50.6164 33.8255 49.1405C31.7375 47.6285 29.7935 45.9366 27.9216 44.1006C26.0496 42.2286 24.3935 40.2486 22.8816 38.1967C21.4056 36.1447 20.2177 34.0928 19.3537 32.0409C18.4897 29.9889 18.0578 28.009 18.0578 26.137C18.0578 24.9131 18.2738 23.7251 18.7058 22.6451C19.1378 21.5291 19.8218 20.5212 20.7938 19.6212C21.9458 18.4692 23.2057 17.9292 24.5376 17.9292C25.0416 17.9292 25.5455 18.0372 26.0135 18.2532C26.4815 18.4692 26.9136 18.7932 27.2376 19.2612L31.4134 25.165C31.7374 25.633 31.9894 26.029 32.1334 26.425C32.3134 26.821 32.3854 27.181 32.3854 27.5409C32.3854 27.9729 32.2415 28.405 31.9895 28.837C31.7375 29.269 31.4134 29.7009 30.9814 30.1329L29.6134 31.5728C29.3974 31.7888 29.3256 32.0049 29.3256 32.2929C29.3256 32.4369 29.3614 32.5808 29.3974 32.7248C29.4694 32.8688 29.5056 32.9769 29.5416 33.0849C29.8656 33.6968 30.4414 34.4528 31.2334 35.3888C32.0614 36.3247 32.9255 37.2967 33.8615 38.2327C34.8335 39.2047 35.7694 40.0686 36.7414 40.8966C37.6774 41.6886 38.4692 42.2287 39.0812 42.5527C39.1892 42.5887 39.2973 42.6606 39.4053 42.6966C39.5493 42.7686 39.6933 42.7687 39.8733 42.7687C40.1973 42.7687 40.4134 42.6607 40.6294 42.4447L41.9972 41.0767C42.4651 40.6087 42.8973 40.2847 43.2933 40.0687C43.7253 39.8167 44.1212 39.6727 44.5892 39.6727C44.9492 39.6727 45.3092 39.7447 45.7052 39.9247C46.1012 40.1047 46.5331 40.3207 46.9651 40.6447L52.9411 44.8926C53.409 45.2166 53.7329 45.6126 53.9489 46.0446C54.1289 46.5126 54.237 46.9445 54.237 47.4485C54.021 48.0605 53.877 48.7445 53.589 49.3925Z" fill="#0EAC3B"/>
</svg>
