<svg width="290" height="370" viewBox="0 0 290 370" fill="none" xmlns="http://www.w3.org/2000/svg">
<path d="M0 145C0 64.9187 64.9187 0 145 0V0C225.081 0 290 64.9187 290 145V370H0V145Z" fill="url(#paint0_linear_0_568)"/>
<path d="M40.9243 167.147L41.9086 164.925C50.2131 146.203 67.9193 133.278 88.1641 131.96C90.7708 131.791 93.3864 131.812 95.9899 132.025C114.761 133.585 132.43 145.347 141.299 162.193C146.511 172.095 149.135 183.933 157.553 191.237C168.509 200.752 184.795 198.993 199.021 196.713C213.248 194.432 229.55 192.711 240.436 202.274C247.272 208.266 250.403 217.63 251.091 226.741C252.904 250.864 238.968 274.438 219.105 287.825C199.242 301.212 174.366 305.381 150.528 303.687C117.128 301.32 83.8344 287.287 61.6586 261.847C39.4829 236.406 29.909 199.106 40.9243 167.147Z" fill="#FFECDC"/>
<path d="M243.701 302.844C249.487 302.844 254.178 298.153 254.178 292.367C254.178 286.58 249.487 281.89 243.701 281.89C237.914 281.89 233.223 286.58 233.223 292.367C233.223 298.153 237.914 302.844 243.701 302.844Z" fill="#FFEFE2"/>
<path d="M207.036 103.915L207.439 104.433L207.828 103.904L219.054 88.5955L220.928 107.735L220.992 108.389L221.603 108.15L236.743 102.229L227.85 117.566L227.603 117.992L228.028 118.243L243.31 127.258L223.496 130.378L222.977 130.46L223.088 130.974L226.909 148.603L209.281 136.35L208.945 136.116L208.651 136.402L194.538 150.136L192.031 132.675L191.956 132.157L191.443 132.258L174.414 135.614L184.679 122.144L184.908 121.843L184.679 121.542L174.324 107.944L190.839 108.501L191.281 108.516L191.347 108.079L194.433 87.7541L207.036 103.915Z" fill="#FFE5CF" stroke="#FFC18B" stroke-width="0.993575"/>
<path d="M217.442 117.231C217.265 115.895 216.681 114.647 215.77 113.654C214.918 112.645 213.77 111.93 212.489 111.611C211.396 111.365 210.254 111.486 209.237 111.955C208.22 112.423 207.386 113.213 206.863 114.203C206.328 113.264 205.507 112.52 204.521 112.079C203.534 111.638 202.433 111.523 201.377 111.75C200.092 112.059 198.937 112.762 198.074 113.762C197.151 114.744 196.556 115.988 196.369 117.323C196.155 119.026 196.494 120.754 197.337 122.249C198.32 123.764 199.649 125.023 201.215 125.923C203.754 127.467 207.099 129.408 207.099 129.408C207.099 129.408 209.945 127.3 212.505 125.783C214.08 124.899 215.422 123.653 216.42 122.147C217.278 120.66 217.637 118.937 217.442 117.231Z" fill="#FF4F81"/>
<path d="M168.429 125.912C168.429 127.8 166.899 129.331 165.01 129.331C163.122 129.331 161.591 127.8 161.591 125.912C161.591 124.024 163.122 122.493 165.01 122.493C166.899 122.493 168.429 124.024 168.429 125.912Z" fill="#FFE5CF" stroke="#FFC18B" stroke-width="0.99277"/>
<path d="M146.132 132.756C147.864 128.512 145.831 123.349 142.152 120.606C138.473 117.863 133.547 117.244 129.012 117.916C124.478 118.589 120.192 120.487 116.012 122.332C114.113 120.399 111.715 119.03 109.085 118.379C106.454 117.728 103.694 117.82 101.113 118.645C98.5313 119.47 96.2294 120.995 94.4633 123.05C92.6972 125.105 91.5363 127.611 91.1097 130.287C89.4693 129.851 87.7409 129.873 86.112 130.35C84.483 130.826 83.0155 131.74 81.8686 132.991C80.7217 134.242 79.939 135.783 79.6054 137.447C79.2718 139.112 79.4 140.835 79.9761 142.432L100.452 149.779L122.612 189.354C129.131 194.986 139.85 194.905 146.278 189.171C152.705 183.438 154.012 172.799 149.155 165.683C150.417 164.572 151.489 163.262 152.328 161.805C155.9 159.654 158.697 156.228 159.649 152.124C161.66 143.486 154.926 133.848 146.132 132.756Z" fill="#263238"/>
<path d="M131.987 214.88C130.755 208.426 129.895 204.053 129.906 204.096C129.916 204.139 142.04 199.465 141.313 182.582C140.953 174.17 137.833 160.896 134.929 150.117C132.315 140.436 123.354 129.679 113.775 132.707L84.7687 146.61C81.8589 147.525 81.3318 150.252 81.9988 153.231L82.031 154.678L92.9818 201.305L97.6019 222.141C98.5917 226.416 101.144 230.165 104.758 232.653C108.372 235.141 112.785 236.188 117.131 235.588C119.493 235.26 121.762 234.456 123.803 233.224C125.844 231.992 127.612 230.358 129.002 228.421C130.391 226.484 131.372 224.285 131.886 221.957C132.399 219.63 132.433 217.222 131.987 214.88Z" fill="#FFBF9D"/>
<path d="M132.311 166.51C132.425 167.059 132.321 167.632 132.019 168.105C131.718 168.578 131.244 168.915 130.697 169.043C130.435 169.119 130.159 169.141 129.888 169.109C129.616 169.076 129.354 168.99 129.117 168.855C128.879 168.719 128.671 168.538 128.505 168.321C128.338 168.104 128.217 167.856 128.148 167.591C128.033 167.042 128.138 166.47 128.439 165.996C128.741 165.523 129.215 165.186 129.762 165.058C130.024 164.984 130.299 164.963 130.57 164.996C130.841 165.029 131.103 165.116 131.34 165.251C131.577 165.386 131.785 165.567 131.952 165.783C132.119 165.999 132.241 166.246 132.311 166.51Z" fill="#263238"/>
<path d="M133.251 159.358C133.047 159.681 131.213 158.821 128.948 159.294C126.684 159.767 125.264 161.225 124.963 160.999C124.818 160.902 124.963 160.353 125.597 159.681C126.437 158.802 127.529 158.206 128.722 157.976C129.896 157.733 131.117 157.87 132.208 158.369C133.02 158.761 133.353 159.208 133.251 159.358Z" fill="#263238"/>
<path d="M112.582 169.889C112.696 170.438 112.592 171.011 112.29 171.484C111.989 171.957 111.514 172.294 110.968 172.422C110.705 172.497 110.43 172.519 110.158 172.486C109.887 172.452 109.624 172.365 109.387 172.23C109.15 172.094 108.942 171.912 108.775 171.695C108.609 171.478 108.488 171.23 108.419 170.965C108.304 170.416 108.409 169.843 108.71 169.37C109.012 168.897 109.486 168.56 110.032 168.432C110.295 168.357 110.571 168.335 110.842 168.368C111.114 168.402 111.376 168.489 111.614 168.624C111.851 168.76 112.059 168.942 112.225 169.159C112.391 169.376 112.513 169.624 112.582 169.889Z" fill="#263238"/>
<path d="M111.575 163.283C111.371 163.611 109.536 162.746 107.272 163.219C105.008 163.692 103.588 165.155 103.287 164.924C103.141 164.827 103.287 164.278 103.921 163.606C104.76 162.729 105.85 162.133 107.041 161.901C108.217 161.66 109.439 161.797 110.531 162.294C111.338 162.708 111.677 163.154 111.575 163.283Z" fill="#263238"/>
<path d="M122.913 177.662C122.875 177.538 124.236 177.011 126.452 176.253C127.017 176.075 127.528 175.855 127.56 175.441C127.592 175.027 127.243 174.419 126.823 173.827L124.225 169.739C120.584 163.963 117.825 159.165 118.056 159.02C118.288 158.875 121.434 163.441 125.048 169.239C125.93 170.673 126.775 172.038 127.582 173.332C127.931 173.94 128.458 174.612 128.34 175.537C128.297 175.758 128.205 175.965 128.07 176.144C127.934 176.323 127.76 176.469 127.56 176.57C127.259 176.724 126.939 176.837 126.608 176.909C124.371 177.49 122.951 177.807 122.913 177.662Z" fill="#263238"/>
<path d="M129.905 204.097C122.215 205.783 114.208 205.299 106.777 202.699C106.777 202.699 114.657 213.139 130.738 208.277L129.905 204.097Z" fill="#7F594B"/>
<path d="M110.344 157.17C110.194 157.82 107.87 157.788 105.218 158.423C102.567 159.058 100.48 160.036 100.055 159.499C99.8668 159.251 100.179 158.622 100.986 157.917C102.069 157.041 103.338 156.425 104.696 156.114C106.055 155.804 107.466 155.808 108.822 156.126C109.855 156.433 110.409 156.863 110.344 157.17Z" fill="#263238"/>
<path d="M131.975 152.742C131.61 153.356 129.663 153.194 127.441 153.619C125.22 154.044 123.418 154.797 122.88 154.345C122.638 154.125 122.826 153.549 123.547 152.898C124.55 152.052 125.764 151.495 127.059 151.285C128.336 151.035 129.657 151.139 130.878 151.586C131.771 151.989 132.148 152.452 131.975 152.742Z" fill="#263238"/>
<path d="M91.9493 135.785C92.2731 137.434 92.9564 138.992 93.9506 140.346C94.9448 141.701 96.2254 142.821 97.7013 143.624C99.1772 144.428 100.812 144.896 102.49 144.996C104.167 145.096 105.846 144.825 107.407 144.202C109.817 143.24 112.307 141.427 114.744 142.325C117.304 143.272 118.089 146.687 120.461 148.037C123.855 149.963 127.991 146.687 131.863 147.042C134.865 147.311 137.177 149.662 139.517 151.566C141.857 153.47 145.105 155.062 147.773 153.653C147.079 151.146 146.38 148.608 145.132 146.322C143.885 144.036 142.024 141.992 139.603 141.029C138.28 140.491 136.823 140.308 135.559 139.647C132.826 138.222 131.621 135.027 129.642 132.655C128.342 131.147 126.701 129.97 124.856 129.222C123.011 128.473 121.014 128.175 119.03 128.352C115.744 128.669 112.614 130.304 109.311 130.143C106.875 130.025 104.54 128.922 102.099 128.949C97.3386 128.997 93.7403 133.139 91.0726 137.081" fill="#263238"/>
<path d="M107.945 139.361C105.793 139.189 101.302 138.7 99.8391 137.14C96.6711 133.752 91.9218 131.955 87.6567 133.052C85.4612 133.677 83.5268 134.995 82.1425 136.81C80.7581 138.625 79.9981 140.839 79.9761 143.121C74.7643 144.197 70.3323 148.5 68.821 153.937C68.0939 156.7 68.0499 159.597 68.6927 162.38C69.3355 165.163 70.6459 167.748 72.5107 169.912C73.4157 171.062 74.2405 172.273 74.9794 173.537C73.9418 174.808 73.027 176.175 72.2471 177.619C68.7295 185.278 78.1312 188.279 78.1312 188.279C78.1312 193.443 82.8805 193.454 85.9355 193.454C88.8722 193.454 90.6256 201.613 93.0029 201.312L90.7332 176.151C91.087 176.286 91.4625 176.355 91.8412 176.355C97.6016 176.495 96.144 165.598 94.3207 162.769C95.9342 160.617 97.6123 158.401 98.6827 155.852C99.753 153.303 99.8606 146.902 98.9785 144.213C100.99 143.922 108.88 139.442 107.945 139.361Z" fill="#263238"/>
<path d="M91.5843 177.484C90.7076 174.036 86.4424 172.471 83.7746 174.795C82.3063 176.085 81.4242 178.269 82.317 181.943C84.7051 191.732 94.0423 187.321 93.9939 187.031C93.9616 186.88 92.6062 181.529 91.5843 177.484Z" fill="#FFBF9D"/>
<path d="M90.092 184.078C90.0436 184.078 89.9522 184.24 89.694 184.444C89.3319 184.715 88.8787 184.835 88.43 184.778C87.3005 184.654 86.0312 183.223 85.5525 181.47C85.3226 180.636 85.2822 179.761 85.4342 178.91C85.4508 178.583 85.5472 178.264 85.715 177.983C85.8828 177.702 86.1169 177.466 86.3969 177.296C86.5796 177.196 86.7919 177.163 86.9964 177.203C87.201 177.243 87.3848 177.354 87.5157 177.517C87.7147 177.759 87.7039 177.968 87.7577 177.974C87.8115 177.979 87.9298 177.759 87.7577 177.371C87.6453 177.136 87.4554 176.946 87.2199 176.834C87.0613 176.768 86.8913 176.734 86.7197 176.734C86.548 176.734 86.378 176.768 86.2195 176.834C85.4772 177.07 84.9662 177.909 84.8049 178.786C84.5936 179.735 84.6195 180.721 84.8802 181.658C85.418 183.616 86.8864 185.219 88.3978 185.278C88.6787 185.292 88.9591 185.242 89.2181 185.132C89.477 185.022 89.7077 184.855 89.893 184.643C90.135 184.321 90.135 184.089 90.092 184.078Z" fill="#7F594B"/>
<path d="M74.2959 158.793C74.1248 158.726 73.9638 158.635 73.8172 158.524C73.3796 158.226 72.9611 157.901 72.564 157.551C71.0763 156.266 69.9367 154.627 69.2508 152.785C68.7898 151.496 68.6244 150.119 68.7667 148.757C68.9132 147.178 69.5128 145.674 70.4933 144.427C71.0386 143.735 71.716 143.158 72.486 142.73C73.256 142.301 74.1033 142.03 74.979 141.932C75.9232 141.799 76.8854 141.886 77.7903 142.187C78.6953 142.487 79.5187 142.992 80.1962 143.663L79.7659 143.959L79.7175 143.857C78.0555 140.452 77.5661 136.564 78.7171 133.407C79.8681 130.249 82.3315 128.028 84.7948 127.49C85.7578 127.248 86.7597 127.202 87.7409 127.354C88.7221 127.507 89.6627 127.855 90.5068 128.378C90.9592 128.662 91.3686 129.01 91.7224 129.41C91.8492 129.548 91.9576 129.702 92.0451 129.867C91.5514 129.364 90.9988 128.921 90.3993 128.55C88.724 127.604 86.7446 127.353 84.8863 127.851C82.5681 128.448 80.1962 130.567 79.1796 133.595C78.1631 136.623 78.5772 140.345 80.1962 143.653L80.2446 143.755L80.9384 145.234L79.8143 144.051C79.1915 143.441 78.4371 142.981 77.6092 142.708C76.7812 142.435 75.9017 142.355 75.0381 142.475C74.2272 142.561 73.4414 142.807 72.726 143.198C72.0106 143.59 71.3797 144.119 70.8698 144.755C69.9406 145.93 69.361 147.343 69.197 148.832C69.0464 150.132 69.186 151.449 69.6058 152.689C70.2439 154.494 71.3064 156.119 72.7038 157.427C73.6827 158.342 74.3282 158.756 74.2959 158.793Z" fill="#263238"/>
<path d="M116.842 181.884C116.552 183.084 116.503 184.329 116.697 185.547C116.797 186.155 117.02 186.737 117.352 187.257C117.684 187.776 118.118 188.223 118.628 188.57C119.703 189.171 120.968 189.334 122.161 189.027H122.199C122.923 188.853 123.57 188.449 124.042 187.874C124.515 187.299 124.787 186.586 124.818 185.843L124.969 182.691C122.775 182.503 119.031 182.067 116.842 181.884Z" fill="#7F594B"/>
<path d="M124.726 187.693C124.726 187.73 124.484 187.897 124.048 188.231C123.777 188.445 123.493 188.642 123.198 188.822C122.784 189.044 122.338 189.199 121.875 189.279C121.317 189.389 120.745 189.411 120.181 189.344C119.517 189.274 118.88 189.043 118.325 188.672C117.719 188.213 117.223 187.624 116.875 186.948C116.526 186.272 116.335 185.527 116.314 184.767C116.261 183.779 116.35 182.788 116.577 181.825L116.625 181.588H116.862C119.207 181.836 121.235 182.072 122.676 182.26C123.452 182.314 124.22 182.447 124.968 182.658C124.195 182.719 123.418 182.701 122.649 182.605C121.197 182.508 119.164 182.341 116.819 182.131L117.104 181.916C116.904 182.832 116.824 183.771 116.867 184.708C116.886 185.386 117.053 186.052 117.356 186.66C117.659 187.267 118.09 187.802 118.621 188.225C119.565 188.833 120.705 189.062 121.81 188.865C122.24 188.817 122.659 188.701 123.053 188.521C123.397 188.36 123.682 188.166 123.924 188.026C124.164 187.859 124.438 187.745 124.726 187.693Z" fill="#263238"/>
<path d="M116.55 177.807C115.98 177.135 115.34 176.526 114.641 175.989C113.868 175.431 113.011 174.999 112.102 174.709C110.996 174.343 109.826 174.217 108.667 174.338C107.509 174.46 106.39 174.826 105.384 175.414C104.556 175.884 103.81 176.485 103.174 177.194C102.603 177.858 102.102 178.579 101.678 179.345C101.74 179.113 101.828 178.89 101.942 178.678C102.231 178.097 102.592 177.555 103.018 177.065C104.098 175.755 105.551 174.805 107.184 174.34C108.817 173.875 110.553 173.917 112.161 174.462C113.09 174.771 113.961 175.233 114.738 175.828C115.257 176.228 115.725 176.69 116.131 177.205C116.296 177.386 116.438 177.589 116.55 177.807Z" fill="#7F594B"/>
<path d="M116.842 181.884C116.552 183.084 116.503 184.329 116.697 185.547C116.797 186.155 117.02 186.737 117.352 187.257C117.684 187.776 118.118 188.223 118.628 188.57C119.703 189.171 120.968 189.334 122.161 189.027H122.199C122.923 188.853 123.57 188.449 124.042 187.874C124.515 187.299 124.787 186.586 124.818 185.843L124.969 182.691C122.775 182.503 119.031 182.067 116.842 181.884Z" fill="#7F594B"/>
<path d="M124.726 187.693C124.726 187.73 124.484 187.897 124.048 188.231C123.777 188.445 123.493 188.642 123.198 188.822C122.784 189.044 122.338 189.199 121.875 189.279C121.317 189.389 120.745 189.411 120.181 189.344C119.517 189.274 118.88 189.043 118.325 188.672C117.719 188.213 117.223 187.624 116.875 186.948C116.526 186.272 116.335 185.527 116.314 184.767C116.261 183.779 116.35 182.788 116.577 181.825L116.625 181.588H116.862C119.207 181.836 121.235 182.072 122.676 182.26C123.452 182.314 124.22 182.447 124.968 182.658C124.195 182.719 123.418 182.701 122.649 182.605C121.197 182.508 119.164 182.341 116.819 182.131L117.104 181.916C116.904 182.832 116.824 183.771 116.867 184.708C116.886 185.386 117.053 186.052 117.356 186.66C117.659 187.267 118.09 187.802 118.621 188.225C119.565 188.833 120.705 189.062 121.81 188.865C122.24 188.817 122.659 188.701 123.053 188.521C123.397 188.36 123.682 188.166 123.924 188.026C124.164 187.859 124.438 187.745 124.726 187.693Z" fill="#263238"/>
<path d="M116.55 177.807C115.98 177.135 115.34 176.526 114.641 175.989C113.868 175.431 113.011 174.999 112.102 174.709C110.996 174.343 109.826 174.217 108.667 174.338C107.509 174.46 106.39 174.826 105.384 175.414C104.556 175.884 103.81 176.485 103.174 177.194C102.603 177.858 102.102 178.579 101.678 179.345C101.74 179.113 101.828 178.89 101.942 178.678C102.231 178.097 102.592 177.555 103.018 177.065C104.098 175.755 105.551 174.805 107.184 174.34C108.817 173.875 110.553 173.917 112.161 174.462C113.09 174.771 113.961 175.233 114.738 175.828C115.257 176.228 115.725 176.69 116.131 177.205C116.296 177.386 116.438 177.589 116.55 177.807Z" fill="#7F594B"/>
<path d="M85.1765 186.983C84.7874 187.215 84.4264 187.491 84.1008 187.806C83.2749 188.753 82.7571 189.93 82.6164 191.178C82.4819 192.03 82.5002 192.899 82.6701 193.744C82.874 194.709 83.3222 195.605 83.9718 196.347C84.7045 197.166 85.6284 197.79 86.661 198.165C87.7481 198.598 88.9412 198.69 90.0818 198.429C91.223 198.173 92.2656 197.592 93.083 196.756C93.8438 195.976 94.3743 195 94.6159 193.938C94.8402 193.042 94.8723 192.108 94.7101 191.199C94.5478 190.289 94.195 189.425 93.6747 188.661C92.9447 187.637 91.8593 186.922 90.6304 186.655C90.1773 186.58 89.717 186.558 89.2589 186.591C89.3725 186.554 89.4897 186.531 89.6085 186.521C89.9541 186.483 90.3033 186.492 90.6465 186.548C91.9254 186.781 93.0665 187.495 93.836 188.543C94.3878 189.325 94.7651 190.217 94.9423 191.158C95.1196 192.099 95.0926 193.067 94.8633 193.997C94.6188 195.107 94.0714 196.127 93.282 196.944C92.4273 197.822 91.3361 198.433 90.1409 198.703C88.9476 198.976 87.6992 198.877 86.5642 198.418C85.4992 198.025 84.5503 197.37 83.805 196.514C83.1329 195.737 82.6733 194.8 82.4711 193.792C82.3101 192.92 82.3101 192.024 82.4711 191.152C82.6308 189.869 83.1961 188.67 84.0847 187.731C84.3372 187.491 84.6213 187.286 84.9291 187.123C85.0073 187.069 85.0901 187.022 85.1765 186.983Z" fill="#B75400"/>
<path d="M95.4295 212.348L80.2943 217.985L69.919 248.669L84.7853 300.115L76.0344 328.406H166.437L158.165 303.665C159.483 294.521 165.318 273.357 164.522 263.525C162.79 242.237 154.373 212.149 154.373 212.149L131.138 211.003C125.781 224.676 101.878 225.719 95.4295 212.348Z" fill="#B75400"/>
<g opacity="0.3">
<path d="M126.233 219.35C126.233 219.35 126.351 219.598 126.566 220.023C127.604 222.072 130.842 228.241 133.273 230.167C136.21 232.496 139.76 235.545 139.76 235.545C143.218 257.968 150.038 277.363 159.456 294.424L153.421 263.191L143.304 225.993L126.351 219.598" fill="black"/>
</g>
<g opacity="0.3">
<path d="M97.2687 298.9L78.0834 325.825C88.7276 323.135 98.7586 316.643 103.82 306.897C104.417 305.746 104.982 304.531 105.971 303.67C107.784 302.057 110.409 301.271 112.705 300.535C119.848 298.243 123.107 295.775 125.743 290.568C119.1 299.034 107.133 302.051 97.2687 298.9Z" fill="black"/>
</g>
<path d="M154.002 212.23C154.002 212.23 160.074 210.917 168.066 221.072C175.059 229.952 183.815 244.011 183.815 244.011L162.752 253.01L154.098 215.36L154.002 212.23Z" fill="#B75400"/>
<path d="M48.0332 265.718C48.0332 265.718 55.2781 230.984 62.4155 225.503C69.6927 219.914 84.7849 216.531 84.7849 216.531L84.0749 274.426L48.0332 265.718Z" fill="#B75400"/>
<path d="M77.7603 241.386C77.8106 241.485 77.8486 241.59 77.8732 241.698C77.9378 241.903 78.0185 242.209 78.126 242.607C78.3304 243.403 78.6047 244.554 78.8898 245.996C79.6236 249.744 80.1372 253.531 80.428 257.339C80.7323 261.148 80.8042 264.972 80.6432 268.79C80.6055 270.253 80.4926 271.436 80.428 272.254C80.3958 272.636 80.3689 272.948 80.342 273.19C80.3393 273.301 80.3231 273.411 80.2936 273.518C80.2842 273.409 80.2842 273.299 80.2936 273.19C80.2936 272.942 80.2936 272.652 80.3259 272.243C80.3581 271.425 80.4388 270.248 80.4549 268.785C80.5542 264.974 80.4537 261.161 80.1537 257.361C79.864 253.562 79.3792 249.782 78.7015 246.033C78.4434 244.592 78.1959 243.435 78.0238 242.634C77.9432 242.258 77.8732 241.951 77.8194 241.714C77.7874 241.608 77.7675 241.498 77.7603 241.386Z" fill="#263238"/>
<path d="M130.955 275.571C130.968 275.68 130.968 275.791 130.955 275.9C130.955 276.115 130.955 276.437 130.955 276.846C130.919 278.006 130.787 279.161 130.563 280.299C129.849 284.087 128.222 287.643 125.821 290.659C123.421 293.674 120.32 296.058 116.788 297.602C115.729 298.074 114.633 298.463 113.513 298.764C113.115 298.877 112.803 298.93 112.593 298.979C112.486 299.009 112.376 299.027 112.265 299.033C112.364 298.984 112.469 298.948 112.577 298.925C112.781 298.855 113.115 298.785 113.481 298.656C114.583 298.321 115.662 297.909 116.708 297.424C120.177 295.844 123.223 293.465 125.598 290.482C127.972 287.499 129.607 283.997 130.369 280.262C130.606 279.133 130.766 277.991 130.848 276.841C130.885 276.432 130.885 276.115 130.907 275.9C130.909 275.789 130.926 275.678 130.955 275.571Z" fill="#263238"/>
<path d="M77.9434 245.306C77.6793 245.148 77.4292 244.968 77.1958 244.768C76.7279 244.413 76.0394 243.913 75.1789 243.316C72.9345 241.757 70.5797 240.364 68.133 239.148C65.68 237.942 63.1416 236.92 60.5384 236.087C59.5434 235.77 58.7259 235.549 58.1611 235.372C57.8646 235.301 57.5735 235.209 57.2898 235.098C57.5933 235.128 57.8937 235.184 58.188 235.264C58.7635 235.388 59.5864 235.603 60.5976 235.899C63.2308 236.679 65.7931 237.681 68.2567 238.895C70.7186 240.115 73.0737 241.54 75.2972 243.155C76.1416 243.779 76.8139 244.3 77.2604 244.687C77.5046 244.875 77.7331 245.081 77.9434 245.306Z" fill="white"/>
<path d="M131.385 225.849C131.343 225.863 131.3 225.874 131.256 225.881L130.863 225.951L129.357 226.199L123.812 227.086C119.127 227.839 112.668 228.926 105.552 230.249C98.436 231.572 92.0194 232.879 87.3777 233.858L81.8808 235.02L80.3856 235.332L79.9983 235.407H79.8639C79.8639 235.407 79.9069 235.407 79.9929 235.358L80.3748 235.262L81.8593 234.896C83.1502 234.589 85.0219 234.159 87.3347 233.648C91.9656 232.621 98.3822 231.282 105.503 229.958C112.625 228.635 119.09 227.581 123.79 226.876C126.136 226.522 128.034 226.247 129.352 226.075L130.869 225.881L131.261 225.838C131.303 225.835 131.345 225.838 131.385 225.849Z" fill="white"/>
<path d="M167.544 221.372C167.603 221.421 165.99 223.341 163.946 225.675C161.902 228.01 160.181 229.822 160.138 229.774C161.264 228.28 162.465 226.844 163.736 225.471C164.935 224.041 166.206 222.673 167.544 221.372Z" fill="white"/>
<path d="M97.1276 264.282L78.8405 286.544L79.174 273.098L52.9428 266.902C52.9428 266.902 52.8299 274.432 52.8837 290.293C52.8837 294.521 54.1261 308.473 55.858 314.954C58.0901 323.334 73.2307 330.88 81.7396 323.619C89.0921 317.342 113.097 270.167 113.097 270.167L97.1276 264.282Z" fill="#FFBF9D"/>
<path d="M97.1295 264.282C97.0702 264.401 96.9981 264.513 96.9144 264.616C96.7692 264.831 96.5433 265.154 96.2421 265.53C95.6397 266.316 94.7468 267.424 93.6335 268.795C91.4121 271.527 88.298 275.249 84.8503 279.402L76.0456 289.992L73.4048 293.219L72.7002 294.107C72.6201 294.212 72.532 294.311 72.4366 294.402C72.4986 294.285 72.5706 294.174 72.6518 294.069C72.8239 293.838 73.0444 293.531 73.3187 293.149C73.9157 292.364 74.7924 291.24 75.895 289.863C78.0948 287.109 81.1929 283.349 84.6352 279.219L97.1295 264.282Z" fill="#7F594B"/>
<path d="M134.053 236.493C134.053 236.493 130.535 238.263 130.196 242.351C129.858 246.438 130.196 256.916 130.196 256.916L136.263 256.141L134.053 236.493Z" fill="#DE9C78"/>
<path d="M133.535 246.653C133.4 244.388 132.997 242.076 131.883 240.112C130.936 238.583 129.688 237.262 128.215 236.229C126.569 234.975 124.728 233.997 122.767 233.335C120.061 232.447 117.17 232.285 114.382 232.866C111.594 233.448 109.008 234.752 106.883 236.648C104.759 238.544 103.17 240.965 102.276 243.669C101.382 246.373 101.214 249.264 101.79 252.053L101.753 251.897C101.753 252.015 101.801 252.128 101.823 252.246C101.844 252.365 101.85 252.376 101.866 252.44C102.683 256.253 103.899 259.357 106.905 261.933C108.885 263.627 111.472 264.418 114.027 264.918C117.948 265.693 122.202 265.838 125.763 264.02C128.743 262.396 131.036 259.748 132.217 256.565C133.369 253.396 133.818 250.013 133.535 246.653Z" fill="#22170F"/>
<path d="M133.225 244.268C133.483 246.366 132.251 248.372 131.482 250.346C130.987 251.621 130.406 252.992 129.218 253.67C128.346 254.165 127.249 254.208 126.448 254.816C125.781 255.305 125.404 256.112 124.726 256.591C123.113 257.726 120.746 256.526 118.988 257.403C118.474 257.719 117.988 258.079 117.535 258.479C117.306 258.672 117.036 258.813 116.747 258.892C116.457 258.971 116.153 258.986 115.857 258.936C115.169 258.753 114.782 258.043 114.152 257.677C113.383 257.215 112.42 257.338 111.528 257.317C110.091 257.258 108.702 256.791 107.522 255.971C106.341 255.151 105.419 254.011 104.863 252.686C104.863 252.686 103.427 254.461 102.712 253.762C102.234 253.249 101.898 252.621 101.739 251.938L101.776 252.094C101.2 249.305 101.368 246.414 102.261 243.71C103.155 241.006 104.744 238.585 106.869 236.689C108.994 234.793 111.58 233.489 114.368 232.908C117.155 232.326 120.047 232.488 122.753 233.377C124.714 234.039 126.554 235.016 128.201 236.271C129.674 237.303 130.922 238.624 131.869 240.154C132.582 241.425 133.042 242.822 133.225 244.268Z" fill="#FF4F81"/>
<g opacity="0.3">
<path d="M130.281 241.667C130.129 241.101 129.864 240.572 129.501 240.113C127.569 237.429 124.808 235.456 121.643 234.497C118.507 233.556 115.382 234.056 112.322 235.229C111.962 235.325 111.654 235.559 111.465 235.88C111.276 236.201 111.221 236.583 111.311 236.945C111.421 237.301 111.621 237.623 111.893 237.878C112.164 238.134 112.497 238.314 112.86 238.402C113.588 238.572 114.347 238.561 115.07 238.37C115.802 238.219 116.517 237.999 117.254 237.918C119.03 237.814 120.79 238.3 122.262 239.3C123.714 240.299 125.095 241.399 126.392 242.592C126.868 243.047 127.43 243.403 128.043 243.641C128.353 243.754 128.688 243.782 129.012 243.723C129.336 243.663 129.639 243.518 129.888 243.302C130.082 243.082 130.219 242.818 130.287 242.533C130.355 242.248 130.353 241.951 130.281 241.667Z" fill="white"/>
</g>
<g opacity="0.3">
<path d="M119.031 248.884C117.601 248.492 116.138 249.239 114.804 249.885C113.47 250.53 111.846 251.084 110.56 250.336C109.398 249.664 108.742 248.034 107.398 247.986C106.966 248.005 106.553 248.167 106.222 248.445C105.892 248.723 105.662 249.102 105.569 249.524C105.408 250.381 105.563 251.268 106.005 252.02C106.663 253.232 107.681 254.21 108.919 254.818C110.158 255.426 111.554 255.634 112.916 255.414C114.196 255.177 115.396 254.564 116.681 254.435C117.832 254.327 119.166 254.559 120.005 253.763C120.677 253.128 121.317 252.633 121.619 251.299C121.834 250.283 121.36 249.341 119.031 248.884Z" fill="white"/>
</g>
<g opacity="0.3">
<path d="M126.183 249.03C125.979 248.293 125.006 247.922 124.242 247.986H124.193C123.974 248.054 123.772 248.17 123.603 248.326C123.434 248.482 123.302 248.674 123.216 248.887C123.131 249.101 123.095 249.331 123.111 249.56C123.126 249.79 123.193 250.013 123.306 250.213C123.496 250.545 123.798 250.798 124.157 250.928C124.517 251.058 124.911 251.056 125.269 250.923C125.617 250.762 125.898 250.485 126.065 250.14C126.232 249.795 126.274 249.402 126.183 249.03Z" fill="white"/>
</g>
<g opacity="0.3">
<path d="M113.2 248.125C114.437 247.369 115.841 246.929 117.289 246.844C118.736 246.758 120.182 247.031 121.499 247.636C122.548 246.551 123.906 245.816 125.388 245.533C124.772 244.356 123.892 243.337 122.817 242.556C121.742 241.776 120.5 241.255 119.19 241.035C117.88 240.814 116.536 240.9 115.265 241.286C113.993 241.672 112.828 242.347 111.861 243.258C111.033 244.048 110.328 245.216 110.732 246.286C111.076 247.206 112.087 247.663 113.001 248.023" fill="black"/>
</g>
<path d="M127.809 245.673C127.153 245.567 126.488 245.529 125.824 245.56C125.099 245.634 124.396 245.848 123.753 246.189C122.95 246.629 122.182 247.13 121.456 247.69L121.392 247.728L121.317 247.701C120.941 247.562 120.559 247.444 120.171 247.346C119.149 247.087 118.091 247.003 117.041 247.098C116.182 247.182 115.338 247.376 114.529 247.674C113.141 248.212 112.377 248.712 112.345 248.663C112.511 248.519 112.691 248.393 112.883 248.287C113.399 247.978 113.939 247.71 114.497 247.486C115.315 247.157 116.175 246.94 117.051 246.84C118.132 246.728 119.225 246.806 120.279 247.071C120.679 247.175 121.074 247.299 121.462 247.443H121.327C122.069 246.878 122.857 246.378 123.683 245.947C124.354 245.609 125.085 245.408 125.835 245.356C126.333 245.331 126.832 245.374 127.319 245.485C127.49 245.527 127.654 245.59 127.809 245.673Z" fill="#263238"/>
<path d="M125.351 245.274C124.823 244.498 124.203 243.789 123.506 243.161C122.735 242.501 121.856 241.979 120.908 241.617C119.751 241.179 118.509 241.009 117.277 241.122C116.043 241.239 114.848 241.617 113.771 242.23C112.892 242.733 112.112 243.391 111.469 244.172C111.028 244.694 110.7 245.302 110.506 245.958C110.377 246.425 110.382 246.7 110.355 246.7C110.344 246.634 110.344 246.567 110.355 246.501C110.362 246.309 110.383 246.119 110.42 245.931C110.581 245.245 110.893 244.603 111.334 244.054C111.972 243.229 112.762 242.535 113.663 242.01C114.765 241.36 115.998 240.961 117.272 240.843C118.552 240.725 119.841 240.909 121.037 241.38C122.004 241.755 122.895 242.301 123.667 242.994C124.187 243.461 124.642 243.994 125.022 244.581C125.126 244.74 125.219 244.905 125.302 245.075C125.328 245.139 125.345 245.206 125.351 245.274Z" fill="#263238"/>
<path d="M104.561 251.277C104.506 251.059 104.472 250.835 104.459 250.61C104.392 250.001 104.362 249.389 104.367 248.776C104.371 247.864 104.435 246.953 104.561 246.049C104.873 243.828 105.537 241.671 106.53 239.659C106.935 238.842 107.395 238.054 107.907 237.298C108.246 236.789 108.616 236.301 109.015 235.835C109.149 235.654 109.304 235.49 109.477 235.346C109.52 235.378 108.902 236.11 108.073 237.411C107.589 238.17 107.153 238.959 106.766 239.772C106.294 240.769 105.891 241.797 105.562 242.849C105.241 243.906 104.993 244.985 104.819 246.076C104.682 246.967 104.597 247.865 104.566 248.765C104.518 250.32 104.615 251.272 104.561 251.277Z" fill="white"/>
<path d="M108.822 256.295C108.702 256.002 108.609 255.7 108.542 255.391C108.438 255.038 108.353 254.678 108.29 254.315C108.214 253.89 108.101 253.406 108.048 252.863C107.962 252.275 107.909 251.682 107.886 251.088C107.832 250.448 107.854 249.76 107.886 249.039C107.949 247.471 108.153 245.912 108.494 244.381C108.856 242.856 109.357 241.367 109.989 239.933C110.301 239.282 110.581 238.653 110.914 238.104C111.195 237.579 111.504 237.069 111.839 236.577C112.124 236.109 112.436 235.727 112.695 235.377C112.912 235.078 113.145 234.791 113.394 234.517C113.59 234.268 113.807 234.038 114.045 233.828C113.881 234.092 113.702 234.346 113.507 234.587C113.313 234.823 113.087 235.125 112.845 235.474C112.603 235.824 112.307 236.216 112.033 236.684C111.759 237.152 111.431 237.647 111.14 238.212C110.85 238.777 110.554 239.39 110.253 240.035C109.009 242.886 108.303 245.942 108.171 249.05C108.171 249.76 108.128 250.443 108.171 251.077C108.214 251.712 108.241 252.304 108.3 252.842C108.359 253.379 108.435 253.863 108.499 254.288C108.564 254.713 108.634 255.079 108.704 255.364C108.766 255.671 108.805 255.982 108.822 256.295Z" fill="white"/>
<path d="M114.775 257.871C114.516 257.464 114.317 257.022 114.183 256.559C113.802 255.46 113.561 254.318 113.468 253.159C113.37 252.001 113.423 250.835 113.624 249.69C113.68 249.212 113.805 248.745 113.995 248.302C113.963 248.777 113.903 249.249 113.818 249.717C113.681 250.852 113.658 251.998 113.748 253.138C113.842 254.276 114.051 255.403 114.372 256.499C114.531 256.949 114.666 257.407 114.775 257.871Z" fill="white"/>
<path d="M116.803 239.435C116.833 238.311 117.089 237.204 117.556 236.181C117.938 235.125 118.525 234.154 119.283 233.325C119.353 233.374 118.498 234.594 117.814 236.289C117.131 237.983 116.884 239.451 116.803 239.435Z" fill="white"/>
<path d="M122.493 241.386C122.341 240.375 122.399 239.344 122.665 238.357C122.841 237.349 123.22 236.386 123.778 235.528C123.859 235.566 123.289 236.798 122.939 238.417C122.589 240.036 122.579 241.386 122.493 241.386Z" fill="white"/>
<path d="M121.79 256.495C121.566 256.226 121.385 255.925 121.252 255.602C120.486 254.081 120.014 252.43 119.859 250.734C119.799 250.387 119.799 250.032 119.859 249.685C119.945 249.685 120.042 251.299 120.59 253.16C121.139 255.021 121.87 256.452 121.79 256.495Z" fill="white"/>
<path d="M129.097 239.768C129.05 240.007 128.98 240.241 128.888 240.467C128.716 241.101 128.599 241.749 128.538 242.403C128.46 243.377 128.437 244.353 128.468 245.329C128.521 246.536 128.498 247.745 128.398 248.949C128.339 249.576 128.221 250.195 128.043 250.799C127.961 251.094 127.854 251.382 127.726 251.66C127.651 251.802 127.551 251.93 127.43 252.036C127.362 252.092 127.284 252.134 127.2 252.158C127.116 252.183 127.028 252.191 126.94 252.182C126.645 252.101 126.392 251.908 126.236 251.644C126.069 251.434 125.919 251.224 125.773 251.02C125.514 250.639 125.279 250.242 125.069 249.831C124.767 249.235 124.528 248.61 124.353 247.965C124.277 247.733 124.232 247.493 124.219 247.249C124.496 248.105 124.84 248.937 125.246 249.74C125.463 250.138 125.703 250.522 125.967 250.891C126.107 251.084 126.257 251.289 126.424 251.488C126.591 251.687 126.763 251.891 126.962 251.918C127.161 251.945 127.36 251.757 127.5 251.52C127.618 251.259 127.715 250.989 127.79 250.713C127.96 250.123 128.074 249.518 128.129 248.906C128.228 247.715 128.258 246.519 128.221 245.324C128.201 244.338 128.244 243.352 128.35 242.371C128.43 241.708 128.58 241.056 128.796 240.424C128.873 240.195 128.974 239.975 129.097 239.768Z" fill="white"/>
<path d="M137.796 249.033L135.736 243.875C135.736 243.875 133.752 244.87 133.859 248.399C133.967 251.927 133.321 253.03 133.321 253.03C133.321 253.03 131.224 252.589 130.675 256.23C130.127 259.871 126.485 263.62 126.485 263.62L115.561 264.4C115.561 264.4 109.263 262.162 106.724 260.07C104.186 257.978 104.96 255.229 104.412 250.141C103.863 245.053 100.647 247.495 100.647 247.495C100.647 247.495 101.185 252.019 99.7592 256.101C98.3339 260.183 97.113 263.819 97.113 264.26L107.703 274.409C108.269 273.19 109.172 272.158 110.305 271.435C111.438 270.712 112.754 270.327 114.098 270.327C114.098 270.327 129.32 270.44 130.976 269.224C132.633 268.009 133.294 265.255 133.294 265.255C133.294 265.255 136.925 259.973 137.915 258.36C139.2 256.294 137.796 249.033 137.796 249.033Z" fill="#FFBF9D"/>
<path d="M132.773 253.339C132.773 253.339 132.805 253.301 132.886 253.247C133.013 253.183 133.152 253.147 133.295 253.14C133.557 253.14 133.816 253.202 134.05 253.322C134.284 253.441 134.486 253.615 134.639 253.828C135.034 254.493 135.18 255.276 135.054 256.039C134.984 256.872 134.892 257.781 134.785 258.728C134.614 260.359 134.331 261.976 133.94 263.569C133.784 264.182 133.628 264.671 133.51 265.005C133.459 265.181 133.386 265.351 133.295 265.51C133.252 265.51 133.483 264.752 133.747 263.52C134.081 261.921 134.334 260.305 134.505 258.68C134.607 257.728 134.709 256.819 134.795 255.99C134.926 255.284 134.814 254.554 134.478 253.92C134.346 253.721 134.172 253.555 133.967 253.434C133.762 253.313 133.532 253.24 133.295 253.22C133.116 253.237 132.941 253.277 132.773 253.339Z" fill="#7F594B"/>
<path d="M106.298 275.852C106.47 275.403 106.707 274.982 107.003 274.604C107.669 273.656 108.464 272.805 109.364 272.076C109.866 271.666 110.406 271.305 110.978 271C111.443 270.765 111.934 270.585 112.441 270.462C112.635 270.41 112.833 270.372 113.032 270.349C113.182 270.324 113.333 270.313 113.484 270.317C113.737 270.317 113.871 270.317 113.871 270.349C113.871 270.382 113.333 270.398 112.494 270.656C112.009 270.805 111.541 271.003 111.096 271.248C110.555 271.554 110.039 271.903 109.552 272.291C108.669 273.007 107.871 273.823 107.175 274.722C106.621 275.41 106.331 275.873 106.298 275.852Z" fill="#7F594B"/>
<path d="M150.57 185.632C151.551 186.058 152.416 186.711 153.096 187.536C153.776 188.362 154.25 189.337 154.48 190.381C155.346 194.006 153.813 196.469 152.081 198.094C150.468 199.621 142.938 206.823 137.054 207.512C131.17 208.2 127.48 208.765 123.607 205.941C120.16 203.424 120.472 198.131 123.607 195.362C126.743 192.592 133.999 188.369 137.694 186.293C141.389 184.217 147.209 183.271 150.57 185.632Z" fill="#22170F"/>
<path d="M151.512 188.026C151.389 188.649 151.109 189.231 150.7 189.717C150.291 190.204 149.766 190.578 149.173 190.807C147.93 191.259 146.483 191.598 145.822 192.754C145.413 193.485 145.338 194.534 144.563 194.862C143.934 195.131 143.159 194.744 142.536 195.024C141.18 195.642 142.32 198.192 141.078 199.015C140.379 199.472 139.464 199.015 138.781 198.525C138.098 198.036 137.302 197.449 136.512 197.734C135.269 198.159 135.371 200.16 134.231 200.816C133.57 201.204 132.72 200.978 132.037 200.628C131.396 200.202 130.692 199.883 129.95 199.681C129.039 199.622 128.133 199.844 127.352 200.316C126.575 200.792 125.699 201.083 124.792 201.166C123.883 201.166 122.043 200.628 122.006 199.741C122.006 199.741 120.656 198.208 123.56 195.341C125.781 193.152 133.311 188.623 133.311 188.623C133.311 188.623 140.492 183.427 146.849 184.224C146.871 184.261 152.346 184.718 151.512 188.026Z" fill="#FF4F81"/>
<path d="M143.816 189.434C143.816 189.478 143.068 189.795 141.939 190.51C140.809 191.226 139.335 192.323 137.636 193.485C136.209 194.515 134.61 195.282 132.913 195.749C132.395 195.875 131.865 195.946 131.332 195.959C131.136 195.976 130.938 195.963 130.746 195.921C131.458 195.849 132.164 195.727 132.86 195.555C134.514 195.044 136.075 194.266 137.48 193.253C139.158 192.102 140.648 190.989 141.826 190.338C142.286 190.074 142.762 189.839 143.251 189.633C143.428 189.539 143.618 189.472 143.816 189.434Z" fill="#263238"/>
<g opacity="0.3">
<path d="M143.805 187.387C143.445 187.307 143.07 187.337 142.729 187.473C140.152 188.242 138.092 190.13 136.022 191.846C133.951 193.562 131.617 195.229 128.938 195.401C130.072 195.942 131.361 196.06 132.574 195.735C137.264 194.331 139.991 190.894 143.794 189.436C144.001 189.33 144.177 189.171 144.304 188.976C144.431 188.781 144.506 188.556 144.52 188.323C144.491 188.119 144.41 187.925 144.285 187.761C144.16 187.597 143.994 187.468 143.805 187.387Z" fill="black"/>
</g>
<path d="M124.958 200.542C124.702 200.671 124.408 200.705 124.13 200.639C123.784 200.597 123.452 200.477 123.159 200.29C122.865 200.103 122.618 199.852 122.433 199.557C122.249 199.261 122.134 198.928 122.095 198.582C122.056 198.237 122.095 197.886 122.209 197.557C122.387 197.052 122.645 196.831 122.661 196.853C122.677 196.874 122.516 197.138 122.403 197.611C122.323 197.913 122.305 198.228 122.352 198.537C122.398 198.846 122.507 199.143 122.673 199.408C122.838 199.673 123.056 199.901 123.313 200.079C123.57 200.256 123.861 200.379 124.167 200.44C124.619 200.553 124.952 200.494 124.958 200.542Z" fill="white"/>
<path d="M133.155 200.143C132.727 200.206 132.29 200.138 131.902 199.949C131.235 199.718 130.767 199.374 130.826 199.309C131.237 199.38 131.637 199.506 132.014 199.686C132.414 199.785 132.797 199.939 133.155 200.143Z" fill="white"/>
<path d="M136.328 194.771C136.064 195.013 135.76 195.206 135.429 195.341C134.661 195.719 133.848 196 133.009 196.175C132.167 196.345 131.307 196.41 130.449 196.368C130.094 196.372 129.741 196.316 129.405 196.202C130.593 196.19 131.778 196.089 132.95 195.901C134.103 195.611 135.232 195.233 136.328 194.771Z" fill="white"/>
<path d="M140.087 198.079C140.087 198.149 139.587 198.235 139.011 197.977C138.436 197.718 138.183 197.283 138.247 197.24C138.312 197.197 138.635 197.503 139.13 197.724C139.624 197.944 140.082 197.998 140.087 198.079Z" fill="white"/>
<path d="M144.249 193.808C144.249 193.889 144.045 193.959 143.781 193.969C143.518 193.98 143.308 193.921 143.303 193.846C143.297 193.77 143.512 193.695 143.771 193.684C144.029 193.674 144.244 193.733 144.249 193.808Z" fill="white"/>
<path d="M150.187 188.805C150.219 188.805 150.187 189.074 149.967 189.429C149.663 189.879 149.246 190.239 148.757 190.473C148.277 190.697 147.768 190.851 147.245 190.93C146.847 190.994 146.6 191.005 146.589 190.967C146.578 190.93 146.82 190.849 147.197 190.736C147.69 190.598 148.17 190.418 148.633 190.198C149.081 189.981 149.48 189.673 149.805 189.295C150.047 189.02 150.144 188.789 150.187 188.805Z" fill="white"/>
<g opacity="0.2">
<path d="M136.51 187.165C136.311 187.294 136.112 187.428 135.918 187.568L136.51 187.165Z" fill="white"/>
<path d="M148.553 185.11C147.966 184.724 147.277 184.524 146.574 184.534C143.026 184.324 139.502 185.244 136.511 187.164C136.106 187.406 135.753 187.726 135.473 188.106C135.337 188.303 135.279 188.543 135.309 188.78C135.34 189.018 135.458 189.235 135.64 189.391C136.07 189.692 136.656 189.477 137.124 189.246C138.673 188.461 140.141 187.482 141.787 186.928C143.433 186.374 145.364 186.304 146.811 187.267C147.273 187.579 147.741 188.004 148.295 187.944C148.602 187.872 148.871 187.691 149.054 187.434C149.237 187.178 149.321 186.865 149.29 186.551C149.275 186.273 149.202 186.001 149.075 185.752C148.948 185.504 148.77 185.285 148.553 185.11Z" fill="white"/>
</g>
<g opacity="0.2">
<path d="M133.654 197.416C133.555 197.363 133.444 197.333 133.332 197.33L129.056 196.841C127.733 196.685 126.366 196.54 125.086 196.938C124.763 196.972 124.462 197.116 124.231 197.344C124 197.573 123.854 197.874 123.817 198.196C123.83 198.49 123.956 198.767 124.171 198.968C124.385 199.169 124.669 199.278 124.963 199.272C125.488 199.147 125.97 198.881 126.356 198.503C127.252 197.861 128.366 197.6 129.454 197.777C130.68 197.976 131.858 198.729 133.079 198.492C133.337 198.46 133.573 198.331 133.74 198.132C133.784 198.08 133.816 198.02 133.835 197.955C133.854 197.89 133.86 197.822 133.852 197.755C133.844 197.688 133.822 197.624 133.788 197.566C133.754 197.507 133.709 197.456 133.654 197.416Z" fill="white"/>
</g>
<path d="M153.9 192.867C153.841 192.727 153.745 192.606 153.623 192.516C153.501 192.426 153.357 192.371 153.206 192.356C152.626 192.485 152.728 193.168 152.884 193.469C152.922 193.533 152.972 193.589 153.032 193.634C153.092 193.679 153.161 193.711 153.233 193.729C153.306 193.747 153.381 193.75 153.455 193.739C153.529 193.728 153.6 193.702 153.664 193.663C153.786 193.576 153.877 193.45 153.92 193.306C153.962 193.161 153.956 193.007 153.9 192.867Z" fill="#EB996E"/>
<path d="M146.423 199.138C146.39 199.058 146.335 198.988 146.265 198.937C146.195 198.886 146.112 198.855 146.025 198.848C145.692 198.917 145.751 199.31 145.837 199.488C145.859 199.524 145.889 199.556 145.924 199.582C145.959 199.607 145.998 199.625 146.04 199.635C146.082 199.645 146.126 199.647 146.168 199.64C146.211 199.633 146.252 199.618 146.289 199.595C146.36 199.546 146.411 199.473 146.436 199.39C146.46 199.307 146.456 199.218 146.423 199.138Z" fill="#EB996E"/>
<path d="M151.381 192.377C151.342 192.3 151.285 192.233 151.215 192.182C151.145 192.132 151.063 192.099 150.978 192.087C150.644 192.162 150.703 192.555 150.795 192.727C150.816 192.764 150.845 192.796 150.879 192.822C150.914 192.848 150.953 192.866 150.994 192.877C151.036 192.887 151.079 192.889 151.121 192.883C151.164 192.877 151.205 192.862 151.241 192.84C151.311 192.788 151.363 192.715 151.388 192.632C151.413 192.548 151.411 192.459 151.381 192.377Z" fill="#EB996E"/>
<path d="M140.41 232.049C140.41 232.049 156.777 286.077 157.793 289.143C158.81 292.208 165.323 310.302 178.936 306.166C194.314 301.503 182.825 270.533 182.825 270.533L176.371 247.077L166.033 250.455L157.696 224.675L140.41 232.049Z" fill="#FFBF9D"/>
<path d="M123.005 206.114C123.005 206.114 125.264 217.818 126.566 219.587C127.868 221.357 134.957 228.457 134.957 228.457L142.643 233.539L157.772 224.907L155.056 212.853L151.678 198.606L147.784 201.618L148.199 205.996C148.199 205.996 142.513 196.535 140.389 198.606C138.264 200.676 142.051 204.931 143.234 208.475C144.417 212.02 143.471 213.913 143.471 213.913C143.471 213.913 142.524 214.15 141.223 211.907C140.281 210.293 136.801 202.876 133.827 200.311C133.568 200.081 133.247 199.934 132.904 199.888C132.561 199.842 132.212 199.899 131.902 200.052C131.592 200.205 131.334 200.447 131.161 200.747C130.989 201.047 130.909 201.391 130.933 201.736L131.057 203.511L135.667 215.096L137.323 217.925L132.902 214.623C132.902 214.623 130.896 208.631 128.798 205.302C128.389 204.639 127.735 204.164 126.978 203.98C126.221 203.796 125.422 203.917 124.753 204.318L125.738 208.239C125.738 208.239 125.738 205.996 123.005 206.114Z" fill="#FFBF9D"/>
<path d="M134.934 224.212C134.684 224.118 134.447 223.991 134.229 223.835C133.794 223.566 133.186 223.136 132.454 222.582C131.723 222.028 130.841 221.372 129.878 220.651C129.364 220.247 128.942 219.737 128.641 219.156C128.483 218.849 128.359 218.527 128.27 218.193L127.995 217.198C127.275 214.509 126.753 212.013 126.296 210.244C126.07 209.356 125.876 208.63 125.758 208.152C125.669 207.9 125.604 207.641 125.564 207.377C125.685 207.615 125.784 207.864 125.86 208.119C126.032 208.603 126.258 209.308 126.511 210.19C127.017 211.954 127.587 214.428 128.286 217.123C128.431 217.778 128.64 218.418 128.91 219.032C129.189 219.582 129.581 220.066 130.061 220.452C131.024 221.168 131.884 221.861 132.594 222.426C133.304 222.991 133.896 223.448 134.31 223.744C134.724 224.04 134.945 224.196 134.934 224.212Z" fill="#7F594B"/>
<path d="M141.717 220.942C141.717 220.974 141.459 221.028 141.034 220.995C140.47 220.95 139.921 220.79 139.42 220.527C138.924 220.27 138.484 219.917 138.124 219.489C137.855 219.156 137.753 218.909 137.78 218.892C138.789 220.037 140.186 220.767 141.701 220.942H141.717Z" fill="#7F594B"/>
<path d="M148.823 214.623C147.637 214.489 146.479 214.169 145.392 213.676C145.99 213.702 146.581 213.816 147.145 214.015C147.733 214.13 148.299 214.335 148.823 214.623Z" fill="#7F594B"/>
<path d="M151.614 214.149C151.331 213.817 151.104 213.441 150.942 213.036C150.499 212.088 150.112 211.115 149.785 210.121C149.387 208.964 149.027 207.921 148.71 207.189C148.522 206.801 148.357 206.403 148.215 205.995C148.498 206.328 148.727 206.704 148.893 207.109C149.334 208.057 149.718 209.03 150.044 210.024C150.442 211.18 150.807 212.224 151.119 212.955C151.307 213.343 151.472 213.742 151.614 214.149Z" fill="#7F594B"/>
<path d="M183.713 293.983C183.708 293.942 183.708 293.9 183.713 293.859C183.713 293.762 183.772 293.649 183.81 293.504C183.88 293.192 184.046 292.746 184.143 292.143C184.49 290.458 184.538 288.725 184.283 287.023C184.009 284.872 183.153 282.387 182.094 279.708C181.556 278.364 181.018 276.954 180.448 275.475C180.19 274.728 179.91 273.991 179.598 273.243C179.286 272.496 178.91 271.77 178.49 271.054C176.896 268.359 175.166 265.747 173.305 263.228C171.627 260.873 170.137 258.732 169.003 256.855C168.088 255.384 167.293 253.843 166.625 252.245C166.383 251.708 166.27 251.218 166.157 250.917C166.114 250.777 166.082 250.659 166.05 250.567C166.035 250.528 166.026 250.486 166.023 250.444C166.048 250.477 166.066 250.516 166.077 250.557L166.211 250.895C166.34 251.197 166.469 251.654 166.749 252.202C167.451 253.777 168.267 255.297 169.191 256.753C170.342 258.608 171.842 260.733 173.531 263.078C174.37 264.256 175.258 265.487 176.151 266.789C177.043 268.091 177.942 269.446 178.748 270.914C179.173 271.64 179.523 272.393 179.867 273.13C180.211 273.867 180.47 274.642 180.722 275.384C181.26 276.858 181.825 278.267 182.336 279.611C183.385 282.301 184.229 284.802 184.487 286.996C184.726 288.719 184.648 290.471 184.256 292.165C184.154 292.624 184.025 293.077 183.869 293.52L183.75 293.87C183.742 293.909 183.73 293.947 183.713 293.983Z" fill="#7F594B"/>
<path d="M134.976 228.456C134.976 228.456 134.858 228.354 134.642 228.139L133.68 227.192C132.841 226.353 131.598 225.111 130.028 223.481C129.242 222.669 128.376 221.76 127.451 220.738C126.937 220.227 126.509 219.637 126.182 218.99C125.88 218.271 125.622 217.534 125.407 216.785C124.515 213.686 123.724 210.11 122.923 206.13V206.017H123.046C123.699 205.963 124.353 206.117 124.913 206.458C125.201 206.662 125.438 206.93 125.607 207.24C125.776 207.551 125.871 207.896 125.886 208.249H125.671C125.364 207.033 125.026 205.699 124.681 204.328V204.242L124.757 204.199C125.001 204.036 125.262 203.9 125.537 203.795C125.823 203.693 126.125 203.64 126.429 203.639C127.055 203.629 127.664 203.834 128.156 204.22C128.398 204.42 128.605 204.658 128.769 204.925C128.936 205.183 129.108 205.463 129.259 205.71C129.57 206.248 129.861 206.786 130.141 207.351C131.269 209.694 132.253 212.105 133.088 214.569L133.04 214.504L137.466 217.801L137.267 217.973L135.611 215.149C134.406 212.132 133.158 208.996 131.878 205.78C131.521 204.976 131.247 204.138 131.06 203.279C130.972 202.842 130.911 202.4 130.877 201.956C130.827 201.478 130.958 200.998 131.243 200.611C131.532 200.225 131.95 199.956 132.421 199.853C132.897 199.752 133.393 199.836 133.809 200.09C133.911 200.154 134.002 200.235 134.099 200.305L134.341 200.541C134.503 200.703 134.669 200.859 134.815 201.031C135.121 201.37 135.406 201.719 135.686 202.106C137.127 204.091 138.418 206.18 139.548 208.356L141.226 211.53C141.494 212.046 141.815 212.532 142.183 212.982C142.365 213.198 142.573 213.392 142.802 213.557C143.004 213.715 143.25 213.805 143.506 213.816L143.415 213.885C143.802 212.714 143.869 211.461 143.609 210.255C143.386 209.056 142.993 207.895 142.441 206.807C141.904 205.732 141.306 204.656 140.774 203.58C140.503 203.057 140.262 202.518 140.053 201.967C139.832 201.406 139.712 200.81 139.698 200.208C139.691 199.901 139.747 199.596 139.863 199.312C139.979 199.028 140.151 198.771 140.371 198.557C140.486 198.445 140.624 198.359 140.775 198.303C140.926 198.248 141.087 198.224 141.247 198.234C141.55 198.255 141.844 198.343 142.108 198.492C143.073 199.094 143.928 199.856 144.636 200.746C146.01 202.392 147.258 204.139 148.369 205.974L148.148 206.049C148.008 204.543 147.868 203.085 147.739 201.671V201.612L147.788 201.574L151.687 198.562L151.816 198.465L151.854 198.621C153.752 206.721 155.328 213.283 156.307 217.855C156.807 220.13 157.195 221.9 157.464 223.11C157.593 223.707 157.69 224.185 157.759 224.481C157.829 224.777 157.846 224.949 157.846 224.949C157.846 224.949 157.802 224.793 157.727 224.487C157.652 224.18 157.544 223.717 157.404 223.126C157.125 221.916 156.716 220.152 156.194 217.882C155.178 213.321 153.575 206.764 151.649 198.67L151.816 198.729L147.922 201.751L147.965 201.655C148.105 203.064 148.247 204.521 148.39 206.027L148.438 206.528L148.17 206.097C147.064 204.276 145.821 202.541 144.453 200.907C143.762 200.044 142.931 199.304 141.995 198.718C141.787 198.562 141.534 198.477 141.274 198.477C141.014 198.477 140.761 198.562 140.553 198.718C140.36 198.911 140.208 199.141 140.106 199.394C140.004 199.647 139.955 199.919 139.962 200.192C139.979 200.763 140.096 201.327 140.306 201.859C140.511 202.41 140.748 202.949 141.016 203.473C141.554 204.548 142.151 205.581 142.689 206.7C143.254 207.811 143.656 208.997 143.883 210.223C144.158 211.484 144.083 212.797 143.668 214.02V214.085H143.603C143.269 214.104 142.939 213.999 142.678 213.789C142.429 213.611 142.205 213.401 142.011 213.165C141.625 212.704 141.289 212.203 141.011 211.67L139.252 208.464C138.128 206.303 136.847 204.229 135.417 202.257C134.897 201.544 134.292 200.897 133.615 200.332C133.259 200.121 132.836 200.05 132.431 200.134C132.025 200.217 131.665 200.449 131.421 200.783C130.883 201.45 131.157 202.397 131.286 203.225C131.467 204.07 131.735 204.894 132.088 205.683C133.362 208.91 134.61 212.035 135.81 215.058L137.461 217.887L137.794 218.457L137.256 218.065L132.841 214.762H132.808V214.725C131.982 212.272 131.007 209.872 129.888 207.539C129.614 207.001 129.323 206.431 129.016 205.925C128.748 205.398 128.396 204.919 127.973 204.505C127.641 204.243 127.248 204.069 126.83 204C126.412 203.931 125.984 203.97 125.585 204.113C125.324 204.211 125.075 204.339 124.843 204.495L124.897 204.365C125.235 205.737 125.569 207.055 125.875 208.292L125.655 208.324C125.641 208.007 125.555 207.697 125.404 207.418C125.253 207.138 125.041 206.896 124.784 206.711C124.26 206.395 123.65 206.252 123.041 206.302L123.138 206.178C123.923 210.153 124.698 213.708 125.58 216.822C125.786 217.567 126.037 218.298 126.333 219.011C126.649 219.647 127.067 220.226 127.57 220.727C128.484 221.754 129.345 222.669 130.124 223.492L133.733 227.257L134.675 228.225C134.874 228.365 134.976 228.456 134.976 228.456Z" fill="#7F594B"/>
<path d="M143.335 185.026C142.93 184.825 142.568 184.545 142.271 184.204C141.974 183.862 141.747 183.465 141.603 183.036L141.178 180.47L140.942 183.16C140.683 184.049 140.109 184.813 139.328 185.311C139.747 185.519 140.119 185.81 140.42 186.167C140.722 186.524 140.947 186.94 141.082 187.387L141.361 189.479L141.786 187.274C142.008 186.4 142.564 185.649 143.335 185.182L143.448 185.117L143.335 185.026Z" fill="white"/>
<path d="M147.372 328.534L146.641 307.391L225.474 307.181V328.254L147.372 328.534Z" fill="#D28B4D"/>
<path d="M179.697 307.391L162.055 266.939H205.756L225.474 307.181L179.697 307.391Z" fill="#D28B4D"/>
<path d="M162.056 266.939L156.118 276.244L168.591 304.901L179.698 307.391L162.056 266.939Z" fill="#D28B4D"/>
<path d="M225.473 307.181H225.236H224.558L221.939 307.219L212.306 307.305L180.524 307.493H179.604L179.567 307.407L167.11 278.793C165.539 275.141 164.265 272.188 163.377 270.128L162.377 267.767C162.269 267.509 162.189 267.304 162.124 267.154C162.093 267.084 162.068 267.012 162.049 266.939C162.049 266.939 162.086 267.003 162.151 267.143L162.431 267.746C162.673 268.283 163.028 269.079 163.479 270.085L167.293 278.718C170.493 286.033 174.92 296.133 179.819 307.332L179.69 307.251H180.513L212.301 307.143H221.934H224.553H225.231C225.312 307.149 225.393 307.161 225.473 307.181Z" fill="#263238"/>
<path d="M179.696 328.571C179.621 328.571 179.557 323.828 179.557 317.981C179.557 312.135 179.621 307.391 179.696 307.391C179.772 307.391 179.836 312.129 179.836 317.981C179.836 323.833 179.777 328.571 179.696 328.571Z" fill="#263238"/>
<path d="M203.799 288.436C203.836 287.76 203.797 287.081 203.681 286.414C203.526 285.635 203.233 284.89 202.815 284.214C202.264 283.317 201.551 282.531 200.712 281.896C198.493 280.253 195.718 279.546 192.983 279.927C192.203 280.037 191.438 280.235 190.702 280.519C189.944 280.83 189.23 281.239 188.578 281.734C187.883 282.243 187.297 282.887 186.857 283.628C186.417 284.369 186.131 285.191 186.017 286.045C185.902 286.899 185.961 287.767 186.191 288.598C186.42 289.428 186.815 290.204 187.352 290.878C187.848 291.531 188.428 292.115 189.078 292.615C190.5 293.662 192.165 294.332 193.916 294.563C195.667 294.793 197.448 294.577 199.093 293.933C200.069 293.54 200.964 292.971 201.734 292.255C202.314 291.713 202.793 291.072 203.148 290.362C203.437 289.746 203.656 289.1 203.799 288.436C203.805 288.481 203.805 288.526 203.799 288.571C203.799 288.678 203.762 288.807 203.735 288.963C203.703 289.176 203.65 289.385 203.579 289.587C203.536 289.711 203.503 289.845 203.45 289.98L203.256 290.41C202.911 291.142 202.435 291.806 201.852 292.368C201.075 293.116 200.162 293.709 199.163 294.116C196.539 295.161 193.609 295.128 191.009 294.024C190.266 293.706 189.562 293.304 188.911 292.825C188.238 292.313 187.638 291.712 187.126 291.039C186.566 290.338 186.154 289.53 185.914 288.665C185.675 287.8 185.613 286.895 185.733 286.006C185.852 285.116 186.151 284.26 186.61 283.489C187.07 282.718 187.68 282.048 188.406 281.519C189.078 281.007 189.816 280.587 190.6 280.271C192.288 279.626 194.112 279.423 195.9 279.68C197.689 279.937 199.382 280.646 200.819 281.74C201.668 282.398 202.385 283.21 202.933 284.133C203.346 284.83 203.63 285.595 203.772 286.392C203.831 286.681 203.862 286.974 203.864 287.269C203.883 287.484 203.883 287.7 203.864 287.914L203.821 288.307C203.815 288.393 203.805 288.441 203.799 288.436Z" fill="white"/>
<path d="M203.798 288.437C203.798 288.437 203.707 288.405 203.54 288.41C203.417 288.422 203.298 288.46 203.19 288.522C203.083 288.583 202.989 288.666 202.916 288.765C202.657 289.074 202.429 289.408 202.233 289.76C201.973 290.243 201.637 290.681 201.238 291.056C201.007 291.278 200.752 291.475 200.479 291.642C200.173 291.837 199.82 291.945 199.457 291.954C199.26 291.95 199.066 291.906 198.886 291.823C198.707 291.741 198.546 291.623 198.414 291.476C198.185 291.181 197.909 290.926 197.596 290.723C197.258 290.573 196.878 290.545 196.521 290.642C196.132 290.753 195.767 290.935 195.445 291.18C195.095 291.417 194.751 291.691 194.369 291.928C193.973 292.192 193.516 292.349 193.041 292.385C192.794 292.411 192.545 292.379 192.313 292.292C192.082 292.204 191.874 292.062 191.707 291.879C191.429 291.498 191.28 291.038 191.282 290.567C191.281 290.153 191.23 289.742 191.131 289.34C191.094 289.163 191.014 288.997 190.898 288.857C190.781 288.717 190.633 288.608 190.465 288.539C190.114 288.469 189.75 288.537 189.448 288.727C189.122 288.914 188.773 289.059 188.41 289.158C188.043 289.226 187.663 289.167 187.334 288.991C187.046 288.833 186.793 288.617 186.592 288.356C186.253 287.908 186.064 287.364 186.054 286.802C186.04 286.388 186.076 285.975 186.162 285.57C186.232 285.242 186.296 284.989 186.345 284.817C186.364 284.729 186.394 284.644 186.436 284.564C186.436 284.564 186.377 284.93 186.269 285.592C186.206 285.988 186.186 286.39 186.21 286.791C186.233 287.316 186.422 287.82 186.748 288.232C186.927 288.486 187.172 288.685 187.457 288.808C187.741 288.931 188.054 288.974 188.362 288.932C188.7 288.83 189.026 288.688 189.33 288.507C189.687 288.28 190.12 288.202 190.534 288.292C190.744 288.372 190.93 288.503 191.078 288.671C191.226 288.84 191.331 289.042 191.384 289.26C191.49 289.68 191.546 290.112 191.551 290.545C191.548 290.957 191.674 291.359 191.911 291.696C192.051 291.847 192.224 291.963 192.416 292.034C192.609 292.105 192.816 292.129 193.019 292.105C193.901 292.067 194.579 291.427 195.3 290.949C195.66 290.698 196.063 290.516 196.488 290.411C196.913 290.297 197.365 290.337 197.763 290.524C198.098 290.743 198.394 291.015 198.64 291.331C198.748 291.458 198.881 291.562 199.031 291.635C199.181 291.708 199.344 291.749 199.511 291.755C200.136 291.685 200.717 291.398 201.152 290.943C201.546 290.585 201.882 290.168 202.147 289.706C202.361 289.354 202.608 289.023 202.884 288.717C202.972 288.615 203.08 288.533 203.201 288.476C203.322 288.418 203.454 288.387 203.588 288.383C203.658 288.386 203.726 288.404 203.787 288.437C203.782 288.421 203.803 288.437 203.798 288.437Z" fill="white"/>
<path d="M199.688 285.377C199.341 285.594 198.953 285.739 198.548 285.802C197.579 286.012 196.576 286.012 195.606 285.802C194.63 285.589 193.712 285.165 192.917 284.559C192.579 284.326 192.289 284.03 192.062 283.688C192.099 283.656 192.422 283.984 193.03 284.398C193.825 284.931 194.711 285.314 195.644 285.528C196.578 285.738 197.543 285.771 198.489 285.624C199.237 285.506 199.672 285.345 199.688 285.377Z" fill="white"/>
<path d="M180.412 282.181L180.853 281.391C180.909 281.264 180.992 281.151 181.095 281.058C181.197 280.965 181.318 280.894 181.45 280.851C181.581 280.807 181.721 280.791 181.859 280.804C181.996 280.817 182.13 280.858 182.251 280.926C182.373 280.993 182.478 281.085 182.562 281.195C182.646 281.305 182.706 281.432 182.738 281.567C182.771 281.701 182.775 281.841 182.75 281.978C182.725 282.114 182.673 282.244 182.595 282.359L182.154 283.155L180.412 282.181ZM182.251 282.181C182.299 282.11 182.331 282.03 182.347 281.946C182.362 281.862 182.36 281.776 182.34 281.692C182.32 281.609 182.283 281.531 182.232 281.463C182.18 281.395 182.115 281.338 182.04 281.296C181.966 281.254 181.883 281.228 181.798 281.22C181.713 281.212 181.627 281.221 181.546 281.248C181.465 281.274 181.39 281.318 181.326 281.375C181.262 281.431 181.211 281.501 181.175 281.579L180.971 281.95L182.047 282.547L182.251 282.181Z" fill="white"/>
<path d="M184 279.782L184.285 280.019L183.295 281.213L181.757 279.938L182.72 278.771L183.005 279.013L182.338 279.82L182.672 280.094L183.263 279.384L183.538 279.61L182.946 280.325L183.306 280.621L184 279.782Z" fill="white"/>
<path d="M183.176 278.325L183.521 278.023L184.596 279.244L185.349 278.583L185.597 278.868L184.494 279.83L183.176 278.325Z" fill="white"/>
<path d="M184.634 277.132L185.016 276.868L186.151 278.514L185.769 278.777L184.634 277.132Z" fill="white"/>
<path d="M185.937 277.439C185.872 277.315 185.833 277.179 185.822 277.04C185.812 276.9 185.83 276.76 185.876 276.628C185.922 276.496 185.994 276.375 186.089 276.272C186.184 276.169 186.298 276.086 186.426 276.03C186.559 275.952 186.709 275.905 186.862 275.894C187.016 275.883 187.171 275.907 187.314 275.965L187.179 276.342C187.095 276.303 187.003 276.283 186.91 276.283C186.817 276.283 186.726 276.303 186.641 276.342C186.561 276.377 186.489 276.428 186.429 276.492C186.369 276.556 186.324 276.631 186.294 276.714C186.265 276.797 186.253 276.884 186.259 276.972C186.265 277.059 186.289 277.144 186.329 277.222C186.369 277.3 186.425 277.369 186.492 277.424C186.56 277.479 186.639 277.52 186.723 277.544C186.807 277.568 186.896 277.574 186.982 277.563C187.069 277.551 187.153 277.522 187.228 277.476C187.313 277.433 187.388 277.371 187.447 277.294C187.506 277.218 187.546 277.13 187.566 277.035L187.954 277.143C187.907 277.358 187.795 277.554 187.633 277.703C187.471 277.852 187.267 277.949 187.049 277.978C186.831 278.008 186.609 277.971 186.413 277.87C186.217 277.77 186.056 277.612 185.953 277.417L185.937 277.439Z" fill="white"/>
<path d="M187.604 275.517L188.034 275.35L188.744 277.217L188.314 277.384L187.604 275.517Z" fill="white"/>
<path d="M188.754 276.119C188.692 275.915 188.693 275.696 188.756 275.492C188.819 275.288 188.941 275.107 189.108 274.973C189.274 274.838 189.476 274.756 189.689 274.738C189.902 274.719 190.116 274.764 190.303 274.867C190.49 274.97 190.643 275.127 190.74 275.317C190.838 275.507 190.877 275.722 190.852 275.934C190.828 276.146 190.74 276.346 190.601 276.509C190.462 276.671 190.278 276.788 190.072 276.846C189.938 276.888 189.796 276.903 189.656 276.889C189.516 276.875 189.38 276.833 189.257 276.765C189.134 276.697 189.026 276.605 188.939 276.494C188.853 276.383 188.79 276.256 188.754 276.119ZM190.421 275.689C190.388 275.571 190.321 275.466 190.227 275.386C190.134 275.306 190.02 275.255 189.898 275.24C189.776 275.225 189.653 275.246 189.543 275.301C189.433 275.355 189.342 275.441 189.281 275.548C189.219 275.654 189.191 275.776 189.198 275.898C189.206 276.021 189.25 276.138 189.324 276.236C189.398 276.334 189.499 276.407 189.615 276.448C189.731 276.489 189.856 276.494 189.975 276.464C190.056 276.445 190.133 276.41 190.2 276.361C190.267 276.311 190.324 276.248 190.366 276.176C190.407 276.104 190.434 276.024 190.444 275.941C190.453 275.858 190.446 275.774 190.421 275.695V275.689Z" fill="white"/>
<path d="M191.283 275.636L191.148 274.528L191.605 274.474L191.735 275.55C191.783 275.926 191.966 276.088 192.24 276.029C192.514 275.97 192.665 275.824 192.622 275.448L192.493 274.372L192.945 274.313L193.074 275.426C193.096 275.548 193.093 275.673 193.066 275.793C193.038 275.914 192.986 276.027 192.912 276.127C192.839 276.226 192.746 276.31 192.639 276.372C192.532 276.434 192.413 276.473 192.29 276.488C192.167 276.502 192.043 276.491 191.925 276.455C191.806 276.42 191.696 276.36 191.602 276.28C191.508 276.2 191.43 276.102 191.376 275.991C191.321 275.88 191.289 275.76 191.283 275.636Z" fill="white"/>
<path d="M193.412 276.082L193.568 275.732C193.762 275.864 193.991 275.933 194.224 275.931C194.499 275.931 194.612 275.835 194.606 275.716C194.606 275.34 193.45 275.614 193.439 274.872C193.439 274.533 193.703 274.248 194.273 274.243C194.515 274.234 194.755 274.292 194.967 274.409L194.827 274.759C194.663 274.665 194.478 274.613 194.289 274.608C194.015 274.608 193.913 274.716 193.913 274.845C193.913 275.211 195.074 274.942 195.085 275.673C195.085 276.007 194.811 276.297 194.246 276.303C193.952 276.318 193.66 276.24 193.412 276.082Z" fill="white"/>
<path d="M196.452 274.362L197.345 274.529C197.481 274.544 197.613 274.587 197.732 274.656C197.851 274.724 197.955 274.816 198.036 274.927C198.118 275.037 198.176 275.163 198.207 275.296C198.239 275.43 198.242 275.569 198.217 275.704C198.192 275.839 198.14 275.967 198.063 276.081C197.987 276.195 197.888 276.292 197.772 276.366C197.657 276.44 197.527 276.489 197.391 276.511C197.256 276.532 197.117 276.526 196.984 276.492L196.092 276.331L196.452 274.362ZM197.027 276.115C197.111 276.14 197.199 276.146 197.285 276.135C197.372 276.123 197.455 276.093 197.529 276.047C197.603 276.002 197.667 275.941 197.716 275.869C197.765 275.797 197.799 275.716 197.815 275.63C197.831 275.544 197.828 275.456 197.808 275.371C197.788 275.286 197.75 275.207 197.697 275.138C197.644 275.068 197.578 275.011 197.501 274.969C197.425 274.927 197.34 274.902 197.253 274.895L196.839 274.819L196.613 276.04L197.027 276.115Z" fill="white"/>
<path d="M198.554 275.792C198.624 275.59 198.752 275.413 198.923 275.284C199.093 275.156 199.298 275.081 199.511 275.069C199.725 275.057 199.937 275.109 200.12 275.218C200.304 275.327 200.451 275.489 200.543 275.682C200.634 275.875 200.666 276.091 200.635 276.302C200.603 276.513 200.509 276.711 200.365 276.868C200.221 277.026 200.033 277.137 199.825 277.188C199.618 277.239 199.4 277.226 199.199 277.152C199.065 277.109 198.941 277.039 198.835 276.946C198.729 276.853 198.643 276.739 198.582 276.612C198.522 276.484 198.488 276.346 198.483 276.205C198.478 276.064 198.502 275.923 198.554 275.792ZM200.167 276.416C200.208 276.3 200.215 276.175 200.185 276.056C200.156 275.938 200.092 275.83 200.002 275.747C199.912 275.664 199.799 275.61 199.678 275.591C199.557 275.571 199.433 275.588 199.322 275.638C199.21 275.689 199.116 275.771 199.051 275.875C198.986 275.979 198.953 276.099 198.956 276.222C198.959 276.344 198.998 276.463 199.068 276.564C199.138 276.664 199.236 276.742 199.35 276.787C199.427 276.817 199.51 276.832 199.593 276.83C199.676 276.828 199.757 276.809 199.833 276.774C199.908 276.739 199.976 276.69 200.032 276.628C200.087 276.566 200.13 276.494 200.157 276.416H200.167Z" fill="white"/>
<path d="M203.062 276.944L201.986 278.627L201.669 278.423L201.475 276.869L200.83 277.89L200.442 277.648L201.518 275.965L201.841 276.169L202.029 277.718L202.674 276.696L203.062 276.944Z" fill="white"/>
<path d="M202.878 278.213L203.642 277.396L203.981 277.708L203.228 278.515C202.969 278.794 202.986 279.02 203.19 279.208C203.394 279.397 203.62 279.397 203.878 279.122L204.631 278.316L204.965 278.628L204.223 279.461C204.142 279.548 204.045 279.618 203.937 279.667C203.829 279.717 203.712 279.744 203.593 279.749C203.475 279.753 203.357 279.734 203.245 279.692C203.134 279.651 203.032 279.588 202.945 279.507C202.858 279.426 202.788 279.329 202.739 279.221C202.69 279.113 202.662 278.996 202.658 278.878C202.654 278.759 202.673 278.641 202.714 278.53C202.756 278.418 202.819 278.316 202.9 278.23L202.878 278.213Z" fill="white"/>
<path d="M205.349 279.664L204.951 279.164L205.241 278.933L206.317 280.288L206.021 280.519L205.623 280.025L204.359 281.036L204.074 280.675L205.349 279.664Z" fill="white"/>
<path d="M204.933 281.438L205.315 281.384C205.303 281.62 205.361 281.854 205.482 282.057C205.627 282.288 205.762 282.331 205.869 282.266C206.186 282.073 205.358 281.223 205.987 280.83C206.272 280.653 206.66 280.734 206.956 281.218C207.088 281.422 207.162 281.658 207.171 281.901L206.8 281.965C206.792 281.775 206.737 281.59 206.638 281.427C206.498 281.196 206.353 281.158 206.246 281.223C205.934 281.417 206.783 282.272 206.138 282.659C205.858 282.831 205.471 282.745 205.17 282.261C205.009 282.017 204.926 281.73 204.933 281.438Z" fill="white"/>
<path d="M207.526 288.066C207.483 288.099 207.436 288.124 207.386 288.142L206.929 288.346V288.308C206.922 289.022 206.828 289.732 206.649 290.422C206.359 291.547 205.873 292.613 205.213 293.569C204.368 294.822 203.268 295.883 201.986 296.683C200.484 297.598 198.798 298.17 197.048 298.356C194.971 298.586 192.868 298.347 190.895 297.656C189.293 297.086 187.789 296.272 186.436 295.241C185.527 294.552 184.685 293.78 183.919 292.934C183.65 292.633 183.446 292.396 183.317 292.224C183.246 292.142 183.183 292.054 183.129 291.96C183.129 291.96 183.435 292.283 183.995 292.859C184.786 293.667 185.642 294.41 186.555 295.08C187.903 296.074 189.394 296.859 190.976 297.409C192.915 298.078 194.978 298.305 197.016 298.076C198.728 297.896 200.38 297.346 201.857 296.462C203.118 295.691 204.204 294.665 205.046 293.45C205.706 292.519 206.202 291.482 206.515 290.385C206.701 289.708 206.82 289.014 206.87 288.314V288.287L207.337 288.12C207.395 288.088 207.46 288.07 207.526 288.066Z" fill="white"/>
<path d="M147.372 321.897C147.307 321.854 149.485 318.573 152.239 314.566C154.993 310.559 157.268 307.343 157.333 307.391C157.397 307.44 155.219 310.715 152.465 314.722C149.711 318.729 147.436 321.951 147.372 321.897Z" fill="white"/>
<path d="M151.917 328.517C151.853 328.469 155.177 323.73 159.345 317.932C163.513 312.134 166.94 307.466 166.999 307.514C167.058 307.562 163.739 312.295 159.571 318.094C155.403 323.892 151.976 328.56 151.917 328.517Z" fill="white"/>
<path d="M176.459 307.391C176.518 307.434 173.355 312.199 169.391 318.03C165.427 323.86 162.157 328.561 162.092 328.518C162.028 328.475 165.19 323.71 169.16 317.874C173.129 312.038 176.394 307.343 176.459 307.391Z" fill="white"/>
<path d="M188.087 307.515C188.05 307.596 188.003 307.672 187.947 307.741L187.506 308.354L185.86 310.591C184.478 312.479 182.606 315.126 180.557 318.057C178.508 320.988 176.609 323.618 175.178 325.485C174.468 326.415 173.882 327.163 173.463 327.668C173.269 327.9 173.113 328.093 172.978 328.249C172.844 328.405 172.806 328.448 172.796 328.443C172.833 328.362 172.88 328.286 172.935 328.217L173.376 327.604C173.791 327.039 174.345 326.281 175.022 325.366C176.405 323.473 178.276 320.827 180.326 317.895C182.375 314.964 184.273 312.334 185.704 310.473C186.419 309.537 187.006 308.79 187.42 308.284L187.904 307.703C187.957 307.633 188.018 307.57 188.087 307.515Z" fill="white"/>
<path d="M201.229 307.375C201.19 307.454 201.143 307.528 201.089 307.596L200.653 308.209C200.271 308.747 199.723 309.5 199.04 310.447C197.695 312.345 195.931 315.029 194.016 318.025C192.101 321.021 190.31 323.694 188.922 325.555C188.229 326.491 187.653 327.238 187.239 327.744L186.76 328.325C186.71 328.395 186.65 328.459 186.583 328.513C186.583 328.513 186.62 328.433 186.717 328.287L187.153 327.68C187.54 327.142 188.089 326.389 188.766 325.442C190.111 323.543 191.875 320.854 193.785 317.864C195.694 314.873 197.496 312.195 198.884 310.334C199.577 309.398 200.147 308.645 200.562 308.145L201.04 307.564C201.159 307.429 201.218 307.37 201.229 307.375Z" fill="white"/>
<path d="M214.981 307.653C214.981 307.653 214.943 307.734 214.847 307.874L214.416 308.482C214.034 309.019 213.491 309.756 212.803 310.698C211.474 312.58 209.726 315.237 207.833 318.228C205.94 321.218 204.159 323.843 202.783 325.698C202.094 326.623 201.529 327.366 201.121 327.85L200.647 328.42C200.534 328.549 200.475 328.613 200.464 328.608C200.499 328.529 200.545 328.455 200.599 328.388L201.029 327.78C201.416 327.242 201.96 326.505 202.643 325.564C203.977 323.681 205.725 321.024 207.618 318.034C209.511 315.043 211.291 312.419 212.663 310.568C213.351 309.638 213.921 308.896 214.33 308.417L214.804 307.842C214.854 307.771 214.914 307.708 214.981 307.653Z" fill="white"/>
<path d="M225.474 309.102C225.533 309.145 222.591 313.512 218.896 318.853C215.201 324.194 212.151 328.486 212.092 328.443C212.033 328.4 214.969 324.032 218.664 318.692C222.36 313.351 225.409 309.042 225.474 309.102Z" fill="white"/>
<g opacity="0.3">
<path d="M179.697 307.391V328.571L225.474 328.254V307.181L179.697 307.391Z" fill="black"/>
</g>
<defs>
<linearGradient id="paint0_linear_0_568" x1="145" y1="0" x2="145" y2="279.593" gradientUnits="userSpaceOnUse">
<stop stop-color="#FFECDB"/>
<stop offset="1" stop-color="#FFF1E6" stop-opacity="0"/>
</linearGradient>
</defs>
</svg>
