<svg width="990" height="1326" viewBox="0 0 990 1326" fill="none" xmlns="http://www.w3.org/2000/svg">
<path d="M0 495C0 221.619 221.619 0 495 0C768.381 0 990 221.619 990 495V1326H0V495Z" fill="url(#paint0_linear_287_732)"/>
<path d="M163.541 621.487L166.674 614.416C193.107 554.821 249.466 513.682 313.906 509.488C322.203 508.948 330.529 509.017 338.816 509.693C398.564 514.658 454.804 552.099 483.034 605.719C499.624 637.237 507.978 674.918 534.771 698.167C569.645 728.452 621.484 722.854 666.766 715.595C712.049 708.337 763.939 702.858 798.59 733.297C820.35 752.369 830.314 782.175 832.505 811.176C838.275 887.96 793.917 962.997 730.692 1005.61C667.468 1048.22 588.288 1061.49 512.412 1056.1C406.097 1048.56 300.124 1003.9 229.539 922.919C158.953 841.941 128.479 723.214 163.541 621.487Z" fill="#FFECDC"/>
<path d="M808.981 1053.41C827.399 1053.41 842.33 1038.48 842.33 1020.06C842.33 1001.65 827.399 986.715 808.981 986.715C790.562 986.715 775.631 1001.65 775.631 1020.06C775.631 1038.48 790.562 1053.41 808.981 1053.41Z" fill="#FFEFE2"/>
<path d="M692.275 420.221L693.561 421.87L694.798 420.184L730.529 371.458L736.495 432.38L736.698 434.46L738.645 433.699L786.836 414.854L758.529 463.67L757.741 465.027L759.093 465.825L807.737 494.522L744.671 504.451L743.017 504.712L743.371 506.348L755.532 562.462L699.424 523.461L698.353 522.717L697.419 523.626L652.497 567.341L644.515 511.763L644.278 510.115L642.644 510.437L588.441 521.118L621.113 478.244L621.843 477.286L621.113 476.328L588.155 433.045L640.722 434.816L642.128 434.864L642.339 433.473L652.162 368.779L692.275 420.221Z" fill="#FFE5CF" stroke="#FFC18B" stroke-width="3.16256"/>
<path d="M725.4 462.606C724.837 458.354 722.978 454.378 720.076 451.221C717.365 448.009 713.711 445.732 709.633 444.715C706.156 443.934 702.518 444.319 699.282 445.81C696.046 447.301 693.39 449.816 691.725 452.967C690.022 449.978 687.411 447.61 684.271 446.207C681.131 444.803 677.625 444.436 674.263 445.16C670.175 446.142 666.498 448.381 663.751 451.563C660.814 454.689 658.918 458.649 658.324 462.897C657.642 468.319 658.723 473.817 661.406 478.579C664.534 483.4 668.765 487.408 673.749 490.272C681.83 495.185 692.478 501.365 692.478 501.365C692.478 501.365 701.535 494.654 709.684 489.826C714.698 487.012 718.97 483.045 722.147 478.253C724.879 473.52 726.019 468.035 725.4 462.606Z" fill="#FF4F81"/>
<path d="M569.392 490.237C569.392 496.248 564.519 501.12 558.508 501.12C552.498 501.12 547.625 496.248 547.625 490.237C547.625 484.226 552.498 479.353 558.508 479.353C564.519 479.353 569.392 484.226 569.392 490.237Z" fill="#FFE5CF" stroke="#FFC18B" stroke-width="3.16"/>
<path d="M498.418 512.02C503.931 498.513 497.46 482.078 485.75 473.346C474.04 464.615 458.358 462.646 443.925 464.786C429.493 466.926 415.849 472.97 402.546 478.842C396.502 472.688 388.868 468.333 380.495 466.261C372.121 464.188 363.337 464.481 355.121 467.106C346.904 469.731 339.577 474.585 333.955 481.127C328.334 487.67 324.638 495.644 323.281 504.162C318.059 502.776 312.558 502.845 307.373 504.362C302.188 505.88 297.517 508.787 293.866 512.769C290.215 516.751 287.724 521.657 286.662 526.954C285.601 532.251 286.009 537.738 287.842 542.819L353.018 566.205L423.553 692.174C444.302 710.099 478.422 709.842 498.881 691.592C519.339 673.342 523.499 639.479 508.04 616.829C512.058 613.293 515.47 609.124 518.141 604.486C529.508 597.638 538.411 586.732 541.441 573.67C547.844 546.175 526.41 515.496 498.418 512.02Z" fill="#263238"/>
<path d="M453.394 773.423C449.473 752.879 446.734 738.961 446.768 739.098C446.803 739.235 485.391 724.357 483.08 670.618C481.933 643.842 472.003 601.59 462.758 567.281C454.438 536.465 425.916 502.225 395.425 511.864L303.097 556.119C293.835 559.03 292.158 567.709 294.28 577.194L294.383 581.799L329.239 730.212L343.946 796.535C347.096 810.141 355.221 822.076 366.723 829.995C378.226 837.915 392.274 841.247 406.108 839.335C413.624 838.293 420.848 835.733 427.344 831.811C433.839 827.89 439.469 822.689 443.892 816.524C448.314 810.359 451.437 803.359 453.071 795.95C454.704 788.541 454.814 780.876 453.394 773.423Z" fill="#FFBF9D"/>
<path d="M454.425 619.46C454.79 621.209 454.457 623.03 453.497 624.536C452.538 626.043 451.028 627.115 449.289 627.524C448.453 627.764 447.577 627.835 446.713 627.732C445.849 627.629 445.014 627.354 444.258 626.923C443.501 626.492 442.839 625.914 442.309 625.224C441.78 624.533 441.394 623.743 441.174 622.901C440.81 621.153 441.143 619.331 442.102 617.825C443.062 616.319 444.572 615.247 446.31 614.838C447.147 614.602 448.022 614.535 448.884 614.64C449.747 614.745 450.58 615.021 451.335 615.451C452.09 615.881 452.752 616.457 453.283 617.145C453.813 617.834 454.202 618.62 454.425 619.46Z" fill="#263238"/>
<path d="M457.418 596.697C456.767 597.724 450.929 594.985 443.722 596.492C436.514 597.998 431.994 602.638 431.036 601.919C430.573 601.611 431.036 599.864 433.056 597.724C435.727 594.925 439.203 593.028 443.003 592.297C446.739 591.522 450.626 591.96 454.096 593.547C456.681 594.797 457.743 596.218 457.418 596.697Z" fill="#263238"/>
<path d="M391.626 630.217C391.991 631.965 391.658 633.786 390.698 635.293C389.739 636.799 388.229 637.871 386.49 638.28C385.653 638.518 384.776 638.586 383.912 638.481C383.048 638.376 382.213 638.099 381.457 637.667C380.702 637.234 380.04 636.656 379.51 635.964C378.981 635.273 378.595 634.483 378.376 633.641C378.011 631.892 378.344 630.071 379.304 628.564C380.263 627.058 381.773 625.986 383.512 625.577C384.349 625.339 385.226 625.271 386.09 625.376C386.954 625.482 387.789 625.758 388.545 626.191C389.3 626.623 389.962 627.201 390.492 627.893C391.021 628.584 391.407 629.374 391.626 630.217Z" fill="#263238"/>
<path d="M388.421 609.191C387.771 610.235 381.933 607.479 374.725 608.985C367.518 610.492 362.998 615.148 362.04 614.412C361.577 614.104 362.04 612.358 364.06 610.218C366.729 607.426 370.198 605.53 373.989 604.791C377.732 604.023 381.622 604.46 385.1 606.041C387.668 607.359 388.747 608.78 388.421 609.191Z" fill="#263238"/>
<path d="M424.511 654.958C424.391 654.564 428.723 652.886 435.776 650.473C437.574 649.908 439.2 649.206 439.303 647.887C439.406 646.569 438.293 644.635 436.957 642.751L428.689 629.74C417.098 611.353 408.316 596.082 409.052 595.62C409.788 595.158 419.803 609.693 431.308 628.148C434.116 632.713 436.803 637.056 439.371 641.176C440.484 643.111 442.162 645.251 441.785 648.196C441.649 648.896 441.354 649.557 440.924 650.126C440.494 650.696 439.94 651.16 439.303 651.483C438.343 651.971 437.325 652.334 436.273 652.561C429.151 654.41 424.631 655.42 424.511 654.958Z" fill="#263238"/>
<path d="M446.766 739.102C422.289 744.466 396.803 742.925 373.15 734.65C373.15 734.65 398.231 767.88 449.42 752.404L446.766 739.102Z" fill="#7F594B"/>
<path d="M384.505 589.729C384.025 591.801 376.63 591.698 368.189 593.718C359.749 595.738 353.107 598.854 351.754 597.142C351.155 596.355 352.148 594.352 354.716 592.109C358.165 589.321 362.205 587.358 366.528 586.37C370.851 585.382 375.343 585.395 379.66 586.408C382.947 587.384 384.71 588.753 384.505 589.729Z" fill="#263238"/>
<path d="M453.357 575.638C452.193 577.59 445.995 577.076 438.925 578.429C431.854 579.781 426.119 582.178 424.407 580.74C423.637 580.038 424.236 578.206 426.53 576.134C429.722 573.442 433.586 571.667 437.709 570.998C441.773 570.204 445.976 570.535 449.864 571.957C452.706 573.241 453.905 574.713 453.357 575.638Z" fill="#263238"/>
<path d="M325.954 521.663C326.984 526.912 329.159 531.869 332.324 536.182C335.488 540.495 339.565 544.057 344.263 546.615C348.96 549.173 354.164 550.665 359.504 550.983C364.844 551.301 370.188 550.438 375.157 548.456C382.826 545.391 390.753 539.622 398.508 542.481C406.657 545.494 409.157 556.365 416.707 560.662C427.509 566.791 440.675 556.365 453.001 557.495C462.554 558.351 469.916 565.833 477.363 571.893C484.81 577.953 495.151 583.021 503.642 578.536C501.434 570.558 499.208 562.477 495.236 555.201C491.264 547.925 485.341 541.419 477.637 538.355C473.425 536.643 468.786 536.061 464.763 533.955C456.066 529.418 452.231 519.249 445.931 511.699C441.792 506.899 436.57 503.153 430.696 500.771C424.822 498.39 418.466 497.441 412.153 498.003C401.693 499.013 391.729 504.218 381.217 503.704C373.462 503.327 366.032 499.818 358.259 499.903C343.108 500.057 331.655 513.24 323.163 525.789" fill="#263238"/>
<path d="M376.867 533.047C370.019 532.499 355.724 530.941 351.067 525.976C340.983 515.19 325.866 509.472 312.29 512.965C305.302 514.953 299.145 519.148 294.738 524.925C290.332 530.701 287.913 537.749 287.843 545.013C271.254 548.437 257.147 562.133 252.336 579.442C250.022 588.234 249.882 597.457 251.928 606.316C253.974 615.174 258.145 623.402 264.08 630.288C266.961 633.95 269.587 637.805 271.938 641.827C268.636 645.874 265.724 650.225 263.241 654.821C252.045 679.2 281.971 688.753 281.971 688.753C281.971 705.188 297.088 705.222 306.812 705.222C316.159 705.222 321.74 731.193 329.308 730.235L322.083 650.147C323.209 650.577 324.404 650.798 325.61 650.798C343.945 651.243 339.306 616.558 333.502 607.553C338.638 600.705 343.979 593.651 347.386 585.536C350.793 577.422 351.136 557.049 348.328 548.489C354.731 547.564 379.846 533.303 376.867 533.047Z" fill="#263238"/>
<path d="M324.792 654.39C322.001 643.416 308.425 638.434 299.933 645.83C295.26 649.939 292.452 656.89 295.294 668.583C302.895 699.741 332.616 685.703 332.461 684.778C332.359 684.299 328.044 667.265 324.792 654.39Z" fill="#FFBF9D"/>
<path d="M320.042 675.381C319.888 675.381 319.597 675.895 318.775 676.545C317.622 677.408 316.18 677.789 314.752 677.607C311.156 677.213 307.116 672.659 305.592 667.078C304.861 664.424 304.732 661.639 305.216 658.929C305.268 657.888 305.575 656.875 306.11 655.98C306.644 655.085 307.389 654.334 308.28 653.793C308.862 653.473 309.537 653.368 310.188 653.496C310.84 653.625 311.425 653.978 311.841 654.495C312.475 655.265 312.44 655.933 312.612 655.95C312.783 655.967 313.159 655.265 312.612 654.033C312.254 653.283 311.649 652.679 310.9 652.321C310.395 652.112 309.854 652.004 309.307 652.004C308.761 652.004 308.22 652.112 307.715 652.321C305.353 653.074 303.726 655.745 303.213 658.535C302.54 661.556 302.623 664.696 303.452 667.677C305.164 673.909 309.838 679.011 314.649 679.199C315.543 679.243 316.436 679.084 317.26 678.734C318.084 678.384 318.818 677.853 319.408 677.179C320.179 676.152 320.179 675.416 320.042 675.381Z" fill="#7F594B"/>
<path d="M269.762 594.898C269.217 594.684 268.705 594.396 268.238 594.042C266.846 593.093 265.513 592.058 264.249 590.943C259.514 586.855 255.887 581.638 253.703 575.775C252.236 571.67 251.709 567.288 252.163 562.952C252.629 557.925 254.537 553.139 257.658 549.171C259.394 546.968 261.55 545.131 264.001 543.768C266.452 542.404 269.149 541.54 271.936 541.227C274.942 540.805 278.004 541.083 280.885 542.039C283.765 542.995 286.386 544.604 288.543 546.74L287.173 547.681L287.019 547.356C281.729 536.519 280.171 524.141 283.835 514.092C287.498 504.042 295.339 496.972 303.18 495.26C306.245 494.489 309.434 494.341 312.558 494.827C315.681 495.312 318.675 496.42 321.362 498.085C322.802 498.99 324.105 500.097 325.231 501.372C325.634 501.81 325.98 502.3 326.258 502.827C324.686 501.224 322.927 499.815 321.019 498.632C315.687 495.622 309.386 494.823 303.471 496.407C296.093 498.307 288.543 505.052 285.307 514.691C282.071 524.33 283.389 536.177 288.543 546.705L288.697 547.031L290.905 551.739L287.327 547.972C285.345 546.03 282.944 544.569 280.308 543.699C277.673 542.829 274.873 542.575 272.125 542.956C269.543 543.231 267.042 544.014 264.765 545.259C262.488 546.505 260.48 548.189 258.857 550.215C255.899 553.955 254.054 558.452 253.532 563.192C253.053 567.329 253.497 571.522 254.833 575.467C256.864 581.212 260.246 586.385 264.694 590.55C267.81 593.46 269.865 594.778 269.762 594.898Z" fill="#263238"/>
<path d="M405.187 668.396C404.265 672.214 404.108 676.177 404.724 680.055C405.045 681.991 405.754 683.842 406.811 685.496C407.867 687.15 409.248 688.572 410.871 689.677C414.293 691.589 418.321 692.11 422.118 691.132H422.238C424.541 690.579 426.601 689.291 428.105 687.462C429.61 685.633 430.477 683.363 430.576 680.997L431.055 670.964C424.07 670.365 412.155 668.979 405.187 668.396Z" fill="#7F594B"/>
<path d="M430.28 686.886C430.28 687.006 429.51 687.537 428.123 688.598C427.261 689.28 426.357 689.909 425.418 690.481C424.101 691.188 422.679 691.68 421.207 691.937C419.431 692.285 417.611 692.355 415.814 692.142C413.7 691.92 411.673 691.185 409.908 690.002C407.977 688.543 406.399 686.668 405.291 684.517C404.183 682.365 403.572 679.992 403.505 677.573C403.337 674.427 403.62 671.274 404.344 668.208L404.498 667.455H405.251C412.715 668.243 419.17 668.996 423.758 669.595C426.226 669.764 428.67 670.189 431.051 670.862C428.592 671.054 426.12 670.997 423.672 670.691C419.05 670.383 412.578 669.852 405.114 669.184L406.021 668.499C405.384 671.416 405.131 674.403 405.268 677.385C405.328 679.544 405.859 681.665 406.823 683.599C407.787 685.533 409.161 687.233 410.849 688.581C413.855 690.516 417.481 691.244 421.001 690.618C422.369 690.465 423.704 690.095 424.956 689.523C426.052 689.009 426.959 688.393 427.73 687.948C428.494 687.415 429.364 687.053 430.28 686.886Z" fill="#263238"/>
<path d="M404.259 655.42C402.442 653.282 400.405 651.343 398.181 649.633C395.72 647.856 392.992 646.481 390.1 645.559C386.581 644.394 382.854 643.992 379.168 644.378C375.481 644.765 371.919 645.932 368.718 647.801C366.082 649.298 363.705 651.212 361.681 653.468C359.865 655.582 358.27 657.877 356.922 660.316C357.118 659.578 357.399 658.866 357.761 658.193C358.681 656.344 359.831 654.618 361.185 653.057C364.624 648.889 369.249 645.864 374.447 644.384C379.645 642.904 385.169 643.039 390.289 644.771C393.244 645.756 396.016 647.226 398.489 649.12C400.142 650.393 401.631 651.865 402.923 653.502C403.451 654.08 403.9 654.725 404.259 655.42Z" fill="#7F594B"/>
<path d="M405.187 668.396C404.265 672.214 404.108 676.177 404.724 680.055C405.045 681.991 405.754 683.842 406.811 685.496C407.867 687.15 409.248 688.572 410.871 689.677C414.293 691.589 418.321 692.11 422.118 691.132H422.238C424.541 690.579 426.601 689.291 428.105 687.462C429.61 685.633 430.477 683.363 430.576 680.997L431.055 670.964C424.07 670.365 412.155 668.979 405.187 668.396Z" fill="#7F594B"/>
<path d="M430.28 686.886C430.28 687.006 429.51 687.537 428.123 688.598C427.261 689.28 426.357 689.909 425.418 690.481C424.101 691.188 422.679 691.68 421.207 691.937C419.431 692.285 417.611 692.355 415.814 692.142C413.7 691.92 411.673 691.185 409.908 690.002C407.977 688.543 406.399 686.668 405.291 684.517C404.183 682.365 403.572 679.992 403.505 677.573C403.337 674.427 403.62 671.274 404.344 668.208L404.498 667.455H405.251C412.715 668.243 419.17 668.996 423.758 669.595C426.226 669.764 428.67 670.189 431.051 670.862C428.592 671.054 426.12 670.997 423.672 670.691C419.05 670.383 412.578 669.852 405.114 669.184L406.021 668.499C405.384 671.416 405.131 674.403 405.268 677.385C405.328 679.544 405.859 681.665 406.823 683.599C407.787 685.533 409.161 687.233 410.849 688.581C413.855 690.516 417.481 691.244 421.001 690.618C422.369 690.465 423.704 690.095 424.956 689.523C426.052 689.009 426.959 688.393 427.73 687.948C428.494 687.415 429.364 687.053 430.28 686.886Z" fill="#263238"/>
<path d="M404.259 655.42C402.442 653.282 400.405 651.343 398.181 649.633C395.72 647.856 392.992 646.481 390.1 645.559C386.581 644.394 382.854 643.992 379.168 644.378C375.481 644.765 371.919 645.932 368.718 647.801C366.082 649.298 363.705 651.212 361.681 653.468C359.865 655.582 358.27 657.877 356.922 660.316C357.118 659.578 357.399 658.866 357.761 658.193C358.681 656.344 359.831 654.618 361.185 653.057C364.624 648.889 369.249 645.864 374.447 644.384C379.645 642.904 385.169 643.039 390.289 644.771C393.244 645.756 396.016 647.226 398.489 649.12C400.142 650.393 401.631 651.865 402.923 653.502C403.451 654.08 403.9 654.725 404.259 655.42Z" fill="#7F594B"/>
<path d="M304.395 684.627C303.156 685.365 302.007 686.244 300.971 687.247C298.342 690.262 296.694 694.006 296.246 697.981C295.818 700.692 295.876 703.457 296.417 706.147C297.066 709.218 298.493 712.071 300.56 714.433C302.893 717.039 305.833 719.027 309.12 720.22C312.581 721.598 316.378 721.89 320.009 721.059C323.641 720.246 326.96 718.396 329.562 715.734C331.983 713.25 333.672 710.146 334.441 706.763C335.155 703.911 335.257 700.94 334.741 698.045C334.224 695.151 333.101 692.398 331.445 689.969C329.122 686.709 325.667 684.432 321.755 683.583C320.313 683.344 318.848 683.275 317.389 683.377C317.751 683.262 318.124 683.188 318.502 683.155C319.602 683.035 320.714 683.063 321.806 683.241C325.877 683.985 329.509 686.257 331.958 689.592C333.715 692.083 334.916 694.922 335.48 697.917C336.044 700.912 335.958 703.993 335.228 706.952C334.45 710.484 332.708 713.732 330.195 716.333C327.474 719.128 324.001 721.073 320.197 721.932C316.399 722.802 312.425 722.485 308.812 721.024C305.422 719.774 302.402 717.689 300.03 714.964C297.89 712.491 296.427 709.507 295.784 706.301C295.271 703.523 295.271 700.674 295.784 697.895C296.292 693.811 298.091 689.996 300.92 687.007C301.724 686.243 302.628 685.592 303.608 685.072C303.857 684.901 304.12 684.752 304.395 684.627Z" fill="#B75400"/>
<path d="M337.031 765.364L288.856 783.306L255.831 880.975L303.151 1044.73L275.296 1134.78H563.049L536.719 1056.03C540.913 1026.92 559.488 959.556 556.955 928.261C551.442 860.5 524.649 764.731 524.649 764.731L450.691 761.084C433.639 804.603 357.558 807.924 337.031 765.364Z" fill="#B75400"/>
<g opacity="0.3">
<path d="M435.077 787.652C435.077 787.652 435.454 788.44 436.139 789.792C439.443 796.315 449.749 815.952 457.487 822.081C466.835 829.494 478.134 839.201 478.134 839.201C489.142 910.574 510.85 972.309 540.827 1026.61L521.619 927.197L489.416 808.796L435.454 788.44" fill="black"/>
</g>
<g opacity="0.3">
<path d="M342.885 1040.86L281.818 1126.56C315.699 1118 347.628 1097.34 363.738 1066.32C365.638 1062.65 367.435 1058.78 370.586 1056.04C376.355 1050.91 384.71 1048.41 392.02 1046.06C414.755 1038.77 425.13 1030.91 433.519 1014.34C412.375 1041.29 374.283 1050.89 342.885 1040.86Z" fill="black"/>
</g>
<path d="M523.467 764.987C523.467 764.987 542.795 760.809 568.236 793.132C590.492 821.397 618.363 866.149 618.363 866.149L551.321 894.791L523.775 774.951L523.467 764.987Z" fill="#B75400"/>
<path d="M186.168 935.242C186.168 935.242 209.229 824.681 231.947 807.236C255.11 789.448 303.149 778.68 303.149 778.68L300.889 962.959L186.168 935.242Z" fill="#B75400"/>
<path d="M280.789 857.793C280.949 858.108 281.07 858.441 281.149 858.786C281.354 859.437 281.611 860.412 281.953 861.679C282.604 864.213 283.477 867.877 284.384 872.465C286.72 884.394 288.355 896.45 289.281 908.571C290.249 920.695 290.478 932.867 289.965 945.019C289.846 949.676 289.486 953.442 289.281 956.045C289.178 957.26 289.092 958.253 289.007 959.024C288.998 959.377 288.946 959.727 288.853 960.068C288.823 959.72 288.823 959.371 288.853 959.024C288.853 958.236 288.853 957.312 288.955 956.01C289.058 953.408 289.315 949.659 289.366 945.002C289.682 932.873 289.362 920.735 288.407 908.639C287.485 896.55 285.942 884.516 283.785 872.585C282.963 867.997 282.176 864.316 281.628 861.765C281.371 860.566 281.149 859.591 280.977 858.837C280.875 858.497 280.812 858.147 280.789 857.793Z" fill="#263238"/>
<path d="M450.11 966.605C450.151 966.952 450.151 967.303 450.11 967.65C450.11 968.335 450.11 969.362 450.11 970.663C449.993 974.355 449.575 978.03 448.86 981.654C446.59 993.71 441.409 1005.03 433.768 1014.63C426.126 1024.23 416.257 1031.81 405.016 1036.73C401.643 1038.23 398.157 1039.47 394.59 1040.43C393.323 1040.79 392.33 1040.96 391.662 1041.11C391.322 1041.21 390.971 1041.26 390.618 1041.28C390.934 1041.13 391.267 1041.01 391.611 1040.94C392.262 1040.72 393.323 1040.5 394.487 1040.08C397.998 1039.02 401.43 1037.71 404.759 1036.16C415.802 1031.13 425.498 1023.56 433.056 1014.07C440.613 1004.57 445.818 993.424 448.244 981.534C448.999 977.944 449.508 974.306 449.768 970.646C449.888 969.345 449.888 968.335 449.956 967.65C449.963 967.297 450.015 966.946 450.11 966.605Z" fill="#263238"/>
<path d="M281.372 870.269C280.531 869.768 279.735 869.195 278.992 868.557C277.503 867.427 275.311 865.835 272.572 863.935C265.428 858.973 257.933 854.539 250.145 850.667C242.337 846.831 234.257 843.575 225.971 840.925C222.804 839.915 220.202 839.213 218.404 838.649C217.461 838.422 216.534 838.131 215.631 837.775C216.597 837.873 217.553 838.051 218.49 838.306C220.322 838.7 222.941 839.385 226.16 840.326C234.541 842.809 242.697 845.999 250.539 849.862C258.375 853.746 265.871 858.282 272.949 863.421C275.636 865.407 277.776 867.068 279.197 868.3C279.975 868.896 280.702 869.554 281.372 870.269Z" fill="white"/>
<path d="M451.478 808.337C451.344 808.382 451.206 808.417 451.067 808.44L449.817 808.663L445.024 809.45L427.373 812.275C412.461 814.672 391.9 818.13 369.25 822.342C346.601 826.553 326.177 830.713 311.402 833.829L293.905 837.527L289.146 838.52L287.913 838.76H287.485C287.485 838.76 287.622 838.76 287.896 838.606L289.112 838.297L293.837 837.133C297.946 836.157 303.903 834.788 311.265 833.161C326.005 829.891 346.43 825.629 369.096 821.417C391.763 817.206 412.342 813.85 427.304 811.607C434.769 810.477 440.812 809.604 445.006 809.056L449.834 808.44L451.084 808.303C451.216 808.292 451.35 808.303 451.478 808.337Z" fill="white"/>
<path d="M566.572 794.088C566.761 794.242 561.625 800.354 555.119 807.784C548.613 815.214 543.135 820.983 542.998 820.829C546.584 816.075 550.407 811.504 554.451 807.133C558.268 802.583 562.314 798.229 566.572 794.088Z" fill="white"/>
<path d="M342.436 930.672L284.228 1001.53L285.289 958.732L201.795 939.009C201.795 939.009 201.436 962.977 201.607 1013.46C201.607 1026.92 205.561 1071.33 211.074 1091.96C218.179 1118.63 266.372 1142.65 293.456 1119.54C316.859 1099.56 393.265 949.401 393.265 949.401L342.436 930.672Z" fill="#FFBF9D"/>
<path d="M342.443 930.672C342.254 931.05 342.024 931.406 341.758 931.733C341.296 932.418 340.577 933.445 339.618 934.644C337.7 937.143 334.858 940.67 331.315 945.036C324.244 953.733 314.332 965.58 303.358 978.796L275.332 1012.51L266.926 1022.78L264.684 1025.6C264.429 1025.94 264.148 1026.25 263.845 1026.54C264.042 1026.17 264.271 1025.82 264.53 1025.48C265.077 1024.75 265.779 1023.77 266.652 1022.55C268.553 1020.06 271.343 1016.48 274.853 1012.09C281.855 1003.33 291.716 991.362 302.673 978.214L342.443 930.672Z" fill="#7F594B"/>
<path d="M459.969 842.219C459.969 842.219 448.773 847.851 447.694 860.862C446.616 873.874 447.694 907.223 447.694 907.223L467.006 904.758L459.969 842.219Z" fill="#DE9C78"/>
<path d="M458.32 874.557C457.892 867.349 456.608 859.988 453.064 853.739C450.049 848.871 446.077 844.666 441.388 841.378C436.147 837.385 430.289 834.274 424.046 832.168C415.434 829.339 406.23 828.824 397.356 830.675C388.483 832.525 380.252 836.676 373.489 842.711C366.725 848.746 361.667 856.453 358.822 865.059C355.977 873.665 355.444 882.868 357.278 891.745L357.158 891.249C357.158 891.626 357.312 891.985 357.38 892.362C357.449 892.738 357.466 892.773 357.517 892.978C360.119 905.116 363.989 914.994 373.559 923.195C379.859 928.588 388.094 931.104 396.226 932.696C408.706 935.162 422.248 935.624 433.581 929.837C443.069 924.667 450.366 916.239 454.125 906.109C457.792 896.019 459.223 885.254 458.32 874.557Z" fill="#22170F"/>
<path d="M457.333 866.967C458.155 873.643 454.235 880.029 451.786 886.312C450.211 890.37 448.362 894.735 444.579 896.892C441.805 898.467 438.313 898.604 435.762 900.539C433.639 902.097 432.441 904.665 430.284 906.189C425.148 909.801 417.615 905.983 412.017 908.774C410.381 909.782 408.835 910.927 407.394 912.198C406.663 912.813 405.806 913.262 404.884 913.513C403.961 913.765 402.995 913.812 402.053 913.653C399.861 913.071 398.629 910.811 396.626 909.647C394.178 908.174 391.113 908.568 388.271 908.5C383.7 908.312 379.277 906.826 375.521 904.216C371.764 901.605 368.829 897.978 367.059 893.759C367.059 893.759 362.488 899.409 360.211 897.183C358.689 895.553 357.62 893.552 357.113 891.38L357.233 891.876C355.399 882.999 355.932 873.796 358.777 865.19C361.623 856.584 366.68 848.877 373.444 842.842C380.207 836.807 388.438 832.656 397.311 830.806C406.185 828.955 415.389 829.47 424.001 832.299C430.244 834.405 436.102 837.516 441.343 841.509C446.032 844.796 450.004 849.002 453.019 853.87C455.289 857.916 456.754 862.364 457.333 866.967Z" fill="#FF4F81"/>
<g opacity="0.3">
<path d="M447.963 858.686C447.481 856.885 446.636 855.201 445.481 853.738C439.332 845.196 430.542 838.915 420.468 835.865C410.487 832.869 400.541 834.461 390.799 838.193C389.654 838.499 388.674 839.243 388.072 840.265C387.47 841.287 387.294 842.504 387.581 843.654C387.93 844.789 388.568 845.813 389.433 846.626C390.297 847.439 391.358 848.014 392.511 848.294C394.83 848.834 397.246 848.799 399.548 848.191C401.876 847.712 404.153 847.01 406.498 846.753C412.151 846.422 417.755 847.969 422.437 851.153C427.062 854.331 431.456 857.832 435.585 861.63C437.101 863.078 438.887 864.212 440.841 864.969C441.827 865.329 442.892 865.419 443.924 865.229C444.957 865.039 445.92 864.577 446.713 863.89C447.329 863.19 447.765 862.35 447.983 861.443C448.2 860.536 448.194 859.59 447.963 858.686Z" fill="white"/>
</g>
<g opacity="0.3">
<path d="M412.157 881.66C407.603 880.41 402.946 882.79 398.7 884.844C394.455 886.899 389.284 888.662 385.193 886.282C381.495 884.142 379.406 878.955 375.126 878.801C373.752 878.863 372.437 879.376 371.385 880.261C370.332 881.147 369.601 882.354 369.305 883.697C368.794 886.426 369.286 889.247 370.692 891.641C372.786 895.5 376.029 898.612 379.97 900.548C383.911 902.483 388.357 903.146 392.691 902.443C396.766 901.69 400.583 899.739 404.675 899.328C408.339 898.985 412.585 899.721 415.255 897.188C417.395 895.167 419.433 893.592 420.391 889.347C421.076 886.111 419.57 883.115 412.157 881.66Z" fill="white"/>
</g>
<g opacity="0.3">
<path d="M434.921 882.122C434.27 879.776 431.172 878.595 428.741 878.8H428.586C427.887 879.015 427.244 879.385 426.706 879.881C426.168 880.377 425.748 880.988 425.477 881.668C425.206 882.348 425.091 883.08 425.14 883.81C425.189 884.541 425.402 885.25 425.762 885.888C426.367 886.944 427.327 887.751 428.471 888.165C429.616 888.578 430.87 888.572 432.01 888.148C433.118 887.635 434.013 886.754 434.544 885.656C435.075 884.557 435.208 883.308 434.921 882.122Z" fill="white"/>
</g>
<g opacity="0.3">
<path d="M393.596 879.244C397.533 876.837 402.002 875.436 406.609 875.164C411.216 874.893 415.819 875.759 420.012 877.686C423.348 874.231 427.672 871.893 432.389 870.992C430.429 867.244 427.628 864.001 424.205 861.517C420.782 859.033 416.831 857.376 412.66 856.674C408.49 855.973 404.213 856.247 400.166 857.474C396.119 858.702 392.411 860.85 389.333 863.75C386.696 866.267 384.453 869.982 385.737 873.389C386.833 876.316 390.052 877.771 392.962 878.918" fill="black"/>
</g>
<path d="M440.094 871.438C438.006 871.101 435.889 870.98 433.777 871.078C431.471 871.314 429.233 871.994 427.186 873.081C424.628 874.48 422.183 876.077 419.875 877.858L419.67 877.978L419.43 877.892C418.235 877.452 417.018 877.075 415.784 876.762C412.531 875.938 409.162 875.671 405.82 875.974C403.088 876.242 400.401 876.858 397.825 877.806C393.408 879.518 390.977 881.11 390.874 880.956C391.401 880.498 391.975 880.096 392.586 879.758C394.228 878.774 395.946 877.921 397.722 877.207C400.328 876.16 403.063 875.469 405.854 875.153C409.295 874.795 412.772 875.044 416.126 875.889C417.401 876.219 418.658 876.613 419.892 877.07H419.464C421.824 875.274 424.333 873.682 426.963 872.311C429.098 871.234 431.426 870.594 433.811 870.428C435.397 870.349 436.987 870.487 438.536 870.838C439.079 870.972 439.602 871.173 440.094 871.438Z" fill="#263238"/>
<path d="M432.27 870.17C430.59 867.7 428.618 865.441 426.398 863.442C423.944 861.341 421.147 859.679 418.129 858.528C414.447 857.133 410.495 856.594 406.573 856.953C402.645 857.326 398.84 858.529 395.411 860.48C392.615 862.081 390.133 864.175 388.083 866.66C386.68 868.323 385.637 870.258 385.019 872.344C384.608 873.834 384.625 874.707 384.54 874.707C384.502 874.497 384.502 874.283 384.54 874.073C384.56 873.464 384.629 872.857 384.745 872.259C385.258 870.075 386.253 868.034 387.655 866.284C389.685 863.659 392.202 861.45 395.068 859.778C398.577 857.709 402.5 856.44 406.556 856.063C410.629 855.688 414.734 856.275 418.54 857.775C421.618 858.966 424.455 860.706 426.912 862.911C428.565 864.398 430.016 866.096 431.226 867.961C431.555 868.467 431.852 868.993 432.116 869.537C432.199 869.739 432.251 869.952 432.27 870.17Z" fill="#263238"/>
<path d="M366.097 889.276C365.921 888.58 365.812 887.869 365.772 887.153C365.56 885.214 365.463 883.265 365.481 881.315C365.491 878.411 365.697 875.511 366.097 872.635C367.089 865.565 369.205 858.699 372.363 852.297C373.653 849.696 375.117 847.185 376.746 844.781C377.827 843.16 379.005 841.605 380.272 840.124C380.699 839.548 381.194 839.025 381.745 838.566C381.882 838.669 379.913 840.997 377.276 845.14C375.735 847.557 374.346 850.067 373.116 852.656C371.613 855.828 370.331 859.1 369.281 862.449C368.26 865.815 367.47 869.247 366.919 872.721C366.481 875.556 366.213 878.414 366.114 881.281C365.96 886.228 366.268 889.259 366.097 889.276Z" fill="white"/>
<path d="M379.659 905.247C379.278 904.316 378.98 903.354 378.769 902.37C378.436 901.245 378.167 900.102 377.964 898.946C377.725 897.594 377.365 896.053 377.194 894.324C376.923 892.451 376.752 890.565 376.68 888.674C376.509 886.637 376.578 884.446 376.68 882.152C376.881 877.162 377.529 872.2 378.615 867.326C379.768 862.472 381.361 857.733 383.374 853.168C384.367 851.096 385.258 849.093 386.319 847.347C387.214 845.675 388.197 844.052 389.264 842.485C390.171 840.995 391.164 839.78 391.986 838.667C392.677 837.714 393.42 836.799 394.211 835.928C394.835 835.136 395.528 834.403 396.283 833.736C395.764 834.576 395.192 835.382 394.571 836.15C393.955 836.904 393.235 837.862 392.465 838.975C391.695 840.088 390.753 841.338 389.88 842.827C389.007 844.316 387.963 845.892 387.038 847.689C386.114 849.487 385.172 851.438 384.213 853.493C380.254 862.567 378.008 872.295 377.588 882.186C377.588 884.446 377.451 886.62 377.588 888.64C377.725 890.66 377.81 892.544 377.999 894.256C378.187 895.968 378.427 897.508 378.632 898.861C378.838 900.213 379.06 901.377 379.283 902.285C379.481 903.262 379.606 904.251 379.659 905.247Z" fill="white"/>
<path d="M398.608 910.263C397.783 908.968 397.149 907.561 396.725 906.086C395.51 902.59 394.745 898.955 394.448 895.266C394.137 891.579 394.304 887.868 394.944 884.224C395.121 882.702 395.519 881.214 396.125 879.807C396.022 881.317 395.833 882.82 395.56 884.309C395.126 887.922 395.051 891.57 395.338 895.198C395.64 898.822 396.305 902.406 397.324 905.898C397.831 907.328 398.26 908.786 398.608 910.263Z" fill="white"/>
<path d="M405.064 851.583C405.159 848.005 405.974 844.482 407.461 841.225C408.675 837.862 410.543 834.773 412.957 832.135C413.179 832.289 410.457 836.175 408.283 841.568C406.109 846.961 405.321 851.634 405.064 851.583Z" fill="white"/>
<path d="M423.173 857.79C422.69 854.574 422.876 851.292 423.721 848.152C424.282 844.941 425.487 841.878 427.265 839.146C427.522 839.266 425.707 843.187 424.594 848.34C423.481 853.493 423.447 857.79 423.173 857.79Z" fill="white"/>
<path d="M420.936 905.883C420.225 905.027 419.648 904.069 419.224 903.041C416.787 898.2 415.283 892.944 414.79 887.547C414.599 886.443 414.599 885.314 414.79 884.209C415.064 884.209 415.372 889.345 417.118 895.268C418.864 901.192 421.193 905.746 420.936 905.883Z" fill="white"/>
<path d="M444.196 852.641C444.045 853.402 443.821 854.147 443.528 854.866C442.982 856.885 442.609 858.947 442.415 861.029C442.167 864.127 442.093 867.237 442.193 870.343C442.362 874.184 442.287 878.032 441.97 881.864C441.784 883.859 441.405 885.831 440.84 887.754C440.577 888.692 440.24 889.608 439.83 890.493C439.593 890.947 439.274 891.353 438.889 891.691C438.673 891.869 438.424 892.001 438.156 892.08C437.889 892.16 437.608 892.185 437.331 892.154C436.389 891.897 435.584 891.282 435.088 890.442C434.557 889.774 434.078 889.106 433.616 888.456C432.79 887.242 432.041 885.979 431.373 884.672C430.414 882.775 429.651 880.784 429.096 878.731C428.853 877.995 428.709 877.229 428.668 876.454C429.551 879.177 430.644 881.828 431.938 884.381C432.626 885.648 433.393 886.872 434.232 888.045C434.677 888.661 435.156 889.312 435.687 889.945C436.218 890.579 436.766 891.229 437.399 891.315C438.033 891.4 438.666 890.801 439.111 890.048C439.486 889.217 439.795 888.359 440.036 887.48C440.577 885.601 440.938 883.675 441.114 881.727C441.428 877.935 441.525 874.129 441.405 870.326C441.343 867.187 441.48 864.048 441.816 860.927C442.073 858.817 442.549 856.74 443.237 854.729C443.483 854.001 443.804 853.301 444.196 852.641Z" fill="white"/>
<path d="M471.885 882.133L465.328 865.715C465.328 865.715 459.011 868.882 459.353 880.113C459.696 891.343 457.641 894.853 457.641 894.853C457.641 894.853 450.965 893.449 449.218 905.039C447.472 916.63 435.882 928.562 435.882 928.562L401.111 931.045C401.111 931.045 381.064 923.923 372.983 917.263C364.902 910.604 367.368 901.855 365.621 885.66C363.875 869.464 353.637 877.237 353.637 877.237C353.637 877.237 355.349 891.635 350.813 904.629C346.276 917.623 342.39 929.196 342.39 930.6L376.099 962.905C377.9 959.024 380.774 955.739 384.38 953.437C387.987 951.135 392.176 949.911 396.455 949.911C396.455 949.911 444.904 950.271 450.177 946.401C455.45 942.532 457.556 933.767 457.556 933.767C457.556 933.767 469.112 916.955 472.262 911.819C476.354 905.245 471.885 882.133 471.885 882.133Z" fill="#FFBF9D"/>
<path d="M455.896 895.839C455.896 895.839 455.998 895.719 456.255 895.547C456.66 895.344 457.103 895.228 457.556 895.205C458.392 895.205 459.216 895.403 459.96 895.784C460.705 896.166 461.348 896.718 461.836 897.396C463.091 899.513 463.558 902.005 463.154 904.433C462.932 907.086 462.641 909.98 462.298 912.993C461.754 918.184 460.856 923.332 459.611 928.401C459.114 930.352 458.618 931.91 458.241 932.972C458.078 933.534 457.848 934.074 457.556 934.581C457.419 934.581 458.155 932.167 458.994 928.247C460.058 923.155 460.863 918.012 461.408 912.839C461.733 909.808 462.059 906.915 462.333 904.279C462.748 902.031 462.392 899.708 461.323 897.687C460.904 897.056 460.347 896.528 459.695 896.142C459.042 895.757 458.311 895.524 457.556 895.462C456.989 895.515 456.431 895.642 455.896 895.839Z" fill="#7F594B"/>
<path d="M371.627 967.496C372.173 966.068 372.929 964.729 373.87 963.524C375.991 960.507 378.52 957.799 381.385 955.477C382.982 954.172 384.702 953.025 386.521 952.053C388.003 951.306 389.565 950.732 391.178 950.341C391.796 950.175 392.425 950.054 393.061 949.982C393.536 949.902 394.018 949.868 394.499 949.879C395.304 949.879 395.732 949.879 395.732 949.982C395.732 950.084 394.02 950.136 391.349 950.958C389.805 951.432 388.314 952.063 386.898 952.841C385.175 953.817 383.533 954.928 381.985 956.162C379.172 958.441 376.633 961.037 374.418 963.9C372.654 966.092 371.73 967.564 371.627 967.496Z" fill="#7F594B"/>
<path d="M512.544 680.325C515.666 681.682 518.421 683.759 520.585 686.387C522.748 689.015 524.258 692.118 524.991 695.442C527.747 706.981 522.868 714.822 517.355 719.992C512.219 724.854 488.251 747.778 469.522 749.969C450.793 752.16 439.048 753.958 426.722 744.97C415.748 736.958 416.741 720.112 426.722 711.295C436.703 702.478 459.798 689.039 471.559 682.431C483.321 675.822 501.844 672.809 512.544 680.325Z" fill="#22170F"/>
<path d="M515.544 687.946C515.15 689.93 514.261 691.782 512.959 693.33C511.657 694.877 509.984 696.07 508.096 696.797C504.142 698.235 499.536 699.314 497.431 702.994C496.13 705.323 495.89 708.661 493.425 709.706C491.422 710.562 488.956 709.329 486.97 710.219C482.656 712.188 486.286 720.303 482.331 722.922C480.105 724.377 477.195 722.922 475.021 721.364C472.846 719.806 470.313 717.94 467.796 718.848C463.841 720.2 464.167 726.569 460.537 728.657C458.431 729.89 455.726 729.171 453.552 728.058C451.515 726.703 449.271 725.685 446.91 725.045C444.011 724.857 441.125 725.562 438.641 727.065C436.167 728.58 433.379 729.505 430.492 729.77C427.598 729.77 421.743 728.058 421.623 725.233C421.623 725.233 417.326 720.354 426.571 711.229C433.642 704.261 457.61 689.846 457.61 689.846C457.61 689.846 480.465 673.308 500.701 675.842C500.769 675.962 518.197 677.417 515.544 687.946Z" fill="#FF4F81"/>
<path d="M491.045 692.43C491.045 692.567 488.665 693.577 485.07 695.854C481.475 698.131 476.784 701.623 471.374 705.321C466.833 708.6 461.743 711.041 456.343 712.529C454.694 712.931 453.006 713.154 451.309 713.196C450.685 713.25 450.056 713.21 449.443 713.076C451.711 712.846 453.959 712.457 456.172 711.912C461.439 710.284 466.406 707.809 470.878 704.585C476.219 700.921 480.961 697.377 484.711 695.306C486.175 694.466 487.691 693.717 489.247 693.063C489.811 692.761 490.417 692.548 491.045 692.43Z" fill="#263238"/>
<g opacity="0.3">
<path d="M491.009 685.912C489.866 685.656 488.673 685.751 487.585 686.186C479.385 688.634 472.828 694.643 466.236 700.105C459.645 705.566 452.215 710.873 443.689 711.421C447.298 713.142 451.402 713.519 455.263 712.482C470.191 708.014 478.871 697.074 490.975 692.435C491.634 692.095 492.194 691.59 492.599 690.968C493.004 690.347 493.241 689.631 493.286 688.891C493.195 688.241 492.937 687.625 492.539 687.103C492.14 686.581 491.613 686.171 491.009 685.912Z" fill="black"/>
</g>
<path d="M431.02 727.786C430.205 728.195 429.271 728.304 428.384 728.094C427.284 727.959 426.228 727.579 425.294 726.983C424.36 726.387 423.571 725.589 422.985 724.649C422.399 723.708 422.031 722.649 421.908 721.547C421.784 720.446 421.909 719.331 422.272 718.284C422.837 716.675 423.658 715.973 423.71 716.042C423.761 716.11 423.248 716.949 422.888 718.456C422.633 719.417 422.577 720.42 422.725 721.404C422.872 722.387 423.22 723.33 423.746 724.174C424.272 725.018 424.966 725.745 425.784 726.31C426.602 726.875 427.528 727.267 428.503 727.461C429.942 727.82 431.003 727.632 431.02 727.786Z" fill="white"/>
<path d="M457.111 726.515C455.749 726.715 454.359 726.5 453.122 725.899C450.999 725.162 449.509 724.067 449.698 723.861C451.008 724.085 452.281 724.489 453.481 725.06C454.752 725.376 455.973 725.866 457.111 726.515Z" fill="white"/>
<path d="M467.21 709.416C466.372 710.185 465.404 710.799 464.351 711.231C461.905 712.435 459.316 713.326 456.647 713.884C453.967 714.427 451.229 714.634 448.498 714.501C447.369 714.513 446.246 714.333 445.177 713.97C448.956 713.933 452.727 713.613 456.459 713.011C460.129 712.089 463.724 710.887 467.21 709.416Z" fill="white"/>
<path d="M479.176 719.943C479.176 720.166 477.584 720.44 475.752 719.618C473.921 718.796 473.116 717.41 473.321 717.273C473.527 717.136 474.554 718.112 476.129 718.814C477.704 719.515 479.159 719.687 479.176 719.943Z" fill="white"/>
<path d="M492.425 706.351C492.425 706.608 491.774 706.83 490.935 706.865C490.096 706.899 489.429 706.71 489.411 706.471C489.394 706.231 490.079 705.991 490.901 705.957C491.723 705.923 492.407 706.111 492.425 706.351Z" fill="white"/>
<path d="M511.325 690.426C511.428 690.426 511.325 691.282 510.624 692.412C509.658 693.843 508.328 694.989 506.772 695.734C505.247 696.449 503.626 696.939 501.961 697.189C500.694 697.394 499.906 697.428 499.872 697.309C499.838 697.189 500.608 696.932 501.807 696.572C503.376 696.133 504.906 695.56 506.378 694.86C507.806 694.167 509.076 693.188 510.11 691.984C510.88 691.111 511.189 690.375 511.325 690.426Z" fill="white"/>
<g opacity="0.2">
<path d="M467.79 685.205C467.157 685.616 466.524 686.044 465.907 686.489L467.79 685.205Z" fill="white"/>
<path d="M506.125 678.664C504.256 677.437 502.061 676.799 499.825 676.832C488.531 676.161 477.315 679.093 467.794 685.204C466.503 685.972 465.38 686.991 464.489 688.2C464.056 688.827 463.871 689.592 463.969 690.348C464.067 691.104 464.441 691.796 465.02 692.292C466.39 693.25 468.256 692.566 469.745 691.83C474.676 689.33 479.35 686.214 484.588 684.451C489.827 682.687 495.973 682.465 500.578 685.529C502.051 686.522 503.54 687.875 505.303 687.687C506.278 687.455 507.136 686.879 507.719 686.063C508.301 685.248 508.568 684.25 508.471 683.252C508.423 682.366 508.19 681.499 507.786 680.709C507.382 679.919 506.816 679.222 506.125 678.664Z" fill="white"/>
</g>
<g opacity="0.2">
<path d="M458.701 717.836C458.385 717.666 458.033 717.572 457.674 717.562L444.064 716.005C439.852 715.508 435.504 715.046 431.429 716.313C430.401 716.422 429.441 716.879 428.706 717.607C427.972 718.335 427.507 719.291 427.389 720.319C427.429 721.253 427.833 722.134 428.514 722.774C429.196 723.414 430.101 723.762 431.035 723.743C432.708 723.345 434.242 722.499 435.469 721.295C438.322 719.252 441.867 718.421 445.33 718.983C449.234 719.617 452.983 722.014 456.869 721.26C457.691 721.158 458.444 720.749 458.975 720.113C459.113 719.948 459.215 719.757 459.276 719.551C459.337 719.345 459.356 719.129 459.33 718.916C459.304 718.702 459.235 718.497 459.127 718.311C459.019 718.125 458.874 717.964 458.701 717.836Z" fill="white"/>
</g>
<path d="M523.144 703.355C522.956 702.911 522.651 702.525 522.263 702.239C521.874 701.953 521.415 701.776 520.935 701.729C519.086 702.139 519.412 704.314 519.908 705.272C520.03 705.477 520.19 705.655 520.381 705.797C520.572 705.939 520.79 706.042 521.021 706.099C521.251 706.156 521.491 706.167 521.727 706.131C521.962 706.095 522.187 706.013 522.39 705.889C522.782 705.612 523.069 705.211 523.205 704.752C523.342 704.293 523.32 703.801 523.144 703.355Z" fill="#EB996E"/>
<path d="M499.344 723.315C499.238 723.06 499.064 722.838 498.841 722.675C498.617 722.512 498.353 722.414 498.077 722.391C497.016 722.613 497.204 723.863 497.478 724.428C497.55 724.545 497.644 724.647 497.756 724.727C497.867 724.808 497.993 724.866 498.126 724.897C498.26 724.929 498.398 724.934 498.534 724.912C498.67 724.891 498.799 724.842 498.916 724.77C499.142 724.612 499.307 724.382 499.385 724.118C499.463 723.853 499.449 723.57 499.344 723.315Z" fill="#EB996E"/>
<path d="M515.126 701.796C515.002 701.55 514.82 701.337 514.597 701.176C514.373 701.015 514.114 700.911 513.842 700.871C512.78 701.111 512.969 702.361 513.26 702.908C513.328 703.026 513.42 703.129 513.529 703.211C513.638 703.293 513.762 703.353 513.895 703.386C514.027 703.42 514.165 703.426 514.3 703.406C514.434 703.386 514.564 703.339 514.681 703.268C514.904 703.103 515.068 702.871 515.148 702.606C515.228 702.34 515.22 702.056 515.126 701.796Z" fill="#EB996E"/>
<path d="M480.204 828.073C480.204 828.073 532.3 1000.04 535.536 1009.8C538.772 1019.56 559.504 1077.15 602.835 1063.99C651.781 1049.14 615.212 950.567 615.212 950.567L594.668 875.906L561.764 886.658L535.228 804.602L480.204 828.073Z" fill="#FFBF9D"/>
<path d="M424.806 745.52C424.806 745.52 431.996 782.774 436.139 788.406C440.282 794.039 462.846 816.637 462.846 816.637L487.311 832.815L535.469 805.338L526.824 766.972L516.072 721.621L503.678 731.208L504.996 745.144C504.996 745.144 486.9 715.03 480.138 721.621C473.375 728.212 485.428 741.754 489.194 753.036C492.96 764.318 489.947 770.344 489.947 770.344C489.947 770.344 486.934 771.098 482.791 763.959C479.795 758.823 468.718 735.214 459.251 727.048C458.427 726.318 457.404 725.85 456.312 725.703C455.221 725.557 454.111 725.738 453.123 726.225C452.135 726.712 451.315 727.481 450.766 728.436C450.217 729.39 449.964 730.486 450.041 731.585L450.434 737.234L465.106 774.111L470.379 783.116L456.306 772.604C456.306 772.604 449.921 753.533 443.244 742.935C441.941 740.826 439.859 739.314 437.449 738.728C435.04 738.142 432.497 738.528 430.37 739.802L433.503 752.283C433.503 752.283 433.503 745.144 424.806 745.52Z" fill="#FFBF9D"/>
<path d="M462.774 803.127C461.978 802.827 461.224 802.424 460.531 801.928C459.145 801.072 457.21 799.703 454.882 797.939C452.554 796.176 449.746 794.087 446.681 791.793C445.044 790.506 443.701 788.883 442.744 787.034C442.242 786.057 441.846 785.03 441.563 783.969L440.689 780.802C438.395 772.242 436.735 764.298 435.279 758.666C434.56 755.841 433.944 753.53 433.567 752.006C433.284 751.206 433.078 750.38 432.951 749.541C433.334 750.299 433.649 751.09 433.893 751.904C434.441 753.444 435.16 755.687 435.964 758.495C437.574 764.11 439.388 771.985 441.614 780.562C442.077 782.648 442.742 784.684 443.6 786.64C444.487 788.389 445.736 789.93 447.263 791.16C450.328 793.437 453.067 795.645 455.327 797.443C457.587 799.24 459.47 800.696 460.788 801.637C462.107 802.579 462.808 803.075 462.774 803.127Z" fill="#7F594B"/>
<path d="M484.364 792.718C484.364 792.821 483.543 792.992 482.19 792.889C480.395 792.743 478.649 792.237 477.054 791.4C475.475 790.58 474.073 789.457 472.928 788.096C472.072 787.034 471.747 786.247 471.833 786.195C475.043 789.838 479.49 792.162 484.313 792.718H484.364Z" fill="#7F594B"/>
<path d="M506.984 772.605C503.208 772.178 499.522 771.161 496.062 769.592C497.965 769.675 499.845 770.038 501.643 770.67C503.512 771.037 505.313 771.69 506.984 772.605Z" fill="#7F594B"/>
<path d="M515.867 771.097C514.967 770.039 514.244 768.842 513.727 767.553C512.316 764.536 511.087 761.437 510.046 758.274C508.779 754.593 507.632 751.272 506.622 748.943C506.024 747.708 505.499 746.439 505.047 745.143C505.949 746.202 506.678 747.398 507.204 748.686C508.608 751.704 509.831 754.803 510.868 757.965C512.135 761.646 513.299 764.968 514.292 767.296C514.889 768.531 515.415 769.8 515.867 771.097Z" fill="#7F594B"/>
<path d="M618.038 1025.21C618.023 1025.08 618.023 1024.95 618.038 1024.82C618.038 1024.51 618.226 1024.15 618.346 1023.69C618.569 1022.69 619.1 1021.27 619.408 1019.35C620.513 1013.99 620.664 1008.47 619.853 1003.06C618.98 996.208 616.258 988.299 612.885 979.773C611.173 975.493 609.461 971.008 607.646 966.3C606.825 963.92 605.934 961.574 604.941 959.195C603.948 956.815 602.75 954.504 601.415 952.227C596.341 943.648 590.833 935.334 584.911 927.317C579.569 919.819 574.827 913.005 571.215 907.03C568.305 902.35 565.774 897.443 563.648 892.358C562.878 890.646 562.518 889.088 562.158 888.13C562.022 887.684 561.919 887.308 561.816 887.017C561.769 886.89 561.74 886.758 561.73 886.623C561.81 886.731 561.869 886.853 561.902 886.983L562.33 888.061C562.741 889.02 563.151 890.475 564.042 892.221C566.276 897.232 568.874 902.073 571.814 906.705C575.478 912.611 580.254 919.374 585.63 926.838C588.301 930.587 591.125 934.508 593.967 938.651C596.809 942.794 599.668 947.108 602.236 951.782C603.589 954.093 604.702 956.49 605.797 958.835C606.893 961.181 607.715 963.646 608.519 966.009C610.231 970.699 612.029 975.185 613.655 979.465C616.994 988.025 619.682 995.986 620.503 1002.97C621.265 1008.45 621.015 1014.03 619.767 1019.42C619.444 1020.88 619.032 1022.33 618.535 1023.74L618.158 1024.85C618.132 1024.97 618.092 1025.09 618.038 1025.21Z" fill="#7F594B"/>
<path d="M462.908 816.636C462.908 816.636 462.531 816.311 461.846 815.626L458.782 812.613C456.111 809.942 452.157 805.987 447.157 800.8C444.658 798.215 441.902 795.321 438.957 792.069C437.321 790.442 435.957 788.564 434.917 786.505C433.956 784.216 433.133 781.872 432.451 779.485C429.61 769.624 427.093 758.24 424.542 745.571V745.211H424.936C427.015 745.039 429.094 745.531 430.876 746.615C431.793 747.266 432.549 748.119 433.086 749.107C433.623 750.095 433.927 751.192 433.975 752.316H433.29C432.314 748.447 431.236 744.201 430.14 739.835V739.562L430.38 739.425C431.157 738.906 431.99 738.475 432.862 738.141C433.775 737.816 434.736 737.648 435.704 737.644C437.694 737.611 439.635 738.264 441.2 739.493C441.97 740.128 442.629 740.885 443.151 741.736C443.682 742.558 444.23 743.448 444.709 744.235C445.702 745.947 446.627 747.659 447.517 749.457C451.108 756.918 454.241 764.59 456.899 772.432L456.745 772.227L470.834 782.721L470.201 783.269L464.928 774.281C461.093 764.677 457.121 754.696 453.047 744.458C451.912 741.899 451.04 739.232 450.445 736.497C450.164 735.107 449.97 733.7 449.862 732.286C449.703 730.764 450.118 729.237 451.027 728.006C451.946 726.777 453.277 725.92 454.776 725.592C456.29 725.269 457.871 725.539 459.193 726.345C459.518 726.55 459.809 726.807 460.117 727.03L460.888 727.783C461.401 728.297 461.932 728.793 462.394 729.341C463.37 730.419 464.278 731.532 465.168 732.765C469.754 739.081 473.863 745.731 477.46 752.658L482.801 762.759C483.654 764.402 484.675 765.951 485.849 767.382C486.428 768.07 487.089 768.685 487.817 769.213C488.461 769.715 489.245 770.002 490.06 770.035L489.769 770.258C491.001 766.53 491.214 762.54 490.385 758.702C489.677 754.885 488.426 751.19 486.67 747.728C484.958 744.304 483.058 740.88 481.363 737.456C480.5 735.789 479.734 734.075 479.069 732.32C478.366 730.535 477.984 728.64 477.939 726.722C477.917 725.746 478.095 724.775 478.463 723.871C478.831 722.967 479.381 722.148 480.079 721.466C480.448 721.111 480.886 720.836 481.367 720.659C481.847 720.482 482.359 720.407 482.87 720.439C483.833 720.505 484.769 720.786 485.609 721.26C488.68 723.176 491.401 725.602 493.655 728.434C498.03 733.673 502.002 739.235 505.537 745.074L504.835 745.314C504.39 740.52 503.945 735.881 503.534 731.378V731.19L503.688 731.07L516.1 721.483L516.511 721.175L516.63 721.671C522.674 747.454 527.69 768.34 530.806 782.892C532.398 790.134 533.631 795.767 534.487 799.619C534.898 801.519 535.206 803.043 535.428 803.984C535.651 804.926 535.702 805.474 535.702 805.474C535.702 805.474 535.565 804.977 535.325 804.001C535.086 803.025 534.743 801.553 534.298 799.67C533.408 795.818 532.107 790.203 530.446 782.978C527.211 768.46 522.109 747.591 515.98 721.825L516.511 722.014L504.116 731.635L504.253 731.327C504.698 735.812 505.149 740.452 505.605 745.245L505.759 746.838L504.903 745.468C501.383 739.67 497.428 734.147 493.073 728.947C490.875 726.201 488.23 723.846 485.249 721.979C484.588 721.482 483.783 721.213 482.955 721.213C482.128 721.213 481.323 721.482 480.661 721.979C480.046 722.593 479.561 723.325 479.237 724.131C478.913 724.938 478.757 725.801 478.778 726.67C478.833 728.489 479.204 730.285 479.874 731.977C480.526 733.732 481.281 735.447 482.134 737.113C483.846 740.537 485.746 743.824 487.458 747.385C489.257 750.921 490.537 754.698 491.259 758.599C492.134 762.615 491.897 766.794 490.574 770.686V770.891H490.368C489.304 770.954 488.254 770.618 487.424 769.95C486.632 769.383 485.919 768.715 485.301 767.964C484.071 766.497 483.003 764.901 482.117 763.204L476.518 753.001C472.942 746.123 468.862 739.52 464.312 733.244C462.657 730.975 460.731 728.917 458.577 727.115C457.442 726.445 456.098 726.221 454.807 726.486C453.515 726.752 452.369 727.489 451.592 728.553C449.88 730.676 450.753 733.689 451.164 736.326C451.738 739.016 452.593 741.638 453.714 744.15C457.772 754.422 461.744 764.368 465.561 773.99L470.817 782.995L471.879 784.81L470.167 783.56L456.111 773.048H456.009V772.928C453.38 765.122 450.275 757.483 446.712 750.056C445.839 748.344 444.915 746.529 443.939 744.92C443.086 743.243 441.964 741.716 440.618 740.4C439.561 739.564 438.308 739.011 436.979 738.793C435.649 738.574 434.285 738.697 433.016 739.151C432.184 739.463 431.392 739.871 430.654 740.366L430.825 739.955C431.904 744.321 432.965 748.515 433.941 752.453L433.239 752.556C433.193 751.546 432.92 750.56 432.44 749.67C431.96 748.781 431.285 748.012 430.465 747.42C428.799 746.414 426.858 745.959 424.919 746.119L425.227 745.725C427.726 758.376 430.192 769.693 432.999 779.605C433.656 781.974 434.456 784.301 435.396 786.573C436.403 788.595 437.733 790.44 439.334 792.034C442.244 795.304 444.983 798.215 447.466 800.834L458.953 812.818L461.949 815.9C462.583 816.345 462.908 816.636 462.908 816.636Z" fill="#7F594B"/>
<path d="M489.516 678.397C488.225 677.756 487.074 676.867 486.128 675.78C485.182 674.693 484.46 673.43 484.003 672.063L482.651 663.896L481.898 672.456C481.073 675.286 479.247 677.72 476.762 679.304C478.095 679.965 479.278 680.893 480.238 682.03C481.198 683.166 481.914 684.488 482.343 685.913L483.233 692.572L484.586 685.553C485.291 682.772 487.062 680.38 489.516 678.894L489.876 678.688L489.516 678.397Z" fill="white"/>
<path d="M502.365 1135.19L500.037 1067.89L750.965 1067.22V1134.29L502.365 1135.19Z" fill="#D28B4D"/>
<path d="M605.256 1067.89L549.103 939.127H688.203L750.964 1067.22L605.256 1067.89Z" fill="#D28B4D"/>
<path d="M549.106 939.127L530.205 968.745L569.906 1059.96L605.259 1067.89L549.106 939.127Z" fill="#D28B4D"/>
<path d="M750.96 1067.22H750.207H748.05L739.712 1067.34L709.05 1067.61L607.888 1068.21H604.961L604.841 1067.94L565.191 976.859C560.192 965.235 556.134 955.836 553.31 949.279L550.125 941.763C549.783 940.942 549.526 940.291 549.321 939.812C549.222 939.591 549.142 939.362 549.081 939.127C549.081 939.127 549.201 939.332 549.406 939.778L550.297 941.695C551.067 943.407 552.197 945.941 553.635 949.142L565.773 976.62C575.959 999.903 590.049 1032.05 605.646 1067.7L605.235 1067.44H607.854L709.033 1067.1H739.695H748.033H750.19C750.45 1067.12 750.708 1067.16 750.96 1067.22Z" fill="#263238"/>
<path d="M605.255 1135.31C605.015 1135.31 604.81 1120.21 604.81 1101.6C604.81 1082.99 605.015 1067.89 605.255 1067.89C605.494 1067.89 605.7 1082.97 605.7 1101.6C605.7 1120.22 605.511 1135.31 605.255 1135.31Z" fill="#263238"/>
<path d="M681.974 1007.55C682.093 1005.4 681.966 1003.24 681.598 1001.12C681.104 998.636 680.171 996.264 678.841 994.113C677.089 991.259 674.819 988.756 672.148 986.735C665.083 981.507 656.251 979.257 647.546 980.469C645.063 980.818 642.627 981.449 640.287 982.352C637.874 983.342 635.601 984.643 633.525 986.221C631.312 987.841 629.449 989.891 628.048 992.249C626.647 994.607 625.737 997.223 625.372 999.941C625.007 1002.66 625.196 1005.42 625.926 1008.07C626.656 1010.71 627.913 1013.18 629.621 1015.33C631.201 1017.4 633.049 1019.26 635.117 1020.85C639.644 1024.19 644.942 1026.32 650.516 1027.05C656.09 1027.79 661.759 1027.1 666.994 1025.05C670.1 1023.8 672.95 1021.99 675.4 1019.71C677.247 1017.98 678.771 1015.94 679.903 1013.68C680.823 1011.72 681.518 1009.67 681.974 1007.55C681.994 1007.69 681.994 1007.84 681.974 1007.98C681.974 1008.32 681.855 1008.73 681.769 1009.23C681.667 1009.91 681.501 1010.57 681.272 1011.22C681.135 1011.61 681.033 1012.04 680.862 1012.47L680.245 1013.84C679.146 1016.17 677.632 1018.28 675.777 1020.07C673.302 1022.45 670.397 1024.34 667.217 1025.63C658.865 1028.96 649.538 1028.85 641.263 1025.34C638.898 1024.33 636.658 1023.05 634.586 1021.52C632.444 1019.89 630.531 1017.98 628.902 1015.84C627.12 1013.61 625.808 1011.04 625.046 1008.28C624.284 1005.53 624.087 1002.65 624.468 999.817C624.849 996.986 625.799 994.261 627.261 991.806C628.724 989.352 630.668 987.219 632.977 985.536C635.116 983.904 637.466 982.568 639.962 981.565C645.334 979.512 651.14 978.864 656.832 979.681C662.524 980.499 667.914 982.756 672.49 986.238C675.192 988.332 677.474 990.917 679.218 993.857C680.532 996.074 681.437 998.51 681.889 1001.05C682.076 1001.97 682.174 1002.9 682.18 1003.84C682.242 1004.52 682.242 1005.21 682.18 1005.89L682.043 1007.14C682.026 1007.42 681.991 1007.57 681.974 1007.55Z" fill="white"/>
<path d="M681.97 1007.55C681.97 1007.55 681.679 1007.45 681.148 1007.47C680.757 1007.51 680.378 1007.63 680.036 1007.82C679.694 1008.02 679.397 1008.28 679.162 1008.6C678.34 1009.58 677.612 1010.64 676.988 1011.77C676.162 1013.3 675.093 1014.7 673.821 1015.89C673.085 1016.6 672.276 1017.22 671.407 1017.76C670.433 1018.38 669.308 1018.72 668.154 1018.75C667.526 1018.74 666.907 1018.6 666.335 1018.33C665.764 1018.07 665.253 1017.7 664.833 1017.23C664.105 1016.29 663.226 1015.48 662.231 1014.83C661.153 1014.36 659.944 1014.26 658.807 1014.57C657.569 1014.93 656.408 1015.51 655.383 1016.29C654.27 1017.04 653.174 1017.91 651.959 1018.67C650.698 1019.51 649.241 1020.01 647.73 1020.12C646.946 1020.21 646.152 1020.1 645.415 1019.82C644.677 1019.54 644.016 1019.09 643.484 1018.51C642.598 1017.3 642.124 1015.84 642.132 1014.33C642.129 1013.02 641.968 1011.71 641.653 1010.43C641.534 1009.86 641.278 1009.34 640.908 1008.89C640.538 1008.45 640.065 1008.1 639.53 1007.88C638.414 1007.66 637.256 1007.87 636.294 1008.48C635.256 1009.08 634.145 1009.54 632.99 1009.85C631.821 1010.07 630.614 1009.88 629.566 1009.32C628.647 1008.82 627.843 1008.13 627.203 1007.3C626.124 1005.87 625.524 1004.14 625.491 1002.35C625.445 1001.03 625.56 999.718 625.834 998.43C626.056 997.386 626.262 996.581 626.416 996.033C626.477 995.753 626.575 995.483 626.707 995.229C626.707 995.229 626.518 996.393 626.176 998.498C625.973 999.76 625.91 1001.04 625.988 1002.32C626.062 1003.99 626.661 1005.59 627.7 1006.9C628.27 1007.71 629.051 1008.34 629.956 1008.74C630.862 1009.13 631.858 1009.26 632.836 1009.13C633.915 1008.81 634.95 1008.35 635.917 1007.78C637.056 1007.05 638.434 1006.81 639.752 1007.09C640.419 1007.35 641.013 1007.76 641.484 1008.3C641.955 1008.84 642.289 1009.48 642.457 1010.17C642.792 1011.51 642.97 1012.89 642.988 1014.27C642.98 1015.58 643.381 1016.86 644.135 1017.93C644.579 1018.41 645.129 1018.78 645.742 1019C646.355 1019.23 647.013 1019.31 647.662 1019.23C650.469 1019.11 652.626 1017.07 654.921 1015.55C656.066 1014.75 657.349 1014.17 658.704 1013.84C660.056 1013.47 661.494 1013.6 662.761 1014.2C663.826 1014.89 664.769 1015.76 665.552 1016.77C665.895 1017.17 666.318 1017.5 666.796 1017.73C667.274 1017.97 667.795 1018.1 668.325 1018.12C670.315 1017.89 672.162 1016.98 673.547 1015.53C674.802 1014.39 675.87 1013.06 676.714 1011.6C677.397 1010.47 678.182 1009.42 679.06 1008.45C679.34 1008.12 679.683 1007.86 680.07 1007.68C680.456 1007.5 680.875 1007.4 681.302 1007.38C681.524 1007.39 681.74 1007.45 681.936 1007.55C681.919 1007.5 681.987 1007.55 681.97 1007.55Z" fill="white"/>
<path d="M668.889 997.816C667.784 998.508 666.549 998.968 665.26 999.169C662.174 999.839 658.981 999.839 655.895 999.169C652.788 998.49 649.866 997.141 647.335 995.214C646.26 994.471 645.336 993.53 644.613 992.441C644.733 992.338 645.76 993.382 647.695 994.7C650.225 996.398 653.045 997.617 656.015 998.296C658.988 998.965 662.06 999.069 665.072 998.604C667.451 998.227 668.838 997.714 668.889 997.816Z" fill="white"/>
<path d="M607.531 987.644L608.935 985.127C609.116 984.725 609.378 984.364 609.705 984.068C610.032 983.773 610.417 983.548 610.836 983.409C611.254 983.27 611.697 983.219 612.136 983.26C612.575 983.301 613.001 983.433 613.387 983.647C613.773 983.861 614.109 984.153 614.376 984.504C614.643 984.855 614.834 985.258 614.937 985.687C615.04 986.116 615.053 986.562 614.974 986.996C614.896 987.43 614.728 987.843 614.482 988.209L613.078 990.743L607.531 987.644ZM613.386 987.644C613.538 987.418 613.642 987.163 613.69 986.895C613.739 986.628 613.731 986.353 613.668 986.088C613.605 985.823 613.488 985.574 613.324 985.357C613.16 985.14 612.953 984.959 612.715 984.826C612.478 984.693 612.215 984.611 611.944 984.585C611.674 984.558 611.4 984.588 611.141 984.673C610.883 984.757 610.644 984.895 610.441 985.076C610.238 985.257 610.075 985.479 609.962 985.726L609.312 986.908L612.736 988.808L613.386 987.644Z" fill="white"/>
<path d="M618.952 980.008L619.86 980.761L616.71 984.562L611.813 980.504L614.878 976.789L615.785 977.559L613.662 980.127L614.724 981.001L616.607 978.741L617.48 979.46L615.597 981.737L616.744 982.678L618.952 980.008Z" fill="white"/>
<path d="M616.331 975.369L617.427 974.41L620.851 978.296L623.248 976.191L624.035 977.098L620.525 980.163L616.331 975.369Z" fill="white"/>
<path d="M620.972 971.571L622.187 970.732L625.8 975.971L624.584 976.81L620.972 971.571Z" fill="white"/>
<path d="M625.118 972.549C624.91 972.155 624.786 971.723 624.753 971.279C624.72 970.835 624.778 970.389 624.924 969.969C625.07 969.548 625.301 969.162 625.602 968.834C625.904 968.507 626.269 968.244 626.675 968.064C627.099 967.815 627.574 967.667 628.064 967.631C628.554 967.596 629.045 967.673 629.5 967.858L629.072 969.057C628.804 968.933 628.512 968.87 628.216 968.87C627.921 968.87 627.629 968.933 627.36 969.057C627.105 969.168 626.875 969.331 626.685 969.535C626.495 969.739 626.348 969.979 626.255 970.242C626.162 970.505 626.124 970.784 626.142 971.062C626.161 971.34 626.237 971.611 626.365 971.859C626.493 972.106 626.67 972.325 626.886 972.502C627.102 972.678 627.352 972.808 627.62 972.884C627.888 972.96 628.169 972.98 628.446 972.943C628.722 972.906 628.988 972.813 629.226 972.669C629.499 972.53 629.738 972.332 629.925 972.089C630.111 971.846 630.241 971.565 630.305 971.265L631.538 971.607C631.388 972.292 631.031 972.914 630.516 973.39C630.001 973.866 629.352 974.172 628.658 974.267C627.963 974.362 627.256 974.242 626.633 973.922C626.009 973.603 625.498 973.1 625.169 972.481L625.118 972.549Z" fill="white"/>
<path d="M630.423 966.433L631.792 965.902L634.052 971.843L632.683 972.374L630.423 966.433Z" fill="white"/>
<path d="M634.085 968.35C633.889 967.698 633.891 967.003 634.091 966.353C634.292 965.702 634.682 965.127 635.211 964.699C635.74 964.271 636.384 964.011 637.062 963.951C637.74 963.891 638.42 964.034 639.016 964.363C639.612 964.691 640.096 965.189 640.408 965.794C640.719 966.399 640.843 967.083 640.764 967.759C640.685 968.435 640.407 969.072 639.964 969.589C639.522 970.105 638.935 970.479 638.28 970.661C637.853 970.796 637.402 970.843 636.957 970.799C636.511 970.755 636.079 970.621 635.686 970.405C635.294 970.189 634.95 969.895 634.675 969.542C634.399 969.188 634.199 968.783 634.085 968.35ZM639.392 966.98C639.286 966.604 639.071 966.268 638.775 966.014C638.478 965.759 638.114 965.598 637.726 965.55C637.339 965.502 636.945 965.569 636.596 965.743C636.246 965.917 635.956 966.191 635.761 966.529C635.566 966.867 635.475 967.256 635.499 967.645C635.524 968.035 635.663 968.409 635.899 968.72C636.135 969.031 636.457 969.266 636.826 969.395C637.194 969.524 637.593 969.542 637.971 969.445C638.23 969.386 638.474 969.274 638.688 969.117C638.902 968.96 639.081 968.76 639.214 968.53C639.348 968.301 639.432 968.046 639.463 967.782C639.493 967.518 639.469 967.251 639.392 966.997V966.98Z" fill="white"/>
<path d="M642.134 966.811L641.706 963.284L643.161 963.113L643.572 966.537C643.726 967.736 644.308 968.249 645.181 968.061C646.055 967.873 646.534 967.41 646.397 966.212L645.986 962.788L647.424 962.6L647.835 966.143C647.906 966.531 647.897 966.928 647.809 967.312C647.72 967.695 647.554 968.056 647.32 968.373C647.087 968.69 646.79 968.955 646.45 969.153C646.109 969.35 645.732 969.476 645.341 969.521C644.95 969.567 644.554 969.532 644.177 969.419C643.8 969.305 643.451 969.116 643.15 968.862C642.849 968.607 642.604 968.294 642.429 967.942C642.255 967.589 642.154 967.204 642.134 966.811Z" fill="white"/>
<path d="M648.912 968.231L649.409 967.118C650.025 967.535 650.753 967.756 651.497 967.751C652.37 967.751 652.73 967.443 652.713 967.066C652.713 965.868 649.032 966.741 648.998 964.379C648.998 963.3 649.837 962.393 651.651 962.375C652.422 962.349 653.185 962.533 653.86 962.906L653.415 964.019C652.892 963.72 652.304 963.556 651.703 963.54C650.83 963.54 650.504 963.882 650.504 964.293C650.504 965.457 654.202 964.601 654.236 966.929C654.236 967.991 653.363 968.915 651.566 968.932C650.63 968.98 649.702 968.735 648.912 968.231Z" fill="white"/>
<path d="M658.587 962.756L661.429 963.287C661.863 963.335 662.283 963.473 662.662 963.691C663.04 963.909 663.37 964.202 663.63 964.553C663.891 964.903 664.076 965.304 664.175 965.729C664.274 966.155 664.285 966.596 664.206 967.026C664.127 967.456 663.96 967.864 663.717 968.227C663.473 968.59 663.158 968.898 662.79 969.134C662.422 969.369 662.009 969.526 661.578 969.595C661.146 969.664 660.705 969.644 660.282 969.535L657.44 969.022L658.587 962.756ZM660.419 968.337C660.686 968.414 660.965 968.435 661.24 968.398C661.515 968.36 661.779 968.266 662.015 968.12C662.251 967.974 662.454 967.781 662.611 967.552C662.768 967.323 662.875 967.064 662.926 966.791C662.976 966.518 662.969 966.238 662.904 965.968C662.84 965.698 662.719 965.445 662.551 965.224C662.383 965.004 662.17 964.821 661.927 964.688C661.683 964.555 661.415 964.474 661.138 964.451L659.82 964.211L659.101 968.097L660.419 968.337Z" fill="white"/>
<path d="M665.278 967.306C665.5 966.663 665.909 966.101 666.452 965.691C666.994 965.282 667.647 965.043 668.326 965.005C669.005 964.968 669.68 965.133 670.264 965.481C670.849 965.828 671.317 966.342 671.608 966.957C671.9 967.571 672.002 968.258 671.901 968.931C671.8 969.604 671.501 970.231 671.043 970.733C670.584 971.235 669.986 971.59 669.326 971.751C668.665 971.912 667.971 971.872 667.333 971.637C666.905 971.5 666.51 971.277 666.172 970.981C665.834 970.685 665.56 970.322 665.368 969.917C665.175 969.511 665.068 969.07 665.053 968.621C665.037 968.172 665.114 967.724 665.278 967.306ZM670.414 969.292C670.545 968.925 670.564 968.527 670.471 968.149C670.377 967.771 670.174 967.428 669.887 967.164C669.6 966.901 669.241 966.727 668.857 966.666C668.472 966.604 668.077 966.657 667.722 966.819C667.367 966.98 667.068 967.242 666.861 967.572C666.654 967.902 666.548 968.286 666.558 968.676C666.567 969.065 666.691 969.444 666.914 969.763C667.137 970.083 667.45 970.33 667.812 970.473C668.058 970.571 668.321 970.618 668.585 970.611C668.849 970.604 669.109 970.543 669.349 970.433C669.589 970.323 669.805 970.164 669.982 969.968C670.159 969.772 670.294 969.542 670.38 969.292H670.414Z" fill="white"/>
<path d="M679.626 970.973L676.202 976.332L675.192 975.681L674.576 970.734L672.522 973.986L671.289 973.216L674.713 967.857L675.74 968.508L676.339 973.439L678.394 970.186L679.626 970.973Z" fill="white"/>
<path d="M679.042 975.014L681.473 972.412L682.551 973.405L680.154 975.973C679.333 976.863 679.384 977.582 680.035 978.182C680.685 978.781 681.404 978.781 682.226 977.908L684.623 975.34L685.684 976.333L683.322 978.986C683.064 979.263 682.755 979.486 682.411 979.643C682.067 979.8 681.696 979.888 681.319 979.901C680.941 979.915 680.565 979.854 680.211 979.722C679.857 979.59 679.532 979.389 679.256 979.132C678.979 978.874 678.756 978.565 678.599 978.221C678.442 977.878 678.354 977.506 678.341 977.129C678.327 976.751 678.388 976.375 678.52 976.021C678.652 975.667 678.853 975.342 679.11 975.066L679.042 975.014Z" fill="white"/>
<path d="M686.905 979.633L685.638 978.041L686.563 977.305L689.987 981.619L689.045 982.355L687.778 980.78L683.755 983.999L682.848 982.852L686.905 979.633Z" fill="white"/>
<path d="M685.583 985.278L686.799 985.107C686.76 985.857 686.945 986.601 687.33 987.247C687.792 987.983 688.22 988.12 688.562 987.914C689.572 987.298 686.936 984.593 688.939 983.343C689.846 982.778 691.079 983.035 692.02 984.576C692.442 985.225 692.679 985.977 692.705 986.75L691.524 986.956C691.501 986.35 691.324 985.761 691.01 985.244C690.565 984.507 690.103 984.388 689.761 984.593C688.768 985.209 691.473 987.931 689.418 989.164C688.528 989.712 687.295 989.438 686.337 987.897C685.824 987.121 685.561 986.207 685.583 985.278Z" fill="white"/>
<path d="M693.835 1006.38C693.7 1006.48 693.55 1006.56 693.39 1006.62L691.935 1007.27V1007.15C691.912 1009.42 691.613 1011.68 691.044 1013.88C690.122 1017.46 688.574 1020.85 686.473 1023.89C683.784 1027.88 680.284 1031.26 676.201 1033.8C671.421 1036.72 666.053 1038.54 660.485 1039.13C653.873 1039.86 647.179 1039.1 640.9 1036.9C635.801 1035.09 631.013 1032.49 626.708 1029.22C623.814 1027.02 621.132 1024.56 618.695 1021.87C617.839 1020.91 617.189 1020.16 616.778 1019.61C616.552 1019.35 616.352 1019.07 616.179 1018.77C616.179 1018.77 617.155 1019.8 618.935 1021.63C621.455 1024.21 624.18 1026.57 627.084 1028.7C631.376 1031.87 636.12 1034.36 641.157 1036.11C647.328 1038.24 653.896 1038.97 660.383 1038.24C665.831 1037.67 671.089 1035.91 675.791 1033.1C679.804 1030.65 683.261 1027.38 685.943 1023.51C688.042 1020.55 689.622 1017.25 690.616 1013.76C691.212 1011.6 691.59 1009.39 691.746 1007.16V1007.08L693.236 1006.55C693.42 1006.45 693.625 1006.39 693.835 1006.38Z" fill="white"/>
<path d="M502.364 1114.06C502.158 1113.92 509.092 1103.48 517.857 1090.73C526.623 1077.97 533.865 1067.73 534.07 1067.89C534.276 1068.04 527.342 1078.47 518.576 1091.22C509.811 1103.98 502.569 1114.23 502.364 1114.06Z" fill="white"/>
<path d="M516.833 1135.13C516.628 1134.98 527.208 1119.9 540.476 1101.44C553.744 1082.98 564.649 1068.12 564.838 1068.28C565.026 1068.43 554.463 1083.5 541.195 1101.95C527.927 1120.41 517.021 1135.27 516.833 1135.13Z" fill="white"/>
<path d="M594.948 1067.89C595.137 1068.02 585.07 1083.19 572.453 1101.75C559.835 1120.31 549.426 1135.27 549.221 1135.14C549.015 1135 559.082 1119.83 571.717 1101.25C584.351 1082.68 594.743 1067.73 594.948 1067.89Z" fill="white"/>
<path d="M631.961 1068.28C631.845 1068.54 631.696 1068.78 631.516 1069L630.112 1070.95L624.874 1078.07C620.474 1084.08 614.516 1092.51 607.993 1101.84C601.47 1111.17 595.427 1119.54 590.873 1125.48C588.613 1128.44 586.747 1130.82 585.412 1132.43C584.796 1133.17 584.299 1133.78 583.871 1134.28C583.443 1134.78 583.323 1134.91 583.289 1134.9C583.409 1134.64 583.558 1134.4 583.734 1134.18L585.138 1132.22C586.456 1130.43 588.22 1128.01 590.377 1125.1C594.777 1119.08 600.734 1110.65 607.257 1101.32C613.78 1091.99 619.823 1083.62 624.377 1077.7C626.654 1074.72 628.52 1072.34 629.838 1070.73L631.379 1068.88C631.548 1068.66 631.743 1068.46 631.961 1068.28Z" fill="white"/>
<path d="M673.792 1067.84C673.669 1068.09 673.52 1068.32 673.346 1068.54L671.96 1070.49C670.744 1072.2 668.998 1074.6 666.824 1077.61C662.544 1083.66 656.928 1092.2 650.834 1101.73C644.739 1111.27 639.038 1119.78 634.621 1125.7C632.413 1128.68 630.581 1131.06 629.262 1132.67L627.739 1134.52C627.578 1134.74 627.388 1134.95 627.174 1135.12C627.174 1135.12 627.294 1134.86 627.602 1134.4L628.989 1132.46C630.221 1130.75 631.967 1128.36 634.125 1125.34C638.405 1119.3 644.02 1110.74 650.097 1101.22C656.175 1091.7 661.91 1083.18 666.327 1077.25C668.536 1074.27 670.35 1071.88 671.669 1070.29L673.192 1068.44C673.569 1068.01 673.757 1067.82 673.792 1067.84Z" fill="white"/>
<path d="M717.566 1068.72C717.566 1068.72 717.446 1068.98 717.138 1069.42L715.769 1071.36C714.553 1073.07 712.824 1075.42 710.633 1078.41C706.404 1084.4 700.84 1092.86 694.814 1102.38C688.788 1111.9 683.121 1120.25 678.738 1126.16C676.547 1129.1 674.749 1131.47 673.448 1133.01L671.941 1134.82C671.582 1135.23 671.394 1135.44 671.359 1135.42C671.471 1135.17 671.615 1134.93 671.787 1134.72L673.157 1132.79C674.39 1131.07 676.119 1128.73 678.293 1125.73C682.539 1119.74 688.103 1111.28 694.129 1101.76C700.155 1092.25 705.822 1083.89 710.188 1078C712.379 1075.04 714.194 1072.68 715.495 1071.15L717.001 1069.32C717.162 1069.1 717.352 1068.9 717.566 1068.72Z" fill="white"/>
<path d="M750.965 1073.33C751.153 1073.47 741.788 1087.37 730.027 1104.37C718.265 1121.37 708.558 1135.03 708.37 1134.9C708.182 1134.76 717.529 1120.86 729.291 1103.86C741.052 1086.86 750.759 1073.14 750.965 1073.33Z" fill="white"/>
<g opacity="0.3">
<path d="M605.258 1067.89V1135.3L750.966 1134.29V1067.22L605.258 1067.89Z" fill="black"/>
</g>
<defs>
<linearGradient id="paint0_linear_287_732" x1="495" y1="0" x2="495" y2="1002" gradientUnits="userSpaceOnUse">
<stop stop-color="#FFECDB"/>
<stop offset="1" stop-color="#FFF1E6" stop-opacity="0"/>
</linearGradient>
</defs>
</svg>
