<svg width="1242" height="2760" viewBox="0 0 1242 2760" fill="none" xmlns="http://www.w3.org/2000/svg">
<path opacity="0.15" fill-rule="evenodd" clip-rule="evenodd" d="M566.533 1.6438C574.331 -4.29366 583.148 -8.75815 592.549 -11.5303C607.529 -15.6806 623.1 -17.2825 638.611 -16.2692C642.687 -16.0322 646.762 -15.7005 650.79 -15.1792C656.43 -21.3398 681.688 -22.5719 692.066 -13.0468C693.067 -12.2063 693.889 -11.1734 694.483 -10.0093C695.077 -8.84527 695.432 -7.57373 695.525 -6.27012V-5.84364V-5.41716C695.371 -4.54136 695.083 -3.69436 694.672 -2.90556C696.9 -1.86301 699.127 -0.773077 701.307 0.411644C721.243 11.5685 736.337 29.7184 743.672 51.3546C746.892 60.1538 748.34 69.5027 747.933 78.8635C747.526 88.2243 745.273 97.4123 741.303 105.899C737.631 114.701 732.342 122.738 725.712 129.594C723.852 131.501 721.873 133.289 719.788 134.949L719.22 135.422C691.876 156.937 649.226 156.558 617.334 148.028C600.763 143.747 585.053 136.646 570.893 127.035C542.933 107.653 531.228 78.9823 539.711 46.0471C542.459 35.3846 547.293 21.0732 554.638 12.5432C557.256 8.1129 561.043 4.48931 565.585 2.07028L566.628 1.4542L566.533 1.6438ZM697.231 32.5887C697.231 32.5887 692.492 29.6032 691.829 31.6409C691.166 33.6786 693.108 37.2802 695.288 36.3798C697.468 35.4794 698.369 35.2424 698.132 34.0577C698.09 33.7577 697.989 33.4691 697.834 33.2087C697.68 32.9483 697.475 32.7214 697.231 32.5413V32.5887ZM657.946 19.3198C657.946 19.3198 653.207 16.3343 652.544 18.372C651.88 20.4098 653.823 24.0113 656.003 23.1109C658.183 22.2105 659.083 21.9736 658.846 20.7888C658.805 20.4889 658.704 20.2003 658.549 19.9399C658.394 19.6795 658.189 19.4525 657.946 19.2724V19.3198ZM625.295 62.6332C625.295 62.6332 619.371 58.8421 618.329 61.4011C617.286 63.9601 619.94 68.699 622.783 67.5616C625.627 66.4243 626.717 66.0925 626.385 64.6235C626.288 63.8455 625.898 63.1337 625.295 62.6332ZM685.005 14.96C685.005 14.96 679.081 11.1689 678.039 13.7753C676.996 16.3817 679.65 21.0258 682.493 19.9359C685.337 18.8459 686.427 18.4194 686.095 16.9504C685.998 16.1724 685.608 15.4606 685.005 14.96ZM718.177 92.2986C718.177 92.2986 712.159 88.4127 711.069 91.0665C709.979 93.7202 712.727 98.4591 715.808 97.3218C718.888 96.1845 719.788 95.8053 719.457 94.3363C719.411 93.9384 719.287 93.5534 719.092 93.2036C718.897 92.8539 718.634 92.5463 718.319 92.2986H718.177ZM598.331 46.6157C595.487 47.6583 597.383 48.1796 598.331 49.7434C599.279 51.3072 606.292 54.8614 606.908 51.9707C607.524 49.08 600.606 45.8101 598.426 46.6157H598.331ZM571.509 47.6583C571.509 47.6583 566.77 44.6728 566.106 46.7105C565.443 48.7482 567.386 52.3498 569.566 51.4494C571.746 50.549 572.646 50.2647 572.409 49.1274C572.368 48.8274 572.267 48.5387 572.112 48.2783C571.957 48.0179 571.752 47.791 571.509 47.6109V47.6583ZM593.118 68.0355C593.118 68.0355 588.379 65.05 587.668 67.0877C586.958 69.1254 588.948 72.727 591.175 71.8266C593.402 70.9262 594.208 70.6892 593.971 69.5045C593.894 68.9076 593.588 68.364 593.118 67.9881V68.0355ZM657.33 -13.9945H657.614L658.752 -13.2363L659.225 -12.8572L659.699 -12.478C663.775 -9.16083 664.438 -6.12801 652.923 -6.1754C644.819 -6.1754 635.199 -6.1754 625.2 -6.1754H622.357H622.926H620.272H610.083H609.278H608.519H607.666H606.292H605.629H604.681H604.16H603.307H602.88H601.743H601.222H600.369H599.942H598.805H598.331H597.478H597.099H595.867H595.582H594.587H594.255H593.071H592.692H591.791H591.412L590.227 -5.93844H589.185H588.853L587.716 -5.65412H587.479H586.484H586.199L585.062 -5.36973L583.925 -5.0854H583.593L582.598 -4.80108L581.508 -4.51676H581.176L580.276 -4.23244L579.186 -3.90068H578.901L578.048 -3.61636L577.006 -3.23724H576.769L575.916 -2.90556L574.873 -2.52644L574.068 -2.19468L573.12 -1.7682L572.314 -1.34172H572.03L571.13 -0.867802L570.324 -0.44132L569.471 0.0799599L567.955 1.02772C567.471 1.30479 567.011 1.6218 566.58 1.97548L565.348 2.92332L564.211 3.87108L563.263 4.77148L562.41 5.62444L561.699 6.47748L561.083 7.33044L560.609 8.13604C560.479 8.39585 560.368 8.66515 560.278 8.94164C560.257 9.20977 560.257 9.47912 560.278 9.74724V10.5055C560.254 10.7418 560.254 10.98 560.278 11.2164C560.254 11.4527 560.254 11.6908 560.278 11.9272V12.638C560.278 12.638 560.278 13.0645 560.278 13.3014C560.343 13.5339 560.439 13.7569 560.562 13.9648C566.58 25.2908 605.487 30.9775 618.945 31.404C619.025 28.9159 619.943 26.5278 621.551 24.6273C624.965 21.9067 629.284 20.5854 633.636 20.931C630.301 20.2747 626.93 19.8158 623.542 19.5568C603.686 18.3247 579.849 17.8033 576.816 13.1592C572.409 6.43003 614.253 -9.96648 655.671 -5.03804C665.38 -3.38378 675.322 -3.68994 684.91 -5.93844H685.195H685.479H685.811H686.095H686.379H686.616V-6.22276V-6.50708C686.903 -7.02599 687.111 -7.58513 687.232 -8.16572C682.493 -16.7431 664.154 -19.539 653.254 -16.1744L657.33 -13.9945ZM555.965 24.4378C546.156 43.3933 550.847 75.049 565.443 86.0432C575.3 93.6255 594.729 113.766 608.662 119.215C622.594 124.665 651.596 125.85 663.206 130.21C670.077 132.816 686.142 132.816 702.018 126.798C699.433 126.307 696.896 125.594 694.435 124.665C689.696 122.912 684.626 120.921 679.745 119.073C674.107 116.843 668.288 115.099 662.353 113.86C654.422 112.33 646.357 111.6 638.28 111.681C632.309 111.681 626.29 111.681 620.319 111.112C615.538 110.824 610.786 110.175 606.103 109.169C602.549 108.644 599.134 107.423 596.052 105.577C592.97 103.732 590.283 101.297 588.142 98.4117C587.492 97.3482 586.952 96.2207 586.531 95.0471C585.879 93.3077 585.715 91.4232 586.057 89.5974C587.668 81.3044 599.326 78.0346 606.387 76.5181C612.641 75.2034 618.972 74.2854 625.342 73.7696C633.493 73.0587 641.692 72.727 649.89 72.6322C658.088 72.5374 665.955 72.6322 674.011 72.2057C679.84 72.2057 685.716 71.874 691.592 71.3053C694.909 70.9736 704.34 69.931 706.046 66.5664C706.226 66.2452 706.339 65.8904 706.377 65.5239C706.377 64.8604 705.43 63.5335 705.003 63.0596C703.002 60.9446 700.684 59.154 698.132 57.7521C690.696 53.6082 682.722 50.5143 674.437 48.5587C685.574 66.3769 656.951 74.3856 638.232 63.0596C625.2 55.1931 619.277 47.7531 617.618 41.7347H616.623C612.311 41.7347 607.998 41.1661 603.686 40.5974C598.141 39.8866 592.549 38.9388 587.052 37.754C579.776 36.3232 572.674 34.1149 565.869 31.167C562.128 29.6524 558.752 27.3585 555.965 24.4378ZM718.177 118.41C723.358 114.646 727.848 110.012 731.446 104.714C750.022 77.4659 736.659 27.8498 697.516 6.95132C694.577 5.38749 691.639 4.01319 688.701 2.78108C686.904 3.70607 685.014 4.43686 683.062 4.961C673.254 7.01357 663.154 7.27048 653.254 5.71924C636.12 3.7905 618.778 4.99482 602.075 9.2734C596.113 10.6654 590.315 12.6828 584.778 15.2918C583.121 16.0317 581.535 16.9199 580.039 17.9456L580.939 18.2299C583.561 18.8565 586.22 19.3155 588.9 19.6041C594.729 20.315 600.558 20.6941 606.387 21.0732C612.216 21.4523 617.049 21.6892 622.31 22.2579C633.228 22.8243 643.818 26.1858 653.065 32.02L654.25 32.4939L664.675 33.6312C679.307 35.0195 693.624 38.7307 707.088 44.6254C715.666 48.4639 734.242 57.4204 733.626 68.6042C733.294 75.0491 727.134 78.8401 721.826 81.0674C717.609 82.7558 713.247 84.0565 708.794 84.9533C702.534 86.2993 696.206 87.3117 689.839 87.9862C674.864 89.787 659.936 91.4456 645.056 93.6728C642.086 94.0835 639.101 94.5574 636.1 95.0945C638.374 95.521 640.602 95.9001 642.876 96.2318C655.861 98.2695 668.845 100.26 681.877 101.871L689.223 102.677H691.071C695.26 102.691 699.436 103.136 703.534 104.004C705.952 104.276 708.292 105.028 710.415 106.216C712.539 107.404 714.405 109.004 715.902 110.922C717.275 113.123 717.983 115.674 717.94 118.268L718.177 118.41ZM691.166 106.8C691.166 106.8 681.83 106.61 642.355 100.26C602.88 93.9098 629.702 90.7822 689.46 83.6264C749.217 76.4707 730.972 59.932 705.335 48.2744C692.274 42.5675 678.39 38.9686 664.201 37.6119C664.179 37.8166 664.179 38.0232 664.201 38.228C664.201 38.228 664.201 38.228 664.201 38.5123C664.665 39.7573 665.455 40.8544 666.489 41.6883C667.523 42.5222 668.763 43.0621 670.077 43.2512H670.883H671.215C695.194 48.6535 711.543 58.7473 710.5 65.903C709.031 76.2338 689.933 75.9495 649.89 76.5181C609.846 77.0868 586.578 82.6786 590.417 93.2937C594.255 103.909 609.372 107.131 638.09 107.131C666.808 107.131 677.991 114.05 695.667 120.353C713.343 126.655 715.95 118.742 712.301 112.581C708.652 106.42 690.929 106.373 690.929 106.373L691.166 106.8ZM574.636 121.585C617.286 151.061 685.716 157.221 718.556 127.366C711.922 131.463 704.721 134.561 697.184 136.56C687.09 139.261 671.262 141.299 661.216 137.413C657.462 136.194 653.609 135.306 649.7 134.759C644.203 133.859 638.706 133.1 633.209 132.295C623.848 131.289 614.628 129.239 605.723 126.182C597.089 122.062 589.106 116.697 582.029 110.259C577.859 106.752 573.783 103.103 569.708 99.5016C566.675 96.7531 563.547 93.9572 560.23 91.4456C550.752 84.3372 546.014 71.8266 543.928 59.8372C541.796 71.3527 545.113 101.255 574.494 121.443L574.636 121.585ZM624.395 39.5548C623.859 40.3979 623.575 41.3759 623.575 42.3745C623.575 43.3731 623.859 44.3511 624.395 45.1941C627.143 51.2599 635.199 56.9465 640.696 60.2637C646.057 63.4166 652.277 64.7934 658.467 64.197C661.026 63.9601 666.571 62.7754 667.945 60.0742C668.099 59.4278 668.115 58.7562 667.993 58.103C667.87 57.4499 667.612 56.8298 667.234 56.2831C664.666 52.2855 661.313 48.8514 657.377 46.1892C655.03 44.468 652.485 43.036 649.795 41.9243C644.399 39.8219 638.668 38.7141 632.877 38.6544C629.922 38.3771 626.943 38.7658 624.158 39.7918L624.395 39.5548Z" fill="#6F3D22"/>
<path opacity="0.15" fill-rule="evenodd" clip-rule="evenodd" d="M16.3456 2133.39C26.541 2130.45 37.1855 2129.41 47.7562 2130.3C64.4944 2131.99 80.8295 2136.48 96.0782 2143.59C100.096 2145.43 104.077 2147.36 107.936 2149.46C116.041 2145.46 142.002 2154.13 148.735 2167.81C149.415 2169.05 149.839 2170.41 149.981 2171.82C150.124 2173.23 149.983 2174.65 149.566 2176L149.399 2176.43L149.232 2176.86C148.732 2177.68 148.11 2178.42 147.386 2179.06C149.224 2180.98 151.043 2182.96 152.777 2185.01C168.511 2204.08 176.617 2228.31 175.53 2253.01C175.326 2263.15 173.119 2273.15 169.038 2282.43C164.956 2291.71 159.079 2300.1 151.745 2307.1C144.588 2314.54 136.102 2320.57 126.724 2324.89C124.1 2326.08 121.402 2327.11 118.649 2327.96L117.889 2328.22C81.8687 2339.2 38.9959 2322.08 10.1711 2300.97C-4.86494 2290.15 -17.9262 2276.83 -28.4402 2261.58C-49.0407 2231.06 -49.6021 2197.55 -28.127 2167.65C-21.1723 2157.98 -10.683 2145.44 0.0721278 2139.71C4.45023 2136.27 9.6921 2134.1 15.2223 2133.44L16.5155 2133.23L16.3456 2133.39ZM136.045 2215.87C136.045 2215.87 132.436 2210.99 130.967 2212.79C129.499 2214.59 130.046 2218.98 132.598 2218.93C135.15 2218.87 136.151 2218.99 136.377 2217.7C136.453 2217.38 136.464 2217.05 136.41 2216.73C136.356 2216.4 136.238 2216.09 136.063 2215.82L136.045 2215.87ZM101.622 2187.07C101.622 2187.07 98.0127 2182.2 96.5442 2184C95.0757 2185.79 95.6229 2190.19 98.1749 2190.13C100.727 2190.08 101.728 2190.19 101.954 2188.91C102.03 2188.59 102.041 2188.26 101.987 2187.93C101.933 2187.61 101.815 2187.3 101.64 2187.02L101.622 2187.07ZM51.6972 2217.95C51.6972 2217.95 47.209 2211.81 45.1536 2213.98C43.0982 2216.15 43.9163 2221.97 47.2305 2221.94C50.5447 2221.91 51.7743 2222 52.0159 2220.39C52.2234 2219.57 52.1094 2218.7 51.6972 2217.95ZM130.627 2193.29C130.627 2193.29 126.139 2187.14 124.065 2189.36C121.991 2191.58 122.846 2197.31 126.142 2197.32C129.437 2197.34 130.704 2197.33 130.945 2195.72C131.153 2194.9 131.039 2194.03 130.627 2193.29ZM133.753 2284.31C133.753 2284.31 129.206 2278.03 127.066 2280.28C124.925 2282.53 125.839 2288.39 129.392 2288.45C132.945 2288.51 134.002 2288.48 134.244 2286.87C134.354 2286.45 134.38 2286.01 134.32 2285.58C134.26 2285.15 134.116 2284.74 133.896 2284.37L133.753 2284.31ZM30.7807 2191.22C27.5036 2191.16 29.2112 2192.43 29.5539 2194.38C29.8965 2196.33 35.577 2202.66 37.3323 2199.99C39.0876 2197.31 33.3912 2191.3 30.8763 2191.26L30.7807 2191.22ZM3.31597 2181.75C3.31597 2181.75 -0.293165 2176.88 -1.76167 2178.68C-3.23017 2180.47 -2.683 2184.87 -0.13095 2184.81C2.4211 2184.76 3.44083 2184.83 3.64793 2183.59C3.72366 2183.27 3.73497 2182.94 3.68115 2182.61C3.62733 2182.29 3.5095 2181.98 3.33455 2181.7L3.31597 2181.75ZM17.1208 2210.78C17.1208 2210.78 13.5116 2205.91 11.9953 2207.69C10.479 2209.47 11.074 2213.88 13.6738 2213.85C16.2737 2213.81 17.1793 2213.89 17.405 2212.6C17.5614 2211.97 17.4661 2211.3 17.1393 2210.74L17.1208 2210.78ZM114.068 2153.22L114.355 2153.34L115.204 2154.55L115.534 2155.12L115.863 2155.68C118.673 2160.63 118.152 2163.95 106.555 2159.38C98.3811 2156.21 88.6773 2152.43 78.5911 2148.51L75.723 2147.39L76.2967 2147.62L73.6198 2146.58L63.3424 2142.58L62.5297 2142.26L61.7649 2141.97L60.9045 2141.63L59.5183 2141.09L58.849 2140.83L57.893 2140.46L57.3672 2140.26L56.5068 2139.92L56.0765 2139.75L54.9293 2139.31L54.4035 2139.1L53.543 2138.77L53.1128 2138.6L51.9656 2138.16L51.4876 2137.97L50.6271 2137.64L50.2447 2137.49L49.0019 2137L48.7151 2136.89L47.7112 2136.5L47.3766 2136.37L46.1816 2135.91L45.7991 2135.76L44.8909 2135.41L44.5085 2135.26L43.2205 2135.03L42.1689 2134.62L41.8343 2134.49L40.5755 2134.33L40.3365 2134.24L39.3327 2133.85L39.0459 2133.74L37.7871 2133.58L36.5283 2133.42L36.1937 2133.29L35.0783 2133.19L33.8674 2133.04L33.5327 2132.91L32.513 2132.85L31.2834 2132.76L30.9966 2132.64L30.0247 2132.6L28.8243 2132.57L28.5853 2132.48L27.5948 2132.48L26.3944 2132.45L25.4517 2132.47L24.3284 2132.53L23.3485 2132.64L23.0617 2132.53L21.9675 2132.65L20.9876 2132.77L19.9227 2132.96L18.0213 2133.32C17.4247 2133.41 16.8367 2133.55 16.2633 2133.74L14.6487 2134.21L13.1297 2134.72L11.8205 2135.26L10.6255 2135.78L9.57386 2136.37L8.61784 2136.98L7.82384 2137.61C7.59012 2137.82 7.37264 2138.05 7.17324 2138.29C7.04692 2138.56 6.94127 2138.83 6.85725 2139.11L6.55984 2139.87C6.44348 2140.1 6.35007 2140.34 6.281 2140.59C6.16465 2140.82 6.07126 2141.06 6.0022 2141.3L5.72339 2142.02C5.72339 2142.02 5.5561 2142.45 5.46316 2142.69C5.43825 2142.95 5.44717 2143.21 5.48973 2143.47C7.11805 2157.26 44.1327 2178.25 57.5411 2183.96C58.5978 2181.48 60.461 2179.44 62.8283 2178.15C67.3384 2176.74 72.2141 2177.11 76.4676 2179.16C73.3614 2177.19 70.1415 2175.41 66.8248 2173.82C47.2792 2164.78 23.4394 2154.91 22.2017 2149.03C20.3956 2140.52 69.036 2140.39 108.882 2161.61C118.026 2167.09 128.174 2170.68 138.728 2172.17L139.015 2172.28L139.302 2172.39L139.637 2172.52L139.923 2172.63L140.21 2172.75L140.449 2172.84L140.561 2172.55L140.672 2172.26C141.166 2171.85 141.594 2171.37 141.944 2170.83C140.529 2160.32 123.126 2150.31 110.812 2149.43L114.068 2153.22ZM-3.25498 2152.23C-20.5851 2167.51 -28.2694 2201.28 -17.8589 2218.09C-10.8902 2229.61 0.808707 2257.54 12.7248 2268.51C24.6409 2279.47 53.4309 2292.04 63.4322 2300.99C69.3411 2306.31 85.5459 2312.62 103.92 2312.77C101.506 2311.26 99.2267 2309.55 97.1083 2307.65C93.0159 2304.02 88.6818 2300.02 84.4832 2296.24C79.6706 2291.78 74.4856 2287.74 68.9846 2284.16C61.5844 2279.51 53.7356 2275.61 45.5564 2272.52C39.5333 2270.18 33.4625 2267.82 27.6626 2264.9C22.9525 2262.74 18.4133 2260.22 14.0841 2257.37C10.7057 2255.44 7.73945 2252.87 5.35488 2249.8C2.9703 2246.73 1.21413 2243.22 0.186727 2239.47C-0.052402 2238.14 -0.154747 2236.8 -0.118759 2235.45C-0.0939588 2233.44 0.479919 2231.47 1.54082 2229.76C6.41896 2222.03 19.4607 2223.3 27.178 2224.54C34.0025 2225.67 40.7488 2227.23 47.3768 2229.21C55.8775 2231.69 64.2773 2234.57 72.5842 2237.69C80.8911 2240.81 88.789 2243.99 97.0826 2246.72C102.962 2249.01 109.02 2250.98 115.17 2252.71C118.646 2253.67 128.568 2256.32 131.609 2253.6C131.917 2253.34 132.17 2253.03 132.352 2252.67C132.612 2252.01 132.177 2250.3 131.932 2249.65C130.743 2246.73 129.107 2244.02 127.083 2241.6C121.208 2234.5 114.378 2228.26 106.788 2223.03C111.032 2245.38 79.0189 2242.23 64.5797 2223.46C54.5198 2210.41 51.4629 2200.58 52.1505 2193.86L51.1467 2193.47C46.7967 2191.78 42.6698 2189.52 38.5429 2187.25C33.2289 2184.36 27.9601 2181.21 22.8798 2177.86C16.1012 2173.56 9.80381 2168.55 4.09613 2162.91C0.915962 2159.91 -1.58998 2156.27 -3.25498 2152.23ZM123.511 2310.65C130.213 2308.89 136.56 2305.97 142.267 2302.04C171.693 2281.84 177.675 2226.55 146.388 2190.12C144.037 2187.39 141.613 2184.85 139.132 2182.45C136.957 2182.68 134.763 2182.68 132.589 2182.44C121.89 2180.66 111.602 2176.96 102.224 2171.51C85.6971 2162.85 67.7313 2157.26 49.2042 2155.02C42.645 2154.09 36.0054 2153.85 29.3959 2154.31C27.4349 2154.41 25.4866 2154.68 23.5748 2155.13L24.3716 2155.77C26.7705 2157.43 29.2728 2158.93 31.8632 2160.28C37.464 2163.28 43.1949 2165.95 48.9258 2168.62C54.6568 2171.28 59.4396 2173.42 64.5225 2176.06C75.3141 2180.91 84.678 2188.46 91.7167 2197.97L92.7259 2198.91L102.796 2204.15C117.011 2211.29 129.997 2220.65 141.266 2231.87C148.413 2239.11 163.638 2255.43 158.63 2266.47C155.767 2272.84 148.066 2274.25 141.839 2274.41C136.923 2274.46 132.012 2274.06 127.169 2273.22C120.326 2272.12 113.546 2270.66 106.859 2268.85C91.0469 2264.79 75.3388 2260.61 59.4554 2257.02C56.2987 2256.27 53.1013 2255.57 49.8632 2254.94C51.9904 2256.26 54.0884 2257.52 56.2528 2258.74C68.5512 2265.89 80.8681 2272.99 93.3816 2279.73L100.475 2283.42L102.339 2284.15C106.559 2285.81 110.597 2287.89 114.391 2290.37C116.723 2291.6 118.788 2293.27 120.464 2295.31C122.14 2297.34 123.394 2299.68 124.153 2302.2C124.675 2304.96 124.388 2307.81 123.327 2310.41L123.511 2310.65ZM100.818 2288.34C100.818 2288.34 91.4751 2284.49 54.147 2262.6C16.8189 2240.71 45.1015 2248.08 108.186 2264.3C171.271 2280.52 159.355 2256.68 138.066 2234.87C127.13 2223.99 114.537 2214.91 100.757 2207.98C100.654 2208.17 100.573 2208.38 100.515 2208.6C100.515 2208.6 100.515 2208.6 100.404 2208.88C100.383 2210.32 100.749 2211.74 101.465 2212.99C102.181 2214.23 103.22 2215.26 104.472 2215.97L105.285 2216.29L105.619 2216.42C127.688 2231.27 140.22 2247.87 136.362 2254.67C130.828 2264.52 111.675 2256.74 71.06 2241.61C30.4444 2226.47 4.78047 2222.99 4.48872 2235.2C4.19697 2247.42 18.1817 2256.6 47.1496 2267.86C76.1174 2279.12 84.6848 2290.49 100.043 2303.78C115.401 2317.07 121.134 2310.11 119.869 2302.47C118.605 2294.82 100.746 2287.82 100.746 2287.82L100.818 2288.34ZM-22.5262 2257.55C8.93367 2304.01 75.543 2337.07 120.38 2319.83C112.081 2321.36 103.602 2321.66 95.2153 2320.72C83.974 2319.49 67.209 2315.34 58.5992 2307.48C55.2908 2304.77 51.7523 2302.37 48.0243 2300.28C42.8325 2297.22 37.5849 2294.3 32.3559 2291.33C23.3073 2286.64 14.8119 2280.96 7.02867 2274.38C-0.0653734 2266.84 -6.01389 2258.3 -10.6267 2249.02C-13.4577 2243.85 -16.1374 2238.57 -18.8357 2233.34C-20.8169 2229.38 -22.8751 2225.33 -25.2361 2221.5C-32.0082 2210.61 -31.8812 2196.13 -29.2817 2183.22C-35.9497 2194 -44.3325 2225.46 -22.6139 2257.35L-22.5262 2257.55ZM59.8412 2194.32C58.9706 2194.96 58.3002 2195.84 57.9085 2196.85C57.5168 2197.85 57.4199 2198.95 57.6292 2200.01C58.0225 2207.21 63.9183 2216.1 68.1621 2221.61C72.3325 2226.89 78.0669 2230.72 84.545 2232.54C87.2192 2233.31 93.2767 2234.29 95.7224 2232.1C96.1313 2231.51 96.4111 2230.84 96.5438 2230.13C96.6764 2229.43 96.6589 2228.7 96.4924 2228C95.4702 2222.96 93.4345 2218.18 90.5089 2213.95C88.8168 2211.29 86.8105 2208.85 84.5335 2206.68C79.9156 2202.44 74.5684 2199.07 68.7509 2196.74C65.8789 2195.3 62.721 2194.53 59.5093 2194.47L59.8412 2194.32Z" fill="#6F3D22"/>
<path opacity="0.15" fill-rule="evenodd" clip-rule="evenodd" d="M1327.7 2356.58C1319.92 2339.14 1307.44 2324.22 1291.64 2313.49C1278.38 2303.64 1262.5 2297.94 1246 2297.12H1243.34H1241.98L1241.22 2296.11C1232.22 2285.77 1220.92 2277.67 1208.23 2272.47C1192.8 2265.62 1176.55 2260.79 1159.88 2258.11C1148.71 2256.2 1137.4 2255.17 1126.07 2255.03C1112.34 2254.74 1098.65 2256.51 1085.46 2260.29C1074.62 2263.09 1064.98 2269.31 1057.97 2278.03C1057.15 2279.15 1056.42 2280.34 1055.78 2281.57C1053.16 2287.35 1051.87 2293.65 1052.01 2299.99C1052.15 2306.34 1053.73 2312.57 1056.61 2318.22C1066.19 2341.28 1087.47 2361.85 1106.68 2377.04C1120.23 2387.6 1134.44 2397.27 1149.24 2406C1166.91 2416.5 1185.1 2426.08 1203.74 2434.73C1231.13 2448.42 1260.66 2457.36 1291.05 2461.15C1310.05 2463.73 1329.41 2461.01 1346.97 2453.29C1355.64 2449.16 1362.9 2442.56 1367.83 2434.32C1372.2 2426.75 1373.98 2417.98 1372.92 2409.31C1371.45 2399.2 1367.15 2389.71 1360.5 2381.94C1351.91 2371.87 1341.21 2363.8 1329.17 2358.3L1328.17 2357.83L1327.81 2356.76L1327.7 2356.58ZM1233.12 2420.72C1230.38 2422.68 1228.22 2425.33 1226.85 2428.41C1225.69 2430.67 1225.12 2433.19 1225.2 2435.73C1219.29 2433.31 1213.37 2430.65 1206.93 2427.7C1183.59 2416.97 1161 2404.68 1139.31 2390.93L1137.42 2388.86C1124.06 2375.09 1127.07 2362.08 1127.07 2362.08C1123.81 2364.49 1121.2 2367.68 1119.51 2371.36C1118.76 2372.86 1118.2 2374.45 1117.85 2376.09L1111.05 2370.89C1086.58 2351.56 1070.56 2332.64 1063.23 2315.03C1057.32 2300.72 1058.15 2289.85 1063.76 2281.93C1069.84 2274.54 1078.13 2269.3 1087.41 2266.97C1099.87 2263.38 1112.81 2261.71 1125.77 2262.01C1164.49 2262.01 1208.88 2274.66 1229.69 2294.4C1204.09 2296.53 1186.42 2308.41 1160.47 2328.63C1194.22 2315.27 1212.43 2306.64 1238.14 2304.98H1238.97C1241.69 2304.98 1244.47 2304.98 1247.36 2304.98C1261.81 2306.12 1275.65 2311.33 1287.26 2320C1300.31 2328.91 1311 2340.86 1318.42 2354.81C1289.16 2352.98 1274.55 2362.61 1244.76 2383.24C1282.95 2370.54 1296.9 2364.15 1326.87 2365.51C1350.51 2377.33 1363.34 2394 1365.23 2409.96C1366.14 2417.04 1364.7 2424.22 1361.15 2430.41C1356.95 2437.4 1350.79 2443 1343.42 2446.49C1322.67 2456.96 1288.09 2458.32 1240.15 2441.65C1237.43 2438.96 1235.37 2435.69 1234.11 2432.08C1232.85 2428.48 1232.43 2424.63 1232.88 2420.84L1233.12 2420.72ZM1099.64 2272.94C1099.64 2272.94 1104.08 2273.59 1104.96 2277.2C1105.85 2280.8 1104.43 2281.63 1099.64 2281.93C1094.86 2282.22 1089.95 2281.93 1091.07 2276.9C1092.2 2271.88 1099.64 2272.94 1099.64 2272.94ZM1347.91 2397.08C1347.91 2397.08 1352.35 2397.79 1353.23 2401.39C1354.12 2405 1352.76 2405.77 1347.91 2406.06C1343.06 2406.36 1338.22 2406.06 1339.34 2401.1C1340.46 2396.13 1347.91 2397.08 1347.91 2397.08ZM1325.15 2374.79C1325.15 2374.79 1329.59 2375.44 1330.47 2379.05C1331.36 2382.65 1330 2383.48 1325.15 2383.78C1320.31 2384.07 1315.46 2383.78 1316.58 2378.75C1317.71 2373.73 1325.15 2374.79 1325.15 2374.79ZM1311.03 2395.6C1311.03 2395.6 1315.46 2396.31 1316.35 2399.85C1317.23 2403.4 1315.81 2404.29 1311.03 2404.58C1306.24 2404.88 1301.33 2404.58 1302.46 2399.56C1303.58 2394.53 1311.03 2395.6 1311.03 2395.6ZM1285.9 2333.41C1285.9 2333.41 1290.34 2334.12 1291.22 2337.73C1292.11 2341.33 1290.69 2342.1 1285.9 2342.46C1281.12 2342.81 1276.21 2342.46 1277.33 2337.43C1278.46 2332.41 1285.9 2333.41 1285.9 2333.41ZM1254.28 2336.19C1254.28 2336.19 1260.19 2337.14 1261.61 2342.1C1263.03 2347.07 1260.9 2348.01 1254.28 2348.6C1247.66 2349.2 1240.92 2348.6 1242.46 2341.69C1243.99 2334.77 1254.28 2336.19 1254.28 2336.19ZM1226.91 2347.19C1226.91 2347.19 1231.34 2347.9 1232.23 2351.44C1233.12 2354.99 1231.76 2355.88 1226.91 2356.17C1222.06 2356.47 1217.22 2356.17 1218.34 2351.15C1219.46 2346.12 1226.91 2347.19 1226.91 2347.19ZM1248.07 2311.72C1248.07 2311.72 1252.51 2312.43 1253.39 2315.98C1254.28 2319.52 1252.86 2320.41 1248.07 2320.7C1243.28 2321 1238.38 2320.7 1239.5 2315.68C1240.62 2310.66 1248.07 2311.72 1248.07 2311.72ZM1214.32 2321.59C1214.32 2321.59 1218.75 2322.3 1219.7 2325.85C1220.65 2329.39 1219.17 2330.28 1214.38 2330.58C1209.59 2330.87 1204.69 2330.58 1205.81 2325.55C1206.93 2320.53 1214.32 2321.59 1214.32 2321.59ZM1206.99 2284.29C1206.99 2284.29 1212.43 2285.12 1213.55 2289.55C1214.67 2293.99 1212.96 2295.05 1206.99 2295.46C1201.02 2295.88 1195.17 2295.46 1196.41 2289.26C1197.65 2283.05 1206.99 2284.35 1206.99 2284.35V2284.29ZM1170.52 2301.73C1170.52 2301.73 1174.95 2302.44 1175.84 2305.99C1176.73 2309.53 1175.37 2310.42 1170.52 2310.71C1165.67 2311.01 1160.82 2310.71 1161.95 2305.69C1163.07 2300.67 1170.52 2301.73 1170.52 2301.73ZM1134.28 2267.39C1134.28 2267.39 1138.72 2268.1 1139.6 2271.64C1140.49 2275.19 1139.07 2276.08 1134.28 2276.37C1129.5 2276.67 1124.59 2276.37 1125.71 2271.35C1126.84 2266.32 1134.28 2267.39 1134.28 2267.39ZM1132.63 2291.03C1133.79 2290.64 1135.03 2290.57 1136.23 2290.83C1137.43 2291.09 1138.53 2291.67 1139.43 2292.51C1142.97 2295.35 1141.79 2298.01 1137.77 2299.6C1133.75 2301.2 1125.95 2301.32 1125.95 2295.7C1125.95 2290.08 1132.57 2291.03 1132.57 2291.03H1132.63ZM1166.32 2276.37C1167.49 2276 1168.73 2275.94 1169.92 2276.2C1171.11 2276.46 1172.22 2277.03 1173.12 2277.85C1176.73 2280.75 1175.48 2283.35 1171.46 2284.94C1167.44 2286.54 1159.64 2286.72 1159.64 2281.1C1159.64 2275.48 1166.32 2276.43 1166.32 2276.43V2276.37Z" fill="#6F3D22"/>
<path opacity="0.15" fill-rule="evenodd" clip-rule="evenodd" d="M120.178 283.796C113.38 268.538 102.455 255.481 88.6349 246.099C77.0384 237.48 63.1453 232.495 48.7144 231.775H46.3875H45.1981L44.5258 230.896C36.6541 221.844 26.7723 214.76 15.6714 210.212C2.17052 204.222 -12.0464 199.999 -26.6277 197.646C-36.4014 195.975 -46.2914 195.076 -56.2062 194.957C-68.2118 194.699 -80.1879 196.25 -91.7313 199.56C-101.209 202.004 -109.643 207.445 -115.777 215.073C-116.493 216.057 -117.133 217.094 -117.69 218.175C-119.988 223.23 -121.116 228.738 -120.991 234.288C-120.865 239.839 -119.49 245.29 -116.966 250.236C-108.589 270.403 -89.9731 288.398 -73.1672 301.688C-61.3143 310.926 -48.8781 319.389 -35.9357 327.026C-20.4798 336.206 -4.56689 344.594 11.7414 352.157C35.7055 364.137 61.5327 371.953 88.1179 375.272C104.746 377.531 121.675 375.15 137.036 368.394C144.624 364.783 150.975 359.008 155.29 351.795C159.108 345.181 160.669 337.503 159.737 329.922C158.457 321.074 154.691 312.771 148.878 305.98C141.358 297.171 132.005 290.111 121.471 285.296L120.592 284.882L120.282 283.951L120.178 283.796ZM37.4415 339.902C35.0509 341.617 33.1592 343.937 31.9602 346.624C30.9397 348.604 30.4414 350.811 30.5123 353.036C25.3413 350.916 20.1702 348.589 14.5338 346.004C-5.88229 336.618 -25.6456 325.872 -44.6231 313.84L-46.2778 312.03C-57.9644 299.981 -55.3272 288.605 -55.3272 288.605C-58.184 290.709 -60.4612 293.502 -61.9461 296.724C-62.6019 298.036 -63.0885 299.426 -63.394 300.861L-69.3407 296.31C-90.7488 279.401 -104.762 262.853 -111.174 247.444C-116.346 234.93 -115.622 225.415 -110.709 218.486C-105.392 212.023 -98.1422 207.438 -90.0249 205.403C-79.123 202.262 -67.807 200.798 -56.4648 201.059C-22.5944 201.059 16.2403 212.125 34.4424 229.397C12.0517 231.258 -3.40984 241.652 -26.1108 259.337C3.41595 247.65 19.3429 240.101 41.8369 238.653H42.5608C44.9395 238.653 47.3699 238.653 49.9038 238.653C62.5445 239.651 74.6451 244.205 84.8084 251.787C96.2241 259.584 105.576 270.036 112.06 282.245C86.463 280.642 73.6906 289.071 47.6285 307.117C81.0335 296 93.2372 290.415 119.454 291.604C140.139 301.946 151.36 316.529 153.015 330.491C153.807 336.684 152.554 342.967 149.447 348.383C145.774 354.497 140.377 359.39 133.933 362.448C115.783 371.601 85.5323 372.79 43.5951 358.208C41.2178 355.859 39.409 352.998 38.3066 349.843C37.2043 346.688 36.8375 343.323 37.2346 340.005L37.4415 339.902ZM-79.3208 210.626C-79.3208 210.626 -75.4425 211.195 -74.6669 214.349C-73.8912 217.503 -75.1322 218.227 -79.3208 218.486C-83.5093 218.744 -87.8014 218.486 -86.8189 214.09C-85.8364 209.695 -79.3208 210.626 -79.3208 210.626ZM137.863 319.218C137.863 319.218 141.742 319.838 142.517 322.993C143.293 326.147 142.104 326.819 137.863 327.078C133.623 327.336 129.383 327.078 130.365 322.734C131.348 318.39 137.863 319.218 137.863 319.218ZM117.955 299.723C117.955 299.723 121.833 300.292 122.609 303.446C123.384 306.6 122.195 307.324 117.955 307.583C113.715 307.841 109.474 307.583 110.457 303.188C111.439 298.792 117.955 299.723 117.955 299.723ZM105.596 317.925C105.596 317.925 109.474 318.546 110.25 321.648C111.026 324.751 109.784 325.526 105.596 325.785C101.407 326.044 97.1155 325.785 98.098 321.39C99.0805 316.994 105.596 317.925 105.596 317.925ZM83.619 263.526C83.619 263.526 87.4974 264.146 88.273 267.3C89.0487 270.455 87.8075 271.127 83.619 271.437C79.4304 271.748 75.1385 271.437 76.121 267.042C77.1035 262.646 83.619 263.526 83.619 263.526ZM55.954 265.956C55.954 265.956 61.125 266.783 62.366 271.127C63.6071 275.471 61.7455 276.298 55.954 276.815C50.1624 277.332 44.2674 276.815 45.6119 270.765C46.9563 264.715 55.954 265.956 55.954 265.956ZM32.012 275.574C32.012 275.574 35.8902 276.195 36.6659 279.297C37.4415 282.4 36.2522 283.176 32.012 283.434C27.7717 283.693 23.5314 283.434 24.5139 279.039C25.4964 274.643 32.012 275.574 32.012 275.574ZM50.5243 244.548C50.5243 244.548 54.4025 245.168 55.1782 248.271C55.9538 251.374 54.7128 252.149 50.5243 252.408C46.3357 252.666 42.0438 252.408 43.0263 248.012C44.0088 243.617 50.5243 244.548 50.5243 244.548ZM20.9976 253.183C20.9976 253.183 24.8759 253.804 25.7033 256.907C26.5306 260.009 25.2379 260.785 21.0494 261.043C16.8608 261.302 12.5688 261.043 13.5513 256.648C14.5338 252.253 20.9976 253.183 20.9976 253.183ZM14.5856 220.554C14.5856 220.554 19.3428 221.278 20.3253 225.156C21.3078 229.035 19.8083 229.965 14.5856 230.327C9.36279 230.689 4.2434 230.327 5.32932 224.898C6.41525 219.468 14.5856 220.606 14.5856 220.606V220.554ZM-17.3199 235.809C-17.3199 235.809 -13.4417 236.429 -12.666 239.532C-11.8903 242.635 -13.0796 243.41 -17.3199 243.669C-21.5602 243.927 -25.8005 243.669 -24.818 239.273C-23.8355 234.878 -17.3199 235.809 -17.3199 235.809ZM-49.0185 205.765C-49.0185 205.765 -45.1402 206.385 -44.3646 209.488C-43.5889 212.591 -44.8299 213.366 -49.0185 213.625C-53.207 213.883 -57.4989 213.625 -56.5164 209.23C-55.5339 204.834 -49.0185 205.765 -49.0185 205.765ZM-50.4664 226.449C-49.4506 226.109 -48.3618 226.05 -47.3151 226.277C-46.2684 226.505 -45.3026 227.011 -44.5197 227.742C-41.4171 230.224 -42.4513 232.551 -45.9676 233.947C-49.4839 235.343 -56.3097 235.447 -56.3097 230.534C-56.3097 225.622 -50.5181 226.449 -50.5181 226.449H-50.4664ZM-20.9913 213.625C-19.9736 213.301 -18.8888 213.25 -17.8453 213.477C-16.8017 213.704 -15.836 214.201 -15.0446 214.918C-11.8903 217.452 -12.9762 219.727 -16.4925 221.123C-20.0088 222.519 -26.8346 222.674 -26.8346 217.762C-26.8346 212.849 -20.9913 213.677 -20.9913 213.677V213.625Z" fill="#6F3D22"/>
<path opacity="0.15" fill-rule="evenodd" clip-rule="evenodd" d="M531.23 2700.63C531.419 2701.76 531.899 2702.81 532.623 2703.69L533.305 2704.37L533.75 2704.81L534.937 2706.59L535.648 2707.66C543.195 2719.3 549.752 2731.55 555.252 2744.29C559.463 2753.78 563.585 2763.36 567.352 2773.06C568.39 2775.81 569.517 2778.66 570.436 2781.48L570.584 2781.98L570.97 2782.37C573.253 2786.55 577.316 2791.86 582.477 2792.1L583.485 2792.15C585.887 2797.88 592.56 2803.9 598.966 2800.93C599.25 2800.92 599.533 2800.97 599.798 2801.07C600.063 2801.17 600.305 2801.33 600.508 2801.53C602.076 2803.4 604.113 2804.82 606.41 2805.65C607.816 2806.05 609.292 2806.13 610.733 2805.89C612.174 2805.64 613.543 2805.09 614.744 2804.25C615.485 2803.81 617.828 2802.59 618.629 2802.8C623.225 2806.21 634.673 2808.82 640.367 2806.09C641.553 2805.97 643.274 2806.03 644.371 2806C647.525 2805.98 650.674 2805.76 653.802 2805.35C663.652 2804.02 673.11 2800.62 681.561 2795.39C684.824 2793.39 687.981 2791.22 691.021 2788.89C703.329 2779.19 706.68 2772.4 707.718 2770C708.756 2767.6 711.633 2767.98 715.607 2763.65C717.986 2760.92 719.882 2757.8 721.212 2754.43C720.54 2735.96 719.927 2717.56 719.373 2699.21C719.017 2685.39 718.721 2671.51 718.81 2657.72L718.839 2656.21C719.966 2645.47 716.081 2641.94 714.094 2640.79C713.399 2639.13 712.448 2637.6 711.277 2636.25L711.069 2636.04C709.622 2634.43 707.931 2633.06 706.057 2631.98C702.722 2630.24 699.213 2628.86 695.588 2627.86C692.882 2627.09 690.339 2625.83 688.085 2624.15C668.126 2608.04 632.805 2592.3 608.871 2608.46C598.877 2615.13 588.734 2621.54 578.532 2627.94C570.377 2633.07 562.221 2638.32 554.214 2643.78C543.537 2651.31 530.162 2661.55 527.789 2675.31C527.101 2679.6 527.437 2684 528.768 2688.15C528.319 2692.47 529.298 2696.83 531.556 2700.54L531.23 2700.63ZM676.341 2642C681.273 2637.91 687.408 2635.55 693.809 2635.27L694.669 2635.3C696.419 2635.8 698.465 2636.43 700.986 2637.35C703.428 2637.91 705.552 2639.41 706.9 2641.52C708.248 2643.63 708.712 2646.19 708.193 2648.64C707.18 2649 706.19 2649.42 705.227 2649.89C702.667 2651.67 700.885 2654.37 700.245 2657.42C698.169 2663.06 696.478 2655.26 688.026 2658.97C685.361 2660.15 683.247 2662.31 682.112 2664.99C680.978 2667.68 680.908 2670.7 681.917 2673.44C683.429 2678.51 679.574 2675.42 676.697 2672.73C673.82 2670.03 670.172 2668.63 663.233 2671.42C660.686 2672.26 658.451 2673.84 656.821 2675.97C655.191 2678.1 654.242 2680.67 654.098 2683.34C654.573 2686.25 655.492 2689.96 653.802 2691.05C652.111 2692.15 651.103 2690.25 648.612 2686.52C646.121 2682.78 640.397 2681.09 633.516 2683.82C630.983 2684.76 628.819 2686.49 627.344 2688.75C625.87 2691.02 625.164 2693.7 625.331 2696.39C625.852 2697.43 626.009 2698.61 625.778 2699.74C625.547 2700.88 624.94 2701.9 624.056 2702.65C622.484 2703.63 621.179 2702.5 618.629 2700.43C614.209 2695.45 608.103 2692.28 601.487 2691.53C591.759 2690.82 587.815 2697.85 585.294 2702.62C582.773 2707.4 580.075 2701.91 575.952 2696.54C574.938 2695.34 573.673 2694.37 572.245 2693.7C570.816 2693.04 569.26 2692.7 567.686 2692.7C566.111 2692.71 564.556 2693.05 563.131 2693.72C561.705 2694.39 560.443 2695.36 559.433 2696.57C554.54 2701.46 555.43 2700.87 552.612 2695.68C549.795 2690.49 544.753 2691.68 539.089 2691.41C533.424 2691.14 532.475 2679.58 536.657 2670.12C540.838 2660.66 556.201 2650.57 569.961 2641.38C583.722 2632.19 591.404 2627.83 604.808 2619.22C618.213 2610.62 624.501 2606.77 640.871 2609.26C656.501 2612.68 671.147 2619.62 683.696 2629.55C684.24 2630.19 684.835 2630.78 685.475 2631.32C683.439 2632.5 681.573 2633.95 679.93 2635.63C676.074 2639.48 676.371 2642.03 676.371 2642.03L676.341 2642ZM618.688 2622.55C618.688 2622.55 620.616 2617.89 625.776 2621.75C630.936 2625.6 638.499 2627.23 638.262 2630.61C638.024 2633.99 627.11 2635.36 621.861 2631.41C620.442 2630.48 619.378 2629.09 618.84 2627.48C618.302 2625.86 618.322 2624.12 618.895 2622.52L618.688 2622.55ZM672.011 2654.52C672.011 2654.52 674.473 2656.39 667.118 2663.5C659.763 2670.62 654.514 2674.15 654.454 2666.85C654.395 2659.56 657.064 2658.73 661.513 2657.07C665.961 2655.41 665.961 2653.69 668.007 2653.06C670.054 2652.44 672.011 2654.52 672.011 2654.52ZM590.81 2633.82C594.606 2633.1 597.75 2634.82 593.657 2641.35C589.565 2647.87 585.591 2654.04 583.159 2649.53C582.509 2648.01 582.195 2646.36 582.236 2644.71C582.278 2643.05 582.675 2641.42 583.4 2639.93C584.126 2638.44 585.163 2637.12 586.441 2636.07C587.719 2635.01 589.21 2634.25 590.81 2633.82ZM561.717 2661.37C562.712 2660.18 563.962 2659.23 565.373 2658.59C566.785 2657.95 568.322 2657.63 569.873 2657.66C574.677 2658.02 568.271 2667.92 565.543 2673.26C562.814 2678.6 560.412 2671.81 559.255 2668.04C559.019 2666.79 559.128 2665.51 559.573 2664.32C560.018 2663.13 560.78 2662.09 561.776 2661.31L561.717 2661.37ZM630.758 2675.96C631.468 2676.36 632.062 2676.93 632.484 2677.63C632.906 2678.33 633.142 2679.12 633.169 2679.93C633.196 2680.75 633.013 2681.55 632.637 2682.27C632.262 2683 631.707 2683.61 631.025 2684.06C625.835 2688.47 618.658 2690.08 618.599 2685.8C618.54 2681.53 619.073 2677.5 623.967 2675.93C628.86 2674.36 630.758 2675.96 630.758 2675.96ZM668.037 2623.85C668.037 2623.85 672.96 2626.34 666.969 2635.06C660.979 2643.78 648.701 2646.45 649.887 2639.04C651.073 2631.62 659.021 2635.24 661.898 2629.28C664.775 2623.32 668.037 2623.85 668.037 2623.85ZM581.468 2672.7C581.468 2672.7 587.4 2666.77 590.188 2669.2C592.975 2671.63 603.83 2673.94 597.453 2679.73C591.077 2685.51 584.79 2685.39 581.587 2681.65C578.384 2677.92 581.498 2672.9 581.498 2672.9L581.468 2672.7ZM613.528 2648.29C613.528 2648.29 614.625 2643.04 618.806 2644.61C622.988 2646.18 629.928 2647.07 625.005 2653.3C620.082 2659.53 612.667 2658.16 612.282 2654.64C612.054 2652.44 612.488 2650.23 613.528 2648.29ZM696.478 2667.83L696.686 2668.04L696.864 2667.86L697.16 2667.57C701.075 2665.55 699.8 2658.34 701.045 2654.37L701.312 2654.1L701.52 2653.89L703.536 2651.88L703.714 2651.7L703.922 2651.49L704.456 2651.61L704.426 2654.61C704.397 2660.15 704.397 2673.68 704.99 2696.27C705.642 2722.31 706.384 2745.12 706.739 2751.41C706.228 2753.39 705.275 2755.24 703.952 2756.8L703.003 2757.75C697.947 2731 694.54 2703.96 692.801 2676.79C694.55 2708.91 693.424 2724.21 695.292 2761.01L695.47 2761.19C695.411 2762.32 694.58 2766.23 686.84 2774.45C681.574 2779.17 675.908 2783.43 669.906 2787.17C648.315 2800.34 632.122 2795.77 629.513 2797.55C626.903 2799.33 616.82 2797.26 613.735 2794.94C603.415 2766 591.611 2740.37 577.435 2720.38C581.379 2726.11 606.558 2780.23 601.783 2796.87C599.5 2797.61 598.076 2796.07 596.327 2794.32C595.279 2793.26 593.945 2792.52 592.487 2792.2C591.029 2791.88 589.509 2791.99 588.112 2792.51C585.531 2793.73 581.617 2789.69 580.43 2786.43C574.711 2762.19 564.664 2739.19 550.773 2718.52C557.15 2731.89 569.665 2759.35 574.38 2783.17C571.326 2783.02 567.797 2776.58 567.797 2776.58C567.797 2776.58 564.386 2766 552.286 2738.71C546.627 2725.69 539.902 2713.15 532.179 2701.23L531.941 2700.99L531.615 2700.66L531.319 2700.37L531.052 2700.1L530.785 2699.83L530.488 2699.54L536.093 2705.14L535.856 2704.9L535.648 2704.7L535.47 2704.52L535.293 2704.34L535.115 2704.16C535.115 2704.16 543.478 2699.18 546.088 2704.34C548.697 2709.5 550.536 2714.72 554.392 2714.25C558.247 2713.77 557.15 2704.31 565.009 2703.63C572.868 2702.95 573.698 2715.11 577.969 2716C582.24 2716.89 586.985 2717.6 588.141 2711.75C589.298 2705.91 591.107 2702.86 599.441 2701.88C607.774 2700.9 613.023 2712.02 618.184 2712.79C623.344 2713.56 630.729 2708.2 629.661 2702.68C628.593 2697.16 629.246 2695.5 636.452 2693.1C643.659 2690.7 643.6 2701.37 647.9 2702.12C652.2 2702.86 661.186 2698.2 659.377 2693.19C657.568 2688.18 656.412 2684.71 663.351 2681.27C670.291 2677.83 672.842 2683.34 676.638 2686.84C680.493 2689.93 687.403 2682.96 685.386 2675.42C683.37 2667.89 691.941 2666.91 693.275 2669.73C695.855 2666.32 696.211 2667.03 696.597 2667.71L696.478 2667.83Z" fill="#6F3D22"/>
<path opacity="0.15" fill-rule="evenodd" clip-rule="evenodd" d="M1334.47 483.966C1335.21 484.999 1335.66 486.206 1335.78 487.468V488.542V489.243L1336.24 491.577L1336.52 492.978C1339.75 508.083 1344.23 522.891 1349.93 537.247C1354.08 548.034 1358.38 558.821 1363.05 569.421C1364.4 572.409 1365.76 575.538 1367.25 578.48L1367.53 578.993V579.6C1369.03 584.69 1370.01 592.068 1366.13 596.318L1365.38 597.158C1368 603.556 1367.48 613.549 1360.11 616.257C1359.87 616.472 1359.69 616.732 1359.56 617.021C1359.43 617.31 1359.36 617.622 1359.36 617.938C1359.6 620.646 1359.12 623.37 1357.96 625.83C1357.16 627.249 1356.07 628.475 1354.74 629.42C1353.42 630.365 1351.9 631.004 1350.3 631.294C1349.37 631.527 1346.56 632.414 1346.1 633.208C1345.16 639.512 1338.21 650.579 1331.57 652.914C1330.55 653.755 1329.24 655.156 1328.35 655.996C1325.85 658.46 1323.2 660.768 1320.41 662.907C1311.61 669.611 1301.49 674.384 1290.72 676.916C1286.57 677.91 1282.38 678.689 1278.15 679.251C1260.83 681.305 1252.84 678.597 1250.14 677.523C1247.43 676.449 1245.47 679.017 1238.93 678.737C1234.9 678.458 1230.96 677.495 1227.25 675.889C1213.25 660.821 1199.24 645.847 1185.23 630.967C1174.63 619.806 1163.93 608.646 1153.01 597.859L1151.79 596.691C1142.45 589.127 1142.73 583.29 1143.39 580.815C1142.64 578.967 1142.18 577.013 1142.03 575.024V574.697C1141.91 572.291 1142.16 569.88 1142.78 567.553C1144.04 563.559 1145.71 559.709 1147.78 556.065C1149.3 553.33 1150.32 550.339 1150.77 547.24C1153.8 518.848 1169.21 478.643 1200.78 472.525C1213.9 469.91 1226.93 466.968 1240 463.98C1250.46 461.598 1261.02 459.31 1271.62 457.302C1285.95 454.827 1304.54 452.352 1317.24 461.318C1321.16 464.16 1324.36 467.888 1326.58 472.198C1330.34 475.251 1332.99 479.449 1334.14 484.153L1334.47 483.966ZM1174.07 552.049C1166.96 552.712 1160.27 555.681 1155.02 560.502L1154.36 561.202C1153.38 562.976 1152.26 565.078 1151 567.786C1149.52 570.152 1149.03 573.005 1149.63 575.73C1150.23 578.455 1151.88 580.834 1154.22 582.356C1155.3 581.838 1156.41 581.386 1157.54 581.001C1160.96 580.391 1164.48 581.109 1167.39 583.009C1173.46 585.811 1168.65 578.34 1178.22 574.604C1181.26 573.44 1184.62 573.472 1187.63 574.695C1190.64 575.918 1193.07 578.239 1194.43 581.188C1197.23 586.371 1197.84 580.908 1197.98 576.518C1198.12 572.129 1199.89 568.16 1207.55 564.891C1210.21 563.543 1213.22 563.032 1216.18 563.424C1219.14 563.815 1221.91 565.092 1224.13 567.086C1226.04 569.747 1228.24 573.39 1230.43 572.923C1232.62 572.456 1231.92 570.168 1230.94 565.265C1229.96 560.361 1233.14 554.524 1240.7 551.256C1243.44 550 1246.5 549.659 1249.45 550.281C1252.39 550.903 1255.06 552.457 1257.05 554.711C1257.45 555.936 1258.26 556.989 1259.33 557.7C1260.41 558.412 1261.69 558.741 1262.98 558.634C1264.99 558.167 1265.13 556.252 1265.5 552.61C1265.06 545.21 1267.37 537.908 1271.99 532.11C1279.09 523.892 1287.73 526.32 1293.47 528.094C1299.21 529.869 1297.02 523.424 1296.04 515.953C1295.89 514.206 1296.12 512.448 1296.73 510.802C1297.33 509.155 1298.28 507.661 1299.52 506.423C1300.77 505.186 1302.26 504.236 1303.91 503.639C1305.56 503.043 1307.32 502.815 1309.07 502.971C1316.77 502.971 1315.6 503.205 1313.74 496.901C1311.87 490.597 1316.77 487.562 1321.02 482.892C1325.27 478.222 1316.91 468.369 1306.17 464.213C1295.43 460.057 1275.4 464.213 1257.33 467.809C1239.26 471.405 1229.78 474.02 1212.45 477.802C1195.13 481.584 1187.14 483.499 1176.22 498.348C1166.6 513.348 1160.54 530.339 1158.47 548.034C1158.55 548.966 1158.55 549.903 1158.47 550.835C1161 550.156 1163.61 549.826 1166.22 549.855C1172.29 549.855 1174.07 552.096 1174.07 552.096V552.049ZM1204.14 491.344C1204.14 491.344 1198.96 489.196 1197.93 496.294C1196.9 503.392 1192.23 510.63 1195.08 513.105C1197.93 515.58 1207.6 508.061 1208.62 500.823C1209 498.969 1208.75 497.04 1207.9 495.346C1207.06 493.653 1205.67 492.293 1203.95 491.484L1204.14 491.344ZM1187.33 558.494C1187.33 558.494 1186.86 561.903 1198.26 561.716C1209.65 561.529 1216.56 560.175 1210.86 554.384C1205.17 548.594 1202.41 550.042 1197.6 552.236C1192.79 554.431 1191.44 553.077 1189.34 554.198C1187.24 555.318 1187.33 558.494 1187.33 558.494ZM1234.96 478.269C1231.41 480.697 1230.29 484.526 1238.65 486.441C1247.01 488.355 1254.99 490.083 1253.36 484.62C1252.67 482.908 1251.62 481.364 1250.28 480.092C1248.95 478.82 1247.35 477.851 1245.61 477.249C1243.86 476.647 1242.01 476.426 1240.17 476.602C1238.34 476.778 1236.56 477.347 1234.96 478.269ZM1279.55 477.055C1277.84 476.903 1276.1 477.138 1274.49 477.744C1272.87 478.35 1271.41 479.312 1270.22 480.557C1266.71 484.62 1279.55 487.375 1285.91 489.429C1292.26 491.484 1288.8 484.246 1286.75 480.37C1285.95 479.203 1284.85 478.277 1283.57 477.692C1282.28 477.108 1280.86 476.887 1279.46 477.055H1279.55ZM1236.69 542.897C1236.44 543.77 1236.43 544.691 1236.64 545.571C1236.86 546.451 1237.3 547.261 1237.92 547.923C1238.54 548.584 1239.32 549.075 1240.18 549.348C1241.04 549.621 1241.96 549.667 1242.85 549.481C1250.42 548.874 1257.33 544.485 1254.01 541.076C1250.7 537.667 1247.1 534.912 1242.01 537.527C1236.92 540.142 1236.69 542.897 1236.69 542.897ZM1166.32 531.223C1166.32 531.223 1164.4 537.06 1175.98 539.208C1187.56 541.356 1199.33 533.791 1192.56 528.888C1185.79 523.985 1182.38 533.091 1175.42 530.663C1168.46 528.234 1166.32 531.223 1166.32 531.223ZM1272.92 501.524C1272.92 501.524 1263.58 501.524 1263.3 505.633C1263.02 509.742 1256.3 520.109 1265.87 519.642C1275.45 519.175 1280.3 514.132 1279.88 508.668C1279.46 503.205 1273.06 501.711 1273.06 501.711L1272.92 501.524ZM1228.47 507.548C1228.47 507.548 1223.47 504.279 1221.42 508.808C1219.36 513.338 1214.6 519.502 1223.38 520.529C1232.16 521.557 1236.92 514.646 1234.45 511.564C1232.9 509.658 1230.82 508.259 1228.47 507.548ZM1178.55 588.239V588.566H1178.27H1177.8C1173.13 590.061 1168.46 583.383 1164.35 581.235H1163.93H1163.61H1160.43H1160.15H1159.82L1159.5 581.748L1161.88 584.083C1166.27 588.426 1176.92 599.073 1194.24 617.331C1214.23 638.345 1231.6 656.883 1236.27 662.113C1238.23 663.274 1240.44 663.977 1242.71 664.168H1244.21C1227.12 639.125 1208.52 615.156 1188.5 592.395C1212.41 619.059 1225.34 630.22 1252.84 660.666V660.946C1253.78 661.786 1257.51 664.215 1270.08 664.588C1277.94 664.162 1285.75 663.052 1293.42 661.273C1320.79 654.642 1329.94 638.298 1333.4 637.644C1336.85 636.99 1343.16 627.418 1343.76 623.168C1329.1 592.255 1318.22 562.79 1313.64 535.893C1315.04 543.504 1337.83 605.937 1354.69 615.277C1357.07 614.063 1356.98 611.728 1356.98 608.973C1356.96 607.31 1357.43 605.68 1358.33 604.279C1359.22 602.878 1360.51 601.767 1362.02 601.081C1365.01 600.007 1364.92 593.749 1363.28 590.247C1348.7 566.662 1338.5 540.64 1333.16 513.432C1338.67 528.981 1350.44 560.455 1365.48 582.916C1367.76 580.394 1365.48 572.549 1365.48 572.549C1365.48 572.549 1359.83 561.529 1347.87 530.522C1342.07 515.811 1337.49 500.645 1334.19 485.18V484.807V484.293V483.826V483.406V482.985V482.518V491.344V490.97V490.644V490.363V490.083V489.803C1334.19 489.803 1323.68 492.465 1325.69 498.582C1327.7 504.699 1330.36 510.256 1326.95 512.918C1323.54 515.579 1316.96 507.267 1310.23 512.918C1303.51 518.568 1312.43 528.795 1309.77 532.857C1307.11 536.92 1303.93 541.216 1298.42 537.527C1292.91 533.838 1289.08 532.857 1281.75 538.648C1274.42 544.438 1279.04 557.326 1275.59 561.996C1272.13 566.666 1262.09 568.253 1258.59 563.07C1255.09 557.887 1253.26 557.093 1245.7 560.875C1238.14 564.658 1246.59 573.016 1243.79 576.985C1240.98 580.955 1230.24 584.363 1227.72 578.993C1225.2 573.623 1223.38 569.981 1215.21 572.736C1207.04 575.491 1209.37 581.842 1209.14 587.586C1208.53 593.049 1197.6 593.002 1193.26 585.484C1188.92 577.966 1181.4 583.943 1182.57 587.212C1177.85 586.558 1178.13 587.399 1178.36 588.239H1178.55Z" fill="#6F3D22"/>
</svg>
