<svg width="66" height="66" viewBox="0 0 66 66" fill="none" xmlns="http://www.w3.org/2000/svg">
<path d="M42.9998 5.85742V34.4288C42.9998 37.5717 40.4284 40.1431 37.2855 40.1431H5.85693V21.9145C7.94265 24.4003 11.1427 25.9431 14.6856 25.8574C17.5713 25.8003 20.1712 24.686 22.1141 22.8289C22.9998 22.086 23.7427 21.1431 24.3141 20.1145C25.3427 18.3717 25.9141 16.3145 25.8569 14.1716C25.7712 10.8288 24.2855 7.88599 21.9713 5.85742H42.9998Z" stroke="white" stroke-width="5" stroke-linecap="round" stroke-linejoin="round"/>
<path d="M62.9998 40.143V48.7144C62.9998 53.4573 59.1712 57.2859 54.4284 57.2859H51.5712C51.5712 54.143 48.9998 51.5716 45.8569 51.5716C42.7141 51.5716 40.1426 54.143 40.1426 57.2859H28.7141C28.7141 54.143 26.1426 51.5716 22.9998 51.5716C19.8569 51.5716 17.2855 54.143 17.2855 57.2859H14.4284C9.68551 57.2859 5.85693 53.4573 5.85693 48.7144V40.143H37.2855C40.4284 40.143 42.9998 37.5716 42.9998 34.4287V14.4287H48.257C50.3142 14.4287 52.1998 15.543 53.2284 17.3145L58.114 25.8573H54.4284C52.8569 25.8573 51.5712 27.143 51.5712 28.7144V37.2859C51.5712 38.8573 52.8569 40.143 54.4284 40.143H62.9998Z" stroke="white" stroke-width="5" stroke-linecap="round" stroke-linejoin="round"/>
<path d="M23.0004 62.9999C26.1563 62.9999 28.7147 60.4415 28.7147 57.2856C28.7147 54.1297 26.1563 51.5713 23.0004 51.5713C19.8445 51.5713 17.2861 54.1297 17.2861 57.2856C17.2861 60.4415 19.8445 62.9999 23.0004 62.9999Z" stroke="white" stroke-width="5" stroke-linecap="round" stroke-linejoin="round"/>
<path d="M45.8569 62.9999C49.0128 62.9999 51.5711 60.4415 51.5711 57.2856C51.5711 54.1297 49.0128 51.5713 45.8569 51.5713C42.701 51.5713 40.1426 54.1297 40.1426 57.2856C40.1426 60.4415 42.701 62.9999 45.8569 62.9999Z" stroke="white" stroke-width="5" stroke-linecap="round" stroke-linejoin="round"/>
<path d="M63.0003 34.4279V40.1422H54.4289C52.8575 40.1422 51.5718 38.8564 51.5718 37.285V28.7136C51.5718 27.1422 52.8575 25.8564 54.4289 25.8564H58.1146L63.0003 34.4279Z" stroke="white" stroke-width="5" stroke-linecap="round" stroke-linejoin="round"/>
<path d="M25.8571 14.4286C25.8571 17.8571 24.3429 20.9143 21.9715 23C19.9429 24.7714 17.3143 25.8571 14.4286 25.8571C8.11429 25.8571 3 20.7429 3 14.4286C3 10.8286 4.65714 7.60001 7.28571 5.5143C9.25714 3.94287 11.7429 3 14.4286 3C20.7429 3 25.8571 8.11429 25.8571 14.4286Z" stroke="white" stroke-width="5" stroke-miterlimit="10" stroke-linecap="round" stroke-linejoin="round"/>
<path d="M15.1427 10.8564V15.1422L11.5713 17.285" stroke="white" stroke-width="5" stroke-miterlimit="10" stroke-linecap="round" stroke-linejoin="round"/>
</svg>
