<svg width="53" height="62" viewBox="0 0 53 62" fill="none" xmlns="http://www.w3.org/2000/svg">
<path d="M18.5556 31.0004C18.5556 35.296 15.0733 38.7782 10.7778 38.7782C6.48223 38.7782 3 35.296 3 31.0004C3 26.7049 6.48223 23.2227 10.7778 23.2227C15.0733 23.2227 18.5556 26.7049 18.5556 31.0004Z" stroke="white" stroke-width="5"/>
<path d="M34.1112 13.8887L18.5557 24.7776" stroke="white" stroke-width="5" stroke-linecap="round"/>
<path d="M34.1112 48.1113L18.5557 37.2224" stroke="white" stroke-width="5" stroke-linecap="round"/>
<path d="M49.6669 51.2221C49.6669 55.5177 46.1847 58.9999 41.8891 58.9999C37.5936 58.9999 34.1113 55.5177 34.1113 51.2221C34.1113 46.9266 37.5936 43.4443 41.8891 43.4443C46.1847 43.4443 49.6669 46.9266 49.6669 51.2221Z" stroke="white" stroke-width="5"/>
<path d="M49.6669 10.7778C49.6669 15.0733 46.1847 18.5556 41.8891 18.5556C37.5936 18.5556 34.1113 15.0733 34.1113 10.7778C34.1113 6.48223 37.5936 3 41.8891 3C46.1847 3 49.6669 6.48223 49.6669 10.7778Z" stroke="white" stroke-width="5"/>
</svg>
