<svg width="93" height="94" viewBox="0 0 93 94" fill="none" xmlns="http://www.w3.org/2000/svg">
<path d="M39.0653 81.8613L62.3686 70.2097C82.726 60.031 92.9047 54.9417 92.9047 46.8822C92.9047 38.8228 82.726 33.7335 62.3686 23.5548L39.0654 11.9032C22.635 3.68798 14.4198 -0.419608 9.65721 0.84125C5.12646 2.04072 1.58787 5.57931 0.388397 10.1101C-0.872461 14.8727 3.23512 23.0879 11.4503 39.5182C12.4684 41.5545 14.55 42.9091 16.8265 42.9197L54.0269 43.0928C56.1197 43.1026 57.8084 44.807 57.7987 46.8999C57.7889 48.9927 56.0845 50.6814 53.9916 50.6717L17.392 50.5013C14.8827 50.4897 12.5725 52.0019 11.4503 54.2463C3.23516 70.6765 -0.872461 78.8918 0.388386 83.6544C1.58785 88.1852 5.12645 91.7238 9.65722 92.9232C14.4198 94.1841 22.6351 90.0765 39.0653 81.8613Z" fill="#B75400"/>
</svg>
