<svg width="86" height="86" viewBox="0 0 86 86" fill="none" xmlns="http://www.w3.org/2000/svg">
<path d="M26.8047 65.7578L37.913 74.3577C39.3464 75.7911 42.5714 76.5078 44.7214 76.5078H58.338C62.638 76.5078 67.2964 73.2828 68.3714 68.9828L76.9713 42.8244C78.763 37.8078 75.538 33.5078 70.163 33.5078H55.8297C53.6797 33.5078 51.888 31.7161 52.2464 29.2078L54.038 17.7411C54.7547 14.5161 52.6047 10.9328 49.3797 9.85776C46.513 8.78276 42.9297 10.2161 41.4964 12.3661L26.8047 34.2244" stroke="#535353" stroke-width="5.375" stroke-miterlimit="10"/>
<path d="M8.53125 65.7492V30.6326C8.53125 25.6159 10.6813 23.8242 15.6979 23.8242H19.2812C24.2979 23.8242 26.4479 25.6159 26.4479 30.6326V65.7492C26.4479 70.7659 24.2979 72.5576 19.2812 72.5576H15.6979C10.6813 72.5576 8.53125 70.7659 8.53125 65.7492Z" stroke="#F4352C" stroke-width="5.375" stroke-linecap="round" stroke-linejoin="round"/>
</svg>
