<svg width="1123" height="631" viewBox="0 0 1123 631" fill="none" xmlns="http://www.w3.org/2000/svg">
<rect width="1123" height="571.716" fill="#0A1224"/>
<rect x="501" y="571.719" width="120" height="51.1621" fill="#0A1224"/>
<rect x="302" y="614.758" width="514" height="16.2419" fill="#0A1224"/>
<rect x="20" y="20.3027" width="1083" height="530.299" fill="#1F2229"/>
<path d="M49.44 498.48C49.44 499.893 49.1067 501.227 48.44 502.48C47.7733 503.733 46.7067 504.76 45.24 505.56C43.7733 506.333 41.8933 506.72 39.6 506.72H34.56V518H30V490.2H39.6C41.7333 490.2 43.5333 490.573 45 491.32C46.4933 492.04 47.6 493.027 48.32 494.28C49.0667 495.533 49.44 496.933 49.44 498.48ZM39.6 503C41.3333 503 42.6267 502.613 43.48 501.84C44.3333 501.04 44.76 499.92 44.76 498.48C44.76 495.44 43.04 493.92 39.6 493.92H34.56V503H39.6ZM70.5491 512.32H58.9091L56.9091 518H52.1491L62.1091 490.16H67.3891L77.3491 518H72.5491L70.5491 512.32ZM69.2691 508.6L64.7491 495.68L60.1891 508.6H69.2691ZM96.9997 518L86.2397 505.56V518H81.6797V490.2H86.2397V502.88L97.0397 490.2H102.76L90.6797 504.12L102.96 518H96.9997ZM135.583 492.76H122.183V500.72C122.743 499.973 123.569 499.347 124.663 498.84C125.783 498.333 126.969 498.08 128.223 498.08C130.463 498.08 132.276 498.56 133.663 499.52C135.076 500.48 136.076 501.693 136.663 503.16C137.276 504.627 137.583 506.173 137.583 507.8C137.583 509.773 137.196 511.533 136.423 513.08C135.676 514.6 134.543 515.8 133.023 516.68C131.529 517.56 129.689 518 127.503 518C124.596 518 122.263 517.28 120.503 515.84C118.743 514.4 117.689 512.493 117.343 510.12H121.783C122.076 511.373 122.729 512.373 123.743 513.12C124.756 513.84 126.023 514.2 127.543 514.2C129.436 514.2 130.849 513.627 131.783 512.48C132.743 511.333 133.223 509.813 133.223 507.92C133.223 506 132.743 504.533 131.783 503.52C130.823 502.48 129.409 501.96 127.543 501.96C126.236 501.96 125.129 502.293 124.223 502.96C123.343 503.6 122.703 504.48 122.303 505.6H117.983V488.76H135.583V492.76ZM144.85 511.8C147.41 509.587 149.423 507.773 150.89 506.36C152.383 504.92 153.623 503.427 154.61 501.88C155.596 500.333 156.09 498.787 156.09 497.24C156.09 495.64 155.703 494.387 154.93 493.48C154.183 492.573 152.996 492.12 151.37 492.12C149.796 492.12 148.57 492.627 147.69 493.64C146.836 494.627 146.383 495.96 146.33 497.64H141.93C142.01 494.6 142.916 492.28 144.65 490.68C146.41 489.053 148.636 488.24 151.33 488.24C154.236 488.24 156.503 489.04 158.13 490.64C159.783 492.24 160.61 494.373 160.61 497.04C160.61 498.96 160.116 500.813 159.13 502.6C158.17 504.36 157.01 505.947 155.65 507.36C154.316 508.747 152.61 510.36 150.53 512.2L148.73 513.8H161.41V517.6H141.97V514.28L144.85 511.8ZM193.326 501.6V505.44H176.886V501.6H193.326ZM212.115 511.8C214.675 509.587 216.689 507.773 218.155 506.36C219.649 504.92 220.889 503.427 221.875 501.88C222.862 500.333 223.355 498.787 223.355 497.24C223.355 495.64 222.969 494.387 222.195 493.48C221.449 492.573 220.262 492.12 218.635 492.12C217.062 492.12 215.835 492.627 214.955 493.64C214.102 494.627 213.649 495.96 213.595 497.64H209.195C209.275 494.6 210.182 492.28 211.915 490.68C213.675 489.053 215.902 488.24 218.595 488.24C221.502 488.24 223.769 489.04 225.395 490.64C227.049 492.24 227.875 494.373 227.875 497.04C227.875 498.96 227.382 500.813 226.395 502.6C225.435 504.36 224.275 505.947 222.915 507.36C221.582 508.747 219.875 510.36 217.795 512.2L215.995 513.8H228.675V517.6H209.235V514.28L212.115 511.8ZM253.752 525.44C251.139 522.933 249.125 519.747 247.712 515.88C246.325 512.013 245.632 507.867 245.632 503.44C245.632 498.907 246.379 494.627 247.872 490.6C249.392 486.573 251.619 483.253 254.552 480.64H259.272V481.08C256.205 483.907 253.899 487.293 252.352 491.24C250.805 495.187 250.032 499.253 250.032 503.44C250.032 507.467 250.752 511.36 252.192 515.12C253.632 518.88 255.725 522.173 258.472 525V525.44H253.752ZM262.159 493V488.84H270.479V518H265.879V493H262.159ZM276.184 511.92V508.48L289.624 489.2H295.144V507.96H298.864V511.92H295.144V518H290.664V511.92H276.184ZM290.864 493.84L281.424 507.96H290.864V493.84ZM305.082 518.28C304.256 518.28 303.562 518 303.002 517.44C302.442 516.88 302.162 516.187 302.162 515.36C302.162 514.533 302.442 513.84 303.002 513.28C303.562 512.72 304.256 512.44 305.082 512.44C305.882 512.44 306.562 512.72 307.122 513.28C307.682 513.84 307.962 514.533 307.962 515.36C307.962 516.187 307.682 516.88 307.122 517.44C306.562 518 305.882 518.28 305.082 518.28ZM312.291 503.04C312.291 498.427 313.064 494.827 314.611 492.24C316.184 489.627 318.877 488.32 322.691 488.32C326.504 488.32 329.184 489.627 330.731 492.24C332.304 494.827 333.091 498.427 333.091 503.04C333.091 507.707 332.304 511.36 330.731 514C329.184 516.613 326.504 517.92 322.691 517.92C318.877 517.92 316.184 516.613 314.611 514C313.064 511.36 312.291 507.707 312.291 503.04ZM328.611 503.04C328.611 500.88 328.464 499.053 328.171 497.56C327.904 496.067 327.344 494.853 326.491 493.92C325.637 492.96 324.371 492.48 322.691 492.48C321.011 492.48 319.744 492.96 318.891 493.92C318.037 494.853 317.464 496.067 317.171 497.56C316.904 499.053 316.771 500.88 316.771 503.04C316.771 505.28 316.904 507.16 317.171 508.68C317.437 510.2 317.997 511.427 318.851 512.36C319.731 513.293 321.011 513.76 322.691 513.76C324.371 513.76 325.637 513.293 326.491 512.36C327.371 511.427 327.944 510.2 328.211 508.68C328.477 507.16 328.611 505.28 328.611 503.04ZM337.396 525.44V525C340.142 522.173 342.236 518.88 343.676 515.12C345.116 511.36 345.836 507.467 345.836 503.44C345.836 499.253 345.062 495.187 343.516 491.24C341.969 487.293 339.662 483.907 336.596 481.08V480.64H341.316C344.249 483.253 346.462 486.573 347.956 490.6C349.476 494.627 350.236 498.907 350.236 503.44C350.236 507.867 349.529 512.013 348.116 515.88C346.729 519.747 344.729 522.933 342.116 525.44H337.396ZM817.449 518H812.889L799.169 497.24V518H794.609V490.16H799.169L812.889 510.88V490.16H817.449V518ZM838.758 518L827.998 505.56V518H823.438V490.2H827.998V502.88L838.798 490.2H844.518L832.438 504.12L844.718 518H838.758ZM857.941 493V488.84H866.261V518H861.661V493H857.941ZM875.045 511.8C877.605 509.587 879.618 507.773 881.085 506.36C882.578 504.92 883.818 503.427 884.805 501.88C885.792 500.333 886.285 498.787 886.285 497.24C886.285 495.64 885.898 494.387 885.125 493.48C884.378 492.573 883.192 492.12 881.565 492.12C879.992 492.12 878.765 492.627 877.885 493.64C877.032 494.627 876.578 495.96 876.525 497.64H872.125C872.205 494.6 873.112 492.28 874.845 490.68C876.605 489.053 878.832 488.24 881.525 488.24C884.432 488.24 886.698 489.04 888.325 490.64C889.978 492.24 890.805 494.373 890.805 497.04C890.805 498.96 890.312 500.813 889.325 502.6C888.365 504.36 887.205 505.947 885.845 507.36C884.512 508.747 882.805 510.36 880.725 512.2L878.925 513.8H891.605V517.6H872.165V514.28L875.045 511.8ZM895.011 493V488.84H903.331V518H898.731V493H895.011ZM927.115 501.6V505.44H910.675V501.6H927.115ZM932.394 493V488.84H940.714V518H936.114V493H932.394ZM946.978 503.04C946.978 498.427 947.751 494.827 949.298 492.24C950.871 489.627 953.565 488.32 957.378 488.32C961.191 488.32 963.871 489.627 965.418 492.24C966.991 494.827 967.778 498.427 967.778 503.04C967.778 507.707 966.991 511.36 965.418 514C963.871 516.613 961.191 517.92 957.378 517.92C953.565 517.92 950.871 516.613 949.298 514C947.751 511.36 946.978 507.707 946.978 503.04ZM963.298 503.04C963.298 500.88 963.151 499.053 962.858 497.56C962.591 496.067 962.031 494.853 961.178 493.92C960.325 492.96 959.058 492.48 957.378 492.48C955.698 492.48 954.431 492.96 953.578 493.92C952.725 494.853 952.151 496.067 951.858 497.56C951.591 499.053 951.458 500.88 951.458 503.04C951.458 505.28 951.591 507.16 951.858 508.68C952.125 510.2 952.685 511.427 953.538 512.36C954.418 513.293 955.698 513.76 957.378 513.76C959.058 513.76 960.325 513.293 961.178 512.36C962.058 511.427 962.631 510.2 962.898 508.68C963.165 507.16 963.298 505.28 963.298 503.04ZM993.674 525.44C991.06 522.933 989.047 519.747 987.634 515.88C986.247 512.013 985.554 507.867 985.554 503.44C985.554 498.907 986.3 494.627 987.794 490.6C989.314 486.573 991.54 483.253 994.474 480.64H999.194V481.08C996.127 483.907 993.82 487.293 992.274 491.24C990.727 495.187 989.954 499.253 989.954 503.44C989.954 507.467 990.674 511.36 992.114 515.12C993.554 518.88 995.647 522.173 998.394 525V525.44H993.674ZM1002.08 493V488.84H1010.4V518H1005.8V493H1002.08ZM1022.35 510.08C1022.61 511.413 1023.19 512.427 1024.07 513.12C1024.95 513.813 1026.13 514.16 1027.63 514.16C1029.52 514.16 1030.91 513.413 1031.79 511.92C1032.67 510.427 1033.11 507.88 1033.11 504.28C1032.47 505.187 1031.56 505.893 1030.39 506.4C1029.24 506.88 1027.99 507.12 1026.63 507.12C1024.89 507.12 1023.32 506.773 1021.91 506.08C1020.49 505.36 1019.37 504.307 1018.55 502.92C1017.75 501.507 1017.35 499.8 1017.35 497.8C1017.35 494.867 1018.2 492.533 1019.91 490.8C1021.64 489.04 1024.01 488.16 1027.03 488.16C1030.65 488.16 1033.23 489.373 1034.75 491.8C1036.29 494.2 1037.07 497.893 1037.07 502.88C1037.07 506.32 1036.77 509.133 1036.19 511.32C1035.63 513.507 1034.64 515.16 1033.23 516.28C1031.81 517.4 1029.85 517.96 1027.35 517.96C1024.49 517.96 1022.29 517.213 1020.75 515.72C1019.2 514.227 1018.33 512.347 1018.15 510.08H1022.35ZM1027.43 503.28C1029.03 503.28 1030.28 502.787 1031.19 501.8C1032.12 500.787 1032.59 499.453 1032.59 497.8C1032.59 495.96 1032.09 494.533 1031.11 493.52C1030.15 492.48 1028.83 491.96 1027.15 491.96C1025.47 491.96 1024.13 492.493 1023.15 493.56C1022.19 494.6 1021.71 495.973 1021.71 497.68C1021.71 499.307 1022.17 500.653 1023.11 501.72C1024.07 502.76 1025.51 503.28 1027.43 503.28ZM1044.5 518.28C1043.67 518.28 1042.98 518 1042.42 517.44C1041.86 516.88 1041.58 516.187 1041.58 515.36C1041.58 514.533 1041.86 513.84 1042.42 513.28C1042.98 512.72 1043.67 512.44 1044.5 512.44C1045.3 512.44 1045.98 512.72 1046.54 513.28C1047.1 513.84 1047.38 514.533 1047.38 515.36C1047.38 516.187 1047.1 516.88 1046.54 517.44C1045.98 518 1045.3 518.28 1044.5 518.28ZM1051.7 503.04C1051.7 498.427 1052.48 494.827 1054.02 492.24C1055.6 489.627 1058.29 488.32 1062.1 488.32C1065.92 488.32 1068.6 489.627 1070.14 492.24C1071.72 494.827 1072.5 498.427 1072.5 503.04C1072.5 507.707 1071.72 511.36 1070.14 514C1068.6 516.613 1065.92 517.92 1062.1 517.92C1058.29 517.92 1055.6 516.613 1054.02 514C1052.48 511.36 1051.7 507.707 1051.7 503.04ZM1068.02 503.04C1068.02 500.88 1067.88 499.053 1067.58 497.56C1067.32 496.067 1066.76 494.853 1065.9 493.92C1065.05 492.96 1063.78 492.48 1062.1 492.48C1060.42 492.48 1059.16 492.96 1058.3 493.92C1057.45 494.853 1056.88 496.067 1056.58 497.56C1056.32 499.053 1056.18 500.88 1056.18 503.04C1056.18 505.28 1056.32 507.16 1056.58 508.68C1056.85 510.2 1057.41 511.427 1058.26 512.36C1059.14 513.293 1060.42 513.76 1062.1 513.76C1063.78 513.76 1065.05 513.293 1065.9 512.36C1066.78 511.427 1067.36 510.2 1067.62 508.68C1067.89 507.16 1068.02 505.28 1068.02 503.04ZM1076.81 525.44V525C1079.56 522.173 1081.65 518.88 1083.09 515.12C1084.53 511.36 1085.25 507.467 1085.25 503.44C1085.25 499.253 1084.48 495.187 1082.93 491.24C1081.38 487.293 1079.08 483.907 1076.01 481.08V480.64H1080.73C1083.66 483.253 1085.88 486.573 1087.37 490.6C1088.89 494.627 1089.65 498.907 1089.65 503.44C1089.65 507.867 1088.94 512.013 1087.53 515.88C1086.14 519.747 1084.14 522.933 1081.53 525.44H1076.81Z" fill="#202020"/>
</svg>
