<svg width="77" height="96" viewBox="0 0 77 96" fill="none" xmlns="http://www.w3.org/2000/svg">
<path fill-rule="evenodd" clip-rule="evenodd" d="M38.4 0C17.1923 0 0 19.2124 0 40.8C0 62.2184 12.256 85.4996 31.3779 94.4373C35.8356 96.5209 40.9644 96.5209 45.4221 94.4373C64.544 85.4996 76.8 62.2184 76.8 40.8C76.8 19.2124 59.6077 0 38.4 0ZM38.4 48C43.7019 48 48 43.7019 48 38.4C48 33.0981 43.7019 28.8 38.4 28.8C33.0981 28.8 28.8 33.0981 28.8 38.4C28.8 43.7019 33.0981 48 38.4 48Z" fill="#B75400"/>
</svg>
