<svg width="302" height="302" viewBox="0 0 302 302" fill="none" xmlns="http://www.w3.org/2000/svg">
<circle cx="151" cy="151" r="149.5" fill="#F1F1F1" stroke="#E8E8E8" stroke-width="3"/>
<mask id="mask0_153_52" style="mask-type:alpha" maskUnits="userSpaceOnUse" x="3" y="3" width="296" height="296">
<circle cx="151" cy="151" r="148" fill="#F1F1F1"/>
</mask>
<g mask="url(#mask0_153_52)">
<path d="M151.693 157.376C181.068 157.376 204.881 133.563 204.881 104.188C204.881 74.813 181.068 51 151.693 51C122.318 51 98.5049 74.813 98.5049 104.188C98.5049 133.563 122.318 157.376 151.693 157.376Z" fill="white"/>
<path d="M151.695 183.968C98.4013 183.968 55 219.71 55 263.75C55 266.728 57.3403 299.068 60.3188 299.068H243.072C246.051 299.068 248.391 266.728 248.391 263.75C248.391 219.71 204.99 183.968 151.695 183.968Z" fill="white"/>
</g>
</svg>
