<svg width="66" height="62" viewBox="0 0 66 62" fill="none" xmlns="http://www.w3.org/2000/svg">
<path d="M42.8612 40.418L40.7459 38.2906L40.7459 38.2906L42.8612 40.418ZM44.3615 38.9262L46.4767 41.0535L46.4767 41.0535L44.3615 38.9262ZM52.3222 37.8828L50.8894 40.5185L50.8894 40.5185L52.3222 37.8828ZM58.6157 41.3039L60.0485 38.6682L60.0485 38.6682L58.6157 41.3039ZM60.389 52.0262L62.5043 54.1536L62.5043 54.1536L60.389 52.0262ZM55.7096 56.6791L53.5943 54.5518L53.5943 54.5518L55.7096 56.6791ZM51.3454 58.8852L51.6238 61.8722L51.6238 61.8722L51.3454 58.8852ZM18.8624 44.9228L20.9776 42.7954L18.8624 44.9228ZM3.00951 15.3385L0.0143449 15.5087L0.0143451 15.5087L3.00951 15.3385ZM23.3929 21.0602L25.5082 23.1876L25.5082 23.1876L23.3929 21.0602ZM24.3377 20.1208L22.2224 17.9934L22.2224 17.9934L24.3377 20.1208ZM24.854 11.3785L27.2556 9.58065L27.2556 9.58065L24.854 11.3785ZM20.7001 5.82991L18.2986 7.6278L18.2986 7.6278L20.7001 5.82991ZM10.4495 4.89355L12.5648 7.0209L12.5648 7.0209L10.4495 4.89355ZM5.27903 10.0346L3.16376 7.9073L3.16376 7.9073L5.27903 10.0346ZM29.5609 34.285L27.4456 36.4124L27.4456 36.4124L29.5609 34.285ZM44.9765 42.5453L46.4767 41.0535L42.2462 36.7988L40.7459 38.2906L44.9765 42.5453ZM50.8894 40.5185L57.1829 43.9397L60.0485 38.6682L53.755 35.247L50.8894 40.5185ZM58.2738 49.8989L53.5943 54.5518L57.8249 58.8065L62.5043 54.1536L58.2738 49.8989ZM51.0669 55.8981C46.4177 56.3315 34.2257 55.9683 20.9776 42.7954L16.7471 47.0502C31.4778 61.6972 45.538 62.4396 51.6238 61.8722L51.0669 55.8981ZM20.9776 42.7954C8.31895 30.2086 6.26035 19.667 6.00468 15.1682L0.0143451 15.5087C0.352587 21.4603 3.02224 33.4032 16.7471 47.0502L20.9776 42.7954ZM25.5082 23.1876L26.453 22.2481L22.2224 17.9934L21.2776 18.9329L25.5082 23.1876ZM27.2556 9.58065L23.1017 4.03203L18.2986 7.6278L22.4524 13.1764L27.2556 9.58065ZM8.33421 2.7662L3.16376 7.9073L7.39431 12.162L12.5648 7.0209L8.33421 2.7662ZM23.3929 21.0602C21.2776 18.9329 21.2748 18.9357 21.2719 18.9386C21.2709 18.9396 21.2681 18.9424 21.2661 18.9444C21.2622 18.9483 21.2583 18.9523 21.2543 18.9564C21.2462 18.9645 21.238 18.973 21.2295 18.9818C21.2126 18.9994 21.1948 19.0183 21.1762 19.0385C21.139 19.0788 21.0986 19.1245 21.0558 19.1756C20.9702 19.2777 20.8746 19.4018 20.7751 19.5488C20.5754 19.8435 20.3611 20.2282 20.1804 20.7078C19.811 21.6884 19.6223 22.9578 19.8621 24.503C20.3293 27.5149 22.3826 31.3781 27.4456 36.4124L31.6761 32.1577C27.005 27.5131 25.9743 24.7639 25.7911 23.5831C25.7469 23.2982 25.7516 23.105 25.7629 22.9916C25.7743 22.8786 25.7941 22.826 25.7951 22.8233C25.7967 22.8191 25.785 22.8512 25.7423 22.9142C25.7212 22.9453 25.6928 22.9838 25.6547 23.0292C25.6356 23.052 25.6141 23.0766 25.5898 23.1029C25.5776 23.1161 25.5648 23.1298 25.5512 23.1439C25.5444 23.1509 25.5374 23.1581 25.5303 23.1654C25.5267 23.169 25.5231 23.1727 25.5194 23.1764C25.5175 23.1782 25.5147 23.181 25.5138 23.182C25.511 23.1848 25.5082 23.1876 23.3929 21.0602ZM27.4456 36.4124C32.5106 41.4487 36.3911 43.4839 39.4065 43.9464C40.9519 44.1834 42.2198 43.9969 43.1991 43.6321C43.6783 43.4535 44.0632 43.2417 44.3585 43.0439C44.5058 42.9453 44.6302 42.8505 44.7327 42.7656C44.7839 42.7231 44.8298 42.6831 44.8703 42.6461C44.8906 42.6277 44.9096 42.61 44.9273 42.5932C44.9361 42.5847 44.9446 42.5765 44.9528 42.5686C44.9569 42.5646 44.9609 42.5606 44.9649 42.5568C44.9668 42.5548 44.9697 42.552 44.9707 42.551C44.9736 42.5482 44.9765 42.5453 42.8612 40.418C40.7459 38.2906 40.7487 38.2878 40.7516 38.285C40.7525 38.2841 40.7553 38.2813 40.7572 38.2795C40.7609 38.2758 40.7646 38.2722 40.7682 38.2687C40.7756 38.2615 40.7828 38.2546 40.7899 38.2478C40.804 38.2343 40.8177 38.2216 40.831 38.2095C40.8574 38.1854 40.8821 38.1641 40.9048 38.1453C40.9504 38.1075 40.9886 38.0795 41.0193 38.059C41.0816 38.0173 41.1118 38.0068 41.1046 38.0095C41.0987 38.0117 41.042 38.0324 40.9239 38.0441C40.8053 38.0558 40.6066 38.0603 40.3162 38.0158C39.1149 37.8315 36.3452 36.8003 31.6761 32.1577L27.4456 36.4124ZM23.1017 4.03203C19.563 -0.694901 12.5862 -1.46168 8.33421 2.7662L12.5648 7.0209C14.0742 5.52003 16.8106 5.64023 18.2986 7.6278L23.1017 4.03203ZM6.00468 15.1683C5.95087 14.2214 6.38071 13.1698 7.39431 12.162L3.16376 7.9073C1.32057 9.74003 -0.163989 12.3707 0.0143449 15.5087L6.00468 15.1683ZM53.5943 54.5518C52.75 55.3913 51.888 55.8216 51.0669 55.8981L51.6238 61.8722C54.1983 61.6322 56.2895 60.3331 57.8249 58.8065L53.5943 54.5518ZM26.453 22.2481C29.8923 18.8284 30.138 13.4309 27.2556 9.58065L22.4524 13.1764C23.6312 14.7511 23.4381 16.7847 22.2224 17.9934L26.453 22.2481ZM57.1828 43.9397C59.5881 45.2472 59.9067 48.2752 58.2738 49.8989L62.5043 54.1536C67.1887 49.4958 65.7263 41.7547 60.0485 38.6682L57.1828 43.9397ZM46.4767 41.0535C47.5684 39.9681 49.3479 39.6805 50.8894 40.5185L53.7551 35.247C49.9893 33.1999 45.3026 33.7598 42.2462 36.7988L46.4767 41.0535Z" fill="#293847"/>
</svg>
