<svg width="70" height="70" viewBox="0 0 70 70" fill="none" xmlns="http://www.w3.org/2000/svg">
<path d="M49.8867 7.65619L51.963 5.57998C55.4029 2.14001 60.9802 2.14001 64.4202 5.57998C67.8602 9.01996 67.8602 14.5973 64.4202 18.0372L62.344 20.1135M49.8867 7.65619C49.8867 7.65619 50.1463 12.0681 54.0392 15.961C57.9321 19.8539 62.344 20.1135 62.344 20.1135M49.8867 7.65619L30.7992 26.7438C29.5063 28.0366 28.8599 28.683 28.304 29.3958C27.6482 30.2366 27.0859 31.1463 26.6272 32.1089C26.2383 32.9248 25.9492 33.7921 25.3711 35.5266L23.5199 41.08M62.344 20.1135L43.2564 39.201C41.9636 40.4939 41.3172 41.1403 40.6044 41.6962C39.7636 42.352 38.8539 42.9143 37.8913 43.373C37.0754 43.7619 36.2081 44.051 34.4736 44.6291L28.9202 46.4803M28.9202 46.4803L25.3269 47.678C24.4733 47.9626 23.5322 47.7404 22.896 47.1042C22.2598 46.468 22.0376 45.5269 22.3222 44.6733L23.5199 41.08M28.9202 46.4803L23.5199 41.08" stroke="#8EA3B9" stroke-width="6"/>
<path d="M67 35C67 52.6731 52.6731 67 35 67C17.3269 67 3 52.6731 3 35C3 17.3269 17.3269 3 35 3" stroke="#8EA3B9" stroke-width="6" stroke-linecap="round"/>
</svg>
