 <svg width="70" height="58" viewBox="0 0 70 58" fill="none" xmlns="http://www.w3.org/2000/svg">
<path d="M50.992 3H18.976C6.71386 3 3.28814 5.94547 3 17.4072C9.17909 17.4072 14.1736 22.4337 14.1736 28.6128C14.1736 34.7919 9.17909 39.7864 3 39.8184C3.28814 51.2801 6.71386 54.2256 18.976 54.2256H50.992C63.7984 54.2256 67 51.024 67 38.2176V19.008C67 6.2016 63.7984 3 50.992 3Z" stroke="#8EA3B9" stroke-width="6" stroke-linecap="round" stroke-linejoin="round"/>
<path d="M25.374 3V14.2056" stroke="#8EA3B9" stroke-width="6" stroke-linecap="round" stroke-linejoin="round"/>
<path d="M25.374 43.0195V54.2251" stroke="#8EA3B9" stroke-width="6" stroke-linecap="round" stroke-linejoin="round"/>
<path d="M44.6857 20.0647L46.6707 24.0667C46.8628 24.4509 47.247 24.739 47.6632 24.8031L52.0814 25.4434C53.1699 25.6035 53.6181 26.9481 52.8177 27.7165L49.6161 30.8221C49.296 31.1102 49.1679 31.5584 49.2319 32.0067L50.0003 36.3929C50.1924 37.4814 49.0398 38.3138 48.0794 37.8016L44.1414 35.7205C43.7572 35.5284 43.277 35.5284 42.8928 35.7205L38.9548 37.8016C37.9623 38.3138 36.8417 37.4814 37.0338 36.3929L37.8022 32.0067C37.8663 31.5584 37.7382 31.1422 37.418 30.8221L34.2485 27.7165C33.4481 26.9481 33.8963 25.6035 34.9848 25.4434L39.403 24.8031C39.8513 24.739 40.2034 24.4829 40.3955 24.0667L42.3485 20.0647C42.7967 19.0722 44.2054 19.0722 44.6857 20.0647Z" stroke="#8EA3B9" stroke-width="6" stroke-linecap="round" stroke-linejoin="round"/>
</svg>
