<svg width="84" height="70" viewBox="0 0 84 70" fill="none" xmlns="http://www.w3.org/2000/svg">
<path d="M69.4162 19.6134V39.0588C69.4162 50.6882 62.7708 55.6722 52.8027 55.6722H19.6135C17.9144 55.6722 16.2908 55.5213 14.7805 55.1815C13.8365 55.0305 12.9304 54.7662 12.0997 54.4641C6.43599 52.3497 3 47.4411 3 39.0588V19.6134C3 7.98391 9.64538 3 19.6135 3H52.8027C61.2605 3 67.3395 6.58699 68.9631 14.7805C69.2274 16.2908 69.4162 17.8387 69.4162 19.6134Z" stroke="#8EA3B9" stroke-width="6" stroke-miterlimit="10" stroke-linecap="round" stroke-linejoin="round"/>
<path d="M80.7473 30.9415V50.387C80.7473 62.0164 74.1019 67.0003 64.1338 67.0003H30.9446C28.1505 67.0003 25.6207 66.623 23.4308 65.7923C18.9376 64.1309 15.8792 60.695 14.7842 55.1823C16.2945 55.5221 17.9181 55.6729 19.6172 55.6729H52.8065C62.7746 55.6729 69.4199 50.689 69.4199 39.0596V19.6141C69.4199 17.8395 69.2689 16.2538 68.9669 14.7812C76.1409 16.2916 80.7473 21.351 80.7473 30.9415Z" stroke="#8EA3B9" stroke-width="6" stroke-miterlimit="10" stroke-linecap="round" stroke-linejoin="round"/>
<path d="M36.183 39.323C41.6882 39.323 46.1512 34.8601 46.1512 29.3549C46.1512 23.8496 41.6882 19.3867 36.183 19.3867C30.6778 19.3867 26.2148 23.8496 26.2148 29.3549C26.2148 34.8601 30.6778 39.323 36.183 39.323Z" stroke="#8EA3B9" stroke-width="6" stroke-miterlimit="10" stroke-linecap="round" stroke-linejoin="round"/>
<path d="M14.5928 21.0479V37.6614" stroke="#8EA3B9" stroke-width="6" stroke-miterlimit="10" stroke-linecap="round" stroke-linejoin="round"/>
<path d="M57.793 21.0488V37.6624" stroke="#8EA3B9" stroke-width="6" stroke-miterlimit="10" stroke-linecap="round" stroke-linejoin="round"/>
</svg>
