<svg width="78" height="70" viewBox="0 0 78 70" fill="none" xmlns="http://www.w3.org/2000/svg">
<path d="M6.55566 24.3333C6.55566 14.2767 6.55566 9.24839 9.67986 6.12419C12.8041 3 17.8324 3 27.889 3H49.2223C59.279 3 64.3073 3 67.4315 6.12419C70.5557 9.24839 70.5557 14.2767 70.5557 24.3333V42.1111C70.5557 48.8155 70.5557 52.1677 68.4729 54.2505C66.3901 56.3333 63.0379 56.3333 56.3334 56.3333H20.7779C14.0735 56.3333 10.7213 56.3333 8.63846 54.2505C6.55566 52.1677 6.55566 48.8155 6.55566 42.1111V24.3333Z" stroke="#8EA3B9" stroke-width="6"/>
<path d="M74.1111 67H3" stroke="#8EA3B9" stroke-width="6" stroke-linecap="round"/>
<path d="M49.222 45.667H27.8887" stroke="#8EA3B9" stroke-width="6" stroke-linecap="round"/>
</svg>
