<svg width="61" height="70" viewBox="0 0 61 70" fill="none" xmlns="http://www.w3.org/2000/svg">
<path d="M13.3347 59.6329C15.9584 56.8173 19.9579 57.0412 22.2616 60.1129L25.4932 64.4323C28.0849 67.8559 32.2763 67.8559 34.868 64.4323L38.0996 60.1129C40.4033 57.0412 44.4028 56.8173 47.0265 59.6329C52.7218 65.7122 57.3612 63.6964 57.3612 55.1855V19.126C57.3932 6.2316 54.3856 3 42.2911 3H18.1021C6.00762 3 3 6.2316 3 19.126V55.1535C3 63.6964 7.67142 65.6802 13.3347 59.6329Z" stroke="#8EA3B9" stroke-width="6" stroke-linecap="round" stroke-linejoin="round"/>
<path d="M20.5977 38.1956L39.7953 18.998" stroke="#8EA3B9" stroke-width="6" stroke-linecap="round" stroke-linejoin="round"/>
<path d="M39.7775 38.1955H39.8063" stroke="#8EA3B9" stroke-width="6" stroke-linecap="round" stroke-linejoin="round"/>
<path d="M20.5803 20.5978H20.609" stroke="#8EA3B9" stroke-width="6" stroke-linecap="round" stroke-linejoin="round"/>
</svg>
