<svg width="64" height="70" viewBox="0 0 64 70" fill="none" xmlns="http://www.w3.org/2000/svg">
<path d="M19 35.6406H41.4" stroke="#8EA3B9" stroke-width="6" stroke-miterlimit="10" stroke-linecap="round" stroke-linejoin="round"/>
<path d="M19 48.4404H33.016" stroke="#8EA3B9" stroke-width="6" stroke-miterlimit="10" stroke-linecap="round" stroke-linejoin="round"/>
<path d="M25.4 15.8H38.2C44.6 15.8 44.6 12.6 44.6 9.39999C44.6 3 41.4 3 38.2 3H25.4C22.2 3 19 3 19 9.39999C19 15.8 22.2 15.8 25.4 15.8Z" stroke="#8EA3B9" stroke-width="6" stroke-miterlimit="10" stroke-linecap="round" stroke-linejoin="round"/>
<path d="M44.6 9.46387C55.2559 10.0399 60.5999 13.9759 60.5999 28.5998V47.7998C60.5999 60.5998 57.3999 66.9998 41.4 66.9998H22.2C6.2 66.9998 3 60.5998 3 47.7998V28.5998C3 14.0079 8.344 10.0399 19 9.46387" stroke="#8EA3B9" stroke-width="6" stroke-miterlimit="10" stroke-linecap="round" stroke-linejoin="round"/>
</svg>
