<svg width="70" height="78" viewBox="0 0 70 78" fill="none" xmlns="http://www.w3.org/2000/svg">
<path d="M18.04 33.2305L35 43.0545L51.832 33.2945" stroke="#8EA3B9" stroke-width="6" stroke-linecap="round" stroke-linejoin="round"/>
<path d="M35 60.4625V43.0225" stroke="#8EA3B9" stroke-width="6" stroke-linecap="round" stroke-linejoin="round"/>
<path d="M31.0324 23.7272L20.7924 29.4231C18.4884 30.7031 16.5684 33.9351 16.5684 36.5911V47.4391C16.5684 50.0951 18.4564 53.3272 20.7924 54.6072L31.0324 60.3032C33.2084 61.5192 36.7924 61.5192 39.0004 60.3032L49.2404 54.6072C51.5444 53.3272 53.4644 50.0951 53.4644 47.4391V36.5592C53.4644 33.9032 51.5764 30.6711 49.2404 29.3911L39.0004 23.6951C36.7924 22.4791 33.2084 22.4792 31.0324 23.7272Z" stroke="#8EA3B9" stroke-width="6" stroke-linecap="round" stroke-linejoin="round"/>
<path d="M9.82352 16.0028C10.9862 14.8224 10.9719 12.923 9.79158 11.7602C8.61122 10.5975 6.71178 10.6118 5.54906 11.7922L9.82352 16.0028ZM22.2 9.31908L20.0627 7.21386C18.9124 8.38168 18.9124 10.2566 20.0628 11.4244L22.2 9.31908ZM26.2864 17.7425C27.4492 18.9228 29.3486 18.9371 30.529 17.7744C31.7093 16.6117 31.7236 14.7123 30.5609 13.5319L26.2864 17.7425ZM30.561 5.10578C31.7237 3.92538 31.7093 2.02594 30.5289 0.863262C29.3485 -0.299419 27.4491 -0.285056 26.2864 0.895342L30.561 5.10578ZM35 71.1111C27.3715 71.1111 21.9564 71.1046 17.8493 70.544C13.8333 69.9959 11.5183 68.9689 9.82352 67.2484L5.54906 71.459C8.54062 74.496 12.3399 75.8477 17.038 76.4889C21.645 77.1177 27.5436 77.1111 35 77.1111V71.1111ZM0 41.6256C0 49.199 -0.00618553 55.1763 0.611755 59.8422C1.24052 64.5898 2.56368 68.4283 5.54906 71.459L9.82352 67.2484C8.12261 65.5217 7.10263 63.1531 6.55982 59.0545C6.00619 54.8741 6 49.3661 6 41.6256H0ZM64 41.6256C64 49.3661 63.9938 54.8741 63.4402 59.0545C62.8974 63.1531 61.8774 65.5217 60.1765 67.2484L64.4509 71.459C67.4363 68.4283 68.7595 64.5898 69.3882 59.8422C70.0062 55.1763 70 49.199 70 41.6256H64ZM35 77.1111C42.4564 77.1111 48.355 77.1177 52.962 76.4889C57.6601 75.8477 61.4594 74.496 64.4509 71.459L60.1765 67.2484C58.4817 68.9689 56.1667 69.9959 52.1507 70.544C48.0436 71.1046 42.6285 71.1111 35 71.1111V77.1111ZM35 12.1401C42.6285 12.1401 48.0436 12.1466 52.1507 12.7072C56.1667 13.2553 58.4817 14.2823 60.1765 16.0028L64.4509 11.7922C61.4594 8.75524 57.6601 7.40353 52.962 6.76231C48.355 6.13352 42.4564 6.14008 35 6.14008V12.1401ZM70 41.6256C70 34.0523 70.0062 28.0749 69.3882 23.409C68.7595 18.6614 67.4363 14.8229 64.4509 11.7922L60.1765 16.0028C61.8774 17.7295 62.8974 20.0981 63.4402 24.1968C63.9938 28.3771 64 33.8851 64 41.6256H70ZM6 41.6256C6 33.8851 6.00619 28.3771 6.55982 24.1968C7.10263 20.0981 8.12262 17.7295 9.82352 16.0028L5.54906 11.7922C2.56368 14.8229 1.24052 18.6614 0.611755 23.409C-0.00618553 28.0749 0 34.0523 0 41.6256H6ZM35 6.14008C29.9709 6.14008 25.678 6.13925 22.0484 6.32291L22.3516 12.3152C25.7967 12.1409 29.9195 12.1401 35 12.1401V6.14008ZM20.0628 11.4244L26.2864 17.7425L30.5609 13.5319L24.3372 7.21379L20.0628 11.4244ZM24.3373 11.4243L30.561 5.10578L26.2864 0.895342L20.0627 7.21386L24.3373 11.4243Z" fill="#8EA3B9"/>
</svg>
