<svg width="64" height="70" viewBox="0 0 64 70" fill="none" xmlns="http://www.w3.org/2000/svg">
<path d="M18.2383 3V12.1429" stroke="#8EA3B9" stroke-width="6" stroke-miterlimit="10" stroke-linecap="round" stroke-linejoin="round"/>
<path d="M42.6191 3V12.1429" stroke="#8EA3B9" stroke-width="6" stroke-miterlimit="10" stroke-linecap="round" stroke-linejoin="round"/>
<path d="M4.52441 24.6074H56.3339" stroke="#8EA3B9" stroke-width="6" stroke-miterlimit="10" stroke-linecap="round" stroke-linejoin="round"/>
<path d="M60.9054 54.8096C60.9054 57.0953 60.2654 59.2591 59.1377 61.0877C57.0349 64.6229 53.1644 67.0001 48.7149 67.0001C45.6368 67.0001 42.833 65.8725 40.6997 63.9525C39.7549 63.1601 38.932 62.1848 38.292 61.0877C37.1644 59.2591 36.5244 57.0953 36.5244 54.8096C36.5244 48.0744 41.9797 42.6191 48.7149 42.6191C52.372 42.6191 55.633 44.2343 57.8577 46.7639C59.7473 48.9277 60.9054 51.7315 60.9054 54.8096Z" stroke="#8EA3B9" stroke-width="6" stroke-miterlimit="10" stroke-linecap="round" stroke-linejoin="round"/>
<path d="M43.96 54.8099L46.9771 57.8271L53.4685 51.8232" stroke="#8EA3B9" stroke-width="5" stroke-linecap="round" stroke-linejoin="round"/>
<path d="M57.8571 22.8094V46.7636C55.6324 44.2341 52.3714 42.6189 48.7143 42.6189C41.979 42.6189 36.5238 48.0741 36.5238 54.8094C36.5238 57.0951 37.1638 59.2589 38.2914 61.0875C38.9314 62.1846 39.7543 63.1599 40.6991 63.9522H18.2381C7.57143 63.9522 3 57.857 3 48.7141V22.8094C3 13.6665 7.57143 7.57129 18.2381 7.57129H42.619C53.2857 7.57129 57.8571 13.6665 57.8571 22.8094Z" stroke="#8EA3B9" stroke-width="6" stroke-miterlimit="10" stroke-linecap="round" stroke-linejoin="round"/>
<path d="M30.4153 38.6576H30.4426" stroke="#8EA3B9" stroke-width="6" stroke-linecap="round" stroke-linejoin="round"/>
<path d="M19.135 38.6576H19.1624" stroke="#8EA3B9" stroke-width="6" stroke-linecap="round" stroke-linejoin="round"/>
<path d="M19.135 47.8002H19.1624" stroke="#8EA3B9" stroke-width="6" stroke-linecap="round" stroke-linejoin="round"/>
</svg>
