<svg width="65" height="70" viewBox="0 0 65 70" fill="none" xmlns="http://www.w3.org/2000/svg">
<path d="M61.1439 24.0561V45.9439C61.1439 49.5279 59.2239 52.856 56.1199 54.68L37.1119 65.656C34.0079 67.448 30.168 67.448 27.032 65.656L8.02399 54.68C4.92 52.888 3 49.5599 3 45.9439V24.0561C3 20.4721 4.92 17.144 8.02399 15.32L27.032 4.344C30.136 2.552 33.9759 2.552 37.1119 4.344L56.1199 15.32C59.2239 17.144 61.1439 20.4401 61.1439 24.0561Z" stroke="#8EA3B9" stroke-width="6" stroke-linecap="round" stroke-linejoin="round"/>
<path d="M32.0868 31.7996C36.2047 31.7996 39.5428 28.4614 39.5428 24.3435C39.5428 20.2257 36.2047 16.8877 32.0868 16.8877C27.969 16.8877 24.6309 20.2257 24.6309 24.3435C24.6309 28.4614 27.969 31.7996 32.0868 31.7996Z" stroke="#8EA3B9" stroke-width="6" stroke-linecap="round" stroke-linejoin="round"/>
<path d="M44.8871 49.9113C44.8871 44.1513 39.1591 39.4795 32.0871 39.4795C25.0151 39.4795 19.2871 44.1513 19.2871 49.9113" stroke="#8EA3B9" stroke-width="6" stroke-linecap="round" stroke-linejoin="round"/>
</svg>
