<svg width="74" height="70" viewBox="0 0 74 70" fill="none" xmlns="http://www.w3.org/2000/svg">
<path d="M6.60194 48.3756L12.609 30.3543C15.3326 22.1835 16.6944 18.0981 19.9167 17.3375C23.1389 16.5768 26.184 19.6219 32.2742 25.712L44.2884 37.7262C50.3786 43.8164 53.4236 46.8615 52.663 50.0837C51.9023 53.306 47.8169 54.6678 39.6461 57.3914L21.6248 63.3985C11.7922 66.676 6.87591 68.3148 4.28078 65.7197C1.68564 63.1245 3.32441 58.2082 6.60194 48.3756Z" stroke="#8EA3B9" stroke-width="6" stroke-linecap="round"/>
<path d="M35.8392 57.5637C35.8392 57.5637 33.1434 49.453 33.1434 44.085C33.1434 38.717 35.8392 30.6064 35.8392 30.6064M21.0126 61.6073C21.0126 61.6073 18.7359 51.8228 18.3169 45.4329C17.6246 34.8756 21.0126 18.4756 21.0126 18.4756" stroke="#8EA3B9" stroke-width="6" stroke-linecap="round"/>
<path d="M43.9258 27.9107L44.4377 25.3509C44.9546 22.7664 46.8168 20.657 49.3172 19.8235C51.8177 18.99 53.6798 16.8806 54.1967 14.2961L54.7087 11.7363" stroke="#8EA3B9" stroke-width="6" stroke-linecap="round"/>
<path d="M54.8037 35.9004L55.5605 36.3373C57.8969 37.6863 60.8344 37.3888 62.8529 35.5988C64.6808 33.9779 67.284 33.5668 69.5225 34.5456L70.5588 34.9987" stroke="#8EA3B9" stroke-width="6" stroke-linecap="round"/>
<path d="M29.7956 3C28.5957 4.96288 28.8964 7.49224 30.5232 9.11901L30.8712 9.46703C32.2691 10.8649 32.7846 12.9185 32.2126 14.8109" stroke="#8EA3B9" stroke-width="6" stroke-linecap="round"/>
<path d="M40.554 7.96514C41.2689 7.25027 41.6263 6.89284 42.0396 6.76182C42.3892 6.65101 42.7645 6.65101 43.114 6.76182C43.5273 6.89284 43.8848 7.25027 44.5996 7.96514C45.3145 8.68001 45.6719 9.03744 45.8029 9.45073C45.9138 9.8003 45.9138 10.1756 45.8029 10.5252C45.6719 10.9385 45.3145 11.2959 44.5996 12.0108C43.8848 12.7256 43.5273 13.0831 43.114 13.2141C42.7645 13.3249 42.3892 13.3249 42.0396 13.2141C41.6263 13.0831 41.2689 12.7256 40.554 12.0108C39.8391 11.2959 39.4817 10.9385 39.3507 10.5252C39.2399 10.1756 39.2399 9.8003 39.3507 9.45073C39.4817 9.03744 39.8391 8.68001 40.554 7.96514Z" fill="#8EA3B9"/>
<path d="M61.5574 18.8875C62.4299 18.015 62.8661 17.5787 63.3583 17.3891C63.9342 17.1672 64.572 17.1672 65.1479 17.3891C65.6401 17.5787 66.0763 18.015 66.9488 18.8875C67.8213 19.76 68.2576 20.1962 68.4472 20.6883C68.6691 21.2643 68.6691 21.9021 68.4472 22.478C68.2576 22.9702 67.8213 23.4064 66.9488 24.2789C66.0763 25.1514 65.6401 25.5877 65.1479 25.7773C64.572 25.9992 63.9342 25.9992 63.3583 25.7773C62.8661 25.5877 62.4299 25.1514 61.5574 24.2789C60.6849 23.4064 60.2486 22.9702 60.059 22.478C59.8371 21.9021 59.8371 21.2643 60.059 20.6883C60.2486 20.1962 60.6849 19.76 61.5574 18.8875Z" fill="#8EA3B9"/>
<path d="M16.9668 6.34472C17.7116 5.59994 18.9191 5.59994 19.6639 6.34472C20.4086 7.08949 20.4086 8.29702 19.6639 9.0418C18.9191 9.78657 17.7116 9.78657 16.9668 9.0418C16.222 8.29702 16.222 7.08949 16.9668 6.34472Z" fill="#8EA3B9"/>
<path d="M60.0986 46.7812C60.8434 46.0365 62.0509 46.0365 62.7957 46.7812C63.5405 47.526 63.5405 48.7335 62.7957 49.4783C62.0509 50.2231 60.8434 50.2231 60.0986 49.4783C59.3538 48.7335 59.3538 47.526 60.0986 46.7812Z" fill="#8EA3B9"/>
<path d="M54.559 26.9693C55.3038 26.2245 56.5113 26.2245 57.2561 26.9693C58.0009 27.714 58.0009 28.9216 57.2561 29.6663C56.5113 30.4111 55.3038 30.4111 54.559 29.6663C53.8142 28.9216 53.8142 27.714 54.559 26.9693Z" fill="#8EA3B9"/>
</svg>
