<svg width="80" height="80" viewBox="0 0 80 80" fill="none" xmlns="http://www.w3.org/2000/svg">
<path d="M4 62.0083V17.9902C4 11.8625 4 8.7986 5.95271 7.7937C7.90541 6.7888 10.3986 8.56964 15.3849 12.1313L21.0774 16.1973C23.2945 17.781 24.403 18.5728 25.0015 19.7358C25.6 20.8988 25.6 22.2611 25.6 24.9857V55.0128C25.6 57.7374 25.6 59.0997 25.0015 60.2627C24.403 61.4256 23.2945 62.2175 21.0774 63.8011L15.3849 67.8671C10.3986 71.4288 7.90541 73.2096 5.95271 72.2047C4 71.1998 4 68.136 4 62.0083Z" stroke="#084277" stroke-width="7"/>
<path d="M76.0004 62.0083V17.9902C76.0004 11.8625 76.0004 8.7986 74.0477 7.7937C72.095 6.7888 69.6018 8.56964 64.6155 12.1313L58.923 16.1973C56.7059 17.781 55.5974 18.5728 54.9989 19.7358C54.4004 20.8988 54.4004 22.2611 54.4004 24.9857V55.0128C54.4004 57.7374 54.4004 59.0997 54.9989 60.2627C55.5974 61.4256 56.7059 62.2175 58.923 63.8011L64.6155 67.8671C69.6018 71.4288 72.095 73.2096 74.0477 72.2047C76.0004 71.1998 76.0004 68.136 76.0004 62.0083Z" stroke="#084277" stroke-width="7"/>
<path d="M40 47.2008V32.8008" stroke="#084277" stroke-width="7" stroke-linecap="round"/>
<path d="M40 18.4V4" stroke="#084277" stroke-width="7" stroke-linecap="round"/>
<path d="M40 75.9977V61.5977" stroke="#084277" stroke-width="7" stroke-linecap="round"/>
</svg>
