<svg width="80" height="80" viewBox="0 0 80 80" fill="none" xmlns="http://www.w3.org/2000/svg">
<path d="M39.999 24V40L49.999 50" stroke="#084277" stroke-width="7" stroke-linecap="round" stroke-linejoin="round"/>
<path d="M14.4166 14.4166L11.9417 11.9417L11.9417 11.9417L14.4166 14.4166ZM9.35104 19.4821L5.85109 19.4997C5.86073 21.4189 7.41421 22.9724 9.33345 22.982L9.35104 19.4821ZM19.5157 23.0332C21.4486 23.0429 23.0235 21.4838 23.0332 19.5508C23.0429 17.6179 21.4838 16.043 19.5508 16.0333L19.5157 23.0332ZM12.7998 9.28229C12.7901 7.34932 11.2153 5.79021 9.28229 5.79992C7.34931 5.80963 5.7902 7.38449 5.79992 9.31746L12.7998 9.28229ZM7.8018 35.2076C8.0643 33.2925 6.72461 31.5272 4.80952 31.2647C2.89443 31.0022 1.12914 32.3419 0.866642 34.257L7.8018 35.2076ZM67.8025 12.1975C52.3298 -3.27514 27.32 -3.43659 11.9417 11.9417L16.8914 16.8914C29.4893 4.29361 50.0667 4.36126 62.8527 17.1473L67.8025 12.1975ZM12.1975 67.8025C27.6702 83.2751 52.68 83.4366 68.0583 68.0583L63.1086 63.1086C50.5107 75.7064 29.9333 75.6387 17.1473 62.8527L12.1975 67.8025ZM68.0583 68.0583C83.4366 52.68 83.2751 27.6702 67.8025 12.1975L62.8527 17.1473C75.6387 29.9333 75.7064 50.5107 63.1086 63.1086L68.0583 68.0583ZM11.9417 11.9417L6.87617 17.0072L11.8259 21.957L16.8914 16.8914L11.9417 11.9417ZM9.33345 22.982L19.5157 23.0332L19.5508 16.0333L9.36863 15.9821L9.33345 22.982ZM12.851 19.4645L12.7998 9.28229L5.79992 9.31746L5.85109 19.4997L12.851 19.4645ZM0.866642 34.257C-0.759574 46.1212 3.0277 58.6327 12.1975 67.8025L17.1473 62.8527C9.57939 55.2849 6.46239 44.9793 7.8018 35.2076L0.866642 34.257Z" fill="#084277"/>
</svg>
