<svg width="19" height="20" viewBox="0 0 19 20" fill="none" xmlns="http://www.w3.org/2000/svg">
<path d="M9.30762 6.53822V8.61505" stroke="#EC9C00" stroke-width="1.44928" stroke-linecap="round" stroke-linejoin="round"/>
<path d="M2.38455 8.61536H16.2301C16.5973 8.61536 16.9494 8.76123 17.2091 9.02088C17.4687 9.28054 17.6146 9.6327 17.6146 9.99991V12.0188C17.6146 13.5279 16.4317 14.8034 14.9234 14.845C14.5533 14.8554 14.1849 14.7915 13.84 14.657C13.495 14.5226 13.1805 14.3204 12.9151 14.0623C12.6497 13.8042 12.4387 13.4955 12.2946 13.1545C12.1506 12.8134 12.0764 12.447 12.0764 12.0767C12.0764 12.8111 11.7847 13.5155 11.2654 14.0348C10.746 14.5541 10.0417 14.8458 9.3073 14.8458C8.57289 14.8458 7.86856 14.5541 7.34925 14.0348C6.82995 13.5155 6.5382 12.8111 6.5382 12.0767C6.53835 12.447 6.46423 12.8136 6.32022 13.1547C6.17622 13.4959 5.96525 13.8047 5.69981 14.0628C5.43437 14.321 5.11985 14.5233 4.77484 14.6578C4.42984 14.7923 4.06136 14.8562 3.69122 14.8458C2.18293 14.8034 1 13.5279 1 12.0188V9.99991C1 9.6327 1.14587 9.28054 1.40553 9.02088C1.66518 8.76123 2.01734 8.61536 2.38455 8.61536Z" stroke="#EC9C00" stroke-width="1.44928" stroke-linecap="round" stroke-linejoin="round"/>
<path d="M16.9224 13.8858V17.6154C16.9224 17.9826 16.7766 18.3348 16.5169 18.5945C16.2573 18.8541 15.9051 19 15.5379 19H3.07693C2.70973 19 2.35756 18.8541 2.09791 18.5945C1.83825 18.3348 1.69238 17.9826 1.69238 17.6154V13.8858" stroke="#EC9C00" stroke-width="1.44928" stroke-linecap="round" stroke-linejoin="round"/>
<path d="M11.3841 4.46138C11.3841 5.01218 11.1653 5.54043 10.7758 5.92991C10.3864 6.31939 9.8581 6.5382 9.30729 6.5382C8.75649 6.5382 8.22824 6.31939 7.83876 5.92991C7.44928 5.54043 7.23047 5.01218 7.23047 4.46138C7.23047 2.38455 9.30729 1 9.30729 1C9.30729 1 11.3841 2.38455 11.3841 4.46138Z" stroke="#EC9C00" stroke-width="1.44928" stroke-linecap="round" stroke-linejoin="round"/>
</svg>
