<svg width="19" height="18" viewBox="0 0 19 18" fill="none" xmlns="http://www.w3.org/2000/svg">
<path d="M12.3889 11.6908L11.8601 11.159L12.3889 11.6908ZM12.8176 11.2646L13.3464 11.7965H13.3464L12.8176 11.2646ZM15.0921 10.9665L14.7339 11.6254H14.7339L15.0921 10.9665ZM16.8902 11.944L16.532 12.6029L16.8902 11.944ZM17.3969 15.0075L17.9257 15.5393L17.3969 15.0075ZM16.0599 16.3369L15.5311 15.8051L16.0599 16.3369ZM14.813 16.9672L14.8826 17.714L14.813 16.9672ZM5.5321 12.9779L6.06092 12.4461L5.5321 12.9779ZM1.00272 4.52528L0.253926 4.56783L0.253926 4.56783L1.00272 4.52528ZM7.09649 5.89166L7.62531 6.42349H7.62531L7.09649 5.89166ZM7.24399 3.39387L7.84439 2.9444V2.9444L7.24399 3.39387ZM6.05718 1.80855L5.45679 2.25802V2.25802L6.05718 1.80855ZM3.12842 1.54101L3.65724 2.07285V2.07285L3.12842 1.54101ZM1.65115 3.0099L1.12233 2.47806H1.12233L1.65115 3.0099ZM8.58882 9.93858L9.11764 9.40674L8.58882 9.93858ZM12.9177 12.2227L13.3464 11.7965L12.2887 10.7328L11.8601 11.159L12.9177 12.2227ZM14.7339 11.6254L16.532 12.6029L17.2484 11.2851L15.4503 10.3076L14.7339 11.6254ZM16.868 14.4757L15.5311 15.8051L16.5887 16.8687L17.9257 15.5393L16.868 14.4757ZM14.7434 16.2204C13.3893 16.3467 9.87257 16.2361 6.06092 12.4461L5.00329 13.5098C9.18558 17.6683 13.1694 17.8737 14.8826 17.714L14.7434 16.2204ZM6.06092 12.4461C2.42511 8.83094 1.82603 5.79401 1.75151 4.48272L0.253926 4.56783C0.349092 6.24235 1.10094 9.62959 5.00329 13.5098L6.06092 12.4461ZM7.35536 6.6919L7.62531 6.42349L6.56767 5.35982L6.29773 5.62823L7.35536 6.6919ZM7.84439 2.9444L6.65758 1.35908L5.45679 2.25802L6.6436 3.84334L7.84439 2.9444ZM2.59961 1.00918L1.12233 2.47806L2.17997 3.54174L3.65724 2.07285L2.59961 1.00918ZM6.82654 6.16007C6.29773 5.62823 6.29701 5.62894 6.2963 5.62965C6.29605 5.6299 6.29533 5.63062 6.29484 5.63111C6.29386 5.6321 6.29287 5.6331 6.29186 5.63413C6.28984 5.63618 6.28775 5.63832 6.2856 5.64055C6.28131 5.64501 6.27677 5.64983 6.272 5.655C6.26248 5.66534 6.25205 5.67714 6.24093 5.69041C6.21868 5.71696 6.19358 5.74951 6.16729 5.78832C6.11456 5.86614 6.05739 5.96862 6.00896 6.09714C5.91009 6.35956 5.85787 6.70354 5.92361 7.12728C6.05204 7.95512 6.62043 9.03902 8.06 10.4704L9.11764 9.40674C7.77603 8.07275 7.46328 7.26739 7.40587 6.89732C7.37869 6.7221 7.40737 6.63997 7.41263 6.62601C7.41627 6.61635 7.41697 6.61807 7.4091 6.62968C7.40524 6.63539 7.39932 6.64347 7.39064 6.65383C7.38629 6.65901 7.38125 6.66477 7.37541 6.67112C7.37249 6.67429 7.36937 6.67761 7.36603 6.68107C7.36436 6.6828 7.36264 6.68457 7.36086 6.68638C7.35997 6.68728 7.35907 6.68819 7.35816 6.68911C7.3577 6.68957 7.357 6.69027 7.35677 6.6905C7.35607 6.6912 7.35536 6.6919 6.82654 6.16007ZM8.06 10.4704C9.50009 11.9023 10.589 12.4659 11.4181 12.5931C11.8421 12.6581 12.1859 12.6064 12.4481 12.5088C12.5766 12.4609 12.6791 12.4043 12.7571 12.3521C12.796 12.326 12.8286 12.3012 12.8553 12.2791C12.8686 12.2681 12.8804 12.2577 12.8908 12.2482C12.896 12.2435 12.9009 12.239 12.9053 12.2347C12.9076 12.2326 12.9097 12.2305 12.9118 12.2285C12.9128 12.2275 12.9138 12.2265 12.9148 12.2256C12.9153 12.2251 12.916 12.2243 12.9163 12.2241C12.917 12.2234 12.9177 12.2227 12.3889 11.6908C11.8601 11.159 11.8608 11.1583 11.8615 11.1576C11.8617 11.1574 11.8624 11.1567 11.8629 11.1562C11.8638 11.1553 11.8647 11.1544 11.8656 11.1535C11.8675 11.1518 11.8692 11.1501 11.871 11.1484C11.8745 11.1451 11.8778 11.142 11.881 11.1391C11.8873 11.1333 11.8931 11.1283 11.8983 11.124C11.9087 11.1154 11.9167 11.1096 11.9223 11.1059C11.9337 11.0982 11.9349 11.0992 11.9244 11.1031C11.9087 11.109 11.8239 11.1378 11.6455 11.1104C11.2699 11.0528 10.4587 10.7402 9.11764 9.40674L8.06 10.4704ZM6.65758 1.35908C5.68314 0.0574415 3.7655 -0.150094 2.59961 1.00918L3.65724 2.07285C4.13749 1.59534 4.99504 1.64122 5.45679 2.25802L6.65758 1.35908ZM1.75151 4.48272C1.73391 4.17308 1.87556 3.84442 2.17997 3.54174L1.12233 2.47806C0.610521 2.98697 0.205197 3.71039 0.253926 4.56783L1.75151 4.48272ZM15.5311 15.8051C15.2775 16.0572 15.0093 16.1956 14.7434 16.2204L14.8826 17.714C15.5868 17.6483 16.1624 17.2926 16.5887 16.8687L15.5311 15.8051ZM7.62531 6.42349C8.56825 5.4859 8.63752 4.00384 7.84439 2.9444L6.6436 3.84334C7.01082 4.33387 6.95471 4.97498 6.56767 5.35982L7.62531 6.42349ZM16.532 12.6029C17.2776 13.0083 17.3891 13.9576 16.868 14.4757L17.9257 15.5393C19.2096 14.2627 18.8122 12.1351 17.2484 11.2851L16.532 12.6029ZM13.3464 11.7965C13.6934 11.4515 14.2537 11.3644 14.7339 11.6254L15.4503 10.3076C14.414 9.74427 13.1269 9.89937 12.2887 10.7328L13.3464 11.7965Z" fill="#1573FF"/>
</svg>
