<svg width="45" height="49" viewBox="0 0 45 49" fill="none" xmlns="http://www.w3.org/2000/svg">
<g opacity="0.4">
<path d="M42.3296 33.8558L43.9771 24.3288C44.3886 21.9492 42.5587 19.7728 40.1465 19.7728H28.0477C26.8486 19.7728 25.9355 18.6965 26.1296 17.5119L27.677 8.06705C27.9284 6.53266 27.8566 4.96261 27.4662 3.45764C27.1428 2.21092 26.1809 1.20984 24.9159 0.803464L24.5774 0.694713C23.8129 0.44911 22.9784 0.506262 22.2576 0.853596C21.4643 1.23591 20.8838 1.93325 20.6687 2.7626L19.5578 7.04499C19.2044 8.40755 18.6895 9.72277 18.0257 10.9655C17.0558 12.7812 15.5562 14.2344 13.9973 15.5776L10.6376 18.4728C9.69033 19.2891 9.19285 20.5116 9.30064 21.7582L11.1972 43.6918C11.3712 45.7037 13.0532 47.2482 15.0703 47.2482H25.9257C34.0551 47.2482 40.9931 41.5839 42.3296 33.8558Z" fill="#222222"/>
<path fill-rule="evenodd" clip-rule="evenodd" d="M1.92588 18.0236C2.86291 17.9832 3.66547 18.6881 3.74627 19.6225L6.01513 45.8619C6.16088 47.5474 4.83323 49.0001 3.13794 49.0001C1.5411 49.0001 0.25 47.7047 0.25 46.1109V19.7734C0.25 18.8355 0.988855 18.0641 1.92588 18.0236Z" fill="#222222"/>
</g>
</svg>
