<svg width="39" height="46" viewBox="0 0 39 46" fill="none" xmlns="http://www.w3.org/2000/svg">
<path fill-rule="evenodd" clip-rule="evenodd" d="M23.5756 8.12536C23.5756 3.94392 26.9807 0.554199 31.1812 0.554199C35.3816 0.554199 38.7868 3.94392 38.7868 8.12536C38.7868 12.3068 35.3816 15.6965 31.1812 15.6965C29.0602 15.6965 27.1433 14.8318 25.7653 13.4406L15.2367 20.6092C15.334 21.0928 15.385 21.5925 15.385 22.1029C15.385 23.1137 15.1853 24.0799 14.8231 24.9629L26.3678 32.548C27.6779 31.481 29.3546 30.8388 31.1812 30.8388C35.3816 30.8388 38.7868 34.2286 38.7868 38.41C38.7868 42.5914 35.3816 45.9812 31.1812 45.9812C26.9807 45.9812 23.5756 42.5914 23.5756 38.41C23.5756 37.3148 23.81 36.2723 24.2313 35.3311L12.78 27.8074C11.4442 28.9684 9.69441 29.6741 7.7794 29.6741C3.57896 29.6741 0.173828 26.2843 0.173828 22.1029C0.173828 17.9215 3.57896 14.5317 7.7794 14.5317C10.1948 14.5317 12.3449 15.6524 13.7371 17.3967L23.941 10.4492C23.7037 9.7159 23.5756 8.93457 23.5756 8.12536Z" fill="#222222" fill-opacity="0.4"/>
</svg>
