<svg width="42" height="41" viewBox="0 0 42 41" fill="none" xmlns="http://www.w3.org/2000/svg">
<g filter="url(#filter0_d_131_14379)">
<rect x="6.39062" y="3.59473" width="28.9855" height="28.9855" rx="15" fill="#B75400"/>
</g>
<mask id="mask0_131_14379" style="mask-type:alpha" maskUnits="userSpaceOnUse" x="6" y="3" width="30" height="30">
<rect x="6.39062" y="3.59473" width="28.9855" height="28.9855" rx="14.4928" fill="#8D8D8D"/>
</mask>
<g mask="url(#mask0_131_14379)">
<path d="M12.7707 32.7886C12.6507 32.7526 12.5248 32.7166 12.4109 32.6747C11.6193 32.3748 11.1756 31.5413 11.3615 30.7138C12.213 26.84 15.4571 23.7997 19.3669 23.2001C19.7087 23.1461 20.0565 23.1281 20.4043 23.0681C20.0085 22.9842 19.6188 22.9062 19.241 22.7623C17.2021 22.0067 15.9968 20.1418 16.1647 18.037C16.3446 15.7883 17.9337 14.0733 20.0925 13.7075C23.0128 13.2157 25.2136 15.4045 25.5434 17.7192C25.6333 18.3668 25.5914 19.0024 25.4174 19.6321C25.3695 19.8 25.2975 19.854 25.1236 19.854C24.2181 19.848 23.3126 19.848 22.4012 19.854C21.9814 19.854 21.7355 20.0339 21.6576 20.3697C21.5616 20.7834 21.8075 21.1612 22.2333 21.1912C22.659 21.2212 23.0848 21.2092 23.5165 21.2092C23.8643 21.2092 24.2181 21.2092 24.6259 21.2092C23.7744 22.3066 22.707 22.9062 21.3817 23.0801C21.9454 23.1341 22.5031 23.2001 23.0428 23.326C25.6813 23.9376 27.6842 25.4368 29.1293 27.7095C29.705 28.615 30.1128 29.5924 30.3466 30.6418C30.5805 31.6672 30.0168 32.5367 28.9854 32.7526C28.9554 32.7586 28.9314 32.7766 28.9075 32.7886C23.5345 32.7886 18.1556 32.7886 12.7707 32.7886Z" fill="white"/>
<path d="M21.4956 9.76172C21.9274 9.84567 22.3711 9.86966 22.7969 9.9716C25.7892 10.6912 27.822 12.5082 28.9494 15.3565C29.0094 15.5005 29.0693 15.6444 29.1533 15.7763C29.3871 16.1301 29.4891 16.5259 29.4891 16.9456C29.4891 17.8691 29.4891 18.7866 29.4891 19.7101C29.4891 20.9573 28.6616 21.8508 27.4203 21.9168C26.8926 21.9468 26.3589 21.9228 25.8192 21.9228C27.3003 19.5422 27.2943 17.1855 25.8192 14.7929C26.0351 14.7929 26.2509 14.7929 26.4728 14.7929C26.6947 14.7929 26.9166 14.7929 27.1504 14.7929C26.2269 12.9039 24.0202 11.2609 21.3157 11.105C17.9936 10.9191 15.565 12.82 14.5636 14.7869C15.0193 14.7869 15.4631 14.7869 15.9068 14.7869C14.4197 17.1735 14.4257 19.5302 15.8888 21.9048C15.8229 21.9528 15.7389 21.9288 15.661 21.9288C15.1812 21.9288 14.7015 21.9468 14.2218 21.9108C13.1424 21.8328 12.3209 21.0653 12.2549 19.9859C12.1889 18.8705 12.2069 17.7552 12.2549 16.6398C12.2669 16.4419 12.3089 16.244 12.4048 16.0821C12.7406 15.5304 12.9205 14.9068 13.2263 14.3371C14.6415 11.7706 16.7943 10.2834 19.6847 9.83967C19.8706 9.80969 20.0625 9.83368 20.2364 9.76172C20.6561 9.76172 21.0759 9.76172 21.4956 9.76172Z" fill="white"/>
</g>
<defs>
<filter id="filter0_d_131_14379" x="0.593524" y="0.116466" width="40.5796" height="40.5796" filterUnits="userSpaceOnUse" color-interpolation-filters="sRGB">
<feFlood flood-opacity="0" result="BackgroundImageFix"/>
<feColorMatrix in="SourceAlpha" type="matrix" values="0 0 0 0 0 0 0 0 0 0 0 0 0 0 0 0 0 0 127 0" result="hardAlpha"/>
<feOffset dy="2.31884"/>
<feGaussianBlur stdDeviation="2.89855"/>
<feComposite in2="hardAlpha" operator="out"/>
<feColorMatrix type="matrix" values="0 0 0 0 0 0 0 0 0 0 0 0 0 0 0 0 0 0 0.08 0"/>
<feBlend mode="normal" in2="BackgroundImageFix" result="effect1_dropShadow_131_14379"/>
<feBlend mode="normal" in="SourceGraphic" in2="effect1_dropShadow_131_14379" result="shape"/>
</filter>
</defs>
</svg>
