<svg width="56" height="62" viewBox="0 0 56 62" fill="none" xmlns="http://www.w3.org/2000/svg">
<g opacity="0.6">
<path d="M11.3999 28.2004C11.3999 20.2808 11.3999 16.321 13.8602 13.8607C16.3205 11.4004 20.2803 11.4004 28.1999 11.4004H36.5999C44.5195 11.4004 48.4793 11.4004 50.9396 13.8607C53.3999 16.321 53.3999 20.2808 53.3999 28.2004V42.2004C53.3999 50.12 53.3999 54.0798 50.9396 56.5401C48.4793 59.0004 44.5195 59.0004 36.5999 59.0004H28.1999C20.2803 59.0004 16.3205 59.0004 13.8602 56.5401C11.3999 54.0798 11.3999 50.12 11.3999 42.2004V28.2004Z" stroke="#222222" stroke-width="5"/>
<path d="M11.4 50.6C6.76081 50.6 3 46.8392 3 42.2V25.4C3 14.8405 3 9.56081 6.2804 6.2804C9.56081 3 14.8405 3 25.4 3H36.6C41.2392 3 45 6.76081 45 11.4" stroke="#222222" stroke-width="5"/>
</g>
</svg>
