<svg width="631" height="484" viewBox="0 0 631 484" fill="none" xmlns="http://www.w3.org/2000/svg">
<path d="M1.66668 124.123C-9.31982 210.547 35.0126 299.147 105.053 350.963C175.094 402.778 267.262 419.883 353.505 407.467C415.071 398.644 476.134 374.507 519.526 329.956C562.918 285.404 585.793 218.468 568.315 158.783C561.708 136.243 548.738 114.399 528.156 103.078C495.286 85.0459 454.741 98.2606 419.733 111.81C384.726 125.36 344.244 138.703 311.298 120.826C285.989 107.057 272.98 78.709 254.433 56.6587C222.891 19.1655 171.642 -0.746696 123.059 5.62882C116.976 6.42929 110.952 7.62972 105.027 9.22229C53.3406 23.0939 14.2632 65.5587 2.98043 117.877L1.66668 124.123Z" fill="#EBEBEB"/>
<path d="M542.207 48.2737C538.421 49.1367 536.579 53.5029 536.218 57.3669C535.858 61.2308 536.347 65.3266 534.724 68.8557C532.895 72.8227 528.529 75.7593 528.387 80.1256C528.297 82.7917 529.881 85.2775 529.804 87.9694C529.675 92.3485 525.219 95.6973 524.974 100.025C524.807 103.18 526.906 106.194 526.404 109.311C526.018 111.733 524.124 113.639 523.326 115.957C521.741 120.594 524.923 125.682 529.057 128.283C531.373 129.739 533.98 130.672 536.694 131.017C539.408 131.361 542.165 131.109 544.771 130.277C547.378 129.446 549.771 128.055 551.784 126.202C553.798 124.349 555.382 122.079 556.427 119.551C558.719 113.987 558.217 107.714 557.715 101.725C556.169 83.0407 555.019 64.3306 554.263 45.5947" fill="#263238"/>
<path d="M531.208 114.193C531.987 113.708 532.595 112.992 532.947 112.145C533.318 111.137 533.468 110.06 533.385 108.989C533.244 107.569 532.928 106.172 532.444 104.829C531.828 103.141 531.6 101.336 531.775 99.5482C532.097 97.539 533.539 95.8904 534.84 94.2675C535.541 93.4733 536.126 92.5844 536.579 91.6272C537.033 90.6591 537.106 89.5558 536.785 88.536C536.115 86.4366 534.054 84.891 533.114 82.4567C532.672 81.2516 532.601 79.942 532.908 78.6958C533.2 77.5274 533.633 76.3986 534.196 75.3342C535.284 73.417 536.148 71.3816 536.772 69.2678C537.674 65.1849 537.249 61.2823 537.867 58.0752C538.21 55.5066 539.349 53.1102 541.125 51.2231C541.628 50.7148 542.2 50.2811 542.826 49.9351C543.041 49.8229 543.271 49.7405 543.508 49.6904C542.701 50.1348 541.96 50.6897 541.306 51.339C539.66 53.245 538.624 55.6003 538.331 58.101C538.105 59.8092 537.984 61.5298 537.97 63.2529C537.966 65.2807 537.768 67.3035 537.377 69.2935C536.763 71.456 535.898 73.5394 534.801 75.5016C533.835 77.5237 532.947 79.8936 533.797 82.109C534.647 84.3243 536.695 85.857 537.48 88.2269C537.835 89.3977 537.748 90.6579 537.236 91.7688C536.734 92.8223 536.083 93.7983 535.304 94.6668C534.016 96.2896 532.612 97.8352 532.303 99.6384C532.122 101.349 532.325 103.078 532.895 104.7C533.355 106.085 533.641 107.521 533.745 108.976C533.809 110.097 533.61 111.217 533.166 112.248C532.889 112.894 532.444 113.454 531.878 113.871C531.676 114.018 531.449 114.127 531.208 114.193Z" fill="#455A64"/>
<path d="M521.136 144.73L509.544 178.218L461.065 180.794L452.976 198.826L503.594 203.978C505.985 204.959 508.551 205.446 511.136 205.409C513.721 205.371 516.271 204.81 518.633 203.759C520.995 202.708 523.119 201.189 524.878 199.294C526.636 197.399 527.992 195.167 528.864 192.734L542.375 155.021L521.136 144.73Z" fill="#FFBF9D"/>
<path d="M621.354 460.712C621.354 460.712 585.831 347.858 585.072 344.201C584.389 340.878 597.951 259.67 599.677 238.586L551.674 240.376V240.853L531.272 241.986L549.536 472.69H571.625L569.435 396.119C583.062 432.685 602.588 469.959 602.588 469.959L621.354 460.712Z" fill="#FFBF9D"/>
<path d="M570.337 423.592C570.337 422.896 570.066 397.935 570.066 397.935C569.796 399.429 561.604 376.271 561.797 374.867C561.9 374.133 570.337 423.592 570.337 423.592Z" fill="#A36957"/>
<path d="M560.87 363.895C560.756 364.353 560.709 364.826 560.728 365.298C560.657 366.585 560.657 367.875 560.728 369.162C560.728 369.974 560.844 370.85 560.947 371.803C561.05 372.756 561.192 373.76 561.411 374.804C561.869 377.082 562.476 379.328 563.227 381.527C564.824 386.202 566.601 390.285 567.851 393.248C568.443 394.536 568.958 395.759 569.396 396.738C569.554 397.194 569.771 397.626 570.04 398.026C569.972 397.581 569.842 397.148 569.654 396.738C569.358 395.888 568.907 394.664 568.366 393.158C567.233 390.144 565.532 386.022 563.948 381.398C563.199 379.231 562.584 377.02 562.106 374.778C561.875 373.748 561.72 372.756 561.578 371.829C561.437 370.901 561.334 370.025 561.269 369.253C561.115 367.655 561.05 366.367 561.012 365.466C561.036 364.938 560.988 364.409 560.87 363.895Z" fill="#A36957"/>
<path d="M549.124 473.862V471.789L571.754 470.797L571.818 479.362L570.427 479.452C564.206 479.813 538.807 480.869 534.66 479.62C530.01 478.229 549.124 473.862 549.124 473.862Z" fill="#455A64"/>
<path d="M572.114 478.847C571.986 478.855 571.856 478.855 571.728 478.847L570.62 478.924L566.524 479.104C563.073 479.246 558.294 479.375 553.026 479.401C547.758 479.426 542.967 479.336 539.502 479.233L535.42 479.066H534.299H533.913C534.041 479.055 534.17 479.055 534.299 479.066H535.42L539.515 479.143C542.967 479.143 547.746 479.246 553.013 479.22C558.281 479.194 563.073 479.104 566.524 479.014L570.62 478.911H572.114V478.847Z" fill="#263238"/>
<path d="M541.744 479.568C541.556 478.894 541.297 478.242 540.971 477.623C540.563 477.052 540.092 476.529 539.567 476.064C540.27 476.316 540.854 476.821 541.203 477.481C541.629 478.089 541.821 478.83 541.744 479.568Z" fill="#263238"/>
<path d="M548.415 476.18C548.415 476.18 548.042 475.832 547.707 475.317C547.372 474.802 547.166 474.351 547.231 474.312C547.295 474.274 547.604 474.647 547.939 475.162C548.274 475.678 548.48 476.141 548.415 476.18Z" fill="#263238"/>
<path d="M550.245 475.265C550.245 475.33 549.832 475.085 549.446 474.737C549.06 474.389 548.776 474.067 548.828 474.016C548.879 473.964 549.24 474.196 549.626 474.544C550.013 474.892 550.296 475.149 550.245 475.265Z" fill="#263238"/>
<path d="M551.391 473.076C551.012 473.215 550.607 473.268 550.206 473.231C549.811 473.283 549.41 473.243 549.034 473.115C549.408 472.977 549.808 472.924 550.206 472.96C550.604 472.906 551.01 472.945 551.391 473.076Z" fill="#263238"/>
<path d="M551.777 471.583C551.394 471.832 550.947 471.966 550.489 471.969C550.051 472.027 549.606 471.965 549.201 471.789C549.627 471.717 550.058 471.683 550.489 471.686C550.914 471.61 551.345 471.576 551.777 471.583Z" fill="#263238"/>
<path d="M547.656 474.21C547.175 474.3 546.681 474.3 546.2 474.21C545.68 474.146 545.167 474.034 544.667 473.875C544.358 473.789 544.06 473.668 543.779 473.514C543.607 473.413 543.479 473.253 543.418 473.063C543.394 472.956 543.402 472.844 543.441 472.741C543.48 472.638 543.548 472.549 543.637 472.484C543.994 472.311 544.384 472.219 544.781 472.216C545.177 472.212 545.569 472.297 545.929 472.463C546.289 472.629 546.607 472.874 546.861 473.178C547.115 473.482 547.299 473.839 547.398 474.222C547.424 474.35 547.424 474.481 547.398 474.609C547.252 474.143 547.025 473.707 546.728 473.321C546.386 472.935 545.938 472.658 545.44 472.522C544.87 472.338 544.251 472.384 543.714 472.651C543.495 472.819 543.586 473.089 543.83 473.244C544.093 473.386 544.369 473.502 544.655 473.591C545.139 473.751 545.634 473.875 546.136 473.965C547.102 474.171 547.656 474.171 547.656 474.21Z" fill="#263238"/>
<path d="M547.282 474.286C547.094 473.987 547.029 473.627 547.101 473.282C547.149 472.903 547.285 472.541 547.501 472.226C547.622 472.01 547.795 471.829 548.004 471.699C548.213 471.568 548.452 471.492 548.699 471.479C548.845 471.512 548.972 471.6 549.056 471.725C549.139 471.849 549.173 472 549.149 472.148C549.118 472.379 549.034 472.599 548.905 472.792C548.709 473.112 548.48 473.41 548.222 473.681C547.998 473.938 547.715 474.137 547.398 474.261C547.398 474.261 547.681 474.003 548.08 473.539C548.312 473.274 548.515 472.985 548.686 472.676C548.879 472.367 549.021 471.813 548.686 471.749C548.351 471.685 547.964 472.084 547.745 472.367C547.541 472.647 547.4 472.968 547.333 473.307C547.281 473.631 547.264 473.959 547.282 474.286Z" fill="#263238"/>
<path d="M571.638 472.69C571.638 472.69 570.994 472.69 569.976 472.754C568.651 472.913 567.398 473.44 566.357 474.275C565.317 475.111 564.531 476.221 564.09 477.481C563.755 478.447 563.73 479.104 563.678 479.091C563.627 479.078 563.678 478.923 563.678 478.64C563.711 478.225 563.789 477.815 563.91 477.417C564.32 476.098 565.108 474.929 566.177 474.055C567.259 473.197 568.573 472.681 569.951 472.574C570.378 472.522 570.811 472.522 571.239 472.574C571.376 472.595 571.51 472.634 571.638 472.69Z" fill="#263238"/>
<path d="M560.806 477.043C559.726 477.295 558.617 477.403 557.508 477.365C556.406 477.42 555.301 477.325 554.224 477.082C554.224 477.005 555.692 477.082 557.508 477.082C559.325 477.082 560.793 476.966 560.806 477.043Z" fill="#263238"/>
<path d="M565.211 477.004C565.211 477.004 565.095 477.313 564.94 477.648C564.786 477.983 564.708 478.292 564.631 478.279C564.554 478.267 564.515 477.932 564.695 477.532C564.876 477.133 565.159 476.94 565.211 477.004Z" fill="#263238"/>
<path d="M566.872 474.931C566.872 474.931 566.782 475.214 566.55 475.446C566.318 475.678 566.086 475.832 566.022 475.781C565.958 475.729 566.112 475.497 566.344 475.253C566.576 475.008 566.808 474.866 566.872 474.931Z" fill="#263238"/>
<path d="M569.242 473.977C569.242 474.055 568.933 474.055 568.598 474.171C568.263 474.287 568.031 474.467 567.967 474.415C567.902 474.364 568.096 474.055 568.508 473.913C568.92 473.771 569.268 473.9 569.242 473.977Z" fill="#263238"/>
<path d="M570.929 473.514C570.929 473.591 570.839 473.707 570.646 473.772C570.453 473.836 570.285 473.849 570.26 473.772C570.234 473.694 570.363 473.579 570.543 473.514C570.723 473.45 570.904 473.45 570.929 473.514Z" fill="#263238"/>
<path d="M602.137 471.865L601.287 469.972L621.521 459.81L625.089 467.537L623.801 468.194C618.276 471.067 595.543 482.427 591.241 482.993C586.488 483.676 602.137 471.865 602.137 471.865Z" fill="#455A64"/>
<path d="M625.166 466.984L624.831 467.19L623.84 467.706L620.182 469.56C617.091 471.093 612.789 473.167 607.985 475.356C603.18 477.546 598.776 479.413 595.581 480.74L591.782 482.273L590.751 482.672C590.633 482.727 590.507 482.766 590.378 482.788L590.726 482.62L591.743 482.17L595.504 480.56C598.685 479.194 603.065 477.288 607.869 475.099C612.673 472.909 616.988 470.874 620.105 469.38L623.788 467.615L624.806 467.139L625.166 466.984Z" fill="#263238"/>
<path d="M597.797 480.082C597.35 479.539 596.845 479.046 596.29 478.614C595.686 478.256 595.041 477.971 594.371 477.764C595.11 477.754 595.835 477.971 596.448 478.385C597.06 478.8 597.531 479.392 597.797 480.082Z" fill="#263238"/>
<path d="M602.446 474.261C602.446 474.261 601.957 474.106 601.442 473.772C600.926 473.437 600.553 473.115 600.592 473.05C600.63 472.986 601.081 473.205 601.596 473.54C602.111 473.875 602.485 474.197 602.446 474.261Z" fill="#263238"/>
<path d="M603.708 472.691C603.708 472.755 603.27 472.691 602.768 472.536C602.266 472.381 601.892 472.188 601.905 472.111C602.231 472.08 602.559 472.134 602.858 472.266C603.348 472.381 603.734 472.562 603.708 472.691Z" fill="#263238"/>
<path d="M603.889 470.217C603.889 470.294 603.464 470.565 602.872 470.848C602.53 471.053 602.147 471.181 601.751 471.221C601.751 471.144 602.176 470.874 602.756 470.59C603.102 470.386 603.489 470.259 603.889 470.217Z" fill="#263238"/>
<path d="M603.631 468.698C603.631 468.698 603.258 469.213 602.588 469.587C602.208 469.844 601.759 469.979 601.3 469.973C601.669 469.725 602.062 469.513 602.472 469.342C603.103 468.994 603.567 468.634 603.631 468.698Z" fill="#263238"/>
<path d="M600.991 472.793C600.598 473.062 600.163 473.263 599.703 473.385C599.197 473.533 598.68 473.64 598.157 473.707C597.841 473.747 597.521 473.747 597.204 473.707C597.005 473.692 596.82 473.6 596.689 473.45C596.629 473.358 596.597 473.25 596.597 473.141C596.597 473.031 596.629 472.923 596.689 472.832C597.08 472.357 597.625 472.033 598.228 471.916C598.832 471.799 599.458 471.895 599.999 472.188C600.318 472.355 600.599 472.587 600.823 472.87C600.978 473.076 601.042 473.205 601.029 473.218C600.712 472.864 600.332 472.571 599.909 472.355C599.455 472.142 598.95 472.066 598.453 472.136C598.158 472.167 597.872 472.255 597.611 472.397C597.351 472.538 597.12 472.73 596.934 472.96C596.792 473.205 596.934 473.411 597.281 473.45C597.577 473.475 597.874 473.475 598.17 473.45C598.683 473.398 599.191 473.308 599.69 473.179C600.424 472.973 600.991 472.754 600.991 472.793Z" fill="#263238"/>
<path d="M600.63 473.012C600.343 472.808 600.141 472.505 600.063 472.162C599.95 471.8 599.924 471.416 599.986 471.041C600.008 470.794 600.093 470.557 600.233 470.351C600.373 470.146 600.563 469.98 600.785 469.869C601.107 469.766 601.854 470.423 601.905 470.668C601.957 470.913 601.532 470.784 601.506 470.99C601.464 471.355 601.378 471.714 601.248 472.059C601.154 472.39 600.977 472.692 600.733 472.935C600.733 472.935 600.888 472.587 601.068 472.007C601.16 471.665 601.225 471.316 601.261 470.964C601.261 470.603 601.261 470.05 600.849 470.14C600.437 470.23 600.321 470.732 600.231 471.093C600.152 471.428 600.152 471.776 600.231 472.11C600.337 472.422 600.471 472.724 600.63 473.012Z" fill="#263238"/>
<path d="M622.204 461.562C622.204 461.562 621.586 461.781 620.71 462.31C619.564 462.994 618.632 463.984 618.018 465.169C617.422 466.365 617.168 467.702 617.284 469.033C617.361 470.063 617.606 470.656 617.554 470.681C617.471 470.554 617.406 470.415 617.361 470.269C617.233 469.875 617.143 469.47 617.091 469.059C616.906 467.687 617.144 466.292 617.772 465.058C618.4 463.825 619.389 462.812 620.607 462.155C620.971 461.953 621.355 461.789 621.753 461.666C621.897 461.609 622.049 461.575 622.204 461.562Z" fill="#263238"/>
<path d="M614.102 469.985C612.286 471.248 610.258 472.173 608.113 472.716C608.113 472.638 609.466 472.123 611.114 471.428C612.763 470.732 614.064 469.921 614.102 469.985Z" fill="#263238"/>
<path d="M618.108 468.144C618.173 468.144 618.108 468.466 618.108 468.839C618.108 469.213 618.108 469.522 618.108 469.548C618.108 469.574 617.851 469.264 617.851 468.839C617.851 468.414 618.044 468.105 618.108 468.144Z" fill="#263238"/>
<path d="M618.765 465.567C618.829 465.567 618.765 465.864 618.687 466.173C618.61 466.482 618.417 466.714 618.353 466.688C618.288 466.662 618.353 466.392 618.43 466.083C618.507 465.773 618.687 465.542 618.765 465.567Z" fill="#263238"/>
<path d="M620.543 463.674C620.543 463.751 620.285 463.867 620.028 464.112C619.77 464.357 619.628 464.614 619.564 464.588C619.5 464.563 619.564 464.202 619.847 463.906C620.131 463.609 620.53 463.674 620.543 463.674Z" fill="#263238"/>
<path d="M621.895 462.619C621.895 462.619 621.895 462.825 621.74 462.966C621.586 463.108 621.444 463.185 621.392 463.134C621.341 463.082 621.392 462.928 621.547 462.786C621.701 462.644 621.843 462.567 621.895 462.619Z" fill="#263238"/>
<path d="M596.56 200.461L592.799 154.481L612.119 154.828C612.119 154.828 613.008 148.041 610.161 133.177C608.41 124.058 602.343 118.468 595.53 115.145V115.017L594.937 114.862C589.329 112.344 583.339 110.781 577.215 110.238L553.451 110.509C553.451 110.509 535.304 108.19 525.296 121.186C521.432 126.171 509.441 160.289 509.441 160.289L537.97 174.019L535.304 155.099C535.304 155.099 535.845 168.816 537.596 173.13C538.562 175.552 541.46 183.074 541.46 183.074L541.087 205.768L596.56 200.461Z" fill="#B75400"/>
<path d="M583.462 147.81L579.933 162.828H613.201L611.012 137.635L583.462 147.81Z" fill="#B75400"/>
<path d="M613.201 162.827C611.747 162.559 610.274 162.412 608.796 162.389C606.065 162.234 602.356 162.093 598.131 162.118C593.907 162.144 590.185 162.324 587.454 162.53C585.977 162.582 584.507 162.763 583.062 163.071C584.537 163.189 586.018 163.189 587.493 163.071C590.21 162.981 593.933 162.878 598.131 162.865C602.33 162.852 606.052 162.865 608.783 162.93C610.256 163.012 611.733 162.978 613.201 162.827Z" fill="#263238"/>
<path d="M582.019 137.518C581.86 138.799 581.826 140.093 581.916 141.382C581.916 143.739 582.019 146.984 582.161 150.578C582.302 154.171 582.47 157.43 582.624 159.774C582.631 161.073 582.769 162.367 583.037 163.638C583.195 162.356 583.229 161.062 583.14 159.774C583.14 157.417 583.037 154.158 582.895 150.565C582.753 146.971 582.586 143.726 582.431 141.369C582.426 140.074 582.288 138.784 582.019 137.518Z" fill="#263238"/>
<g opacity="0.3">
<path d="M551.751 150.527C551.751 150.527 559.144 205.357 579.933 203.901C579.933 203.901 589.296 203.798 592.297 197.577V195.13L551.751 150.527Z" fill="black"/>
</g>
<g opacity="0.3">
<path d="M582.019 140.751L578.039 167.631L580.615 172.345L584.865 163.123L583.062 163.072L582.019 140.751Z" fill="black"/>
</g>
<path d="M541.345 183.1C541.098 182.699 540.907 182.265 540.778 181.812C540.456 180.975 540.031 179.751 539.49 178.218C538.2 174.225 537.138 170.161 536.309 166.047C535.482 161.931 534.957 157.759 534.737 153.566C534.66 151.957 534.634 150.656 534.66 149.703C534.627 149.237 534.657 148.769 534.75 148.312C534.853 148.312 534.93 150.295 535.201 153.463C535.563 157.618 536.152 161.75 536.965 165.841C537.919 170.632 539.065 174.921 539.941 178C540.353 179.429 540.701 180.653 540.984 181.657C541.161 182.122 541.282 182.607 541.345 183.1Z" fill="#263238"/>
<path d="M549.742 198.852C549.562 198.852 549.047 197.731 548.596 196.276C548.208 195.384 548.036 194.413 548.093 193.442C548.662 194.229 549.053 195.13 549.24 196.083C549.609 196.957 549.781 197.903 549.742 198.852Z" fill="#263238"/>
<path d="M552.615 198.646C551.641 196.063 551.6 193.22 552.499 190.609C552.599 191.947 552.599 193.29 552.499 194.628C552.639 195.963 552.678 197.306 552.615 198.646Z" fill="#263238"/>
<path d="M538.55 174.65C538.46 174.805 531.826 171.662 523.725 167.618C515.624 163.573 509.119 160.147 509.196 159.98C509.274 159.813 515.92 162.968 524.021 167.012C532.123 171.057 538.627 174.483 538.55 174.65Z" fill="#263238"/>
<path d="M550.244 114.953C550.386 108.435 550.424 101.583 550.424 101.583C550.424 101.583 542.065 99.9734 540.61 88.974C539.219 78.4898 543.109 53.8765 543.109 53.8765C555.319 49.2655 568.005 53.4514 576.364 63.3431L574.291 116.241C574.046 122.384 568.572 127.073 562.003 126.763C555.357 126.441 550.102 121.161 550.244 114.953Z" fill="#FFBF9D"/>
<path d="M542.465 73.5436C542.454 73.9047 542.581 74.2564 542.82 74.5269C543.06 74.7975 543.393 74.9663 543.753 74.999C543.936 75.0167 544.12 74.9969 544.295 74.9409C544.47 74.8849 544.632 74.7939 544.771 74.6734C544.909 74.5529 545.022 74.4054 545.101 74.2399C545.181 74.0745 545.226 73.8945 545.234 73.711C545.245 73.3513 545.118 73.0011 544.878 72.7326C544.639 72.4642 544.305 72.298 543.946 72.2685C543.763 72.2406 543.575 72.2528 543.397 72.3041C543.219 72.3554 543.053 72.4447 542.913 72.5658C542.772 72.6869 542.659 72.837 542.582 73.0057C542.505 73.1745 542.465 73.358 542.465 73.5436Z" fill="#263238"/>
<path d="M541.95 71.7024C542.117 71.8827 543.238 71.1228 544.719 71.1744C546.2 71.2259 547.295 71.9987 547.475 71.8183C547.655 71.638 547.398 71.4062 546.921 71.0327C546.276 70.5655 545.502 70.3091 544.706 70.2985C543.921 70.2686 543.148 70.4946 542.504 70.9425C542.027 71.2903 541.86 71.6123 541.95 71.7024Z" fill="#263238"/>
<path d="M557.805 74.4967C557.79 74.8586 557.916 75.2121 558.156 75.4833C558.396 75.7545 558.732 75.9225 559.093 75.9521C559.277 75.9802 559.466 75.9677 559.645 75.9156C559.825 75.8636 559.99 75.7732 560.131 75.6507C560.272 75.5281 560.385 75.3765 560.461 75.2061C560.538 75.0358 560.576 74.8508 560.574 74.6641C560.588 74.3036 560.462 73.9516 560.222 73.6824C559.981 73.4133 559.646 73.248 559.286 73.2216C559.103 73.1938 558.915 73.2059 558.737 73.2572C558.558 73.3085 558.393 73.3978 558.253 73.5189C558.112 73.64 557.999 73.7901 557.922 73.9588C557.845 74.1276 557.805 74.3111 557.805 74.4967Z" fill="#263238"/>
<path d="M557.702 72.6546C557.869 72.8478 558.99 72.0879 560.471 72.1265C561.952 72.1652 563.047 72.9508 563.24 72.7705C563.433 72.5902 563.15 72.3584 562.673 71.9977C562.039 71.5182 561.266 71.2563 560.471 71.2507C559.683 71.2271 558.908 71.4525 558.256 71.8947C557.792 72.2425 557.624 72.5645 557.702 72.6546Z" fill="#263238"/>
<path d="M551.931 83.7192C551.141 83.4473 550.318 83.2785 549.484 83.2168C549.098 83.2168 548.737 83.0752 548.686 82.8176C548.655 82.415 548.754 82.013 548.969 81.6713L550.18 78.7733C551.306 76.3103 552.232 73.7604 552.949 71.1484C551.63 73.515 550.502 75.9829 549.574 78.5286C549.175 79.5461 548.776 80.525 548.402 81.4523C548.152 81.9124 548.07 82.4453 548.17 82.9592C548.221 83.0989 548.303 83.225 548.41 83.3277C548.518 83.4305 548.647 83.5071 548.789 83.5517C549.002 83.6136 549.223 83.6482 549.446 83.6548C550.268 83.7814 551.103 83.803 551.931 83.7192Z" fill="#263238"/>
<path d="M550.425 101.583C555.578 101.789 560.687 100.563 565.185 98.041C565.185 98.041 561.437 105.473 550.502 104.172L550.425 101.583Z" fill="#A36957"/>
<path d="M562.545 68.2629C562.235 68.7395 561.076 68.5334 559.788 68.2629C558.5 67.9925 557.367 67.7735 557.212 67.2197C557.058 66.6658 558.41 65.9317 560.136 66.2794C561.862 66.6272 562.854 67.8508 562.545 68.2629Z" fill="#263238"/>
<path d="M547.514 66.0744C547.398 66.6282 546.161 66.8343 544.745 66.8987C543.328 66.9631 542.079 66.8987 541.911 66.332C541.744 65.7653 542.942 64.9667 544.655 64.8894C546.368 64.8121 547.63 65.5463 547.514 66.0744Z" fill="#263238"/>
<path d="M551.957 87.3386C551.795 87.3 551.624 87.3171 551.472 87.3872C551.32 87.4572 551.196 87.5762 551.12 87.725C551.047 87.8563 551.009 88.0045 551.011 88.155C551.012 88.3054 551.053 88.4528 551.129 88.5825C551.206 88.7122 551.314 88.8198 551.445 88.8945C551.575 88.9693 551.723 89.0086 551.874 89.0086C552.024 89.0086 552.172 88.9693 552.302 88.8945C552.433 88.8198 552.542 88.7122 552.618 88.5825C552.694 88.4528 552.735 88.3054 552.737 88.155C552.738 88.0045 552.7 87.8563 552.627 87.725C552.535 87.552 552.386 87.4156 552.206 87.3383C552.026 87.2611 551.824 87.2475 551.635 87.2999" fill="#A36957"/>
<path d="M552.305 87.4931C552.305 87.4287 552.061 87.0552 551.404 87.1969C551.207 87.2481 551.028 87.35 550.883 87.4924C550.739 87.6348 550.634 87.8127 550.579 88.0083C550.51 88.2549 550.516 88.5165 550.597 88.7597C550.677 89.0029 550.828 89.2166 551.03 89.3736C551.245 89.5203 551.498 89.5988 551.758 89.5988C552.018 89.5988 552.271 89.5203 552.486 89.3736C552.657 89.2582 552.792 89.0962 552.874 88.9068C552.956 88.7174 552.982 88.5084 552.949 88.3045C552.821 87.6219 552.318 87.5189 552.293 87.609C552.267 87.6992 552.473 87.931 552.434 88.3303C552.426 88.429 552.393 88.524 552.339 88.6071C552.285 88.6902 552.212 88.7588 552.125 88.8068C552.025 88.8645 551.912 88.8948 551.797 88.8948C551.681 88.8948 551.568 88.8645 551.468 88.8068C551.378 88.7306 551.31 88.6324 551.269 88.5218C551.229 88.4112 551.217 88.292 551.236 88.1757C551.251 88.074 551.291 87.9774 551.351 87.8943C551.412 87.8113 551.492 87.7443 551.584 87.6992C551.945 87.4802 552.267 87.5833 552.305 87.4931Z" fill="#263238"/>
<path d="M571.367 76.2611C570.079 79.275 566.885 81.6062 567.323 84.8648C567.606 86.9642 568.959 88.9219 568.701 91.0342C568.366 93.6102 565.623 95.5164 565.223 98.1568C564.747 101.39 567.902 103.901 569.152 106.915C570.994 111.32 568.649 116.266 568.585 121.083C568.661 124.74 570.06 128.246 572.523 130.95C574.986 133.655 578.346 135.375 581.98 135.792C584.917 136.036 588.227 135.148 589.708 132.623C590.996 130.537 590.713 127.883 591.46 125.578C592.593 122.126 595.877 119.602 596.612 116.047C597.9 109.607 590.043 104.197 590.558 97.603C590.777 94.7823 592.516 92.3351 593.25 89.6046C593.717 87.8101 593.753 85.9304 593.355 84.1194C592.956 82.3083 592.135 80.6174 590.957 79.1848C589.012 76.8793 586.205 75.3209 584.517 72.8479C582.65 70.0015 582.585 66.408 581.941 63.0464C581.077 58.9604 579.19 55.1603 576.458 52.0014C573.726 48.8425 570.237 46.4278 566.319 44.9831C562.4 43.5384 558.179 43.1107 554.05 43.7402C549.921 44.3696 546.02 46.0356 542.709 48.5823C542.709 48.5823 540.842 57.0701 549.562 58.4998C558.281 59.9295 562.313 58.2808 563.291 61.7713C563.061 63.2092 563.174 64.6813 563.622 66.067C564.069 67.4528 564.839 68.7128 565.867 69.7439C569.422 73.5821 572.81 72.7578 571.367 76.2611Z" fill="#263238"/>
<path d="M585.213 135.135C584.945 135.144 584.676 135.118 584.415 135.058C583.659 134.924 582.918 134.721 582.199 134.452C579.54 133.433 577.207 131.71 575.45 129.468C574.218 127.921 573.252 126.18 572.591 124.316C571.839 122.193 571.442 119.961 571.419 117.709C571.392 115.226 571.704 112.752 572.346 110.354C572.698 109.088 573.128 107.845 573.634 106.632C574.166 105.425 574.635 104.191 575.038 102.935C575.392 101.698 575.392 100.386 575.038 99.1488C574.661 97.9307 574.174 96.7494 573.583 95.6197C572.986 94.4994 572.482 93.332 572.076 92.1293C571.679 90.9388 571.586 89.6682 571.805 88.4328C572.321 86.0114 573.789 84.2082 574.665 82.3664C575.499 80.6614 575.897 78.7762 575.824 76.8795C575.707 74.1039 574.7 71.4396 572.952 69.2804C572.274 68.5241 571.547 67.8141 570.775 67.1553C571.678 67.6627 572.485 68.3254 573.158 69.113C575.034 71.269 576.139 73.9876 576.3 76.8409C576.407 78.8202 576.017 80.7948 575.167 82.5853C574.278 84.4915 572.849 86.3076 572.411 88.5229C571.973 90.7382 573.016 93.0695 574.162 95.3106C574.788 96.4727 575.297 97.6936 575.682 98.9556C576.062 100.303 576.062 101.73 575.682 103.077C575.254 104.376 574.759 105.653 574.201 106.902C573.694 108.089 573.264 109.306 572.913 110.547C572.274 112.885 571.957 115.298 571.973 117.721C571.933 121.848 573.265 125.871 575.759 129.159C577.428 131.373 579.648 133.109 582.199 134.195C584.118 134.942 585.226 135.058 585.213 135.135Z" fill="#455A64"/>
<path d="M583.925 70.1432C583.297 70.3057 582.654 70.4007 582.006 70.4265C580.239 70.6156 578.454 70.5679 576.699 70.2849C575.369 70.0879 574.092 69.6276 572.942 68.931C571.792 68.2344 570.792 67.3153 570.002 66.2277C569.265 64.8517 568.678 63.4009 568.25 61.9001C567.701 60.401 566.667 59.1276 565.314 58.2809C562.493 56.4906 559.183 56.2716 556.298 55.9239C553.637 55.7912 551.053 54.9846 548.789 53.5797C547.272 52.575 546.177 51.049 545.71 49.2907C545.598 48.8142 545.568 48.3221 545.62 47.8353C545.62 47.5004 545.698 47.333 545.723 47.333C545.738 47.9709 545.821 48.6055 545.968 49.2263C546.501 50.8703 547.595 52.2745 549.059 53.1933C551.282 54.49 553.791 55.2157 556.362 55.3056C559.247 55.6405 562.673 55.8079 565.687 57.7141C567.162 58.6403 568.286 60.0317 568.881 61.6683C569.285 63.131 569.842 64.5471 570.543 65.8928C572.043 67.9508 574.29 69.3381 576.802 69.7568C578.5 70.0724 580.229 70.1891 581.954 70.1045C582.611 70.0676 583.27 70.0805 583.925 70.1432Z" fill="#455A64"/>
<path d="M580.731 59.6594C580.246 59.8217 579.735 59.8959 579.224 59.8784C576.823 59.8946 574.511 58.9699 572.784 57.3024C571.996 56.5124 571.324 55.6147 570.788 54.6363C569.628 52.6786 568.508 50.27 566.099 49.2654C563.779 48.4869 561.307 48.2706 558.887 48.6343C556.845 48.9212 554.772 48.9212 552.73 48.6343C551.309 48.4372 549.971 47.8485 548.866 46.9342C548.581 46.6851 548.329 46.3993 548.119 46.0841C547.965 45.8608 547.9 45.7449 547.926 45.7363C547.926 45.7363 548.287 46.1485 549.034 46.7281C550.135 47.5114 551.414 48.0072 552.756 48.1706C554.761 48.3967 556.787 48.3621 558.784 48.0676C561.31 47.655 563.899 47.8763 566.318 48.7116C567.562 49.2705 568.627 50.1619 569.397 51.2875C570.076 52.2916 570.699 53.3321 571.264 54.4044C571.772 55.3406 572.4 56.2065 573.132 56.9804C573.778 57.6348 574.521 58.1865 575.334 58.6162C576.532 59.2417 577.849 59.606 579.198 59.6852C580.19 59.6723 580.718 59.595 580.731 59.6594Z" fill="#455A64"/>
<path d="M589.051 132.353C588.987 132.353 589.399 131.503 589.875 129.906C590.521 127.663 590.808 125.334 590.726 123.002C590.632 119.551 589.69 116.175 587.982 113.175C587.042 111.487 585.612 109.98 584.44 108.126C583.82 107.181 583.383 106.128 583.152 105.022C582.949 103.857 583.047 102.66 583.436 101.544C584.157 99.3159 585.445 97.4484 585.728 95.4005C586.012 93.3526 585.033 91.5365 584.054 89.8235C583.549 88.9899 583.089 88.1301 582.676 87.2475C582.299 86.3916 582.051 85.4844 581.942 84.5556C581.82 82.919 581.872 81.2742 582.096 79.6484C582.508 77.3503 582.294 74.9837 581.478 72.7964C581.113 72.0302 580.596 71.3464 579.958 70.7871C579.958 70.7871 580.022 70.7871 580.113 70.8644C580.265 70.9401 580.404 71.0402 580.525 71.1606C581.029 71.5803 581.437 72.1029 581.723 72.6933C582.654 74.8994 582.944 77.3235 582.56 79.6871C582.382 81.2826 582.361 82.8916 582.495 84.4913C582.813 86.2908 583.526 87.9975 584.582 89.4886C585.131 90.3591 585.601 91.2772 585.986 92.232C586.392 93.2627 586.525 94.3806 586.372 95.4778C586.063 97.7317 584.736 99.6379 584.067 101.737C583.715 102.75 583.622 103.835 583.796 104.893C584.021 105.916 584.431 106.89 585.007 107.765C586.102 109.555 587.583 111.088 588.523 112.853C590.249 115.955 591.17 119.44 591.202 122.989C591.243 125.365 590.877 127.73 590.12 129.983C589.914 130.592 589.664 131.186 589.373 131.76C589.295 131.972 589.186 132.172 589.051 132.353Z" fill="#455A64"/>
<path d="M536.592 372.343C536.592 372.343 527.911 290.118 527.409 259.735C526.906 229.351 541.074 199.367 541.074 199.367L596.56 197.062C596.56 197.062 607.534 227.883 607.727 240.853C608.114 266.02 601.043 290.865 601.854 310.829L603.709 372.395" fill="#263238"/>
<path d="M605.576 271.249C605.287 271.5 604.981 271.733 604.662 271.945L604.159 272.292L603.618 272.82C603.141 273.233 602.71 273.695 602.33 274.199C600.54 276.388 599.239 280.316 597.99 285.198C597.351 287.906 596.41 290.532 595.182 293.029C594.809 293.713 594.378 294.363 593.894 294.974C593.662 295.283 593.443 295.618 593.173 295.914L592.323 296.764C591.105 297.902 589.691 298.809 588.15 299.443C585.046 300.808 581.529 301.452 578.335 303.062C575.063 304.823 572.534 307.703 571.213 311.176C569.641 314.667 568.637 318.325 567.349 321.751C566.061 325.177 564.322 328.448 561.553 330.535C558.905 332.375 555.761 333.367 552.537 333.381C549.549 333.562 546.78 333.471 544.294 333.845C542.057 334.077 539.918 334.885 538.086 336.189C536.748 337.235 535.745 338.65 535.201 340.259C534.855 341.274 534.78 342.362 534.982 343.415C535.136 344.136 535.329 344.484 535.291 344.497C535.083 344.173 534.935 343.816 534.853 343.44C534.581 342.366 534.617 341.237 534.956 340.182C535.468 338.493 536.478 336.998 537.854 335.893C539.733 334.476 541.956 333.586 544.294 333.317C546.87 332.905 549.613 332.956 552.563 332.763C555.692 332.743 558.742 331.772 561.308 329.981C563.911 327.707 565.832 324.755 566.859 321.455C568.147 318.067 569.087 314.396 570.723 310.842C572.109 307.226 574.752 304.231 578.168 302.405C581.491 300.757 585.007 300.126 588.034 298.812C589.515 298.198 590.876 297.326 592.052 296.236L592.864 295.424C593.121 295.141 593.34 294.819 593.572 294.523C594.026 293.937 594.427 293.312 594.77 292.655C596.004 290.193 596.958 287.601 597.616 284.927C598.904 280.059 600.308 276.079 602.201 273.877C602.578 273.375 603.01 272.917 603.489 272.511C603.696 272.331 603.876 272.151 604.056 272.009L604.584 271.674C604.906 271.512 605.237 271.371 605.576 271.249Z" fill="#FAFAFA"/>
<path d="M605.911 233.201C605.97 233.563 605.996 233.929 605.988 234.296C605.984 235.359 605.854 236.419 605.602 237.452C604.493 241.219 602.314 244.584 599.329 247.137C597.36 248.948 595.2 250.541 592.889 251.89C590.404 253.358 587.66 254.762 584.84 256.359C581.877 257.948 579.118 259.889 576.622 262.142C574.062 264.682 571.954 267.639 570.388 270.888C568.809 274.18 567.006 277.36 564.992 280.406C563.968 281.825 562.784 283.122 561.463 284.27C560.16 285.378 558.729 286.325 557.199 287.09C554.432 288.45 551.548 289.558 548.583 290.4C545.826 291.251 543.251 292.01 541.009 292.976C538.976 293.786 537.04 294.823 535.239 296.068C533.885 297.007 532.667 298.13 531.62 299.403C530.744 300.508 530.012 301.72 529.443 303.01C529.535 302.653 529.656 302.304 529.804 301.967C530.226 300.994 530.767 300.076 531.414 299.236C532.441 297.908 533.656 296.737 535.02 295.759C536.829 294.469 538.777 293.389 540.829 292.539C543.31 291.528 545.843 290.646 548.415 289.898C551.339 289.036 554.183 287.924 556.916 286.575C558.366 285.819 559.727 284.903 560.973 283.845C562.244 282.713 563.385 281.443 564.373 280.058C566.36 277.027 568.145 273.869 569.719 270.604C571.334 267.284 573.513 264.268 576.158 261.691C578.698 259.405 581.51 257.441 584.53 255.844C587.364 254.26 590.107 252.882 592.593 251.426C594.898 250.123 597.057 248.577 599.033 246.815C601.992 244.338 604.189 241.074 605.37 237.4C605.701 236.024 605.882 234.616 605.911 233.201Z" fill="#FAFAFA"/>
<path d="M527.692 264.037C527.641 263.957 527.602 263.87 527.576 263.779C527.479 263.531 527.398 263.277 527.331 263.019C527.11 261.995 527.155 260.931 527.46 259.928C528.181 257.352 531.028 254.042 535.613 252.406C537.905 251.62 540.494 251.118 543.199 250.448C545.445 250.076 547.57 249.172 549.396 247.812C551.222 246.453 552.696 244.676 553.696 242.63C554.429 241.129 555.069 239.585 555.615 238.006C556.622 234.578 557.991 231.267 559.698 228.128C561.655 225.042 564.624 222.734 568.096 221.598C571.255 220.573 574.477 219.755 577.743 219.15C580.657 218.591 583.479 217.629 586.128 216.291C588.371 215.009 590.306 213.251 591.795 211.139C593.994 208.091 595.248 204.462 595.401 200.707C595.407 199.328 595.317 197.951 595.131 196.585C595.52 197.923 595.698 199.314 595.659 200.707C595.609 204.544 594.396 208.276 592.181 211.41C590.673 213.591 588.697 215.408 586.398 216.729C583.714 218.116 580.848 219.118 577.884 219.704C574.649 220.318 571.457 221.14 568.328 222.164C564.994 223.257 562.143 225.474 560.265 228.437C558.585 231.533 557.234 234.796 556.233 238.174C555.677 239.781 555.019 241.351 554.263 242.875C553.5 244.339 552.528 245.684 551.378 246.868C549.116 248.931 546.332 250.334 543.328 250.925C540.597 251.62 538.021 252.058 535.767 252.805C531.298 254.325 528.465 257.455 527.705 259.954C527.392 260.917 527.309 261.94 527.46 262.942C527.569 263.299 527.646 263.666 527.692 264.037Z" fill="#FAFAFA"/>
<path d="M601.145 333.588C601.198 333.855 601.228 334.127 601.235 334.399C601.26 335.18 601.178 335.96 600.991 336.718C600.181 339.511 598.469 341.956 596.122 343.673C594.555 344.921 592.821 345.945 590.97 346.712C589 347.55 586.823 348.219 584.53 348.928C582.15 349.623 579.822 350.484 577.562 351.504C575.215 352.625 573.11 354.196 571.367 356.128C569.487 358.085 567.864 360.236 566.061 362.142C564.336 363.989 562.332 365.553 560.123 366.779C556.363 368.831 552.157 369.927 547.874 369.973C545.006 370.004 542.154 369.529 539.451 368.57C538.717 368.317 538.003 368.011 537.313 367.655C537.062 367.551 536.824 367.417 536.604 367.256C536.864 367.327 537.118 367.418 537.364 367.526C538.072 367.829 538.794 368.095 539.528 368.325C542.227 369.171 545.047 369.567 547.874 369.497C552.063 369.388 556.163 368.271 559.827 366.238C561.967 365.026 563.909 363.493 565.584 361.692C567.349 359.811 568.959 357.673 570.878 355.664C572.724 353.66 574.947 352.041 577.421 350.898C579.714 349.874 582.077 349.013 584.492 348.322C586.759 347.627 588.922 347.034 590.932 346.184C592.729 345.449 594.418 344.474 595.955 343.286C598.263 341.656 599.983 339.326 600.862 336.64C601.052 335.634 601.147 334.612 601.145 333.588Z" fill="#FAFAFA"/>
<path d="M594.822 162.879L584.08 163.136C583.667 165.302 582.845 167.37 581.658 169.228C572.643 153.644 565.726 132.778 564 124.394C564.258 123.556 564.554 122.629 564.928 121.599C565.195 120.034 565.147 118.431 564.786 116.885C564.477 115.017 563.962 112.506 563.807 111.346C563.33 107.792 562.751 107.238 561.514 107.637C559.84 108.191 562.21 117.593 560.832 117.799C560.085 117.902 559.183 114.682 558.926 112.042C558.668 109.402 557.457 101.261 556.594 100.72C555.306 99.9219 554.186 101.184 554.521 103.812C554.855 106.439 555.255 114.425 553.864 114.541C552.473 114.656 551.288 101.158 551.288 101.158C551.288 101.158 551.507 98.2218 549.884 98.2862C546.973 98.415 549.253 112.634 549.498 113.987C549.678 114.914 548.209 115.094 548.029 114.077C547.849 113.059 547.179 100.592 544.165 100.695C541.873 100.695 545.93 112.402 544.642 115.107C543.354 117.812 542.478 105.937 540.301 106.091C539.49 106.156 538.884 106.31 540.379 113.021C541.809 118.352 543.529 123.602 545.53 128.747C548.982 147.358 564.129 206.902 587.866 196.005C601.158 189.9 606.542 162.879 606.542 162.879H594.822Z" fill="#FFBF9D"/>
<path d="M549.034 114.888C549.135 114.914 549.241 114.914 549.343 114.888C549.498 114.841 549.631 114.739 549.719 114.602C549.806 114.465 549.842 114.302 549.819 114.141C549.819 113.342 549.665 112.183 549.485 110.676C549.183 108.86 548.985 107.028 548.892 105.19C548.892 104.108 548.892 102.948 548.956 101.725C548.975 101.103 549.04 100.483 549.15 99.8702C549.253 99.2906 549.639 98.5822 550.09 98.6981H550.167C550.618 98.6981 550.979 99.033 551.12 99.574C551.28 100.135 551.341 100.718 551.301 101.3C551.566 104.907 552.026 108.497 552.679 112.055C552.782 112.531 552.885 113.021 553.039 113.51C553.108 113.76 553.194 114.006 553.297 114.244C553.363 114.377 553.436 114.506 553.516 114.63C553.574 114.725 553.653 114.804 553.747 114.862C553.841 114.92 553.947 114.956 554.057 114.965C554.245 114.945 554.422 114.869 554.566 114.747C554.711 114.626 554.816 114.464 554.868 114.283C554.979 114.031 555.061 113.767 555.113 113.497C555.213 112.978 555.282 112.453 555.319 111.926C555.437 109.78 555.406 107.628 555.229 105.486C555.066 104.416 555.023 103.332 555.1 102.253C555.147 101.787 555.373 101.357 555.731 101.055C555.814 101.006 555.906 100.975 556.001 100.964C556.097 100.953 556.193 100.962 556.285 100.991C556.394 101.017 556.499 101.06 556.594 101.12C556.66 101.168 556.709 101.236 556.736 101.313C557.142 102.357 557.439 103.44 557.625 104.546C557.856 105.679 558.05 106.851 558.23 108.023C558.41 109.195 558.578 110.38 558.719 111.578C558.83 112.814 559.028 114.041 559.312 115.249C559.464 115.866 559.658 116.473 559.891 117.065C560.023 117.396 560.205 117.705 560.432 117.979C560.519 118.093 560.637 118.181 560.771 118.231C560.906 118.281 561.052 118.292 561.192 118.263C561.323 118.22 561.44 118.144 561.532 118.042C561.625 117.941 561.69 117.817 561.72 117.683C561.873 117.025 561.921 116.347 561.862 115.674C561.862 115.03 561.785 114.386 561.72 113.768C561.63 112.686 561.527 111.617 561.489 110.56C561.456 110.041 561.456 109.521 561.489 109.002C561.514 108.772 561.57 108.547 561.656 108.332C561.683 108.261 561.722 108.196 561.772 108.139H561.939C562.789 107.791 563.073 108.976 563.305 109.929C563.536 110.882 563.627 111.964 563.833 112.982C564.168 115.004 564.605 117.026 564.824 118.958C564.973 119.883 564.938 120.829 564.721 121.74C564.412 122.667 564.103 123.582 563.807 124.496V124.587V124.664C565.316 130.991 567.239 137.213 569.564 143.288C571.599 148.788 573.647 153.592 575.437 157.456C577.228 161.32 578.851 164.347 579.958 166.382L581.246 168.687C581.386 168.962 581.554 169.221 581.749 169.46C581.64 169.174 581.507 168.898 581.349 168.636L580.061 166.279C579.005 164.205 577.485 161.127 575.734 157.263C573.982 153.399 571.998 148.595 570.015 143.095C567.745 137.029 565.861 130.826 564.374 124.522V124.703C564.67 123.801 564.966 122.886 565.275 121.972C565.543 120.968 565.596 119.919 565.43 118.894C565.198 116.872 564.773 114.914 564.438 112.879C564.245 111.874 564.116 110.844 563.91 109.788C563.897 109.245 563.806 108.707 563.639 108.191C563.493 107.876 563.243 107.622 562.931 107.469C562.601 107.361 562.244 107.361 561.914 107.469H561.707C561.598 107.504 561.498 107.561 561.411 107.637C561.268 107.758 561.158 107.913 561.089 108.088C560.971 108.366 560.897 108.662 560.87 108.963C560.832 109.521 560.832 110.08 560.87 110.638C560.87 111.72 561.025 112.802 561.115 113.883C561.115 114.515 561.218 115.171 561.244 115.751C561.295 116.332 561.265 116.917 561.154 117.49C561.154 117.619 561.051 117.593 561.154 117.657L561.076 117.58C560.912 117.37 560.782 117.135 560.69 116.884C560.465 116.327 560.28 115.755 560.136 115.171C559.853 113.998 559.66 112.806 559.557 111.604C559.419 110.393 559.252 109.195 559.054 108.01C558.874 106.825 558.668 105.666 558.436 104.507C558.242 103.327 557.913 102.173 557.457 101.068C557.369 100.883 557.231 100.727 557.058 100.617C556.908 100.53 556.748 100.461 556.581 100.411C556.398 100.363 556.206 100.352 556.018 100.378C555.83 100.405 555.65 100.469 555.487 100.566C555.221 100.764 554.999 101.015 554.835 101.303C554.671 101.592 554.569 101.91 554.533 102.24C554.45 102.825 554.45 103.419 554.533 104.005C554.533 104.558 554.662 105.099 554.701 105.64C554.88 107.748 554.919 109.865 554.817 111.977C554.787 112.479 554.722 112.978 554.624 113.471C554.587 113.702 554.522 113.926 554.43 114.141C554.397 114.226 554.349 114.304 554.289 114.373C554.289 114.489 554.199 114.373 554.211 114.527C554.211 114.399 554.211 114.527 554.211 114.36C554.155 114.273 554.103 114.183 554.057 114.09C553.967 113.883 553.889 113.652 553.812 113.433C553.67 112.969 553.567 112.492 553.464 112.029C552.793 108.502 552.307 104.942 552.009 101.364C552.048 100.717 551.974 100.067 551.79 99.4452C551.705 99.1206 551.531 98.8262 551.288 98.5951C551.162 98.4733 551.012 98.3785 550.848 98.3165C550.684 98.2545 550.51 98.2266 550.335 98.2345H550.412C550.194 98.2026 549.971 98.2357 549.772 98.3296C549.573 98.4235 549.405 98.5741 549.291 98.7625C549.1 99.0698 548.969 99.4108 548.905 99.7672C548.797 100.406 548.736 101.052 548.725 101.699C548.725 102.987 548.725 104.108 548.725 105.202C548.847 107.053 549.083 108.894 549.433 110.715C549.652 112.209 549.819 113.368 549.897 114.154C549.921 114.292 549.898 114.433 549.83 114.555C549.761 114.678 549.653 114.772 549.523 114.824C549.137 114.862 549.021 114.875 549.034 114.888Z" fill="#A36957"/>
<path d="M465.147 180.615C462.634 180.561 460.125 180.851 457.69 181.478C451.031 183.229 439.555 190.184 439.079 198.775H447.425C447.425 198.775 442.749 208.718 444.115 207.791C447.682 205.395 454.766 198.196 454.766 198.196L465.147 180.615Z" fill="#FFBF9D"/>
<path d="M578.915 30.9116C578.722 30.9116 577.975 24.0338 577.227 15.4558C576.48 6.87783 576.017 0 576.197 0C576.377 0 577.137 6.87783 577.884 15.4558C578.631 24.0338 579.095 30.9116 578.915 30.9116Z" fill="#263238"/>
<path d="M615.506 0.528328C615.648 0.631367 610.02 8.81005 602.923 18.7919C595.826 28.7738 589.94 36.8237 589.785 36.6691C589.631 36.5146 595.272 28.3874 602.369 18.4055C609.466 8.42366 615.352 0.42529 615.506 0.528328Z" fill="#263238"/>
<path d="M630.705 37.5959C630.705 37.7762 624.162 39.2832 616.022 40.9576C607.882 42.6319 601.236 43.8426 601.197 43.6623C601.158 43.482 607.727 41.9751 615.88 40.3007C624.033 38.6263 630.615 37.4156 630.705 37.5959Z" fill="#263238"/>
<path d="M192.7 214.501L147.105 448.657L141.181 479.311L445.145 477.842C458.797 477.778 470.904 465.658 475.271 447.652L529.186 226.596C532.521 212.93 525.206 198.711 514.85 198.724L207.125 199.046C200.428 199.033 194.426 205.37 192.7 214.501Z" fill="#B3B3B3"/>
<g opacity="0.5">
<path d="M192.7 214.501L147.105 448.657L141.181 479.311L445.145 477.842C458.797 477.778 470.904 465.658 475.271 447.652L529.186 226.596C532.521 212.93 525.206 198.711 514.85 198.724L207.125 199.046C200.428 199.033 194.426 205.37 192.7 214.501Z" fill="black"/>
</g>
<path d="M416.024 432.763L383.824 173.35C382.536 162.725 374.048 154.791 364.041 154.829L293.459 155.048C290.836 155.078 288.247 155.641 285.849 156.704C283.45 157.767 281.294 159.307 279.51 161.23L246.023 196.869L49.7341 197.925C37.743 197.99 28.521 209.35 30.1052 222.101L59.9993 461.859C61.2873 472.472 69.7751 480.393 79.757 480.38L421.91 479.697C460.008 480.483 463.653 469.239 463.653 469.239C419.913 478.911 416.024 432.827 416.024 432.763Z" fill="#B3B3B3"/>
<g opacity="0.5">
<path d="M268.485 380.883L256.945 393.273L168.074 313.315L179.615 300.925L268.485 380.883Z" fill="white"/>
<path d="M252.116 298.182L264.867 309.658L184.458 396.017L171.694 384.541L252.116 298.182Z" fill="white"/>
</g>
</svg>
