<svg width="40" height="40" viewBox="0 0 40 40" fill="none" xmlns="http://www.w3.org/2000/svg">
<path d="M14.3063 6.81675C16.8396 2.27225 18.1063 0 20 0C21.8937 0 23.1604 2.27225 25.6937 6.81675L26.3491 7.99247C27.069 9.28387 27.4289 9.92957 27.9901 10.3556C28.5513 10.7817 29.2503 10.9398 30.6482 11.2561L31.9209 11.5441C36.8403 12.6571 39.3 13.2136 39.8852 15.0955C40.4704 16.9773 38.7935 18.9381 35.4398 22.8598L34.5722 23.8744C33.6191 24.9889 33.1426 25.5461 32.9283 26.2354C32.7139 26.9248 32.7859 27.6682 32.93 29.1551L33.0612 30.5088C33.5682 35.7412 33.8218 38.3574 32.2897 39.5204C30.7576 40.6835 28.4547 39.6231 23.8487 37.5023L22.657 36.9537C21.3481 36.351 20.6937 36.0497 20 36.0497C19.3063 36.0497 18.6519 36.351 17.343 36.9537L16.1513 37.5023C11.5454 39.6231 9.24235 40.6835 7.7103 39.5204C6.17824 38.3574 6.43176 35.7412 6.93879 30.5088L7.06997 29.1551C7.21405 27.6682 7.28609 26.9248 7.07173 26.2354C6.85736 25.5461 6.38085 24.9889 5.42784 23.8744L4.56019 22.8599C1.2065 18.9381 -0.470351 16.9773 0.114842 15.0955C0.700035 13.2136 3.15971 12.6571 8.07907 11.5441L9.35177 11.2561C10.7497 10.9398 11.4487 10.7817 12.0099 10.3556C12.5711 9.92957 12.9311 9.28387 13.6509 7.99247L14.3063 6.81675Z" fill="#FFB13B"/>
</svg>
