<svg width="62" height="62" viewBox="0 0 62 62" fill="none" xmlns="http://www.w3.org/2000/svg">
<g opacity="0.6">
<path d="M4.0194 33.682C2.95696 26.2983 2.42574 22.6064 3.93903 19.4498C5.45232 16.2933 8.67333 14.3745 15.1154 10.5371L18.9929 8.22724C24.8429 4.74241 27.7679 3 31 3C34.2321 3 37.1571 4.74241 43.0071 8.22723L46.8846 10.5371C53.3267 14.3745 56.5477 16.2933 58.061 19.4498C59.5743 22.6064 59.043 26.2983 57.9806 33.682L57.2 39.1066C55.8353 48.5914 55.1529 53.3338 51.8627 56.1669C48.5725 59 43.7474 59 34.097 59H27.903C18.2526 59 13.4275 59 10.1373 56.1669C6.8471 53.3338 6.16471 48.5914 4.79995 39.1066L4.0194 33.682Z" stroke="#222222" stroke-width="6"/>
<path d="M31 39.4008L31 47.8008" stroke="#222222" stroke-width="6" stroke-linecap="round"/>
</g>
</svg>
