<svg width="51" height="54" viewBox="0 0 51 54" fill="none" xmlns="http://www.w3.org/2000/svg">
<path d="M48.3336 11H3" stroke="#B75400" stroke-width="5" stroke-linecap="round"/>
<path d="M43.8878 17.666L42.6613 36.0636C42.1893 43.1434 41.9533 46.6833 39.6466 48.8413C37.3399 50.9993 33.7922 50.9993 26.6967 50.9993H24.6344C17.539 50.9993 13.9912 50.9993 11.6845 48.8413C9.37784 46.6833 9.14185 43.1434 8.66987 36.0636L7.44336 17.666" stroke="#B75400" stroke-width="5" stroke-linecap="round"/>
<path d="M19 24.334L20.3333 37.6673" stroke="#B75400" stroke-width="5" stroke-linecap="round"/>
<path d="M32.3333 24.334L31 37.6673" stroke="#B75400" stroke-width="5" stroke-linecap="round"/>
<path d="M11 11C11.149 11 11.2235 11 11.2911 10.9983C13.4869 10.9426 15.4241 9.54642 16.1712 7.48085C16.1942 7.41731 16.2178 7.34663 16.2649 7.20527L16.5238 6.42857C16.7448 5.76554 16.8553 5.43401 17.0019 5.15253C17.5867 4.02953 18.6686 3.2497 19.919 3.05004C20.2323 3 20.5818 3 21.2807 3H30.0526C30.7515 3 31.101 3 31.4144 3.05004C32.6647 3.2497 33.7466 4.02953 34.3314 5.15253C34.478 5.43402 34.5885 5.76553 34.8095 6.42857L35.0684 7.20527C35.1155 7.34644 35.1391 7.41736 35.1621 7.48085C35.9093 9.54642 37.8464 10.9426 40.0423 10.9983C40.1098 11 40.1843 11 40.3333 11" stroke="#B75400" stroke-width="5"/>
</svg>
