<svg width="68" height="68" viewBox="0 0 68 68" fill="none" xmlns="http://www.w3.org/2000/svg">
<path d="M2 66H66" stroke="#4392F1" stroke-opacity="0.5" stroke-width="4" stroke-linecap="round" stroke-linejoin="round"/>
<path d="M5.55273 66.0016V37.2016C5.55273 31.8896 10.3207 27.6016 16.2087 27.6016H51.7607C57.6487 27.6016 62.4167 31.8896 62.4167 37.2016V66.0016" stroke="#4392F1" stroke-opacity="0.5" stroke-width="4" stroke-linecap="round" stroke-linejoin="round"/>
<path d="M13.3936 27.6016V18.5456C13.3936 14.7056 16.8496 11.6016 21.1376 11.6016H46.8976C51.1536 11.6016 54.6096 14.7056 54.6096 18.5456V27.6016" stroke="#4392F1" stroke-opacity="0.5" stroke-width="4" stroke-linecap="round" stroke-linejoin="round"/>
<path d="M6.89648 40.3359L8.08048 40.3679C10.4485 40.3999 12.3365 42.3199 12.3365 44.6879V45.7439C12.3365 48.1119 14.2565 50.0639 16.6565 50.0639C19.0245 50.0639 20.9765 48.1439 20.9765 45.7439V44.7519C20.9765 42.3839 22.8965 40.4319 25.2965 40.4319C27.6645 40.4319 29.6165 42.3519 29.6165 44.7519V45.7439C29.6165 48.1119 31.5365 50.0639 33.9365 50.0639C36.3045 50.0639 38.2565 48.1439 38.2565 45.7439V44.7519C38.2565 42.3839 40.1765 40.4319 42.5765 40.4319C44.9445 40.4319 46.8965 42.3519 46.8965 44.7519V45.7439C46.8965 48.1119 48.8165 50.0639 51.2165 50.0639C53.5845 50.0639 55.5365 48.1439 55.5365 45.7439V44.7519C55.5365 42.3839 57.4565 40.4319 59.8565 40.4319H61.2965" stroke="#4392F1" stroke-opacity="0.5" stroke-width="4" stroke-linecap="round" stroke-linejoin="round"/>
<path d="M21.2002 11.5992V5.19922" stroke="#4392F1" stroke-opacity="0.5" stroke-width="4" stroke-linecap="round" stroke-linejoin="round"/>
<path d="M46.7998 11.5992V5.19922" stroke="#4392F1" stroke-opacity="0.5" stroke-width="4" stroke-linecap="round" stroke-linejoin="round"/>
<path d="M34 11.6V2" stroke="#4392F1" stroke-opacity="0.5" stroke-width="4" stroke-linecap="round" stroke-linejoin="round"/>
</svg>
