<svg width="96" height="96" viewBox="0 0 96 96" fill="none" xmlns="http://www.w3.org/2000/svg">
<rect x="2.5" y="2.5" width="91" height="91" rx="45.5" fill="white" stroke="#4392F1" stroke-width="5"/>
<path d="M56.3622 53.971L55.3334 54.994C55.3334 54.994 52.888 57.4255 46.2132 50.7885C39.5383 44.1516 41.9837 41.7201 41.9837 41.7201L42.6316 41.0759C44.2276 39.489 44.378 36.9412 42.9856 35.0812L40.1372 31.2764C38.4138 28.9743 35.0836 28.6702 33.1082 30.6344L29.5628 34.1597C28.5833 35.1336 27.9269 36.3961 28.0065 37.7966C28.2101 41.3796 29.8313 49.0886 38.877 58.083C48.4698 67.6213 57.4705 68.0003 61.1511 67.6572C62.3153 67.5487 63.3278 66.9557 64.1437 66.1445L67.3525 62.9539C69.5184 60.8003 68.9078 57.108 66.1365 55.6015L61.821 53.2555C60.0013 52.2664 57.7843 52.5569 56.3622 53.971Z" fill="#4392F1"/>
</svg>
