<svg width="72" height="68" viewBox="0 0 72 68" fill="none" xmlns="http://www.w3.org/2000/svg">
<path d="M5.60194 47.3756L11.609 29.3543C14.3326 21.1835 15.6944 17.0981 18.9167 16.3375C22.1389 15.5768 25.184 18.6219 31.2742 24.712L43.2884 36.7262C49.3786 42.8164 52.4236 45.8615 51.663 49.0837C50.9023 52.306 46.8169 53.6678 38.6461 56.3914L20.6248 62.3985C10.7922 65.676 5.87591 67.3148 3.28078 64.7197C0.685644 62.1245 2.32441 57.2082 5.60194 47.3756Z" stroke="#4392F1" stroke-opacity="0.5" stroke-width="4" stroke-linecap="round"/>
<path d="M34.8411 56.5607C34.8411 56.5607 32.1454 48.4501 32.1454 43.0821C32.1454 37.7141 34.8411 29.6034 34.8411 29.6034M20.0146 60.6043C20.0146 60.6043 17.7379 50.8199 17.3189 44.43C16.6266 33.8726 20.0146 17.4727 20.0146 17.4727" stroke="#4392F1" stroke-opacity="0.5" stroke-width="4" stroke-linecap="round"/>
<path d="M42.9277 26.9127L43.4397 24.3529C43.9566 21.7684 45.8187 19.659 48.3192 18.8255C50.8197 17.992 52.6818 15.8826 53.1987 13.2981L53.7107 10.7383" stroke="#4392F1" stroke-opacity="0.5" stroke-width="4" stroke-linecap="round"/>
<path d="M53.8027 34.9072L54.5595 35.3442C56.8959 36.6931 59.8334 36.3956 61.852 34.6057C63.6799 32.9848 66.283 32.5737 68.5215 33.5524L69.5579 34.0056" stroke="#4392F1" stroke-opacity="0.5" stroke-width="4" stroke-linecap="round"/>
<path d="M28.7966 2C27.5967 3.96288 27.8974 6.49224 29.5242 8.11901L29.8722 8.46703C31.2701 9.86494 31.7856 11.9185 31.2135 13.8109" stroke="#4392F1" stroke-opacity="0.5" stroke-width="4" stroke-linecap="round"/>
<path d="M39.554 6.96612C40.2689 6.25125 40.6263 5.89382 41.0396 5.7628C41.3892 5.65198 41.7645 5.65198 42.114 5.7628C42.5273 5.89382 42.8848 6.25125 43.5996 6.96612C44.3145 7.68099 44.6719 8.03842 44.8029 8.45171C44.9138 8.80128 44.9138 9.17657 44.8029 9.52615C44.6719 9.93943 44.3145 10.2969 43.5996 11.0117C42.8848 11.7266 42.5273 12.084 42.114 12.2151C41.7645 12.3259 41.3892 12.3259 41.0396 12.2151C40.6263 12.084 40.2689 11.7266 39.554 11.0117C38.8391 10.2969 38.4817 9.93943 38.3507 9.52615C38.2399 9.17657 38.2399 8.80128 38.3507 8.45171C38.4817 8.03842 38.8391 7.68099 39.554 6.96612Z" fill="#4392F1" fill-opacity="0.5"/>
<path d="M60.5574 17.8875C61.4299 17.015 61.8661 16.5787 62.3583 16.3891C62.9342 16.1672 63.572 16.1672 64.1479 16.3891C64.6401 16.5787 65.0763 17.015 65.9488 17.8875C66.8213 18.76 67.2576 19.1962 67.4472 19.6883C67.6691 20.2643 67.6691 20.9021 67.4472 21.478C67.2576 21.9702 66.8213 22.4064 65.9488 23.2789C65.0763 24.1514 64.6401 24.5877 64.1479 24.7773C63.572 24.9992 62.9342 24.9992 62.3583 24.7773C61.8661 24.5877 61.4299 24.1514 60.5574 23.2789C59.6849 22.4064 59.2486 21.9702 59.059 21.478C58.8371 20.9021 58.8371 20.2643 59.059 19.6883C59.2486 19.1962 59.6849 18.76 60.5574 17.8875Z" fill="#4392F1" fill-opacity="0.5"/>
<path d="M15.9648 5.34765C16.7096 4.60287 17.9171 4.60287 18.6619 5.34765C19.4067 6.09242 19.4067 7.29995 18.6619 8.04473C17.9171 8.7895 16.7096 8.7895 15.9648 8.04473C15.2201 7.29995 15.2201 6.09242 15.9648 5.34765Z" fill="#4392F1" fill-opacity="0.5"/>
<path d="M59.0967 45.7812C59.8414 45.0365 61.049 45.0365 61.7937 45.7812C62.5385 46.526 62.5385 47.7335 61.7937 48.4783C61.049 49.2231 59.8414 49.2231 59.0967 48.4783C58.3519 47.7335 58.3519 46.526 59.0967 45.7812Z" fill="#4392F1" fill-opacity="0.5"/>
<path d="M53.559 25.9722C54.3038 25.2274 55.5113 25.2274 56.2561 25.9722C57.0009 26.717 57.0009 27.9245 56.2561 28.6693C55.5113 29.414 54.3038 29.414 53.559 28.6693C52.8142 27.9245 52.8142 26.717 53.559 25.9722Z" fill="#4392F1" fill-opacity="0.5"/>
</svg>
