<svg width="94" height="94" viewBox="0 0 94 94" fill="none" xmlns="http://www.w3.org/2000/svg">
<path d="M24.56 84.84C31.16 88.8 39.08 91 47 91C71.2 91 91 71.2 91 47C91 22.8 71.2 3 47 3C22.8 3 3 22.8 3 47C3 54.92 5.2 62.4 8.72 69L3.44044 89.306C3.24572 90.0549 3.93892 90.7317 4.68299 90.5191L24.56 84.84Z" stroke="#25B800" stroke-width="5" stroke-miterlimit="10" stroke-linecap="round" stroke-linejoin="round"/>
<path d="M66.7992 59.5365C66.7992 60.2493 66.6406 60.9819 66.3035 61.6947C65.9664 62.4075 65.5301 63.0807 64.9551 63.7143C63.9834 64.7835 62.9126 65.5557 61.703 66.0507C60.5132 66.5457 59.2243 66.8031 57.8362 66.8031C55.8135 66.8031 53.6521 66.3279 51.3717 65.3577C49.0913 64.3875 46.8108 63.0807 44.5502 61.4373C42.2698 59.7741 40.1084 57.9327 38.0461 55.8933C36.0036 53.8341 34.1595 51.6759 32.5136 49.4187C30.8876 47.1615 29.5788 44.9043 28.627 42.6669C27.6751 40.4097 27.1992 38.2515 27.1992 36.1923C27.1992 34.8459 27.4372 33.5589 27.9131 32.3709C28.389 31.1631 29.1425 30.0543 30.1935 29.0643C31.4626 27.8169 32.8507 27.2031 34.3181 27.2031C34.8733 27.2031 35.4286 27.3219 35.9243 27.5595C36.4399 27.7971 36.896 28.1535 37.2529 28.6683L41.8534 35.1429C42.2103 35.6379 42.4681 36.0933 42.6466 36.5289C42.8251 36.9447 42.9242 37.3605 42.9242 37.7367C42.9242 38.2119 42.7854 38.6871 42.5078 39.1425C42.25 39.5979 41.8732 40.0731 41.3973 40.5483L39.8903 42.1125C39.6721 42.3303 39.573 42.5877 39.573 42.9045C39.573 43.0629 39.5928 43.2015 39.6325 43.3599C39.692 43.5183 39.7514 43.6371 39.7911 43.7559C40.148 44.4093 40.7628 45.2607 41.6353 46.2903C42.5276 47.3199 43.4794 48.3693 44.5106 49.4187C45.5814 50.4681 46.6125 51.4383 47.6635 52.3293C48.6947 53.2005 49.5473 53.7945 50.2216 54.1509C50.3207 54.1905 50.4397 54.2499 50.5785 54.3093C50.7371 54.3687 50.8958 54.3885 51.0742 54.3885C51.4113 54.3885 51.6691 54.2697 51.8872 54.0519L53.3943 52.5669C53.8901 52.0719 54.366 51.6957 54.8221 51.4581C55.2781 51.1809 55.7342 51.0423 56.23 51.0423C56.6067 51.0423 57.0033 51.1215 57.4396 51.2997C57.8758 51.4779 58.3319 51.7353 58.8277 52.0719L65.3913 56.7249C65.9069 57.0813 66.2638 57.4971 66.4819 57.9921C66.6802 58.4871 66.7992 58.9821 66.7992 59.5365Z" fill="#25B800"/>
</svg>
