<svg width="86" height="87" viewBox="0 0 86 87" fill="none" xmlns="http://www.w3.org/2000/svg">
<path d="M10.7451 33.3082V53.984C10.7451 61.5807 10.7451 61.5807 17.9118 66.4182L37.6201 77.8132C40.5943 79.5332 45.4318 79.5332 48.3701 77.8132L68.0784 66.4182C75.2451 61.5807 75.2451 61.5807 75.2451 54.0199V33.3082C75.2451 25.7474 75.2451 25.7474 68.0784 20.9099L48.3701 9.51485C45.4318 7.79485 40.5943 7.79485 37.6201 9.51485L17.9118 20.9099C10.7451 25.7474 10.7451 25.7474 10.7451 33.3082Z" stroke="#535353" stroke-width="5.375" stroke-linecap="round" stroke-linejoin="round"/>
<path opacity="0.34" d="M42.9922 54.4109C48.9292 54.4109 53.7422 49.5979 53.7422 43.6609C53.7422 37.7238 48.9292 32.9109 42.9922 32.9109C37.0551 32.9109 32.2422 37.7238 32.2422 43.6609C32.2422 49.5979 37.0551 54.4109 42.9922 54.4109Z" stroke="#535353" stroke-width="5.375" stroke-linecap="round" stroke-linejoin="round"/>
</svg>
