<svg width="86" height="86" viewBox="0 0 86 86" fill="none" xmlns="http://www.w3.org/2000/svg">
<path d="M44.9044 73.1752H22.2577C10.9344 73.1752 7.17188 65.6502 7.17188 58.0894V27.9177C7.17188 16.5944 10.9344 12.8319 22.2577 12.8319H44.9044C56.2277 12.8319 59.9902 16.5944 59.9902 27.9177V58.0894C59.9902 69.4127 56.1919 73.1752 44.9044 73.1752Z" stroke="#535353" stroke-width="5.375" stroke-linecap="round" stroke-linejoin="round"/>
<path opacity="0.4" d="M69.9446 61.2733L59.9829 54.2858V31.6749L69.9446 24.6874C74.8179 21.2833 78.8312 23.3616 78.8312 29.3458V56.6508C78.8312 62.6349 74.8179 64.7133 69.9446 61.2733Z" stroke="#535353" stroke-width="5.375" stroke-linecap="round" stroke-linejoin="round"/>
<path opacity="0.4" d="M41.2124 39.4019C44.1809 39.4019 46.5874 36.9954 46.5874 34.0269C46.5874 31.0584 44.1809 28.6519 41.2124 28.6519C38.2439 28.6519 35.8374 31.0584 35.8374 34.0269C35.8374 36.9954 38.2439 39.4019 41.2124 39.4019Z" stroke="#535353" stroke-width="5.375" stroke-linecap="round" stroke-linejoin="round"/>
</svg>
