<svg width="44" height="32" viewBox="0 0 44 32" fill="none" xmlns="http://www.w3.org/2000/svg">
<path d="M32 9.01818V8C32 3.43636 25.1273 0 16 0C6.87273 0 0 3.43636 0 8V15.2727C0 19.0727 4.76364 22.0909 11.6364 23V24C11.6364 28.5636 18.5091 32 27.6364 32C36.7636 32 43.6364 28.5636 43.6364 24V16.7273C43.6364 12.9636 39.0182 9.94545 32 9.01818ZM40.7273 16.7273C40.7273 19.1273 35.1273 21.8182 27.6364 21.8182C26.9636 21.8182 26.2909 21.8 25.6182 21.7455C29.5455 20.3273 32 18 32 15.2727V11.9455C37.4364 12.7636 40.7273 14.9636 40.7273 16.7273ZM11.6364 20.0364V15.7273C13.0834 15.9132 14.5411 16.0043 16 16C17.4589 16.0043 18.9166 15.9132 20.3636 15.7273V20.0364C18.9201 20.2613 17.4609 20.3707 16 20.3636C14.5391 20.3707 13.0799 20.2613 11.6364 20.0364ZM29.0909 12.7091V15.2727C29.0909 16.8 26.8364 18.4364 23.2727 19.4364V15.1818C25.6182 14.6182 27.6 13.7636 29.0909 12.7091ZM16 2.90909C23.4909 2.90909 29.0909 5.6 29.0909 8C29.0909 10.4 23.4909 13.0909 16 13.0909C8.50909 13.0909 2.90909 10.4 2.90909 8C2.90909 5.6 8.50909 2.90909 16 2.90909ZM2.90909 15.2727V12.7091C4.4 13.7636 6.38182 14.6182 8.72727 15.1818V19.4364C5.16364 18.4364 2.90909 16.8 2.90909 15.2727ZM14.5455 24V23.2364L16 23.2727C16.7152 23.2727 17.4061 23.2545 18.0727 23.2182C18.8 23.4727 19.5636 23.6909 20.3636 23.8909V28.1636C16.8 27.1636 14.5455 25.5273 14.5455 24ZM23.2727 28.7636V24.4364C24.7196 24.6262 26.1771 24.7233 27.6364 24.7273C29.0953 24.7316 30.553 24.6405 32 24.4545V28.7636C29.1073 29.2 26.1655 29.2 23.2727 28.7636ZM34.9091 28.1636V23.9091C37.2545 23.3455 39.2364 22.4909 40.7273 21.4364V24C40.7273 25.5273 38.4727 27.1636 34.9091 28.1636Z" fill="#203F7B"/>
</svg>
