<svg width="30" height="40" viewBox="0 0 30 40" fill="none" xmlns="http://www.w3.org/2000/svg">
<path fill-rule="evenodd" clip-rule="evenodd" d="M11.2484 0.465988C10.4368 1.16164 10.3428 2.3835 11.0385 3.1951L25.4426 19.9999L11.0385 36.8047C10.3428 37.6163 10.4368 38.8382 11.2484 39.5339C12.06 40.2295 13.2819 40.1355 13.9775 39.3239L29.4613 21.2595C30.0826 20.5347 30.0826 19.4651 29.4613 18.7403L13.9775 0.675919C13.2819 -0.135675 12.06 -0.229664 11.2484 0.465988Z" fill="#B75400"/>
<path d="M0.25 1.9356C0.25 1.12565 0.754328 0.401358 1.51397 0.120349C2.27361 -0.16066 3.12789 0.0610516 3.65499 0.676011L19.1388 18.7404C19.7601 19.4652 19.7601 20.5348 19.1388 21.2596L3.655 39.324C3.12789 39.939 2.27361 40.1607 1.51397 39.8797C0.75433 39.5987 0.250002 38.8744 0.250002 38.0644L0.25 1.9356Z" fill="#B75400"/>
</svg>
