<svg width="76" height="67" viewBox="0 0 76 67" fill="none" xmlns="http://www.w3.org/2000/svg">
<path d="M27.2638 57.7466L29.1211 55.3906L27.2638 57.7466ZM37.8531 11.0076L35.6917 13.088C36.2572 13.6756 37.0376 14.0076 37.8531 14.0076C38.6687 14.0076 39.4491 13.6756 40.0146 13.088L37.8531 11.0076ZM48.4425 57.7466L50.2997 60.1025L48.4425 57.7466ZM29.1211 55.3906C23.8156 51.2082 18.0821 47.1729 13.5295 42.0464C9.07968 37.0358 6 31.22 6 23.6819H0C0 33.0926 3.9248 40.2671 9.0432 46.0306C14.0588 51.6783 20.4572 56.2008 25.4066 60.1025L29.1211 55.3906ZM6 23.6819C6 16.3298 10.1538 10.1845 15.7925 7.60698C21.2421 5.11594 28.6178 5.73853 35.6917 13.088L40.0146 8.92724C31.4051 -0.0176857 21.3542 -1.53241 13.2981 2.15005C5.43114 5.74607 0 14.085 0 23.6819H6ZM25.4066 60.1025C27.1883 61.5071 29.1256 63.025 31.0949 64.1758C33.0633 65.326 35.3489 66.2852 37.8531 66.2852V60.2852C36.8721 60.2852 35.6724 59.9014 34.1221 58.9954C32.5727 58.0901 30.958 56.8387 29.1211 55.3906L25.4066 60.1025ZM50.2997 60.1025C55.2491 56.2008 61.6475 51.6783 66.6631 46.0306C71.7815 40.2671 75.7063 33.0926 75.7063 23.6819H69.7063C69.7063 31.22 66.6266 37.0358 62.1768 42.0464C57.6242 47.1729 51.8906 51.2082 46.5852 55.3906L50.2997 60.1025ZM75.7063 23.6819C75.7063 14.085 70.2752 5.74607 62.4082 2.15005C54.3521 -1.53241 44.3012 -0.0176857 35.6917 8.92724L40.0146 13.088C47.0885 5.73853 54.4642 5.11594 59.9138 7.60698C65.5525 10.1845 69.7063 16.3298 69.7063 23.6819H75.7063ZM46.5852 55.3906C44.7483 56.8387 43.1336 58.0901 41.5842 58.9954C40.0339 59.9014 38.8342 60.2852 37.8531 60.2852V66.2852C40.3574 66.2852 42.643 65.326 44.6114 64.1758C46.5807 63.025 48.518 61.5071 50.2997 60.1025L46.5852 55.3906Z" fill="white"/>
</svg>
