<svg width="89" height="80" viewBox="0 0 89 80" fill="none" xmlns="http://www.w3.org/2000/svg">
<path fill-rule="evenodd" clip-rule="evenodd" d="M34.5679 80H54.321C68.1922 80 75.1278 80 80.11 76.7315C82.2669 75.3166 84.1187 73.4984 85.5599 71.3808C88.8889 66.4892 88.8889 59.6796 88.8889 46.0606C88.8889 32.4416 88.8889 25.6321 85.5599 20.7405C84.1187 18.6228 82.2669 16.8046 80.11 15.3897C76.9087 13.2895 72.9007 12.5388 66.7645 12.2705C63.8362 12.2705 61.315 10.0919 60.7407 7.27273C59.8793 3.04395 56.0976 0 51.7052 0H37.1837C32.7913 0 29.0096 3.04395 28.1481 7.27273C27.5739 10.0919 25.0527 12.2705 22.1244 12.2705C15.9882 12.5388 11.9802 13.2895 8.77886 15.3897C6.62202 16.8046 4.77015 18.6228 3.329 20.7405C0 25.6321 0 32.4416 0 46.0606C0 59.6796 0 66.4892 3.329 71.3808C4.77015 73.4984 6.62202 75.3166 8.77886 76.7315C13.7611 80 20.6967 80 34.5679 80ZM44.4444 27.8788C34.2169 27.8788 25.9259 36.0191 25.9259 46.0606C25.9259 56.1022 34.2169 64.2424 44.4444 64.2424C54.6719 64.2424 62.963 56.1022 62.963 46.0606C62.963 36.0191 54.6719 27.8788 44.4444 27.8788ZM44.4444 35.1515C38.3079 35.1515 33.3333 40.0357 33.3333 46.0606C33.3333 52.0855 38.3079 56.9697 44.4444 56.9697C50.5809 56.9697 55.5556 52.0855 55.5556 46.0606C55.5556 40.0357 50.5809 35.1515 44.4444 35.1515ZM65.4321 31.5152C65.4321 29.5068 67.0903 27.8788 69.1358 27.8788H74.0741C76.1196 27.8788 77.7778 29.5068 77.7778 31.5152C77.7778 33.5235 76.1196 35.1515 74.0741 35.1515H69.1358C67.0903 35.1515 65.4321 33.5235 65.4321 31.5152Z" fill="#222222"/>
</svg>
