<svg width="16" height="16" viewBox="0 0 16 16" fill="none" xmlns="http://www.w3.org/2000/svg">
<path d="M10.0563 2.81175L10.6833 2.18483C11.722 1.14611 13.4061 1.14611 14.4448 2.18483C15.4835 3.22354 15.4835 4.90763 14.4448 5.94635L13.8179 6.57327M10.0563 2.81175C10.0563 2.81175 10.1347 4.14395 11.3102 5.31943C12.4857 6.4949 13.8179 6.57327 13.8179 6.57327M10.0563 2.81175L4.29278 8.57532C3.9024 8.9657 3.70721 9.16089 3.53935 9.3761C3.34133 9.62998 3.17156 9.90467 3.03304 10.1953C2.91562 10.4417 2.82832 10.7036 2.65374 11.2273L1.91395 13.4467M13.8179 6.57327L8.0543 12.3368C7.66392 12.7272 7.46873 12.9224 7.25351 13.0903C6.99964 13.2883 6.72494 13.4581 6.43429 13.5966C6.1879 13.714 5.92603 13.8013 5.40228 13.9759L3.18291 14.7157M3.18291 14.7157L2.6404 14.8965C2.38266 14.9824 2.0985 14.9153 1.90639 14.7232C1.71428 14.5311 1.6472 14.247 1.73312 13.9892L1.91395 13.4467M3.18291 14.7157L1.91395 13.4467" stroke="white" stroke-width="1.44928"/>
</svg>
