<svg width="76" height="66" viewBox="0 0 76 66" fill="none" xmlns="http://www.w3.org/2000/svg">
<path d="M3 23.6819C3 40.6307 17.009 49.6625 27.2638 57.7466C30.8825 60.5992 34.3678 63.2852 37.8531 63.2852C41.3385 63.2852 44.8238 60.5992 48.4425 57.7466C58.6973 49.6625 72.7063 40.6307 72.7063 23.6819C72.7063 6.73301 53.5365 -5.28679 37.8531 11.0076C22.1698 -5.28679 3 6.73301 3 23.6819Z" fill="#FF4329"/>
<path d="M27.2638 57.7466L28.8115 55.7833L27.2638 57.7466ZM37.8531 11.0076L36.0519 12.7413C36.5232 13.231 37.1735 13.5076 37.8531 13.5076C38.5328 13.5076 39.1831 13.231 39.6544 12.7413L37.8531 11.0076ZM48.4425 57.7466L46.8948 55.7833H46.8947L48.4425 57.7466ZM28.8115 55.7833C23.5358 51.6243 17.7468 47.5483 13.1556 42.3784C8.65011 37.3051 5.5 31.3761 5.5 23.6819H0.5C0.5 32.9365 4.35437 39.9978 9.41706 45.6986C14.394 51.3028 20.737 55.7848 25.7161 59.7099L28.8115 55.7833ZM5.5 23.6819C5.5 16.1428 9.76021 9.8146 15.5846 7.15224C21.2515 4.56191 28.8501 5.25885 36.0519 12.7413L39.6544 9.27397C31.1729 0.461999 21.3449 -0.978384 13.506 2.6048C5.82469 6.11594 0.5 14.2721 0.5 23.6819H5.5ZM25.7161 59.7099C27.5025 61.1181 29.4129 62.6138 31.3472 63.7441C33.2807 64.874 35.4758 65.7852 37.8531 65.7852V60.7852C36.7452 60.7852 35.455 60.3534 33.8698 59.4271C32.2855 58.5013 30.6439 57.2277 28.8115 55.7833L25.7161 59.7099ZM49.9902 59.7099C54.9693 55.7848 61.3123 51.3028 66.2892 45.6986C71.3519 39.9978 75.2063 32.9365 75.2063 23.6819H70.2063C70.2063 31.3761 67.0562 37.3051 62.5507 42.3784C57.9594 47.5483 52.1705 51.6243 46.8948 55.7833L49.9902 59.7099ZM75.2063 23.6819C75.2063 14.2721 69.8816 6.11594 62.2003 2.6048C54.3614 -0.978384 44.5334 0.461999 36.0519 9.27397L39.6544 12.7413C46.8562 5.25885 54.4548 4.56191 60.1217 7.15224C65.9461 9.8146 70.2063 16.1428 70.2063 23.6819H75.2063ZM46.8947 55.7833C45.0624 57.2277 43.4208 58.5013 41.8365 59.4271C40.2513 60.3534 38.9611 60.7852 37.8531 60.7852V65.7852C40.2305 65.7852 42.4256 64.8739 44.3591 63.7441C46.2934 62.6138 48.2038 61.1181 49.9902 59.7099L46.8947 55.7833Z" fill="white"/>
</svg>
