<svg width="21" height="21" viewBox="0 0 21 21" fill="none" xmlns="http://www.w3.org/2000/svg">
<path d="M20.6665 8.39113H19.826V8.34783H10.4347V12.5217H16.3319C15.4715 14.9515 13.1597 16.6957 10.4347 16.6957C6.9771 16.6957 4.17379 13.8923 4.17379 10.4348C4.17379 6.97722 6.9771 4.17391 10.4347 4.17391C12.0307 4.17391 13.4827 4.776 14.5882 5.75948L17.5397 2.808C15.6761 1.07113 13.1832 0 10.4347 0C4.67205 0 -0.00012207 4.67217 -0.00012207 10.4348C-0.00012207 16.1974 4.67205 20.8696 10.4347 20.8696C16.1973 20.8696 20.8694 16.1974 20.8694 10.4348C20.8694 9.73513 20.7974 9.05217 20.6665 8.39113Z" fill="#FFC107"/>
<path d="M1.20288 5.57791L4.63123 8.09217C5.55888 5.79548 7.80549 4.17391 10.4345 4.17391C12.0305 4.17391 13.4825 4.776 14.5881 5.75948L17.5396 2.808C15.6759 1.07113 13.1831 4.76837e-07 10.4345 4.76837e-07C6.42653 4.76837e-07 2.95071 2.26278 1.20288 5.57791Z" fill="#FF3D00"/>
<path d="M10.4345 20.8692C13.1298 20.8692 15.5788 19.8377 17.4305 18.1603L14.2009 15.4274C13.1532 16.221 11.851 16.6952 10.4345 16.6952C7.72038 16.6952 5.41585 14.9646 4.54768 12.5495L1.1449 15.1712C2.87185 18.5505 6.37898 20.8692 10.4345 20.8692Z" fill="#4CAF50"/>
<path d="M20.6665 8.39113H19.826V8.34783H10.4347V12.5217H16.3319C15.9187 13.6889 15.1679 14.6953 14.1996 15.4283L14.2011 15.4273L17.4307 18.1602C17.2022 18.3678 20.8695 15.6522 20.8695 10.4348C20.8695 9.73513 20.7975 9.05217 20.6665 8.39113Z" fill="#1976D2"/>
</svg>
