<svg width="73" height="73" viewBox="0 0 73 73" fill="none" xmlns="http://www.w3.org/2000/svg">
<path fill-rule="evenodd" clip-rule="evenodd" d="M72.1328 36.8008C72.1328 56.683 56.0151 72.8008 36.1328 72.8008C16.2506 72.8008 0.132812 56.683 0.132812 36.8008C0.132812 16.9185 16.2506 0.800781 36.1328 0.800781C56.0151 0.800781 72.1328 16.9185 72.1328 36.8008ZM50.642 25.8916C51.6964 26.946 51.6964 28.6556 50.642 29.71L32.642 47.71C31.5876 48.7644 29.878 48.7644 28.8236 47.71L21.6236 40.51C20.5692 39.4556 20.5692 37.746 21.6236 36.6916C22.678 35.6372 24.3876 35.6372 25.442 36.6916L30.7328 41.9824L38.7782 33.937L46.8236 25.8916C47.878 24.8372 49.5876 24.8372 50.642 25.8916Z" fill="#B75400"/>
</svg>
