<svg width="59" height="62" viewBox="0 0 59 62" fill="none" xmlns="http://www.w3.org/2000/svg">
<path d="M55.8891 12.333H3" stroke="#222222" stroke-width="5" stroke-linecap="round"/>
<path d="M50.7021 20.1104L49.2712 41.5743C48.7205 49.834 48.4452 53.9638 45.7541 56.4815C43.0629 58.9992 38.9239 58.9992 30.6459 58.9992H28.2398C19.9618 58.9992 15.8228 58.9992 13.1316 56.4815C10.4405 53.9638 10.1652 49.834 9.61452 41.5743L8.18359 20.1104" stroke="#222222" stroke-width="5" stroke-linecap="round"/>
<path d="M21.668 27.8896L23.2235 43.4452" stroke="#222222" stroke-width="5" stroke-linecap="round"/>
<path d="M37.2235 27.8896L35.668 43.4452" stroke="#222222" stroke-width="5" stroke-linecap="round"/>
<path d="M12.332 12.3333C12.5059 12.3333 12.5928 12.3333 12.6716 12.3313C15.2334 12.2664 17.4934 10.6375 18.3651 8.22766C18.392 8.15353 18.4195 8.07107 18.4744 7.90614L18.7765 7C19.0343 6.22647 19.1632 5.83968 19.3343 5.51129C20.0165 4.20111 21.2788 3.29131 22.7375 3.05838C23.1031 3 23.5108 3 24.3262 3H34.5601C35.3755 3 35.7832 3 36.1488 3.05838C37.6075 3.29131 38.8698 4.20111 39.552 5.51129C39.723 5.83968 39.852 6.22646 40.1098 7L40.4119 7.90614C40.4668 8.07085 40.4943 8.15358 40.5211 8.22766C41.3928 10.6375 43.6529 12.2664 46.2147 12.3313C46.2935 12.3333 46.3804 12.3333 46.5543 12.3333" stroke="#222222" stroke-width="5"/>
</svg>
