<svg width="32" height="32" viewBox="0 0 32 32" fill="none" xmlns="http://www.w3.org/2000/svg">
<path d="M11.4451 5.4534C13.4717 1.8178 14.485 0 16 0C17.515 0 18.5283 1.8178 20.5549 5.4534L21.0793 6.39397C21.6552 7.4271 21.9431 7.94366 22.3921 8.28449C22.8411 8.62532 23.4002 8.75184 24.5186 9.00488L25.5367 9.23525C29.4722 10.1257 31.44 10.5709 31.9081 12.0764C32.3763 13.5818 31.0348 15.1505 28.3518 18.2879L27.6577 19.0996C26.8953 19.9911 26.5141 20.4369 26.3426 20.9883C26.1711 21.5398 26.2288 22.1346 26.344 23.3241L26.449 24.407C26.8546 28.593 27.0574 30.6859 25.8318 31.6163C24.6061 32.5468 22.7637 31.6985 19.0789 30.0019L18.1256 29.5629C17.0785 29.0808 16.555 28.8398 16 28.8398C15.445 28.8398 14.9215 29.0808 13.8744 29.5629L12.9211 30.0019C9.23628 31.6985 7.39388 32.5468 6.16824 31.6163C4.94259 30.6859 5.14541 28.593 5.55103 24.407L5.65597 23.3241C5.77124 22.1346 5.82887 21.5398 5.65738 20.9883C5.48589 20.4369 5.10468 19.9911 4.34227 19.0996L3.64816 18.2879C0.965198 15.1505 -0.376281 13.5818 0.0918736 12.0764C0.560028 10.5709 2.52777 10.1257 6.46326 9.23525L7.48142 9.00488C8.59976 8.75184 9.15893 8.62532 9.60791 8.28449C10.0569 7.94366 10.3448 7.4271 10.9207 6.39397L11.4451 5.4534Z" fill="white"/>
</svg>
