<svg width="15" height="20" viewBox="0 0 15 20" fill="none" xmlns="http://www.w3.org/2000/svg">
<path fill-rule="evenodd" clip-rule="evenodd" d="M7.55066 0.463562C3.45255 0.463562 0.130371 4.1761 0.130371 8.34762C0.130371 12.4864 2.49867 16.9852 6.19374 18.7123C7.05512 19.1149 8.0462 19.1149 8.90758 18.7123C12.6026 16.9852 14.971 12.4864 14.971 8.34762C14.971 4.1761 11.6488 0.463562 7.55066 0.463562ZM7.55066 9.73892C8.57519 9.73892 9.40573 8.90838 9.40573 7.88385C9.40573 6.85932 8.57519 6.02878 7.55066 6.02878C6.52613 6.02878 5.69559 6.85932 5.69559 7.88385C5.69559 8.90838 6.52613 9.73892 7.55066 9.73892Z" fill="#B75400"/>
</svg>
