<svg width="86" height="86" viewBox="0 0 86 86" fill="none" xmlns="http://www.w3.org/2000/svg">
<path d="M49.2025 12.5797L55.5092 25.193C56.3692 26.9488 58.6625 28.633 60.5975 28.9555L72.0283 30.8547C79.3383 32.073 81.0583 37.3763 75.7908 42.608L66.9042 51.4947C65.3992 52.9997 64.575 55.9022 65.0408 57.9805L67.585 68.9813C69.5917 77.6888 64.9692 81.0572 57.265 76.5063L46.5508 70.1638C44.6158 69.0172 41.4267 69.0172 39.4558 70.1638L28.7417 76.5063C21.0733 81.0572 16.415 77.653 18.4217 68.9813L20.9658 57.9805C21.4317 55.9022 20.6075 52.9997 19.1025 51.4947L10.2158 42.608C4.98417 37.3763 6.66834 32.073 13.9783 30.8547L25.4092 28.9555C27.3083 28.633 29.6017 26.9488 30.4617 25.193L36.7683 12.5797C40.2083 5.73549 45.7983 5.73549 49.2025 12.5797Z" stroke="#F4352C" stroke-width="5.375" stroke-linecap="round" stroke-linejoin="round"/>
<path d="M46.24 43.5826C44.3609 42.3062 41.8791 42.3063 40 43.6536" stroke="#535353" stroke-width="5.31819" stroke-miterlimit="10" stroke-linecap="round" stroke-linejoin="round"/>
</svg>
