<svg width="86" height="86" viewBox="0 0 86 86" fill="none" xmlns="http://www.w3.org/2000/svg">
<path d="M60.7764 22.116C67.943 27.0968 72.888 35.016 73.8914 44.1535" stroke="#535353" stroke-width="5.375" stroke-linecap="round" stroke-linejoin="round"/>
<path d="M12.5068 44.3214C13.4385 35.2198 18.3118 27.3006 25.4068 22.2839" stroke="#535353" stroke-width="5.375" stroke-linecap="round" stroke-linejoin="round"/>
<path d="M29.3457 75.04C33.5024 77.1542 38.2324 78.3367 43.2132 78.3367C48.0149 78.3367 52.5299 77.2617 56.579 75.2909" stroke="#535353" stroke-width="5.375" stroke-linecap="round" stroke-linejoin="round"/>
<path d="M43.2126 27.594C48.7143 27.594 53.1743 23.134 53.1743 17.6323C53.1743 12.1306 48.7143 7.67065 43.2126 7.67065C37.711 7.67065 33.251 12.1306 33.251 17.6323C33.251 23.134 37.711 27.594 43.2126 27.594Z" stroke="#F4352C" stroke-width="5.375" stroke-linecap="round" stroke-linejoin="round"/>
<path d="M17.3103 71.3777C22.812 71.3777 27.272 66.9177 27.272 61.416C27.272 55.9143 22.812 51.4543 17.3103 51.4543C11.8086 51.4543 7.34863 55.9143 7.34863 61.416C7.34863 66.9177 11.8086 71.3777 17.3103 71.3777Z" stroke="#F4352C" stroke-width="5.375" stroke-linecap="round" stroke-linejoin="round"/>
<path d="M68.6951 71.3777C74.1967 71.3777 78.6567 66.9177 78.6567 61.416C78.6567 55.9143 74.1967 51.4543 68.6951 51.4543C63.1934 51.4543 58.7334 55.9143 58.7334 61.416C58.7334 66.9177 63.1934 71.3777 68.6951 71.3777Z" stroke="#F4352C" stroke-width="5.375" stroke-linecap="round" stroke-linejoin="round"/>
</svg>
