<svg width="86" height="86" viewBox="0 0 86 86" fill="none" xmlns="http://www.w3.org/2000/svg">
<path d="M78.833 23.2917H57.333" stroke="#F4352C" stroke-width="5.375" stroke-miterlimit="10" stroke-linecap="round" stroke-linejoin="round"/>
<path d="M21.5003 23.2917H7.16699" stroke="#535353" stroke-width="5.375" stroke-miterlimit="10" stroke-linecap="round" stroke-linejoin="round"/>
<path d="M35.8337 35.8333C42.7602 35.8333 48.3753 30.2182 48.3753 23.2917C48.3753 16.3651 42.7602 10.75 35.8337 10.75C28.9071 10.75 23.292 16.3651 23.292 23.2917C23.292 30.2182 28.9071 35.8333 35.8337 35.8333Z" stroke="#535353" stroke-width="5.375" stroke-miterlimit="10" stroke-linecap="round" stroke-linejoin="round"/>
<path d="M28.667 62.7083H7.16699" stroke="#F4352C" stroke-width="5.375" stroke-miterlimit="10" stroke-linecap="round" stroke-linejoin="round"/>
<path d="M78.8333 62.707H64.5" stroke="#535353" stroke-width="5.375" stroke-miterlimit="10" stroke-linecap="round" stroke-linejoin="round"/>
<path d="M50.1667 75.2486C57.0932 75.2486 62.7083 69.6335 62.7083 62.707C62.7083 55.7804 57.0932 50.1653 50.1667 50.1653C43.2401 50.1653 37.625 55.7804 37.625 62.707C37.625 69.6335 43.2401 75.2486 50.1667 75.2486Z" stroke="#535353" stroke-width="5.375" stroke-miterlimit="10" stroke-linecap="round" stroke-linejoin="round"/>
</svg>
